<?xml version="1.0" encoding="UTF-8" standalone="no"?>
<svg xmlns:xlink="http://www.w3.org/1999/xlink" height="13.0px" width="22.45px" xmlns="http://www.w3.org/2000/svg">
  <g transform="matrix(1.0, 0.0, 0.0, 1.0, 11.2, 6.5)">
    <path d="M6.65 -5.85 Q8.2 -6.7 9.75 -6.4 11.25 -6.1 11.25 -5.15 11.25 -4.45 10.4 -3.05 9.3 -1.25 7.7 -0.45 5.7 0.55 3.6 -0.15 4.05 -4.45 6.65 -5.85" fill="url(#gradient0)" fill-rule="evenodd" stroke="none"/>
    <path d="M-8.55 6.25 Q-10.45 5.75 -11.2 4.5 -11.4 4.15 -9.5 2.6 -7.5 1.05 -6.2 0.65 L-2.4 0.2 Q0.15 0.3 0.15 1.55 0.15 3.3 -2.35 4.85 -4.2 6.05 -5.9 6.4 L-8.55 6.25" fill="url(#gradient1)" fill-rule="evenodd" stroke="none"/>
  </g>
  <defs>
    <radialGradient cx="0" cy="0" gradientTransform="matrix(0.0055, -0.0034, 0.0019, 0.0032, 7.95, -4.55)" gradientUnits="userSpaceOnUse" id="gradient0" r="819.2" spreadMethod="pad">
      <stop offset="0.0" stop-color="#00ff00"/>
      <stop offset="0.6509803921568628" stop-color="#006600"/>
    </radialGradient>
    <radialGradient cx="0" cy="0" gradientTransform="matrix(0.007, -0.0025, 0.0015, 0.0041, -4.3, 1.95)" gradientUnits="userSpaceOnUse" id="gradient1" r="819.2" spreadMethod="pad">
      <stop offset="0.0" stop-color="#00ff00"/>
      <stop offset="0.6509803921568628" stop-color="#006600"/>
    </radialGradient>
  </defs>
</svg>
