<?xml version="1.0" encoding="UTF-8" standalone="no"?>
<svg xmlns:xlink="http://www.w3.org/1999/xlink" height="35.1px" width="45.45px" xmlns="http://www.w3.org/2000/svg">
  <g transform="matrix(1.0, 0.0, 0.0, 1.0, 22.6, 17.5)">
    <path d="M5.55 -8.5 Q8.05 -9.85 10.6 -9.3 15.05 -8.45 14.55 -5.1 14.6 -3.8 13.2 -1.45 11.6 1.15 9.3 2.25 6.15 3.8 2.9 2.7 L2.85 2.65 Q1.85 2.3 1.3 1.45 L1.35 1.45 Q0.75 0.55 0.85 -0.45 L0.85 -0.5 Q1.5 -6.6 5.5 -8.45 L5.55 -8.5" fill="url(#gradient0)" fill-rule="evenodd" stroke="none"/>
    <path d="M11.8 -15.2 L11.75 -15.2 Q7.25 -16.25 2.75 -13.8 -4.05 -11.0 -5.1 -1.15 L-5.1 -1.1 Q-5.45 1.95 -3.75 4.65 L-3.7 4.7 Q-2.05 7.25 0.75 8.3 L0.9 8.35 Q6.55 10.3 12.0 7.6 L11.95 7.65 Q15.75 5.85 18.35 1.65 20.85 -2.5 20.6 -4.95 22.1 -13.15 11.8 -15.2 M12.2 -17.15 Q24.4 -14.75 22.65 -5.0 22.95 -2.1 20.05 2.7 17.15 7.4 12.9 9.4 L12.85 9.45 Q6.7 12.45 0.25 10.25 L0.1 10.15 Q-3.45 8.85 -5.45 5.7 L-5.35 5.8 Q-7.5 2.5 -7.1 -1.3 L-7.1 -1.35 Q-5.9 -12.5 1.8 -15.6 6.95 -18.35 12.15 -17.15 L12.2 -17.15" fill="url(#gradient1)" fill-rule="evenodd" stroke="none"/>
    <path d="M11.8 -15.2 Q22.1 -13.15 20.6 -4.95 20.85 -2.5 18.35 1.65 15.75 5.85 11.95 7.65 L12.0 7.6 Q6.55 10.3 0.9 8.35 L0.75 8.3 Q-2.05 7.25 -3.7 4.7 L-3.75 4.65 Q-5.45 1.95 -5.1 -1.1 L-5.1 -1.15 Q-4.05 -11.0 2.75 -13.8 7.25 -16.25 11.75 -15.2 L11.8 -15.2 M3.7 -12.05 L3.65 -12.05 Q-2.2 -9.55 -3.1 -0.9 -3.4 1.55 -2.0 3.65 L-2.05 3.6 Q-0.8 5.6 1.45 6.4 L1.6 6.45 Q6.45 8.15 11.1 5.85 L11.05 5.85 Q14.4 4.25 16.65 0.6 18.8 -3.0 18.6 -5.1 19.7 -11.6 11.4 -13.25 7.55 -14.1 3.7 -12.05" fill="url(#gradient2)" fill-rule="evenodd" stroke="none"/>
    <path d="M4.5 -10.2 L4.6 -10.3 Q-0.35 -8.1 -1.1 -0.7 -1.3 1.05 -0.35 2.55 L-0.35 2.5 Q0.55 3.95 2.15 4.55 L2.25 4.55 Q6.3 5.95 10.2 4.05 13.0 2.7 14.95 -0.45 16.75 -3.45 16.55 -5.15 17.3 -10.05 11.0 -11.3 7.75 -12.0 4.5 -10.2 M3.7 -12.05 Q7.55 -14.1 11.4 -13.25 19.7 -11.6 18.6 -5.1 18.8 -3.0 16.65 0.6 14.4 4.25 11.05 5.85 L11.1 5.85 Q6.45 8.15 1.6 6.45 L1.45 6.4 Q-0.8 5.6 -2.05 3.6 L-2.0 3.65 Q-3.4 1.55 -3.1 -0.9 -2.2 -9.55 3.65 -12.05 L3.7 -12.05" fill="url(#gradient3)" fill-rule="evenodd" stroke="none"/>
    <path d="M5.55 -8.5 L5.5 -8.45 Q1.5 -6.6 0.85 -0.5 L0.85 -0.45 Q0.75 0.55 1.35 1.45 L1.3 1.45 Q1.85 2.3 2.85 2.65 L2.9 2.7 Q6.15 3.8 9.3 2.25 11.6 1.15 13.2 -1.45 14.6 -3.8 14.55 -5.1 15.05 -8.45 10.6 -9.3 8.05 -9.85 5.55 -8.5 M4.5 -10.2 Q7.75 -12.0 11.0 -11.3 17.3 -10.05 16.55 -5.15 16.75 -3.45 14.95 -0.45 13.0 2.7 10.2 4.05 6.3 5.95 2.25 4.55 L2.15 4.55 Q0.55 3.95 -0.35 2.5 L-0.35 2.55 Q-1.3 1.05 -1.1 -0.7 -0.35 -8.1 4.6 -10.3 L4.5 -10.2" fill="url(#gradient4)" fill-rule="evenodd" stroke="none"/>
    <path d="M-6.65 -2.25 L-2.1 -2.8 -2.0 -2.8 Q0.55 -2.7 1.75 -1.8 3.55 -0.6 3.45 1.6 3.7 4.75 -0.4 7.35 L-0.45 7.4 -0.5 7.4 Q-2.85 8.9 -5.0 9.35 L-4.95 9.35 -9.05 9.2 -9.05 9.15 Q-12.2 8.35 -13.45 6.25 -14.8 4.9 -13.45 2.7 -12.9 1.7 -11.15 0.3 L-11.25 0.4 -11.05 0.25 Q-8.5 -1.75 -6.8 -2.2 L-6.65 -2.25" fill="url(#gradient5)" fill-rule="evenodd" stroke="none"/>
    <path d="M-16.35 -5.75 L-15.95 -6.1 Q-11.85 -9.3 -9.0 -9.9 L-8.65 -10.0 -2.1 -10.8 -1.9 -10.8 -1.7 -10.8 Q3.75 -10.6 6.25 -8.45 11.35 -5.0 11.4 1.1 L11.4 1.15 Q12.85 8.4 4.05 14.0 L3.85 14.1 3.7 14.2 Q0.15 16.45 -3.15 17.15 L-11.0 16.95 -11.1 16.9 Q-17.15 15.3 -19.75 11.25 -25.2 6.5 -20.25 -1.45 -19.3 -3.4 -16.2 -5.9 L-16.35 -5.75 M-14.75 -4.5 L-14.9 -4.35 -14.95 -4.35 Q-17.7 -2.1 -18.55 -0.45 -22.6 6.15 -18.15 10.05 -15.85 13.55 -10.55 15.0 L-10.5 15.0 -3.8 15.25 Q-0.7 14.65 2.65 12.5 L2.8 12.45 2.9 12.35 Q10.6 7.45 9.4 1.15 9.35 -3.9 5.1 -6.75 2.95 -8.6 -1.75 -8.8 L-1.95 -8.8 -2.1 -8.8 -8.1 -8.05 -8.45 -7.95 Q-11.0 -7.4 -14.75 -4.5" fill="url(#gradient6)" fill-rule="evenodd" stroke="none"/>
    <path d="M-13.5 -2.95 Q-10.2 -5.55 -7.9 -6.05 L-7.6 -6.1 Q-5.05 -6.85 -2.1 -6.8 L-2.0 -6.8 -1.85 -6.8 Q2.15 -6.65 4.0 -5.1 7.45 -2.8 7.45 1.35 8.25 6.4 2.15 10.45 L1.7 10.75 Q-1.35 12.7 -4.15 13.25 L-10.05 13.05 Q-14.7 11.8 -16.6 8.75 -20.0 5.7 -16.85 0.6 -16.1 -0.85 -13.65 -2.8 L-13.5 -2.95 M-12.45 -1.2 L-12.5 -1.15 -12.65 -1.0 -12.7 -1.0 Q-14.55 0.5 -15.15 1.65 -17.4 5.35 -15.0 7.55 -13.4 10.1 -9.55 11.1 L-4.8 11.35 -4.6 11.3 Q-2.1 10.8 0.65 9.1 L1.05 8.8 Q6.0 5.45 5.4 1.35 5.45 -1.75 2.9 -3.45 1.35 -4.65 -1.95 -4.8 L-2.05 -4.8 -2.1 -4.8 -7.15 -4.2 -7.35 -4.15 Q-9.35 -3.65 -12.3 -1.35 L-12.4 -1.25 -12.45 -1.2" fill="url(#gradient7)" fill-rule="evenodd" stroke="none"/>
    <path d="M-12.45 -1.2 L-12.4 -1.25 -12.3 -1.35 Q-9.35 -3.65 -7.35 -4.15 L-7.15 -4.2 -2.1 -4.8 -2.05 -4.8 -1.95 -4.8 Q1.35 -4.65 2.9 -3.45 5.45 -1.75 5.4 1.35 6.0 5.45 1.05 8.8 L0.65 9.1 Q-2.1 10.8 -4.6 11.3 L-4.8 11.35 -9.55 11.1 Q-13.4 10.1 -15.0 7.55 -17.4 5.35 -15.15 1.65 -14.55 0.5 -12.7 -1.0 L-12.65 -1.0 -12.5 -1.15 -12.45 -1.2 M-6.65 -2.25 L-6.8 -2.2 Q-8.5 -1.75 -11.05 0.25 L-11.25 0.4 -11.15 0.3 Q-12.9 1.7 -13.45 2.7 -14.8 4.9 -13.45 6.25 -12.2 8.35 -9.05 9.15 L-9.05 9.2 -4.95 9.35 -5.0 9.35 Q-2.85 8.9 -0.5 7.4 L-0.45 7.4 -0.4 7.35 Q3.7 4.75 3.45 1.6 3.55 -0.6 1.75 -1.8 0.55 -2.7 -2.0 -2.8 L-2.1 -2.8 -6.65 -2.25" fill="url(#gradient8)" fill-rule="evenodd" stroke="none"/>
    <path d="M-13.5 -2.95 L-13.65 -2.8 Q-16.1 -0.85 -16.85 0.6 -20.0 5.7 -16.6 8.75 -14.7 11.8 -10.05 13.05 L-4.15 13.25 Q-1.35 12.7 1.7 10.75 L2.15 10.45 Q8.25 6.4 7.45 1.35 7.45 -2.8 4.0 -5.1 2.15 -6.65 -1.85 -6.8 L-2.0 -6.8 -2.1 -6.8 Q-5.05 -6.85 -7.6 -6.1 L-7.9 -6.05 Q-10.2 -5.55 -13.5 -2.95 M-14.75 -4.5 Q-11.0 -7.4 -8.45 -7.95 L-8.1 -8.05 -2.1 -8.8 -1.95 -8.8 -1.75 -8.8 Q2.95 -8.6 5.1 -6.75 9.35 -3.9 9.4 1.15 10.6 7.45 2.9 12.35 L2.8 12.45 2.65 12.5 Q-0.7 14.65 -3.8 15.25 L-10.5 15.0 -10.55 15.0 Q-15.85 13.55 -18.15 10.05 -22.6 6.15 -18.55 -0.45 -17.7 -2.1 -14.95 -4.35 L-14.9 -4.35 -14.75 -4.5" fill="url(#gradient9)" fill-rule="evenodd" stroke="none"/>
  </g>
  <defs>
    <radialGradient cx="0" cy="0" gradientTransform="matrix(0.0245, -0.0147, 0.0112, 0.0185, 7.55, -3.55)" gradientUnits="userSpaceOnUse" id="gradient0" r="819.2" spreadMethod="pad">
      <stop offset="0.0" stop-color="#00ff00"/>
      <stop offset="0.6313725490196078" stop-color="#ffffff" stop-opacity="0.0"/>
    </radialGradient>
    <radialGradient cx="0" cy="0" gradientTransform="matrix(0.0245, -0.0147, 0.0112, 0.0185, 7.55, -3.55)" gradientUnits="userSpaceOnUse" id="gradient1" r="819.2" spreadMethod="pad">
      <stop offset="0.0" stop-color="#00ff00" stop-opacity="0.19607843"/>
      <stop offset="0.6313725490196078" stop-color="#ffffff" stop-opacity="0.0"/>
    </radialGradient>
    <radialGradient cx="0" cy="0" gradientTransform="matrix(0.0245, -0.0147, 0.0112, 0.0185, 7.55, -3.55)" gradientUnits="userSpaceOnUse" id="gradient2" r="819.2" spreadMethod="pad">
      <stop offset="0.0" stop-color="#00ff00" stop-opacity="0.39607844"/>
      <stop offset="0.6313725490196078" stop-color="#ffffff" stop-opacity="0.0"/>
    </radialGradient>
    <radialGradient cx="0" cy="0" gradientTransform="matrix(0.0245, -0.0147, 0.0112, 0.0185, 7.55, -3.55)" gradientUnits="userSpaceOnUse" id="gradient3" r="819.2" spreadMethod="pad">
      <stop offset="0.0" stop-color="#00ff00" stop-opacity="0.59607846"/>
      <stop offset="0.6313725490196078" stop-color="#ffffff" stop-opacity="0.0"/>
    </radialGradient>
    <radialGradient cx="0" cy="0" gradientTransform="matrix(0.0245, -0.0147, 0.0112, 0.0185, 7.55, -3.55)" gradientUnits="userSpaceOnUse" id="gradient4" r="819.2" spreadMethod="pad">
      <stop offset="0.0" stop-color="#00ff00" stop-opacity="0.79607844"/>
      <stop offset="0.6313725490196078" stop-color="#ffffff" stop-opacity="0.0"/>
    </radialGradient>
    <radialGradient cx="0" cy="0" gradientTransform="matrix(0.026, -0.0087, 0.0067, 0.02, -5.3, 3.05)" gradientUnits="userSpaceOnUse" id="gradient5" r="819.2" spreadMethod="pad">
      <stop offset="0.0" stop-color="#00ff00"/>
      <stop offset="0.6509803921568628" stop-color="#00ff00" stop-opacity="0.0"/>
    </radialGradient>
    <radialGradient cx="0" cy="0" gradientTransform="matrix(0.026, -0.0087, 0.0067, 0.02, -5.3, 3.05)" gradientUnits="userSpaceOnUse" id="gradient6" r="819.2" spreadMethod="pad">
      <stop offset="0.0" stop-color="#00ff00" stop-opacity="0.19607843"/>
      <stop offset="0.6509803921568628" stop-color="#00ff00" stop-opacity="0.0"/>
    </radialGradient>
    <radialGradient cx="0" cy="0" gradientTransform="matrix(0.026, -0.0087, 0.0067, 0.02, -5.3, 3.05)" gradientUnits="userSpaceOnUse" id="gradient7" r="819.2" spreadMethod="pad">
      <stop offset="0.0" stop-color="#00ff00" stop-opacity="0.59607846"/>
      <stop offset="0.6509803921568628" stop-color="#00ff00" stop-opacity="0.0"/>
    </radialGradient>
    <radialGradient cx="0" cy="0" gradientTransform="matrix(0.026, -0.0087, 0.0067, 0.02, -5.3, 3.05)" gradientUnits="userSpaceOnUse" id="gradient8" r="819.2" spreadMethod="pad">
      <stop offset="0.0" stop-color="#00ff00" stop-opacity="0.79607844"/>
      <stop offset="0.6509803921568628" stop-color="#00ff00" stop-opacity="0.0"/>
    </radialGradient>
    <radialGradient cx="0" cy="0" gradientTransform="matrix(0.026, -0.0087, 0.0067, 0.02, -5.3, 3.05)" gradientUnits="userSpaceOnUse" id="gradient9" r="819.2" spreadMethod="pad">
      <stop offset="0.0" stop-color="#00ff00" stop-opacity="0.39607844"/>
      <stop offset="0.6509803921568628" stop-color="#00ff00" stop-opacity="0.0"/>
    </radialGradient>
  </defs>
</svg>
