<?xml version="1.0" encoding="UTF-8" standalone="no"?>
<svg xmlns:xlink="http://www.w3.org/1999/xlink" height="33.6px" width="45.25px" xmlns="http://www.w3.org/2000/svg">
  <g transform="matrix(1.0, 0.0, 0.0, 1.0, 22.3, 16.55)">
    <path d="M7.5 -7.4 L9.1 -8.95 9.0 -8.85 11.3 -10.75 11.4 -10.8 12.75 -11.45 Q13.35 -11.65 14.0 -11.45 15.75 -11.1 16.85 -9.35 18.0 -7.6 17.95 -5.4 L17.75 -2.15 Q17.45 0.75 15.7 2.6 13.8 4.8 11.15 5.75 L11.25 5.7 7.65 7.2 7.65 7.25 5.65 8.1 5.35 8.25 3.3 9.0 Q1.45 9.9 -0.25 10.95 L-0.4 11.05 Q-2.25 12.0 -4.35 12.05 L-4.65 12.05 -9.0 11.65 -9.05 11.65 Q-11.7 11.4 -13.95 9.8 L-13.9 9.8 Q-16.5 8.05 -17.1 5.2 -17.7 2.45 -15.35 0.85 L-15.25 0.8 Q-13.1 -0.55 -10.55 -0.55 L-6.2 -0.5 -2.7 -0.85 -2.5 -0.85 1.2 -0.85 Q2.2 -1.0 2.85 -1.8 L5.1 -4.45 5.05 -4.4 7.4 -7.25 7.5 -7.4" fill="url(#gradient0)" fill-rule="evenodd" stroke="none"/>
    <path d="M14.65 -13.9 L12.05 -13.85 Q10.9 -13.55 10.0 -12.9 L9.8 -12.8 Q8.45 -11.8 7.25 -10.65 L5.65 -9.1 5.45 -8.85 3.2 -6.05 3.1 -5.95 0.95 -3.45 0.95 -3.4 0.85 -3.35 -2.5 -3.35 -2.9 -3.3 -6.4 -3.0 -10.55 -3.05 Q-13.85 -3.05 -16.55 -1.35 L-16.75 -1.2 Q-20.55 1.35 -19.5 5.75 L-19.55 5.7 Q-18.8 9.5 -15.3 11.9 L-15.35 11.85 Q-12.6 13.8 -9.3 14.15 L-9.25 14.15 -4.9 14.55 -4.3 14.55 Q-1.6 14.45 0.75 13.25 L1.05 13.1 4.1 11.4 6.15 10.6 6.7 10.4 8.6 9.55 8.65 9.55 12.25 8.05 Q15.25 6.9 17.4 4.45 19.85 2.0 20.25 -1.9 L20.45 -5.3 20.45 -5.35 Q20.55 -8.4 18.8 -10.9 L18.95 -10.7 Q17.3 -13.35 14.65 -13.9 M15.25 -16.3 Q18.7 -15.6 20.85 -12.3 L21.05 -12.0 Q23.05 -8.95 22.95 -5.25 L22.95 -5.2 22.75 -1.65 Q22.25 3.0 19.35 6.0 16.65 9.1 12.9 10.45 L9.6 11.85 9.55 11.85 7.8 12.65 6.95 13.0 5.2 13.6 5.05 13.7 2.35 15.2 1.9 15.45 Q-0.95 16.95 -4.2 17.05 L-5.1 17.05 -9.5 16.65 -9.55 16.65 Q-13.45 16.25 -16.75 13.95 L-16.8 13.9 Q-21.05 10.95 -21.95 6.3 L-22.0 6.2 Q-23.35 0.25 -18.15 -3.3 L-17.85 -3.5 Q-14.55 -5.55 -10.55 -5.55 L-6.45 -5.5 -3.1 -5.8 -2.5 -5.85 -0.3 -5.85 1.3 -7.7 1.15 -7.5 3.5 -10.45 3.8 -10.8 5.55 -12.5 5.6 -12.55 8.35 -14.8 8.6 -15.0 Q9.85 -15.85 11.35 -16.25 13.3 -16.8 15.25 -16.3" fill="url(#gradient1)" fill-rule="evenodd" stroke="none"/>
    <path d="M14.65 -13.9 Q17.3 -13.35 18.95 -10.7 L18.8 -10.9 Q20.55 -8.4 20.45 -5.35 L20.45 -5.3 20.25 -1.9 Q19.85 2.0 17.4 4.45 15.25 6.9 12.25 8.05 L8.65 9.55 8.6 9.55 6.7 10.4 6.15 10.6 4.1 11.4 1.05 13.1 0.75 13.25 Q-1.6 14.45 -4.3 14.55 L-4.9 14.55 -9.25 14.15 -9.3 14.15 Q-12.6 13.8 -15.35 11.85 L-15.3 11.9 Q-18.8 9.5 -19.55 5.7 L-19.5 5.75 Q-20.55 1.35 -16.75 -1.2 L-16.55 -1.35 Q-13.85 -3.05 -10.55 -3.05 L-6.4 -3.0 -2.9 -3.3 -2.5 -3.35 0.85 -3.35 0.95 -3.4 0.95 -3.45 3.1 -5.95 3.2 -6.05 5.45 -8.85 5.65 -9.1 7.25 -10.65 Q8.45 -11.8 9.8 -12.8 L10.0 -12.9 Q10.9 -13.55 12.05 -13.85 L14.65 -13.9 M7.5 -7.4 L7.4 -7.25 5.05 -4.4 5.1 -4.45 2.85 -1.8 Q2.2 -1.0 1.2 -0.85 L-2.5 -0.85 -2.7 -0.85 -6.2 -0.5 -10.55 -0.55 Q-13.1 -0.55 -15.25 0.8 L-15.35 0.85 Q-17.7 2.45 -17.1 5.2 -16.5 8.05 -13.9 9.8 L-13.95 9.8 Q-11.7 11.4 -9.05 11.65 L-9.0 11.65 -4.65 12.05 -4.35 12.05 Q-2.25 12.0 -0.4 11.05 L-0.25 10.95 Q1.45 9.9 3.3 9.0 L5.35 8.25 5.65 8.1 7.65 7.25 7.65 7.2 11.25 5.7 11.15 5.75 Q13.8 4.8 15.7 2.6 17.45 0.75 17.75 -2.15 L17.95 -5.4 Q18.0 -7.6 16.85 -9.35 15.75 -11.1 14.0 -11.45 13.35 -11.65 12.75 -11.45 L11.4 -10.8 11.3 -10.75 9.0 -8.85 9.1 -8.95 7.5 -7.4" fill="url(#gradient2)" fill-rule="evenodd" stroke="none"/>
  </g>
  <defs>
    <radialGradient cx="0" cy="0" gradientTransform="matrix(0.053, -0.0215, 0.0068, 0.0167, 2.4, 1.75)" gradientUnits="userSpaceOnUse" id="gradient0" r="819.2" spreadMethod="pad">
      <stop offset="0.0" stop-color="#00ff00"/>
      <stop offset="0.6509803921568628" stop-color="#ffffff" stop-opacity="0.0"/>
    </radialGradient>
    <radialGradient cx="0" cy="0" gradientTransform="matrix(0.053, -0.0215, 0.0068, 0.0167, 2.4, 1.75)" gradientUnits="userSpaceOnUse" id="gradient1" r="819.2" spreadMethod="pad">
      <stop offset="0.0" stop-color="#00ff00" stop-opacity="0.32941177"/>
      <stop offset="0.6509803921568628" stop-color="#ffffff" stop-opacity="0.0"/>
    </radialGradient>
    <radialGradient cx="0" cy="0" gradientTransform="matrix(0.053, -0.0215, 0.0068, 0.0167, 2.4, 1.75)" gradientUnits="userSpaceOnUse" id="gradient2" r="819.2" spreadMethod="pad">
      <stop offset="0.0" stop-color="#00ff00" stop-opacity="0.6627451"/>
      <stop offset="0.6509803921568628" stop-color="#ffffff" stop-opacity="0.0"/>
    </radialGradient>
  </defs>
</svg>
