<?xml version="1.0" encoding="UTF-8" standalone="no"?>
<svg xmlns:xlink="http://www.w3.org/1999/xlink" height="15.25px" width="27.25px" xmlns="http://www.w3.org/2000/svg">
  <g transform="matrix(1.0, 0.0, 0.0, 1.0, 13.6, 7.65)">
    <path d="M9.25 -3.2 L11.25 -5.85 Q12.45 -7.75 13.0 -7.65 13.7 -7.5 13.65 -4.85 13.6 -2.3 13.15 -1.5 11.7 0.85 10.15 1.65 8.15 2.65 6.05 1.95 6.0 1.0 7.0 -0.65 8.05 -2.3 9.25 -3.2" fill="url(#gradient0)" fill-rule="evenodd" stroke="none"/>
    <path d="M-2.4 3.1 Q-0.25 3.0 0.35 3.7 1.75 5.4 -3.75 7.35 -5.3 7.85 -8.6 7.3 -12.15 6.6 -13.5 4.25 -14.05 3.3 -10.8 3.3 L-6.2 3.45 -2.4 3.1" fill="url(#gradient1)" fill-rule="evenodd" stroke="none"/>
  </g>
  <defs>
    <radialGradient cx="0" cy="0" gradientTransform="matrix(0.0055, -0.0034, 0.0019, 0.0032, 10.4, -2.45)" gradientUnits="userSpaceOnUse" id="gradient0" r="819.2" spreadMethod="pad">
      <stop offset="0.0" stop-color="#00ff00"/>
      <stop offset="0.6509803921568628" stop-color="#006600"/>
    </radialGradient>
    <radialGradient cx="0" cy="0" gradientTransform="matrix(0.007, -0.0025, 0.0015, 0.0041, -1.85, 4.05)" gradientUnits="userSpaceOnUse" id="gradient1" r="819.2" spreadMethod="pad">
      <stop offset="0.0" stop-color="#00ff00"/>
      <stop offset="0.6509803921568628" stop-color="#006600"/>
    </radialGradient>
  </defs>
</svg>
