<?xml version="1.0" encoding="UTF-8" standalone="no"?>
<svg xmlns:xlink="http://www.w3.org/1999/xlink" height="283.7px" width="202.7px" xmlns="http://www.w3.org/2000/svg">
  <g transform="matrix(1.0, 0.0, 0.0, 1.0, 8.15, 10.7)">
    <path d="M164.85 197.7 L168.65 197.55 Q172.65 197.55 176.45 199.25 L176.55 199.25 Q178.45 200.25 179.9 201.8 181.25 203.2 180.75 204.95 L180.75 205.0 Q179.1 210.2 177.05 215.15 172.55 225.65 172.05 237.2 L171.85 237.9 171.3 238.4 166.05 241.35 Q147.65 251.3 128.1 258.85 L128.05 258.85 Q125.95 259.75 123.6 259.4 L123.55 259.4 Q103.3 255.8 83.6 250.55 L83.5 250.55 Q81.7 249.9 80.35 248.55 L80.3 248.5 Q79.45 247.75 79.2 246.85 L79.2 246.8 Q75.25 234.3 71.85 221.7 L57.4 213.05 Q42.5 213.95 27.9 211.0 L27.85 210.95 25.95 210.2 26.0 210.25 Q23.95 209.15 22.95 207.0 18.25 205.05 15.8 200.45 14.85 198.7 14.8 196.75 14.1 174.9 14.2 153.25 L14.5 140.95 Q14.95 130.65 13.55 120.55 L12.3 110.7 11.4 99.95 Q10.65 88.45 16.9 79.15 12.5 77.6 9.1 74.6 L8.75 74.05 8.6 73.4 8.3 72.35 Q6.7 69.95 5.9 67.25 L5.9 67.3 Q5.35 65.7 5.35 64.15 L5.35 64.1 Q5.3 61.45 5.5 58.8 L5.8 50.9 Q5.85 44.75 6.85 38.75 L7.85 33.5 Q9.15 27.1 13.0 21.95 L18.55 14.8 18.55 14.75 Q19.5 13.6 20.75 12.95 30.35 7.9 40.7 4.7 43.8 3.7 47.0 2.95 L47.1 2.95 Q48.8 2.6 50.55 3.0 L50.5 3.0 Q56.6 3.95 62.45 6.45 74.9 11.85 82.55 23.05 86.25 28.5 86.65 34.95 L86.65 35.2 Q85.85 43.7 86.95 52.05 L87.7 59.15 Q88.0 62.7 87.45 66.3 L87.45 66.25 Q87.15 68.15 85.85 69.3 L87.6 75.85 87.6 75.9 87.75 77.6 Q92.2 78.25 96.25 79.85 L96.3 79.9 98.95 81.05 Q100.75 81.7 102.45 82.7 L102.45 82.75 Q107.4 85.75 112.15 88.85 L112.6 89.3 112.8 89.9 Q114.2 99.8 112.6 109.55 L112.0 110.5 Q106.45 114.75 99.7 117.25 L99.6 117.3 98.8 117.6 98.4 117.7 95.9 117.95 Q95.1 119.3 93.7 120.1 L93.65 120.1 Q88.45 123.35 82.95 126.05 82.7 146.65 83.45 167.35 L90.05 168.8 90.1 168.8 Q91.45 169.2 92.8 170.05 L92.85 170.1 94.6 171.8 Q97.65 176.2 97.85 181.65 L98.2 195.45 124.55 197.45 Q138.1 198.3 151.25 200.5 L151.9 200.75 152.35 201.3 153.3 203.2 Q156.9 201.75 160.25 199.8 L160.3 199.8 Q162.45 198.6 164.75 197.7 L164.85 197.7" fill="url(#gradient0)" fill-rule="evenodd" stroke="none"/>
    <path d="M98.4 131.3 L99.95 130.35 100.05 130.3 101.5 129.3 103.55 128.65 103.9 128.5 Q112.3 125.35 119.3 120.05 123.5 116.8 124.4 111.55 126.35 100.0 124.65 88.2 124.25 85.3 122.7 82.9 121.15 80.45 118.75 78.85 L108.65 72.45 108.55 72.4 Q106.25 71.05 103.85 70.1 L103.5 69.95 103.45 69.9 103.4 69.9 103.2 69.8 100.95 68.85 100.65 68.7 99.3 68.2 Q100.1 63.15 99.65 58.1 L98.85 50.55 Q97.95 43.5 98.6 36.3 L98.65 34.15 Q98.0 24.5 92.5 16.35 L92.45 16.3 Q82.85 2.25 67.25 -4.55 L67.15 -4.6 Q60.25 -7.55 53.0 -8.75 49.0 -9.6 45.05 -8.9 L44.25 -8.7 37.15 -6.8 37.1 -6.75 Q25.75 -3.2 15.2 2.3 L14.95 2.45 Q11.75 4.15 9.35 7.05 L9.1 7.35 3.4 14.75 3.4 14.8 Q-2.05 22.05 -3.9 31.1 L-3.9 31.0 -5.0 36.7 -5.0 36.85 Q-6.15 43.75 -6.2 50.8 L-6.2 50.9 -6.45 57.9 -6.65 64.1 -6.65 64.35 Q-6.6 67.5 -5.6 70.7 L-5.5 71.1 Q-4.55 74.2 -2.9 77.05 L-2.35 78.65 Q-1.2 81.45 1.1 83.5 L1.4 83.8 Q-1.15 91.75 -0.55 100.75 L0.4 111.95 1.65 122.25 Q2.9 131.25 2.55 140.45 L2.5 140.45 2.2 153.15 2.2 153.2 Q2.1 175.1 2.8 197.15 2.95 201.75 5.1 205.95 L5.2 206.1 Q8.7 212.7 14.7 216.3 16.9 218.9 20.0 220.65 L20.3 220.8 Q22.45 222.0 24.95 222.6 L25.5 222.75 Q39.8 225.65 54.35 225.2 L61.55 229.5 Q64.45 240.0 67.75 250.4 L67.8 250.65 Q68.9 254.4 72.3 257.45 75.45 260.5 79.7 261.9 L80.5 262.15 Q100.7 267.55 121.5 271.2 L121.75 271.25 Q127.3 272.05 132.35 270.05 152.7 262.25 171.75 251.85 L171.8 251.85 177.15 248.9 Q180.2 247.15 182.05 244.2 183.9 241.2 184.05 237.7 184.45 228.35 188.05 219.85 L188.1 219.8 Q190.4 214.35 192.2 208.55 L192.35 208.0 Q194.75 200.15 188.7 193.65 L188.65 193.6 Q185.8 190.45 181.9 188.55 L181.35 188.3 Q175.8 185.8 169.95 185.6 165.5 184.85 161.15 186.25 L160.45 186.5 Q157.6 187.6 154.95 189.05 L153.2 188.65 Q139.45 186.35 125.4 185.5 L125.3 185.5 109.95 184.35 109.85 181.2 109.85 181.15 Q109.45 172.2 104.45 165.0 L104.5 165.0 Q102.5 162.15 99.65 160.2 L99.05 159.8 Q97.15 158.6 95.2 157.9 94.85 145.6 94.9 133.35 L96.4 132.45 96.4 134.2 Q96.35 145.5 96.65 156.85 L99.8 158.5 100.5 158.95 Q103.6 161.05 105.7 164.15 110.95 171.7 111.35 181.1 L111.35 181.15 111.45 182.95 125.4 184.0 Q139.6 184.9 153.45 187.15 L154.8 187.45 Q157.3 186.1 159.9 185.1 L160.7 184.85 Q165.35 183.3 170.15 184.1 176.2 184.35 181.95 186.9 L182.55 187.2 Q186.7 189.25 189.75 192.55 L189.8 192.6 Q196.45 199.75 193.8 208.4 L193.65 209.0 Q191.8 214.85 189.5 220.4 L189.45 220.45 Q185.9 228.7 185.55 237.75 185.35 241.65 183.35 244.95 181.25 248.25 177.85 250.2 L172.5 253.15 172.5 253.2 Q153.55 263.45 133.4 271.25 127.8 273.65 121.55 272.75 L121.2 272.7 Q100.35 269.0 80.1 263.6 L79.2 263.35 Q74.45 261.75 70.95 258.25 L70.75 258.05 70.5 257.85 Q67.45 254.75 66.4 251.1 L66.3 250.85 Q63.1 240.7 60.25 230.5 L53.95 226.7 Q39.45 227.15 25.2 224.2 L24.55 224.05 Q21.7 223.35 19.25 221.95 16.0 220.15 13.7 217.45 7.5 213.65 3.9 206.85 L3.8 206.65 Q1.45 202.15 1.3 197.2 0.6 175.1 0.7 153.2 L0.7 153.15 Q0.75 146.7 1.05 140.4 L1.05 140.35 Q1.4 131.35 0.15 122.5 L0.15 122.45 -1.1 112.1 -2.05 100.85 Q-2.65 92.1 -0.3 84.25 -2.55 82.1 -3.7 79.2 L-4.25 77.7 Q-6.05 74.55 -7.05 71.1 -8.1 67.75 -8.15 64.4 L-8.15 64.1 -7.95 57.8 -7.95 57.75 Q-7.7 54.35 -7.7 50.9 L-7.7 50.8 Q-7.65 43.65 -6.5 36.65 L-6.45 36.45 -5.35 30.7 -5.4 30.8 Q-3.45 21.45 2.2 13.9 L2.2 13.85 7.95 6.4 8.2 6.1 Q10.75 3.0 14.25 1.1 L14.55 0.95 Q25.2 -4.6 36.65 -8.2 L36.7 -8.2 43.9 -10.2 44.8 -10.35 Q49.05 -11.1 53.3 -10.25 L52.95 -10.3 Q60.55 -9.05 67.75 -6.0 L67.85 -5.95 Q83.85 1.05 93.7 15.45 L93.75 15.5 Q99.45 24.0 100.15 34.05 L100.1 36.45 Q99.45 43.45 100.35 50.35 L101.15 57.95 101.15 58.0 Q101.55 62.6 100.95 67.2 L101.2 67.3 101.55 67.45 104.35 68.65 104.45 68.7 Q106.95 69.7 109.3 71.1 L109.45 71.2 119.55 77.6 Q122.25 79.35 124.0 82.1 125.7 84.8 126.15 87.95 127.9 100.0 125.9 111.8 124.9 117.65 120.2 121.25 113.05 126.65 104.4 129.9 L103.85 130.1 102.2 130.65 100.15 131.1 98.4 131.3" fill="url(#gradient1)" fill-rule="evenodd" stroke="none"/>
    <path d="M37.6 -5.35 L37.55 -5.35 Q26.35 -1.85 15.9 3.6 L15.7 3.75 Q12.7 5.35 10.5 8.05 L10.3 8.3 4.6 15.65 4.6 15.7 Q-0.65 22.7 -2.45 31.4 L-2.45 31.35 -3.5 36.95 -3.55 37.1 Q-4.65 43.9 -4.7 50.8 L-4.7 50.9 Q-4.7 54.45 -4.95 58.0 L-5.15 64.1 -5.15 64.35 Q-5.1 67.45 -4.05 70.6 L-4.2 70.25 Q-3.25 73.5 -1.5 76.45 L-0.95 78.05 Q0.05 80.55 2.1 82.4 L3.15 83.3 Q0.3 91.45 0.95 100.65 L1.9 111.8 1.85 111.8 3.15 122.05 Q4.4 131.2 4.0 140.5 L3.7 153.15 3.7 153.2 Q3.6 175.05 4.3 197.1 4.45 201.4 6.45 205.3 L6.55 205.4 Q9.9 211.7 15.7 215.1 17.85 217.8 21.0 219.45 L20.75 219.35 Q22.85 220.55 25.3 221.15 L25.8 221.25 Q40.15 224.2 54.75 223.7 L62.85 228.5 Q65.8 239.3 69.15 249.95 L69.25 250.15 Q70.1 253.2 72.7 255.75 L72.75 255.85 72.9 255.95 Q76.0 259.1 80.15 260.5 L80.85 260.7 Q101.0 266.1 121.75 269.75 L122.0 269.75 Q127.15 270.5 131.8 268.65 L131.85 268.65 132.25 268.5 Q152.25 260.75 171.05 250.55 L176.4 247.6 Q179.15 246.05 180.8 243.4 182.4 240.7 182.55 237.6 182.95 228.0 186.7 219.3 L186.7 219.25 Q189.0 213.85 190.75 208.1 L190.9 207.6 Q193.1 200.55 187.6 194.65 L187.55 194.6 Q184.85 191.7 181.25 189.9 L180.75 189.65 Q175.4 187.25 169.75 187.05 165.65 186.35 161.65 187.7 L161.0 187.9 Q158.05 189.05 155.25 190.6 L155.1 190.7 152.95 190.1 Q139.3 187.85 125.3 187.0 L125.2 187.0 108.5 185.75 108.35 181.25 Q108.0 172.7 103.25 165.85 101.45 163.2 98.8 161.4 L98.25 161.05 Q96.0 159.7 93.7 158.95 93.3 145.65 93.4 132.45 L98.85 129.25 99.25 129.0 100.85 127.9 102.9 127.25 103.35 127.1 Q111.55 124.0 118.35 118.85 122.15 115.95 122.95 111.3 124.85 99.95 123.2 88.4 122.8 85.85 121.45 83.7 120.05 81.5 117.9 80.1 L107.9 73.75 107.8 73.7 Q105.55 72.35 103.25 71.45 L100.4 70.2 100.1 70.1 97.6 69.2 97.85 67.7 97.8 68.0 Q98.6 63.1 98.15 58.25 L98.15 58.2 97.35 50.75 97.35 50.7 Q96.4 43.5 97.1 36.15 L97.15 34.25 Q96.55 25.0 91.25 17.2 L91.25 17.15 Q81.9 3.45 66.65 -3.2 L66.55 -3.25 Q59.65 -6.15 52.45 -7.35 L52.15 -7.4 Q48.75 -8.0 45.3 -7.4 L44.6 -7.25 37.6 -5.35 M96.4 132.45 L94.9 133.35 Q94.85 145.6 95.2 157.9 97.15 158.6 99.05 159.8 L99.65 160.2 Q102.5 162.15 104.5 165.0 L104.45 165.0 Q109.45 172.2 109.85 181.15 L109.85 181.2 109.95 184.35 125.3 185.5 125.4 185.5 Q139.45 186.35 153.2 188.65 L154.95 189.05 Q157.6 187.6 160.45 186.5 L161.15 186.25 Q165.5 184.85 169.95 185.6 175.8 185.8 181.35 188.3 L181.9 188.55 Q185.8 190.45 188.65 193.6 L188.7 193.65 Q194.75 200.15 192.35 208.0 L192.2 208.55 Q190.4 214.35 188.1 219.8 L188.05 219.85 Q184.45 228.35 184.05 237.7 183.9 241.2 182.05 244.2 180.2 247.15 177.15 248.9 L171.8 251.85 171.75 251.85 Q152.7 262.25 132.35 270.05 127.3 272.05 121.75 271.25 L121.5 271.2 Q100.7 267.55 80.5 262.15 L79.7 261.9 Q75.45 260.5 72.3 257.45 68.9 254.4 67.8 250.65 L67.75 250.4 Q64.45 240.0 61.55 229.5 L54.35 225.2 Q39.8 225.65 25.5 222.75 L24.95 222.6 Q22.45 222.0 20.3 220.8 L20.0 220.65 Q16.9 218.9 14.7 216.3 8.7 212.7 5.2 206.1 L5.1 205.95 Q2.95 201.75 2.8 197.15 2.1 175.1 2.2 153.2 L2.2 153.15 2.5 140.45 2.55 140.45 Q2.9 131.25 1.65 122.25 L0.4 111.95 -0.55 100.75 Q-1.15 91.75 1.4 83.8 L1.1 83.5 Q-1.2 81.45 -2.35 78.65 L-2.9 77.05 Q-4.55 74.2 -5.5 71.1 L-5.6 70.7 Q-6.6 67.5 -6.65 64.35 L-6.65 64.1 -6.45 57.9 -6.2 50.9 -6.2 50.8 Q-6.15 43.75 -5.0 36.85 L-5.0 36.7 -3.9 31.0 -3.9 31.1 Q-2.05 22.05 3.4 14.8 L3.4 14.75 9.1 7.35 9.35 7.05 Q11.75 4.15 14.95 2.45 L15.2 2.3 Q25.75 -3.2 37.1 -6.75 L37.15 -6.8 44.25 -8.7 45.05 -8.9 Q49.0 -9.6 53.0 -8.75 60.25 -7.55 67.15 -4.6 L67.25 -4.55 Q82.85 2.25 92.45 16.3 L92.5 16.35 Q98.0 24.5 98.65 34.15 L98.6 36.3 Q97.95 43.5 98.85 50.55 L99.65 58.1 Q100.1 63.15 99.3 68.2 L100.65 68.7 100.95 68.85 103.2 69.8 103.4 69.9 103.45 69.9 103.5 69.95 103.85 70.1 Q106.25 71.05 108.55 72.4 L108.65 72.45 118.75 78.85 Q121.15 80.45 122.7 82.9 124.25 85.3 124.65 88.2 126.35 100.0 124.4 111.55 123.5 116.8 119.3 120.05 112.3 125.35 103.9 128.5 L103.55 128.65 101.5 129.3 100.05 130.3 99.95 130.35 98.4 131.3 96.4 132.45" fill="url(#gradient2)" fill-rule="evenodd" stroke="none"/>
    <path d="M38.05 -3.9 L38.0 -3.9 Q26.9 -0.45 16.6 4.95 L16.4 5.05 Q13.65 6.55 11.65 9.0 L11.45 9.2 5.8 16.55 5.8 16.6 Q0.75 23.35 -0.95 31.7 L-0.95 31.65 -2.05 37.2 -2.05 37.35 Q-3.15 44.0 -3.2 50.85 L-3.2 50.9 -3.45 58.1 -3.45 58.15 -3.65 64.1 -3.65 64.3 Q-3.65 67.05 -2.75 69.85 -1.8 73.0 -0.1 75.9 L0.45 77.5 Q1.35 79.65 3.1 81.3 L4.9 82.8 Q1.8 91.1 2.45 100.55 L3.35 111.65 Q3.85 116.75 4.6 121.85 5.9 131.1 5.5 140.55 L5.5 140.6 5.2 153.2 Q5.1 175.05 5.8 197.05 5.9 201.0 7.8 204.6 L7.85 204.7 Q11.1 210.75 16.7 214.0 18.7 216.55 21.7 218.15 L21.5 218.05 Q23.45 219.15 25.65 219.7 L26.1 219.8 Q40.5 222.75 55.1 222.15 L64.15 227.55 Q67.15 238.55 70.6 249.5 L70.65 249.7 Q71.45 252.4 73.75 254.7 76.65 257.75 80.65 259.05 L81.25 259.25 Q101.35 264.6 122.0 268.25 L122.2 268.3 Q126.95 269.0 131.3 267.25 151.4 259.5 170.35 249.25 L170.35 249.2 175.7 246.3 Q178.05 244.9 179.5 242.6 180.95 240.3 181.05 237.55 181.45 227.65 185.3 218.7 L185.35 218.65 Q187.55 213.35 189.35 207.7 L189.45 207.25 Q191.4 200.9 186.5 195.7 L186.45 195.65 Q183.95 192.9 180.55 191.2 L180.15 191.0 Q175.0 188.7 169.6 188.55 165.8 187.9 162.1 189.1 L161.55 189.3 Q158.65 190.4 155.95 191.9 L155.75 192.05 155.2 192.35 Q154.0 191.8 152.7 191.6 139.1 189.35 125.2 188.5 L125.1 188.5 107.05 187.15 106.85 181.3 Q106.5 173.2 102.0 166.7 100.35 164.3 97.95 162.65 L97.45 162.35 Q95.1 160.9 92.6 160.2 L92.25 160.1 Q91.8 145.8 91.9 131.55 95.2 129.75 98.45 127.75 L100.2 126.55 102.5 125.8 102.85 125.7 Q110.85 122.7 117.45 117.7 120.75 115.15 121.45 111.05 123.35 99.95 121.7 88.6 121.4 86.35 120.2 84.5 118.95 82.6 117.1 81.35 L107.1 75.05 107.0 75.0 Q104.85 73.7 102.65 72.8 L99.8 71.6 99.55 71.5 95.75 70.2 96.35 67.5 96.35 67.75 Q97.05 63.05 96.65 58.35 L95.9 50.9 Q94.9 43.55 95.6 36.0 L95.65 34.35 Q95.05 25.5 90.0 18.05 L90.0 18.0 Q80.85 4.65 66.05 -1.8 L65.95 -1.85 Q59.1 -4.8 51.9 -5.9 L52.25 -5.85 Q48.9 -6.5 45.6 -5.95 L44.95 -5.8 Q41.4 -5.0 38.05 -3.9 M37.6 -5.35 L44.6 -7.25 45.3 -7.4 Q48.75 -8.0 52.15 -7.4 L52.45 -7.35 Q59.65 -6.15 66.55 -3.25 L66.65 -3.2 Q81.9 3.45 91.25 17.15 L91.25 17.2 Q96.55 25.0 97.15 34.25 L97.1 36.15 Q96.4 43.5 97.35 50.7 L97.35 50.75 98.15 58.2 98.15 58.25 Q98.6 63.1 97.8 68.0 L97.85 67.7 97.6 69.2 100.1 70.1 100.4 70.2 103.25 71.45 Q105.55 72.35 107.8 73.7 L107.9 73.75 117.9 80.1 Q120.05 81.5 121.45 83.7 122.8 85.85 123.2 88.4 124.85 99.95 122.95 111.3 122.15 115.95 118.35 118.85 111.55 124.0 103.35 127.1 L102.9 127.25 100.85 127.9 99.25 129.0 98.85 129.25 93.4 132.45 Q93.3 145.65 93.7 158.95 96.0 159.7 98.25 161.05 L98.8 161.4 Q101.45 163.2 103.25 165.85 108.0 172.7 108.35 181.25 L108.5 185.75 125.2 187.0 125.3 187.0 Q139.3 187.85 152.95 190.1 L155.1 190.7 155.25 190.6 Q158.05 189.05 161.0 187.9 L161.65 187.7 Q165.65 186.35 169.75 187.05 175.4 187.25 180.75 189.65 L181.25 189.9 Q184.85 191.7 187.55 194.6 L187.6 194.65 Q193.1 200.55 190.9 207.6 L190.75 208.1 Q189.0 213.85 186.7 219.25 L186.7 219.3 Q182.95 228.0 182.55 237.6 182.4 240.7 180.8 243.4 179.15 246.05 176.4 247.6 L171.05 250.55 Q152.25 260.75 132.25 268.5 L131.85 268.65 131.8 268.65 Q127.15 270.5 122.0 269.75 L121.75 269.75 Q101.0 266.1 80.85 260.7 L80.15 260.5 Q76.0 259.1 72.9 255.95 L72.75 255.85 72.7 255.75 Q70.1 253.2 69.25 250.15 L69.15 249.95 Q65.8 239.3 62.85 228.5 L54.75 223.7 Q40.15 224.2 25.8 221.25 L25.3 221.15 Q22.85 220.55 20.75 219.35 L21.0 219.45 Q17.85 217.8 15.7 215.1 9.9 211.7 6.55 205.4 L6.45 205.3 Q4.45 201.4 4.3 197.1 3.6 175.05 3.7 153.2 L3.7 153.15 4.0 140.5 Q4.4 131.2 3.15 122.05 L1.85 111.8 1.9 111.8 0.95 100.65 Q0.3 91.45 3.15 83.3 L2.1 82.4 Q0.05 80.55 -0.95 78.05 L-1.5 76.45 Q-3.25 73.5 -4.2 70.25 L-4.05 70.6 Q-5.1 67.45 -5.15 64.35 L-5.15 64.1 -4.95 58.0 Q-4.7 54.45 -4.7 50.9 L-4.7 50.8 Q-4.65 43.9 -3.55 37.1 L-3.5 36.95 -2.45 31.35 -2.45 31.4 Q-0.65 22.7 4.6 15.7 L4.6 15.65 10.3 8.3 10.5 8.05 Q12.7 5.35 15.7 3.75 L15.9 3.6 Q26.35 -1.85 37.55 -5.35 L37.6 -5.35" fill="url(#gradient3)" fill-rule="evenodd" stroke="none"/>
    <path d="M38.5 -2.5 L38.45 -2.45 Q27.5 0.95 17.3 6.3 L17.15 6.4 Q14.65 7.75 12.8 9.95 L12.65 10.15 Q9.75 13.75 7.0 17.45 L7.0 17.5 Q2.15 23.95 0.5 32.0 L0.5 31.95 -0.55 37.5 -0.55 37.6 Q-1.65 44.15 -1.7 50.85 L-1.7 50.9 -1.95 58.2 -1.95 58.25 -2.15 64.1 -2.15 64.3 Q-2.15 66.95 -1.25 69.65 L-1.3 69.4 Q-0.4 72.45 1.3 75.25 L1.8 76.9 Q2.6 78.8 4.1 80.15 L6.75 82.3 Q3.3 90.75 3.95 100.45 L4.85 111.5 6.1 121.6 6.1 121.65 Q7.4 131.05 7.0 140.6 L7.0 140.65 6.7 153.2 Q6.6 175.0 7.3 197.0 7.4 200.6 9.1 203.9 L9.15 204.0 Q12.25 209.85 17.75 212.85 19.6 215.3 22.45 216.85 L22.25 216.75 Q24.0 217.75 26.05 218.25 L26.4 218.35 Q40.85 221.25 55.5 220.65 L65.4 226.6 Q68.5 237.85 72.05 249.05 L72.05 249.2 Q72.8 251.65 74.85 253.7 77.5 256.45 81.1 257.65 L81.65 257.8 Q101.65 263.15 122.25 266.8 L122.45 266.8 Q126.95 267.45 131.05 265.75 150.95 258.05 169.6 247.9 L169.65 247.9 174.95 244.95 Q176.95 243.8 178.2 241.8 179.45 239.8 179.55 237.5 179.95 227.35 183.95 218.1 L183.95 218.05 Q186.15 212.8 187.9 207.25 L188.0 206.85 Q189.7 201.3 185.4 196.7 L185.4 196.65 Q183.05 194.15 179.9 192.55 L179.5 192.4 Q174.65 190.2 169.55 190.05 166.0 189.4 162.55 190.55 L162.05 190.7 Q159.3 191.75 156.7 193.2 L156.5 193.35 155.25 194.05 Q153.95 193.3 152.45 193.1 138.95 190.85 125.1 190.0 L125.05 190.0 105.6 188.5 105.35 181.35 Q105.05 173.7 100.75 167.55 L100.8 167.55 Q99.3 165.35 97.1 163.9 L96.7 163.6 Q94.5 162.25 92.2 161.6 L91.85 161.55 90.75 161.3 Q90.3 145.95 90.4 130.65 L97.4 126.65 99.6 125.1 101.75 124.5 102.3 124.3 Q110.1 121.35 116.55 116.5 119.4 114.3 120.0 110.8 121.8 99.95 120.2 88.85 119.95 86.9 118.9 85.3 117.85 83.65 116.25 82.6 L106.35 76.3 106.25 76.25 Q104.1 75.0 101.85 74.1 L99.2 72.95 99.0 72.9 Q96.65 71.95 94.2 71.3 L93.75 71.2 94.0 70.6 Q94.65 69.05 94.9 67.3 L94.85 67.5 Q95.55 62.95 95.2 58.5 L95.2 58.45 94.4 51.1 Q93.4 43.6 94.1 35.9 L94.15 34.45 Q93.6 26.0 88.75 18.85 79.85 5.85 65.45 -0.45 L65.4 -0.45 Q58.7 -3.3 51.7 -4.4 L52.1 -4.35 Q48.95 -5.0 45.85 -4.45 L45.3 -4.35 38.5 -2.5 M38.05 -3.9 Q41.4 -5.0 44.95 -5.8 L45.6 -5.95 Q48.9 -6.5 52.25 -5.85 L51.9 -5.9 Q59.1 -4.8 65.95 -1.85 L66.05 -1.8 Q80.85 4.65 90.0 18.0 L90.0 18.05 Q95.05 25.5 95.65 34.35 L95.6 36.0 Q94.9 43.55 95.9 50.9 L96.65 58.35 Q97.05 63.05 96.35 67.75 L96.35 67.5 95.75 70.2 99.55 71.5 99.8 71.6 102.65 72.8 Q104.85 73.7 107.0 75.0 L107.1 75.05 117.1 81.35 Q118.95 82.6 120.2 84.5 121.4 86.35 121.7 88.6 123.35 99.95 121.45 111.05 120.75 115.15 117.45 117.7 110.85 122.7 102.85 125.7 L102.5 125.8 100.2 126.55 98.45 127.75 Q95.2 129.75 91.9 131.55 91.8 145.8 92.25 160.1 L92.6 160.2 Q95.1 160.9 97.45 162.35 L97.95 162.65 Q100.35 164.3 102.0 166.7 106.5 173.2 106.85 181.3 L107.05 187.15 125.1 188.5 125.2 188.5 Q139.1 189.35 152.7 191.6 154.0 191.8 155.2 192.35 L155.75 192.05 155.95 191.9 Q158.65 190.4 161.55 189.3 L162.1 189.1 Q165.8 187.9 169.6 188.55 175.0 188.7 180.15 191.0 L180.55 191.2 Q183.95 192.9 186.45 195.65 L186.5 195.7 Q191.4 200.9 189.45 207.25 L189.35 207.7 Q187.55 213.35 185.35 218.65 L185.3 218.7 Q181.45 227.65 181.05 237.55 180.95 240.3 179.5 242.6 178.05 244.9 175.7 246.3 L170.35 249.2 170.35 249.25 Q151.4 259.5 131.3 267.25 126.95 269.0 122.2 268.3 L122.0 268.25 Q101.35 264.6 81.25 259.25 L80.65 259.05 Q76.65 257.75 73.75 254.7 71.45 252.4 70.65 249.7 L70.6 249.5 Q67.15 238.55 64.15 227.55 L55.1 222.15 Q40.5 222.75 26.1 219.8 L25.65 219.7 Q23.45 219.15 21.5 218.05 L21.7 218.15 Q18.7 216.55 16.7 214.0 11.1 210.75 7.85 204.7 L7.8 204.6 Q5.9 201.0 5.8 197.05 5.1 175.05 5.2 153.2 L5.5 140.6 5.5 140.55 Q5.9 131.1 4.6 121.85 3.85 116.75 3.35 111.65 L2.45 100.55 Q1.8 91.1 4.9 82.8 L3.1 81.3 Q1.35 79.65 0.45 77.5 L-0.1 75.9 Q-1.8 73.0 -2.75 69.85 -3.65 67.05 -3.65 64.3 L-3.65 64.1 -3.45 58.15 -3.45 58.1 -3.2 50.9 -3.2 50.85 Q-3.15 44.0 -2.05 37.35 L-2.05 37.2 -0.95 31.65 -0.95 31.7 Q0.75 23.35 5.8 16.6 L5.8 16.55 11.45 9.2 11.65 9.0 Q13.65 6.55 16.4 5.05 L16.6 4.95 Q26.9 -0.45 38.0 -3.9 L38.05 -3.9" fill="url(#gradient4)" fill-rule="evenodd" stroke="none"/>
    <path d="M38.95 -1.05 L38.9 -1.05 Q28.05 2.35 18.0 7.6 L17.85 7.7 Q15.6 8.9 13.95 10.9 L13.8 11.05 8.2 18.35 8.2 18.4 Q3.55 24.6 1.95 32.3 L2.0 32.25 0.9 37.75 0.9 37.8 Q-0.15 44.25 -0.2 50.85 L-0.2 50.9 -0.45 58.35 -0.65 64.1 -0.65 64.25 Q-0.65 66.7 0.2 69.2 L0.15 68.95 Q1.05 72.0 2.7 74.75 L3.2 76.35 Q3.85 77.9 5.1 79.05 6.75 80.5 8.6 81.75 4.75 90.35 5.45 100.35 L6.35 111.3 6.35 111.35 7.6 121.4 Q8.9 130.95 8.5 140.7 L8.2 153.2 8.2 153.25 Q8.1 175.0 8.8 196.95 8.9 200.25 10.45 203.2 L10.5 203.3 Q13.45 208.85 18.75 211.65 20.45 214.05 23.15 215.5 L23.0 215.4 Q24.55 216.3 26.4 216.8 L26.7 216.85 Q41.15 219.8 55.85 219.15 L66.7 225.6 Q69.85 237.15 73.45 248.6 L73.5 248.75 Q74.2 251.1 76.3 253.0 78.55 255.2 81.6 256.25 L82.05 256.35 Q102.0 261.7 122.5 265.3 L122.65 265.35 Q126.6 265.9 130.2 264.45 L130.45 264.35 Q150.25 256.7 168.9 246.6 L174.2 243.65 Q175.9 242.7 176.95 241.05 177.95 239.35 178.05 237.45 178.5 227.0 182.55 217.5 184.75 212.3 186.45 206.8 L186.55 206.45 Q188.0 201.65 184.3 197.7 182.15 195.35 179.2 193.9 L178.9 193.75 Q174.25 191.65 169.35 191.55 166.1 190.95 163.0 192.0 L162.6 192.1 Q159.95 193.15 157.4 194.55 L157.25 194.65 155.2 195.75 Q153.85 194.8 152.25 194.55 138.75 192.35 124.95 191.5 L104.1 189.9 103.85 181.4 Q103.55 174.2 99.55 168.4 98.2 166.45 96.25 165.15 L95.9 164.9 Q93.85 163.65 91.75 163.05 L91.5 163.0 89.3 162.45 Q88.75 146.05 88.9 129.75 L96.85 125.2 98.9 123.7 99.15 123.65 101.25 123.05 101.3 123.05 101.8 122.9 Q109.35 120.05 115.65 115.3 118.0 113.45 118.5 110.55 120.3 99.9 118.75 89.05 118.5 87.45 117.65 86.1 116.75 84.75 115.45 83.85 L105.55 77.6 105.5 77.55 Q103.5 76.4 101.4 75.55 L98.65 74.35 98.45 74.3 Q95.75 73.25 93.0 72.55 L91.4 72.15 92.45 70.45 Q93.1 69.0 93.35 67.25 L93.4 67.1 Q94.05 62.85 93.7 58.6 L92.9 51.3 Q91.9 43.6 92.65 35.75 L92.65 34.55 Q92.1 26.5 87.5 19.7 78.9 7.05 64.85 0.95 L64.8 0.9 Q58.45 -1.8 51.8 -2.9 48.95 -3.5 46.1 -3.0 L45.65 -2.9 38.95 -1.05 M38.5 -2.5 L45.3 -4.35 45.85 -4.45 Q48.95 -5.0 52.1 -4.35 L51.7 -4.4 Q58.7 -3.3 65.4 -0.45 L65.45 -0.45 Q79.85 5.85 88.75 18.85 93.6 26.0 94.15 34.45 L94.1 35.9 Q93.4 43.6 94.4 51.1 L95.2 58.45 95.2 58.5 Q95.55 62.95 94.85 67.5 L94.9 67.3 Q94.65 69.05 94.0 70.6 L93.75 71.2 94.2 71.3 Q96.65 71.95 99.0 72.9 L99.2 72.95 101.85 74.1 Q104.1 75.0 106.25 76.25 L106.35 76.3 116.25 82.6 Q117.85 83.65 118.9 85.3 119.95 86.9 120.2 88.85 121.8 99.95 120.0 110.8 119.4 114.3 116.55 116.5 110.1 121.35 102.3 124.3 L101.75 124.5 99.6 125.1 97.4 126.65 90.4 130.65 Q90.3 145.95 90.75 161.3 L91.85 161.55 92.2 161.6 Q94.5 162.25 96.7 163.6 L97.1 163.9 Q99.3 165.35 100.8 167.55 L100.75 167.55 Q105.05 173.7 105.35 181.35 L105.6 188.5 125.05 190.0 125.1 190.0 Q138.95 190.85 152.45 193.1 153.95 193.3 155.25 194.05 L156.5 193.35 156.7 193.2 Q159.3 191.75 162.05 190.7 L162.55 190.55 Q166.0 189.4 169.55 190.05 174.65 190.2 179.5 192.4 L179.9 192.55 Q183.05 194.15 185.4 196.65 L185.4 196.7 Q189.7 201.3 188.0 206.85 L187.9 207.25 Q186.15 212.8 183.95 218.05 L183.95 218.1 Q179.95 227.35 179.55 237.5 179.45 239.8 178.2 241.8 176.95 243.8 174.95 244.95 L169.65 247.9 169.6 247.9 Q150.95 258.05 131.05 265.75 126.95 267.45 122.45 266.8 L122.25 266.8 Q101.65 263.15 81.65 257.8 L81.1 257.65 Q77.5 256.45 74.85 253.7 72.8 251.65 72.05 249.2 L72.05 249.05 Q68.5 237.85 65.4 226.6 L55.5 220.65 Q40.85 221.25 26.4 218.35 L26.05 218.25 Q24.0 217.75 22.25 216.75 L22.45 216.85 Q19.6 215.3 17.75 212.85 12.25 209.85 9.15 204.0 L9.1 203.9 Q7.4 200.6 7.3 197.0 6.6 175.0 6.7 153.2 L7.0 140.65 7.0 140.6 Q7.4 131.05 6.1 121.65 L6.1 121.6 4.85 111.5 3.95 100.45 Q3.3 90.75 6.75 82.3 L4.1 80.15 Q2.6 78.8 1.8 76.9 L1.3 75.25 Q-0.4 72.45 -1.3 69.4 L-1.25 69.65 Q-2.15 66.95 -2.15 64.3 L-2.15 64.1 -1.95 58.25 -1.95 58.2 -1.7 50.9 -1.7 50.85 Q-1.65 44.15 -0.55 37.6 L-0.55 37.5 0.5 31.95 0.5 32.0 Q2.15 23.95 7.0 17.5 L7.0 17.45 Q9.75 13.75 12.65 10.15 L12.8 9.95 Q14.65 7.75 17.15 6.4 L17.3 6.3 Q27.5 0.95 38.45 -2.45 L38.5 -2.5" fill="url(#gradient5)" fill-rule="evenodd" stroke="none"/>
    <path d="M38.95 -1.05 L45.65 -2.9 46.1 -3.0 Q48.95 -3.5 51.8 -2.9 58.45 -1.8 64.8 0.9 L64.85 0.95 Q78.9 7.05 87.5 19.7 92.1 26.5 92.65 34.55 L92.65 35.75 Q91.9 43.6 92.9 51.3 L93.7 58.6 Q94.05 62.85 93.4 67.1 L93.35 67.25 Q93.1 69.0 92.45 70.45 L91.4 72.15 93.0 72.55 Q95.75 73.25 98.45 74.3 L98.65 74.35 101.4 75.55 Q103.5 76.4 105.5 77.55 L105.55 77.6 115.45 83.85 Q116.75 84.75 117.65 86.1 118.5 87.45 118.75 89.05 120.3 99.9 118.5 110.55 118.0 113.45 115.65 115.3 109.35 120.05 101.8 122.9 L101.3 123.05 101.25 123.05 99.15 123.65 98.9 123.7 96.85 125.2 88.9 129.75 Q88.75 146.05 89.3 162.45 L91.5 163.0 91.75 163.05 Q93.85 163.65 95.9 164.9 L96.25 165.15 Q98.2 166.45 99.55 168.4 103.55 174.2 103.85 181.4 L104.1 189.9 124.95 191.5 Q138.75 192.35 152.25 194.55 153.85 194.8 155.2 195.75 L157.25 194.65 157.4 194.55 Q159.95 193.15 162.6 192.1 L163.0 192.0 Q166.1 190.95 169.35 191.55 174.25 191.65 178.9 193.75 L179.2 193.9 Q182.15 195.35 184.3 197.7 188.0 201.65 186.55 206.45 L186.45 206.8 Q184.75 212.3 182.55 217.5 178.5 227.0 178.05 237.45 177.95 239.35 176.95 241.05 175.9 242.7 174.2 243.65 L168.9 246.6 Q150.25 256.7 130.45 264.35 L130.2 264.45 Q126.6 265.9 122.65 265.35 L122.5 265.3 Q102.0 261.7 82.05 256.35 L81.6 256.25 Q78.55 255.2 76.3 253.0 74.2 251.1 73.5 248.75 L73.45 248.6 Q69.85 237.15 66.7 225.6 L55.85 219.15 Q41.15 219.8 26.7 216.85 L26.4 216.8 Q24.55 216.3 23.0 215.4 L23.15 215.5 Q20.45 214.05 18.75 211.65 13.45 208.85 10.5 203.3 L10.45 203.2 Q8.9 200.25 8.8 196.95 8.1 175.0 8.2 153.25 L8.2 153.2 8.5 140.7 Q8.9 130.95 7.6 121.4 L6.35 111.35 6.35 111.3 5.45 100.35 Q4.75 90.35 8.6 81.75 6.75 80.5 5.1 79.05 3.85 77.9 3.2 76.35 L2.7 74.75 Q1.05 72.0 0.15 68.95 L0.2 69.2 Q-0.65 66.7 -0.65 64.25 L-0.65 64.1 -0.45 58.35 -0.2 50.9 -0.2 50.85 Q-0.15 44.25 0.9 37.8 L0.9 37.75 2.0 32.25 1.95 32.3 Q3.55 24.6 8.2 18.4 L8.2 18.35 13.8 11.05 13.95 10.9 Q15.6 8.9 17.85 7.7 L18.0 7.6 Q28.05 2.35 38.9 -1.05 L38.95 -1.05 M89.7 71.85 L90.85 70.25 Q91.65 68.75 91.9 66.9 92.55 62.8 92.2 58.75 L91.4 51.5 Q90.4 43.65 91.15 35.6 L91.15 34.65 Q90.65 27.0 86.3 20.55 L86.25 20.55 Q77.9 8.25 64.25 2.3 L64.2 2.3 Q58.0 -0.35 51.5 -1.4 L51.2 -1.45 Q48.75 -1.95 46.35 -1.5 L45.95 -1.4 39.4 0.4 39.35 0.4 Q28.65 3.75 18.7 8.95 L18.55 9.0 Q16.6 10.1 15.1 11.85 L15.0 12.0 9.4 19.25 9.4 19.3 Q4.95 25.2 3.45 32.55 L3.45 32.6 Q2.85 35.25 2.4 38.0 L2.4 38.05 Q1.35 44.4 1.3 50.85 L1.3 50.9 1.05 58.45 Q0.8 61.3 0.85 64.1 L0.85 64.25 Q0.85 66.45 1.6 68.7 2.5 71.6 4.15 74.2 L4.6 75.75 Q5.1 77.0 6.1 77.95 8.15 79.8 10.55 81.15 6.25 89.95 6.95 100.25 7.25 105.7 7.85 111.15 L7.85 111.2 9.05 121.2 Q10.4 130.9 10.0 140.75 L9.7 153.2 9.7 153.25 Q9.6 175.0 10.3 196.9 10.4 199.85 11.8 202.5 L11.8 202.6 Q14.65 207.9 19.75 210.5 21.3 212.8 23.85 214.2 L26.75 215.35 27.0 215.4 Q41.5 218.35 56.25 217.6 L68.0 224.6 Q71.2 236.45 74.9 248.15 L74.9 248.25 Q75.5 250.25 77.35 251.9 79.35 253.9 82.05 254.8 L82.4 254.9 Q102.3 260.2 122.75 263.8 L122.9 263.85 Q126.6 264.4 129.9 263.0 L129.65 263.05 Q149.5 255.4 168.2 245.3 L173.5 242.35 Q174.85 241.6 175.65 240.25 176.45 238.9 176.55 237.35 177.0 226.65 181.2 216.9 L185.05 206.35 185.1 206.1 Q186.3 202.05 183.2 198.75 L183.2 198.7 Q181.2 196.55 178.55 195.25 L178.3 195.15 Q173.8 193.15 169.15 193.05 L163.45 193.4 163.15 193.5 Q160.6 194.5 158.15 195.85 L158.0 195.9 155.0 197.5 154.55 197.15 Q153.4 196.25 152.0 196.05 138.6 193.8 124.85 192.95 L124.85 193.0 102.65 191.3 102.35 181.5 102.35 181.45 Q102.05 174.7 98.3 169.25 97.1 167.55 95.4 166.35 L95.15 166.2 Q93.25 165.05 91.35 164.5 L91.1 164.45 87.85 163.65 Q87.25 146.2 87.4 128.85 91.85 126.55 96.1 123.9 L95.9 124.0 98.2 122.25 99.0 122.15 100.65 121.7 100.9 121.6 101.25 121.5 Q108.65 118.7 114.75 114.1 116.65 112.65 117.05 110.3 118.8 99.9 117.25 89.25 117.05 88.0 116.4 86.9 115.7 85.8 114.6 85.1 L104.75 78.9 104.75 78.85 Q102.7 77.65 100.5 76.8 L98.05 75.75 97.9 75.7 Q94.9 74.5 91.75 73.8 L90.1 73.45 89.7 71.85" fill="url(#gradient6)" fill-rule="evenodd" stroke="none"/>
    <path d="M90.1 73.45 L91.75 73.8 Q94.9 74.5 97.9 75.7 L98.05 75.75 100.5 76.8 Q102.7 77.65 104.75 78.85 L104.75 78.9 114.6 85.1 Q115.7 85.8 116.4 86.9 117.05 88.0 117.25 89.25 118.8 99.9 117.05 110.3 116.65 112.65 114.75 114.1 108.65 118.7 101.25 121.5 L100.9 121.6 100.65 121.7 99.0 122.15 98.2 122.25 95.9 124.0 96.1 123.9 Q91.85 126.55 87.4 128.85 87.25 146.2 87.85 163.65 L91.1 164.45 91.35 164.5 Q93.25 165.05 95.15 166.2 L95.4 166.35 Q97.1 167.55 98.3 169.25 102.05 174.7 102.35 181.45 L102.35 181.5 102.65 191.3 124.85 193.0 124.85 192.95 Q138.6 193.8 152.0 196.05 153.4 196.25 154.55 197.15 L155.0 197.5 158.0 195.9 158.15 195.85 Q160.6 194.5 163.15 193.5 L163.45 193.4 169.15 193.05 Q173.8 193.15 178.3 195.15 L178.55 195.25 Q181.2 196.55 183.2 198.7 L183.2 198.75 Q186.3 202.05 185.1 206.1 L185.05 206.35 181.2 216.9 Q177.0 226.65 176.55 237.35 176.45 238.9 175.65 240.25 174.85 241.6 173.5 242.35 L168.2 245.3 Q149.5 255.4 129.65 263.05 L129.9 263.0 Q126.6 264.4 122.9 263.85 L122.75 263.8 Q102.3 260.2 82.4 254.9 L82.05 254.8 Q79.35 253.9 77.35 251.9 75.5 250.25 74.9 248.25 L74.9 248.15 Q71.2 236.45 68.0 224.6 L56.25 217.6 Q41.5 218.35 27.0 215.4 L26.75 215.35 23.85 214.2 Q21.3 212.8 19.75 210.5 14.65 207.9 11.8 202.6 L11.8 202.5 Q10.4 199.85 10.3 196.9 9.6 175.0 9.7 153.25 L9.7 153.2 10.0 140.75 Q10.4 130.9 9.05 121.2 L7.85 111.2 7.85 111.15 Q7.25 105.7 6.95 100.25 6.25 89.95 10.55 81.15 8.15 79.8 6.1 77.95 5.1 77.0 4.6 75.75 L4.15 74.2 Q2.5 71.6 1.6 68.7 0.85 66.45 0.85 64.25 L0.85 64.1 Q0.8 61.3 1.05 58.45 L1.3 50.9 1.3 50.85 Q1.35 44.4 2.4 38.05 L2.4 38.0 Q2.85 35.25 3.45 32.6 L3.45 32.55 Q4.95 25.2 9.4 19.3 L9.4 19.25 15.0 12.0 15.1 11.85 Q16.6 10.1 18.55 9.0 L18.7 8.95 Q28.65 3.75 39.35 0.4 L39.4 0.4 45.95 -1.4 46.35 -1.5 Q48.75 -1.95 51.2 -1.45 L51.5 -1.4 Q58.0 -0.35 64.2 2.3 L64.25 2.3 Q77.9 8.25 86.25 20.55 L86.3 20.55 Q90.65 27.0 91.15 34.65 L91.15 35.6 Q90.4 43.65 91.4 51.5 L92.2 58.75 Q92.55 62.8 91.9 66.9 91.65 68.75 90.85 70.25 L89.7 71.85 89.2 70.05 Q90.15 68.6 90.4 66.7 L90.4 66.8 Q91.05 62.8 90.7 58.9 L90.7 58.85 89.95 51.7 Q88.9 43.65 89.65 35.45 L89.65 34.75 Q89.15 27.5 85.05 21.4 76.9 9.45 63.65 3.7 L63.6 3.65 Q57.45 1.05 50.95 0.0 L51.15 0.05 Q48.85 -0.4 46.6 0.0 L46.3 0.05 39.8 1.8 Q29.2 5.1 19.4 10.25 L19.3 10.3 Q17.55 11.25 16.25 12.85 L16.2 12.95 10.6 20.15 Q6.35 25.85 4.9 32.9 L3.9 38.25 3.85 38.3 Q2.85 44.5 2.8 50.9 L2.55 58.55 2.55 58.6 Q2.3 61.35 2.35 64.1 L2.35 64.2 Q2.35 66.2 3.05 68.25 L3.0 68.1 Q3.9 71.05 5.6 73.7 5.65 74.45 5.95 75.2 6.35 76.1 7.1 76.8 9.6 79.05 12.55 80.55 7.7 89.5 8.4 100.15 L9.35 111.0 10.55 121.0 Q11.95 130.8 11.5 140.8 L11.5 140.85 11.2 153.25 Q11.1 174.95 11.8 196.85 11.9 199.45 13.1 201.85 L13.15 201.9 Q15.85 206.95 20.8 209.35 22.2 211.6 24.55 212.85 25.75 213.55 27.1 213.9 L27.3 213.9 Q41.85 216.9 56.65 216.1 L69.3 223.65 Q72.55 235.75 76.3 247.7 L76.35 247.8 Q76.85 249.4 78.35 250.8 80.1 252.55 82.55 253.4 L82.8 253.45 Q102.65 258.75 123.05 262.35 L123.15 262.35 Q126.35 262.85 129.3 261.6 L129.15 261.65 Q148.9 254.05 167.45 243.95 L172.75 241.05 Q173.75 240.45 174.4 239.45 175.0 238.45 175.05 237.3 175.5 226.3 179.8 216.35 L179.8 216.3 Q181.95 211.25 183.6 205.9 L183.65 205.7 Q184.6 202.45 182.1 199.75 180.3 197.8 177.9 196.6 L177.7 196.5 Q173.45 194.6 168.95 194.55 L163.95 194.85 163.7 194.9 Q161.2 195.85 158.85 197.15 L158.75 197.2 154.65 199.35 153.7 198.35 Q152.8 197.7 151.75 197.5 138.4 195.3 124.75 194.45 L101.15 192.7 100.85 181.55 Q100.6 175.2 97.05 170.1 96.05 168.6 94.55 167.6 L94.35 167.45 Q92.65 166.45 90.9 165.95 L90.75 165.9 86.4 164.9 Q85.75 146.35 85.95 127.9 90.7 125.45 95.3 122.65 L95.15 122.7 97.5 120.85 98.8 120.7 100.05 120.35 100.45 120.15 100.75 120.1 Q107.9 117.4 113.85 112.9 115.25 111.8 115.55 110.05 117.25 99.85 115.75 89.45 115.6 88.5 115.1 87.7 L113.8 86.35 104.0 80.15 103.95 80.15 Q102.0 79.0 99.95 78.2 L97.45 77.1 97.35 77.05 Q94.05 75.75 90.5 75.05 L90.1 73.45" fill="url(#gradient7)" fill-rule="evenodd" stroke="none"/>
    <path d="M164.85 197.7 L164.75 197.7 Q162.45 198.6 160.3 199.8 L160.25 199.8 Q156.9 201.75 153.3 203.2 L152.35 201.3 151.9 200.75 151.25 200.5 Q138.1 198.3 124.55 197.45 L98.2 195.45 97.85 181.65 Q97.65 176.2 94.6 171.8 L92.85 170.1 92.8 170.05 Q91.45 169.2 90.1 168.8 L90.05 168.8 83.45 167.35 Q82.7 146.65 82.95 126.05 88.45 123.35 93.65 120.1 L93.7 120.1 Q95.1 119.3 95.9 117.95 L98.4 117.7 98.8 117.6 99.6 117.3 99.7 117.25 Q106.45 114.75 112.0 110.5 L112.6 109.55 Q114.2 99.8 112.8 89.9 L112.6 89.3 112.15 88.85 Q107.4 85.75 102.45 82.75 L102.45 82.7 Q100.75 81.7 98.95 81.05 L96.3 79.9 96.25 79.85 Q92.2 78.25 87.75 77.6 L87.6 75.9 87.6 75.85 85.85 69.3 Q87.15 68.15 87.45 66.25 L87.45 66.3 Q88.0 62.7 87.7 59.15 L86.95 52.05 Q85.85 43.7 86.65 35.2 L86.65 34.95 Q86.25 28.5 82.55 23.05 74.9 11.85 62.45 6.45 56.6 3.95 50.5 3.0 L50.55 3.0 Q48.8 2.6 47.1 2.95 L47.0 2.95 Q43.8 3.7 40.7 4.7 30.35 7.9 20.75 12.95 19.5 13.6 18.55 14.75 L18.55 14.8 13.0 21.95 Q9.15 27.1 7.85 33.5 L6.85 38.75 Q5.85 44.75 5.8 50.9 L5.5 58.8 Q5.3 61.45 5.35 64.1 L5.35 64.15 Q5.35 65.7 5.9 67.3 L5.9 67.25 Q6.7 69.95 8.3 72.35 L8.6 73.4 8.75 74.05 9.1 74.6 Q12.5 77.6 16.9 79.15 10.65 88.45 11.4 99.95 L12.3 110.7 13.55 120.55 Q14.95 130.65 14.5 140.95 L14.2 153.25 Q14.1 174.9 14.8 196.75 14.85 198.7 15.8 200.45 18.25 205.05 22.95 207.0 23.95 209.15 26.0 210.25 L25.95 210.2 27.85 210.95 27.9 211.0 Q42.5 213.95 57.4 213.05 L71.85 221.7 Q75.25 234.3 79.2 246.8 L79.2 246.85 Q79.45 247.75 80.3 248.5 L80.35 248.55 Q81.7 249.9 83.5 250.55 L83.6 250.55 Q103.3 255.8 123.55 259.4 L123.6 259.4 Q125.95 259.75 128.05 258.85 L128.1 258.85 Q147.65 251.3 166.05 241.35 L171.3 238.4 171.85 237.9 172.05 237.2 Q172.55 225.65 177.05 215.15 179.1 210.2 180.75 205.0 L180.75 204.95 Q181.25 203.2 179.9 201.8 178.45 200.25 176.55 199.25 L176.45 199.25 Q172.65 197.55 168.65 197.55 L164.85 197.7 M164.4 196.25 L168.85 196.05 Q173.05 196.1 177.1 197.85 L177.2 197.95 Q179.4 199.0 181.0 200.75 182.95 202.85 182.2 205.35 L182.2 205.45 178.45 215.75 178.4 215.75 Q174.0 225.95 173.55 237.25 L173.1 238.7 172.0 239.75 166.75 242.65 Q148.25 252.65 128.6 260.25 L128.7 260.2 Q126.15 261.3 123.35 260.9 L123.3 260.85 Q102.95 257.3 83.2 252.0 L83.0 251.95 Q80.9 251.25 79.35 249.7 78.15 248.6 77.75 247.3 L77.75 247.25 Q73.9 235.0 70.6 222.65 L57.0 214.55 Q42.2 215.45 27.6 212.45 L27.5 212.4 25.2 211.5 25.3 211.55 Q23.05 210.35 21.85 208.2 17.05 206.0 14.45 201.2 L14.45 201.15 Q13.35 199.05 13.3 196.8 12.6 174.95 12.7 153.25 L13.0 140.9 Q13.45 130.75 12.05 120.8 11.3 115.8 10.85 110.85 L9.9 100.05 Q9.15 89.0 14.65 79.9 11.0 78.3 8.1 75.7 L7.35 74.6 Q7.05 73.95 7.1 73.3 L7.05 73.2 7.1 73.2 Q5.35 70.65 4.45 67.75 3.85 65.95 3.85 64.15 L3.85 64.1 4.0 58.7 4.3 50.9 Q4.35 44.65 5.35 38.55 L5.35 38.5 6.4 33.2 6.35 33.2 Q7.75 26.5 11.8 21.05 14.5 17.4 17.35 13.85 L17.4 13.8 Q18.5 12.45 20.0 11.65 L20.1 11.6 Q29.8 6.55 40.25 3.25 L46.65 1.5 46.85 1.45 Q48.85 1.1 50.85 1.5 L50.75 1.5 Q57.05 2.5 63.05 5.05 75.9 10.65 83.8 22.2 L83.8 22.25 Q87.7 28.0 88.15 34.85 L88.15 35.35 Q87.35 43.7 88.45 51.9 L89.2 59.0 Q89.5 62.75 88.9 66.55 L88.95 66.5 Q88.65 68.4 87.55 69.75 L89.1 75.55 89.25 76.3 Q93.15 77.05 96.8 78.45 L96.9 78.5 99.6 79.65 99.45 79.6 Q101.35 80.35 103.2 81.45 108.2 84.45 112.95 87.6 L113.85 88.5 114.3 89.7 Q115.75 99.85 114.05 109.8 113.85 110.95 112.95 111.7 107.15 116.05 100.2 118.65 L100.0 118.75 99.45 118.95 98.6 119.2 96.7 119.4 Q95.8 120.55 94.5 121.35 L94.4 121.4 Q89.55 124.4 84.45 127.0 84.2 146.5 84.9 166.1 L90.4 167.35 90.5 167.4 Q92.05 167.8 93.55 168.75 L93.7 168.85 Q94.95 169.7 95.85 170.95 99.1 175.7 99.35 181.6 L99.7 194.05 124.65 195.95 Q138.25 196.8 151.5 199.0 152.2 199.1 152.8 199.55 L153.7 200.6 154.0 201.25 Q156.85 200.05 159.5 198.5 L159.55 198.5 Q161.85 197.2 164.25 196.3 L164.4 196.25" fill="url(#gradient8)" fill-rule="evenodd" stroke="none"/>
    <path d="M89.7 71.85 L90.1 73.45 90.5 75.05 Q94.05 75.75 97.35 77.05 L97.45 77.1 99.95 78.2 Q102.0 79.0 103.95 80.15 L104.0 80.15 113.8 86.35 115.1 87.7 Q115.6 88.5 115.75 89.45 117.25 99.85 115.55 110.05 115.25 111.8 113.85 112.9 107.9 117.4 100.75 120.1 L100.45 120.15 100.05 120.35 98.8 120.7 97.5 120.85 95.15 122.7 95.3 122.65 Q90.7 125.45 85.95 127.9 85.75 146.35 86.4 164.9 L90.75 165.9 90.9 165.95 Q92.65 166.45 94.35 167.45 L94.55 167.6 Q96.05 168.6 97.05 170.1 100.6 175.2 100.85 181.55 L101.15 192.7 124.75 194.45 Q138.4 195.3 151.75 197.5 152.8 197.7 153.7 198.35 L154.65 199.35 158.75 197.2 158.85 197.15 Q161.2 195.85 163.7 194.9 L163.95 194.85 168.95 194.55 Q173.45 194.6 177.7 196.5 L177.9 196.6 Q180.3 197.8 182.1 199.75 184.6 202.45 183.65 205.7 L183.6 205.9 Q181.95 211.25 179.8 216.3 L179.8 216.35 Q175.5 226.3 175.05 237.3 175.0 238.45 174.4 239.45 173.75 240.45 172.75 241.05 L167.45 243.95 Q148.9 254.05 129.15 261.65 L129.3 261.6 Q126.35 262.85 123.15 262.35 L123.05 262.35 Q102.65 258.75 82.8 253.45 L82.55 253.4 Q80.1 252.55 78.35 250.8 76.85 249.4 76.35 247.8 L76.3 247.7 Q72.55 235.75 69.3 223.65 L56.65 216.1 Q41.85 216.9 27.3 213.9 L27.1 213.9 Q25.75 213.55 24.55 212.85 22.2 211.6 20.8 209.35 15.85 206.95 13.15 201.9 L13.1 201.85 Q11.9 199.45 11.8 196.85 11.1 174.95 11.2 153.25 L11.5 140.85 11.5 140.8 Q11.95 130.8 10.55 121.0 L9.35 111.0 8.4 100.15 Q7.7 89.5 12.55 80.55 9.6 79.05 7.1 76.8 6.35 76.1 5.95 75.2 5.65 74.45 5.6 73.7 3.9 71.05 3.0 68.1 L3.05 68.25 Q2.35 66.2 2.35 64.2 L2.35 64.1 Q2.3 61.35 2.55 58.6 L2.55 58.55 2.8 50.9 Q2.85 44.5 3.85 38.3 L3.9 38.25 4.9 32.9 Q6.35 25.85 10.6 20.15 L16.2 12.95 16.25 12.85 Q17.55 11.25 19.3 10.3 L19.4 10.25 Q29.2 5.1 39.8 1.8 L46.3 0.05 46.6 0.0 Q48.85 -0.4 51.15 0.05 L50.95 0.0 Q57.45 1.05 63.6 3.65 L63.65 3.7 Q76.9 9.45 85.05 21.4 89.15 27.5 89.65 34.75 L89.65 35.45 Q88.9 43.65 89.95 51.7 L90.7 58.85 90.7 58.9 Q91.05 62.8 90.4 66.8 L90.4 66.7 Q90.15 68.6 89.2 70.05 L89.7 71.85 M164.4 196.25 L164.25 196.3 Q161.85 197.2 159.55 198.5 L159.5 198.5 Q156.85 200.05 154.0 201.25 L153.7 200.6 152.8 199.55 Q152.2 199.1 151.5 199.0 138.25 196.8 124.65 195.95 L99.7 194.05 99.35 181.6 Q99.1 175.7 95.85 170.95 94.95 169.7 93.7 168.85 L93.55 168.75 Q92.05 167.8 90.5 167.4 L90.4 167.35 84.9 166.1 Q84.2 146.5 84.45 127.0 89.55 124.4 94.4 121.4 L94.5 121.35 Q95.8 120.55 96.7 119.4 L98.6 119.2 99.45 118.95 100.0 118.75 100.2 118.65 Q107.15 116.05 112.95 111.7 113.85 110.95 114.05 109.8 115.75 99.85 114.3 89.7 L113.85 88.5 112.95 87.6 Q108.2 84.45 103.2 81.45 101.35 80.35 99.45 79.6 L99.6 79.65 96.9 78.5 96.8 78.45 Q93.15 77.05 89.25 76.3 L89.1 75.55 87.55 69.75 Q88.65 68.4 88.95 66.5 L88.9 66.55 Q89.5 62.75 89.2 59.0 L88.45 51.9 Q87.35 43.7 88.15 35.35 L88.15 34.85 Q87.7 28.0 83.8 22.25 L83.8 22.2 Q75.9 10.65 63.05 5.05 57.05 2.5 50.75 1.5 L50.85 1.5 Q48.85 1.1 46.85 1.45 L46.65 1.5 40.25 3.25 Q29.8 6.55 20.1 11.6 L20.0 11.65 Q18.5 12.45 17.4 13.8 L17.35 13.85 Q14.5 17.4 11.8 21.05 7.75 26.5 6.35 33.2 L6.4 33.2 5.35 38.5 5.35 38.55 Q4.35 44.65 4.3 50.9 L4.0 58.7 3.85 64.1 3.85 64.15 Q3.85 65.95 4.45 67.75 5.35 70.65 7.1 73.2 L7.05 73.2 7.1 73.3 Q7.05 73.95 7.35 74.6 L8.1 75.7 Q11.0 78.3 14.65 79.9 9.15 89.0 9.9 100.05 L10.85 110.85 Q11.3 115.8 12.05 120.8 13.45 130.75 13.0 140.9 L12.7 153.25 Q12.6 174.95 13.3 196.8 13.35 199.05 14.45 201.15 L14.45 201.2 Q17.05 206.0 21.85 208.2 23.05 210.35 25.3 211.55 L25.2 211.5 27.5 212.4 27.6 212.45 Q42.2 215.45 57.0 214.55 L70.6 222.65 Q73.9 235.0 77.75 247.25 L77.75 247.3 Q78.15 248.6 79.35 249.7 80.9 251.25 83.0 251.95 L83.2 252.0 Q102.95 257.3 123.3 260.85 L123.35 260.9 Q126.15 261.3 128.7 260.2 L128.6 260.25 Q148.25 252.65 166.75 242.65 L172.0 239.75 173.1 238.7 173.55 237.25 Q174.0 225.95 178.4 215.75 L178.45 215.75 182.2 205.45 182.2 205.35 Q182.95 202.85 181.0 200.75 179.4 199.0 177.2 197.95 L177.1 197.85 Q173.05 196.1 168.85 196.05 L164.4 196.25" fill="url(#gradient9)" fill-rule="evenodd" stroke="none"/>
  </g>
  <defs>
    <radialGradient cx="0" cy="0" gradientTransform="matrix(0.114, -0.0509, 0.0364, 0.0815, 140.55, 222.7)" gradientUnits="userSpaceOnUse" id="gradient0" r="819.2" spreadMethod="pad">
      <stop offset="0.0784313725490196" stop-color="#ffffff"/>
      <stop offset="0.396078431372549" stop-color="#ffffff" stop-opacity="0.34117648"/>
      <stop offset="0.8313725490196079" stop-color="#ffffff" stop-opacity="0.0"/>
    </radialGradient>
    <radialGradient cx="0" cy="0" gradientTransform="matrix(0.114, -0.0509, 0.0364, 0.0815, 140.55, 222.7)" gradientUnits="userSpaceOnUse" id="gradient1" r="819.2" spreadMethod="pad">
      <stop offset="0.0784313725490196" stop-color="#ffffff" stop-opacity="0.09411765"/>
      <stop offset="0.396078431372549" stop-color="#ffffff" stop-opacity="0.03137255"/>
      <stop offset="0.8313725490196079" stop-color="#ffffff" stop-opacity="0.0"/>
    </radialGradient>
    <radialGradient cx="0" cy="0" gradientTransform="matrix(0.114, -0.0509, 0.0364, 0.0815, 140.55, 222.7)" gradientUnits="userSpaceOnUse" id="gradient2" r="819.2" spreadMethod="pad">
      <stop offset="0.0784313725490196" stop-color="#ffffff" stop-opacity="0.19607843"/>
      <stop offset="0.396078431372549" stop-color="#ffffff" stop-opacity="0.06666667"/>
      <stop offset="0.8313725490196079" stop-color="#ffffff" stop-opacity="0.0"/>
    </radialGradient>
    <radialGradient cx="0" cy="0" gradientTransform="matrix(0.114, -0.0509, 0.0364, 0.0815, 140.55, 222.7)" gradientUnits="userSpaceOnUse" id="gradient3" r="819.2" spreadMethod="pad">
      <stop offset="0.0784313725490196" stop-color="#ffffff" stop-opacity="0.29411766"/>
      <stop offset="0.396078431372549" stop-color="#ffffff" stop-opacity="0.09803922"/>
      <stop offset="0.8313725490196079" stop-color="#ffffff" stop-opacity="0.0"/>
    </radialGradient>
    <radialGradient cx="0" cy="0" gradientTransform="matrix(0.114, -0.0509, 0.0364, 0.0815, 140.55, 222.7)" gradientUnits="userSpaceOnUse" id="gradient4" r="819.2" spreadMethod="pad">
      <stop offset="0.0784313725490196" stop-color="#ffffff" stop-opacity="0.39607844"/>
      <stop offset="0.396078431372549" stop-color="#ffffff" stop-opacity="0.13333334"/>
      <stop offset="0.8313725490196079" stop-color="#ffffff" stop-opacity="0.0"/>
    </radialGradient>
    <radialGradient cx="0" cy="0" gradientTransform="matrix(0.114, -0.0509, 0.0364, 0.0815, 140.55, 222.7)" gradientUnits="userSpaceOnUse" id="gradient5" r="819.2" spreadMethod="pad">
      <stop offset="0.0784313725490196" stop-color="#ffffff" stop-opacity="0.49803922"/>
      <stop offset="0.396078431372549" stop-color="#ffffff" stop-opacity="0.16862746"/>
      <stop offset="0.8313725490196079" stop-color="#ffffff" stop-opacity="0.0"/>
    </radialGradient>
    <radialGradient cx="0" cy="0" gradientTransform="matrix(0.114, -0.0509, 0.0364, 0.0815, 140.55, 222.7)" gradientUnits="userSpaceOnUse" id="gradient6" r="819.2" spreadMethod="pad">
      <stop offset="0.0784313725490196" stop-color="#ffffff" stop-opacity="0.59607846"/>
      <stop offset="0.396078431372549" stop-color="#ffffff" stop-opacity="0.2"/>
      <stop offset="0.8313725490196079" stop-color="#ffffff" stop-opacity="0.0"/>
    </radialGradient>
    <radialGradient cx="0" cy="0" gradientTransform="matrix(0.114, -0.0509, 0.0364, 0.0815, 140.55, 222.7)" gradientUnits="userSpaceOnUse" id="gradient7" r="819.2" spreadMethod="pad">
      <stop offset="0.0784313725490196" stop-color="#ffffff" stop-opacity="0.69803923"/>
      <stop offset="0.396078431372549" stop-color="#ffffff" stop-opacity="0.23529412"/>
      <stop offset="0.8313725490196079" stop-color="#ffffff" stop-opacity="0.0"/>
    </radialGradient>
    <radialGradient cx="0" cy="0" gradientTransform="matrix(0.114, -0.0509, 0.0364, 0.0815, 140.55, 222.7)" gradientUnits="userSpaceOnUse" id="gradient8" r="819.2" spreadMethod="pad">
      <stop offset="0.0784313725490196" stop-color="#ffffff" stop-opacity="0.8980392"/>
      <stop offset="0.396078431372549" stop-color="#ffffff" stop-opacity="0.30588236"/>
      <stop offset="0.8313725490196079" stop-color="#ffffff" stop-opacity="0.0"/>
    </radialGradient>
    <radialGradient cx="0" cy="0" gradientTransform="matrix(0.114, -0.0509, 0.0364, 0.0815, 140.55, 222.7)" gradientUnits="userSpaceOnUse" id="gradient9" r="819.2" spreadMethod="pad">
      <stop offset="0.0784313725490196" stop-color="#ffffff" stop-opacity="0.79607844"/>
      <stop offset="0.396078431372549" stop-color="#ffffff" stop-opacity="0.27058825"/>
      <stop offset="0.8313725490196079" stop-color="#ffffff" stop-opacity="0.0"/>
    </radialGradient>
  </defs>
</svg>
