<?xml version="1.0" encoding="UTF-8" standalone="no"?>
<svg xmlns:xlink="http://www.w3.org/1999/xlink" height="95.75px" width="38.9px" xmlns="http://www.w3.org/2000/svg">
  <g transform="matrix(1.0, 0.0, 0.0, 1.0, 19.45, 47.85)">
    <path d="M13.35 -45.15 Q14.85 -44.0 16.4 -41.05 17.95 -38.05 17.9 -36.2 17.65 -29.6 15.65 -26.45 14.0 -23.85 9.25 -21.55 L9.55 -19.7 17.25 -11.95 16.5 -9.3 18.15 -6.25 Q19.75 -2.8 19.35 -0.65 18.7 2.8 13.75 9.65 L13.95 20.85 17.75 33.85 Q18.0 34.9 17.85 36.75 17.65 38.55 17.25 39.2 16.2 40.9 12.3 43.8 8.15 46.95 5.55 47.6 3.05 48.25 -1.0 47.6 -5.45 46.9 -6.15 45.15 -6.75 43.55 -4.9 40.45 L-2.95 37.65 Q-10.5 40.5 -13.35 40.7 -15.5 40.85 -17.6 38.5 -19.65 36.15 -19.45 33.7 -19.3 31.8 -16.3 30.55 -13.0 29.1 -12.7 28.5 -11.75 26.7 -9.95 11.7 -14.9 9.4 -14.2 6.7 -13.75 5.0 -11.2 1.35 L-8.75 -2.0 Q-10.2 -11.7 -9.1 -15.0 -8.4 -17.05 -6.45 -18.8 L-4.65 -20.1 Q-6.3 -21.05 -7.8 -23.7 -10.7 -29.1 -9.75 -37.8 -9.7 -38.45 -10.2 -39.3 -10.55 -39.9 -9.95 -40.65 -8.25 -43.2 -6.0 -44.85 -2.05 -47.75 3.55 -47.85 9.65 -47.95 13.35 -45.15" fill="#ffffff" fill-rule="evenodd" stroke="none"/>
  </g>
</svg>
