<?xml version="1.0" encoding="UTF-8" standalone="no"?>
<svg xmlns:xlink="http://www.w3.org/1999/xlink" height="191.75px" width="66.7px" xmlns="http://www.w3.org/2000/svg">
  <g transform="matrix(1.0, 0.0, 0.0, 1.0, 20.2, 189.5)">
    <path d="M1.9 -107.7 Q0.2 -109.05 -0.65 -113.35 L-19.7 -187.75 46.0 -189.0 15.75 -110.1 Q13.75 -107.05 11.0 -105.7 5.95 -103.9 1.9 -107.7 M23.3 -80.65 L34.3 -12.85 16.35 -8.7 15.75 -2.85 Q14.2 0.95 9.8 1.6 5.4 2.3 1.55 -0.15 -0.2 -2.3 -0.65 -6.1 L-0.95 -12.25 -14.4 -14.45 -3.9 -73.55 6.25 -68.55 23.3 -80.65" fill="#990000" fill-rule="evenodd" stroke="none"/>
    <path d="M1.9 -107.7 Q0.2 -109.05 -0.65 -113.35 L-19.7 -187.75 46.0 -189.0 15.75 -110.1 Q13.75 -107.05 11.0 -105.7 5.95 -103.9 1.9 -107.7 M23.3 -80.65 L34.3 -12.85 16.35 -8.7 15.75 -2.85 Q14.2 0.95 9.8 1.6 5.4 2.3 1.55 -0.15 -0.2 -2.3 -0.65 -6.1 L-0.95 -12.25 -14.4 -14.45 -3.9 -73.55 6.25 -68.55 23.3 -80.65 Z" fill="none" stroke="#666666" stroke-linecap="round" stroke-linejoin="round" stroke-width="1.0"/>
  </g>
</svg>
