<?xml version="1.0" encoding="UTF-8" standalone="no"?>
<svg xmlns:xlink="http://www.w3.org/1999/xlink" height="68.3px" width="125.35px" xmlns="http://www.w3.org/2000/svg">
  <g transform="matrix(1.0, 0.0, 0.0, 1.0, 63.25, 34.3)">
    <path d="M61.6 -30.8 L61.6 17.45 Q61.6 18.7 60.75 19.55 59.85 20.45 58.6 20.45 L5.4 20.45 8.45 33.5 -4.3 20.45 -59.75 20.45 Q-61.0 20.45 -61.85 19.55 -62.75 18.7 -62.75 17.45 L-62.75 -30.8 Q-62.75 -32.05 -61.85 -32.95 -61.0 -33.8 -59.75 -33.8 L58.6 -33.8 Q59.85 -33.8 60.75 -32.95 61.6 -32.05 61.6 -30.8" fill="#ffffff" fill-opacity="0.7019608" fill-rule="evenodd" stroke="none"/>
    <path d="M61.6 -30.8 L61.6 17.45 Q61.6 18.7 60.75 19.55 59.85 20.45 58.6 20.45 L5.4 20.45 8.45 33.5 -4.3 20.45 -59.75 20.45 Q-61.0 20.45 -61.85 19.55 -62.75 18.7 -62.75 17.45 L-62.75 -30.8 Q-62.75 -32.05 -61.85 -32.95 -61.0 -33.8 -59.75 -33.8 L58.6 -33.8 Q59.85 -33.8 60.75 -32.95 61.6 -32.05 61.6 -30.8 Z" fill="none" stroke="#666666" stroke-linecap="round" stroke-linejoin="round" stroke-width="1.0"/>
  </g>
</svg>
