<?xml version="1.0" encoding="UTF-8" standalone="no"?>
<svg xmlns:xlink="http://www.w3.org/1999/xlink" height="37.6px" width="44.1px" xmlns="http://www.w3.org/2000/svg">
  <g transform="matrix(1.0, 0.0, 0.0, 1.0, -0.85, 23.5)">
    <path d="M0.85 -6.55 L27.4 11.85 30.1 13.75 33.4 11.15 Q34.9 9.95 36.35 8.8 36.15 4.15 36.0 -0.5 35.75 -6.65 35.5 -12.75 L35.4 -15.85 35.4 -16.75 35.2 -22.05 31.3 -23.5 3.35 -7.95 0.85 -6.55" fill="#000000" fill-opacity="0.4" fill-rule="evenodd" stroke="none">
      <animate attributeName="fill" dur="2s" repeatCount="indefinite" values="#000000;#000001"/>
      <animate attributeName="fill-opacity" dur="2s" repeatCount="indefinite" values="0.4;0.4"/>
      <animate attributeName="d" dur="2s" repeatCount="indefinite" values="M0.85 -6.55 L27.4 11.85 30.1 13.75 33.4 11.15 Q34.9 9.95 36.35 8.8 36.15 4.15 36.0 -0.5 35.75 -6.65 35.5 -12.75 L35.4 -15.85 35.4 -16.75 35.2 -22.05 31.3 -23.5 3.35 -7.95 0.85 -6.55;M1.5 -2.9 L29.3 14.1 32.2 12.25 35.8 9.95 Q36.2 8.55 36.95 6.5 38.2 3.15 40.4 -1.95 43.95 -10.15 44.95 -13.9 L43.5 -16.5 42.6 -16.65 37.5 -15.25 33.55 -14.15 1.85 -5.8 1.5 -2.9"/>
    </path>
    <path d="M0.85 -6.55 L3.35 -7.95 31.3 -23.5 35.2 -22.05 35.4 -16.75 35.4 -15.85 35.5 -12.75 Q35.75 -6.65 36.0 -0.5 36.15 4.15 36.35 8.8 34.9 9.95 33.4 11.15 L30.1 13.75 27.4 11.85 0.85 -6.55" fill="none" stroke="#000000" stroke-linecap="round" stroke-linejoin="round" stroke-opacity="0.0" stroke-width="1.0">
      <animate attributeName="stroke" dur="2s" repeatCount="indefinite" values="#000000;#000001"/>
      <animate attributeName="stroke-width" dur="2s" repeatCount="indefinite" values="0.0;0.0"/>
      <animate attributeName="fill-opacity" dur="2s" repeatCount="indefinite" values="0.0;0.0"/>
      <animate attributeName="d" dur="2s" repeatCount="indefinite" values="M0.85 -6.55 L3.35 -7.95 31.3 -23.5 35.2 -22.05 35.4 -16.75 35.4 -15.85 35.5 -12.75 Q35.75 -6.65 36.0 -0.5 36.15 4.15 36.35 8.8 34.9 9.95 33.4 11.15 L30.1 13.75 27.4 11.85 0.85 -6.55;M1.5 -2.9 L1.85 -5.8 33.55 -14.15 37.5 -15.25 42.6 -16.65 43.5 -16.5 44.95 -13.9 Q43.95 -10.15 40.4 -1.95 38.2 3.15 36.95 6.5 36.2 8.55 35.8 9.95 L32.2 12.25 29.3 14.1 1.5 -2.9"/>
    </path>
  </g>
</svg>
