<?xml version="1.0" encoding="UTF-8" standalone="no"?>
<svg xmlns:xlink="http://www.w3.org/1999/xlink" height="11.0px" width="11.3px" xmlns="http://www.w3.org/2000/svg">
  <g transform="matrix(1.0, 0.0, 0.0, 1.0, 5.65, 5.7)">
    <path d="M0.5 -0.65 L2.75 -3.2 3.55 -2.25 0.9 0.05 3.35 2.4 2.25 3.1 0.3 0.6 -1.55 3.85 -2.55 3.55 -0.4 0.1 -2.95 -2.65 -2.1 -3.15 0.5 -0.65 M5.35 -5.65 Q5.75 1.05 5.65 5.0 5.3 5.3 5.15 5.25 L3.2 5.3 -5.05 5.0 -5.35 4.7 Q-4.6 4.25 -5.0 2.15 L-5.65 -1.9 Q-5.35 -1.9 -5.15 -2.05 -3.85 -3.3 -5.65 -3.8 L-5.65 -4.45 Q-5.35 -4.45 -5.2 -4.6 -5.05 -4.75 -5.05 -5.05 L-3.6 -5.0 -3.3 -5.3 -0.55 -5.2 5.0 -5.7 5.35 -5.65 M4.35 3.7 L4.4 -4.1 -3.8 -3.8 -3.15 4.1 4.35 3.7" fill="#f7efe8" fill-rule="evenodd" stroke="none"/>
  </g>
</svg>
