<?xml version="1.0" encoding="UTF-8" standalone="no"?>
<svg xmlns:xlink="http://www.w3.org/1999/xlink" height="42.15px" width="57.05px" xmlns="http://www.w3.org/2000/svg">
  <g transform="matrix(1.0, 0.0, 0.0, 1.0, 28.55, 21.1)">
    <path d="M10.55 4.0 Q10.55 4.6 10.7 5.15 L10.8 6.7 10.5 7.75 Q10.15 8.2 9.5 8.2 L8.45 8.2 7.4 8.15 6.5 8.0 6.25 7.35 Q6.25 6.9 6.4 6.7 6.5 6.45 6.85 6.45 L7.7 6.5 8.35 6.6 8.95 6.4 9.0 5.6 8.85 4.85 8.25 4.75 5.95 4.8 5.0 4.9 Q4.7 5.0 4.7 5.6 L4.65 7.25 4.55 9.2 4.45 10.45 4.15 11.15 Q3.85 11.45 3.3 11.45 3.05 11.45 2.85 11.1 2.6 10.8 2.65 10.25 L2.65 8.9 2.65 6.7 2.65 4.7 Q2.6 4.0 3.1 3.5 3.5 3.0 4.3 2.95 L6.55 3.0 9.15 2.95 10.05 3.25 Q10.5 3.5 10.55 4.0 M20.3 13.35 Q20.75 13.35 21.05 13.65 21.4 14.05 21.4 14.65 21.35 15.3 21.7 15.65 L22.95 15.8 Q23.85 15.55 24.2 15.8 24.5 16.05 24.45 16.75 L24.2 17.4 23.1 17.55 22.3 17.5 21.4 17.4 Q20.65 17.4 20.35 17.0 20.05 16.7 20.05 16.15 20.05 15.55 19.7 15.3 L18.45 15.1 Q17.65 15.05 17.35 15.35 17.05 15.65 17.05 16.2 L16.75 17.2 Q16.4 17.65 15.5 17.7 L14.7 17.8 13.7 17.85 13.15 17.75 12.85 16.85 Q12.9 16.35 13.25 16.2 L14.2 16.05 Q15.0 16.05 15.3 15.55 15.7 15.15 15.7 14.5 L15.95 13.7 Q16.2 13.35 16.75 13.3 L18.55 13.25 20.3 13.35 M-1.8 14.35 L-1.6 15.25 -1.0 15.5 -0.1 15.25 0.15 14.35 Q0.1 13.8 0.5 13.5 0.8 13.2 1.6 13.2 L2.1 13.15 2.5 13.15 Q2.95 13.15 3.15 13.35 L3.4 14.0 3.25 14.6 Q3.15 14.9 2.65 14.9 1.9 14.9 1.75 15.2 1.55 15.5 1.6 15.9 L1.25 16.85 Q0.85 17.2 0.5 17.2 L-0.75 17.25 -2.05 17.25 Q-2.6 17.2 -2.85 16.85 L-3.15 16.05 Q-3.1 15.4 -3.3 15.05 -3.4 14.65 -3.8 14.65 L-4.45 14.5 -4.65 14.0 -4.5 13.1 Q-4.3 12.8 -3.5 12.85 -2.4 12.85 -2.05 13.25 -1.75 13.6 -1.8 14.35 M-14.7 15.95 Q-14.45 16.15 -14.45 16.65 L-14.7 17.3 -15.45 17.55 -16.3 17.5 -17.25 17.4 Q-18.0 17.4 -18.25 17.05 -18.6 16.75 -18.6 16.2 -18.55 15.55 -18.75 15.3 -19.0 15.05 -19.95 15.1 L-21.15 15.3 Q-21.5 15.55 -21.5 16.2 -21.45 17.0 -21.9 17.4 L-23.8 17.7 -24.85 17.55 -25.05 16.75 Q-25.05 16.25 -24.75 16.05 L-23.8 15.9 Q-23.3 15.9 -23.15 15.5 -23.0 15.15 -23.0 14.5 -23.0 14.0 -22.6 13.65 -22.35 13.35 -21.75 13.3 L-19.95 13.25 -18.35 13.35 Q-17.95 13.35 -17.5 13.65 -17.15 14.05 -17.15 14.65 L-16.95 15.5 Q-16.7 15.9 -15.8 15.85 L-14.7 15.95 M-4.1 3.4 Q-3.65 3.9 -3.65 4.6 L-3.7 6.6 -3.7 8.75 -3.65 10.15 -3.85 11.05 -4.5 11.3 -5.25 11.05 -5.5 10.35 -5.55 9.15 -5.65 7.3 -5.7 5.7 Q-5.7 5.0 -6.0 4.85 L-7.0 4.7 -9.4 4.65 -10.1 4.8 -10.4 5.3 -10.2 6.15 Q-10.05 6.4 -9.65 6.35 L-8.8 6.3 -7.8 6.15 Q-7.4 6.2 -7.3 6.45 L-7.2 6.95 Q-7.2 7.5 -7.55 7.65 L-8.4 7.85 -9.85 7.9 -11.3 7.9 -11.95 7.5 -12.1 6.4 -12.0 5.0 -11.85 3.9 Q-11.8 3.45 -11.35 3.2 L-10.6 2.8 -8.1 2.95 -5.35 2.8 Q-4.55 2.9 -4.1 3.4 M-14.0 -3.45 L-13.3 -3.85 -9.3 -3.9 -5.85 -3.95 -5.3 -3.8 -5.0 -3.1 -4.6 -1.6 Q-4.35 -0.9 -4.45 0.1 -4.55 0.85 -5.0 1.0 L-5.85 1.2 -7.85 1.25 -10.3 1.35 -11.0 1.2 -11.25 0.6 -11.05 -0.15 Q-10.95 -0.45 -10.35 -0.45 L-7.7 -0.4 -6.7 -0.5 Q-6.35 -0.65 -6.45 -0.9 L-6.8 -1.8 Q-6.95 -2.1 -7.3 -2.1 L-11.3 -2.05 -12.25 -1.95 -12.6 -1.55 -12.9 -0.05 -13.1 1.65 -13.25 2.65 -13.6 3.95 -13.85 6.4 -14.0 8.75 -14.15 11.15 -14.2 13.15 -14.6 13.55 -15.2 13.65 -15.75 13.55 -16.05 12.85 -16.0 11.4 -15.75 8.85 -15.5 6.1 -15.35 4.05 -15.25 2.95 -15.15 2.3 -14.95 1.4 -14.75 0.1 Q-14.55 -0.7 -14.5 -1.65 L-14.4 -2.5 -14.0 -3.45 M-13.25 -7.35 L-11.85 -7.45 -9.95 -7.5 -8.4 -7.55 -7.4 -7.65 Q-7.1 -7.8 -7.2 -8.35 -7.35 -8.95 -7.6 -9.05 L-8.35 -9.25 -14.75 -9.2 -15.7 -8.95 -16.05 -8.45 -16.35 -6.75 -16.55 -4.75 -16.95 -2.7 -17.45 0.65 -17.95 4.5 -18.1 6.85 -18.35 9.25 -18.45 11.15 Q-18.45 11.5 -18.8 11.7 L-19.45 11.9 -19.95 11.8 -20.3 11.1 -20.15 9.7 -19.95 7.25 -19.8 4.65 -19.65 2.6 -19.3 0.25 -18.8 -2.65 -18.45 -4.75 -18.35 -5.75 -18.15 -7.2 -18.1 -8.65 -17.95 -9.5 -17.55 -10.4 -16.95 -10.85 -13.35 -10.85 -9.65 -10.9 -6.75 -10.95 -6.15 -10.7 -5.85 -10.1 -5.45 -8.55 Q-5.2 -7.85 -5.1 -6.95 -5.1 -6.2 -5.6 -6.05 L-6.55 -5.9 -8.4 -5.85 -11.0 -5.8 -13.25 -5.75 -14.0 -5.85 Q-14.3 -6.0 -14.2 -6.45 L-14.0 -7.1 -13.25 -7.35 M-21.6 -14.25 L-21.45 -16.25 Q-21.4 -16.7 -20.85 -17.2 L-20.0 -17.75 -18.0 -17.75 -14.55 -17.7 -10.95 -17.7 -8.6 -17.7 Q-8.0 -17.7 -7.75 -17.4 L-7.3 -16.55 -7.05 -15.2 -6.85 -13.65 Q-6.8 -13.15 -7.1 -12.85 -7.5 -12.45 -8.4 -12.45 L-16.6 -12.4 -17.1 -12.55 Q-17.3 -12.65 -17.3 -13.05 L-17.1 -13.9 Q-16.85 -14.25 -16.45 -14.25 L-15.0 -14.25 -13.0 -14.15 -11.05 -14.1 -9.9 -14.1 -9.1 -14.4 Q-8.9 -14.6 -9.05 -15.25 L-9.4 -15.8 -10.25 -16.05 -13.1 -16.05 -16.15 -16.05 -18.05 -16.1 Q-18.7 -16.15 -19.05 -15.75 -19.5 -15.4 -19.55 -14.85 L-19.8 -12.75 -20.45 -8.55 -21.2 -3.45 -21.75 1.45 -22.15 4.85 -22.35 7.35 -22.65 10.05 -22.85 12.15 Q-22.85 12.5 -23.3 12.85 -23.75 13.2 -24.05 13.25 L-24.45 13.15 -24.65 12.4 -24.45 10.75 -24.15 7.75 -23.85 4.7 -23.7 2.45 -23.4 -0.05 -22.95 -4.05 -22.45 -7.95 -22.15 -10.25 -21.9 -11.75 -21.6 -14.25 M0.35 -3.8 Q0.75 -4.15 1.5 -4.15 L2.35 -3.9 2.6 -3.2 2.4 -2.45 Q2.2 -2.15 1.7 -2.15 L0.8 -1.85 Q0.45 -1.5 0.45 -1.1 L0.45 1.35 0.45 3.9 0.5 5.6 0.45 7.35 0.35 9.55 0.35 11.45 0.05 12.1 Q-0.2 12.45 -0.65 12.45 -1.0 12.45 -1.25 12.15 -1.6 11.95 -1.6 11.3 L-1.55 10.1 -1.5 7.9 -1.4 5.75 -1.4 4.45 -1.4 2.95 -1.55 0.55 -1.6 -1.3 Q-1.6 -1.65 -1.9 -2.0 -2.15 -2.35 -2.7 -2.4 L-3.4 -2.55 -3.55 -3.1 -3.35 -3.95 -2.5 -4.15 -1.2 -3.8 -0.5 -3.0 0.35 -3.8 M4.35 -3.7 L4.95 -3.85 8.3 -3.8 12.3 -3.75 Q12.7 -3.7 13.05 -3.35 L13.4 -2.45 13.5 -1.65 Q13.5 -0.85 13.65 -0.1 L14.0 1.55 14.35 4.15 14.45 6.2 14.5 9.0 14.55 11.65 14.6 13.15 14.3 13.95 13.7 14.15 13.15 13.95 12.75 13.4 12.65 10.7 12.55 7.45 12.45 4.6 12.25 2.95 12.05 1.8 11.85 0.1 11.55 -1.4 11.2 -1.85 10.25 -1.95 6.45 -2.0 Q6.0 -2.0 5.8 -1.65 L5.55 -0.8 Q5.5 -0.5 5.7 -0.4 L6.6 -0.3 8.0 -0.3 9.15 -0.35 Q9.75 -0.35 9.9 -0.05 L10.05 0.7 9.85 1.3 9.1 1.4 6.8 1.3 4.95 1.25 4.1 1.1 Q3.6 0.95 3.5 0.2 3.4 -0.8 3.75 -1.5 L4.1 -3.0 Q4.15 -3.5 4.35 -3.7 M7.55 -9.05 L6.95 -8.95 6.65 -8.2 Q6.55 -7.7 6.85 -7.55 L7.75 -7.45 9.3 -7.35 11.0 -7.3 12.35 -7.25 13.15 -7.0 13.35 -6.3 13.1 -5.75 12.35 -5.6 10.2 -5.65 7.7 -5.75 5.95 -5.8 5.0 -5.9 Q4.45 -6.1 4.55 -6.85 L4.8 -8.45 5.15 -9.9 5.45 -10.6 6.0 -10.75 8.95 -10.7 12.5 -10.7 15.95 -10.7 16.65 -10.3 17.05 -9.4 17.15 -8.55 17.25 -6.7 17.45 -5.25 17.7 -3.7 18.05 -1.35 18.4 0.95 18.55 2.7 18.7 4.7 18.85 7.3 19.05 9.7 19.1 11.1 18.75 11.8 18.25 11.9 17.6 11.7 Q17.25 11.5 17.2 11.15 L17.15 9.25 17.0 6.9 16.9 4.65 16.4 0.8 15.9 -2.6 Q15.55 -4.1 15.55 -4.65 L15.35 -6.6 15.05 -8.35 14.7 -8.85 13.75 -9.0 7.55 -9.05 M11.0 -13.95 L13.55 -14.0 15.55 -14.05 Q15.9 -14.05 16.1 -13.8 L16.3 -12.95 16.15 -12.4 15.75 -12.25 7.85 -12.3 Q6.95 -12.35 6.6 -12.75 6.3 -13.05 6.35 -13.5 L6.6 -15.1 6.85 -16.45 7.25 -17.3 8.1 -17.55 10.35 -17.55 13.75 -17.55 17.05 -17.6 18.95 -17.7 19.9 -17.15 20.5 -16.15 20.65 -14.6 21.05 -12.35 21.45 -10.2 21.7 -8.9 21.9 -6.8 22.3 -3.3 22.7 0.25 22.9 2.55 23.1 4.8 23.45 8.05 23.7 11.05 23.8 12.7 23.55 13.45 23.0 13.55 22.25 13.25 Q21.85 12.9 21.8 12.5 L21.75 10.35 21.6 7.5 21.3 4.95 20.35 -2.15 19.5 -9.05 18.6 -14.75 18.05 -15.6 Q17.65 -16.0 17.0 -15.85 L15.2 -15.8 12.45 -15.8 9.75 -15.8 8.9 -15.65 8.55 -15.15 Q8.45 -14.55 8.6 -14.3 8.85 -14.0 9.45 -13.95 L11.0 -13.95 M18.85 -19.1 L16.8 -19.05 13.3 -19.05 9.65 -19.2 6.6 -19.45 Q5.95 -19.4 5.65 -19.05 5.25 -18.75 5.25 -18.35 L5.15 -17.7 4.85 -16.4 4.2 -13.9 3.3 -11.25 2.6 -8.65 1.85 -7.3 Q1.3 -6.85 0.5 -6.85 L-0.85 -6.85 Q-1.65 -6.85 -2.0 -7.3 L-2.45 -8.35 -3.4 -11.75 -4.15 -13.75 -4.55 -15.3 -4.85 -16.8 -5.1 -18.05 -5.45 -18.85 -6.45 -19.15 -7.75 -19.15 -9.45 -19.2 -10.95 -19.25 -14.95 -19.25 -17.6 -19.3 -19.65 -19.25 -21.85 -19.15 -22.75 -18.9 Q-23.2 -18.7 -23.25 -18.05 -23.25 -17.2 -23.5 -16.25 L-23.8 -14.45 -24.0 -12.8 -24.35 -10.35 -24.6 -8.35 -24.9 -3.9 -25.65 4.0 -26.45 14.5 -26.6 16.8 -26.7 18.4 -26.45 18.95 -25.65 19.2 -23.4 19.15 -19.25 19.1 -18.15 19.15 -16.4 19.15 -14.7 19.2 -13.65 19.2 Q-12.7 19.25 -12.3 18.8 -12.05 18.4 -12.05 17.0 L-11.9 14.9 -11.55 12.6 -11.25 10.9 -10.6 10.1 Q-10.1 9.8 -9.5 9.6 L-8.6 9.45 Q-7.8 9.45 -7.3 9.8 -6.85 10.05 -6.75 10.9 L-6.25 12.9 -5.5 15.5 -4.7 17.75 Q-4.4 18.65 -3.95 18.85 L-3.0 19.2 -1.55 19.3 0.55 19.3 2.1 19.2 Q2.5 19.2 2.9 18.85 L3.8 17.5 4.2 16.35 4.95 14.25 5.75 12.05 6.35 10.6 6.7 9.85 Q6.9 9.5 7.5 9.45 L8.6 9.7 9.9 10.15 10.65 10.9 11.0 13.2 11.25 15.85 11.4 17.8 Q11.4 18.65 11.7 18.9 12.05 19.25 12.95 19.2 L15.45 19.2 18.95 19.15 22.05 19.1 23.75 19.15 25.25 19.2 Q25.9 19.2 26.2 18.85 L26.5 18.1 26.4 16.75 26.3 14.8 26.15 10.45 25.65 5.75 25.1 -0.25 24.45 -8.3 23.85 -12.15 23.45 -14.75 23.3 -16.4 23.1 -18.05 22.9 -18.8 Q22.65 -19.15 22.05 -19.2 L20.4 -19.15 18.85 -19.1 M16.35 -20.85 L19.6 -20.95 22.85 -21.0 Q23.85 -21.0 24.55 -20.05 25.25 -19.1 25.25 -16.65 L25.5 -14.55 26.0 -11.55 26.3 -8.9 27.15 1.0 27.9 8.25 28.2 14.25 28.3 16.55 28.5 18.65 27.95 20.1 Q27.4 20.8 26.55 20.9 L20.4 20.95 16.65 21.0 14.6 21.05 13.5 21.05 12.0 21.0 10.85 20.9 Q10.25 20.85 9.9 20.4 L9.5 19.45 9.35 16.35 9.0 12.85 8.7 11.95 8.2 11.6 Q7.8 11.6 7.65 11.9 7.45 12.15 7.4 12.85 L7.0 14.15 6.3 16.25 5.55 18.1 Q4.9 19.55 4.1 20.25 3.25 20.9 2.1 20.9 L-0.55 21.0 -3.75 20.95 Q-4.45 20.95 -5.3 20.35 -6.1 19.85 -6.45 18.65 L-7.05 16.7 -7.9 14.1 -8.4 12.3 Q-8.4 11.85 -8.55 11.7 L-9.0 11.5 Q-9.35 11.5 -9.45 11.7 L-9.65 12.3 -9.85 13.7 -10.2 16.15 -10.25 18.0 -10.2 19.2 Q-10.2 19.85 -10.7 20.35 -11.2 20.85 -12.05 20.9 L-13.7 20.95 -15.8 21.0 -20.1 20.95 -26.7 20.9 Q-27.55 20.85 -28.1 20.3 -28.65 19.75 -28.55 18.9 L-28.35 16.35 -28.3 14.25 -27.7 5.7 -27.2 -0.35 -26.7 -4.8 -26.45 -8.35 -25.95 -12.05 -25.65 -14.75 -25.4 -17.0 Q-25.1 -18.2 -25.1 -18.9 -25.05 -19.75 -24.55 -20.35 -24.0 -20.95 -23.0 -20.95 L-20.9 -20.95 -17.25 -21.0 -13.25 -21.1 -11.3 -21.0 -8.1 -20.9 -5.1 -20.85 Q-4.3 -20.8 -3.75 -20.25 -3.3 -19.65 -3.3 -19.15 L-3.1 -18.0 -2.75 -16.4 -2.4 -15.3 -1.8 -13.4 -0.85 -9.7 -0.65 -8.9 Q-0.45 -8.55 -0.1 -8.55 L0.5 -8.75 0.7 -9.45 1.55 -12.35 2.6 -16.15 3.15 -18.15 3.4 -19.45 Q3.4 -19.9 3.95 -20.45 4.4 -21.0 5.25 -21.1 L7.2 -21.0 9.8 -20.95 12.4 -20.8 14.35 -20.8 16.35 -20.85" fill="#ffffff" fill-rule="evenodd" stroke="none"/>
  </g>
</svg>
