<?xml version="1.0" encoding="UTF-8" standalone="no"?>
<svg xmlns:xlink="http://www.w3.org/1999/xlink" height="41.4px" width="46.4px" xmlns="http://www.w3.org/2000/svg">
  <g transform="matrix(1.0, 0.0, 0.0, 1.0, 23.2, 20.7)">
    <path d="M-12.35 -0.4 Q-11.6 -0.4 -11.2 -0.05 -10.9 0.25 -10.9 1.0 -10.9 1.75 -11.2 2.05 -11.6 2.45 -12.35 2.45 -13.2 2.45 -13.5 2.05 -13.9 1.75 -13.85 1.0 -13.9 0.25 -13.5 -0.05 -13.2 -0.4 -12.35 -0.4 M10.65 11.35 L12.55 11.35 13.6 11.5 Q13.95 11.6 13.95 11.95 L13.85 12.6 Q13.75 13.0 13.15 13.1 L10.9 13.1 7.35 13.1 3.85 13.15 1.95 13.15 Q1.5 13.15 1.35 13.45 L1.25 14.2 Q1.2 14.65 1.45 14.75 L2.4 14.9 3.65 14.9 5.9 14.85 8.3 14.85 9.8 14.85 11.4 14.8 13.15 14.75 14.45 14.7 Q15.6 14.75 16.0 14.05 16.45 13.4 16.95 11.25 17.05 10.75 17.25 10.6 17.45 10.4 17.8 10.45 L18.4 10.55 18.8 11.15 18.6 12.4 17.8 15.05 17.05 15.95 15.75 16.35 14.45 16.35 12.7 16.35 11.35 16.35 9.15 16.45 6.25 16.45 3.55 16.5 2.2 16.45 1.55 16.6 Q1.25 16.8 1.35 17.2 1.4 17.55 1.05 17.7 L0.2 17.8 -0.35 17.6 -0.4 17.05 Q-0.35 16.65 -0.55 16.55 L-1.45 16.45 -2.75 16.5 -4.8 16.5 -6.35 16.5 -7.85 16.5 -10.35 16.45 -12.9 16.45 -14.6 16.4 Q-15.5 16.4 -16.1 15.8 L-16.95 14.45 -17.35 13.15 -17.35 11.6 -17.35 9.45 -17.3 7.9 -17.4 7.1 -17.9 6.8 -18.5 6.6 -18.7 6.1 -18.4 5.35 Q-18.15 5.05 -17.45 5.05 -16.35 5.0 -15.85 5.45 -15.45 5.8 -15.45 6.85 L-15.45 8.45 -15.4 10.9 -15.4 12.55 Q-15.4 13.25 -14.85 13.95 -14.35 14.7 -13.5 14.75 L-12.0 14.75 -9.8 14.8 -8.25 14.9 -6.85 14.95 -4.6 14.9 -2.35 14.9 -1.1 14.85 -0.6 14.55 -0.55 13.75 Q-0.55 13.3 -0.75 13.15 L-1.5 13.05 -3.1 13.05 -5.5 13.0 -7.2 13.0 -9.1 12.95 -11.4 12.95 Q-12.05 12.85 -12.45 12.3 -12.9 11.7 -12.95 10.7 L-13.0 8.7 -13.05 6.75 Q-13.05 6.0 -13.5 5.45 L-14.55 4.4 -15.8 3.55 -17.35 3.4 -18.5 3.25 Q-18.9 3.05 -18.9 2.7 -18.9 2.05 -18.5 1.9 L-17.4 1.75 -15.7 1.85 Q-15.05 2.0 -14.35 2.5 L-13.0 3.4 -12.15 4.2 -11.4 3.4 -10.4 2.6 -9.1 1.8 -7.45 1.6 -6.25 1.8 Q-5.95 2.0 -5.95 2.45 -5.95 2.8 -6.35 3.05 L-7.25 3.2 -8.6 3.35 Q-9.05 3.55 -9.7 4.1 L-10.85 5.25 Q-11.25 5.7 -11.2 6.4 L-11.15 8.0 -11.1 9.8 -10.9 10.75 Q-10.7 11.25 -9.85 11.35 L-7.8 11.4 -5.3 11.45 -1.35 11.5 Q-0.8 11.45 -0.6 11.15 L-0.55 10.15 -0.75 9.45 -1.35 9.35 -2.2 9.35 -3.4 9.4 -4.25 9.45 -5.1 9.4 -6.35 9.4 -7.45 9.4 -8.55 9.0 Q-9.05 8.75 -9.0 8.35 L-8.95 7.35 -8.9 6.0 Q-8.9 5.25 -8.55 5.0 L-7.1 4.8 -5.6 4.95 Q-5.3 5.15 -5.35 5.65 -5.3 6.0 -5.55 6.15 L-6.65 6.3 Q-7.0 6.3 -7.15 6.55 L-7.25 7.15 -7.2 7.75 -6.8 7.9 -4.55 7.9 -3.55 7.95 -2.2 8.0 -1.3 8.0 -0.8 7.9 -0.6 7.4 Q-0.65 7.0 -0.4 6.9 L0.25 6.85 1.05 6.9 1.35 7.35 Q1.35 7.65 1.5 7.8 L2.05 7.95 3.15 7.95 4.75 7.9 5.85 7.85 Q6.4 7.85 6.55 8.1 L6.7 8.75 6.4 9.3 5.6 9.45 4.3 9.45 3.0 9.5 2.15 9.5 Q1.6 9.5 1.5 9.8 1.3 10.05 1.35 10.55 1.3 11.1 1.5 11.25 L2.2 11.45 3.95 11.45 Q5.4 11.35 7.25 11.4 L10.65 11.35 M14.05 8.5 L14.75 8.0 15.7 7.2 Q16.15 6.8 16.55 6.9 L18.75 7.35 Q19.45 7.4 19.45 7.85 L19.3 8.6 18.9 9.0 17.9 8.9 17.05 8.75 16.35 9.0 15.7 9.6 15.2 10.0 14.5 10.15 13.55 10.05 11.8 9.85 10.05 9.5 9.2 9.35 8.75 9.0 8.45 8.45 8.4 7.5 Q8.3 6.95 8.05 6.95 L6.55 6.65 Q6.1 6.55 6.15 6.2 L6.4 5.5 7.0 5.25 8.35 5.45 9.65 5.75 10.0 6.15 10.2 7.0 Q10.2 7.55 10.35 7.8 L10.8 8.0 13.0 8.45 14.05 8.5 M8.3 -9.3 L9.5 -9.7 11.25 -10.25 12.55 -10.65 13.55 -10.75 14.4 -10.75 15.2 -10.4 15.85 -9.7 16.4 -9.3 17.4 -9.65 18.4 -9.95 18.9 -9.75 19.1 -9.25 19.0 -8.8 18.7 -8.5 17.3 -8.05 16.1 -7.65 15.4 -7.8 Q15.1 -8.0 14.9 -8.35 L14.25 -8.9 13.55 -9.05 12.45 -8.85 10.9 -8.45 9.75 -8.15 Q9.35 -8.05 9.3 -7.7 L9.3 -6.85 9.2 -5.95 8.6 -5.4 7.5 -4.75 6.15 -4.25 Q5.7 -4.25 5.5 -4.55 5.2 -4.85 5.2 -5.1 L5.65 -5.5 6.5 -5.95 7.35 -6.25 Q7.7 -6.6 7.65 -7.2 L7.65 -8.2 7.8 -8.9 8.3 -9.3 M12.65 -20.45 L16.55 -20.45 Q19.5 -20.5 21.05 -18.0 22.6 -15.55 22.7 -10.05 22.65 -9.1 22.75 -8.45 L22.95 -7.1 22.6 -6.0 21.8 -5.45 19.55 -4.8 16.35 -3.8 13.15 -2.85 11.05 -2.15 8.95 -1.4 6.7 -0.6 4.75 -0.2 Q4.05 -0.25 3.75 -0.45 3.35 -0.65 3.4 -1.15 L3.0 -1.8 Q2.6 -2.15 2.25 -2.15 L0.2 -2.1 -1.35 -2.0 Q-1.95 -2.0 -2.3 -1.25 -2.65 -0.5 -2.65 1.1 -2.65 2.85 -2.15 3.4 -1.7 3.9 -0.8 3.85 L0.55 3.9 1.95 3.9 3.0 3.5 3.4 2.8 Q3.35 2.25 3.75 1.9 4.05 1.65 4.75 1.65 L7.75 2.0 11.5 2.8 14.35 3.3 16.5 3.7 19.15 4.1 21.25 4.4 Q22.3 4.45 22.75 5.0 23.2 5.55 23.2 6.55 L23.05 7.95 22.95 10.4 22.6 16.05 Q22.35 18.25 21.35 19.4 20.4 20.45 18.5 20.5 L15.8 20.5 11.65 20.5 6.9 20.6 Q4.45 20.55 2.45 20.65 0.4 20.6 -0.8 20.7 L-4.25 20.7 -9.15 20.6 -14.15 20.5 -17.85 20.5 Q-19.45 20.45 -20.6 19.65 -21.7 18.9 -22.3 17.8 -22.9 16.65 -22.95 15.55 L-22.95 12.5 -23.05 7.9 -23.15 3.25 -23.2 0.05 -23.1 -2.85 -23.0 -6.75 -22.85 -10.7 -22.75 -13.85 Q-22.75 -15.7 -22.2 -17.2 -21.65 -18.7 -20.6 -19.5 -19.55 -20.45 -18.2 -20.45 L-15.6 -20.45 -11.75 -20.5 -7.55 -20.55 -3.8 -20.65 -1.35 -20.7 2.25 -20.7 7.45 -20.6 12.65 -20.45 M20.0 -14.95 Q19.35 -16.85 18.35 -17.9 17.35 -18.85 16.35 -18.9 L13.7 -18.9 9.55 -18.95 4.85 -19.05 0.75 -19.1 -1.75 -19.15 -3.55 -19.1 -6.85 -19.1 -10.8 -19.05 -14.45 -19.0 -17.0 -18.95 Q-18.85 -18.85 -19.8 -17.45 -20.75 -16.05 -20.8 -14.15 L-20.85 -11.2 -21.0 -7.1 -21.15 -3.0 -21.2 -0.3 -21.15 1.8 -21.1 5.3 -21.05 9.2 -21.0 12.6 -20.95 14.7 Q-20.9 16.2 -19.9 17.45 -18.95 18.6 -17.1 18.8 L-14.75 18.85 -11.05 18.95 -6.9 19.0 -3.1 19.05 -0.55 19.05 2.15 19.05 6.35 19.0 11.0 18.95 15.05 18.85 17.4 18.8 Q19.0 18.7 19.8 17.75 20.55 16.8 20.8 14.85 L21.0 9.85 21.05 8.4 21.1 7.4 20.8 6.4 Q20.5 6.1 19.85 6.0 L18.35 5.7 15.75 5.25 13.05 4.7 11.35 4.4 9.65 4.1 7.8 3.8 6.7 3.55 Q5.8 3.35 5.35 3.55 4.9 3.8 4.9 4.4 L4.3 5.05 2.75 5.45 1.6 5.5 -0.05 5.5 -1.65 5.45 Q-2.9 5.4 -3.55 4.9 -4.2 4.45 -4.35 3.05 L-4.45 1.55 -4.4 -0.4 -4.3 -1.9 Q-4.2 -2.7 -3.65 -3.1 -3.15 -3.55 -2.2 -3.7 L-0.35 -3.8 1.85 -3.8 3.2 -3.8 Q3.9 -3.75 4.25 -3.35 L4.9 -2.6 Q5.1 -2.2 5.55 -2.15 L6.65 -2.45 8.55 -3.15 10.65 -3.85 11.85 -4.35 13.6 -4.8 16.35 -5.65 18.5 -6.25 Q19.9 -6.7 20.4 -7.1 L20.9 -7.85 20.8 -8.95 20.7 -10.65 Q20.65 -13.15 20.0 -14.95 M11.45 -16.2 L14.05 -16.3 15.9 -15.9 Q16.6 -15.5 17.35 -14.0 L18.3 -12.15 Q18.35 -11.65 17.8 -11.45 17.45 -11.25 17.05 -11.45 16.65 -11.7 16.2 -12.6 L15.2 -14.15 14.5 -14.65 13.75 -14.75 11.45 -14.75 9.75 -14.75 6.7 -14.65 3.75 -14.65 2.2 -14.6 1.5 -14.35 Q1.2 -14.1 1.2 -13.6 1.15 -13.1 1.25 -12.85 1.4 -12.55 1.95 -12.6 L3.6 -12.7 6.4 -12.75 9.2 -12.8 10.7 -12.75 11.65 -12.5 11.8 -12.1 11.5 -11.45 10.55 -11.15 6.4 -11.1 2.25 -11.1 1.45 -10.95 Q1.15 -10.9 1.2 -10.35 L1.3 -9.4 Q1.5 -9.15 2.05 -9.15 L5.05 -9.15 5.65 -9.0 5.85 -8.45 5.75 -7.75 Q5.65 -7.55 5.2 -7.5 L4.3 -7.5 3.0 -7.55 2.0 -7.5 1.3 -7.25 1.1 -6.4 0.95 -5.45 Q0.8 -5.15 0.25 -5.15 -0.3 -5.15 -0.55 -5.45 L-0.65 -6.3 -0.75 -7.15 -1.35 -7.5 -2.55 -7.5 -4.15 -7.55 -5.55 -7.55 -6.8 -7.4 Q-7.15 -7.15 -7.2 -6.4 L-7.25 -5.5 -7.25 -5.0 -6.9 -4.65 -6.05 -4.6 -5.35 -4.45 Q-5.15 -4.25 -5.1 -3.8 -5.05 -3.4 -5.5 -3.25 L-6.95 -3.15 -8.35 -3.45 Q-8.85 -3.7 -8.7 -4.25 L-8.8 -5.6 -8.85 -7.0 -8.55 -8.4 Q-8.25 -9.0 -7.55 -9.05 L-5.7 -9.05 -3.25 -9.05 -1.65 -9.1 -0.95 -9.3 Q-0.8 -9.6 -0.8 -10.05 L-0.85 -10.85 Q-0.95 -11.15 -1.65 -11.15 L-3.1 -11.15 -4.95 -11.1 -6.2 -11.1 -7.2 -11.1 -8.55 -11.15 -9.65 -11.2 Q-10.45 -11.15 -10.85 -10.7 -11.25 -10.25 -11.2 -9.6 L-11.25 -7.75 -11.3 -6.3 -11.4 -4.75 Q-11.4 -4.2 -11.0 -3.6 -10.7 -2.95 -9.7 -2.15 L-8.65 -1.45 -7.05 -1.25 -6.15 -1.05 Q-5.85 -0.9 -5.8 -0.55 -5.75 -0.1 -6.1 0.1 L-7.45 0.3 -8.9 0.15 Q-9.6 -0.1 -10.5 -0.7 L-11.5 -1.5 -12.2 -2.4 -13.0 -1.55 -13.85 -0.8 Q-14.8 -0.1 -15.45 0.15 L-17.05 0.3 -18.4 0.15 Q-18.75 -0.05 -18.75 -0.4 L-18.45 -1.05 -17.5 -1.3 -16.1 -1.45 Q-15.55 -1.65 -14.9 -2.15 L-13.55 -3.55 -13.15 -4.6 -13.15 -5.9 -13.15 -7.35 -13.1 -8.95 -13.1 -10.5 -12.85 -11.75 Q-12.6 -12.4 -11.8 -12.65 L-10.9 -12.8 -9.65 -12.9 -8.65 -12.9 -6.95 -12.9 -4.2 -12.85 -1.95 -12.75 -1.1 -13.0 -0.8 -13.7 Q-0.75 -14.2 -0.95 -14.45 -1.15 -14.75 -1.5 -14.75 L-12.9 -14.75 -14.75 -14.2 Q-15.45 -13.65 -15.5 -12.95 L-15.55 -11.75 -15.6 -9.9 -15.65 -8.7 -15.65 -7.4 -15.6 -5.5 -15.6 -4.15 Q-15.6 -3.5 -16.2 -3.15 L-17.8 -2.8 -18.55 -3.0 Q-18.95 -3.15 -19.0 -3.6 L-18.8 -4.25 -18.2 -4.45 Q-17.9 -4.45 -17.7 -4.8 -17.55 -5.2 -17.55 -5.8 L-17.5 -7.25 -17.5 -9.8 -17.45 -12.4 -17.45 -13.85 -16.9 -14.9 Q-16.4 -15.5 -15.65 -15.9 -14.9 -16.35 -14.05 -16.4 L-12.7 -16.4 -10.5 -16.45 -8.25 -16.45 -6.9 -16.45 -5.25 -16.45 -2.9 -16.4 -1.35 -16.4 Q-0.95 -16.4 -0.9 -16.55 L-0.8 -17.05 -0.55 -17.55 0.35 -17.65 1.1 -17.35 1.25 -16.65 Q1.25 -16.4 1.5 -16.3 L1.95 -16.3 3.1 -16.2 5.1 -16.2 6.7 -16.2 11.45 -16.2" fill="#ffffff" fill-rule="evenodd" stroke="none"/>
  </g>
</svg>
