<?xml version="1.0" encoding="UTF-8" standalone="no"?>
<svg xmlns:xlink="http://www.w3.org/1999/xlink" height="41.85px" width="45.45px" xmlns="http://www.w3.org/2000/svg">
  <g transform="matrix(1.0, 0.0, 0.0, 1.0, 22.75, 20.95)">
    <path d="M-18.25 -4.95 Q-17.8 -5.55 -16.95 -5.6 -16.3 -5.6 -15.7 -5.1 -15.2 -4.55 -15.15 -3.85 -15.15 -3.1 -15.6 -2.55 -16.1 -2.1 -16.95 -2.05 -17.8 -2.1 -18.25 -2.5 -18.65 -3.0 -18.7 -3.7 L-18.25 -4.95 M-15.95 -11.1 Q-15.4 -10.75 -15.3 -9.85 -15.4 -8.9 -15.95 -8.4 -16.5 -7.85 -17.15 -7.85 -17.75 -7.9 -18.25 -8.45 -18.8 -9.05 -18.85 -9.75 -18.85 -10.45 -18.35 -10.95 -17.95 -11.5 -17.15 -11.55 -16.45 -11.55 -15.95 -11.1 M-15.25 -15.75 Q-15.3 -15.05 -15.8 -14.45 -16.35 -13.9 -17.15 -13.9 -17.95 -13.9 -18.35 -14.3 -18.8 -14.8 -18.8 -15.55 -18.75 -16.4 -18.25 -16.9 -17.7 -17.4 -17.15 -17.4 -16.35 -17.4 -15.8 -16.9 -15.3 -16.45 -15.25 -15.75 M-8.0 -13.8 L-8.15 -15.35 Q-8.3 -15.75 -8.75 -15.85 L-9.75 -16.0 -10.85 -16.0 Q-11.4 -15.95 -11.6 -15.25 L-11.8 -13.85 -11.75 -11.8 -11.6 -8.35 -11.45 -4.8 -11.45 -2.55 -11.7 -1.3 -12.4 0.0 Q-12.85 0.5 -13.5 0.7 L-16.05 1.3 -17.15 1.65 Q-17.45 1.8 -17.35 2.0 L-16.85 2.3 -14.6 2.2 -12.35 2.0 -10.55 1.7 Q-10.05 1.55 -9.45 1.05 L-8.5 0.0 Q-8.15 -0.6 -8.15 -1.05 L-8.2 -3.6 -8.1 -7.45 -8.05 -11.25 -8.0 -13.8 M-6.8 -16.9 Q-6.35 -16.2 -6.2 -15.55 L-6.2 -13.25 -6.25 -9.55 -6.4 -5.45 -6.5 -2.0 -6.55 0.0 Q-6.65 0.6 -7.1 1.35 L-8.25 2.6 -9.3 3.15 -11.1 3.45 -14.0 3.8 -17.4 3.85 -19.1 3.5 Q-19.55 3.35 -19.65 2.35 -19.8 1.4 -19.5 0.95 L-18.9 0.35 -17.85 0.05 -16.25 -0.35 -14.7 -0.8 Q-13.85 -1.05 -13.5 -1.75 -13.1 -2.55 -13.0 -3.4 L-13.05 -5.45 -13.2 -9.1 -13.45 -12.75 -13.5 -14.95 -13.15 -16.05 -12.25 -17.15 Q-11.8 -17.6 -11.4 -17.65 L-9.5 -17.6 -7.85 -17.65 Q-7.3 -17.6 -6.8 -16.9 M4.5 11.3 L4.45 10.7 4.95 9.95 Q5.25 9.55 5.05 9.4 4.85 9.25 3.8 9.4 L1.65 9.45 -1.15 9.45 -3.35 9.35 Q-4.45 9.2 -4.7 9.35 -4.95 9.5 -4.45 10.2 L-4.0 11.25 -4.45 12.25 -4.8 13.0 -4.0 13.1 -2.6 13.15 -0.35 13.2 2.0 13.2 3.8 13.15 5.15 12.9 5.0 12.2 4.5 11.3 M12.6 12.05 L10.2 12.1 8.3 12.1 7.0 12.2 Q6.65 12.35 6.95 12.9 L7.3 13.75 7.2 14.25 6.65 14.6 5.45 14.7 3.55 14.75 0.65 14.75 -2.35 14.85 -4.55 14.85 -5.8 14.95 Q-6.25 14.95 -6.5 14.6 L-6.85 13.95 -6.5 13.1 Q-6.05 12.4 -6.3 12.3 L-7.65 12.2 -9.85 12.15 -12.9 12.15 -15.45 12.15 -16.95 12.25 Q-17.25 12.45 -17.15 13.2 L-17.1 14.35 -16.9 15.25 -16.65 15.9 -16.05 16.1 -15.25 15.9 -15.15 14.85 -15.1 13.85 Q-15.0 13.45 -14.2 13.45 L-12.15 13.5 -10.2 13.45 -9.3 13.5 -8.9 13.9 -8.6 14.4 -9.05 15.2 Q-9.7 15.9 -9.55 16.1 L-8.75 16.15 -7.15 16.2 -4.75 16.25 -2.15 16.25 -0.1 16.15 1.85 16.0 4.45 16.0 7.0 16.1 8.45 16.1 9.85 15.95 Q10.1 15.85 9.75 15.4 L9.15 14.5 9.55 13.9 Q9.9 13.55 10.15 13.5 L11.15 13.45 12.85 13.45 14.25 13.4 15.25 13.7 Q15.5 13.9 15.55 14.65 15.5 15.5 15.7 15.8 L16.45 15.85 17.1 15.55 17.2 14.55 17.1 13.05 16.95 12.25 16.15 12.05 14.85 12.05 12.6 12.05 M15.1 8.8 L14.1 9.05 12.6 9.1 11.1 9.1 10.0 9.1 Q9.6 9.05 9.25 8.7 8.95 8.4 9.0 8.2 L9.45 7.2 Q9.85 6.4 9.55 6.25 L8.4 6.2 6.95 6.15 4.4 6.0 1.75 5.95 -0.3 6.05 -2.25 6.2 -4.8 6.15 -7.2 6.0 -8.7 6.0 Q-9.5 6.0 -9.6 6.25 L-9.35 7.2 -8.9 8.25 Q-8.85 8.45 -9.1 8.7 L-9.85 8.95 -11.05 8.95 -12.6 8.95 -14.5 8.95 Q-15.3 8.9 -15.5 8.65 L-15.65 7.7 -15.75 7.0 -16.45 6.95 -17.15 7.05 -17.15 7.7 -17.2 9.55 Q-17.35 10.25 -17.1 10.4 L-15.5 10.4 -13.6 10.4 -11.25 10.4 -9.0 10.5 -7.45 10.55 -6.45 10.4 Q-6.3 10.2 -6.55 9.6 L-6.9 8.7 -6.75 8.05 -6.25 7.65 -5.25 7.6 -3.25 7.65 0.0 7.65 3.15 7.65 5.15 7.55 6.35 7.45 Q6.7 7.45 7.0 7.85 7.25 8.2 7.15 8.65 L6.75 9.6 Q6.5 10.2 6.9 10.35 L8.1 10.4 9.75 10.35 12.25 10.35 14.65 10.35 16.1 10.35 17.0 10.15 17.1 9.05 17.05 7.6 16.95 6.6 16.25 6.45 Q15.65 6.4 15.45 6.65 15.2 6.9 15.35 7.7 15.4 8.5 15.1 8.8 M17.6 5.05 Q18.3 5.0 18.55 5.45 L18.8 7.2 18.85 9.65 19.05 12.6 Q19.05 14.0 19.2 14.65 L18.95 15.9 18.05 16.9 16.95 17.4 15.0 17.6 Q14.4 17.65 14.2 17.35 13.9 16.95 13.95 16.1 L13.8 15.1 12.9 15.05 11.6 15.15 Q11.4 15.25 11.8 15.9 L12.1 16.5 11.95 17.05 11.3 17.65 10.15 17.85 8.3 17.8 5.05 17.7 1.75 17.7 -0.4 17.75 -2.4 17.8 -5.25 17.8 -8.0 17.8 -9.7 17.85 -10.95 17.85 -11.6 17.25 -11.7 16.65 -11.4 15.9 Q-11.05 15.45 -11.2 15.25 L-12.4 15.1 -13.55 15.25 -13.7 16.4 Q-13.65 17.15 -13.85 17.45 L-15.0 17.7 -16.9 17.7 Q-17.65 17.7 -18.0 17.1 L-18.8 15.25 -19.05 12.8 -19.05 9.7 -19.0 7.2 -18.75 5.6 Q-18.5 5.2 -17.7 5.2 L-14.75 5.1 Q-14.15 5.0 -14.0 5.35 L-13.9 6.4 Q-13.9 7.1 -13.7 7.25 L-12.55 7.4 -11.3 7.25 Q-11.1 7.1 -11.5 6.45 L-11.85 5.55 -11.5 4.95 -10.85 4.45 -9.85 4.3 -7.95 4.2 -4.7 4.2 -1.4 4.15 1.05 4.05 3.05 4.0 5.9 4.2 8.6 4.4 10.05 4.4 Q10.55 4.25 10.9 4.4 L11.55 4.95 11.9 5.65 11.35 6.8 Q11.0 7.3 11.25 7.4 L12.45 7.4 13.4 7.2 Q13.65 7.05 13.6 6.15 13.6 5.25 13.85 5.15 L14.55 5.05 17.6 5.05 M18.35 -5.0 Q18.9 -4.55 18.95 -3.75 18.9 -3.0 18.45 -2.5 17.9 -2.05 17.3 -2.0 16.6 -2.0 16.0 -2.45 15.45 -2.9 15.4 -3.6 15.45 -4.4 16.0 -4.95 16.5 -5.5 17.1 -5.55 17.8 -5.5 18.35 -5.0 M17.15 -7.8 Q16.5 -7.85 16.0 -8.35 15.6 -8.85 15.55 -9.6 15.6 -10.3 16.0 -10.9 16.45 -11.45 17.1 -11.5 17.85 -11.45 18.45 -10.95 L19.0 -9.7 Q18.95 -8.95 18.4 -8.4 17.8 -7.85 17.15 -7.8 M15.25 -15.6 Q15.3 -16.35 15.85 -16.9 16.35 -17.45 16.9 -17.45 17.55 -17.45 18.15 -16.95 L18.75 -15.75 Q18.75 -15.05 18.25 -14.45 17.7 -13.85 17.0 -13.85 16.3 -13.85 15.8 -14.3 15.3 -14.85 15.25 -15.6 M11.15 -17.65 L12.4 -17.55 13.55 -16.65 Q14.05 -15.9 14.0 -15.1 L13.95 -12.65 13.75 -8.4 13.4 -3.65 Q13.3 -2.95 13.65 -2.15 13.95 -1.35 14.55 -1.1 L15.6 -0.75 17.1 -0.25 18.45 0.1 Q19.25 0.25 19.45 0.9 L19.2 2.65 18.8 3.35 17.9 3.8 15.7 3.9 13.95 3.75 11.45 3.4 9.45 3.15 Q8.8 3.05 8.25 2.5 7.6 1.9 7.25 1.2 6.85 0.45 6.95 0.05 L6.8 -1.9 6.65 -5.6 6.4 -9.8 6.25 -13.45 6.2 -15.4 Q6.3 -16.15 6.75 -16.8 7.2 -17.55 7.75 -17.65 L9.3 -17.7 11.15 -17.65 M12.25 -13.9 L12.05 -15.25 11.5 -15.9 10.3 -15.95 8.95 -16.0 Q8.55 -16.05 8.3 -15.6 8.0 -15.2 8.05 -14.45 L8.1 -12.0 8.4 -8.3 8.6 -4.4 8.65 -1.4 Q8.65 -0.3 9.2 0.45 9.8 1.3 10.55 1.45 L11.75 1.65 13.35 1.95 14.65 2.15 16.7 2.35 17.3 1.95 Q17.45 1.65 17.2 1.5 L15.95 1.1 13.25 0.45 Q12.75 0.35 12.4 -0.3 L11.8 -1.85 11.6 -3.45 11.75 -5.4 12.0 -8.55 12.2 -11.75 12.25 -13.9 M11.05 -20.85 L14.9 -20.85 18.25 -20.85 Q20.35 -20.85 21.3 -19.3 22.25 -17.75 22.45 -15.05 L22.6 -12.65 22.5 -8.75 22.45 -4.55 22.4 -0.8 22.35 1.35 22.45 3.5 22.6 7.05 22.7 11.0 22.65 14.55 Q22.45 16.95 21.3 18.3 20.1 19.65 18.6 20.2 L15.85 20.8 12.45 20.8 7.6 20.8 2.7 20.8 -0.65 20.9 -4.2 20.9 -9.15 20.8 -14.15 20.75 -17.7 20.7 Q-19.4 20.65 -20.55 19.5 -21.65 18.35 -22.2 16.9 -22.75 15.35 -22.7 14.35 L-22.65 12.3 -22.7 8.85 -22.7 4.8 -22.75 1.1 -22.7 -1.4 -22.6 -4.5 -22.6 -8.95 -22.6 -13.35 -22.65 -16.0 Q-22.65 -18.6 -21.45 -19.7 -20.25 -20.85 -18.15 -20.85 L-16.3 -20.85 -14.15 -20.85 -12.2 -20.9 -9.95 -20.9 -7.1 -20.85 -4.65 -20.85 Q-3.9 -20.85 -3.3 -20.4 L-2.4 -19.25 Q-2.1 -18.65 -2.15 -18.05 L-2.25 -14.95 -2.25 -10.85 Q-2.2 -8.1 -2.4 -5.55 L-2.55 -1.45 -2.35 -0.2 -2.0 0.6 -1.45 1.1 -0.7 1.35 -0.05 1.35 0.5 1.35 1.55 1.3 Q2.1 1.15 2.25 1.0 L2.75 0.3 3.1 -0.55 3.05 -2.15 3.0 -4.55 2.8 -8.6 2.4 -13.8 2.25 -18.05 Q2.3 -19.55 3.25 -20.25 4.1 -20.95 5.85 -20.95 L7.7 -20.9 11.05 -20.85 M14.8 -19.15 L11.55 -19.2 8.4 -19.2 6.25 -19.2 Q5.0 -19.2 4.6 -18.65 4.15 -18.1 4.15 -17.25 L4.2 -15.5 4.3 -13.05 4.45 -10.75 4.7 -9.2 4.8 -7.45 4.9 -5.15 Q4.85 -3.9 4.95 -2.85 4.9 -1.8 5.0 -1.45 L4.95 0.1 4.5 1.3 3.8 2.2 2.95 2.75 2.0 2.9 0.45 2.9 -1.15 2.95 -2.2 2.9 Q-2.65 2.8 -3.0 2.35 L-3.65 1.7 -4.15 1.0 -4.35 -0.6 -4.35 -2.05 -4.3 -4.55 -4.25 -7.35 -4.25 -9.7 -4.25 -12.45 -4.2 -15.45 -4.15 -17.55 Q-4.1 -18.2 -4.45 -18.65 -4.8 -19.15 -5.95 -19.15 L-8.05 -19.25 -10.45 -19.3 -12.35 -19.25 -14.0 -19.15 -16.0 -19.15 -17.65 -19.15 -19.05 -19.0 -20.1 -18.0 Q-20.5 -17.3 -20.55 -15.85 L-20.55 -12.4 -20.6 -7.6 -20.75 -3.0 -20.85 -0.25 -20.95 1.8 -20.85 5.15 -20.8 8.95 -20.75 12.25 -20.8 14.05 Q-20.85 14.8 -20.4 15.95 -20.0 17.1 -19.05 18.05 -18.05 18.95 -16.6 19.0 L-13.2 19.1 -8.45 19.25 -3.95 19.3 -1.05 19.25 1.25 19.2 5.1 19.2 9.45 19.2 13.3 19.2 15.65 19.05 17.9 18.6 Q19.0 18.2 19.85 17.2 20.7 16.3 20.8 14.6 L20.8 11.5 20.75 7.65 20.65 4.1 20.6 1.8 20.65 -0.4 20.7 -4.15 20.75 -8.45 20.75 -12.3 20.65 -14.7 Q20.3 -17.4 19.6 -18.3 18.9 -19.25 17.15 -19.15 L14.8 -19.15" fill="#ffffff" fill-rule="evenodd" stroke="none"/>
  </g>
</svg>
