<?xml version="1.0" encoding="UTF-8" standalone="no"?>
<svg xmlns:xlink="http://www.w3.org/1999/xlink" height="41.95px" width="20.6px" xmlns="http://www.w3.org/2000/svg">
  <g transform="matrix(1.0, 0.0, 0.0, 1.0, 10.3, 21.0)">
    <path d="M-0.15 11.3 L-0.7 11.4 -1.0 12.05 -1.35 12.85 -2.05 13.1 -2.95 13.15 -4.25 13.25 -5.1 13.25 -5.65 13.35 -5.65 13.9 -4.9 15.75 -4.55 16.2 -3.95 16.35 -3.1 16.25 -2.7 15.8 Q-2.45 15.0 -2.2 14.75 -1.95 14.45 -1.45 14.4 L-0.1 14.35 1.45 14.35 2.3 14.6 2.85 15.45 Q3.0 15.95 3.3 16.15 L4.05 16.25 4.85 16.0 5.25 15.3 5.85 13.85 5.85 13.25 Q5.7 12.95 5.25 12.95 L4.35 12.95 3.1 12.95 2.05 12.95 1.2 12.8 0.8 12.1 0.4 11.4 -0.15 11.3 M-7.3 12.25 Q-7.0 11.65 -6.7 11.55 L-5.65 11.5 -4.1 11.5 -2.9 11.45 -2.3 11.3 -1.95 10.55 Q-1.8 9.9 -1.35 9.7 L-0.05 9.55 Q1.0 9.5 1.3 9.85 L1.75 10.65 2.1 11.3 2.7 11.35 3.75 11.3 5.35 11.3 6.45 11.3 Q6.9 11.35 7.25 11.95 7.65 12.5 7.55 12.9 L7.1 13.95 6.55 15.65 6.1 16.9 5.6 17.7 5.0 17.95 4.0 17.9 2.9 17.85 2.3 17.6 1.9 16.8 1.4 16.2 0.0 16.0 -1.25 16.25 Q-1.6 16.45 -1.8 17.15 -2.0 17.75 -2.35 17.8 L-2.95 17.9 -4.0 17.95 -4.95 17.95 -5.5 17.7 -5.85 17.0 -6.65 15.2 -7.5 13.3 Q-7.7 12.85 -7.3 12.25 M-3.1 5.2 L-4.45 5.25 -5.3 5.3 -5.85 5.35 -5.8 5.95 -5.05 7.75 -4.75 8.2 -4.15 8.35 -3.5 8.25 -3.15 7.5 -2.75 6.75 -1.9 6.55 -0.3 6.45 1.7 6.4 Q2.3 6.4 2.6 6.65 L3.15 7.5 3.65 8.3 4.05 8.4 Q4.5 8.4 4.75 8.2 L5.15 7.45 5.75 5.8 5.75 5.2 Q5.6 4.9 5.15 5.0 L2.0 5.05 1.1 4.8 Q0.8 4.6 0.7 4.1 L0.3 3.4 -0.2 3.3 -0.75 3.4 -1.1 4.05 -1.45 4.85 -2.15 5.15 -3.1 5.2 M-2.05 2.55 Q-1.9 1.9 -1.45 1.7 L-0.2 1.55 Q0.8 1.55 1.2 1.9 L1.65 2.65 2.0 3.3 2.6 3.35 6.3 3.25 Q6.8 3.3 7.2 3.9 L7.45 4.9 7.05 6.0 6.45 7.7 6.0 9.0 5.5 9.75 4.9 10.05 4.05 10.05 3.05 10.0 2.6 9.7 2.3 8.85 2.0 8.3 1.25 8.15 -0.4 8.15 -1.9 8.3 Q-2.25 8.45 -2.45 9.2 L-2.9 9.85 -3.4 10.05 -4.3 10.1 -5.15 10.1 -5.65 9.8 -5.95 9.1 -6.75 7.25 -7.7 5.35 Q-7.85 4.85 -7.5 4.25 L-6.85 3.55 -3.0 3.45 -2.35 3.3 -2.05 2.55 M-2.95 -9.95 L-3.9 -10.1 -4.8 -9.95 -4.95 -9.15 -4.8 -8.15 -3.95 -7.95 Q-3.2 -8.0 -2.95 -8.2 -2.75 -8.4 -2.75 -9.25 L-2.95 -9.95 M0.55 -3.55 L0.15 -3.9 -0.35 -3.9 -0.95 -3.9 -1.35 -3.6 -1.8 -3.0 -2.4 -2.9 -5.2 -2.85 -5.75 -2.75 Q-5.95 -2.6 -5.8 -2.15 L-5.15 -0.4 -4.95 0.05 -4.5 0.2 -3.75 0.1 -3.35 -0.55 Q-3.25 -1.1 -2.65 -1.25 L-0.4 -1.5 1.4 -1.5 2.4 -1.35 2.9 -0.75 3.45 0.05 4.0 0.15 4.6 0.0 4.95 -0.85 5.25 -2.25 5.25 -2.85 Q5.15 -3.15 4.7 -3.1 L2.0 -3.0 1.1 -3.05 0.55 -3.55 M3.45 -4.8 L4.85 -4.8 5.85 -4.8 6.7 -4.15 7.0 -3.2 6.65 -2.1 6.2 -0.4 5.85 0.85 5.3 1.6 4.7 1.9 4.0 1.9 3.2 1.9 2.6 1.7 2.05 0.85 1.75 0.3 1.1 0.15 -0.3 0.15 -1.65 0.25 -2.3 0.45 -2.65 1.15 Q-2.9 1.65 -3.1 1.75 L-3.65 1.9 -4.5 1.9 -5.45 1.9 -5.85 1.6 -6.15 0.9 -6.85 -0.9 -7.55 -2.75 Q-7.75 -3.25 -7.4 -3.9 L-6.75 -4.55 -3.4 -4.55 -2.75 -4.6 Q-2.5 -4.65 -2.3 -5.25 -2.15 -5.5 -1.75 -5.55 L-0.45 -5.6 0.95 -5.55 1.45 -5.4 Q1.65 -4.95 1.9 -4.8 L2.45 -4.75 3.45 -4.8 M0.65 -8.3 Q0.85 -8.45 0.85 -9.15 L0.6 -9.9 -0.3 -10.1 -1.1 -9.9 -1.3 -9.1 Q-1.35 -8.45 -1.1 -8.3 L-0.2 -8.15 0.65 -8.3 M4.35 -9.85 L3.45 -9.95 2.55 -9.85 Q2.3 -9.75 2.3 -9.2 L2.5 -8.3 Q2.7 -8.1 3.45 -8.05 4.15 -8.1 4.4 -8.3 L4.6 -9.1 4.35 -9.85 M4.4 -17.6 L5.05 -17.75 5.7 -17.5 5.85 -16.85 5.9 -15.85 5.95 -14.6 6.0 -13.75 6.05 -12.65 6.1 -10.8 6.1 -8.9 6.1 -7.8 Q6.15 -7.4 5.85 -7.15 L5.15 -6.7 4.4 -6.65 3.35 -6.65 2.55 -6.75 1.3 -6.8 -0.75 -6.8 -2.15 -6.65 -3.1 -6.6 -4.4 -6.6 -5.4 -6.55 -6.1 -6.8 -6.5 -7.4 -6.55 -8.7 -6.65 -10.8 -6.7 -12.25 -6.65 -13.45 -6.55 -15.0 -6.65 -16.35 -6.4 -17.4 -5.85 -17.65 -5.2 -17.5 Q-5.0 -17.3 -4.95 -16.9 L-4.95 -15.95 -4.95 -14.75 -5.05 -13.55 -4.95 -12.15 -4.8 -11.6 -4.05 -11.55 -3.15 -11.6 Q-2.85 -11.75 -2.9 -12.1 L-2.9 -13.5 -2.95 -14.55 -3.05 -15.85 -3.0 -17.1 -2.85 -17.75 -2.3 -17.9 Q-1.8 -18.0 -1.6 -17.7 -1.35 -17.45 -1.35 -17.0 L-1.35 -15.95 -1.3 -14.7 -1.3 -13.75 -1.3 -12.4 -1.15 -11.65 -0.35 -11.5 0.4 -11.55 Q0.7 -11.65 0.7 -12.15 L0.7 -13.55 0.7 -14.4 0.65 -15.8 0.5 -17.15 Q0.45 -17.6 0.7 -17.8 L1.4 -17.95 2.1 -17.75 2.25 -17.2 2.25 -16.4 2.3 -15.3 2.4 -14.5 2.4 -13.6 2.3 -12.15 Q2.3 -11.6 2.5 -11.5 L3.4 -11.4 4.2 -11.5 4.35 -12.35 4.25 -14.0 4.25 -15.05 4.25 -16.0 4.15 -17.0 Q4.1 -17.4 4.4 -17.6 M4.65 -19.25 L2.25 -19.35 -0.2 -19.35 -1.9 -19.25 -3.4 -19.2 -5.45 -19.15 -7.0 -19.1 Q-7.9 -19.0 -8.25 -18.5 -8.65 -18.1 -8.6 -16.65 L-8.55 -14.15 -8.5 -10.35 -8.5 -6.4 -8.55 -3.6 -8.65 1.35 -8.65 6.65 -8.6 11.4 -8.55 14.65 -8.3 17.65 -7.65 19.0 Q-7.25 19.35 -6.55 19.3 L-5.25 19.35 -3.45 19.4 -1.9 19.3 -0.2 19.25 2.45 19.15 5.15 19.1 6.75 19.1 8.2 18.85 Q8.65 18.45 8.65 17.5 L8.65 14.8 8.65 10.6 8.65 5.8 8.6 1.45 8.5 -1.4 8.35 -3.95 8.2 -7.65 8.0 -11.5 7.85 -14.8 7.8 -16.65 7.55 -18.35 Q7.25 -19.0 6.25 -19.15 L4.65 -19.25 M5.25 -20.95 L7.25 -20.85 Q8.3 -20.75 8.7 -20.3 L9.3 -19.15 9.45 -17.5 9.6 -15.0 9.75 -11.35 9.85 -7.4 10.05 -4.15 10.15 -0.55 10.25 4.8 10.3 10.7 10.3 15.7 10.3 18.4 Q10.2 19.8 9.55 20.3 8.85 20.8 7.65 20.85 L5.85 20.85 3.35 20.85 0.85 20.85 -0.7 20.95 -2.45 20.95 -4.95 20.9 -7.45 20.95 Q-8.55 21.0 -9.15 20.3 -9.7 19.6 -9.85 18.35 L-10.15 15.55 -10.2 12.15 -10.25 7.2 -10.3 2.15 -10.25 -1.6 -10.2 -5.05 -10.15 -9.25 -10.15 -13.5 -10.2 -16.95 Q-10.2 -18.45 -9.85 -19.25 -9.5 -20.1 -8.7 -20.4 L-6.75 -20.8 -3.95 -20.85 -1.4 -20.9 0.25 -20.95 2.65 -21.0 5.25 -20.95" fill="#ffffff" fill-rule="evenodd" stroke="none"/>
  </g>
</svg>
