<?xml version="1.0" encoding="UTF-8" standalone="no"?>
<svg xmlns:xlink="http://www.w3.org/1999/xlink" height="41.95px" width="39.1px" xmlns="http://www.w3.org/2000/svg">
  <g transform="matrix(1.0, 0.0, 0.0, 1.0, 19.55, 21.0)">
    <path d="M-11.85 16.55 L-11.2 16.1 Q-10.9 16.0 -10.65 16.35 L-10.35 16.4 -9.9 15.95 -8.45 14.55 Q-8.15 14.2 -7.9 14.25 -7.7 14.25 -7.4 14.6 L-6.95 15.25 -7.25 15.8 -8.25 16.85 -9.25 17.85 -10.05 18.1 -11.2 17.95 Q-11.8 17.8 -12.05 17.55 L-12.25 17.0 -11.85 16.55 M-11.8 14.75 L-12.1 15.4 -14.15 17.65 -14.95 17.9 Q-15.4 17.8 -15.75 17.5 L-16.0 16.85 Q-15.95 16.5 -15.55 16.3 L-14.85 15.7 -14.1 14.75 -13.35 14.05 Q-12.95 13.7 -12.75 13.8 L-12.25 14.15 -11.8 14.75 M-12.45 11.95 L-12.1 11.35 -11.45 10.95 Q-11.3 10.9 -10.95 11.3 L-10.15 12.2 -9.3 13.25 -9.1 13.8 -9.55 14.2 -10.1 14.6 Q-10.3 14.65 -10.55 14.35 L-12.2 12.55 -12.45 11.95 M-16.0 8.25 L-16.35 7.65 -16.05 7.1 Q-15.65 6.65 -15.3 6.65 -14.95 6.7 -14.55 7.1 -14.15 7.45 -14.25 7.8 L-14.75 8.45 Q-15.2 8.8 -15.45 8.8 L-16.0 8.25 M-16.35 11.95 L-15.9 11.35 -15.0 10.4 -13.7 8.9 -12.7 7.7 -11.7 7.55 Q-11.1 7.65 -10.5 8.2 -10.05 8.7 -10.05 8.95 L-10.35 9.5 -10.9 9.75 -11.4 9.5 Q-11.6 9.25 -11.75 9.3 L-12.25 9.6 -12.9 10.35 -13.9 11.55 -14.55 12.3 Q-14.85 12.45 -14.75 12.65 L-14.45 13.0 Q-14.25 13.25 -14.4 13.4 L-15.0 13.95 -15.55 14.2 -16.15 13.75 Q-16.5 13.45 -16.45 12.95 L-16.35 11.95 M-1.35 11.7 L-0.65 12.25 Q-0.25 12.7 -0.25 13.45 -0.25 14.15 -0.7 14.5 L-2.15 15.65 -3.6 16.95 -4.6 17.85 -5.4 18.15 -6.4 18.1 -7.1 17.75 -7.3 17.2 -7.0 16.75 -6.35 16.35 -6.15 16.35 Q-5.95 16.55 -5.75 16.55 L-5.15 16.2 -2.45 13.6 -2.25 13.2 -2.5 12.85 -2.6 12.5 -1.95 12.0 -1.35 11.7 M-7.0 12.15 Q-6.7 11.8 -6.55 11.85 L-6.05 12.15 -4.65 13.55 -4.4 14.05 -4.75 14.5 -5.35 14.75 -5.9 14.35 -6.6 13.65 -7.15 13.15 -7.3 12.6 -7.0 12.15 M-7.05 7.9 L-6.1 7.6 Q-5.45 7.5 -4.95 7.85 -4.55 8.25 -4.55 8.6 L-4.95 9.25 -5.55 9.6 Q-5.7 9.65 -5.75 9.5 -5.95 9.25 -6.0 9.3 L-6.35 9.65 -8.05 11.45 -8.75 11.75 -9.3 11.5 -9.7 10.75 Q-9.7 10.45 -9.35 10.25 L-8.65 9.65 -7.8 8.65 -7.05 7.9 M-4.65 -6.5 L-4.8 -7.55 -4.4 -9.1 Q-4.35 -9.6 -4.75 -9.7 L-5.45 -10.5 -5.9 -11.1 -6.6 -10.8 -7.1 -10.05 -7.4 -8.8 Q-7.6 -8.05 -7.4 -7.3 L-6.9 -5.55 -6.15 -4.05 -2.25 -0.25 Q-1.9 0.15 -1.6 0.2 L-1.0 -0.05 -0.55 -0.75 Q-0.45 -1.0 -0.85 -1.35 L-1.9 -2.15 -3.05 -3.3 -3.75 -4.15 -4.1 -5.15 -4.65 -6.5 M-3.25 -13.4 Q-3.85 -13.4 -4.2 -12.95 L-4.6 -11.95 Q-4.6 -11.3 -4.25 -10.95 -3.9 -10.6 -3.25 -10.6 -2.65 -10.65 -2.25 -11.0 -1.9 -11.4 -1.95 -12.05 -1.95 -12.7 -2.25 -13.0 -2.55 -13.4 -3.25 -13.4 M5.0 11.85 L4.6 10.85 Q4.3 10.45 3.6 10.4 2.95 10.45 2.6 10.85 2.25 11.2 2.3 11.85 2.25 12.4 2.6 12.8 2.9 13.25 3.55 13.25 4.2 13.25 4.65 12.8 L5.0 11.85 M6.2 5.45 L5.55 4.5 1.55 1.0 0.85 0.55 Q0.55 0.45 0.15 0.85 -0.2 1.15 -0.15 1.45 L0.3 2.0 1.25 2.75 2.45 3.85 3.15 4.7 3.55 5.55 4.0 6.65 4.2 7.55 4.05 8.5 Q3.95 8.95 4.2 9.05 4.85 9.15 5.15 9.45 5.45 9.7 5.75 9.75 L6.25 9.45 6.8 8.65 7.0 7.65 6.8 6.7 6.2 5.45 M15.25 -9.15 L16.1 -8.4 16.75 -7.65 16.4 -7.1 Q16.1 -6.65 15.85 -6.65 L15.0 -7.25 Q14.4 -7.9 14.45 -8.15 14.4 -8.4 14.7 -8.75 15.05 -9.25 15.25 -9.15 M9.55 -10.8 Q9.55 -10.45 9.2 -10.05 L6.75 -7.65 Q6.3 -7.25 5.75 -7.25 5.15 -7.25 4.3 -7.95 L4.0 -8.6 4.4 -9.15 4.95 -9.5 5.4 -9.35 Q5.65 -9.1 5.75 -9.2 L6.1 -9.55 7.0 -10.35 7.95 -11.35 8.5 -11.7 9.1 -11.5 9.55 -10.8 M4.05 -13.9 L4.6 -14.5 5.15 -14.65 5.65 -14.35 6.95 -13.3 7.1 -12.7 6.55 -12.15 6.0 -11.9 Q5.7 -11.85 5.55 -12.1 L4.95 -12.75 4.15 -13.4 Q3.85 -13.65 4.05 -13.9 M0.95 -16.4 Q0.7 -16.45 0.55 -16.65 L0.1 -16.7 -0.45 -16.65 -1.5 -16.6 -3.15 -16.5 -4.4 -16.45 -5.0 -16.5 -5.4 -16.2 -5.45 -15.6 -5.45 -14.95 Q-5.55 -14.6 -5.95 -14.4 L-6.9 -14.05 -7.5 -14.15 -8.35 -14.75 -9.45 -15.45 -10.7 -15.9 -12.05 -16.1 Q-12.45 -16.3 -12.45 -16.0 L-12.35 -15.15 -12.0 -13.9 -11.25 -12.7 -9.95 -10.9 Q-9.75 -10.65 -9.9 -10.15 L-10.3 -9.35 -10.8 -8.95 -11.8 -8.9 -13.15 -8.95 Q-13.55 -8.95 -13.55 -8.65 L-13.4 -8.0 -12.6 -7.1 -11.6 -6.05 -10.4 -4.75 -8.8 -2.95 -7.75 -1.7 -6.6 -0.5 -5.05 1.1 -4.0 2.15 Q-3.7 2.45 -3.55 2.4 L-3.1 2.05 -2.95 1.55 Q-3.05 1.3 -3.3 1.0 L-4.4 -0.1 -6.15 -1.8 -7.4 -3.15 -8.0 -4.15 -8.65 -5.65 -9.15 -6.9 -9.2 -8.1 -8.95 -9.5 -8.6 -10.45 -7.65 -12.05 -6.7 -12.7 -6.0 -13.1 -5.45 -13.75 -4.65 -14.5 -3.3 -14.95 Q-2.05 -14.9 -1.3 -14.05 -0.55 -13.3 -0.55 -12.15 -0.55 -11.3 -0.9 -10.5 -1.35 -9.75 -1.75 -9.6 L-2.6 -9.15 -2.9 -8.4 Q-3.15 -7.35 -2.85 -6.55 L-2.25 -5.15 -1.1 -3.75 0.1 -2.6 0.65 -2.2 1.2 -2.6 1.45 -3.15 1.25 -3.5 0.7 -4.0 0.1 -4.65 -0.35 -6.05 -0.4 -7.85 -0.15 -9.05 0.8 -9.9 2.1 -11.05 2.95 -11.85 Q3.15 -12.1 3.45 -12.15 L4.1 -11.95 4.6 -11.35 Q4.7 -11.0 4.4 -10.8 L3.7 -10.2 2.65 -9.2 1.85 -8.6 Q1.55 -8.4 1.5 -8.0 L1.4 -6.7 Q1.4 -5.8 1.65 -5.4 L2.2 -4.7 Q2.55 -4.4 2.75 -4.45 L3.15 -4.7 3.65 -5.0 Q3.9 -5.0 4.2 -4.65 L4.5 -4.1 4.15 -3.5 Q3.9 -3.2 4.1 -2.85 L4.85 -2.25 6.3 -1.1 8.55 0.75 10.0 2.05 11.4 3.3 13.55 4.9 15.0 5.95 15.75 6.65 16.1 7.55 15.85 8.75 15.05 9.55 13.8 9.7 12.55 9.8 12.05 10.0 12.35 10.4 12.95 10.95 13.85 11.75 14.35 12.5 14.75 13.6 15.35 15.2 15.75 16.4 Q15.8 16.95 15.25 17.45 14.7 17.85 14.25 17.9 L13.1 17.8 11.65 17.65 10.55 17.55 Q10.1 17.55 9.6 17.2 L8.6 16.35 Q8.15 15.9 7.9 15.95 7.55 15.95 7.4 16.45 L7.0 17.5 Q6.65 17.85 6.15 17.9 L4.85 17.9 2.7 17.9 0.55 17.9 -0.6 17.95 -1.3 17.85 -1.95 17.55 Q-2.3 17.35 -2.15 17.15 L-1.65 16.6 -1.25 16.25 Q-1.05 16.1 -0.75 16.25 L-0.35 16.35 0.15 16.35 1.7 16.4 3.7 16.4 5.05 16.35 5.6 16.3 5.95 15.9 6.15 15.25 6.35 14.45 Q6.45 14.05 7.05 13.95 7.55 13.75 7.95 13.95 L9.1 14.75 10.35 15.7 11.25 15.95 12.45 16.1 13.4 16.2 13.85 16.0 13.8 15.6 13.5 14.85 13.05 13.85 12.7 13.0 11.95 12.15 10.65 11.05 9.7 10.25 Q9.45 9.85 9.65 9.2 9.9 8.55 10.4 8.45 L11.35 8.35 12.65 8.3 13.6 8.25 14.2 7.85 Q14.3 7.5 14.0 7.25 L12.9 6.55 11.7 5.75 10.55 4.75 8.95 3.35 7.85 2.35 6.7 1.4 4.85 -0.1 3.6 -1.15 Q3.2 -1.55 2.95 -1.55 L2.45 -1.3 2.1 -0.7 2.65 -0.05 3.85 0.95 5.65 2.4 6.9 3.5 7.5 4.45 8.25 5.7 8.65 6.6 8.65 7.95 8.4 9.3 7.85 10.25 6.9 10.9 Q6.4 11.1 6.4 11.3 L6.45 11.75 Q6.5 12.85 5.8 13.85 5.0 14.75 3.6 14.8 2.4 14.7 1.7 13.9 0.9 13.0 0.9 11.95 0.95 11.15 1.3 10.6 L2.0 9.6 2.4 8.9 2.45 7.9 2.1 6.6 1.45 5.35 0.4 4.15 -0.75 3.15 Q-1.2 2.8 -1.4 2.9 L-1.95 3.3 Q-2.35 3.65 -2.25 3.9 L-1.95 4.4 -1.0 5.65 -0.75 6.45 -0.9 8.75 -1.1 9.45 -1.6 10.15 -2.65 11.15 -3.75 12.15 -4.25 12.3 -4.8 11.9 -5.1 11.3 -4.85 10.85 -3.95 10.15 -2.9 9.05 -2.65 8.3 -2.55 7.1 Q-2.45 6.5 -2.6 6.15 L-3.25 5.35 -3.55 5.3 -4.0 5.65 -4.55 5.7 -5.25 5.2 -5.55 4.6 -5.15 4.05 -4.85 3.55 Q-4.8 3.35 -5.15 3.05 L-6.2 2.15 -7.7 0.7 -8.65 -0.25 -9.55 -1.1 -10.7 -2.3 -11.5 -3.35 -12.25 -4.2 -13.35 -5.3 -14.1 -6.1 -15.05 -7.1 Q-15.65 -7.7 -15.85 -8.25 -16.0 -8.85 -15.4 -9.55 L-14.4 -10.45 -13.35 -10.5 -12.1 -10.45 Q-11.65 -10.6 -11.75 -10.8 L-12.1 -11.3 -12.55 -12.05 -13.2 -12.95 -13.65 -14.0 -14.1 -15.6 -14.45 -16.7 Q-14.6 -17.15 -14.05 -17.55 -13.45 -17.95 -12.9 -17.8 L-12.05 -17.65 -10.8 -17.5 -9.75 -17.25 -8.4 -16.55 -7.4 -15.75 -7.05 -15.7 -6.95 -16.7 -6.7 -17.7 -6.05 -17.95 -4.9 -18.05 -2.95 -18.1 -1.1 -18.2 0.1 -18.25 0.8 -18.15 1.45 -17.75 1.85 -17.25 1.55 -16.7 Q1.15 -16.4 0.95 -16.4 M3.25 -16.9 L4.4 -18.05 5.1 -18.3 6.05 -18.2 6.75 -17.9 7.05 -17.45 6.75 -16.9 6.2 -16.5 Q6.0 -16.5 5.75 -16.7 5.45 -16.9 5.3 -16.7 L5.0 -16.25 4.1 -15.45 2.8 -14.25 1.85 -13.55 1.65 -13.25 1.85 -12.8 Q2.25 -12.45 1.55 -12.0 1.2 -11.8 1.05 -11.75 L0.55 -12.15 Q0.0 -12.7 0.05 -13.45 -0.05 -14.2 0.35 -14.5 L1.45 -15.35 3.25 -16.9 M14.35 -12.45 L14.65 -12.85 14.5 -13.15 14.35 -13.45 14.8 -13.95 Q15.1 -14.35 15.4 -14.2 15.65 -14.2 16.15 -13.7 16.6 -13.1 16.35 -12.3 L15.75 -11.3 12.5 -7.95 Q12.05 -7.6 11.5 -7.6 10.85 -7.65 10.15 -8.2 9.8 -8.4 9.85 -8.65 9.75 -8.95 10.0 -9.35 L10.4 -9.75 10.85 -9.5 11.3 -9.35 11.65 -9.6 12.5 -10.35 13.6 -11.6 14.35 -12.45 M11.1 -13.55 L11.85 -12.9 Q12.25 -12.65 12.25 -12.25 L11.95 -11.6 Q11.65 -11.25 11.4 -11.3 L10.8 -11.6 9.15 -13.15 Q8.85 -13.35 8.85 -13.55 L9.1 -14.0 9.65 -14.5 10.35 -14.25 11.1 -13.55 M10.9 -18.15 L11.65 -17.75 11.95 -17.25 11.6 -16.85 11.0 -16.45 10.5 -16.65 10.25 -16.7 9.9 -16.45 9.1 -15.7 8.2 -14.7 7.5 -14.45 6.95 -14.85 Q6.55 -15.3 6.7 -15.45 L7.0 -15.95 9.3 -18.2 9.95 -18.35 10.9 -18.15 M13.85 -17.35 Q14.2 -17.8 14.6 -17.8 L15.35 -17.35 15.65 -16.65 15.15 -16.05 13.2 -14.2 Q12.85 -13.85 12.6 -13.85 12.3 -13.85 12.05 -14.15 11.65 -14.5 11.6 -14.75 L11.75 -15.35 12.75 -16.35 13.85 -17.35 M13.95 -19.1 L11.9 -19.15 9.15 -19.3 7.0 -19.4 -6.6 -19.2 -13.3 -19.1 Q-15.4 -19.1 -16.4 -18.3 -17.35 -17.55 -17.3 -16.55 L-17.55 -14.1 -17.75 -11.05 Q-17.8 -9.2 -17.35 -7.75 -16.95 -6.3 -15.25 -4.85 L-12.9 -2.6 -10.35 0.1 -7.7 2.55 Q-6.55 3.45 -6.6 4.25 -6.7 5.1 -7.25 6.15 -7.8 7.15 -8.55 7.35 L-10.1 7.25 -13.4 6.1 -15.7 5.55 Q-16.5 5.45 -16.9 5.95 -17.3 6.5 -17.3 7.55 L-17.45 9.75 -17.6 13.25 -17.45 15.8 -17.3 17.55 Q-17.35 18.1 -16.8 18.6 -16.3 19.1 -15.2 19.15 L-12.75 19.1 -9.2 19.0 -6.1 19.05 -3.3 19.2 0.1 19.35 3.05 19.4 4.75 19.4 6.9 19.3 9.65 19.2 12.15 19.15 13.45 19.15 Q15.4 18.95 16.4 18.2 17.4 17.35 17.4 16.1 L17.45 14.65 17.5 12.4 17.65 10.2 17.7 8.65 17.35 6.45 Q16.9 5.1 15.5 4.2 L12.9 2.3 10.15 0.05 7.8 -1.7 Q5.95 -2.9 5.45 -3.9 5.05 -4.8 6.2 -6.05 7.1 -7.0 7.95 -7.1 L9.4 -6.9 12.25 -5.85 14.95 -5.0 16.6 -4.65 Q17.15 -4.7 17.55 -5.2 17.95 -5.65 17.95 -6.35 17.85 -6.85 17.9 -7.75 L17.85 -9.85 17.85 -11.9 17.65 -14.5 17.4 -16.9 Q17.35 -17.75 16.35 -18.4 15.35 -19.05 13.95 -19.1 M16.6 -20.3 Q17.8 -19.85 18.55 -19.05 19.3 -18.3 19.3 -17.45 L19.35 -15.05 19.55 -12.45 19.55 -9.9 19.5 -7.4 19.55 -5.5 19.25 -4.2 Q18.9 -3.65 18.35 -3.25 L17.4 -2.85 16.05 -3.15 13.7 -3.75 11.25 -4.5 9.4 -5.25 8.25 -5.55 Q7.7 -5.6 7.45 -5.2 7.2 -4.7 7.3 -4.3 7.4 -3.95 8.1 -3.55 L10.1 -2.15 12.8 -0.1 15.45 1.95 17.3 3.2 18.45 4.5 19.3 6.25 19.55 7.8 19.5 9.6 19.4 12.2 19.35 14.75 19.35 16.4 Q19.3 18.3 17.85 19.55 16.35 20.8 13.95 20.85 L11.15 20.8 7.8 20.8 4.75 20.9 3.25 20.95 0.5 20.9 -2.7 20.85 -5.55 20.75 Q-7.4 20.65 -9.35 20.7 -11.4 20.65 -13.1 20.75 L-15.45 20.85 -17.1 20.65 Q-17.95 20.3 -18.6 19.75 -19.2 19.15 -19.15 18.35 L-19.35 15.7 -19.4 12.55 -19.25 9.0 -19.2 5.4 Q-19.2 4.6 -18.45 4.0 -17.8 3.4 -17.1 3.35 L-15.8 3.6 -13.8 4.15 -11.8 4.8 -10.6 5.25 -9.25 5.65 -8.55 5.25 -8.4 4.4 -9.45 3.2 -13.35 -0.4 -16.35 -3.4 Q-17.8 -4.55 -18.45 -5.7 -19.15 -6.8 -19.35 -8.25 L-19.55 -11.9 -19.35 -14.15 -19.15 -16.9 Q-19.2 -17.9 -18.4 -18.8 -17.65 -19.7 -16.55 -20.2 -15.45 -20.75 -14.35 -20.75 L-10.95 -20.75 -4.05 -20.8 7.0 -21.0 9.05 -20.9 11.65 -20.8 14.2 -20.8 Q15.45 -20.8 16.6 -20.3" fill="#ffffff" fill-rule="evenodd" stroke="none"/>
  </g>
</svg>
