<?xml version="1.0" encoding="UTF-8" standalone="no"?>
<svg xmlns:xlink="http://www.w3.org/1999/xlink" height="18.3px" width="237.0px" xmlns="http://www.w3.org/2000/svg">
  <g transform="matrix(1.0, 0.0, 0.0, 1.0, 118.5, 9.15)">
    <path d="M8.9 -9.05 L10.5 -9.05 12.05 -9.05 14.3 -9.05 16.45 -9.0 17.8 -9.0 18.65 -8.75 19.45 -7.85 19.8 -5.85 19.85 -5.3 19.9 -4.8 19.65 -4.5 19.25 -4.4 18.4 -4.4 17.3 -4.4 16.4 -4.4 15.3 -4.4 14.2 -4.3 13.35 -4.3 Q12.9 -4.3 12.65 -3.9 12.4 -3.55 12.4 -2.85 12.4 -2.25 12.7 -1.95 13.0 -1.6 13.5 -1.6 L14.3 -1.6 15.45 -1.55 16.55 -1.55 17.45 -1.55 18.4 -1.65 19.0 -1.65 19.6 -1.45 19.8 -0.9 19.8 -0.35 19.75 0.65 19.55 1.65 18.45 1.85 17.85 1.85 16.9 1.9 16.1 1.9 15.25 1.9 14.25 1.95 13.35 2.0 Q12.8 2.0 12.55 2.4 12.3 2.75 12.35 3.45 12.35 4.2 12.7 4.5 13.05 4.8 13.65 4.75 L14.75 4.7 16.75 4.65 18.2 4.7 19.45 4.6 19.85 4.7 20.05 5.0 19.95 5.6 19.9 6.2 19.8 8.05 19.3 8.9 18.2 9.05 16.35 9.1 14.35 9.15 12.7 9.15 11.2 9.15 8.95 9.1 6.75 9.05 5.3 9.05 Q4.75 9.05 4.3 8.75 L3.65 8.0 3.4 7.1 3.35 6.1 3.35 4.4 3.3 2.5 3.3 0.75 3.25 -0.4 3.3 -1.6 3.35 -3.2 3.45 -4.9 3.45 -6.25 Q3.45 -7.6 3.95 -8.3 4.4 -9.0 5.4 -9.0 L7.0 -9.0 8.9 -9.05 M27.45 -9.0 L29.6 -9.0 31.75 -9.05 33.2 -9.05 34.4 -9.05 36.35 -9.05 38.55 -9.05 40.45 -9.0 41.6 -9.0 Q42.55 -8.95 43.1 -8.35 43.65 -7.75 43.65 -6.5 L43.7 -4.5 43.8 -2.55 43.9 -1.4 43.85 -0.5 43.5 0.2 43.0 0.75 42.35 1.2 41.95 1.6 41.8 2.15 41.8 2.55 41.9 3.05 42.15 3.45 42.5 3.95 43.0 4.9 43.75 6.4 44.4 7.65 44.7 8.55 44.4 9.0 43.5 9.1 42.7 9.05 41.45 9.05 40.5 9.05 39.8 9.05 38.7 9.1 37.7 9.15 37.1 9.15 36.55 9.05 36.2 8.55 35.85 7.7 34.85 6.15 34.45 5.7 33.9 5.55 33.0 5.85 Q32.4 6.1 32.25 6.4 L32.15 6.85 32.25 7.8 32.35 8.45 32.2 8.9 Q32.05 9.1 31.75 9.1 L31.1 9.1 30.0 9.1 28.8 9.05 28.1 9.05 27.2 9.05 25.9 9.1 24.95 9.1 24.2 8.85 Q23.9 8.55 23.9 8.2 L23.9 7.35 23.95 6.3 23.95 5.4 23.95 3.85 23.95 2.05 23.9 0.35 23.9 -0.75 23.95 -2.1 24.0 -4.1 24.05 -6.05 24.1 -7.4 Q24.1 -8.0 24.4 -8.35 24.75 -8.7 25.2 -8.85 L26.0 -9.0 27.45 -9.0 M31.8 -0.7 L31.8 0.1 31.85 0.8 Q31.9 1.15 32.25 1.35 L32.95 1.6 34.35 1.3 35.55 0.8 36.05 0.5 36.25 0.15 36.35 -0.55 36.35 -1.25 Q36.3 -1.7 35.9 -1.85 L35.15 -2.05 34.15 -2.1 33.05 -2.15 32.2 -1.9 31.85 -1.4 31.8 -0.7 M56.55 -9.05 L57.75 -9.0 58.9 -9.0 59.6 -8.95 60.4 -9.0 61.75 -9.0 63.15 -9.0 63.95 -9.0 64.7 -9.0 66.0 -9.0 67.35 -9.0 68.1 -9.0 68.8 -9.0 69.8 -9.0 70.8 -9.05 71.4 -9.05 72.5 -8.8 72.9 -8.05 73.0 -7.25 73.15 -6.05 73.2 -5.2 73.3 -4.0 73.4 -2.1 73.45 -0.1 73.35 0.45 72.95 0.7 72.35 0.6 71.65 0.35 71.1 0.2 70.45 -0.1 69.65 -0.45 68.65 -0.6 68.15 -0.4 67.7 0.1 67.5 0.6 67.6 1.3 67.85 2.3 68.0 3.05 68.1 3.7 68.3 4.75 68.55 5.8 68.65 6.45 68.85 7.75 69.05 8.65 68.75 8.95 68.1 9.05 67.05 9.05 65.5 9.05 63.95 9.05 62.9 9.0 61.85 9.0 60.45 9.05 59.1 9.05 Q58.9 9.05 58.75 8.9 L58.55 8.55 58.65 7.85 58.8 7.0 58.95 6.2 59.2 5.05 59.35 3.95 59.5 3.3 59.65 2.45 59.9 1.35 60.0 0.55 59.8 0.05 59.35 -0.45 58.85 -0.65 57.55 -0.4 56.55 -0.1 55.95 0.15 55.2 0.55 54.65 0.7 54.25 0.55 54.15 0.05 54.25 -2.3 54.4 -4.5 54.5 -5.85 54.55 -6.55 54.65 -7.4 54.7 -8.2 54.9 -8.8 55.8 -9.05 56.55 -9.05 M80.15 -8.95 L82.2 -8.95 83.7 -9.0 84.85 -8.8 85.15 -7.8 85.1 -6.45 85.05 -5.2 Q85.05 -4.7 85.4 -4.4 L86.25 -4.1 87.25 -4.1 88.25 -4.1 Q88.8 -4.15 89.1 -4.55 L89.4 -5.45 89.35 -6.6 89.3 -7.95 Q89.3 -8.55 89.55 -8.8 L90.3 -9.05 91.4 -9.05 93.1 -9.0 94.9 -9.0 96.05 -8.95 96.75 -8.85 97.2 -8.4 97.45 -7.3 97.55 -5.2 97.55 -2.65 97.55 -0.2 97.65 1.6 97.7 2.95 97.65 4.95 97.65 6.85 97.65 7.9 Q97.65 8.6 97.15 8.85 L95.7 9.0 94.45 9.0 92.85 9.0 91.3 9.05 90.15 9.05 89.5 8.9 89.3 8.0 89.3 6.85 89.3 5.65 Q89.3 5.0 88.95 4.65 88.6 4.3 88.1 4.3 L87.2 4.25 86.15 4.25 Q85.65 4.25 85.3 4.55 84.95 4.9 84.9 5.65 L84.95 6.95 85.0 8.15 Q85.0 8.75 84.65 8.95 L83.75 9.05 82.2 9.05 80.15 9.0 78.15 9.05 Q77.55 9.1 77.3 8.7 77.0 8.3 77.0 7.35 L76.9 4.85 76.8 -0.35 76.85 -1.55 76.9 -3.3 76.95 -5.2 76.95 -6.9 Q76.9 -7.85 77.0 -8.3 L77.4 -8.9 78.3 -9.0 80.15 -8.95 M110.5 -9.05 L112.75 -9.05 114.9 -9.0 116.25 -9.0 117.1 -8.75 117.9 -7.85 118.25 -5.85 118.3 -5.3 118.35 -4.8 118.1 -4.5 117.7 -4.4 116.85 -4.4 115.75 -4.4 114.85 -4.4 113.75 -4.4 112.65 -4.3 111.8 -4.3 Q111.35 -4.3 111.1 -3.9 110.85 -3.55 110.85 -2.85 110.85 -2.25 111.15 -1.95 111.45 -1.6 111.95 -1.6 L112.75 -1.6 113.9 -1.55 115.0 -1.55 115.9 -1.55 116.85 -1.65 117.45 -1.65 118.05 -1.45 118.25 -0.9 118.25 -0.35 118.2 0.65 118.0 1.65 116.9 1.85 116.3 1.85 115.35 1.9 114.55 1.9 113.7 1.9 112.7 1.95 111.8 2.0 Q111.25 2.0 111.0 2.4 110.75 2.75 110.8 3.45 110.8 4.2 111.15 4.5 111.5 4.8 112.1 4.75 L113.2 4.7 115.2 4.65 116.65 4.7 117.9 4.6 118.3 4.7 118.5 5.0 118.4 5.6 118.35 6.2 118.25 8.05 Q118.1 8.65 117.75 8.9 L116.65 9.05 114.8 9.1 112.8 9.15 111.15 9.15 109.65 9.15 107.4 9.1 105.2 9.05 103.75 9.05 102.75 8.75 102.1 8.0 101.85 7.1 101.8 6.1 101.8 4.4 101.75 2.5 101.75 0.75 101.7 -0.4 101.75 -1.6 101.8 -3.2 101.9 -4.9 101.9 -6.25 Q101.9 -7.6 102.4 -8.3 102.85 -9.0 103.85 -9.0 L105.45 -9.0 107.35 -9.05 108.95 -9.05 110.5 -9.05 M-114.25 -9.05 L-113.35 -9.05 -112.15 -9.0 -111.1 -9.0 -110.4 -8.75 -110.2 -8.2 -110.25 -7.25 -110.3 -5.8 -110.25 -4.5 -110.25 -3.4 -110.3 -2.1 -110.35 -0.9 -110.35 -0.25 -110.2 0.55 -110.0 0.85 -109.65 1.2 -109.25 1.45 -108.75 1.45 -107.95 1.45 -107.2 1.45 -106.75 1.35 -106.3 1.1 -105.95 0.65 -105.75 0.15 -105.75 -0.6 -105.75 -1.3 -105.8 -2.35 -105.85 -3.45 -105.9 -4.3 -106.0 -5.0 -106.05 -6.1 -106.1 -7.25 -106.15 -8.05 -105.95 -8.75 -105.1 -9.0 -104.05 -9.0 -102.5 -9.0 -100.9 -9.0 -99.75 -9.0 Q-98.9 -9.0 -98.55 -8.55 -98.2 -8.15 -98.05 -6.9 L-98.0 -5.75 -98.0 -3.9 -98.05 -1.9 -98.05 -0.15 -98.1 0.9 -98.05 2.0 -98.0 3.65 -97.95 5.5 -98.0 6.95 Q-98.0 7.75 -98.4 8.2 L-99.4 8.85 -100.5 9.05 -101.65 9.1 -103.55 9.1 -105.7 9.1 -107.6 9.1 -108.7 9.15 -110.1 9.15 -112.35 9.1 -114.7 9.05 -116.35 9.05 Q-117.1 9.0 -117.55 8.55 L-118.25 7.6 -118.4 6.7 -118.4 5.85 -118.4 4.3 -118.45 2.5 -118.5 0.9 -118.45 -0.05 -118.4 -1.35 -118.35 -3.5 -118.3 -5.8 -118.3 -7.4 -118.1 -8.45 -117.55 -8.9 -116.9 -9.0 -116.05 -9.0 -115.1 -9.0 -114.25 -9.05 M-92.35 -9.0 L-90.75 -9.0 -88.5 -9.05 -86.2 -9.0 -85.35 -8.75 -84.65 -8.0 -83.85 -6.65 -83.05 -5.2 Q-82.85 -4.6 -82.5 -4.4 L-81.35 -4.55 Q-80.7 -4.8 -80.55 -5.15 L-80.45 -5.85 -80.5 -6.65 -80.65 -7.6 -80.7 -8.35 -80.45 -8.8 -79.8 -9.0 -78.6 -9.0 -76.95 -8.95 -75.45 -8.95 -74.55 -9.0 -73.7 -8.8 -73.35 -8.2 -73.25 -7.5 -73.3 -6.05 -73.3 -3.95 -73.3 -1.7 -73.3 0.25 -73.25 1.5 -73.2 2.95 -73.2 5.3 -73.25 7.9 -73.55 8.7 Q-73.8 9.0 -74.45 9.05 L-75.55 9.05 -77.35 9.05 -79.15 9.05 -80.2 9.0 -80.75 8.9 -81.55 8.15 -82.55 6.8 -83.3 5.6 Q-83.6 4.95 -84.05 4.9 L-85.2 5.05 Q-85.7 5.25 -85.8 5.5 L-85.9 6.05 -85.85 7.45 -85.75 8.4 -85.95 8.9 -86.6 9.1 -87.6 9.1 -89.35 9.05 -91.25 9.05 -92.5 9.05 Q-93.05 9.05 -93.35 8.65 L-93.65 7.65 -93.75 6.65 -93.8 5.25 -93.8 4.1 -93.7 2.45 -93.7 0.55 -93.7 -1.35 -93.75 -2.85 -93.75 -4.0 -93.75 -5.5 -93.7 -6.9 -93.65 -7.8 -93.35 -8.65 Q-93.05 -9.0 -92.35 -9.0 M-62.25 -9.1 L-60.65 -9.15 -59.8 -9.15 -58.65 -9.15 -56.7 -9.1 -54.45 -9.05 -52.5 -9.05 -51.25 -9.0 Q-50.75 -9.0 -50.3 -8.5 -49.8 -8.05 -49.5 -7.15 -49.2 -6.25 -49.15 -5.05 L-49.15 -4.25 -49.1 -3.75 -49.3 -3.35 -50.2 -2.95 -51.25 -2.65 -52.55 -2.3 -53.35 -2.05 -53.95 -1.8 -54.95 -1.5 -55.85 -1.15 -56.35 -1.0 -56.7 -1.2 -56.95 -1.6 -57.45 -1.8 -58.1 -1.8 -59.15 -1.8 -60.05 -1.75 -60.7 -1.45 -61.05 -0.9 -61.1 -0.15 -61.1 0.8 -61.05 1.5 Q-61.0 2.15 -60.65 2.4 L-59.75 2.65 -59.0 2.65 -58.25 2.65 -57.65 2.65 -56.95 2.45 -56.65 2.15 -56.45 1.75 -55.85 1.75 -55.3 1.85 -54.45 2.0 -53.6 2.15 -52.8 2.3 -51.55 2.55 -50.3 2.75 -49.55 2.9 -49.15 3.1 Q-49.0 3.3 -49.0 3.6 L-49.0 4.05 -49.05 4.75 -49.15 7.15 Q-49.25 8.1 -49.6 8.55 -49.95 9.0 -50.7 9.05 L-51.85 9.1 -53.8 9.1 -56.0 9.15 -58.0 9.15 -59.25 9.15 -60.45 9.15 -62.25 9.15 -64.25 9.1 -66.0 9.1 -67.1 9.05 Q-68.0 8.95 -68.45 8.4 L-68.9 7.1 -68.95 6.1 -68.95 4.45 -69.0 2.55 -69.05 0.9 -69.05 -0.15 -69.05 -1.4 -68.95 -3.35 -68.9 -5.35 -68.85 -6.75 Q-68.8 -7.65 -68.4 -8.35 -67.95 -9.0 -67.05 -9.05 L-65.85 -9.05 -64.1 -9.1 -62.25 -9.1 M-44.35 -8.25 Q-43.95 -8.95 -43.1 -9.0 L-42.05 -9.0 -39.95 -9.05 -37.5 -9.1 -35.55 -9.1 -34.1 -9.1 -31.8 -9.05 -29.3 -9.0 -27.3 -9.0 -26.1 -8.6 -25.45 -7.7 -25.2 -6.75 -25.15 -4.8 -25.1 -2.65 -25.0 -0.75 -24.95 0.45 -24.95 1.35 -25.0 2.9 -25.05 4.7 -25.05 6.2 -25.1 7.2 Q-25.1 8.0 -25.45 8.5 -25.85 9.0 -26.65 9.05 L-28.1 9.05 -30.25 9.05 -32.5 9.05 -34.45 9.1 -35.55 9.1 -37.5 9.15 -39.9 9.1 -42.05 9.05 -43.4 9.0 Q-44.0 8.95 -44.4 8.55 -44.8 8.15 -44.8 7.25 L-44.85 6.35 -44.85 4.65 -44.9 2.65 -44.95 0.9 -44.95 0.05 -44.95 -0.75 -44.9 -2.15 -44.85 -3.9 -44.8 -5.5 -44.75 -6.5 -44.35 -8.25 M-36.65 -1.4 L-36.95 -0.9 -37.0 0.05 -36.95 1.05 -36.9 1.75 -36.6 2.35 -35.9 2.65 -34.4 2.6 -33.3 2.55 -32.75 2.35 -32.4 1.85 -32.35 1.0 -32.35 0.3 -32.35 -0.25 -32.4 -0.75 -32.65 -1.25 -33.2 -1.65 -33.9 -1.7 -34.9 -1.75 -36.05 -1.65 -36.65 -1.4 M-20.4 -8.95 L-19.1 -9.05 -17.4 -9.05 -15.95 -9.05 -14.6 -9.0 -13.6 -8.95 -12.95 -8.8 Q-12.8 -8.65 -12.8 -8.3 L-12.75 -7.4 -12.55 -6.1 -12.4 -3.85 -12.25 -2.65 -12.0 -0.95 -11.9 0.45 -11.55 1.1 -10.4 1.2 -9.25 1.0 -8.85 0.45 -8.85 -0.4 -8.75 -1.6 -8.7 -2.7 -8.65 -3.5 -8.45 -5.7 -8.35 -7.15 -8.35 -8.2 -8.1 -8.75 -7.6 -8.95 -6.95 -9.0 -5.85 -9.0 -4.7 -9.0 -3.95 -9.0 -2.95 -9.0 -1.7 -8.95 -0.8 -8.95 -0.25 -8.85 -0.05 -8.45 -0.15 -7.65 -0.4 -6.6 Q-0.6 -5.25 -0.95 -4.0 L-1.6 -1.5 -2.35 2.45 -2.9 4.9 -3.3 6.4 -3.7 7.65 -3.9 8.3 Q-4.0 8.65 -4.4 8.85 L-5.35 9.05 -6.5 9.05 -8.25 9.1 -10.05 9.1 -11.4 9.15 -12.6 9.15 -14.25 9.1 -16.6 9.05 -17.3 8.8 -17.65 8.3 -17.9 7.25 -18.2 6.2 -18.7 4.05 -19.65 0.3 -20.2 -2.25 -20.7 -4.8 -21.05 -6.6 -21.35 -7.65 -21.5 -8.45 -21.25 -8.8 -20.4 -8.95" fill="#959360" fill-rule="evenodd" stroke="none"/>
  </g>
</svg>
