<?xml version="1.0" encoding="UTF-8" standalone="no"?>
<svg xmlns:xlink="http://www.w3.org/1999/xlink" height="22.7px" width="22.7px" xmlns="http://www.w3.org/2000/svg">
  <g transform="matrix(1.0, 0.0, 0.0, 1.0, 11.35, 11.35)">
    <path d="M8.0 -8.05 Q11.35 -4.7 11.35 0.0 11.35 4.7 8.0 8.0 4.7 11.35 0.0 11.35 -4.7 11.35 -8.05 8.0 -11.35 4.7 -11.35 0.0 -11.35 -4.7 -8.05 -8.05 -4.7 -11.35 0.0 -11.35 4.7 -11.35 8.0 -8.05 M0.0 -9.35 Q-3.9 -9.35 -6.65 -6.65 -9.35 -3.9 -9.35 0.0 -9.35 3.9 -6.65 6.6 -3.9 9.35 0.0 9.35 3.9 9.35 6.6 6.6 9.35 3.9 9.35 0.0 9.35 -3.9 6.6 -6.65 3.9 -9.35 0.0 -9.35" fill="#000000" fill-rule="evenodd" stroke="none"/>
    <path d="M6.5 -6.5 Q3.8 -9.2 0.0 -9.2 -3.8 -9.2 -6.5 -6.5 -9.2 -3.85 -9.2 0.0 -9.2 3.8 -6.5 6.5 -3.8 9.2 0.0 9.2 3.8 9.2 6.5 6.5 9.2 3.8 9.2 0.0 9.2 -3.85 6.5 -6.5 M6.95 -7.0 Q9.85 -4.1 9.85 0.0 9.85 4.1 6.95 6.95 4.1 9.85 0.0 9.85 -4.1 9.85 -7.0 6.95 -9.85 4.1 -9.85 0.0 -9.85 -4.1 -7.0 -7.0 -4.1 -9.85 0.0 -9.85 4.1 -9.85 6.95 -7.0" fill="url(#gradient0)" fill-rule="evenodd" stroke="none"/>
    <path d="M6.5 -6.5 Q9.2 -3.85 9.2 0.0 9.2 3.8 6.5 6.5 3.8 9.2 0.0 9.2 -3.8 9.2 -6.5 6.5 -9.2 3.8 -9.2 0.0 -9.2 -3.85 -6.5 -6.5 -3.8 -9.2 0.0 -9.2 3.8 -9.2 6.5 -6.5 M6.15 -6.15 Q3.6 -8.7 0.0 -8.7 -3.6 -8.7 -6.15 -6.15 -8.7 -3.65 -8.7 0.0 -8.7 3.6 -6.15 6.15 -3.6 8.7 0.0 8.7 3.6 8.7 6.15 6.15 8.7 3.6 8.7 0.0 8.7 -3.65 6.15 -6.15" fill="#cccccc" fill-rule="evenodd" stroke="none"/>
    <path d="M6.15 -6.15 Q8.7 -3.65 8.7 0.0 8.7 3.6 6.15 6.15 3.6 8.7 0.0 8.7 -3.6 8.7 -6.15 6.15 -8.7 3.6 -8.7 0.0 -8.7 -3.65 -6.15 -6.15 -3.6 -8.7 0.0 -8.7 3.6 -8.7 6.15 -6.15" fill="url(#gradient1)" fill-rule="evenodd" stroke="none"/>
    <path d="M1.05 -5.9 Q1.55 -5.6 1.55 -5.0 1.55 -4.45 1.05 -4.05 0.55 -3.7 -0.25 -3.7 -0.95 -3.7 -1.45 -4.05 -2.05 -4.4 -2.0 -5.0 L-1.75 -5.65 -1.1 -6.1 -0.25 -6.2 1.05 -5.9 M0.45 -2.4 L1.1 -2.45 1.35 -2.3 1.4 -2.05 1.4 -1.45 1.35 -0.2 1.35 0.55 1.35 1.5 1.35 2.35 1.35 2.9 1.35 3.65 1.35 4.4 1.4 4.9 1.75 5.2 2.6 5.45 2.9 5.55 2.95 5.75 2.95 6.05 2.9 6.2 2.65 6.25 2.25 6.25 1.45 6.2 -0.05 6.2 -1.45 6.2 -2.2 6.25 -2.65 6.25 -2.9 6.15 -2.9 6.05 -2.9 5.75 -2.8 5.5 -2.15 5.35 -1.5 5.1 -1.3 4.75 -1.3 3.95 -1.3 3.0 -1.3 2.35 -1.3 0.95 -1.3 -0.55 -1.6 -1.15 -2.2 -1.3 -2.75 -1.35 -2.9 -1.6 -2.9 -1.9 -2.8 -2.05 -2.45 -2.2 -1.7 -2.25 -0.5 -2.35 0.45 -2.4" fill="#333333" fill-rule="evenodd" stroke="none"/>
  </g>
  <defs>
    <radialGradient cx="0" cy="0" gradientTransform="matrix(0.0152, 0.0, 0.0, 0.0152, -0.2, -1.75)" gradientUnits="userSpaceOnUse" id="gradient0" r="819.2" spreadMethod="pad">
      <stop offset="0.6666666666666666" stop-color="#999999"/>
      <stop offset="1.0" stop-color="#666666"/>
    </radialGradient>
    <radialGradient cx="0" cy="0" gradientTransform="matrix(0.0124, -2.0E-4, 2.0E-4, 0.012, 0.1, -3.1)" gradientUnits="userSpaceOnUse" id="gradient1" r="819.2" spreadMethod="pad">
      <stop offset="0.3686274509803922" stop-color="#999999"/>
      <stop offset="0.9921568627450981" stop-color="#cccccc"/>
    </radialGradient>
  </defs>
</svg>
