<?xml version="1.0" encoding="UTF-8" standalone="no"?>
<svg xmlns:xlink="http://www.w3.org/1999/xlink" height="25.35px" width="25.35px" xmlns="http://www.w3.org/2000/svg">
  <g transform="matrix(1.0, 0.0, 0.0, 1.0, 12.65, 12.65)">
    <path d="M8.95 -8.95 Q12.65 -5.25 12.7 0.05 12.65 5.3 8.95 9.0 5.25 12.7 0.0 12.7 -5.25 12.7 -9.0 9.0 -12.65 5.3 -12.65 0.05 -12.65 -5.25 -9.0 -8.95 -5.25 -12.65 0.0 -12.65 5.25 -12.65 8.95 -8.95 M0.0 -10.85 Q-4.5 -10.85 -7.7 -7.7 -10.85 -4.5 -10.85 0.0 -10.85 4.5 -7.7 7.65 -4.5 10.85 0.0 10.85 4.5 10.85 7.65 7.65 10.85 4.5 10.85 0.0 10.85 -4.5 7.65 -7.7 4.5 -10.85 0.0 -10.85" fill="#ff0000" fill-rule="evenodd" stroke="none"/>
    <path d="M8.0 -8.05 Q11.35 -4.7 11.35 0.0 11.35 4.7 8.0 8.0 4.7 11.35 0.0 11.35 -4.7 11.35 -8.05 8.0 -11.35 4.7 -11.35 0.0 -11.35 -4.7 -8.05 -8.05 -4.7 -11.35 0.0 -11.35 4.7 -11.35 8.0 -8.05 M6.95 -7.0 Q4.1 -9.85 0.0 -9.85 -4.1 -9.85 -7.0 -7.0 -9.85 -4.1 -9.85 0.0 -9.85 4.1 -7.0 6.95 -4.1 9.85 0.0 9.85 4.1 9.85 6.95 6.95 9.85 4.1 9.85 0.0 9.85 -4.1 6.95 -7.0" fill="#000000" fill-rule="evenodd" stroke="none"/>
    <path d="M6.5 -6.5 Q3.8 -9.2 0.0 -9.2 -3.8 -9.2 -6.5 -6.5 -9.2 -3.85 -9.2 0.0 -9.2 3.8 -6.5 6.5 -3.8 9.2 0.0 9.2 3.8 9.2 6.5 6.5 9.2 3.8 9.2 0.0 9.2 -3.85 6.5 -6.5 M6.95 -7.0 Q9.85 -4.1 9.85 0.0 9.85 4.1 6.95 6.95 4.1 9.85 0.0 9.85 -4.1 9.85 -7.0 6.95 -9.85 4.1 -9.85 0.0 -9.85 -4.1 -7.0 -7.0 -4.1 -9.85 0.0 -9.85 4.1 -9.85 6.95 -7.0" fill="url(#gradient0)" fill-rule="evenodd" stroke="none"/>
    <path d="M6.5 -6.5 Q9.2 -3.85 9.2 0.0 9.2 3.8 6.5 6.5 3.8 9.2 0.0 9.2 -3.8 9.2 -6.5 6.5 -9.2 3.8 -9.2 0.0 -9.2 -3.85 -6.5 -6.5 -3.8 -9.2 0.0 -9.2 3.8 -9.2 6.5 -6.5 M6.15 -6.15 Q3.6 -8.7 0.0 -8.7 -3.6 -8.7 -6.15 -6.15 -8.7 -3.65 -8.7 0.0 -8.7 3.6 -6.15 6.15 -3.6 8.7 0.0 8.7 3.6 8.7 6.15 6.15 8.7 3.6 8.7 0.0 8.7 -3.65 6.15 -6.15" fill="#cccccc" fill-rule="evenodd" stroke="none"/>
    <path d="M6.15 -6.15 Q8.7 -3.65 8.7 0.0 8.7 3.6 6.15 6.15 3.6 8.7 0.0 8.7 -3.6 8.7 -6.15 6.15 -8.7 3.6 -8.7 0.0 -8.7 -3.65 -6.15 -6.15 -3.6 -8.7 0.0 -8.7 3.6 -8.7 6.15 -6.15" fill="url(#gradient1)" fill-rule="evenodd" stroke="none"/>
  </g>
  <defs>
    <radialGradient cx="0" cy="0" gradientTransform="matrix(0.0152, 0.0, 0.0, 0.0152, -0.2, -1.75)" gradientUnits="userSpaceOnUse" id="gradient0" r="819.2" spreadMethod="pad">
      <stop offset="0.6666666666666666" stop-color="#999999"/>
      <stop offset="1.0" stop-color="#666666"/>
    </radialGradient>
    <radialGradient cx="0" cy="0" gradientTransform="matrix(0.0124, -2.0E-4, 2.0E-4, 0.012, 0.1, -3.1)" gradientUnits="userSpaceOnUse" id="gradient1" r="819.2" spreadMethod="pad">
      <stop offset="0.3686274509803922" stop-color="#999999"/>
      <stop offset="0.9921568627450981" stop-color="#cccccc"/>
    </radialGradient>
  </defs>
</svg>
