<?xml version="1.0" encoding="UTF-8" standalone="no"?>
<svg xmlns:xlink="http://www.w3.org/1999/xlink" height="12.45px" width="5.85px" xmlns="http://www.w3.org/2000/svg">
  <g transform="matrix(1.0, 0.0, 0.0, 1.0, 2.9, 6.2)">
    <path d="M1.4 -1.5 L1.35 -0.25 1.35 0.6 1.35 1.5 1.35 2.4 1.35 2.9 1.35 3.65 1.35 4.4 1.4 4.9 1.75 5.2 2.6 5.45 2.9 5.55 2.95 5.8 2.95 6.05 2.9 6.2 2.65 6.25 2.25 6.25 1.45 6.2 0.0 6.2 -1.45 6.2 -2.2 6.25 -2.65 6.25 -2.9 6.15 -2.9 6.05 -2.9 5.8 -2.8 5.5 -2.15 5.35 -1.5 5.15 -1.3 4.75 -1.3 3.95 -1.3 3.0 -1.3 2.4 -1.3 0.95 -1.3 -0.55 -1.6 -1.15 -2.2 -1.3 -2.75 -1.35 -2.9 -1.6 -2.9 -1.9 -2.8 -2.05 -2.45 -2.15 -1.65 -2.25 -0.5 -2.35 0.45 -2.4 1.1 -2.45 1.35 -2.3 1.4 -2.05 1.4 -1.5 M1.55 -5.0 Q1.5 -4.45 1.05 -4.05 0.55 -3.7 -0.25 -3.7 -0.95 -3.7 -1.45 -4.05 -2.05 -4.4 -2.0 -5.0 L-1.75 -5.65 -1.1 -6.05 -0.25 -6.2 1.05 -5.9 Q1.5 -5.6 1.55 -5.0" fill="#ffffff" fill-rule="evenodd" stroke="none"/>
  </g>
</svg>
