<?xml version="1.0" encoding="UTF-8" standalone="no"?>
<svg xmlns:xlink="http://www.w3.org/1999/xlink" height="22.7px" width="22.7px" xmlns="http://www.w3.org/2000/svg">
  <g transform="matrix(1.0, 0.0, 0.0, 1.0, 11.35, 11.35)">
    <path d="M8.0 -8.05 Q11.35 -4.7 11.35 0.0 11.35 4.7 8.0 8.0 4.7 11.35 0.0 11.35 -4.7 11.35 -8.05 8.0 -11.35 4.7 -11.35 0.0 -11.35 -4.7 -8.05 -8.05 -4.7 -11.35 0.0 -11.35 4.7 -11.35 8.0 -8.05 M0.0 -9.35 Q-3.9 -9.35 -6.65 -6.65 -9.35 -3.9 -9.35 0.0 -9.35 3.9 -6.65 6.6 -3.9 9.35 0.0 9.35 3.9 9.35 6.6 6.6 9.35 3.9 9.35 0.0 9.35 -3.9 6.6 -6.65 3.9 -9.35 0.0 -9.35" fill="#000000" fill-rule="evenodd" stroke="none"/>
    <path d="M6.5 -6.5 Q3.8 -9.2 0.0 -9.2 -3.8 -9.2 -6.5 -6.5 -9.2 -3.85 -9.2 0.0 -9.2 3.8 -6.5 6.5 -3.8 9.2 0.0 9.2 3.8 9.2 6.5 6.5 9.2 3.8 9.2 0.0 9.2 -3.85 6.5 -6.5 M6.95 -7.0 Q9.85 -4.1 9.85 0.0 9.85 4.1 6.95 6.95 4.1 9.85 0.0 9.85 -4.1 9.85 -7.0 6.95 -9.85 4.1 -9.85 0.0 -9.85 -4.1 -7.0 -7.0 -4.1 -9.85 0.0 -9.85 4.1 -9.85 6.95 -7.0" fill="url(#gradient0)" fill-rule="evenodd" stroke="none"/>
    <path d="M6.5 -6.5 Q9.2 -3.85 9.2 0.0 9.2 3.8 6.5 6.5 3.8 9.2 0.0 9.2 -3.8 9.2 -6.5 6.5 -9.2 3.8 -9.2 0.0 -9.2 -3.85 -6.5 -6.5 -3.8 -9.2 0.0 -9.2 3.8 -9.2 6.5 -6.5 M6.15 -6.15 Q3.6 -8.7 0.0 -8.7 -3.6 -8.7 -6.15 -6.15 -8.7 -3.65 -8.7 0.0 -8.7 3.6 -6.15 6.15 -3.6 8.7 0.0 8.7 3.6 8.7 6.15 6.15 8.7 3.6 8.7 0.0 8.7 -3.65 6.15 -6.15" fill="#cccccc" fill-rule="evenodd" stroke="none"/>
    <path d="M6.15 -6.15 Q8.7 -3.65 8.7 0.0 8.7 3.6 6.15 6.15 3.6 8.7 0.0 8.7 -3.6 8.7 -6.15 6.15 -8.7 3.6 -8.7 0.0 -8.7 -3.65 -6.15 -6.15 -3.6 -8.7 0.0 -8.7 3.6 -8.7 6.15 -6.15" fill="url(#gradient1)" fill-rule="evenodd" stroke="none"/>
    <path d="M1.05 3.4 L1.05 5.6 -1.35 5.6 -1.35 3.4 1.05 3.4 M3.6 -4.45 L4.3 -3.4 4.55 -2.25 Q4.55 -1.4 4.15 -0.9 L3.25 0.1 2.2 0.8 1.3 1.5 Q0.9 1.85 0.9 2.4 L-1.2 2.4 -1.2 2.15 -0.9 0.9 0.0 0.1 1.05 -0.65 1.85 -1.35 Q2.25 -1.8 2.25 -2.35 2.25 -3.0 1.85 -3.3 L0.95 -3.85 -0.05 -3.95 -1.1 -3.75 -2.0 -3.1 -2.35 -1.85 -4.55 -1.85 Q-4.5 -3.65 -3.35 -4.6 -2.15 -5.55 0.0 -5.55 L2.2 -5.3 Q3.1 -5.0 3.6 -4.45" fill="#990000" fill-rule="evenodd" stroke="none"/>
  </g>
  <defs>
    <radialGradient cx="0" cy="0" gradientTransform="matrix(0.0152, 0.0, 0.0, 0.0152, -0.2, -1.75)" gradientUnits="userSpaceOnUse" id="gradient0" r="819.2" spreadMethod="pad">
      <stop offset="0.6666666666666666" stop-color="#999999"/>
      <stop offset="1.0" stop-color="#666666"/>
    </radialGradient>
    <radialGradient cx="0" cy="0" gradientTransform="matrix(0.0124, -2.0E-4, 2.0E-4, 0.012, 0.1, -3.1)" gradientUnits="userSpaceOnUse" id="gradient1" r="819.2" spreadMethod="pad">
      <stop offset="0.3686274509803922" stop-color="#999999"/>
      <stop offset="0.9921568627450981" stop-color="#cccccc"/>
    </radialGradient>
  </defs>
</svg>
