<?xml version="1.0" encoding="UTF-8" standalone="no"?>
<svg xmlns:xlink="http://www.w3.org/1999/xlink" height="11.15px" width="9.1px" xmlns="http://www.w3.org/2000/svg">
  <g transform="matrix(1.0, 0.0, 0.0, 1.0, 4.55, 5.55)">
    <path d="M1.05 3.4 L1.05 5.6 -1.35 5.6 -1.35 3.4 1.05 3.4 M3.6 -4.45 L4.3 -3.35 4.55 -2.2 Q4.55 -1.4 4.2 -0.85 L3.3 0.1 2.2 0.8 1.3 1.5 Q0.9 1.85 0.9 2.4 L-1.2 2.4 -1.2 2.15 -0.9 0.95 Q-0.5 0.4 0.0 0.1 L1.05 -0.6 1.9 -1.3 Q2.25 -1.75 2.25 -2.35 2.25 -3.0 1.9 -3.3 1.5 -3.7 1.0 -3.8 L-0.05 -3.95 -1.05 -3.75 -1.95 -3.1 -2.35 -1.85 -4.55 -1.85 Q-4.5 -3.65 -3.3 -4.6 -2.2 -5.55 0.0 -5.55 L2.2 -5.3 Q3.1 -5.0 3.6 -4.45" fill="#ffffff" fill-rule="evenodd" stroke="none"/>
  </g>
</svg>
