<?xml version="1.0" encoding="UTF-8" standalone="no"?>
<svg xmlns:xlink="http://www.w3.org/1999/xlink" height="9.0px" width="9.0px" xmlns="http://www.w3.org/2000/svg">
  <g transform="matrix(1.0, 0.0, 0.0, 1.0, 4.5, 4.5)">
    <path d="M2.8 -2.85 Q4.0 -1.65 4.0 0.0 4.0 1.65 2.8 2.8 1.65 4.0 0.0 4.0 -1.65 4.0 -2.85 2.8 -4.0 1.65 -4.0 0.0 -4.0 -1.65 -2.85 -2.85 -1.65 -4.0 0.0 -4.0 1.65 -4.0 2.8 -2.85" fill="#000000" fill-rule="evenodd" stroke="none"/>
    <path d="M2.8 -2.85 Q4.0 -1.65 4.0 0.0 4.0 1.65 2.8 2.8 1.65 4.0 0.0 4.0 -1.65 4.0 -2.85 2.8 -4.0 1.65 -4.0 0.0 -4.0 -1.65 -2.85 -2.85 -1.65 -4.0 0.0 -4.0 1.65 -4.0 2.8 -2.85 Z" fill="none" stroke="#000000" stroke-linecap="round" stroke-linejoin="round" stroke-width="1.0"/>
  </g>
</svg>
