<?xml version="1.0" encoding="UTF-8" standalone="no"?>
<svg xmlns:xlink="http://www.w3.org/1999/xlink" height="40.0px" width="200.0px" xmlns="http://www.w3.org/2000/svg">
  <g transform="matrix(1.0, 0.0, 0.0, 1.0, 100.1, 20.0)">
    <path d="M-90.1 16.0 L89.9 16.0 89.9 -16.0 -90.1 -16.0 -90.1 16.0 M99.9 20.0 L-100.1 20.0 -100.1 -20.0 99.9 -20.0 99.9 20.0" fill="url(#gradient0)" fill-rule="evenodd" stroke="none"/>
    <path d="M89.9 16.0 L-90.1 16.0 -90.1 -16.0 89.9 -16.0 89.9 16.0" fill="url(#gradient1)" fill-rule="evenodd" stroke="none"/>
    <path d="M89.9 16.0 L-90.1 16.0" fill="none" stroke="#ffffff" stroke-linecap="round" stroke-linejoin="round" stroke-width="0.05"/>
    <path d="M89.9 -16.0 L89.9 16.0" fill="none" stroke="#666666" stroke-linecap="round" stroke-linejoin="round" stroke-width="0.05"/>
    <path d="M-90.1 -16.0 L89.9 -16.0 M-100.1 20.0 L-100.1 -20.0 M99.9 -20.0 L99.9 20.0" fill="none" stroke="#333333" stroke-linecap="round" stroke-linejoin="round" stroke-width="0.05"/>
    <path d="M-90.1 16.0 L-90.1 -16.0" fill="none" stroke="#cccccc" stroke-linecap="round" stroke-linejoin="round" stroke-width="0.05"/>
    <path d="M99.9 20.0 L-100.1 20.0" fill="none" stroke="#000000" stroke-linecap="round" stroke-linejoin="round" stroke-width="0.05"/>
    <path d="M-100.1 -20.0 L99.9 -20.0" fill="none" stroke="#999999" stroke-linecap="round" stroke-linejoin="round" stroke-width="0.05"/>
  </g>
  <defs>
    <linearGradient gradientTransform="matrix(0.0, 0.0244, -0.1221, 0.0, -0.1, 0.0)" gradientUnits="userSpaceOnUse" id="gradient0" spreadMethod="pad" x1="-819.2" x2="819.2">
      <stop offset="0.0" stop-color="#ffffff"/>
      <stop offset="0.6901960784313725" stop-color="#2b2b2b"/>
      <stop offset="1.0" stop-color="#5b2d44"/>
    </linearGradient>
    <linearGradient gradientTransform="matrix(0.0, -0.0195, 0.1099, 0.0, -0.1, 0.0)" gradientUnits="userSpaceOnUse" id="gradient1" spreadMethod="pad" x1="-819.2" x2="819.2">
      <stop offset="0.0" stop-color="#000033"/>
      <stop offset="1.0" stop-color="#482b59"/>
    </linearGradient>
  </defs>
</svg>
