<?xml version="1.0" encoding="UTF-8" standalone="no"?>
<svg xmlns:xlink="http://www.w3.org/1999/xlink" height="11.35px" width="11.35px" xmlns="http://www.w3.org/2000/svg">
  <g transform="matrix(1.0, 0.0, 0.0, 1.0, 5.7, 5.65)">
    <path d="M5.15 5.2 L-5.2 5.2 -5.2 -5.15 5.15 -5.15 5.15 5.2 M-3.7 -3.65 L0.0 0.2 -2.7 3.1 0.0 0.2 -3.7 -3.65 M2.05 2.35 L0.0 0.2 2.8 -2.9 0.0 0.2 2.05 2.35" fill="#ffffff" fill-rule="evenodd" stroke="none"/>
    <path d="M5.15 5.2 L-5.2 5.2 -5.2 -5.15 5.15 -5.15 5.15 5.2 M2.8 -2.9 L0.0 0.2 2.05 2.35 M-2.7 3.1 L0.0 0.2 -3.7 -3.65" fill="none" stroke="#000000" stroke-linecap="round" stroke-linejoin="round" stroke-width="1.0"/>
  </g>
</svg>
