<?xml version="1.0" encoding="UTF-8" standalone="no"?>
<svg xmlns:xlink="http://www.w3.org/1999/xlink" height="364.95px" width="385.45px" xmlns="http://www.w3.org/2000/svg">
  <g transform="matrix(1.0, 0.0, 0.0, 1.0, 200.0, 178.5)">
    <path d="M-114.5 -178.5 L185.45 -178.5 185.45 186.45 -194.5 186.45 -194.5 -163.5 -114.5 -163.5 -114.5 -178.5" fill="#000000" fill-opacity="0.2509804" fill-rule="evenodd" stroke="none"/>
    <path d="M167.5 -162.5 L167.5 157.5 -199.5 157.5 -199.5 -162.5 167.5 -162.5" fill="#99cccc" fill-rule="evenodd" stroke="none"/>
    <path d="M167.5 -162.5 L167.5 157.5 -199.5 157.5" fill="none" stroke="#009999" stroke-linecap="round" stroke-linejoin="round" stroke-width="1.0"/>
    <path d="M-199.5 157.5 L-199.5 -162.5 167.5 -162.5" fill="none" stroke="#ffffff" stroke-linecap="round" stroke-linejoin="round" stroke-width="1.0"/>
    <path d="M164.5 -159.5 L164.5 154.4 -196.5 154.4 -196.5 -159.5 164.5 -159.5" fill="#cae6e6" fill-rule="evenodd" stroke="none"/>
    <path d="M-196.5 154.4 L-196.5 -159.5 164.5 -159.5" fill="none" stroke="#009999" stroke-linecap="round" stroke-linejoin="round" stroke-width="1.0"/>
    <path d="M164.5 -159.5 L164.5 154.4 -196.5 154.4" fill="none" stroke="#ffffff" stroke-linecap="round" stroke-linejoin="round" stroke-width="1.0"/>
  </g>
</svg>
