<?xml version="1.0" encoding="UTF-8" standalone="no"?>
<svg xmlns:xlink="http://www.w3.org/1999/xlink" height="27.0px" width="13.0px" xmlns="http://www.w3.org/2000/svg">
  <g transform="matrix(1.0, 0.0, 0.0, 1.0, 6.5, 13.5)">
    <path d="M6.0 -5.0 L6.0 -3.0 6.0 -1.0 6.0 1.0 6.0 3.0 6.0 5.0 6.0 7.0 6.0 9.0 6.0 13.0 -6.0 13.0 -6.0 9.0 -6.0 7.0 -6.0 5.0 -6.0 3.0 -6.0 1.0 -6.0 -1.0 -6.0 -3.0 -6.0 -5.0 -6.0 -7.0 -6.0 -9.0 -6.0 -13.0 6.0 -13.0 6.0 -9.0 6.0 -7.0 6.0 -5.0 -6.0 -5.0 6.0 -5.0 M6.0 -9.0 L-6.0 -9.0 6.0 -9.0 M6.0 9.0 L-6.0 9.0 6.0 9.0 M6.0 7.0 L-6.0 7.0 6.0 7.0 M6.0 5.0 L-6.0 5.0 6.0 5.0 M6.0 -3.0 L-6.0 -3.0 6.0 -3.0 M6.0 -7.0 L-6.0 -7.0 6.0 -7.0 M6.0 3.0 L-6.0 3.0 6.0 3.0 M6.0 1.0 L-6.0 1.0 6.0 1.0 M6.0 -1.0 L-6.0 -1.0 6.0 -1.0" fill="#99cccc" fill-rule="evenodd" stroke="none"/>
    <path d="M6.0 -3.0 L6.0 -1.0 -6.0 -1.0 M6.0 1.0 L6.0 3.0 -6.0 3.0 M6.0 5.0 L6.0 7.0 -6.0 7.0 M6.0 9.0 L6.0 13.0 -6.0 13.0 M6.0 -13.0 L6.0 -9.0 -6.0 -9.0 M6.0 -7.0 L6.0 -5.0 -6.0 -5.0" fill="none" stroke="#009999" stroke-linecap="round" stroke-linejoin="round" stroke-width="1.0"/>
    <path d="M-6.0 13.0 L-6.0 9.0 6.0 9.0 M-6.0 7.0 L-6.0 5.0 6.0 5.0 M-6.0 3.0 L-6.0 1.0 6.0 1.0 M-6.0 -1.0 L-6.0 -3.0 6.0 -3.0 M-6.0 -5.0 L-6.0 -7.0 6.0 -7.0 M-6.0 -9.0 L-6.0 -13.0 6.0 -13.0" fill="none" stroke="#ffffff" stroke-linecap="round" stroke-linejoin="round" stroke-width="1.0"/>
  </g>
</svg>
