<?xml version="1.0" encoding="UTF-8" standalone="no"?>
<svg xmlns:xlink="http://www.w3.org/1999/xlink" height="18.5px" width="18.5px" xmlns="http://www.w3.org/2000/svg">
  <g transform="matrix(1.0, 0.0, 0.0, 1.0, 9.25, 9.25)">
    <path d="M6.15 -6.2 Q8.75 -3.6 8.75 0.0 8.75 3.6 6.15 6.15 3.6 8.75 0.0 8.75 -3.6 8.75 -6.2 6.15 -8.75 3.6 -8.75 0.0 -8.75 -3.6 -6.2 -6.2 -3.6 -8.75 0.0 -8.75 3.6 -8.75 6.15 -6.2" fill="#0066cc" fill-rule="evenodd" stroke="none"/>
    <path d="M6.15 -6.2 Q8.75 -3.6 8.75 0.0 8.75 3.6 6.15 6.15 3.6 8.75 0.0 8.75 -3.6 8.75 -6.2 6.15 -8.75 3.6 -8.75 0.0 -8.75 -3.6 -6.2 -6.2 -3.6 -8.75 0.0 -8.75 3.6 -8.75 6.15 -6.2 Z" fill="none" stroke="#000000" stroke-linecap="round" stroke-linejoin="round" stroke-width="1.0"/>
  </g>
</svg>
