<?xml version="1.0" encoding="UTF-8" standalone="no"?>
<svg xmlns:xlink="http://www.w3.org/1999/xlink" height="21.9px" width="101.7px" xmlns="http://www.w3.org/2000/svg">
  <g transform="matrix(1.0, 0.0, 0.0, 1.0, -34.4, 4.3)">
    <path d="M37.4 -3.05 L37.4 -1.75 38.4 -1.75 38.4 -0.45 39.4 -0.45 39.4 -1.75 40.4 -1.75 40.4 -3.05 41.4 -3.05 41.4 -4.3 55.4 -4.3 55.4 -3.05 56.4 -3.05 56.4 -4.3 57.4 -4.3 57.4 -3.05 60.4 -3.05 60.4 -4.3 61.45 -4.3 61.45 -3.05 62.45 -3.05 62.45 -4.3 130.1 -4.3 130.1 -3.05 131.1 -3.05 131.1 -1.75 132.1 -1.75 132.1 -0.45 133.1 -0.45 133.1 -1.75 135.1 -1.75 135.1 0.8 136.1 0.8 136.1 7.3 135.1 7.3 135.1 8.55 136.1 8.55 136.1 9.85 135.1 9.85 135.1 11.15 134.1 11.15 134.1 13.75 133.1 13.75 133.1 15.05 131.1 15.05 131.1 16.3 130.1 16.3 130.1 15.05 129.1 15.05 129.1 16.3 128.1 16.3 128.1 17.6 126.1 17.6 126.1 16.3 125.1 16.3 125.1 17.6 97.05 17.6 97.05 16.3 95.05 16.3 95.05 17.6 90.05 17.6 90.05 16.3 83.5 16.3 83.5 17.6 57.4 17.6 57.4 16.3 56.4 16.3 56.4 17.6 54.4 17.6 54.4 16.3 53.4 16.3 53.4 15.05 52.4 15.05 52.4 13.75 50.4 13.75 50.4 15.05 49.4 15.05 49.4 16.3 48.4 16.3 48.4 17.6 44.4 17.6 44.4 16.3 43.4 16.3 43.4 17.6 38.4 17.6 38.4 16.3 36.4 16.3 36.4 15.05 35.4 15.05 35.4 12.4 34.4 12.4 34.4 0.8 35.4 0.8 35.4 -1.75 36.4 -1.75 36.4 -3.05 37.4 -3.05 M108.1 -3.05 L106.05 -3.05 106.05 -1.75 108.1 -1.75 108.1 -3.05 M100.05 -3.05 L100.05 -1.75 105.05 -1.75 105.05 -3.05 100.05 -3.05 M97.9 -3.05 L97.9 -1.75 99.05 -1.75 99.05 -3.05 97.9 -3.05" fill="#284a6c" fill-rule="evenodd" stroke="none"/>
  </g>
</svg>
