<?xml version="1.0" encoding="UTF-8" standalone="no"?>
<svg xmlns:xlink="http://www.w3.org/1999/xlink" height="11.15px" width="9.1px" xmlns="http://www.w3.org/2000/svg">
  <g transform="matrix(1.0, 0.0, 0.0, 1.0, 4.55, 5.6)">
    <path d="M1.05 3.35 L1.05 5.55 -1.35 5.55 -1.35 3.35 1.05 3.35 M3.6 -4.5 L4.3 -3.4 4.55 -2.25 Q4.55 -1.45 4.2 -0.9 L3.3 0.05 2.2 0.75 1.3 1.45 Q0.9 1.8 0.9 2.35 L-1.2 2.35 -1.2 2.1 -0.9 0.9 Q-0.5 0.35 0.0 0.05 L1.05 -0.65 1.9 -1.35 Q2.25 -1.8 2.25 -2.4 2.25 -3.05 1.9 -3.35 1.5 -3.75 1.0 -3.85 L-0.05 -4.0 -1.05 -3.8 -1.95 -3.15 -2.35 -1.9 -4.55 -1.9 Q-4.5 -3.7 -3.3 -4.65 -2.2 -5.6 0.0 -5.6 L2.2 -5.35 Q3.1 -5.05 3.6 -4.5" fill="#ffffff" fill-rule="evenodd" stroke="none"/>
  </g>
</svg>
