<?xml version="1.0" encoding="UTF-8" standalone="no"?>
<svg xmlns:xlink="http://www.w3.org/1999/xlink" height="10.95px" width="15.1px" xmlns="http://www.w3.org/2000/svg">
  <g transform="matrix(1.0, 0.0, 0.0, 1.0, 7.55, 4.8)">
    <path d="M4.2 -0.5 L-4.2 -0.5 -4.2 -1.55 4.2 -1.55 4.2 -0.5 M5.35 -3.4 Q7.55 -1.95 7.55 0.05 7.55 2.05 5.35 3.45 L3.85 4.25 3.7 6.15 2.15 4.75 0.0 4.9 Q-3.15 4.9 -5.35 3.45 -7.55 2.05 -7.55 0.05 -7.55 -1.95 -5.35 -3.4 -3.15 -4.8 0.0 -4.8 3.15 -4.8 5.35 -3.4 M6.05 -0.05 Q6.05 -1.5 4.3 -2.5 2.55 -3.5 0.0 -3.5 -2.5 -3.5 -4.25 -2.5 -6.05 -1.5 -6.0 -0.05 -6.05 1.35 -4.25 2.35 -2.5 3.35 0.0 3.35 2.55 3.35 4.3 2.35 6.05 1.35 6.05 -0.05 M4.2 1.6 L-4.2 1.6 -4.2 0.55 4.2 0.55 4.2 1.6" fill="#ffffff" fill-rule="evenodd" stroke="none"/>
  </g>
</svg>
