<?xml version="1.0" encoding="UTF-8" standalone="no"?>
<svg xmlns:xlink="http://www.w3.org/1999/xlink" height="21.05px" width="395.2px" xmlns="http://www.w3.org/2000/svg">
  <g transform="matrix(1.0, 0.0, 0.0, 1.0, -57.5, -61.75)">
    <path d="M334.4 63.75 L335.4 63.75 Q338.05 64.45 338.8 62.95 338.9 62.75 339.4 62.75 340.15 64.45 343.4 63.85 L344.35 63.75 347.35 63.75 348.35 63.75 349.35 63.75 350.35 63.75 353.35 63.75 354.3 63.75 357.3 63.75 358.3 63.75 360.3 63.75 361.3 63.75 362.3 63.75 365.3 63.75 366.3 63.75 377.25 63.75 378.25 63.75 381.2 63.75 382.2 63.75 383.2 63.75 384.2 63.75 385.2 63.75 386.2 63.75 388.2 63.75 389.2 63.75 393.15 63.75 394.15 63.75 Q397.85 65.95 397.65 63.7 397.45 62.1 400.15 62.75 406.0 62.3 403.15 64.75 L404.1 64.95 Q406.8 65.4 407.1 63.75 L408.1 63.75 Q409.85 65.45 413.95 64.3 L414.1 63.75 419.05 63.75 420.05 63.75 422.05 63.75 423.05 63.75 441.0 63.75 442.0 63.75 446.95 63.75 447.95 63.75 449.95 63.75 450.95 63.75 Q454.1 71.2 451.5 80.6 L450.95 80.75 449.95 80.75 442.0 80.75 Q441.5 80.75 441.15 81.0 439.95 81.7 438.0 81.75 L438.0 82.75 437.0 82.75 435.0 82.75 434.0 82.75 428.05 82.75 427.05 82.75 420.05 82.75 419.05 82.75 409.1 82.75 408.1 82.75 406.1 82.75 405.1 82.75 402.15 82.75 401.15 82.75 393.15 82.75 392.15 82.75 354.3 82.75 353.35 82.75 339.4 82.75 338.4 82.75 335.4 82.75 334.4 82.75 330.4 82.75 329.4 82.75 322.45 82.75 321.45 82.75 305.5 82.75 296.55 82.75 236.8 82.75 235.8 82.75 231.8 82.75 Q235.05 81.0 240.8 81.25 L241.25 81.25 224.85 80.75 Q226.1 82.45 229.8 82.25 L229.8 82.75 228.8 82.75 216.85 82.75 216.75 82.2 212.9 81.75 212.9 82.75 211.9 82.75 Q207.75 82.95 204.9 81.75 L204.8 81.25 199.95 80.75 198.95 80.75 192.95 80.75 191.95 80.75 188.0 80.75 188.0 81.75 187.0 81.75 183.0 81.75 182.95 81.25 172.05 80.75 172.05 81.75 171.05 81.75 170.05 81.75 119.25 81.75 118.25 81.75 116.25 81.75 116.25 81.25 Q107.3 80.75 98.35 80.75 L98.35 81.75 97.35 81.75 97.3 81.25 Q83.4 80.75 69.45 80.75 L68.45 80.85 Q62.15 82.1 60.5 78.75 L60.5 77.75 Q62.1 77.85 61.6 75.7 L61.5 74.75 61.5 74.25 57.5 74.75 57.5 73.75 57.5 71.75 Q58.95 68.7 59.45 64.75 L59.5 63.75 59.5 62.75 64.45 62.75 65.45 62.75 Q66.25 64.45 69.3 63.3 L69.45 62.75 73.45 62.75 74.45 62.75 77.4 62.75 78.4 62.75 88.35 62.75 89.35 62.75 97.35 62.75 98.35 62.75 Q99.6 64.45 103.35 63.85 L104.3 63.75 112.2 63.25 112.3 62.75 113.3 62.75 Q114.55 64.45 118.25 63.85 L119.25 63.75 Q120.3 62.8 122.25 62.75 L123.25 62.75 Q125.5 64.5 130.1 63.3 L130.2 62.75 131.2 62.75 132.2 62.75 136.2 62.75 137.2 62.75 140.15 62.75 141.15 62.75 154.1 62.75 155.1 62.75 156.1 62.75 168.05 62.75 169.05 62.75 174.05 62.75 175.05 62.75 Q175.8 64.45 178.85 63.3 L179.0 62.75 180.0 62.75 Q180.8 64.45 183.85 63.3 L184.0 62.75 189.05 62.9 189.95 62.75 Q195.25 64.4 202.95 63.8 L203.9 63.75 204.9 63.75 205.9 63.75 209.9 63.75 210.9 63.75 214.85 63.75 215.85 63.75 218.85 63.75 219.85 63.75 229.8 63.75 230.8 63.75 244.75 63.75 245.75 63.75 247.75 63.75 248.75 63.75 255.7 63.75 256.7 63.75 271.65 63.75 272.65 63.75 275.65 63.75 276.65 63.75 277.65 63.75 278.6 63.75 Q282.45 63.1 287.6 63.7 L288.6 63.75 Q291.35 65.95 292.55 63.75 L291.55 63.8 Q289.95 63.85 290.6 61.75 L292.55 61.75 293.55 61.75 Q293.9 63.45 296.55 62.85 L297.55 62.75 300.65 64.5 Q302.65 65.4 302.55 63.75 L303.5 63.75 Q305.3 65.45 309.35 64.3 L309.5 63.75 325.45 63.75 326.45 63.75 328.45 63.75 329.4 63.75 334.4 63.75 M341.35 80.75 L341.35 81.25 Q351.45 81.25 341.35 80.75" fill="#e8d8c0" fill-rule="evenodd" stroke="none"/>
  </g>
</svg>
