<?xml version="1.0" encoding="UTF-8" standalone="no"?>
<svg xmlns:xlink="http://www.w3.org/1999/xlink" height="17.1px" width="47.6px" xmlns="http://www.w3.org/2000/svg">
  <g transform="matrix(1.0, 0.0, 0.0, 1.0, -201.2, 13.05)">
    <path d="M205.0 -10.05 L205.0 -11.05 205.8 -11.05 205.8 -12.05 205.25 -12.05 205.25 -13.05 228.55 -13.05 228.55 -12.05 228.85 -12.05 228.85 -13.05 242.15 -13.05 242.15 -12.05 243.1 -12.05 243.1 -11.05 244.05 -11.05 244.05 -10.05 245.0 -10.05 245.0 -11.05 245.95 -11.05 245.95 -12.05 246.9 -12.05 246.9 -11.05 247.85 -11.05 247.85 -9.05 248.8 -9.05 248.8 0.0 247.85 0.0 247.85 2.05 246.9 2.05 246.9 3.05 245.0 3.05 245.0 4.05 240.25 4.05 240.25 3.05 239.3 3.05 239.3 4.05 235.5 4.05 235.5 3.05 234.55 3.05 234.55 2.05 233.6 2.05 233.6 1.05 231.7 1.05 231.7 2.05 230.75 2.05 230.75 3.05 229.8 3.05 229.8 4.05 211.65 4.05 211.65 3.05 210.7 3.05 210.7 4.05 205.25 4.05 205.25 2.05 204.05 2.05 204.05 1.05 203.1 1.05 203.1 -1.0 202.15 -1.0 202.15 -2.0 201.2 -2.0 201.2 -3.0 202.15 -3.0 202.15 -4.0 201.2 -4.0 201.2 -9.05 202.15 -9.05 202.15 -11.05 204.05 -11.05 204.05 -10.05 205.0 -10.05" fill="#284a6c" fill-rule="evenodd" stroke="none"/>
  </g>
</svg>
