<?xml version="1.0" encoding="UTF-8" standalone="no"?>
<svg xmlns:xlink="http://www.w3.org/1999/xlink" height="271.8px" width="289.0px" xmlns="http://www.w3.org/2000/svg">
  <g transform="matrix(1.0, 0.0, 0.0, 1.0, 0.15, 170.1)">
    <path d="M156.95 -0.45 L156.95 0.55 157.95 0.55 157.95 -0.45 158.95 -0.45 158.95 0.55 162.0 0.55 162.0 -0.45 163.0 -0.45 163.0 0.55 164.0 0.55 164.0 -0.45 165.0 -0.45 165.0 0.55 166.0 0.55 166.0 -0.45 167.0 -0.45 167.0 0.55 168.05 0.55 168.05 -0.45 170.05 -0.45 170.05 0.55 171.05 0.55 171.05 -0.45 273.75 -0.45 273.75 0.55 274.75 0.55 274.75 -0.45 275.75 -0.45 275.75 0.55 277.8 0.55 277.8 -0.45 283.85 -0.45 283.85 0.55 285.85 0.55 285.85 1.55 286.85 1.55 286.85 3.55 287.85 3.55 287.85 8.55 288.85 8.55 288.85 31.65 287.85 31.65 287.85 34.8 288.85 34.8 288.85 46.2 287.85 46.2 287.85 56.3 288.85 56.3 288.85 97.6 287.85 97.6 287.85 99.65 286.85 99.65 286.85 100.65 284.85 100.65 284.85 101.7 221.4 101.7 221.4 100.65 195.25 100.65 195.25 101.7 66.35 101.7 66.35 100.65 65.35 100.65 65.35 101.7 8.95 101.7 8.95 100.65 7.95 100.65 7.95 101.7 6.95 101.7 6.95 100.65 5.9 100.65 5.9 99.65 4.9 99.65 4.9 100.65 3.9 100.65 3.9 99.65 2.9 99.65 2.9 98.65 1.9 98.65 1.9 97.6 0.9 97.6 0.9 96.6 -0.15 96.6 -0.15 69.1 0.9 69.1 0.9 68.1 -0.15 68.1 -0.15 10.1 0.9 10.1 0.9 6.1 1.9 6.1 1.9 4.1 2.9 4.1 2.9 2.1 3.9 2.1 3.9 1.1 4.9 1.1 4.9 2.1 5.9 2.1 5.9 1.1 8.95 1.1 8.95 0.1 6.95 0.1 6.95 -0.9 141.9 -0.75 141.9 -0.45 156.95 -0.45 M63.3 100.65 L63.3 99.65 61.3 99.65 61.3 100.65 63.3 100.65" fill="#eddac5" fill-rule="evenodd" stroke="none"/>
    <path d="M219.7 -147.75 L67.25 -147.75 67.25 -169.6 219.7 -169.6 219.7 -147.75 Z" fill="none" stroke="#663300" stroke-linecap="round" stroke-linejoin="round" stroke-width="1.0"/>
    <path d="M219.7 -89.05 L67.25 -89.05 67.25 -126.8 219.7 -126.8 219.7 -89.05 Z" fill="none" stroke="#663300" stroke-linecap="round" stroke-linejoin="round" stroke-width="1.0"/>
  </g>
</svg>
