<?xml version="1.0" encoding="UTF-8" standalone="no"?>
<svg xmlns:xlink="http://www.w3.org/1999/xlink" height="11.5px" width="11.3px" xmlns="http://www.w3.org/2000/svg">
  <g transform="matrix(1.0, 0.0, 0.0, 1.0, 5.65, 5.75)">
    <path d="M2.8 -3.35 L3.55 -2.25 2.65 -1.4 0.9 0.05 3.35 2.4 Q2.7 2.7 2.25 3.1 L0.3 0.6 -1.25 3.1 -1.55 3.85 Q-2.65 3.9 -2.7 3.2 L-1.7 2.0 -0.4 0.1 Q-1.5 -1.35 -3.15 -2.55 L-2.6 -3.0 -2.1 -3.15 0.3 -0.55 1.9 -2.3 2.8 -3.35 M5.0 -5.7 L5.35 -5.65 Q5.75 1.05 5.65 5.0 5.3 5.3 5.15 5.25 L3.2 5.3 -5.05 5.0 -5.35 4.7 Q-4.6 4.25 -5.0 2.15 L-5.65 -1.9 Q-5.35 -1.9 -5.15 -2.05 -3.85 -3.3 -5.65 -3.8 L-5.65 -4.45 Q-5.35 -4.45 -5.2 -4.6 -5.05 -4.75 -5.05 -5.05 L-3.6 -5.0 -3.3 -5.3 -0.55 -5.2 5.0 -5.7 M4.4 -4.1 L-3.8 -3.8 -3.8 -3.15 Q-3.45 -0.8 -3.15 4.1 L-1.9 4.35 -1.25 4.35 1.7 4.25 Q3.4 4.2 4.35 3.7 L4.4 1.85 4.4 -3.8 4.4 -4.1" fill="#eddac5" fill-rule="evenodd" stroke="none"/>
  </g>
</svg>
