<?xml version="1.0" encoding="UTF-8" standalone="no"?>
<svg xmlns:xlink="http://www.w3.org/1999/xlink" height="253.95px" width="289.0px" xmlns="http://www.w3.org/2000/svg">
  <g transform="matrix(1.0, 0.0, 0.0, 1.0, 0.4, 34.45)">
    <path d="M7.6 -6.9 L9.55 -7.95 57.2 -7.9 57.2 -7.6 141.7 -7.6 141.7 -7.5 146.9 -7.5 146.9 -23.45 147.9 -23.45 147.9 -27.45 148.9 -27.45 148.9 -29.45 149.9 -29.45 149.9 -31.45 150.9 -31.45 150.9 -32.45 151.9 -32.45 151.9 -31.45 152.9 -31.45 152.9 -32.45 155.9 -32.45 155.9 -33.45 153.9 -33.45 153.9 -34.45 263.9 -34.45 263.9 -33.45 264.9 -33.45 264.9 -34.45 265.9 -34.45 265.9 -33.45 270.9 -33.45 270.9 -34.45 271.9 -34.45 271.9 -33.45 272.9 -33.45 272.9 -34.45 274.9 -34.45 274.9 -33.45 275.9 -33.45 275.9 -34.45 279.9 -34.45 279.9 -33.45 282.9 -33.45 282.9 -32.45 283.9 -32.45 283.9 -31.45 284.9 -31.45 284.9 -30.45 285.9 -30.45 285.9 -28.45 286.9 -28.45 286.9 -24.45 287.9 -24.45 287.9 1.5 288.6 1.5 288.6 24.6 287.6 24.6 287.6 27.75 288.6 27.75 288.6 39.15 287.6 39.15 287.6 156.1 288.6 156.1 288.6 215.4 287.6 215.4 287.6 217.45 286.6 217.45 286.6 218.45 284.6 218.45 284.6 219.5 221.15 219.5 221.15 218.45 195.0 218.45 195.0 219.5 66.1 219.5 66.1 218.45 65.1 218.45 65.1 219.5 8.7 219.5 8.7 218.45 7.7 218.45 7.7 219.5 6.7 219.5 6.7 218.45 5.65 218.45 5.65 217.45 4.65 217.45 4.65 218.45 3.65 218.45 3.65 217.45 2.65 217.45 2.65 216.45 1.65 216.45 1.65 215.4 0.65 215.4 0.65 214.4 -0.4 214.4 -0.4 178.35 0.65 178.35 0.65 175.25 -0.4 175.25 -0.4 6.05 0.55 5.15 0.6 3.15 1.7 1.35 1.6 -0.9 2.6 -0.9 2.6 -2.9 3.6 -2.9 3.6 -4.9 4.7 -4.6 4.9 -5.35 5.6 -5.9 5.6 -4.9 6.6 -4.9 6.6 -5.9 8.25 -5.75 8.8 -6.6 7.6 -6.9 M61.05 217.45 L61.05 218.45 63.05 218.45 63.05 217.45 61.05 217.45" fill="#eddac5" fill-rule="evenodd" stroke="none"/>
  </g>
</svg>
