<?xml version="1.0" encoding="UTF-8" standalone="no"?>
<svg xmlns:xlink="http://www.w3.org/1999/xlink" height="7.5px" width="7.5px" xmlns="http://www.w3.org/2000/svg">
  <g transform="matrix(1.0, 0.0, 0.0, 1.0, 3.75, 3.75)">
    <path d="M3.25 0.0 Q3.25 1.35 2.3 2.3 1.35 3.25 0.0 3.25 -1.35 3.25 -2.3 2.3 -3.25 1.35 -3.25 0.0 -3.25 -1.35 -2.3 -2.3 -1.35 -3.25 0.0 -3.25 1.35 -3.25 2.3 -2.3 3.25 -1.35 3.25 0.0" fill="#000000" fill-rule="evenodd" stroke="none"/>
    <path d="M3.25 0.0 Q3.25 1.35 2.3 2.3 1.35 3.25 0.0 3.25 -1.35 3.25 -2.3 2.3 -3.25 1.35 -3.25 0.0 -3.25 -1.35 -2.3 -2.3 -1.35 -3.25 0.0 -3.25 1.35 -3.25 2.3 -2.3 3.25 -1.35 3.25 0.0 Z" fill="none" stroke="#000000" stroke-linecap="round" stroke-linejoin="round" stroke-width="1.0"/>
  </g>
</svg>
