<?xml version="1.0" encoding="UTF-8" standalone="no"?>
<svg xmlns:xlink="http://www.w3.org/1999/xlink" height="12.75px" width="13.4px" xmlns="http://www.w3.org/2000/svg">
  <g transform="matrix(1.0, 0.0, 0.0, 1.0, 6.7, 6.35)">
    <path d="M5.8 -3.2 Q5.8 -4.1 5.35 -4.7 L5.35 -4.75 Q5.1 -5.2 4.7 -5.2 L-4.7 -5.2 -5.4 -4.75 Q-5.8 -4.1 -5.8 -3.2 L-5.8 5.55 5.8 5.55 5.8 -3.2 M6.05 -5.5 Q6.7 -4.6 6.7 -3.35 L6.7 6.0 6.7 6.4 -6.65 6.4 -6.7 6.0 -6.7 -3.35 Q-6.7 -4.6 -6.1 -5.5 -5.55 -6.35 -4.7 -6.35 L4.7 -6.35 Q5.55 -6.35 6.05 -5.5" fill="#c68e5c" fill-rule="evenodd" stroke="none"/>
    <path d="M5.8 -3.2 L5.8 5.55 -5.8 5.55 -5.8 -3.2 Q-5.8 -4.1 -5.4 -4.75 L-4.7 -5.2 4.7 -5.2 Q5.1 -5.2 5.35 -4.75 L5.35 -4.7 Q5.8 -4.1 5.8 -3.2 M-3.65 2.3 L3.6 2.3 -0.15 -2.25 -3.65 2.3" fill="#eedbc6" fill-rule="evenodd" stroke="none"/>
    <path d="M-3.65 2.3 L-0.15 -2.25 3.6 2.3 -3.65 2.3" fill="#663300" fill-rule="evenodd" stroke="none"/>
  </g>
</svg>
