<?xml version="1.0" encoding="UTF-8" standalone="no"?>
<svg xmlns:xlink="http://www.w3.org/1999/xlink" height="13.5px" width="11.35px" xmlns="http://www.w3.org/2000/svg">
  <g transform="matrix(1.0, 0.0, 0.0, 1.0, 5.65, 6.75)">
    <path d="M4.5 -5.2 L4.8 -4.6 5.2 -2.45 5.2 2.4 Q5.15 4.05 4.5 5.1 4.0 6.2 3.2 6.25 L-3.2 6.25 -4.25 5.65 -4.6 5.1 Q-5.2 4.05 -5.15 2.4 L-5.15 -2.45 Q-5.2 -4.05 -4.6 -5.2 -4.0 -6.3 -3.2 -6.25 L3.2 -6.25 Q4.0 -6.3 4.5 -5.2" fill="#eedbc6" fill-rule="evenodd" stroke="none"/>
    <path d="M4.5 -5.2 Q4.0 -6.3 3.2 -6.25 L-3.2 -6.25 Q-4.0 -6.3 -4.6 -5.2 -5.2 -4.05 -5.15 -2.45 L-5.15 2.4 Q-5.2 4.05 -4.6 5.1 L-4.25 5.65 -3.2 6.25 3.2 6.25 Q4.0 6.2 4.5 5.1 5.15 4.05 5.2 2.4 L5.2 -2.45 4.8 -4.6 4.5 -5.2 Z" fill="none" stroke="#663300" stroke-linecap="round" stroke-linejoin="round" stroke-width="1.0"/>
  </g>
</svg>
