<?xml version="1.0" encoding="UTF-8" standalone="no"?>
<svg xmlns:xlink="http://www.w3.org/1999/xlink" height="22.25px" width="132.6px" xmlns="http://www.w3.org/2000/svg">
  <g transform="matrix(1.0, 0.0, 0.0, 1.0, -63.9, 4.3)">
    <path d="M99.35 12.35 L63.9 12.35 63.9 11.05 99.35 11.05 99.35 12.35" fill="#eedbc6" fill-rule="evenodd" stroke="none"/>
    <path d="M144.8 -1.7 L144.8 -3.0 145.8 -3.0 145.8 -1.7 146.8 -1.7 146.8 -0.4 147.8 -0.4 147.8 -1.7 148.8 -1.7 148.8 -3.0 149.8 -3.0 149.8 -4.3 163.8 -4.3 163.8 -3.0 164.8 -3.0 164.8 -4.3 165.8 -4.3 165.8 -3.0 168.8 -3.0 168.8 -4.3 169.85 -4.3 169.85 -3.0 170.85 -3.0 170.85 -4.3 190.5 -4.3 190.5 -3.0 191.5 -3.0 191.5 -1.7 192.5 -1.7 192.5 -0.4 193.5 -0.4 193.5 -1.7 195.5 -1.7 195.5 0.9 196.5 0.9 196.5 7.5 195.5 7.5 195.5 8.8 196.5 8.8 196.5 10.1 195.5 10.1 195.5 11.4 194.5 11.4 194.5 14.05 193.5 14.05 193.5 15.35 191.5 15.35 191.5 16.65 190.5 16.65 190.5 15.35 189.5 15.35 189.5 16.65 188.5 16.65 188.5 17.95 186.5 17.95 186.5 16.65 185.5 16.65 185.5 17.95 165.8 17.95 165.8 16.65 164.8 16.65 164.8 17.95 162.8 17.95 162.8 16.65 161.8 16.65 161.8 15.35 160.8 15.35 160.8 14.05 158.8 14.05 158.8 15.35 157.8 15.35 157.8 16.65 156.8 16.65 156.8 17.95 152.8 17.95 152.8 16.65 151.8 16.65 151.8 17.95 146.8 17.95 146.8 16.65 144.8 16.65 144.8 15.35 143.8 15.35 143.8 12.7 142.8 12.7 142.8 0.9 143.8 0.9 143.8 -1.7 144.8 -1.7" fill="#284a6c" fill-rule="evenodd" stroke="none"/>
  </g>
</svg>
