<?xml version="1.0" encoding="UTF-8" standalone="no"?>
<svg xmlns:xlink="http://www.w3.org/1999/xlink" height="24.45px" width="141.0px" xmlns="http://www.w3.org/2000/svg">
  <g transform="matrix(1.0, 0.0, 0.0, 1.0, 69.0, 13.45)">
    <path d="M55.0 -13.45 L56.0 -13.45 56.0 -12.45 57.0 -12.45 57.0 -13.45 59.0 -13.45 59.0 -12.45 60.0 -12.45 60.0 -13.45 64.0 -13.45 64.0 -12.45 67.0 -12.45 67.0 -11.45 68.0 -11.45 68.0 -10.45 69.0 -10.45 69.0 -9.45 70.0 -9.45 70.0 -7.45 71.0 -7.45 71.0 -3.45 72.0 -3.45 72.0 11.0 -69.0 11.0 -69.0 -2.45 -68.0 -2.45 -68.0 -6.45 -67.0 -6.45 -67.0 -8.45 -66.0 -8.45 -66.0 -10.45 -65.0 -10.45 -65.0 -11.45 -64.0 -11.45 -64.0 -10.45 -63.0 -10.45 -63.0 -11.45 -60.0 -11.45 -60.0 -12.45 -62.0 -12.45 -62.0 -13.45 48.0 -13.45 48.0 -12.45 49.0 -12.45 49.0 -13.45 50.0 -13.45 50.0 -12.45 55.0 -12.45 55.0 -13.45" fill="#ceb095" fill-rule="evenodd" stroke="none"/>
  </g>
</svg>
