<?xml version="1.0" encoding="UTF-8" standalone="no"?>
<svg xmlns:xlink="http://www.w3.org/1999/xlink" height="116.75px" width="289.0px" xmlns="http://www.w3.org/2000/svg">
  <g transform="matrix(1.0, 0.0, 0.0, 1.0, 6.2, 7.95)">
    <path d="M0.9 -7.95 L135.85 -7.8 135.85 -7.5 150.9 -7.5 150.9 -6.5 151.9 -6.5 151.9 -7.5 152.9 -7.5 152.9 -6.5 155.95 -6.5 155.95 -7.5 156.95 -7.5 156.95 -6.5 157.95 -6.5 157.95 -7.5 158.95 -7.5 158.95 -6.5 159.95 -6.5 159.95 -7.5 160.95 -7.5 160.95 -6.5 162.0 -6.5 162.0 -7.5 164.0 -7.5 164.0 -6.5 165.0 -6.5 165.0 -7.5 267.7 -7.5 267.7 -6.5 268.7 -6.5 268.7 -7.5 269.7 -7.5 269.7 -6.5 271.75 -6.5 271.75 -7.5 277.8 -7.5 277.8 -6.5 279.8 -6.5 279.8 -5.5 280.8 -5.5 280.8 -3.5 281.8 -3.5 281.8 1.5 282.8 1.5 282.8 24.6 281.8 24.6 281.8 27.75 282.8 27.75 282.8 39.15 281.8 39.15 281.8 65.7 282.8 65.7 282.8 95.0 282.7 95.0 282.7 98.8 Q282.7 102.9 279.75 105.85 276.8 108.8 272.7 108.8 L238.6 108.8 Q234.45 108.8 231.5 105.85 228.75 103.1 228.6 99.2 L226.3 99.2 226.3 99.1 215.35 99.1 215.35 98.05 189.2 98.05 189.2 99.1 60.3 99.1 60.3 98.05 59.3 98.05 59.3 99.1 2.9 99.1 2.9 98.05 1.9 98.05 1.9 99.1 0.9 99.1 0.9 98.05 -0.15 98.05 -0.15 97.05 -1.15 97.05 -1.15 98.05 -2.15 98.05 -2.15 97.05 -3.15 97.05 -3.15 96.05 -4.15 96.05 -4.15 95.0 -5.15 95.0 -5.15 94.0 -6.2 94.0 -6.2 3.05 -5.15 3.05 -5.15 -0.95 -4.15 -0.95 -4.15 -2.95 -3.15 -2.95 -3.15 -4.95 -2.15 -4.95 -2.15 -5.95 -1.15 -5.95 -1.15 -4.95 -0.15 -4.95 -0.15 -5.95 2.9 -5.95 2.9 -6.95 0.9 -6.95 0.9 -7.95 M57.25 98.05 L57.25 97.05 55.25 97.05 55.25 98.05 57.25 98.05" fill="#eddac5" fill-rule="evenodd" stroke="none"/>
  </g>
</svg>
