<?xml version="1.0" encoding="UTF-8" standalone="no"?>
<svg xmlns:xlink="http://www.w3.org/1999/xlink" height="28.75px" width="61.45px" xmlns="http://www.w3.org/2000/svg">
  <g transform="matrix(1.0, 0.0, 0.0, 1.0, 30.75, 14.35)">
    <path d="M30.7 -8.1 L30.7 9.4 29.45 9.4 29.45 11.9 28.15 11.9 28.15 13.15 25.7 13.15 25.7 14.4 -25.8 14.4 -25.8 13.15 -28.25 13.15 -28.25 11.9 -29.5 11.9 -29.5 9.4 -30.75 9.4 -30.75 -9.4 -29.5 -9.4 -29.5 -11.9 -28.25 -11.9 -28.25 -13.15 -25.8 -13.15 -25.8 -14.35 -15.7 -14.35 -15.7 -13.15 -14.45 -13.15 -14.45 -14.35 21.95 -14.35 21.95 -13.15 20.7 -13.15 20.7 -11.9 19.4 -11.9 19.4 -10.65 -13.2 -10.65 -13.2 -11.9 -14.45 -11.9 -14.45 -10.65 -24.55 -10.65 -24.55 -9.4 -25.8 -9.4 -25.8 -8.1 -27.0 -8.1 -27.0 -5.6 -28.25 -5.6 -28.25 -3.15 -27.0 -3.15 -27.0 8.1 -25.8 8.1 -25.8 9.4 -24.55 9.4 -24.55 10.65 -19.5 10.65 -19.5 11.9 -18.25 11.9 -18.25 10.65 19.4 10.65 19.4 11.9 20.7 11.9 20.7 13.15 21.95 13.15 21.95 11.9 23.2 11.9 23.2 10.65 24.45 10.65 24.45 11.9 25.7 11.9 25.7 10.65 26.9 10.65 26.9 9.4 25.7 9.4 25.7 8.1 26.9 8.1 26.9 -8.1 25.7 -8.1 25.7 -10.65 24.45 -10.65 24.45 -11.9 25.7 -11.9 25.7 -13.15 26.9 -13.15 26.9 -11.9 28.15 -11.9 28.15 -10.65 29.45 -10.65 29.45 -8.1 30.7 -8.1 M24.45 -5.55 L24.45 5.75 23.2 5.75 23.2 6.95 21.95 6.95 21.95 8.2 20.7 8.2 20.7 6.95 19.4 6.95 19.4 8.2 -22.0 8.2 -22.0 6.95 -23.25 6.95 -23.25 5.75 -24.55 5.75 -24.55 -5.55 -23.25 -5.55 -23.25 -6.8 -22.0 -6.8 -22.0 -8.05 21.95 -8.05 21.95 -6.8 23.2 -6.8 23.2 -5.55 24.45 -5.55" fill="#000033" fill-rule="evenodd" stroke="none"/>
  </g>
</svg>
