<?xml version="1.0" encoding="UTF-8" standalone="no"?>
<svg xmlns:xlink="http://www.w3.org/1999/xlink" height="22.5px" width="22.5px" xmlns="http://www.w3.org/2000/svg">
  <g transform="matrix(1.0, 0.0, 0.0, 1.0, 11.25, 11.25)">
    <path d="M0.3 -10.75 Q4.55 -10.65 7.6 -7.6 10.75 -4.45 10.75 0.0 10.75 4.45 7.6 7.6 4.45 10.75 0.0 10.75 -4.45 10.75 -7.6 7.6 -10.75 4.45 -10.75 0.0 -10.75 -4.45 -7.6 -7.6 -4.55 -10.65 -0.25 -10.75 L0.3 -10.75" fill="url(#gradient0)" fill-rule="evenodd" stroke="none"/>
    <path d="M0.3 -10.75 Q4.55 -10.65 7.6 -7.6 10.75 -4.45 10.75 0.0 10.75 4.45 7.6 7.6 4.45 10.75 0.0 10.75 -4.45 10.75 -7.6 7.6 -10.75 4.45 -10.75 0.0 -10.75 -4.45 -7.6 -7.6 -4.55 -10.65 -0.25 -10.75" fill="none" stroke="#663300" stroke-linecap="round" stroke-linejoin="round" stroke-width="1.0"/>
  </g>
  <defs>
    <radialGradient cx="0" cy="0" gradientTransform="matrix(0.0132, 0.0, 0.0, 0.0132, -1.25, -2.5)" gradientUnits="userSpaceOnUse" id="gradient0" r="819.2" spreadMethod="pad">
      <stop offset="0.0" stop-color="#99cc00"/>
      <stop offset="0.403921568627451" stop-color="#99cc33"/>
      <stop offset="1.0" stop-color="#999900"/>
    </radialGradient>
  </defs>
</svg>
