<?xml version="1.0" encoding="UTF-8" standalone="no"?>
<svg xmlns:xlink="http://www.w3.org/1999/xlink" height="17.1px" width="99.3px" xmlns="http://www.w3.org/2000/svg">
  <g transform="matrix(1.0, 0.0, 0.0, 1.0, -7.2, 13.05)">
    <path d="M8.2 -11.05 L9.2 -11.05 9.2 -12.05 10.2 -12.05 10.2 -11.05 11.2 -11.05 11.2 -10.05 12.2 -10.05 12.2 -11.05 13.2 -11.05 13.2 -12.05 14.2 -12.05 14.2 -13.05 28.2 -13.05 28.2 -12.05 29.2 -12.05 29.2 -13.05 30.2 -13.05 30.2 -12.05 33.2 -12.05 33.2 -13.05 34.25 -13.05 34.25 -12.05 35.25 -12.05 35.25 -13.05 100.5 -13.05 100.5 -12.05 101.5 -12.05 101.5 -11.05 102.5 -11.05 102.5 -10.05 103.5 -10.05 103.5 -11.05 105.5 -11.05 105.5 -9.05 106.5 -9.05 106.5 -4.0 105.5 -4.0 105.5 -3.0 106.5 -3.0 106.5 -2.0 105.5 -2.0 105.5 -1.0 104.5 -1.0 104.5 1.05 103.5 1.05 103.5 2.05 101.5 2.05 101.5 3.05 100.5 3.05 100.5 2.05 99.5 2.05 99.5 3.05 98.5 3.05 98.5 4.05 96.5 4.05 96.5 3.05 95.5 3.05 95.5 4.05 67.45 4.05 67.45 3.05 65.45 3.05 65.45 4.05 60.45 4.05 60.45 3.05 56.3 3.05 56.3 4.05 30.2 4.05 30.2 3.05 29.2 3.05 29.2 4.05 27.2 4.05 27.2 3.05 26.2 3.05 26.2 2.05 25.2 2.05 25.2 1.05 23.2 1.05 23.2 2.05 22.2 2.05 22.2 3.05 21.2 3.05 21.2 4.05 17.2 4.05 17.2 3.05 16.2 3.05 16.2 4.05 11.2 4.05 11.2 3.05 9.2 3.05 9.2 2.05 8.2 2.05 8.2 0.0 7.2 0.0 7.2 -9.05 8.2 -9.05 8.2 -11.05 M76.45 -12.05 L76.45 -11.05 78.5 -11.05 78.5 -12.05 76.45 -12.05 M70.45 -12.05 L70.45 -11.05 75.45 -11.05 75.45 -12.05 70.45 -12.05 M69.45 -12.05 L64.45 -12.05 64.45 -11.05 69.45 -11.05 69.45 -12.05" fill="#284a6c" fill-rule="evenodd" stroke="none"/>
  </g>
</svg>
