<?xml version="1.0" encoding="UTF-8" standalone="no"?>
<svg xmlns:xlink="http://www.w3.org/1999/xlink" height="17.1px" width="87.7px" xmlns="http://www.w3.org/2000/svg">
  <g transform="matrix(1.0, 0.0, 0.0, 1.0, -109.4, 13.05)">
    <path d="M110.45 -11.05 L111.55 -11.05 111.55 -12.05 112.6 -12.05 112.6 -11.05 113.7 -11.05 113.7 -10.05 114.75 -10.05 114.75 -11.05 115.85 -11.05 115.85 -12.05 116.9 -12.05 116.9 -13.05 131.95 -13.05 131.95 -12.05 133.0 -12.05 133.0 -13.05 134.05 -13.05 134.05 -12.05 137.3 -12.05 137.3 -13.05 138.4 -13.05 138.4 -12.05 139.5 -12.05 139.5 -13.05 192.5 -13.05 192.5 -12.05 191.9 -12.05 191.9 -11.05 192.8 -11.05 192.8 -10.05 193.85 -10.05 193.85 -11.05 196.0 -11.05 196.0 -9.05 197.1 -9.05 197.1 -4.0 196.0 -4.0 196.0 -3.0 197.1 -3.0 197.1 -2.0 196.0 -2.0 196.0 -1.0 194.95 -1.0 194.95 1.05 193.85 1.05 193.85 2.05 192.5 2.05 192.5 4.05 186.35 4.05 186.35 3.05 185.3 3.05 185.3 4.05 134.05 4.05 134.05 3.05 133.0 3.05 133.0 4.05 130.85 4.05 130.85 3.05 129.8 3.05 129.8 2.05 128.7 2.05 128.7 1.05 126.55 1.05 126.55 2.05 125.5 2.05 125.5 3.05 124.4 3.05 124.4 4.05 120.1 4.05 120.1 3.05 119.05 3.05 119.05 4.05 113.7 4.05 113.7 3.05 111.55 3.05 111.55 2.05 110.45 2.05 110.45 0.0 109.4 0.0 109.4 -9.05 110.45 -9.05 110.45 -11.05" fill="#284a6c" fill-rule="evenodd" stroke="none"/>
  </g>
</svg>
