<?xml version="1.0" encoding="UTF-8" standalone="no"?>
<svg xmlns:xlink="http://www.w3.org/1999/xlink" height="317.95px" width="456.5px" xmlns="http://www.w3.org/2000/svg">
  <g transform="matrix(1.0, 0.0, 0.0, 1.0, 229.9, 160.65)">
    <path d="M50.2 -160.55 L50.1 -160.4 50.05 -160.35 50.05 -160.4 50.0 -160.4 49.95 -160.55 49.95 -160.5 50.0 -160.4 49.95 -160.4 49.95 -160.5 49.9 -160.65 50.05 -160.45 50.25 -160.65 50.2 -160.5 50.2 -160.4 50.15 -160.4 50.2 -160.5 50.2 -160.55 M50.2 -160.35 L50.2 -160.3 50.2 -160.25 50.2 -160.3 50.2 -160.35 M50.05 -160.25 L50.0 -160.25 49.95 -160.25 49.9 -160.25 49.95 -160.3 50.0 -160.3 49.95 -160.3 49.9 -160.3 49.95 -160.35 50.0 -160.3 50.05 -160.3 50.05 -160.25 50.1 -160.2 50.1 -160.15 50.2 -160.05 50.2 -160.1 50.15 -160.2 50.2 -160.2 50.2 -160.1 50.25 -159.95 50.05 -160.1 49.9 -159.95 49.95 -160.1 49.95 -160.2 50.0 -160.2 49.95 -160.1 49.95 -160.05 50.0 -160.15 50.05 -160.2 50.05 -160.25 M50.1 -160.25 L50.05 -160.3 50.1 -160.3 50.15 -160.3 50.1 -160.25 M48.65 -160.3 L49.0 -159.95 48.65 -159.6 48.3 -159.95 48.65 -160.3 M47.9 -150.9 L50.35 -150.7 47.35 -149.6 47.9 -150.9 M48.0 -150.1 L48.2 -150.1 48.2 -150.35 48.0 -150.35 48.0 -150.1 M47.85 -149.85 L47.9 -149.85 47.9 -149.9 47.85 -149.85 M50.7 -156.55 L50.8 -156.5 51.0 -156.4 51.0 -156.25 50.9 -156.3 50.8 -156.05 50.7 -156.55 M51.9 -156.7 L51.95 -156.75 52.3 -156.3 51.9 -156.4 51.75 -156.45 51.85 -156.6 51.9 -156.7 M51.0 -156.25 L51.05 -156.25 51.25 -156.3 51.15 -156.35 51.0 -156.4 51.0 -156.55 51.15 -156.45 51.3 -156.35 51.35 -156.45 51.4 -156.35 51.45 -156.35 51.5 -156.35 51.6 -156.35 51.75 -156.45 51.5 -155.9 51.4 -156.35 51.35 -156.35 51.25 -156.3 51.0 -155.95 51.0 -156.25 M52.55 -155.9 L52.55 -155.85 52.3 -155.8 52.25 -155.8 52.25 -155.75 52.2 -155.65 52.15 -155.6 52.0 -155.7 52.05 -155.7 52.15 -155.75 52.25 -155.8 52.1 -155.95 52.1 -156.0 52.15 -156.0 52.35 -155.9 52.45 -156.0 52.4 -156.0 52.45 -156.2 52.5 -156.05 52.55 -155.9 M52.15 -155.55 L52.2 -155.55 52.25 -155.55 52.5 -155.4 52.2 -155.15 52.1 -155.05 52.25 -155.35 52.0 -155.2 51.95 -155.2 52.0 -155.25 52.15 -155.5 52.15 -155.55 M33.6 -126.2 Q33.1 -125.75 32.45 -125.75 31.8 -125.75 31.35 -126.2 30.85 -126.65 30.85 -127.3 30.85 -127.95 31.35 -128.4 L32.45 -128.85 Q33.1 -128.85 33.6 -128.4 34.05 -127.95 34.05 -127.3 34.05 -126.65 33.6 -126.2 M35.55 -112.1 Q36.3 -112.1 36.85 -111.55 37.35 -111.05 37.35 -110.35 37.35 -109.65 36.85 -109.1 36.3 -108.6 35.55 -108.6 34.8 -108.6 34.3 -109.1 33.75 -109.65 33.75 -110.35 33.75 -111.05 34.3 -111.55 34.8 -112.1 35.55 -112.1 M29.8 -111.8 L31.15 -111.5 31.7 -110.8 Q31.7 -110.4 31.15 -110.1 30.6 -109.8 29.8 -109.8 29.0 -109.8 28.45 -110.1 27.9 -110.4 27.9 -110.8 27.9 -111.2 28.45 -111.5 L29.8 -111.8 M23.05 -100.8 Q23.85 -100.8 24.4 -100.25 24.95 -99.7 24.95 -98.95 24.95 -98.2 24.4 -97.65 23.85 -97.1 23.05 -97.1 22.25 -97.1 21.7 -97.65 21.15 -98.2 21.15 -98.95 21.15 -99.7 21.7 -100.25 22.25 -100.8 23.05 -100.8 M39.25 -104.35 Q39.25 -104.95 39.7 -105.35 40.1 -105.75 40.7 -105.75 41.3 -105.75 41.75 -105.35 42.15 -104.95 42.15 -104.35 42.15 -103.75 41.75 -103.35 41.3 -102.95 40.7 -102.95 40.1 -102.95 39.7 -103.35 39.25 -103.75 39.25 -104.35 M53.25 -141.15 L53.0 -140.85 52.75 -141.15 53.25 -141.15 M49.0 -146.05 L48.85 -146.0 48.7 -146.05 48.65 -146.2 48.7 -146.35 48.85 -146.4 49.0 -146.35 49.05 -146.2 49.0 -146.05 M54.9 -128.35 L56.4 -128.7 57.15 -126.6 55.5 -124.2 56.2 -122.5 55.55 -121.3 53.5 -123.4 50.7 -122.8 49.2 -119.9 46.3 -121.25 43.9 -120.55 41.85 -121.3 42.25 -122.65 47.95 -124.4 48.85 -123.55 53.25 -125.2 54.9 -128.35 M52.7 -137.3 L52.7 -129.9 49.25 -129.9 49.25 -137.3 52.7 -137.3 M54.45 -113.0 L55.9 -114.3 57.75 -114.45 58.4 -112.5 43.1 -110.4 50.4 -115.0 53.75 -113.0 54.45 -113.0 M49.3 -100.8 Q50.25 -100.8 50.95 -100.1 51.6 -99.45 51.6 -98.5 51.6 -97.55 50.95 -96.85 50.25 -96.2 49.3 -96.2 48.35 -96.2 47.7 -96.85 47.0 -97.55 47.0 -98.5 47.0 -99.45 47.7 -100.1 48.35 -100.8 49.3 -100.8 M62.8 -113.5 L62.1 -113.3 Q61.7 -113.3 61.45 -113.5 61.15 -113.7 61.15 -114.0 L61.45 -114.5 62.1 -114.7 62.8 -114.5 63.05 -114.0 62.8 -113.5 M65.65 -77.05 Q65.1 -76.5 64.35 -76.5 63.6 -76.5 63.05 -77.05 62.5 -77.6 62.5 -78.35 62.5 -79.1 63.05 -79.65 63.6 -80.2 64.35 -80.2 65.1 -80.2 65.65 -79.65 66.2 -79.1 66.2 -78.35 66.2 -77.6 65.65 -77.05 M57.85 -96.45 Q58.4 -95.9 58.4 -95.1 58.4 -94.3 57.85 -93.7 57.25 -93.15 56.45 -93.15 55.65 -93.15 55.1 -93.7 54.5 -94.3 54.5 -95.1 54.5 -95.9 55.1 -96.45 55.65 -97.05 56.45 -97.05 57.25 -97.05 57.85 -96.45 M44.75 -76.4 Q44.75 -77.15 45.3 -77.7 45.8 -78.25 46.55 -78.25 47.3 -78.25 47.85 -77.7 48.35 -77.15 48.35 -76.4 48.35 -75.65 47.85 -75.1 47.3 -74.55 46.55 -74.55 45.8 -74.55 45.3 -75.1 44.75 -75.65 44.75 -76.4 M55.3 -83.7 L50.75 -81.05 49.2 -82.35 52.9 -85.8 55.3 -83.7 M52.55 -65.0 L53.7 -64.35 54.45 -61.7 51.05 -61.05 49.85 -58.3 47.75 -58.25 47.7 -60.15 50.1 -61.8 50.5 -64.5 49.1 -66.0 49.0 -68.1 51.6 -67.85 52.55 -65.0 M56.8 -58.75 L55.3 -61.2 59.05 -60.1 58.85 -58.95 56.8 -58.75 M64.75 -69.4 Q64.2 -68.9 63.5 -68.9 62.8 -68.9 62.3 -69.4 61.75 -69.9 61.75 -70.6 61.75 -71.3 62.3 -71.8 62.8 -72.3 63.5 -72.3 64.2 -72.3 64.75 -71.8 65.25 -71.3 65.25 -70.6 65.25 -69.9 64.75 -69.4 M31.6 -93.2 Q31.0 -92.65 30.2 -92.65 29.4 -92.65 28.85 -93.2 28.25 -93.8 28.25 -94.6 28.25 -95.4 28.85 -95.95 29.4 -96.55 30.2 -96.55 31.0 -96.55 31.6 -95.95 32.15 -95.4 32.15 -94.6 32.15 -93.8 31.6 -93.2 M21.95 -78.45 Q21.35 -77.9 20.55 -77.9 19.75 -77.9 19.2 -78.45 18.6 -79.05 18.6 -79.85 18.6 -80.65 19.2 -81.2 19.75 -81.8 20.55 -81.8 21.35 -81.8 21.95 -81.2 22.5 -80.65 22.5 -79.85 22.5 -79.05 21.95 -78.45 M28.5 -83.15 Q27.7 -83.15 27.15 -83.7 26.6 -84.25 26.6 -85.0 26.6 -85.75 27.15 -86.3 27.7 -86.85 28.5 -86.85 29.3 -86.85 29.85 -86.3 30.4 -85.75 30.4 -85.0 30.4 -84.25 29.85 -83.7 29.3 -83.15 28.5 -83.15 M39.1 -64.55 Q39.9 -64.55 40.45 -64.0 41.0 -63.45 41.0 -62.7 41.0 -61.95 40.45 -61.4 39.9 -60.85 39.1 -60.85 38.3 -60.85 37.75 -61.4 37.2 -61.95 37.2 -62.7 37.2 -63.45 37.75 -64.0 38.3 -64.55 39.1 -64.55 M29.35 -56.6 Q29.35 -57.35 29.9 -57.9 30.45 -58.45 31.25 -58.45 32.05 -58.45 32.6 -57.9 33.15 -57.35 33.15 -56.6 33.15 -55.85 32.6 -55.3 32.05 -54.75 31.25 -54.75 30.45 -54.75 29.9 -55.3 29.35 -55.85 29.35 -56.6 M14.25 -24.5 L14.15 -24.3 14.05 -24.5 14.25 -24.5 M4.7 -9.0 L4.9 -9.0 4.8 -8.8 4.7 -9.0 M2.25 -3.35 L1.9 -3.25 1.55 -3.35 1.4 -3.7 1.55 -4.0 1.9 -4.15 2.25 -4.0 2.4 -3.7 2.25 -3.35 M72.0 -39.8 Q71.45 -39.25 70.7 -39.25 69.95 -39.25 69.4 -39.8 68.85 -40.35 68.85 -41.15 68.85 -41.95 69.4 -42.5 69.95 -43.05 70.7 -43.05 71.45 -43.05 72.0 -42.5 72.55 -41.95 72.55 -41.15 72.55 -40.35 72.0 -39.8 M80.3 -46.35 Q80.3 -47.15 80.85 -47.7 81.4 -48.25 82.2 -48.25 83.0 -48.25 83.55 -47.7 84.1 -47.15 84.1 -46.35 84.1 -45.55 83.55 -45.0 83.0 -44.45 82.2 -44.45 81.4 -44.45 80.85 -45.0 80.3 -45.55 80.3 -46.35 M64.6 -49.05 L64.6 -42.7 62.85 -42.7 62.85 -49.05 64.6 -49.05 M61.9 -26.0 Q61.55 -25.7 61.1 -25.7 60.65 -25.7 60.35 -26.0 60.0 -26.35 60.0 -26.8 60.0 -27.25 60.35 -27.55 60.65 -27.9 61.1 -27.9 61.55 -27.9 61.9 -27.55 L62.2 -26.8 61.9 -26.0 M61.75 -35.7 L58.25 -39.85 58.85 -40.8 60.05 -40.65 62.65 -36.85 61.75 -35.7 M53.0 -39.55 Q53.9 -39.0 53.9 -38.2 53.9 -37.4 53.0 -36.85 52.05 -36.3 50.75 -36.3 49.45 -36.3 48.55 -36.85 47.6 -37.4 47.6 -38.2 47.6 -39.0 48.55 -39.55 49.45 -40.1 50.75 -40.1 52.05 -40.1 53.0 -39.55 M47.25 -46.9 Q47.75 -47.45 48.45 -47.45 49.15 -47.45 49.7 -46.9 50.2 -46.4 50.2 -45.7 50.2 -45.0 49.7 -44.45 49.15 -43.95 48.45 -43.95 47.75 -43.95 47.25 -44.45 46.7 -45.0 46.7 -45.7 46.7 -46.4 47.25 -46.9 M43.95 -24.7 Q44.45 -25.25 45.2 -25.25 45.95 -25.25 46.5 -24.7 47.0 -24.2 47.0 -23.5 47.0 -22.8 46.5 -22.25 45.95 -21.75 45.2 -21.75 44.45 -21.75 43.95 -22.25 43.4 -22.8 43.4 -23.5 43.4 -24.2 43.95 -24.7 M49.5 -6.25 Q49.0 -6.25 48.65 -6.6 48.3 -6.95 48.3 -7.45 48.3 -7.95 48.65 -8.3 49.0 -8.65 49.5 -8.65 50.0 -8.65 50.35 -8.3 L50.7 -7.45 Q50.7 -6.95 50.35 -6.6 50.0 -6.25 49.5 -6.25 M56.6 -7.15 L54.65 -2.4 53.55 -2.3 53.05 -2.8 52.95 -3.5 54.45 -5.25 54.7 -7.8 56.25 -7.75 56.6 -7.15 M67.25 -8.95 Q66.7 -8.4 65.9 -8.4 65.1 -8.4 64.55 -8.95 64.0 -9.55 64.0 -10.35 64.0 -11.15 64.55 -11.7 65.1 -12.3 65.9 -12.3 66.7 -12.3 67.25 -11.7 67.8 -11.15 67.8 -10.35 67.8 -9.55 67.25 -8.95 M142.3 -50.9 Q142.85 -51.45 143.65 -51.45 144.45 -51.45 145.0 -50.9 145.55 -50.35 145.55 -49.55 145.55 -48.75 145.0 -48.2 144.45 -47.65 143.65 -47.65 142.85 -47.65 142.3 -48.2 141.75 -48.75 141.75 -49.55 141.75 -50.35 142.3 -50.9 M100.2 -6.0 Q100.2 -6.45 100.55 -6.75 100.85 -7.1 101.35 -7.1 L102.2 -6.75 102.5 -6.0 102.2 -5.2 Q101.85 -4.9 101.35 -4.9 100.85 -4.9 100.55 -5.2 100.2 -5.55 100.2 -6.0 M109.35 -19.45 L109.9 -19.7 110.5 -19.45 110.7 -18.85 110.5 -18.25 109.9 -18.0 Q109.55 -18.0 109.35 -18.25 109.1 -18.5 109.1 -18.85 L109.35 -19.45 M107.8 -13.85 Q107.8 -14.3 108.1 -14.6 108.4 -14.9 108.85 -14.9 L109.6 -14.6 109.9 -13.85 Q109.9 -13.4 109.6 -13.1 109.3 -12.8 108.85 -12.8 108.4 -12.8 108.1 -13.1 107.8 -13.4 107.8 -13.85 M116.9 -9.2 Q116.4 -8.75 115.7 -8.75 115.0 -8.75 114.55 -9.2 114.05 -9.7 114.05 -10.4 114.05 -11.1 114.55 -11.55 115.0 -12.05 115.7 -12.05 116.4 -12.05 116.9 -11.55 117.35 -11.1 117.35 -10.4 117.35 -9.7 116.9 -9.2 M120.7 -7.85 L123.35 -6.65 128.6 -7.4 127.75 -5.45 123.15 -5.75 121.55 -4.25 118.65 -4.05 117.95 -1.25 115.9 -0.4 115.0 -1.5 115.15 -2.45 118.45 -4.25 119.6 -7.4 120.7 -7.85 M160.2 -40.4 Q159.65 -40.95 159.65 -41.65 159.65 -42.35 160.2 -42.85 160.7 -43.4 161.4 -43.4 162.1 -43.4 162.65 -42.85 163.15 -42.35 163.15 -41.65 163.15 -40.95 162.65 -40.4 162.1 -39.9 161.4 -39.9 160.7 -39.9 160.2 -40.4 M144.15 -25.85 Q144.85 -25.85 145.4 -25.3 145.9 -24.8 145.9 -24.1 145.9 -23.4 145.4 -22.85 144.85 -22.35 144.15 -22.35 143.45 -22.35 142.95 -22.85 142.4 -23.4 142.4 -24.1 142.4 -24.8 142.95 -25.3 143.45 -25.85 144.15 -25.85 M152.15 -28.75 L151.0 -30.3 153.2 -31.8 161.75 -29.25 162.75 -27.75 166.35 -27.25 166.0 -25.8 160.85 -26.6 158.95 -24.75 156.25 -24.2 155.2 -21.9 153.7 -21.5 152.85 -21.9 153.55 -24.65 155.9 -26.1 154.55 -28.8 152.15 -28.75 M129.95 -30.95 Q129.15 -30.95 128.6 -31.5 128.05 -32.05 128.05 -32.85 128.05 -33.65 128.6 -34.2 129.15 -34.75 129.95 -34.75 130.75 -34.75 131.3 -34.2 131.85 -33.65 131.85 -32.85 131.85 -32.05 131.3 -31.5 130.75 -30.95 129.95 -30.95 M124.3 -27.0 Q124.85 -26.45 124.85 -25.65 124.85 -24.85 124.3 -24.25 123.7 -23.7 122.9 -23.7 122.1 -23.7 121.55 -24.25 120.95 -24.85 120.95 -25.65 120.95 -26.45 121.55 -27.0 122.1 -27.6 122.9 -27.6 123.7 -27.6 124.3 -27.0 M136.05 -14.35 Q136.55 -14.9 137.25 -14.9 137.95 -14.9 138.5 -14.35 139.0 -13.85 139.0 -13.15 139.0 -12.45 138.5 -11.9 137.95 -11.4 137.25 -11.4 136.55 -11.4 136.05 -11.9 135.5 -12.45 135.5 -13.15 135.5 -13.85 136.05 -14.35 M135.35 -21.1 L142.1 -21.1 142.1 -17.7 135.35 -17.7 135.35 -21.1 M133.25 -15.85 L133.25 -7.8 129.7 -7.8 129.7 -15.85 133.25 -15.85 M145.45 -15.05 Q146.25 -15.05 146.8 -14.5 147.35 -13.95 147.35 -13.2 147.35 -12.45 146.8 -11.9 146.25 -11.35 145.45 -11.35 144.65 -11.35 144.1 -11.9 143.55 -12.45 143.55 -13.2 143.55 -13.95 144.1 -14.5 144.65 -15.05 145.45 -15.05 M204.15 -50.15 Q203.9 -49.9 203.55 -49.9 203.2 -49.9 202.95 -50.15 202.7 -50.4 202.7 -50.75 202.7 -51.1 202.95 -51.35 L203.55 -51.6 204.15 -51.35 204.4 -50.75 204.15 -50.15 M209.3 -53.65 L208.85 -53.55 208.4 -53.65 208.2 -53.95 208.4 -54.2 208.85 -54.35 209.3 -54.2 209.5 -53.95 209.3 -53.65 M226.6 -50.75 L226.6 -50.15 226.0 -50.15 226.0 -50.75 226.6 -50.75 M173.8 -64.5 Q173.3 -64.05 172.65 -64.05 172.0 -64.05 171.55 -64.5 171.05 -65.0 171.05 -65.7 171.05 -66.4 171.55 -66.85 172.0 -67.35 172.65 -67.35 173.3 -67.35 173.8 -66.85 L174.25 -65.7 Q174.25 -65.0 173.8 -64.5 M178.75 -66.4 Q179.35 -66.4 179.8 -65.95 L180.25 -64.9 Q180.25 -64.3 179.8 -63.85 179.35 -63.4 178.75 -63.4 178.15 -63.4 177.7 -63.85 177.25 -64.3 177.25 -64.9 177.25 -65.5 177.7 -65.95 178.15 -66.4 178.75 -66.4 M165.6 -53.25 Q165.05 -52.7 164.25 -52.7 163.45 -52.7 162.9 -53.25 162.35 -53.8 162.35 -54.55 162.35 -55.3 162.9 -55.85 163.45 -56.4 164.25 -56.4 165.05 -56.4 165.6 -55.85 166.15 -55.3 166.15 -54.55 166.15 -53.8 165.6 -53.25 M177.3 -50.95 L176.95 -52.95 183.95 -49.2 184.15 -48.45 183.15 -46.1 183.7 -45.15 182.85 -40.65 177.5 -40.8 176.4 -41.7 177.3 -43.95 180.6 -44.4 181.75 -46.6 180.35 -49.95 177.3 -50.95 M194.05 -49.8 L193.9 -49.1 192.45 -48.85 191.75 -48.25 191.55 -46.15 192.55 -45.0 190.9 -40.6 189.3 -46.05 185.6 -47.75 191.65 -48.55 192.9 -50.05 194.05 -49.8 M198.35 -44.5 L196.7 -45.1 201.25 -46.5 201.1 -45.0 198.35 -44.5 M200.65 -42.5 L201.1 -41.05 200.35 -41.3 200.65 -42.5 M193.5 -32.75 Q193.75 -33.0 194.1 -33.0 L194.7 -32.75 194.95 -32.2 194.7 -31.6 194.1 -31.4 193.5 -31.6 Q193.25 -31.85 193.25 -32.2 L193.5 -32.75 M194.0 -25.75 Q194.65 -25.75 195.1 -25.3 L195.55 -24.25 Q195.55 -23.65 195.1 -23.2 194.65 -22.75 194.0 -22.75 193.35 -22.75 192.9 -23.2 192.45 -23.65 192.45 -24.25 192.45 -24.85 192.9 -25.3 193.35 -25.75 194.0 -25.75 M168.75 -35.6 L170.35 -42.1 173.4 -33.05 172.7 -32.25 170.5 -32.65 168.75 -35.6 M164.65 -3.85 Q164.15 -3.35 163.45 -3.35 162.75 -3.35 162.3 -3.85 161.8 -4.35 161.8 -5.05 161.8 -5.75 162.3 -6.25 162.75 -6.75 163.45 -6.75 164.15 -6.75 164.65 -6.25 165.1 -5.75 165.1 -5.05 165.1 -4.35 164.65 -3.85 M208.85 -48.05 L208.55 -48.05 208.55 -48.35 208.85 -48.35 208.85 -48.05 M147.25 11.55 Q146.7 12.1 145.9 12.1 145.1 12.1 144.55 11.55 144.0 10.95 144.0 10.15 144.0 9.35 144.55 8.8 145.1 8.2 145.9 8.2 146.7 8.2 147.25 8.8 147.8 9.35 147.8 10.15 147.8 10.95 147.25 11.55 M105.0 6.15 Q105.45 4.65 106.1 4.65 106.75 4.65 107.25 6.15 107.7 7.65 107.7 9.75 107.7 11.85 107.25 13.35 106.75 14.85 106.1 14.85 105.45 14.85 105.0 13.35 104.5 11.85 104.5 9.75 104.5 7.65 105.0 6.15 M101.5 23.55 L98.5 17.45 104.55 17.45 101.5 23.55 M83.35 22.15 L83.55 22.15 83.45 22.45 83.35 22.15 M84.55 35.5 L84.4 35.9 83.95 36.05 83.55 35.9 83.35 35.5 83.55 35.1 Q83.7 34.95 83.95 34.95 L84.4 35.1 84.55 35.5 M84.05 48.25 L83.7 48.35 83.4 48.25 83.25 47.9 83.4 47.6 Q83.5 47.45 83.7 47.45 83.9 47.45 84.05 47.6 L84.15 47.9 84.05 48.25 M92.8 44.45 L92.65 44.1 Q92.65 43.9 92.8 43.75 92.95 43.6 93.2 43.6 93.45 43.6 93.6 43.75 L93.75 44.1 93.6 44.45 93.2 44.6 92.8 44.45 M99.85 45.1 L99.05 45.4 98.3 45.1 Q97.95 44.75 97.95 44.3 97.95 43.85 98.3 43.55 98.6 43.2 99.05 43.2 99.5 43.2 99.85 43.55 L100.15 44.3 99.85 45.1 M119.35 56.65 Q118.85 57.15 118.15 57.15 117.45 57.15 116.95 56.65 116.45 56.15 116.45 55.45 116.45 54.75 116.95 54.25 117.45 53.75 118.15 53.75 118.85 53.75 119.35 54.25 119.85 54.75 119.85 55.45 119.85 56.15 119.35 56.65 M92.55 70.95 L92.2 71.1 91.85 70.95 91.7 70.6 91.85 70.25 92.2 70.1 92.55 70.25 92.7 70.6 92.55 70.95 M46.2 15.95 L45.8 16.1 45.4 15.95 45.25 15.6 Q45.25 15.4 45.4 15.25 L45.8 15.1 46.2 15.25 46.35 15.6 46.2 15.95 M51.8 33.15 L51.8 33.45 51.6 33.45 51.6 33.15 51.8 33.15 M47.55 29.25 Q47.55 29.05 47.7 28.9 47.85 28.75 48.1 28.75 L48.5 28.9 48.65 29.25 48.5 29.6 48.1 29.75 47.7 29.6 47.55 29.25 M71.0 30.15 L70.15 30.45 69.3 30.15 Q68.95 29.8 68.95 29.3 68.95 28.8 69.3 28.5 69.65 28.15 70.15 28.15 70.65 28.15 71.0 28.5 71.35 28.8 71.35 29.3 L71.0 30.15 M67.6 41.5 L67.8 41.5 67.7 41.7 67.6 41.5 M29.8 10.0 Q29.25 10.55 28.5 10.55 27.75 10.55 27.25 10.0 26.7 9.45 26.7 8.7 26.7 7.95 27.25 7.4 27.75 6.85 28.5 6.85 29.25 6.85 29.8 7.4 30.3 7.95 30.3 8.7 30.3 9.45 29.8 10.0 M29.25 90.85 L29.25 91.3 28.9 91.3 28.9 90.85 29.25 90.85 M66.8 57.55 L66.5 57.65 66.25 57.55 66.1 57.25 66.25 57.0 66.5 56.85 Q66.65 56.85 66.8 57.0 L66.9 57.25 66.8 57.55 M47.6 73.5 L47.2 73.65 46.8 73.5 46.65 73.1 Q46.65 72.85 46.8 72.7 46.95 72.55 47.2 72.55 L47.6 72.7 47.75 73.1 47.6 73.5 M76.1 88.45 L75.75 88.6 75.4 88.45 75.25 88.1 Q75.25 87.9 75.4 87.75 75.55 87.6 75.75 87.6 75.95 87.6 76.1 87.75 L76.25 88.1 76.1 88.45 M65.65 109.95 L65.7 110.1 65.65 110.25 65.5 110.3 65.35 110.25 65.3 110.1 65.35 109.95 65.5 109.9 65.65 109.95 M52.55 111.65 L53.0 111.65 52.75 112.1 52.55 111.65 M21.85 103.7 L22.3 103.7 22.05 104.15 21.85 103.7 M109.75 109.7 L110.2 109.7 109.95 110.15 109.75 109.7 M-229.9 -13.2 L-229.4 -13.2 -229.65 -12.65 -229.9 -13.2 M-223.35 -13.0 L-222.75 -13.0 -222.75 -12.4 -223.35 -12.4 -223.35 -13.0 M-219.55 -10.0 L-219.7 -9.95 -219.85 -10.0 -219.9 -10.15 -219.85 -10.3 -219.7 -10.35 -219.55 -10.3 -219.5 -10.15 -219.55 -10.0 M-218.35 -3.8 L-218.0 -3.8 -218.0 -3.5 -218.35 -3.5 -218.35 -3.8 M-206.45 -7.25 Q-206.75 -7.0 -207.1 -7.0 -207.45 -7.0 -207.7 -7.25 L-208.0 -7.85 -207.7 -8.45 -207.1 -8.7 -206.45 -8.45 Q-206.2 -8.2 -206.2 -7.85 -206.2 -7.5 -206.45 -7.25 M-210.7 -4.55 L-210.3 -4.55 -210.5 -4.15 -210.7 -4.55 M-211.2 -0.05 L-211.35 0.35 -211.5 -0.05 -211.2 -0.05 M-203.0 -3.7 L-202.75 -4.25 -202.2 -4.5 -201.6 -4.25 -201.4 -3.7 -201.6 -3.1 -202.2 -2.9 -202.75 -3.1 -203.0 -3.7 M-207.05 -1.8 L-207.05 -1.5 -207.35 -1.5 -207.35 -1.8 -207.05 -1.8 M-188.7 -13.6 Q-189.15 -13.15 -189.8 -13.15 -190.45 -13.15 -190.9 -13.6 -191.35 -14.05 -191.35 -14.7 -191.35 -15.35 -190.9 -15.8 -190.45 -16.25 -189.8 -16.25 -189.15 -16.25 -188.7 -15.8 -188.25 -15.35 -188.25 -14.7 -188.25 -14.05 -188.7 -13.6 M-187.35 -0.9 L-187.85 0.1 -192.45 0.15 -193.25 -0.4 -189.2 -2.2 -187.35 -0.9 M-182.3 -8.9 L-177.2 -12.35 -174.8 -11.0 -175.45 -9.65 -180.75 -7.0 -182.45 -7.85 -182.3 -8.9 M-169.95 -13.1 Q-169.4 -12.55 -169.4 -11.8 -169.4 -11.05 -169.95 -10.5 -170.5 -9.95 -171.3 -9.95 -172.1 -9.95 -172.65 -10.5 -173.2 -11.05 -173.2 -11.8 -173.2 -12.55 -172.65 -13.1 -172.1 -13.65 -171.3 -13.65 -170.5 -13.65 -169.95 -13.1 M-176.3 -15.1 Q-176.8 -14.65 -177.45 -14.65 -178.1 -14.65 -178.55 -15.1 -179.05 -15.6 -179.05 -16.3 -179.05 -17.0 -178.55 -17.45 -178.1 -17.95 -177.45 -17.95 -176.8 -17.95 -176.3 -17.45 -175.85 -17.0 -175.85 -16.3 -175.85 -15.6 -176.3 -15.1 M-169.5 -8.5 L-165.9 -6.25 -161.2 -6.2 -163.5 -4.25 -166.0 -6.15 -169.15 -5.05 -170.7 -7.1 -169.5 -8.5 M-158.75 -16.25 Q-158.2 -15.7 -158.2 -14.9 -158.2 -14.1 -158.75 -13.55 -159.35 -13.0 -160.15 -13.0 -160.95 -13.0 -161.5 -13.55 -162.1 -14.1 -162.1 -14.9 -162.1 -15.7 -161.5 -16.25 -160.95 -16.8 -160.15 -16.8 -159.35 -16.8 -158.75 -16.25 M-154.6 -9.5 Q-154.05 -8.95 -154.05 -8.2 -154.05 -7.45 -154.6 -6.9 -155.15 -6.35 -155.95 -6.35 -156.75 -6.35 -157.3 -6.9 -157.85 -7.45 -157.85 -8.2 -157.85 -8.95 -157.3 -9.5 -156.75 -10.05 -155.95 -10.05 -155.15 -10.05 -154.6 -9.5 M-153.35 -2.6 Q-153.35 -3.4 -152.75 -3.95 -152.2 -4.55 -151.4 -4.55 -150.6 -4.55 -150.0 -3.95 -149.45 -3.4 -149.45 -2.6 -149.45 -1.8 -150.0 -1.2 -150.6 -0.65 -151.4 -0.65 -152.2 -0.65 -152.75 -1.2 -153.35 -1.8 -153.35 -2.6 M-136.6 -2.25 Q-136.05 -2.8 -135.25 -2.8 -134.45 -2.8 -133.9 -2.25 -133.35 -1.7 -133.35 -0.9 -133.35 -0.1 -133.9 0.45 -134.45 1.0 -135.25 1.0 -136.05 1.0 -136.6 0.45 -137.15 -0.1 -137.15 -0.9 -137.15 -1.7 -136.6 -2.25 M-20.35 20.75 L-20.35 21.05 -20.7 21.05 -20.7 20.75 -20.35 20.75 M-46.65 54.05 L-43.85 55.4 -40.8 60.5 -41.5 62.4 -40.1 64.8 -40.6 65.75 -42.85 64.9 -42.45 62.85 -52.3 52.05 -55.05 53.0 -56.05 52.65 -56.8 51.1 -54.65 47.85 -48.35 50.35 -46.65 54.05 M-54.65 66.35 Q-55.1 66.8 -55.75 66.8 -56.4 66.8 -56.85 66.35 -57.3 65.9 -57.3 65.25 -57.3 64.6 -56.85 64.15 -56.4 63.7 -55.75 63.7 -55.1 63.7 -54.65 64.15 -54.2 64.6 -54.2 65.25 -54.2 65.9 -54.65 66.35 M-57.15 71.1 Q-57.45 71.4 -57.9 71.4 L-58.65 71.1 -58.95 70.4 -58.65 69.7 Q-58.35 69.4 -57.9 69.4 -57.45 69.4 -57.15 69.7 -56.85 70.0 -56.85 70.4 -56.85 70.8 -57.15 71.1 M-47.05 67.1 L-45.0 82.35 -41.95 84.75 -42.35 88.0 -42.9 88.7 -43.8 88.55 -45.95 83.45 -49.6 82.65 -50.9 85.6 -51.85 85.95 -52.5 86.75 -57.3 83.95 -58.0 86.2 -61.4 88.35 -63.5 87.1 -62.95 83.15 -57.75 83.5 -56.9 81.1 -54.7 80.85 -53.75 81.9 -52.0 82.3 -50.85 81.35 -51.65 76.65 -55.35 74.8 -49.2 72.35 -47.05 67.1 M-61.7 67.55 L-60.85 68.95 -62.75 68.8 -62.8 67.9 -61.7 67.55 M-61.0 89.95 L-60.35 91.5 -61.1 91.25 -61.0 89.95 M-68.65 91.95 L-66.5 93.1 -66.05 94.55 -63.1 96.1 -62.85 98.0 -64.95 98.15 -67.05 95.05 -70.1 95.05 -70.6 92.75 -68.65 91.95 M-58.4 75.65 Q-58.4 76.1 -58.7 76.45 L-59.5 76.75 -60.25 76.45 Q-60.6 76.1 -60.6 75.65 -60.6 75.2 -60.25 74.9 -59.95 74.55 -59.5 74.55 -59.05 74.55 -58.7 74.9 -58.4 75.2 -58.4 75.65 M-54.3 97.25 L-51.65 98.9 -51.2 100.75 -49.15 102.55 -50.9 105.25 -54.75 98.9 -54.3 97.25 M-47.8 92.85 L-45.75 94.45 -46.75 95.15 -48.15 95.15 -49.0 93.8 -47.8 92.85 M-41.0 94.0 Q-41.0 93.4 -40.55 92.95 -40.1 92.5 -39.45 92.5 -38.8 92.5 -38.35 92.95 -37.9 93.4 -37.9 94.0 -37.9 94.6 -38.35 95.05 -38.8 95.5 -39.45 95.5 -40.1 95.5 -40.55 95.05 -41.0 94.6 -41.0 94.0 M-17.9 61.15 L-21.25 63.6 -24.65 62.8 -26.2 64.15 -32.0 63.05 -32.2 66.15 -30.85 66.8 -28.25 71.7 -29.3 74.0 -30.45 73.95 -32.6 66.4 -36.9 64.65 -19.55 58.2 -17.95 58.8 -17.9 61.15 M-26.85 55.5 Q-27.4 56.05 -28.2 56.05 -29.0 56.05 -29.55 55.5 -30.1 54.95 -30.1 54.15 -30.1 53.35 -29.55 52.8 -29.0 52.25 -28.2 52.25 -27.4 52.25 -26.85 52.8 -26.3 53.35 -26.3 54.15 -26.3 54.95 -26.85 55.5 M-36.35 71.25 Q-36.8 71.65 -37.4 71.65 -38.0 71.65 -38.4 71.25 L-38.85 70.2 Q-38.85 69.6 -38.4 69.2 -38.0 68.75 -37.4 68.75 -36.8 68.75 -36.35 69.2 -35.95 69.6 -35.95 70.2 -35.95 70.8 -36.35 71.25 M-35.15 82.35 L-34.95 82.35 -35.05 82.55 -35.15 82.35 M-3.35 84.6 L-3.15 84.6 -3.25 84.8 -3.35 84.6 M-120.0 29.5 Q-119.45 30.05 -119.45 30.85 -119.45 31.65 -120.0 32.25 -120.6 32.8 -121.45 32.8 -122.3 32.8 -122.85 32.25 -123.45 31.65 -123.45 30.85 -123.45 30.05 -122.85 29.5 -122.3 28.9 -121.45 28.9 -120.6 28.9 -120.0 29.5 M-113.05 35.65 Q-112.55 36.15 -112.55 36.85 -112.55 37.55 -113.05 38.1 -113.6 38.6 -114.3 38.6 -115.0 38.6 -115.5 38.1 -116.05 37.55 -116.05 36.85 -116.05 36.15 -115.5 35.65 -115.0 35.1 -114.3 35.1 -113.6 35.1 -113.05 35.65 M-113.75 46.65 Q-114.2 47.1 -114.85 47.1 -115.5 47.1 -115.95 46.65 -116.4 46.15 -116.4 45.5 -116.4 44.85 -115.95 44.4 -115.5 43.9 -114.85 43.9 -114.2 43.9 -113.75 44.4 -113.3 44.85 -113.3 45.5 -113.3 46.15 -113.75 46.65 M-108.05 42.9 Q-107.35 42.9 -106.8 43.3 -106.3 43.7 -106.3 44.25 -106.3 44.8 -106.8 45.2 -107.35 45.6 -108.05 45.6 -108.75 45.6 -109.25 45.2 -109.8 44.8 -109.8 44.25 -109.8 43.7 -109.25 43.3 -108.75 42.9 -108.05 42.9 M-94.7 30.6 L-94.5 30.6 -94.6 30.8 -94.7 30.6 M-91.3 44.0 L-91.65 44.1 -91.95 44.0 -92.1 43.65 -91.95 43.35 -91.65 43.2 Q-91.45 43.2 -91.3 43.35 L-91.2 43.65 -91.3 44.0 M-90.3 39.1 L-90.1 39.1 -90.2 39.3 -90.3 39.1 M-128.75 10.8 Q-128.05 10.8 -127.55 11.3 -127.05 11.8 -127.05 12.5 -127.05 13.2 -127.55 13.7 -128.05 14.2 -128.75 14.2 -129.45 14.2 -129.95 13.7 -130.45 13.2 -130.45 12.5 -130.45 11.8 -129.95 11.3 -129.45 10.8 -128.75 10.8 M-141.2 6.25 Q-141.8 7.3 -142.65 7.3 -143.5 7.3 -144.05 6.25 -144.65 5.2 -144.65 3.7 -144.65 2.2 -144.05 1.15 -143.5 0.1 -142.65 0.1 -141.8 0.1 -141.2 1.15 -140.65 2.2 -140.65 3.7 -140.65 5.2 -141.2 6.25 M-123.95 23.65 L-125.65 24.35 -131.35 22.5 -124.45 21.45 -123.95 23.65 M-155.8 23.8 Q-156.35 24.3 -157.1 24.3 -157.85 24.3 -158.4 23.8 -158.95 23.25 -158.95 22.5 -158.95 21.75 -158.4 21.25 -157.85 20.7 -157.1 20.7 -156.35 20.7 -155.8 21.25 -155.25 21.75 -155.25 22.5 -155.25 23.25 -155.8 23.8 M-160.05 33.6 Q-159.55 33.05 -158.85 33.05 -158.15 33.05 -157.6 33.6 -157.1 34.1 -157.1 34.8 -157.1 35.5 -157.6 36.05 -158.15 36.55 -158.85 36.55 -159.55 36.55 -160.05 36.05 -160.6 35.5 -160.6 34.8 -160.6 34.1 -160.05 33.6 M-160.45 46.65 Q-161.0 47.2 -161.75 47.2 -162.5 47.2 -163.05 46.65 -163.6 46.1 -163.6 45.35 -163.6 44.6 -163.05 44.05 -162.5 43.5 -161.75 43.5 -161.0 43.5 -160.45 44.05 -159.9 44.6 -159.9 45.35 -159.9 46.1 -160.45 46.65 M-153.55 40.0 Q-154.1 39.45 -154.1 38.75 -154.1 38.05 -153.55 37.55 -153.05 37.0 -152.35 37.0 -151.65 37.0 -151.1 37.55 -150.6 38.05 -150.6 38.75 -150.6 39.45 -151.1 40.0 -151.65 40.5 -152.35 40.5 -153.05 40.5 -153.55 40.0 M-140.8 28.45 Q-140.35 28.0 -139.75 28.0 -139.15 28.0 -138.7 28.45 -138.25 28.9 -138.25 29.5 -138.25 30.1 -138.7 30.55 -139.15 31.0 -139.75 31.0 -140.35 31.0 -140.8 30.55 L-141.25 29.5 Q-141.25 28.9 -140.8 28.45 M-137.4 32.2 L-134.7 33.9 -135.2 35.5 -136.95 35.45 -137.4 32.2 M-129.3 48.25 Q-128.6 48.25 -128.05 48.75 -127.55 49.25 -127.55 49.95 -127.55 50.65 -128.05 51.15 -128.6 51.65 -129.3 51.65 -130.0 51.65 -130.5 51.15 -131.05 50.65 -131.05 49.95 -131.05 49.25 -130.5 48.75 -130.0 48.25 -129.3 48.25 M-129.75 59.75 Q-129.2 60.3 -129.2 61.1 -129.2 61.9 -129.75 62.45 -130.3 63.0 -131.1 63.0 -131.9 63.0 -132.45 62.45 -133.0 61.9 -133.0 61.1 -133.0 60.3 -132.45 59.75 -131.9 59.2 -131.1 59.2 -130.3 59.2 -129.75 59.75 M-145.6 59.65 Q-145.1 59.1 -144.35 59.1 -143.6 59.1 -143.05 59.65 -142.55 60.15 -142.55 60.9 -142.55 61.65 -143.05 62.2 -143.6 62.7 -144.35 62.7 -145.1 62.7 -145.6 62.2 -146.15 61.65 -146.15 60.9 -146.15 60.15 -145.6 59.65 M-144.05 66.45 Q-143.3 66.45 -142.75 67.0 -142.2 67.5 -142.2 68.25 -142.2 69.0 -142.75 69.55 -143.3 70.05 -144.05 70.05 -144.8 70.05 -145.35 69.55 -145.9 69.0 -145.9 68.25 -145.9 67.5 -145.35 67.0 -144.8 66.45 -144.05 66.45 M-81.9 57.8 L-81.9 58.1 -82.1 58.1 -82.1 57.8 -81.9 57.8 M-99.4 66.8 Q-99.1 66.45 -98.6 66.45 -98.1 66.45 -97.75 66.8 -97.45 67.1 -97.45 67.6 -97.45 68.1 -97.75 68.45 L-98.6 68.75 Q-99.1 68.75 -99.4 68.45 L-99.75 67.6 Q-99.75 67.1 -99.4 66.8 M-104.65 54.45 Q-105.4 54.45 -105.95 53.95 -106.5 53.4 -106.5 52.65 -106.5 51.9 -105.95 51.4 -105.4 50.85 -104.65 50.85 -103.9 50.85 -103.35 51.4 -102.8 51.9 -102.8 52.65 -102.8 53.4 -103.35 53.95 -103.9 54.45 -104.65 54.45 M-118.1 55.3 Q-118.65 55.85 -119.45 55.85 -120.25 55.85 -120.8 55.3 -121.35 54.75 -121.35 53.95 -121.35 53.15 -120.8 52.6 -120.25 52.05 -119.45 52.05 -118.65 52.05 -118.1 52.6 -117.55 53.15 -117.55 53.95 -117.55 54.75 -118.1 55.3 M-105.95 74.85 L-102.05 72.25 -97.2 74.75 -103.95 77.5 -106.0 76.5 -105.95 74.85 M-115.2 83.5 Q-115.75 84.0 -116.45 84.0 -117.15 84.0 -117.65 83.5 -118.2 83.0 -118.2 82.3 -118.2 81.6 -117.65 81.1 -117.15 80.6 -116.45 80.6 -115.75 80.6 -115.2 81.1 -114.7 81.6 -114.7 82.3 -114.7 83.0 -115.2 83.5 M-82.35 80.9 L-82.65 80.8 -82.8 80.5 -82.65 80.25 -82.35 80.1 Q-82.15 80.1 -82.0 80.25 L-81.9 80.5 -82.0 80.8 -82.35 80.9 M-81.65 95.5 L-82.0 95.65 -82.35 95.5 -82.5 95.15 -82.35 94.8 -82.0 94.65 Q-81.8 94.65 -81.65 94.8 L-81.5 95.15 -81.65 95.5 M-82.55 101.35 Q-82.55 100.6 -82.0 100.05 -81.45 99.5 -80.7 99.5 -79.95 99.5 -79.4 100.05 -78.85 100.6 -78.85 101.35 -78.85 102.1 -79.4 102.65 -79.95 103.2 -80.7 103.2 -81.45 103.2 -82.0 102.65 -82.55 102.1 -82.55 101.35 M-96.4 115.05 L-97.2 115.35 -97.95 115.05 -98.3 114.25 Q-98.3 113.8 -97.95 113.5 -97.65 113.15 -97.2 113.15 -96.75 113.15 -96.4 113.5 -96.1 113.8 -96.1 114.25 -96.1 114.7 -96.4 115.05 M-81.65 124.85 L-81.75 124.65 -81.65 124.45 -81.4 124.35 -81.15 124.45 -81.05 124.65 -81.15 124.85 -81.4 124.95 -81.65 124.85 M-89.95 136.8 L-90.1 137.15 -90.5 137.3 -90.9 137.15 -91.05 136.8 -90.9 136.45 Q-90.75 136.3 -90.5 136.3 -90.25 136.3 -90.1 136.45 -89.95 136.6 -89.95 136.8 M-28.25 127.65 Q-27.75 127.1 -27.0 127.1 -26.25 127.1 -25.7 127.65 -25.2 128.2 -25.2 128.95 -25.2 129.7 -25.7 130.25 -26.25 130.8 -27.0 130.8 -27.75 130.8 -28.25 130.25 -28.8 129.7 -28.8 128.95 -28.8 128.2 -28.25 127.65 M-38.95 141.45 L-38.45 141.45 -38.7 141.9 -38.95 141.45 M-44.6 100.3 L-44.35 100.2 -44.05 100.3 -43.95 100.55 -44.05 100.8 -44.35 100.9 -44.6 100.8 -44.75 100.55 -44.6 100.3 M-49.2 110.85 Q-49.7 111.35 -50.4 111.35 -51.1 111.35 -51.55 110.85 -52.05 110.35 -52.05 109.65 -52.05 108.95 -51.55 108.45 -51.1 107.95 -50.4 107.95 -49.7 107.95 -49.2 108.45 -48.75 108.95 -48.75 109.65 -48.75 110.35 -49.2 110.85 M-46.1 114.1 L-46.45 114.25 -46.75 114.1 -46.9 113.75 -46.75 113.4 -46.45 113.25 -46.1 113.4 -46.0 113.75 -46.1 114.1 M-78.25 119.25 L-78.65 119.4 -79.05 119.25 -79.2 118.85 -79.05 118.45 Q-78.9 118.3 -78.65 118.3 -78.4 118.3 -78.25 118.45 -78.1 118.6 -78.1 118.85 L-78.25 119.25 M-69.4 128.35 Q-69.05 128.0 -68.55 128.0 -68.05 128.0 -67.7 128.35 -67.35 128.7 -67.35 129.2 -67.35 129.7 -67.7 130.05 -68.05 130.4 -68.55 130.4 -69.05 130.4 -69.4 130.05 L-69.75 129.2 Q-69.75 128.7 -69.4 128.35 M-73.75 135.05 L-74.1 135.2 -74.4 135.05 -74.55 134.7 -74.4 134.35 Q-74.3 134.2 -74.1 134.2 -73.9 134.2 -73.75 134.35 L-73.65 134.7 -73.75 135.05 M-63.75 138.3 L-63.95 137.9 -63.55 137.9 -63.75 138.3 M-50.15 134.1 L-50.5 134.25 -50.85 134.1 -51.0 133.75 -50.85 133.4 -50.5 133.25 Q-50.3 133.25 -50.15 133.4 L-50.0 133.75 -50.15 134.1 M-53.25 138.8 Q-53.0 138.8 -52.85 138.95 L-52.7 139.3 -52.85 139.65 -53.25 139.8 -53.65 139.65 -53.8 139.3 -53.65 138.95 Q-53.5 138.8 -53.25 138.8 M-46.0 142.1 L-45.55 142.1 -45.8 142.55 -46.0 142.1 M-45.15 149.95 L-45.55 150.1 -45.95 149.95 -46.1 149.6 -45.95 149.25 -45.55 149.1 Q-45.3 149.1 -45.15 149.25 -45.0 149.4 -45.0 149.6 L-45.15 149.95 M-64.45 150.55 L-64.85 150.7 -65.25 150.55 -65.4 150.15 -65.25 149.75 Q-65.1 149.6 -64.85 149.6 L-64.45 149.75 -64.3 150.15 -64.45 150.55 M-27.2 157.0 L-27.2 157.3 -27.5 157.3 -27.5 157.0 -27.2 157.0 M-167.65 10.55 L-170.0 15.2 -172.05 14.35 -172.15 13.4 -168.7 9.55 -167.65 10.55 M-175.55 5.0 L-179.1 5.85 -181.0 10.15 -182.4 6.35 -178.45 4.35 -177.95 2.6 -175.5 2.95 -175.55 5.0 M-163.55 23.8 Q-162.8 23.8 -162.25 24.35 -161.7 24.85 -161.7 25.6 -161.7 26.35 -162.25 26.9 -162.8 27.4 -163.55 27.4 -164.3 27.4 -164.85 26.9 -165.4 26.35 -165.4 25.6 -165.4 24.85 -164.85 24.35 -164.3 23.8 -163.55 23.8 M-188.3 12.0 Q-188.3 13.2 -189.15 14.05 -190.0 14.9 -191.2 14.9 -192.4 14.9 -193.25 14.05 -194.1 13.2 -194.1 12.0 -194.1 10.8 -193.25 9.95 -192.4 9.1 -191.2 9.1 -190.0 9.1 -189.15 9.95 -188.3 10.8 -188.3 12.0 M-200.2 6.55 Q-199.95 6.25 -199.6 6.25 -199.25 6.25 -199.0 6.55 -198.75 6.8 -198.75 7.15 L-199.0 7.8 -199.6 8.05 -200.2 7.8 -200.45 7.15 -200.2 6.55 M-200.0 18.0 Q-199.8 17.75 -199.45 17.75 -199.1 17.75 -198.85 18.0 L-198.65 18.5 -198.85 19.05 Q-199.1 19.25 -199.45 19.25 L-200.0 19.05 -200.25 18.5 -200.0 18.0 M-214.05 6.8 L-214.05 7.1 -214.35 7.1 -214.35 6.8 -214.05 6.8" fill="#ccffff" fill-rule="evenodd" stroke="none"/>
  </g>
</svg>
