<?xml version="1.0" encoding="UTF-8" standalone="no"?>
<svg xmlns:xlink="http://www.w3.org/1999/xlink" height="424.6px" width="85.9px" xmlns="http://www.w3.org/2000/svg">
  <g transform="matrix(1.0, 0.0, 0.0, 1.0, 69.25, 3.3)">
    <path d="M-60.4 392.05 L-56.7 385.6 -55.2 383.3 -50.0 375.55 -47.8 372.4 -38.3 359.7 Q-33.1 352.9 -29.6 346.5 L-26.6 340.5 -24.35 334.9 -23.2 331.45 -21.7 326.15 -20.85 322.45 -19.8 316.3 -19.0 316.3 -18.35 312.05 Q-17.8 307.9 -17.95 303.85 -18.2 299.25 -19.3 294.8 L-19.65 293.4 Q-21.75 286.2 -26.2 279.75 L-26.25 279.7 -26.75 278.95 Q-31.05 272.65 -33.25 266.4 -34.85 261.85 -35.75 257.0 L-37.0 257.0 -37.0 256.95 -38.95 256.95 -39.7 253.6 -39.9 253.65 Q-40.9 250.1 -41.3 246.35 -41.8 242.0 -41.5 237.4 L-41.45 236.85 Q-40.9 228.5 -38.05 220.95 -36.55 216.95 -34.65 213.2 -32.7 209.3 -30.35 205.6 L-28.85 203.3 -21.45 192.4 -14.75 183.3 -11.95 179.7 Q-6.75 172.9 -3.25 166.5 0.6 159.5 3.15 151.45 L4.65 146.15 5.5 142.45 6.65 135.55 Q7.8 126.6 5.7 118.3 L5.35 116.9 Q3.25 109.7 -1.2 103.25 L-1.25 103.2 -1.75 102.45 Q-6.05 96.15 -8.25 89.9 -9.9 85.25 -10.8 80.3 L-11.2 77.9 -7.4 77.9 -6.95 80.3 Q-6.15 84.15 -4.2 87.55 -0.3 94.35 3.35 101.45 6.95 108.45 9.7 116.2 12.45 124.15 11.65 133.3 10.9 141.45 8.5 149.6 6.0 158.15 2.65 164.75 -1.15 172.2 -5.95 178.55 L-9.4 183.3 Q-12.05 187.05 -14.35 191.1 -18.2 197.65 -23.5 203.95 -27.15 208.25 -29.6 213.2 L-31.55 217.85 Q-34.35 225.5 -35.3 233.65 L-35.55 236.85 Q-35.8 243.05 -34.35 250.1 L-34.15 251.4 Q-32.85 254.7 -32.7 255.4 L-32.4 256.95 -32.5 256.95 -32.5 257.0 -31.95 257.0 Q-31.1 260.75 -29.2 264.05 -25.3 270.85 -21.65 277.95 -18.05 284.95 -15.3 292.7 -13.45 298.0 -13.2 303.85 -13.1 306.75 -13.35 309.8 -13.65 313.05 -14.2 316.3 L-15.0 316.3 Q-15.9 322.95 -17.85 329.6 L-19.85 335.85 -21.7 340.5 -23.7 344.75 Q-27.5 352.2 -32.3 358.55 -36.9 364.5 -40.7 371.1 L-43.5 375.55 Q-46.35 379.8 -48.8 387.25 -49.95 390.8 -51.45 392.05 -53.2 393.45 -55.35 392.05 L-60.4 392.05" fill="#c6cdb4" fill-rule="evenodd" stroke="none"/>
    <path d="M-51.45 392.05 Q-49.95 390.8 -48.8 387.25 -46.35 379.8 -43.5 375.55 L-40.7 371.1 Q-36.9 364.5 -32.3 358.55 -27.5 352.2 -23.7 344.75 L-21.7 340.5 -19.85 335.85 -17.85 329.6 Q-15.9 322.95 -15.0 316.3 L-14.2 316.3 Q-13.65 313.05 -13.35 309.8 -13.1 306.75 -13.2 303.85 -13.45 298.0 -15.3 292.7 -18.05 284.95 -21.65 277.95 -25.3 270.85 -29.2 264.05 -31.1 260.75 -31.95 257.0 L-32.5 257.0 -32.5 256.95 -32.4 256.95 -32.7 255.4 Q-32.85 254.7 -34.15 251.4 L-34.35 250.1 Q-35.8 243.05 -35.55 236.85 L-35.3 233.65 Q-34.35 225.5 -31.55 217.85 L-29.6 213.2 Q-27.15 208.25 -23.5 203.95 -18.2 197.65 -14.35 191.1 -12.05 187.05 -9.4 183.3 L-5.95 178.55 Q-1.15 172.2 2.65 164.75 6.0 158.15 8.5 149.6 10.9 141.45 11.65 133.3 12.45 124.15 9.7 116.2 6.95 108.45 3.35 101.45 -0.3 94.35 -4.2 87.55 -6.15 84.15 -6.95 80.3 L-7.4 77.9 -11.2 77.9 -10.8 80.3 Q-9.9 85.25 -8.25 89.9 -6.05 96.15 -1.75 102.45 L-1.25 103.2 -1.2 103.25 Q3.25 109.7 5.35 116.9 L5.7 118.3 Q7.8 126.6 6.65 135.55 L5.5 142.45 4.65 146.15 3.15 151.45 Q0.6 159.5 -3.25 166.5 -6.75 172.9 -11.95 179.7 L-14.75 183.3 -21.45 192.4 -28.85 203.3 -30.35 205.6 Q-32.7 209.3 -34.65 213.2 -36.55 216.95 -38.05 220.95 -40.9 228.5 -41.45 236.85 L-41.5 237.4 Q-41.8 242.0 -41.3 246.35 -40.9 250.1 -39.9 253.65 L-39.7 253.6 -38.95 256.95 -37.0 256.95 -37.0 257.0 -35.75 257.0 Q-34.85 261.85 -33.25 266.4 -31.05 272.65 -26.75 278.95 L-26.25 279.7 -26.2 279.75 Q-21.75 286.2 -19.65 293.4 L-19.3 294.8 Q-18.2 299.25 -17.95 303.85 -17.8 307.9 -18.35 312.05 L-19.0 316.3 -19.8 316.3 -20.85 322.45 -21.7 326.15 -23.2 331.45 -24.35 334.9 -26.6 340.5 -29.6 346.5 Q-33.1 352.9 -38.3 359.7 L-47.8 372.4 -50.0 375.55 -55.2 383.3 -56.7 385.6 -60.4 392.05 -62.75 392.05 -58.1 384.7 -58.1 384.65 -56.6 382.45 -56.55 382.4 -52.1 375.55 -49.7 371.3 -48.55 369.05 Q-45.0 361.9 -40.05 355.65 -35.65 350.1 -31.45 343.3 L-29.75 340.5 Q-26.85 335.5 -24.75 330.7 L-24.2 329.3 -23.45 327.25 -23.4 327.2 -23.0 325.85 -22.15 322.15 Q-21.65 319.35 -21.55 316.3 L-20.45 316.3 -20.15 312.0 -20.15 310.7 Q-20.15 307.15 -20.45 303.85 -21.0 298.7 -22.3 294.15 -24.35 286.75 -28.1 280.85 L-28.55 280.15 -28.6 280.1 Q-32.9 273.6 -37.0 266.75 -39.5 262.6 -40.25 257.0 L-40.85 257.0 -40.85 256.95 -40.75 256.95 -40.95 254.9 -40.9 254.9 Q-40.8 254.45 -42.1 252.75 -42.25 250.9 -42.65 249.3 -43.75 245.35 -43.9 240.9 L-43.9 236.85 -43.4 230.9 Q-42.75 225.35 -41.65 222.65 L-40.5 219.9 -38.7 216.15 -37.05 213.2 Q-34.6 208.85 -31.75 204.7 L-31.75 204.65 -30.25 202.45 -30.2 202.4 Q-26.25 196.75 -23.35 191.3 L-22.2 189.05 -19.0 183.3 Q-16.6 179.3 -13.7 175.65 -9.3 170.1 -5.1 163.3 -1.1 156.8 1.6 150.7 L2.15 149.3 3.35 145.85 4.2 142.15 Q4.75 138.95 4.85 135.5 L4.85 134.2 Q4.85 125.1 2.7 117.65 0.65 110.25 -3.1 104.35 L-3.55 103.65 -3.6 103.6 -12.0 90.25 Q-14.55 86.05 -15.25 80.3 L-15.4 78.8 -15.35 78.8 -15.15 77.9 -15.6 77.9 -18.25 78.5 -18.25 78.4 Q-18.3 78.3 -18.6 78.55 -16.6 71.85 -16.6 61.1 -14.95 49.95 -15.5 34.55 L-18.45 -2.8 Q-6.25 23.7 -6.05 54.55 L-4.65 74.95 -4.6 74.95 -3.3 80.3 Q0.4 93.4 6.35 97.15 22.8 128.35 11.65 154.05 7.7 163.55 -4.45 183.3 L-20.95 209.05 -24.2 213.2 Q-31.8 224.05 -32.1 236.85 -32.3 243.7 -30.35 251.1 L-30.7 250.5 -29.0 256.95 -28.95 257.0 -28.25 257.0 Q-27.1 261.05 -25.75 264.2 L-23.1 269.1 Q-21.05 272.15 -18.65 273.65 -2.35 304.6 -13.15 330.15 L-14.7 334.05 Q-19.8 346.3 -38.5 375.55 L-47.3 389.05 -49.7 392.05 -51.45 392.05 M-10.3 316.3 Q-10.85 323.4 -13.15 330.15 -10.85 323.4 -10.3 316.3" fill="#a8b38c" fill-rule="evenodd" stroke="none"/>
    <path d="M-18.25 78.5 L-15.6 77.9 -15.15 77.9 -15.35 78.8 -15.4 78.8 -15.25 80.3 Q-14.55 86.05 -12.0 90.25 L-3.6 103.6 -3.55 103.65 -3.1 104.35 Q0.65 110.25 2.7 117.65 4.85 125.1 4.85 134.2 L4.85 135.5 Q4.75 138.95 4.2 142.15 L3.35 145.85 2.15 149.3 1.6 150.7 Q-1.1 156.8 -5.1 163.3 -9.3 170.1 -13.7 175.65 -16.6 179.3 -19.0 183.3 L-22.2 189.05 -23.35 191.3 Q-26.25 196.75 -30.2 202.4 L-30.25 202.45 -31.75 204.65 -31.75 204.7 Q-34.6 208.85 -37.05 213.2 L-38.7 216.15 -40.5 219.9 -41.65 222.65 Q-42.75 225.35 -43.4 230.9 L-43.9 236.85 -43.9 240.9 Q-43.75 245.35 -42.65 249.3 -42.25 250.9 -42.1 252.75 -40.8 254.45 -40.9 254.9 L-40.95 254.9 -40.75 256.95 -40.85 256.95 -40.85 257.0 -40.25 257.0 Q-39.5 262.6 -37.0 266.75 -32.9 273.6 -28.6 280.1 L-28.55 280.15 -28.1 280.85 Q-24.35 286.75 -22.3 294.15 -21.0 298.7 -20.45 303.85 -20.15 307.15 -20.15 310.7 L-20.15 312.0 -20.45 316.3 -21.55 316.3 Q-21.65 319.35 -22.15 322.15 L-23.0 325.85 -23.4 327.2 -23.45 327.25 -24.2 329.3 -24.75 330.7 Q-26.85 335.5 -29.75 340.5 L-31.45 343.3 Q-35.65 350.1 -40.05 355.65 -45.0 361.9 -48.55 369.05 L-49.7 371.3 -52.1 375.55 -56.55 382.4 -56.6 382.45 -58.1 384.65 -58.1 384.7 -62.75 392.05 -65.2 392.05 -61.8 385.9 -33.1 340.5 -33.95 340.5 -30.55 335.1 Q-28.05 331.05 -26.3 327.0 -24.45 321.65 -23.95 316.3 L-23.05 316.3 Q-22.0 310.1 -22.65 303.85 L-23.3 303.85 -23.35 303.35 -23.4 302.95 -23.55 302.6 Q-28.5 286.85 -31.4 282.15 L-32.6 280.9 -32.25 281.5 Q-39.7 271.25 -43.15 257.8 L-43.4 257.0 -44.0 255.2 Q-46.7 246.2 -46.05 236.85 -45.3 225.3 -39.4 213.2 L-35.45 205.9 -5.55 158.6 Q10.95 132.0 -5.9 104.45 -13.95 96.75 -17.8 80.3 L-17.9 80.0 -18.1 79.0 -18.2 79.0 -18.25 78.85 -18.2 79.0 -18.25 79.0 -18.25 78.85 -18.25 78.5 -18.6 78.55 Q-18.3 78.3 -18.25 78.4 L-18.25 78.5 M-42.75 257.0 Q-38.9 273.3 -30.9 280.95 -23.85 292.5 -22.65 303.85 -23.85 292.5 -30.9 280.95 -38.9 273.3 -42.75 257.0 M-26.3 327.0 Q-28.3 332.8 -31.9 338.6 L-33.1 340.5 -31.9 338.6 Q-28.3 332.8 -26.3 327.0" fill="#899865" fill-rule="evenodd" stroke="none"/>
    <path d="M-49.7 392.05 L-47.3 389.05 -38.5 375.55 Q-19.8 346.3 -14.7 334.05 L-13.15 330.15 Q-10.85 323.4 -10.3 316.3 M-18.25 78.5 L-18.25 78.85 -18.2 79.0 -17.9 80.0 -17.8 80.3 Q-13.95 96.75 -5.9 104.45 10.95 132.0 -5.55 158.6 L-35.45 205.9 -39.4 213.2 Q-45.3 225.3 -46.05 236.85 -46.7 246.2 -44.0 255.2 L-43.4 257.0 -43.15 257.8 Q-39.7 271.25 -32.25 281.5 M-18.1 79.0 L-17.9 80.0 M-32.6 280.9 L-31.4 282.15 Q-28.5 286.85 -23.55 302.6 L-23.4 302.95 -23.35 303.35 -23.3 303.85 M-22.65 303.85 Q-23.85 292.5 -30.9 280.95 -38.9 273.3 -42.75 257.0 M-4.6 74.95 L-3.3 80.3 Q0.4 93.4 6.35 97.15 22.8 128.35 11.65 154.05 7.7 163.55 -4.45 183.3 L-20.95 209.05 -24.2 213.2 Q-31.8 224.05 -32.1 236.85 -32.3 243.7 -30.35 251.1 M-30.7 250.5 L-29.0 256.95 -28.95 257.0 M-28.25 257.0 Q-27.1 261.05 -25.75 264.2 L-23.1 269.1 Q-21.05 272.15 -18.65 273.65 -2.35 304.6 -13.15 330.15 M-18.6 78.55 Q-16.6 71.85 -16.6 61.1 -14.95 49.95 -15.5 34.55 L-18.45 -2.8 Q-6.25 23.7 -6.05 54.55 L-4.65 74.95 M-18.6 78.55 Q-18.3 78.3 -18.25 78.4 L-18.25 78.5 M-23.05 316.3 Q-22.0 310.1 -22.65 303.85 M-33.1 340.5 L-31.9 338.6 Q-28.3 332.8 -26.3 327.0 -28.05 331.05 -30.55 335.1 L-33.95 340.5 M-26.3 327.0 Q-24.45 321.65 -23.95 316.3 M-65.2 392.05 L-61.8 385.9 -33.1 340.5" fill="none" stroke="#5f6150" stroke-linecap="round" stroke-linejoin="round" stroke-width="1.0"/>
    <path d="M-61.25 389.2 L-61.35 389.65 Q-62.4 394.1 -61.9 398.7 -61.1 406.4 -55.1 408.1 -53.7 408.5 -52.7 407.65 -54.85 416.6 -58.7 419.5 -62.4 422.35 -66.55 419.05 -70.75 416.4 -66.9 398.75 L-64.75 392.0 Q-63.6 391.35 -63.1 389.25 L-63.05 388.8 -61.25 389.2 M-63.15 406.8 Q-63.35 405.7 -63.9 405.6 -64.4 405.5 -64.95 406.45 -65.5 407.4 -65.75 408.95 L-65.9 411.45 -65.45 412.55 -65.1 412.7 Q-64.65 412.8 -64.1 411.85 L-63.5 410.55 -63.25 409.45 Q-63.0 407.95 -63.15 406.8" fill="#899865" fill-rule="evenodd" stroke="none"/>
    <path d="M-52.7 407.65 Q-53.7 408.5 -55.1 408.1 -61.1 406.4 -61.9 398.7 -62.4 394.1 -61.35 389.65 L-61.25 389.2 -57.65 390.85 Q-57.75 394.4 -56.35 397.6 -53.85 403.4 -51.25 394.15 L-50.75 392.4 -50.7 392.25 -50.6 391.7 -49.6 392.0 -49.75 392.45 -50.95 396.95 Q-51.6 403.05 -52.7 407.65" fill="#a8b38c" fill-rule="evenodd" stroke="none"/>
    <path d="M-50.75 392.4 L-51.25 394.15 Q-53.85 403.4 -56.35 397.6 -57.75 394.4 -57.65 390.85 L-57.65 390.6 -56.7 391.3 -50.75 392.4" fill="#c6cdb4" fill-rule="evenodd" stroke="none"/>
    <path d="M-63.15 406.8 Q-63.0 407.95 -63.25 409.45 L-63.5 410.55 -64.1 411.85 Q-64.65 412.8 -65.1 412.7 L-65.45 412.55 -65.9 411.45 -65.75 408.95 Q-65.5 407.4 -64.95 406.45 -64.4 405.5 -63.9 405.6 -63.35 405.7 -63.15 406.8" fill="url(#gradient0)" fill-rule="evenodd" stroke="none"/>
    <path d="M-64.75 392.0 L-66.9 398.75 Q-70.75 416.4 -66.55 419.05 -62.4 422.35 -58.7 419.5 -54.85 416.6 -52.7 407.65 -51.6 403.05 -50.95 396.95 L-49.75 392.45 -49.6 392.0" fill="none" stroke="#5f6150" stroke-linecap="round" stroke-linejoin="round" stroke-width="1.0"/>
    <path d="M2.7 94.7 Q-0.2 92.3 -3.85 93.75 -7.65 95.2 -9.25 98.95 L-9.65 100.3 Q-11.35 97.85 -13.15 93.9 -14.05 92.05 -14.8 91.2 -13.2 87.3 -10.25 85.2 -7.05 82.9 -3.45 83.35 -0.75 83.65 0.8 87.85 2.05 91.35 2.7 94.7 M9.75 105.6 Q12.4 105.9 13.95 110.05 15.25 113.55 15.85 116.9 12.95 114.55 9.35 116.0 5.55 117.4 3.9 121.2 L3.7 121.75 2.25 122.2 Q1.4 119.2 0.0 116.15 -0.85 114.3 -1.0 113.1 0.0 109.55 2.9 107.45 6.15 105.15 9.75 105.6 M9.5 110.2 L8.35 107.45 Q7.6 105.95 6.2 106.25 4.8 106.55 4.5 108.3 4.25 110.05 5.5 112.55 6.75 115.05 7.65 115.75 8.5 116.45 8.95 115.0 L9.65 112.5 Q9.9 111.4 9.5 110.2 M8.95 136.65 Q12.9 136.8 15.05 138.75 17.15 140.75 15.6 144.15 L11.65 153.4 Q12.6 148.4 8.85 147.35 5.0 146.2 1.4 148.2 -0.1 149.05 -1.45 150.1 0.35 146.3 1.35 141.8 1.75 139.8 2.4 138.75 5.35 136.55 8.95 136.65 M7.85 142.3 Q7.35 145.05 7.65 146.1 7.9 147.15 9.15 146.3 L11.25 144.75 Q12.1 144.05 12.5 142.85 L13.25 139.95 Q13.55 138.3 12.3 137.7 11.0 137.1 9.7 138.35 8.35 139.55 7.85 142.3 M1.75 173.9 Q-0.5 176.9 -2.9 179.25 -2.55 175.55 -5.75 173.35 -9.0 171.0 -13.05 171.75 -14.75 172.05 -16.4 172.65 -13.45 169.6 -11.0 165.65 -10.0 163.95 -9.1 163.15 -5.55 162.0 -2.2 163.25 1.45 164.65 3.1 167.9 4.35 170.3 1.75 173.9 M0.8 167.8 Q1.65 166.35 0.6 165.35 -0.45 164.35 -2.05 165.1 -3.7 165.8 -5.05 168.25 -6.4 170.7 -6.5 171.8 -6.6 172.85 -5.15 172.45 L-2.65 171.65 Q-1.65 171.3 -0.85 170.25 L0.8 167.8 M-15.45 40.2 Q-14.15 38.2 -11.95 37.55 -9.5 36.8 -7.4 37.8 -5.85 38.55 -5.75 41.4 -5.7 43.8 -6.0 45.95 -7.3 43.95 -9.8 44.05 -12.35 44.15 -14.1 46.1 L-15.3 47.6 -15.45 47.6 Q-15.15 45.05 -15.45 42.25 L-15.45 40.2 M-8.65 61.6 Q-8.85 60.25 -10.0 60.15 -11.15 60.0 -11.8 61.3 -12.45 62.55 -12.1 64.75 -11.8 66.95 -11.3 67.7 -10.85 68.45 -10.15 67.5 L-8.95 65.75 Q-8.5 65.0 -8.45 64.0 L-8.65 61.6 M-11.15 38.4 Q-11.65 39.4 -11.4 41.2 -11.15 42.95 -10.75 43.55 -10.4 44.15 -9.8 43.35 L-8.9 41.95 Q-8.5 41.4 -8.5 40.55 L-8.6 38.65 Q-8.8 37.6 -9.7 37.5 -10.6 37.4 -11.15 38.4 M-17.2 63.5 Q-15.55 61.05 -12.8 60.2 -9.75 59.3 -7.1 60.55 -5.15 61.45 -5.05 65.0 -5.0 68.0 -5.35 70.7 -6.95 68.15 -10.1 68.35 -13.35 68.45 -15.5 70.9 L-17.0 72.8 -17.15 72.8 Q-16.8 69.55 -17.2 66.05 -17.4 64.45 -17.2 63.5 M-6.95 84.0 Q-8.4 84.3 -8.65 86.1 -8.95 87.85 -7.65 90.35 -6.4 92.85 -5.55 93.5 -4.7 94.2 -4.25 92.75 L-3.55 90.25 Q-3.25 89.2 -3.65 87.95 -4.05 86.7 -4.8 85.2 -5.55 83.7 -6.95 84.0 M-18.65 74.4 L-18.4 74.4 -18.7 74.8 -18.65 74.4 M-24.8 187.25 Q-21.45 185.75 -17.95 186.65 -14.15 187.65 -12.2 190.7 -10.7 192.95 -12.9 196.8 -14.8 200.0 -16.95 202.65 -17.0 198.9 -20.4 197.05 -23.95 195.05 -27.85 196.2 -29.55 196.7 -31.1 197.45 -28.5 194.1 -26.5 189.95 -25.65 188.15 -24.8 187.25 M-15.85 193.45 L-14.45 190.8 Q-13.8 189.25 -14.95 188.4 -16.1 187.5 -17.6 188.4 -19.15 189.3 -20.25 191.9 -21.35 194.5 -21.3 195.6 -21.3 196.65 -19.9 196.1 L-17.5 195.0 Q-16.55 194.55 -15.85 193.45 M-28.7 218.45 Q-27.5 220.4 -29.4 224.2 L-32.7 231.5 Q-32.75 227.75 -36.15 225.9 -39.7 223.9 -43.6 225.05 -45.05 225.45 -45.55 226.55 -44.15 222.8 -42.25 218.8 -41.4 217.0 -40.55 216.1 -37.2 214.6 -33.7 215.5 -29.9 216.5 -28.7 218.45 M-31.6 222.3 L-30.2 219.65 Q-29.55 218.1 -30.7 217.25 -31.85 216.35 -33.35 217.25 -34.9 218.15 -36.0 220.75 -37.1 223.35 -37.05 224.45 -37.05 225.5 -35.65 224.95 L-33.25 223.85 Q-32.3 223.4 -31.6 222.3 M-43.05 255.5 Q-41.25 252.25 -37.9 250.9 -34.25 249.4 -32.1 250.3 -30.8 250.85 -30.0 252.7 -29.4 253.65 -28.9 254.95 -27.65 258.45 -27.0 261.8 -27.5 261.35 -28.05 261.1 L-27.5 263.1 Q-29.5 260.45 -32.8 260.6 L-33.55 260.85 Q-37.35 262.3 -38.95 266.05 L-39.35 267.4 -40.6 265.4 Q-40.9 266.1 -40.75 266.85 L-41.65 263.45 -42.85 261.0 Q-43.75 259.15 -44.5 258.3 L-43.05 255.55 -43.05 255.5 M-21.35 274.55 Q-22.1 273.05 -23.5 273.35 -24.9 273.65 -25.2 275.4 -25.45 277.15 -24.2 279.65 -22.95 282.15 -22.05 282.85 -21.2 283.55 -20.75 282.1 L-20.05 279.6 Q-19.8 278.5 -20.2 277.3 -20.6 276.05 -21.35 274.55 M-35.9 251.1 L-36.65 251.1 Q-38.1 251.4 -38.35 253.2 -38.65 254.95 -37.35 257.45 -36.1 259.95 -35.25 260.6 -34.4 261.3 -33.95 259.85 L-33.9 259.8 -33.25 257.35 Q-32.95 256.3 -33.35 255.05 -33.75 253.8 -34.5 252.3 -35.05 251.25 -35.9 251.1 M-26.0 288.85 L-27.45 289.3 Q-28.3 286.3 -29.7 283.25 -30.55 281.4 -30.7 280.2 -29.7 276.65 -26.8 274.55 -23.55 272.25 -19.95 272.7 -17.3 273.0 -15.75 277.15 -14.45 280.65 -13.85 284.0 -16.75 281.65 -20.35 283.1 -24.15 284.5 -25.8 288.3 L-26.0 288.85 M-11.9 307.95 Q-13.2 307.35 -14.5 308.6 -15.85 309.8 -16.35 312.55 -16.85 315.3 -16.55 316.35 -16.3 317.4 -15.05 316.55 L-12.95 315.0 Q-12.1 314.3 -11.7 313.1 L-10.95 310.2 Q-10.65 308.55 -11.9 307.95 M-9.15 309.0 Q-7.05 311.0 -8.6 314.4 L-12.55 323.65 Q-11.6 318.65 -15.35 317.6 -19.2 316.45 -22.8 318.45 L-25.65 320.35 Q-23.85 316.55 -22.85 312.05 -22.45 310.05 -21.8 309.0 -18.85 306.8 -15.25 306.9 -11.3 307.05 -9.15 309.0 M-21.15 344.75 Q-19.9 347.15 -22.5 350.75 -24.75 353.75 -27.15 356.1 -26.8 352.4 -30.0 350.2 -33.25 347.85 -37.3 348.6 L-40.65 349.5 Q-37.7 346.45 -35.25 342.5 L-33.35 340.0 Q-29.8 338.85 -26.45 340.1 -22.8 341.5 -21.15 344.75 M-42.95 367.45 Q-44.5 368.35 -45.6 370.95 -46.7 373.55 -46.65 374.65 -46.65 375.7 -45.25 375.15 L-42.85 374.05 Q-41.9 373.6 -41.2 372.5 L-39.8 369.85 Q-39.15 368.3 -40.3 367.45 -41.45 366.55 -42.95 367.45 M-23.65 342.2 Q-24.7 341.2 -26.3 341.95 -27.95 342.65 -29.3 345.1 -30.65 347.55 -30.75 348.65 -30.85 349.7 -29.4 349.3 L-26.9 348.5 Q-25.9 348.15 -25.1 347.1 L-23.45 344.65 Q-22.6 343.2 -23.65 342.2 M-43.3 365.7 Q-39.5 366.7 -37.55 369.75 -36.05 372.0 -38.25 375.85 -40.15 379.05 -42.3 381.7 -42.35 377.95 -45.75 376.1 -49.3 374.1 -53.2 375.25 -54.9 375.75 -56.45 376.5 -53.85 373.15 -51.85 369.0 -51.0 367.2 -50.15 366.3 -46.8 364.8 -43.3 365.7" fill="#443422" fill-rule="evenodd" stroke="none"/>
    <path d="M9.5 110.2 Q9.9 111.4 9.65 112.5 L8.95 115.0 Q8.5 116.45 7.65 115.75 6.75 115.05 5.5 112.55 4.25 110.05 4.5 108.3 4.8 106.55 6.2 106.25 7.6 105.95 8.35 107.45 L9.5 110.2 M7.85 142.3 Q8.35 139.55 9.7 138.35 11.0 137.1 12.3 137.7 13.55 138.3 13.25 139.95 L12.5 142.85 Q12.1 144.05 11.25 144.75 L9.15 146.3 Q7.9 147.15 7.65 146.1 7.35 145.05 7.85 142.3 M0.8 167.8 L-0.85 170.25 Q-1.65 171.3 -2.65 171.65 L-5.15 172.45 Q-6.6 172.85 -6.5 171.8 -6.4 170.7 -5.05 168.25 -3.7 165.8 -2.05 165.1 -0.45 164.35 0.6 165.35 1.65 166.35 0.8 167.8 M-11.15 38.4 Q-10.6 37.4 -9.7 37.5 -8.8 37.6 -8.6 38.65 L-8.5 40.55 Q-8.5 41.4 -8.9 41.95 L-9.8 43.35 Q-10.4 44.15 -10.75 43.55 -11.15 42.95 -11.4 41.2 -11.65 39.4 -11.15 38.4 M-8.65 61.6 L-8.45 64.0 Q-8.5 65.0 -8.95 65.75 L-10.15 67.5 Q-10.85 68.45 -11.3 67.7 -11.8 66.95 -12.1 64.75 -12.45 62.55 -11.8 61.3 -11.15 60.0 -10.0 60.15 -8.85 60.25 -8.65 61.6 M-6.95 84.0 Q-5.55 83.7 -4.8 85.2 -4.05 86.7 -3.65 87.95 -3.25 89.2 -3.55 90.25 L-4.25 92.75 Q-4.7 94.2 -5.55 93.5 -6.4 92.85 -7.65 90.35 -8.95 87.85 -8.65 86.1 -8.4 84.3 -6.95 84.0 M-15.85 193.45 Q-16.55 194.55 -17.5 195.0 L-19.9 196.1 Q-21.3 196.65 -21.3 195.6 -21.35 194.5 -20.25 191.9 -19.15 189.3 -17.6 188.4 -16.1 187.5 -14.95 188.4 -13.8 189.25 -14.45 190.8 L-15.85 193.45 M-31.6 222.3 Q-32.3 223.4 -33.25 223.85 L-35.65 224.95 Q-37.05 225.5 -37.05 224.45 -37.1 223.35 -36.0 220.75 -34.9 218.15 -33.35 217.25 -31.85 216.35 -30.7 217.25 -29.55 218.1 -30.2 219.65 L-31.6 222.3 M-35.9 251.1 Q-35.05 251.25 -34.5 252.3 -33.75 253.8 -33.35 255.05 -32.95 256.3 -33.25 257.35 L-33.9 259.8 -33.95 259.85 Q-34.4 261.3 -35.25 260.6 -36.1 259.95 -37.35 257.45 -38.65 254.95 -38.35 253.2 -38.1 251.4 -36.65 251.1 L-35.9 251.1 M-21.35 274.55 Q-20.6 276.05 -20.2 277.3 -19.8 278.5 -20.05 279.6 L-20.75 282.1 Q-21.2 283.55 -22.05 282.85 -22.95 282.15 -24.2 279.65 -25.45 277.15 -25.2 275.4 -24.9 273.65 -23.5 273.35 -22.1 273.05 -21.35 274.55 M-11.9 307.95 Q-10.65 308.55 -10.95 310.2 L-11.7 313.1 Q-12.1 314.3 -12.95 315.0 L-15.05 316.55 Q-16.3 317.4 -16.55 316.35 -16.85 315.3 -16.35 312.55 -15.85 309.8 -14.5 308.6 -13.2 307.35 -11.9 307.95 M-23.65 342.2 Q-22.6 343.2 -23.45 344.65 L-25.1 347.1 Q-25.9 348.15 -26.9 348.5 L-29.4 349.3 Q-30.85 349.7 -30.75 348.65 -30.65 347.55 -29.3 345.1 -27.95 342.65 -26.3 341.95 -24.7 341.2 -23.65 342.2 M-42.95 367.45 Q-41.45 366.55 -40.3 367.45 -39.15 368.3 -39.8 369.85 L-41.2 372.5 Q-41.9 373.6 -42.85 374.05 L-45.25 375.15 Q-46.65 375.7 -46.65 374.65 -46.7 373.55 -45.6 370.95 -44.5 368.35 -42.95 367.45" fill="#ab8458" fill-rule="evenodd" stroke="none"/>
  </g>
  <defs>
    <radialGradient cx="0" cy="0" gradientTransform="matrix(-0.0019, -4.0E-4, 0.0012, -0.0057, -64.45, 409.35)" gradientUnits="userSpaceOnUse" id="gradient0" r="819.2" spreadMethod="pad">
      <stop offset="0.0" stop-color="#ffffff"/>
      <stop offset="0.6705882352941176" stop-color="#000000"/>
    </radialGradient>
  </defs>
</svg>
