<?xml version="1.0" encoding="UTF-8" standalone="no"?>
<svg xmlns:xlink="http://www.w3.org/1999/xlink" height="400.4px" width="88.2px" xmlns="http://www.w3.org/2000/svg">
  <g transform="matrix(1.0, 0.0, 0.0, 1.0, 71.9, -76.55)">
    <path d="M10.85 147.0 L8.25 147.0 Q17.55 104.1 2.2 152.55 0.0 158.5 -2.95 163.85 -6.45 170.25 -11.65 177.05 L-14.45 180.65 -21.15 189.75 -28.55 200.65 -30.05 202.95 Q-32.4 206.65 -34.35 210.55 -36.25 214.35 -38.95 223.7 -41.65 233.0 -37.8 253.4 L-37.65 252.45 Q-36.75 258.0 -34.9 263.2 L-33.4 266.85 Q-31.45 271.3 -28.4 275.75 L-27.9 276.5 -27.85 276.55 Q-23.4 283.0 -21.3 290.2 L-20.95 291.6 Q-18.85 299.9 -20.0 308.85 L-21.15 315.75 -22.0 319.45 -23.5 324.75 Q-26.05 332.8 -29.9 339.8 -33.4 346.2 -38.6 353.0 L-48.1 365.7 -55.5 376.6 -57.0 378.9 Q-61.65 386.15 -64.7 394.25 -66.4 398.7 -66.25 426.15 L-66.25 427.5 -65.95 426.1 -65.55 426.0 -65.55 426.05 -64.8 433.0 Q-64.05 437.5 -62.65 441.65 L-62.6 441.65 Q-61.2 445.75 -59.15 449.4 L-57.95 451.3 -56.85 450.55 -56.5 450.9 -54.2 452.7 Q-52.4 453.85 -50.3 454.5 -44.25 456.4 -49.55 448.35 L-50.2 447.45 -50.65 446.7 -51.0 446.3 -53.85 448.35 Q-54.0 446.0 -55.0 443.8 -58.8 435.5 -59.6 427.95 L-59.8 425.65 -59.85 424.7 -59.4 424.6 Q-60.4 397.15 -58.2 391.15 -55.45 383.5 -50.15 377.25 -44.85 370.95 -41.0 364.4 -37.2 357.8 -32.6 351.85 -27.8 345.5 -24.0 338.05 -20.65 331.45 -18.15 322.9 -15.75 314.75 -15.0 306.6 -14.2 297.45 -16.95 289.5 -19.7 281.75 -23.3 274.75 -25.35 270.75 -27.5 266.85 L-30.85 260.85 Q-33.05 257.05 -33.8 252.65 L-33.7 252.65 Q-35.2 232.55 -35.0 231.0 -34.05 222.85 -31.25 215.2 L-29.3 210.55 Q-26.85 205.6 -23.2 201.3 -17.9 195.0 -14.05 188.45 -11.75 184.4 -9.1 180.65 L-5.65 175.9 Q-0.85 169.55 2.95 162.1 5.15 157.75 7.0 152.55 L8.15 147.5 10.95 147.5 10.85 147.0 M-61.05 453.45 Q-61.5 448.3 -63.3 444.85 -65.25 441.2 -66.4 436.9 -67.55 432.6 -68.1 427.1 L-68.15 426.95 -68.15 427.25 -68.15 426.6 Q-69.35 398.5 -68.3 395.95 L-67.15 393.2 Q-66.35 391.25 -65.35 389.45 -62.2 383.55 -58.4 378.0 L-58.4 377.95 -56.9 375.75 -56.85 375.7 Q-52.9 370.05 -50.0 364.6 L-48.85 362.35 Q-45.3 355.2 -40.35 348.95 -35.95 343.4 -31.75 336.6 -27.75 330.1 -25.05 324.0 L-24.5 322.6 -23.3 319.15 -22.45 315.45 Q-21.9 312.25 -21.8 308.8 L-21.8 307.5 Q-21.8 298.4 -23.95 290.95 -26.0 283.55 -29.75 277.65 L-30.2 276.95 -30.25 276.9 -36.65 266.85 -38.65 263.55 Q-41.55 258.8 -42.05 252.15 L-42.15 252.15 -42.2 252.4 -42.2 252.15 -42.85 252.15 -42.2 252.1 -43.6 234.2 -43.1 228.25 Q-42.45 222.7 -41.35 220.0 L-40.2 217.25 -38.4 213.5 -36.75 210.55 Q-34.3 206.2 -31.45 202.05 L-31.45 202.0 -29.95 199.8 -29.9 199.75 Q-25.95 194.1 -23.05 188.65 L-21.9 186.4 -18.7 180.65 Q-16.3 176.65 -13.4 173.0 -9.0 167.45 -4.8 160.65 -3.15 157.95 0.7 147.5 L3.0 147.5 3.1 147.0 2.65 147.0 0.75 147.45 5.35 134.35 -0.2 147.2 Q1.7 140.7 4.55 134.55 7.6 120.55 2.75 103.65 L-9.5 77.05 Q12.0 92.8 15.8 123.65 L13.6 144.05 Q13.95 145.6 11.6 152.5 L11.45 152.55 10.55 154.5 Q6.15 163.9 -4.15 180.65 -11.1 191.85 -20.65 206.4 L-23.9 210.55 Q-31.5 221.4 -31.8 234.2 L-30.5 234.2 -30.5 234.3 -30.45 251.65 -30.35 252.0 -30.3 252.25 Q-27.75 261.9 -24.05 266.85 -22.3 269.2 -20.3 270.45 -3.85 301.65 -15.0 327.35 -21.2 342.25 -47.6 382.35 -55.95 392.05 -56.45 423.95 L-56.5 424.7 -56.45 423.95 -56.5 424.85 -56.5 424.7 Q-55.85 435.05 -49.95 445.65 L-49.85 446.15 -49.3 446.95 -49.85 446.15 -49.95 445.65 -49.25 446.9 -49.3 446.95 -47.25 450.0 Q-43.05 454.5 -40.35 458.35 -40.35 459.6 -41.55 460.45 -46.75 463.9 -53.1 459.4 -56.9 456.8 -59.6 453.1 L-59.8 452.8 -59.9 452.7 -60.55 453.2 -61.05 453.45 M-0.8 148.55 L-3.05 153.55 Q-2.85 153.05 -3.25 152.55 L-0.8 148.55 M-44.9 248.0 L-44.9 251.2 -44.9 252.0 -44.9 252.3 -44.95 252.3 -44.95 252.0 -44.9 248.0 M-41.95 252.0 L-41.8 251.2 Q-40.9 246.6 -40.65 244.15 L-42.15 252.1 -42.0 252.1 -41.95 252.0" fill="#a8b38c" fill-rule="evenodd" stroke="none"/>
    <path d="M-0.2 147.2 L5.35 134.35 0.75 147.45 2.65 147.0 3.1 147.0 3.0 147.5 0.7 147.5 Q-3.15 157.95 -4.8 160.65 -9.0 167.45 -13.4 173.0 -16.3 176.65 -18.7 180.65 L-21.9 186.4 -23.05 188.65 Q-25.95 194.1 -29.9 199.75 L-29.95 199.8 -31.45 202.0 -31.45 202.05 Q-34.3 206.2 -36.75 210.55 L-38.4 213.5 -40.2 217.25 -41.35 220.0 Q-42.45 222.7 -43.1 228.25 L-43.6 234.2 -42.2 252.1 -42.85 252.15 -42.2 252.15 -42.2 252.4 -42.15 252.15 -42.05 252.15 Q-41.55 258.8 -38.65 263.55 L-36.65 266.85 -30.25 276.9 -30.2 276.95 -29.75 277.65 Q-26.0 283.55 -23.95 290.95 -21.8 298.4 -21.8 307.5 L-21.8 308.8 Q-21.9 312.25 -22.45 315.45 L-23.3 319.15 -24.5 322.6 -25.05 324.0 Q-27.75 330.1 -31.75 336.6 -35.95 343.4 -40.35 348.95 -45.3 355.2 -48.85 362.35 L-50.0 364.6 Q-52.9 370.05 -56.85 375.7 L-56.9 375.75 -58.4 377.95 -58.4 378.0 Q-62.2 383.55 -65.35 389.45 -66.35 391.25 -67.15 393.2 L-68.3 395.95 Q-69.35 398.5 -68.15 426.6 L-68.15 427.25 -68.15 426.95 -68.1 427.1 Q-67.55 432.6 -66.4 436.9 -65.25 441.2 -63.3 444.85 -61.5 448.3 -61.05 453.45 L-61.0 453.5 -60.55 453.2 -59.9 452.7 -59.8 452.8 -59.6 453.1 Q-56.9 456.8 -53.1 459.4 -46.75 463.9 -41.55 460.45 -40.35 459.6 -40.35 458.35 -34.95 465.85 -35.25 470.7 -35.55 475.35 -40.8 476.35 -45.5 477.75 -56.4 463.25 L-58.5 457.75 -61.1 454.15 -61.25 453.95 -61.35 454.0 -61.55 453.75 Q-69.45 441.6 -70.0 427.0 L-70.0 427.8 Q-74.95 398.75 -62.1 379.2 L-32.2 331.9 Q-15.7 305.3 -32.55 277.75 -36.9 273.6 -40.0 266.85 -42.9 260.65 -44.75 252.3 L-44.9 252.3 -44.9 252.0 -44.9 251.2 -44.9 248.0 -44.95 234.2 -45.75 234.2 Q-45.0 222.65 -39.1 210.55 L-35.15 203.25 -5.25 155.95 -3.25 152.55 Q-2.85 153.05 -3.05 153.55 L-0.8 148.55 -0.3 147.45 -0.2 147.2 M-41.95 252.0 L-42.0 252.1 -42.15 252.1 -40.65 244.15 Q-40.9 246.6 -41.8 251.2 L-41.95 252.0 M-47.8 465.7 Q-48.8 465.15 -49.2 465.45 -49.6 465.8 -49.25 466.85 L-47.9 469.1 Q-47.0 470.25 -46.1 470.8 L-44.95 471.2 -44.6 471.05 Q-44.25 470.75 -44.6 469.75 L-45.2 468.4 -45.85 467.55 Q-46.85 466.3 -47.8 465.7" fill="#899865" fill-rule="evenodd" stroke="none"/>
    <path d="M10.85 147.0 L10.95 147.5 8.15 147.5 7.0 152.55 Q5.15 157.75 2.95 162.1 -0.85 169.55 -5.65 175.9 L-9.1 180.65 Q-11.75 184.4 -14.05 188.45 -17.9 195.0 -23.2 201.3 -26.85 205.6 -29.3 210.55 L-31.25 215.2 Q-34.05 222.85 -35.0 231.0 -35.2 232.55 -33.7 252.65 L-33.8 252.65 Q-33.05 257.05 -30.85 260.85 L-27.5 266.85 Q-25.35 270.75 -23.3 274.75 -19.7 281.75 -16.95 289.5 -14.2 297.45 -15.0 306.6 -15.75 314.75 -18.15 322.9 -20.65 331.45 -24.0 338.05 -27.8 345.5 -32.6 351.85 -37.2 357.8 -41.0 364.4 -44.85 370.95 -50.15 377.25 -55.45 383.5 -58.2 391.15 -60.4 397.15 -59.4 424.6 L-59.85 424.7 -59.8 425.65 -59.6 427.95 Q-58.8 435.5 -55.0 443.8 -54.0 446.0 -53.85 448.35 L-51.0 446.3 -50.65 446.7 -50.2 447.45 -49.55 448.35 Q-44.25 456.4 -50.3 454.5 -52.4 453.85 -54.2 452.7 L-56.5 450.9 -56.85 450.55 -57.95 451.3 -59.15 449.4 Q-61.2 445.75 -62.6 441.65 L-62.65 441.65 Q-64.05 437.5 -64.8 433.0 L-65.55 426.05 -65.55 426.0 -65.95 426.1 -66.25 427.5 -66.25 426.15 Q-66.4 398.7 -64.7 394.25 -61.65 386.15 -57.0 378.9 L-55.5 376.6 -48.1 365.7 -38.6 353.0 Q-33.4 346.2 -29.9 339.8 -26.05 332.8 -23.5 324.75 L-22.0 319.45 -21.15 315.75 -20.0 308.85 Q-18.85 299.9 -20.95 291.6 L-21.3 290.2 Q-23.4 283.0 -27.85 276.55 L-27.9 276.5 -28.4 275.75 Q-31.45 271.3 -33.4 266.85 L-34.9 263.2 Q-36.75 258.0 -37.65 252.45 L-37.8 253.4 Q-41.65 233.0 -38.95 223.7 -36.25 214.35 -34.35 210.55 -32.4 206.65 -30.05 202.95 L-28.55 200.65 -21.15 189.75 -14.45 180.65 -11.65 177.05 Q-6.45 170.25 -2.95 163.85 0.0 158.5 2.2 152.55 17.55 104.1 8.25 147.0 L10.85 147.0" fill="#c6cdb4" fill-rule="evenodd" stroke="none"/>
    <path d="M-47.8 465.7 Q-46.85 466.3 -45.85 467.55 L-45.2 468.4 -44.6 469.75 Q-44.25 470.75 -44.6 471.05 L-44.95 471.2 -46.1 470.8 Q-47.0 470.25 -47.9 469.1 L-49.25 466.85 Q-49.6 465.8 -49.2 465.45 -48.8 465.15 -47.8 465.7" fill="url(#gradient0)" fill-rule="evenodd" stroke="none"/>
    <path d="M-40.35 458.35 Q-43.05 454.5 -47.25 450.0 L-49.3 446.95 -49.85 446.15 -49.95 445.65 Q-55.85 435.05 -56.5 424.7 L-56.45 423.95 Q-55.95 392.05 -47.6 382.35 -21.2 342.25 -15.0 327.35 -3.85 301.65 -20.3 270.45 -22.3 269.2 -24.05 266.85 -27.75 261.9 -30.3 252.25 L-30.35 252.0 -30.45 251.65 -30.5 234.3 -30.5 234.2 M-31.8 234.2 Q-31.5 221.4 -23.9 210.55 L-20.65 206.4 Q-11.1 191.85 -4.15 180.65 6.15 163.9 10.55 154.5 L11.45 152.55 M11.6 152.5 Q13.95 145.6 13.6 144.05 L15.8 123.65 Q12.0 92.8 -9.5 77.05 L2.75 103.65 Q7.6 120.55 4.55 134.55 1.7 140.7 -0.2 147.2 L-0.3 147.45 -0.8 148.55 -3.25 152.55 -5.25 155.95 -35.15 203.25 -39.1 210.55 Q-45.0 222.65 -45.75 234.2 M-44.95 234.2 L-44.9 248.0 -44.95 252.0 -44.95 252.3 M-44.75 252.3 Q-42.9 260.65 -40.0 266.85 -36.9 273.6 -32.55 277.75 -15.7 305.3 -32.2 331.9 L-62.1 379.2 Q-74.95 398.75 -70.0 427.8 M-70.0 427.0 Q-69.45 441.6 -61.55 453.75 L-61.35 454.0 M-61.25 453.95 L-61.1 454.15 -58.5 457.75 -56.4 463.25 Q-45.5 477.75 -40.8 476.35 -35.55 475.35 -35.25 470.7 -34.95 465.85 -40.35 458.35 M11.6 152.5 L10.55 154.5 M-56.5 424.85 L-56.45 423.95 M-49.95 445.65 L-49.25 446.9" fill="none" stroke="#5f6150" stroke-linecap="round" stroke-linejoin="round" stroke-width="1.0"/>
    <path d="M7.75 96.6 Q9.0 98.4 9.8 100.5 L9.9 101.95 6.55 101.85 Q4.45 102.75 3.85 105.0 L3.2 106.4 Q2.55 104.4 1.55 102.65 L0.8 101.2 Q0.85 99.35 1.6 97.8 2.25 96.25 4.1 95.65 5.75 95.1 7.2 96.0 L7.75 96.6 M6.1 100.0 Q5.45 97.25 3.65 97.3 4.05 99.55 5.7 100.6 6.3 100.95 6.1 100.0 M8.25 121.5 Q9.8 120.35 11.9 121.0 12.65 121.2 13.25 121.65 14.45 122.5 15.15 124.3 L15.35 125.65 Q15.5 129.45 15.05 133.2 L15.0 135.3 Q13.35 132.8 10.55 132.3 7.65 131.75 5.5 134.45 L4.45 135.55 4.45 128.9 4.6 126.2 Q5.95 123.5 7.8 121.85 L8.25 121.5 M11.3 129.2 Q12.35 124.6 10.4 123.0 9.3 126.7 10.5 129.7 10.9 130.8 11.3 129.2 M9.55 147.55 Q11.9 149.55 11.9 152.55 L11.55 153.85 Q10.05 157.4 7.85 160.5 7.15 161.35 6.75 162.35 5.95 159.05 2.8 156.85 -0.45 154.55 -4.2 155.65 L-5.7 156.0 -5.9 155.9 -2.95 150.05 -1.6 147.7 Q1.2 146.1 4.2 145.75 7.0 145.35 9.55 147.55 M5.1 154.5 Q8.45 151.05 6.8 148.4 3.8 151.05 3.9 154.5 3.9 155.7 5.1 154.5 M-22.55 182.8 L-19.55 176.85 -18.15 174.5 Q-15.35 172.9 -12.35 172.55 -9.55 172.15 -7.0 174.4 -4.65 176.35 -4.65 179.35 L-5.0 180.7 Q-6.55 184.25 -8.8 187.3 -9.5 188.15 -9.85 189.15 -10.65 185.85 -13.8 183.65 -17.0 181.35 -20.8 182.45 L-22.55 182.8 M-11.5 181.3 Q-8.1 177.85 -9.75 175.2 -12.75 177.85 -12.7 181.25 L-11.5 181.3 M-29.05 208.25 Q-25.75 204.7 -27.4 202.05 -30.35 204.75 -30.25 208.2 L-29.05 208.25 M-24.7 201.2 Q-22.3 203.15 -22.25 206.15 L-22.6 207.45 Q-24.0 211.05 -26.2 214.15 -26.9 215.05 -27.25 216.05 -28.1 212.75 -31.3 210.6 -34.55 208.35 -38.35 209.5 L-40.1 209.9 -37.2 203.9 -35.85 201.5 Q-33.1 199.9 -30.15 199.5 -27.35 199.05 -24.7 201.2 M-38.0 233.7 Q-36.7 229.05 -39.5 227.55 -40.85 231.3 -39.1 234.25 -38.5 235.35 -38.0 233.7 M-32.95 228.75 Q-32.65 229.25 -32.6 230.05 -32.15 233.85 -32.65 237.6 L-32.65 239.75 Q-35.0 237.25 -38.9 236.85 -42.85 236.35 -45.65 239.15 L-47.05 240.3 -47.3 233.65 -47.25 230.95 Q-45.55 228.25 -43.1 226.5 -40.8 224.85 -37.45 225.55 -34.4 226.1 -32.95 228.75 M-41.75 262.45 Q-41.2 259.3 -39.65 256.8 -38.15 254.4 -34.8 253.8 -31.75 253.2 -29.4 255.1 -28.9 255.45 -28.5 256.15 -26.7 259.5 -25.7 263.1 L-24.9 265.05 Q-28.05 263.65 -31.8 264.75 -34.3 265.4 -35.85 267.2 L-37.2 269.4 -38.0 270.95 -39.4 267.95 -40.8 264.95 -41.75 262.45 M-32.1 261.5 Q-32.7 256.75 -35.9 256.45 -35.7 260.35 -32.95 262.45 -31.95 263.2 -32.1 261.5 M-22.9 279.3 Q-19.95 278.3 -17.35 279.85 L-16.35 280.85 Q-14.1 283.9 -12.7 287.4 -12.3 288.4 -12.55 289.85 -14.95 288.25 -18.55 289.75 -22.25 291.25 -23.35 295.0 -23.6 295.85 -24.5 297.4 -25.65 294.0 -27.5 291.05 L-28.75 288.7 Q-28.6 285.5 -27.35 282.85 -26.15 280.3 -22.9 279.3 M-19.3 286.6 Q-20.45 281.95 -23.65 282.0 -23.0 285.9 -20.0 287.6 -18.9 288.25 -19.3 286.6 M-17.85 314.7 Q-20.85 317.35 -20.8 320.75 L-19.55 320.8 Q-16.2 317.35 -17.85 314.7 M-12.75 318.85 L-13.1 320.2 -15.55 325.95 -17.3 329.55 Q-18.75 325.35 -21.85 323.1 -25.1 320.85 -28.85 321.9 -26.5 317.95 -26.7 316.5 -26.95 315.0 -26.25 313.95 -23.45 312.4 -20.45 312.05 -17.65 311.65 -15.1 313.85 -12.75 315.85 -12.75 318.85 M-56.85 368.55 L-55.8 367.65 Q-53.1 366.3 -50.2 367.55 -47.05 368.85 -46.15 371.55 -45.2 374.35 -45.35 377.55 L-46.9 379.85 Q-49.0 382.6 -50.45 385.8 L-50.6 385.8 Q-51.3 384.3 -51.4 383.45 -52.15 379.55 -55.65 377.7 -59.1 375.85 -61.65 377.25 -61.75 375.8 -61.25 374.8 -59.45 371.4 -56.85 368.55 M-35.6 343.0 Q-32.3 343.95 -31.1 346.5 -29.8 349.15 -29.55 352.35 L-30.8 354.8 -32.5 357.65 -34.2 360.6 -34.85 358.95 Q-35.25 357.65 -35.95 356.65 -37.3 354.65 -39.75 353.75 -43.4 352.35 -46.6 353.45 L-45.65 351.6 Q-44.3 348.0 -42.05 344.8 -41.65 344.15 -41.1 343.8 -38.6 342.1 -35.6 343.0 M-54.55 374.6 Q-55.15 376.2 -54.0 375.7 -50.85 374.2 -49.75 370.4 -52.95 370.05 -54.55 374.6 M-50.45 388.65 L-50.55 388.8 -50.6 388.65 -50.45 388.65 M-39.05 350.55 Q-39.45 352.2 -38.35 351.55 -35.4 349.7 -34.75 345.75 -38.0 345.8 -39.05 350.55 M-59.15 398.5 Q-56.9 400.45 -55.5 403.35 L-55.7 406.1 -56.65 412.75 -57.95 411.45 Q-60.5 408.4 -64.45 408.5 -68.35 408.6 -70.95 410.85 -70.7 409.8 -70.75 408.7 -70.8 404.9 -69.95 401.1 L-69.5 399.8 -68.25 398.4 Q-67.45 397.75 -66.5 397.4 L-64.65 397.0 Q-61.7 396.65 -59.7 398.05 L-59.25 398.4 -59.15 398.5 M-63.95 405.95 Q-61.95 403.1 -62.85 399.2 -65.8 400.5 -65.0 405.3 -64.7 406.95 -63.95 405.95 M-66.6 444.45 L-66.8 443.1 Q-66.55 440.05 -63.95 438.3 -61.2 436.3 -58.45 436.95 -55.55 437.55 -52.9 439.4 L-51.75 441.9 -49.35 448.15 -51.05 447.65 Q-54.75 446.2 -58.2 448.25 -61.55 450.2 -62.7 453.45 -63.0 452.4 -63.55 451.45 -65.5 448.15 -66.6 444.45 M-60.25 445.7 L-59.0 445.75 Q-58.65 442.3 -61.3 439.35 -63.25 441.9 -60.25 445.7" fill="#443422" fill-rule="evenodd" stroke="none"/>
    <path d="M6.1 100.0 Q6.3 100.95 5.7 100.6 4.05 99.55 3.65 97.3 5.45 97.25 6.1 100.0 M11.3 129.2 Q10.9 130.8 10.5 129.7 9.3 126.7 10.4 123.0 12.35 124.6 11.3 129.2 M5.1 154.5 Q3.9 155.7 3.9 154.5 3.8 151.05 6.8 148.4 8.45 151.05 5.1 154.5 M-29.05 208.25 L-30.25 208.2 Q-30.35 204.75 -27.4 202.05 -25.75 204.7 -29.05 208.25 M-11.5 181.3 L-12.7 181.25 Q-12.75 177.85 -9.75 175.2 -8.1 177.85 -11.5 181.3 M-38.0 233.7 Q-38.5 235.35 -39.1 234.25 -40.85 231.3 -39.5 227.55 -36.7 229.05 -38.0 233.7 M-32.1 261.5 Q-31.95 263.2 -32.95 262.45 -35.7 260.35 -35.9 256.45 -32.7 256.75 -32.1 261.5 M-17.85 314.7 Q-16.2 317.35 -19.55 320.8 L-20.8 320.75 Q-20.85 317.35 -17.85 314.7 M-19.3 286.6 Q-18.9 288.25 -20.0 287.6 -23.0 285.9 -23.65 282.0 -20.45 281.95 -19.3 286.6 M-54.55 374.6 Q-52.95 370.05 -49.75 370.4 -50.85 374.2 -54.0 375.7 -55.15 376.2 -54.55 374.6 M-39.05 350.55 Q-38.0 345.8 -34.75 345.75 -35.4 349.7 -38.35 351.55 -39.45 352.2 -39.05 350.55 M-63.95 405.95 Q-64.7 406.95 -65.0 405.3 -65.8 400.5 -62.85 399.2 -61.95 403.1 -63.95 405.95 M-60.25 445.7 Q-63.25 441.9 -61.3 439.35 -58.65 442.3 -59.0 445.75 L-60.25 445.7" fill="#ab8458" fill-rule="evenodd" stroke="none"/>
  </g>
  <defs>
    <radialGradient cx="0" cy="0" gradientTransform="matrix(-0.0015, 0.0012, -0.0035, -0.0046, -46.65, 468.4)" gradientUnits="userSpaceOnUse" id="gradient0" r="819.2" spreadMethod="pad">
      <stop offset="0.0" stop-color="#ffffff"/>
      <stop offset="0.6705882352941176" stop-color="#000000"/>
    </radialGradient>
  </defs>
</svg>
