<?xml version="1.0" encoding="UTF-8" standalone="no"?>
<svg xmlns:xlink="http://www.w3.org/1999/xlink" height="372.4px" width="72.3px" xmlns="http://www.w3.org/2000/svg">
  <g transform="matrix(1.0, 0.0, 0.0, 1.0, 72.3, -167.7)">
    <path d="M-56.1 514.75 L-55.7 514.05 Q-51.7 507.55 -49.0 501.45 L-48.45 500.05 -47.25 496.6 Q-46.75 494.8 -46.4 492.9 -45.85 489.7 -45.75 486.25 L-45.75 484.95 Q-45.75 481.4 -46.05 478.1 -46.6 472.95 -47.9 468.4 -49.95 461.0 -53.7 455.1 L-54.15 454.4 -54.2 454.35 -62.6 441.0 Q-65.1 436.85 -65.85 431.25 L-66.45 431.25 -66.45 431.2 -66.35 431.2 -66.55 429.15 -66.5 429.15 Q-66.4 428.7 -67.7 427.0 -67.85 425.15 -68.25 423.55 -69.35 419.6 -69.5 415.15 -69.65 411.95 -69.3 408.2 L-69.0 405.15 -68.7 402.75 Q-68.1 399.0 -67.25 396.9 L-66.1 394.15 Q-65.3 392.2 -64.3 390.4 L-62.0 386.3 -57.35 378.95 -57.35 378.9 -55.85 376.7 -55.8 376.65 -51.35 369.8 -48.95 365.55 -47.8 363.3 Q-44.25 356.15 -39.3 349.9 -34.9 344.35 -30.7 337.55 -26.7 331.05 -24.0 324.95 L-23.45 323.55 -22.25 320.1 -21.4 316.4 Q-20.85 313.2 -20.75 309.75 L-20.75 308.45 Q-20.75 303.2 -21.45 298.5 -22.0 295.05 -22.9 291.9 -24.95 284.5 -28.7 278.6 L-29.15 277.9 -29.2 277.85 -30.75 275.45 -37.6 264.5 Q-40.15 260.35 -40.85 254.7 L-41.0 253.05 -40.95 253.05 -40.75 252.15 -43.85 252.15 -43.85 252.75 -43.85 253.25 -43.7 253.25 -43.0 256.15 -43.55 256.5 Q-47.95 238.5 -46.5 232.15 -45.1 225.8 -39.85 212.0 -34.65 198.15 -0.5 168.2 -28.0 205.85 -30.45 223.8 -32.95 241.75 -29.45 250.35 L-29.95 250.35 Q-26.1 267.1 -19.25 271.4 L-17.2 275.45 Q-11.55 287.4 -10.0 298.5 -7.85 314.2 -13.95 328.3 -19.05 340.55 -37.75 369.8 L-46.55 383.3 -48.95 386.3 Q-54.7 394.0 -56.7 402.75 -57.3 405.45 -57.55 408.2 -58.3 416.35 -55.95 425.35 L-56.3 424.75 -54.6 431.2 -54.55 431.25 -53.85 431.25 Q-52.7 435.3 -51.35 438.45 L-48.7 443.35 Q-46.65 446.4 -44.25 447.9 -27.8 479.1 -38.95 504.8 -40.65 508.85 -43.8 514.75 L-47.55 514.75 Q-44.45 508.4 -42.1 500.35 -39.7 492.2 -38.95 484.05 -38.7 481.0 -38.8 478.1 -39.05 472.25 -40.9 466.95 -43.65 459.2 -47.25 452.2 -50.9 445.1 -54.8 438.3 -56.7 435.0 -57.55 431.25 L-58.1 431.25 -58.1 431.2 -58.0 431.2 -58.3 429.65 Q-58.45 428.95 -59.75 425.65 L-59.95 424.35 Q-61.75 415.65 -60.9 408.2 L-60.9 407.9 -60.1 402.75 Q-59.05 397.3 -57.15 392.1 -56.1 389.1 -54.6 386.3 -52.3 382.0 -49.1 378.2 -45.6 374.05 -42.75 369.8 L-39.95 365.35 Q-36.15 358.75 -31.55 352.8 -26.75 346.45 -22.95 339.0 -19.6 332.4 -17.1 323.85 -14.7 315.7 -13.95 307.55 -13.55 302.85 -14.05 298.5 -14.55 294.35 -15.9 290.45 -18.65 282.7 -22.25 275.7 L-22.35 275.45 Q-25.95 268.5 -29.8 261.8 -32.35 257.4 -33.0 252.15 L-36.8 252.15 Q-35.9 258.4 -33.85 264.15 -31.85 269.8 -28.2 275.45 L-27.35 276.7 -26.85 277.45 -26.8 277.5 Q-22.35 283.95 -20.25 291.15 L-19.9 292.55 Q-19.15 295.5 -18.8 298.5 -18.2 304.0 -18.95 309.8 L-20.1 316.7 -20.95 320.4 -22.45 325.7 Q-25.0 333.75 -28.85 340.75 -32.35 347.15 -37.55 353.95 L-47.05 366.65 -49.25 369.8 -54.45 377.55 -55.95 379.85 -59.65 386.3 Q-61.9 390.6 -63.65 395.2 -65.05 398.9 -65.9 402.75 L-66.8 408.2 -67.1 411.65 Q-67.4 416.25 -66.9 420.6 -66.5 424.35 -65.5 427.9 L-65.3 427.85 -64.55 431.2 -62.6 431.2 -62.6 431.25 -61.35 431.25 Q-60.45 436.1 -58.85 440.65 -56.65 446.9 -52.35 453.2 L-51.85 453.95 -51.8 454.0 Q-47.35 460.45 -45.25 467.65 L-44.9 469.05 Q-43.8 473.5 -43.55 478.1 -43.4 482.15 -43.95 486.3 L-45.1 493.2 -45.95 496.9 -47.45 502.2 Q-49.55 508.85 -52.5 514.75 L-56.1 514.75" fill="#a8b38c" fill-rule="evenodd" stroke="none"/>
    <path d="M-43.7 253.25 L-43.85 253.25 -43.85 252.75 -43.85 252.15 -40.75 252.15 -40.95 253.05 -41.0 253.05 -40.85 254.7 Q-40.15 260.35 -37.6 264.5 L-30.75 275.45 -29.2 277.85 -29.15 277.9 -28.7 278.6 Q-24.95 284.5 -22.9 291.9 -22.0 295.05 -21.45 298.5 -20.75 303.2 -20.75 308.45 L-20.75 309.75 Q-20.85 313.2 -21.4 316.4 L-22.25 320.1 -23.45 323.55 -24.0 324.95 Q-26.7 331.05 -30.7 337.55 -34.9 344.35 -39.3 349.9 -44.25 356.15 -47.8 363.3 L-48.95 365.55 -51.35 369.8 -55.8 376.65 -55.85 376.7 -57.35 378.9 -57.35 378.95 -62.0 386.3 -64.3 390.4 Q-65.3 392.2 -66.1 394.15 L-67.25 396.9 Q-68.1 399.0 -68.7 402.75 L-69.0 405.15 -69.3 408.2 Q-69.65 411.95 -69.5 415.15 -69.35 419.6 -68.25 423.55 -67.85 425.15 -67.7 427.0 -66.4 428.7 -66.5 429.15 L-66.55 429.15 -66.35 431.2 -66.45 431.2 -66.45 431.25 -65.85 431.25 Q-65.1 436.85 -62.6 441.0 L-54.2 454.35 -54.15 454.4 -53.7 455.1 Q-49.95 461.0 -47.9 468.4 -46.6 472.95 -46.05 478.1 -45.75 481.4 -45.75 484.95 L-45.75 486.25 Q-45.85 489.7 -46.4 492.9 -46.75 494.8 -47.25 496.6 L-48.45 500.05 -49.0 501.45 Q-51.7 507.55 -55.7 514.05 L-56.1 514.75 -59.55 514.75 -56.15 509.35 Q-46.55 493.9 -48.25 478.1 L-48.9 478.1 -48.95 477.6 -49.0 477.2 -49.15 476.85 Q-54.1 461.1 -57.0 456.4 L-58.2 455.15 -57.85 455.75 Q-65.3 445.5 -68.75 432.05 L-69.0 431.25 -69.6 429.45 Q-72.7 419.1 -71.4 408.2 L-70.45 402.75 Q-68.65 394.65 -64.45 386.3 L-61.05 380.15 -31.15 332.85 Q-20.65 315.85 -23.65 298.5 -25.4 288.65 -31.5 278.7 L-34.4 275.45 Q-39.9 268.3 -43.0 256.15 L-43.7 253.25 M-68.35 431.25 Q-64.5 447.55 -56.5 455.2 -49.45 466.75 -48.25 478.1 -49.45 466.75 -56.5 455.2 -64.5 447.55 -68.35 431.25" fill="#899865" fill-rule="evenodd" stroke="none"/>
    <path d="M-52.5 514.75 Q-49.55 508.85 -47.45 502.2 L-45.95 496.9 -45.1 493.2 -43.95 486.3 Q-43.4 482.15 -43.55 478.1 -43.8 473.5 -44.9 469.05 L-45.25 467.65 Q-47.35 460.45 -51.8 454.0 L-51.85 453.95 -52.35 453.2 Q-56.65 446.9 -58.85 440.65 -60.45 436.1 -61.35 431.25 L-62.6 431.25 -62.6 431.2 -64.55 431.2 -65.3 427.85 -65.5 427.9 Q-66.5 424.35 -66.9 420.6 -67.4 416.25 -67.1 411.65 L-66.8 408.2 -65.9 402.75 Q-65.05 398.9 -63.65 395.2 -61.9 390.6 -59.65 386.3 L-55.95 379.85 -54.45 377.55 -49.25 369.8 -47.05 366.65 -37.55 353.95 Q-32.35 347.15 -28.85 340.75 -25.0 333.75 -22.45 325.7 L-20.95 320.4 -20.1 316.7 -18.95 309.8 Q-18.2 304.0 -18.8 298.5 -19.15 295.5 -19.9 292.55 L-20.25 291.15 Q-22.35 283.95 -26.8 277.5 L-26.85 277.45 -27.35 276.7 -28.2 275.45 Q-31.85 269.8 -33.85 264.15 -35.9 258.4 -36.8 252.15 L-33.0 252.15 Q-32.35 257.4 -29.8 261.8 -25.95 268.5 -22.35 275.45 L-22.25 275.7 Q-18.65 282.7 -15.9 290.45 -14.55 294.35 -14.05 298.5 -13.55 302.85 -13.95 307.55 -14.7 315.7 -17.1 323.85 -19.6 332.4 -22.95 339.0 -26.75 346.45 -31.55 352.8 -36.15 358.75 -39.95 365.35 L-42.75 369.8 Q-45.6 374.05 -49.1 378.2 -52.3 382.0 -54.6 386.3 -56.1 389.1 -57.15 392.1 -59.05 397.3 -60.1 402.75 L-60.9 407.9 -60.9 408.2 Q-61.75 415.65 -59.95 424.35 L-59.75 425.65 Q-58.45 428.95 -58.3 429.65 L-58.0 431.2 -58.1 431.2 -58.1 431.25 -57.55 431.25 Q-56.7 435.0 -54.8 438.3 -50.9 445.1 -47.25 452.2 -43.65 459.2 -40.9 466.95 -39.05 472.25 -38.8 478.1 -38.7 481.0 -38.95 484.05 -39.7 492.2 -42.1 500.35 -44.45 508.4 -47.55 514.75 L-52.5 514.75" fill="#c6cdb4" fill-rule="evenodd" stroke="none"/>
    <path d="M-43.8 514.75 Q-40.65 508.85 -38.95 504.8 -27.8 479.1 -44.25 447.9 -46.65 446.4 -48.7 443.35 L-51.35 438.45 Q-52.7 435.3 -53.85 431.25 M-54.55 431.25 L-54.6 431.2 -56.3 424.75 M-55.95 425.35 Q-58.3 416.35 -57.55 408.2 -57.3 405.45 -56.7 402.75 -54.7 394.0 -48.95 386.3 L-46.55 383.3 -37.75 369.8 Q-19.05 340.55 -13.95 328.3 -7.85 314.2 -10.0 298.5 -11.55 287.4 -17.2 275.45 L-19.25 271.4 Q-26.1 267.1 -29.95 250.35 M-29.45 250.35 Q-32.95 241.75 -30.45 223.8 -28.0 205.85 -0.5 168.2 -34.65 198.15 -39.85 212.0 -45.1 225.8 -46.5 232.15 -47.95 238.5 -43.55 256.5 M-43.0 256.15 L-43.7 253.25 M-43.0 256.15 Q-39.9 268.3 -34.4 275.45 L-31.5 278.7 Q-25.4 288.65 -23.65 298.5 -20.65 315.85 -31.15 332.85 L-61.05 380.15 -64.45 386.3 Q-68.65 394.65 -70.45 402.75 L-71.4 408.2 Q-72.7 419.1 -69.6 429.45 L-69.0 431.25 -68.75 432.05 Q-65.3 445.5 -57.85 455.75 M-58.2 455.15 L-57.0 456.4 Q-54.1 461.1 -49.15 476.85 L-49.0 477.2 -48.95 477.6 -48.9 478.1" fill="none" stroke="#5f6150" stroke-linecap="round" stroke-linejoin="round" stroke-width="1.0"/>
    <path d="M-48.25 478.1 Q-49.45 466.75 -56.5 455.2 -64.5 447.55 -68.35 431.25 M-59.55 514.75 L-56.15 509.35 Q-46.55 493.9 -48.25 478.1" fill="none" stroke="#5f6150" stroke-linecap="round" stroke-linejoin="round" stroke-width="1.0"/>
    <path d="M-49.95 529.0 Q-54.25 537.2 -58.65 539.05 -62.95 540.9 -66.2 536.65 -69.6 533.1 -61.5 516.9 L-57.55 512.55 -55.5 508.6 -55.3 508.2 -53.65 509.05 -53.85 509.45 Q-56.0 513.55 -56.6 518.1 -57.75 525.8 -52.35 528.85 L-49.95 529.0 M-61.5 524.85 Q-62.3 525.65 -62.9 527.05 -63.55 528.4 -63.65 529.45 L-63.5 530.65 -63.2 530.9 Q-62.8 531.1 -62.0 530.3 L-61.1 529.15 -60.6 528.2 Q-60.0 526.8 -59.85 525.65 -59.8 524.5 -60.25 524.3 -60.75 524.05 -61.5 524.85" fill="#899865" fill-rule="evenodd" stroke="none"/>
    <path d="M-49.95 529.0 L-52.35 528.85 Q-57.75 525.8 -56.6 518.1 -56.0 513.55 -53.85 509.45 L-53.65 509.05 -50.35 510.8 -50.5 511.25 Q-51.55 514.8 -50.95 518.4 -50.0 524.65 -45.15 516.3 L-44.15 514.6 -43.95 514.1 -43.05 514.6 -43.3 515.05 -45.6 519.1 Q-47.75 524.85 -49.95 529.0" fill="#a8b38c" fill-rule="evenodd" stroke="none"/>
    <path d="M-43.95 514.1 L-44.15 514.6 -45.15 516.3 Q-50.0 524.65 -50.95 518.4 -51.55 514.8 -50.5 511.25 L-50.35 510.8 -43.95 514.1" fill="#c6cdb4" fill-rule="evenodd" stroke="none"/>
    <path d="M-61.5 524.85 Q-60.75 524.05 -60.25 524.3 -59.8 524.5 -59.85 525.65 -60.0 526.8 -60.6 528.2 L-61.1 529.15 -62.0 530.3 Q-62.8 531.1 -63.2 530.9 L-63.5 530.65 -63.65 529.45 Q-63.55 528.4 -62.9 527.05 -62.3 525.65 -61.5 524.85" fill="url(#gradient0)" fill-rule="evenodd" stroke="none"/>
    <path d="M-55.3 508.2 L-55.5 508.6 -57.55 512.55 -61.5 516.9 Q-69.6 533.1 -66.2 536.65 -62.95 540.9 -58.65 539.05 -54.25 537.2 -49.95 529.0 -47.75 524.85 -45.6 519.1 L-43.3 515.05 -43.05 514.6" fill="none" stroke="#5f6150" stroke-linecap="round" stroke-linejoin="round" stroke-width="1.0"/>
    <path d="M-29.85 196.45 Q-28.5 193.55 -26.6 193.5 -24.05 193.45 -21.9 195.3 -20.8 196.3 -20.05 197.75 L-20.05 197.85 Q-23.45 205.05 -23.95 203.7 -24.45 202.35 -27.0 201.05 -29.5 199.75 -33.8 201.45 -31.0 198.85 -29.85 196.45 M-26.75 196.85 Q-27.15 197.7 -27.0 198.5 L-26.65 200.35 Q-26.45 201.4 -25.8 201.0 -25.15 200.55 -24.1 198.85 -23.05 197.1 -23.1 195.85 -23.2 194.55 -24.15 194.25 -25.15 193.9 -25.75 194.95 L-26.75 196.85 M-38.85 212.55 Q-36.35 212.5 -33.1 214.8 -30.2 216.9 -29.15 220.45 L-29.95 224.5 Q-30.55 227.3 -31.05 228.5 -31.6 229.7 -33.15 227.65 -34.75 225.55 -38.95 223.75 -43.1 221.9 -44.4 225.55 -42.3 219.2 -41.85 215.95 -41.45 212.6 -38.85 212.55 M-11.6 187.7 L-11.4 187.7 -11.6 187.9 -11.6 187.7 M-39.8 219.85 L-39.1 222.35 Q-38.7 223.8 -37.8 223.1 -36.95 222.4 -35.7 219.9 -34.45 217.4 -34.7 215.65 -35.0 213.9 -36.35 213.6 -37.8 213.3 -38.55 214.8 L-39.7 217.55 Q-40.1 218.75 -39.8 219.85 M-39.1 244.0 Q-35.55 243.9 -32.55 246.1 -31.95 247.15 -31.55 249.15 -30.55 253.65 -28.7 257.45 L-31.6 255.55 Q-35.2 253.55 -39.05 254.7 -42.8 255.75 -41.85 260.75 L-45.8 251.5 Q-47.35 248.1 -45.2 246.1 -43.1 244.15 -39.1 244.0 M-43.45 247.3 L-42.7 250.2 Q-42.3 251.4 -41.4 252.1 L-39.3 253.65 Q-38.1 254.5 -37.8 253.45 -37.55 252.4 -38.05 249.65 -38.55 246.9 -39.85 245.7 -41.2 244.45 -42.45 245.05 -43.75 245.65 -43.45 247.3 M-27.95 270.6 Q-24.6 269.35 -21.1 270.5 -20.2 271.3 -19.15 273.0 -16.75 276.95 -13.8 280.0 L-17.15 279.1 Q-21.2 278.35 -24.45 280.7 -27.65 282.9 -27.3 286.6 -29.7 284.25 -31.9 281.25 -34.55 277.65 -33.3 275.25 -31.65 272.0 -27.95 270.6 M-25.15 275.6 Q-26.5 273.15 -28.1 272.45 -29.75 271.7 -30.8 272.7 -31.85 273.7 -31.0 275.15 L-29.35 277.6 Q-28.55 278.65 -27.55 279.0 L-25.05 279.8 Q-23.6 280.2 -23.7 279.15 -23.8 278.05 -25.15 275.6 M-16.7 293.35 Q-13.15 293.6 -10.4 296.15 -9.95 297.25 -9.7 299.25 -9.2 303.85 -7.8 307.8 L-10.45 305.6 Q-13.8 303.25 -17.75 304.0 -21.6 304.65 -22.85 308.15 -24.05 305.0 -24.75 301.35 -25.6 297.0 -23.45 295.35 -20.65 293.1 -16.7 293.35 M-20.15 294.05 Q-21.5 294.5 -21.35 296.2 L-20.9 299.15 Q-20.6 300.4 -19.85 301.15 L-17.9 302.9 Q-16.8 303.9 -16.4 302.9 -16.05 301.9 -16.25 299.1 -16.5 296.3 -17.6 294.95 -18.8 293.55 -20.15 294.05 M-22.0 331.05 Q-21.95 332.1 -20.55 331.55 L-18.2 330.45 Q-17.2 330.0 -16.55 328.9 L-15.2 326.2 Q-14.55 324.65 -15.65 323.8 L-18.35 323.85 Q-19.9 324.75 -20.95 327.35 -22.05 329.9 -22.0 331.05 M-32.3 344.15 Q-28.5 345.1 -26.5 348.1 -25.0 350.35 -27.15 354.25 -29.05 357.5 -31.15 360.1 -31.25 356.4 -34.65 354.55 -38.2 352.55 -42.15 353.75 -43.8 354.25 -45.35 355.05 -42.75 351.7 -40.8 347.5 -40.0 345.7 -39.15 344.8 -35.8 343.25 -32.3 344.15 M-28.55 331.75 L-31.75 333.0 Q-29.15 329.65 -27.2 325.45 -26.35 323.65 -25.55 322.75 -22.2 321.2 -18.7 322.1 -14.9 323.05 -12.9 326.05 -11.4 328.3 -13.6 332.2 -15.45 335.45 -17.55 338.05 -17.6 334.35 -21.05 332.5 -24.6 330.55 -28.55 331.75 M-29.3 345.85 L-31.95 345.9 Q-33.45 346.8 -34.55 349.4 -35.65 352.0 -35.6 353.1 -35.55 354.15 -34.2 353.6 L-31.8 352.5 Q-30.8 352.05 -30.15 350.95 L-28.8 348.3 Q-28.15 346.75 -29.3 345.85 M-52.45 367.8 Q-48.85 367.7 -45.8 370.3 -43.15 372.65 -41.9 376.7 -42.75 377.5 -43.75 379.25 -46.0 383.0 -47.85 385.25 L-48.15 383.9 Q-49.4 380.0 -53.05 378.2 -56.55 376.4 -59.6 378.5 -58.7 375.25 -57.05 371.85 -55.15 367.85 -52.45 367.8 M-49.0 368.8 Q-50.35 368.35 -51.25 369.8 L-52.65 372.4 Q-53.2 373.6 -53.0 374.65 L-52.55 377.25 Q-52.25 378.7 -51.3 378.1 -50.4 377.5 -48.9 375.15 -47.4 372.8 -47.5 371.05 -47.6 369.25 -49.0 368.8 M-64.15 394.85 Q-64.55 396.05 -64.25 397.15 L-63.55 399.65 Q-63.15 401.1 -62.25 400.4 -61.4 399.7 -60.15 397.2 -58.9 394.7 -59.15 392.95 -59.45 391.2 -60.8 390.9 -62.25 390.6 -63.0 392.1 L-64.15 394.85 M-68.6 394.7 Q-67.05 390.55 -64.35 390.25 -60.8 389.8 -57.55 392.1 -54.65 394.2 -53.6 397.75 -53.8 398.95 -54.65 400.8 -56.05 403.85 -56.9 406.85 L-58.3 406.4 -58.55 405.85 Q-60.2 402.05 -63.95 400.65 -67.6 399.2 -70.5 401.55 -69.9 398.2 -68.6 394.7 M-64.3 423.0 Q-65.65 421.75 -66.9 422.35 -68.2 422.95 -67.9 424.6 L-67.15 427.5 Q-66.75 428.7 -65.85 429.4 L-63.75 430.95 Q-62.55 431.8 -62.25 430.75 -62.0 429.7 -62.5 426.95 -63.0 424.2 -64.3 423.0 M-45.55 447.8 Q-44.65 448.6 -43.6 450.3 -41.2 454.25 -38.25 457.3 -39.9 456.7 -41.6 456.4 -45.65 455.65 -48.9 458.0 -52.1 460.2 -51.75 463.9 -54.15 461.55 -56.35 458.55 -59.0 454.95 -57.75 452.55 -56.1 449.3 -52.4 447.9 -49.05 446.65 -45.55 447.8 M-69.65 423.4 Q-67.55 421.45 -63.55 421.3 -60.0 421.2 -57.0 423.4 -56.4 424.45 -56.0 426.45 -55.0 430.95 -53.15 434.75 L-56.05 432.85 Q-59.65 430.85 -63.5 432.0 -67.25 433.05 -66.3 438.05 L-70.25 428.8 Q-71.8 425.4 -69.65 423.4 M-48.15 456.45 Q-48.25 455.35 -49.6 452.9 -50.95 450.45 -52.55 449.75 -54.2 449.0 -55.25 450.0 -56.3 451.0 -55.45 452.45 L-53.8 454.9 Q-53.0 455.95 -52.0 456.3 L-49.5 457.1 Q-48.05 457.5 -48.15 456.45 M-42.05 472.25 Q-43.25 470.85 -44.6 471.35 -45.95 471.8 -45.8 473.5 L-45.35 476.45 Q-45.05 477.7 -44.3 478.45 L-42.35 480.2 Q-41.25 481.2 -40.85 480.2 -40.5 479.2 -40.7 476.4 -40.95 473.6 -42.05 472.25 M-49.2 478.65 Q-50.05 474.3 -47.9 472.65 -45.1 470.4 -41.15 470.65 -37.6 470.9 -34.85 473.45 -34.4 474.55 -34.15 476.55 -33.65 481.15 -32.25 485.1 L-34.9 482.9 Q-38.25 480.55 -42.2 481.3 -46.05 481.95 -47.3 485.45 -48.5 482.3 -49.2 478.65" fill="#443422" fill-rule="evenodd" stroke="none"/>
    <path d="M-26.75 196.85 L-25.75 194.95 Q-25.15 193.9 -24.15 194.25 -23.2 194.55 -23.1 195.85 -23.05 197.1 -24.1 198.85 -25.15 200.55 -25.8 201.0 -26.45 201.4 -26.65 200.35 L-27.0 198.5 Q-27.15 197.7 -26.75 196.85 M-39.8 219.85 Q-40.1 218.75 -39.7 217.55 L-38.55 214.8 Q-37.8 213.3 -36.35 213.6 -35.0 213.9 -34.7 215.65 -34.45 217.4 -35.7 219.9 -36.95 222.4 -37.8 223.1 -38.7 223.8 -39.1 222.35 L-39.8 219.85 M-43.45 247.3 Q-43.75 245.65 -42.45 245.05 -41.2 244.45 -39.85 245.7 -38.55 246.9 -38.05 249.65 -37.55 252.4 -37.8 253.45 -38.1 254.5 -39.3 253.65 L-41.4 252.1 Q-42.3 251.4 -42.7 250.2 L-43.45 247.3 M-25.15 275.6 Q-23.8 278.05 -23.7 279.15 -23.6 280.2 -25.05 279.8 L-27.55 279.0 Q-28.55 278.65 -29.35 277.6 L-31.0 275.15 Q-31.85 273.7 -30.8 272.7 -29.75 271.7 -28.1 272.45 -26.5 273.15 -25.15 275.6 M-20.15 294.05 Q-18.8 293.55 -17.6 294.95 -16.5 296.3 -16.25 299.1 -16.05 301.9 -16.4 302.9 -16.8 303.9 -17.9 302.9 L-19.85 301.15 Q-20.6 300.4 -20.9 299.15 L-21.35 296.2 Q-21.5 294.5 -20.15 294.05 M-22.0 331.05 Q-22.05 329.9 -20.95 327.35 -19.9 324.75 -18.35 323.85 L-15.65 323.8 Q-14.55 324.65 -15.2 326.2 L-16.55 328.9 Q-17.2 330.0 -18.2 330.45 L-20.55 331.55 Q-21.95 332.1 -22.0 331.05 M-29.3 345.85 Q-28.15 346.75 -28.8 348.3 L-30.15 350.95 Q-30.8 352.05 -31.8 352.5 L-34.2 353.6 Q-35.55 354.15 -35.6 353.1 -35.65 352.0 -34.55 349.4 -33.45 346.8 -31.95 345.9 L-29.3 345.85 M-64.15 394.85 L-63.0 392.1 Q-62.25 390.6 -60.8 390.9 -59.45 391.2 -59.15 392.95 -58.9 394.7 -60.15 397.2 -61.4 399.7 -62.25 400.4 -63.15 401.1 -63.55 399.65 L-64.25 397.15 Q-64.55 396.05 -64.15 394.85 M-49.0 368.8 Q-47.6 369.25 -47.5 371.05 -47.4 372.8 -48.9 375.15 -50.4 377.5 -51.3 378.1 -52.25 378.7 -52.55 377.25 L-53.0 374.65 Q-53.2 373.6 -52.65 372.4 L-51.25 369.8 Q-50.35 368.35 -49.0 368.8 M-64.3 423.0 Q-63.0 424.2 -62.5 426.95 -62.0 429.7 -62.25 430.75 -62.55 431.8 -63.75 430.95 L-65.85 429.4 Q-66.75 428.7 -67.15 427.5 L-67.9 424.6 Q-68.2 422.95 -66.9 422.35 -65.65 421.75 -64.3 423.0 M-42.05 472.25 Q-40.95 473.6 -40.7 476.4 -40.5 479.2 -40.85 480.2 -41.25 481.2 -42.35 480.2 L-44.3 478.45 Q-45.05 477.7 -45.35 476.45 L-45.8 473.5 Q-45.95 471.8 -44.6 471.35 -43.25 470.85 -42.05 472.25 M-48.15 456.45 Q-48.05 457.5 -49.5 457.1 L-52.0 456.3 Q-53.0 455.95 -53.8 454.9 L-55.45 452.45 Q-56.3 451.0 -55.25 450.0 -54.2 449.0 -52.55 449.75 -50.95 450.45 -49.6 452.9 -48.25 455.35 -48.15 456.45" fill="#ab8458" fill-rule="evenodd" stroke="none"/>
  </g>
  <defs>
    <radialGradient cx="0" cy="0" gradientTransform="matrix(-0.0018, -8.0E-4, 0.0026, -0.0052, -61.75, 527.8)" gradientUnits="userSpaceOnUse" id="gradient0" r="819.2" spreadMethod="pad">
      <stop offset="0.0" stop-color="#ffffff"/>
      <stop offset="0.6705882352941176" stop-color="#000000"/>
    </radialGradient>
  </defs>
</svg>
