<?xml version="1.0" encoding="UTF-8" standalone="no"?>
<svg xmlns:xlink="http://www.w3.org/1999/xlink" height="424.6px" width="85.9px" xmlns="http://www.w3.org/2000/svg">
  <g transform="matrix(1.0, 0.0, 0.0, 1.0, 94.05, -170.9)">
    <path d="M-40.15 214.25 Q-38.85 212.4 -36.75 211.75 L-32.2 212.0 -31.85 212.2 Q-30.65 213.05 -30.55 215.6 -30.5 218.0 -30.8 220.15 L-31.15 219.65 Q-32.45 218.15 -34.6 218.25 -37.15 218.35 -38.9 220.3 L-40.1 221.8 -40.25 221.8 Q-40.05 219.8 -40.15 217.65 L-40.25 216.45 -40.25 214.4 -40.15 214.25 M-33.7 216.15 Q-33.3 215.6 -33.3 214.75 L-33.4 212.85 Q-33.6 211.8 -34.5 211.7 -35.4 211.6 -35.95 212.6 -36.45 213.6 -36.2 215.4 -35.95 217.15 -35.55 217.75 -35.2 218.35 -34.6 217.55 L-33.7 216.15 M-41.4 236.95 Q-39.85 235.1 -37.6 234.4 -34.55 233.5 -31.9 234.75 -30.85 235.25 -30.3 236.6 -29.9 237.65 -29.85 239.2 L-29.9 242.45 -30.15 244.9 Q-31.75 242.35 -34.9 242.55 -38.15 242.65 -40.3 245.1 L-41.8 247.0 -41.95 247.0 -41.8 244.15 -42.0 240.25 Q-42.2 238.65 -42.0 237.7 L-41.4 236.95 M-37.9 262.35 Q-36.7 260.55 -35.05 259.4 L-34.6 259.1 Q-32.8 257.95 -30.9 257.6 L-28.25 257.55 Q-27.6 257.6 -27.05 257.9 -25.2 258.85 -24.0 262.05 -23.0 264.8 -22.4 267.5 L-22.1 268.9 Q-23.85 267.45 -25.8 267.4 -27.2 267.35 -28.65 267.95 L-30.9 269.15 -32.8 271.0 -34.05 273.15 -34.45 274.25 -34.45 274.5 Q-35.7 272.7 -36.95 270.15 L-37.95 268.1 -38.5 267.0 -39.6 265.4 -39.4 264.95 -37.9 262.35 M-36.1 241.9 Q-35.65 242.65 -34.95 241.7 L-33.75 239.95 Q-33.3 239.2 -33.25 238.2 L-33.45 235.8 Q-33.65 234.45 -34.8 234.35 -35.95 234.2 -36.6 235.5 -37.25 236.75 -36.9 238.95 -36.6 241.15 -36.1 241.9 M-43.45 248.6 L-43.2 248.6 -43.5 249.0 -43.45 248.6 M-30.65 258.3 L-31.75 258.2 Q-33.2 258.5 -33.45 260.3 -33.75 262.05 -32.45 264.55 -31.2 267.05 -30.35 267.7 -29.5 268.4 -29.05 266.95 L-28.35 264.45 Q-28.15 263.8 -28.25 263.1 L-28.45 262.15 Q-28.85 260.9 -29.6 259.4 -30.05 258.6 -30.65 258.3 M-22.95 282.5 L-21.9 281.65 Q-20.6 280.7 -19.2 280.25 -17.2 279.5 -15.05 279.8 L-14.4 279.95 Q-12.2 280.6 -10.85 284.25 -9.55 287.75 -8.95 291.1 -9.9 290.3 -10.95 289.95 L-15.2 290.1 -15.45 290.2 Q-17.65 291.0 -19.05 292.55 -20.2 293.75 -20.9 295.4 L-21.1 295.9 -21.1 295.95 -22.55 296.4 Q-23.4 293.4 -24.8 290.35 -25.65 288.5 -25.8 287.3 -25.4 285.85 -24.65 284.65 L-22.95 282.5 M-22.85 313.95 L-22.4 312.95 Q-21.3 312.1 -20.05 311.6 L-18.3 311.1 -15.85 310.85 -13.55 311.15 Q-11.25 311.6 -9.75 312.95 L-9.1 313.75 Q-7.95 315.55 -9.2 318.35 L-11.05 322.65 -13.15 327.6 Q-12.2 322.8 -15.7 321.65 L-15.95 321.55 -20.4 321.3 -22.0 321.75 Q-22.7 322.0 -23.4 322.4 -24.65 323.1 -25.8 323.95 L-26.25 324.3 Q-24.45 320.5 -23.45 316.0 L-22.85 313.95 M-18.6 280.45 L-19.05 280.6 Q-20.05 281.05 -20.3 282.5 -20.55 284.25 -19.3 286.75 -18.05 289.25 -17.15 289.95 -16.3 290.65 -15.85 289.2 L-15.7 288.7 -15.15 286.7 Q-14.9 285.6 -15.3 284.4 -15.7 283.15 -16.45 281.65 -17.2 280.15 -18.6 280.45 M-21.3 344.15 Q-21.5 345.9 -23.05 348.1 L-25.15 350.75 -27.7 353.45 Q-27.5 351.3 -28.5 349.65 -29.2 348.45 -30.55 347.55 L-31.7 346.85 Q-33.45 345.9 -35.4 345.8 L-37.85 345.95 -38.75 346.1 -41.2 346.85 Q-38.25 343.8 -35.8 339.85 -34.8 338.15 -33.9 337.35 L-33.05 337.1 -29.5 336.85 Q-28.25 337.0 -27.0 337.45 L-26.45 337.7 Q-24.25 338.65 -22.85 340.35 -22.2 341.1 -21.7 342.1 -21.2 343.05 -21.3 344.15 M-37.45 370.5 L-37.7 371.0 Q-39.05 373.3 -40.55 375.3 L-41.75 376.85 Q-41.8 374.05 -43.7 372.3 L-45.2 371.25 Q-46.9 370.3 -48.65 370.05 -49.65 369.9 -50.7 370.05 L-52.65 370.4 -54.5 371.05 -55.9 371.65 Q-53.3 368.3 -51.3 364.15 -50.45 362.35 -49.6 361.45 L-48.05 360.9 -45.55 360.5 -42.75 360.85 -42.15 361.0 Q-39.7 361.8 -38.1 363.5 L-37.0 364.9 Q-35.6 367.0 -37.45 370.5 M-53.05 394.35 Q-53.0 396.0 -54.2 398.4 L-55.5 401.05 -57.5 405.7 Q-57.5 403.2 -59.05 401.55 L-60.95 400.1 Q-62.5 399.2 -64.1 398.95 -65.6 398.7 -67.15 398.95 L-68.4 399.25 -68.8 399.4 Q-69.95 399.85 -70.35 400.75 -68.95 397.0 -67.05 393.0 -66.4 391.6 -65.75 390.75 L-65.35 390.3 Q-64.2 389.75 -63.05 389.55 L-60.4 389.35 -58.5 389.7 Q-56.95 390.1 -55.85 390.65 -54.2 391.5 -53.5 392.65 -53.05 393.4 -53.05 394.35 M-55.1 426.25 L-54.8 426.9 Q-54.2 427.85 -53.7 429.15 L-52.4 433.35 -51.8 436.0 Q-52.3 435.55 -52.85 435.3 L-52.3 437.3 Q-53.65 435.5 -55.55 435.0 L-57.6 434.8 -58.35 435.05 -59.55 435.6 Q-61.7 436.75 -62.95 438.75 L-63.75 440.25 -64.15 441.6 -64.55 441.0 -65.4 439.6 -65.5 439.85 -65.55 441.05 -66.45 437.65 -67.65 435.2 Q-68.55 433.35 -69.3 432.5 L-68.4 430.65 -67.85 429.75 -67.85 429.7 -66.4 427.65 -65.05 426.45 Q-64.0 425.6 -62.7 425.1 -60.7 424.3 -59.15 424.2 L-56.9 424.5 Q-55.85 424.9 -55.1 426.25 M-44.75 446.9 Q-42.1 447.2 -40.55 451.35 -39.25 454.85 -38.65 458.2 L-38.7 458.15 Q-41.15 456.2 -44.1 456.95 L-45.15 457.3 Q-46.75 457.9 -48.0 458.9 L-49.75 460.95 -50.6 462.5 -50.8 463.05 -51.45 463.25 -52.25 463.5 Q-53.1 460.5 -54.5 457.45 L-54.9 456.45 -55.5 454.4 -54.7 452.3 -53.35 450.35 -51.6 448.75 Q-50.3 447.85 -48.95 447.35 -46.95 446.6 -44.75 446.9 M-33.65 483.55 Q-32.0 485.45 -33.4 488.6 L-34.1 490.2 -35.35 493.2 -37.35 497.85 Q-36.4 492.95 -40.0 491.85 L-40.15 491.8 -44.75 491.55 -46.45 492.1 Q-47.0 492.3 -47.6 492.65 L-49.15 493.6 -50.45 494.55 Q-48.65 490.75 -47.65 486.25 L-47.2 484.65 -46.6 483.2 -45.0 482.2 -42.75 481.4 -40.05 481.1 -38.0 481.35 Q-35.5 481.8 -33.95 483.2 L-33.65 483.55 M-45.55 520.4 Q-45.45 522.35 -47.3 524.95 L-50.15 528.45 -51.95 530.3 Q-51.75 528.15 -52.75 526.5 -53.5 525.3 -54.8 524.4 L-56.05 523.65 Q-57.75 522.75 -59.55 522.65 L-62.1 522.8 -63.15 523.0 Q-64.3 523.25 -65.45 523.7 -62.5 520.65 -60.05 516.7 L-58.65 514.7 -58.15 514.2 -57.45 514.0 -54.0 513.7 Q-52.6 513.8 -51.25 514.3 -48.95 515.2 -47.45 516.8 -46.55 517.75 -45.95 518.95 -45.6 519.6 -45.55 520.4 M-62.0 547.75 Q-62.35 548.8 -63.05 550.05 -64.95 553.25 -67.1 555.9 L-67.1 555.6 Q-67.2 552.9 -69.2 551.2 -69.8 550.7 -70.55 550.3 -72.4 549.25 -74.35 549.1 L-76.5 549.15 -78.0 549.45 -80.4 550.3 -81.25 550.7 Q-78.65 547.35 -76.65 543.2 -75.8 541.4 -74.95 540.5 L-73.95 540.1 -71.4 539.6 -68.1 539.9 -67.75 540.0 Q-65.35 540.7 -63.7 542.3 -62.95 543.0 -62.35 543.95 -61.35 545.45 -62.0 547.75 M-12.5 311.9 L-13.65 311.75 Q-14.4 311.8 -15.1 312.55 -16.45 313.75 -16.95 316.5 -17.45 319.25 -17.15 320.3 -16.9 321.35 -15.65 320.5 L-15.3 320.25 -13.55 318.95 Q-12.7 318.25 -12.3 317.05 L-11.55 314.15 Q-11.25 312.5 -12.5 311.9 M-31.3 346.0 L-31.3 346.15 Q-31.25 347.05 -29.95 346.65 L-27.45 345.85 Q-26.45 345.5 -25.65 344.45 L-24.0 342.0 Q-23.15 340.55 -24.2 339.55 -25.25 338.55 -26.85 339.3 L-27.45 339.6 Q-28.75 340.45 -29.85 342.45 -31.2 344.9 -31.3 346.0 M-44.7 370.3 L-42.3 369.2 Q-41.35 368.75 -40.65 367.65 L-39.25 365.0 Q-38.6 363.45 -39.75 362.6 -40.9 361.7 -42.4 362.6 -43.95 363.5 -45.05 366.1 -46.15 368.7 -46.1 369.8 -46.1 370.85 -44.7 370.3 M-56.0 391.15 Q-57.0 390.75 -58.15 391.45 -59.7 392.35 -60.8 394.95 -61.9 397.55 -61.85 398.65 -61.85 399.7 -60.45 399.15 L-58.25 398.15 -58.05 398.05 Q-57.1 397.6 -56.4 396.5 L-55.0 393.85 Q-54.35 392.3 -55.5 391.45 L-56.0 391.15 M-63.15 427.4 Q-63.4 428.95 -62.4 431.15 L-62.15 431.65 Q-60.9 434.15 -60.05 434.8 L-59.75 435.0 Q-59.1 435.2 -58.75 434.05 L-58.7 434.0 -58.05 431.55 Q-57.75 430.5 -58.15 429.25 -58.55 428.0 -59.3 426.5 -59.85 425.45 -60.7 425.3 L-61.45 425.3 Q-62.9 425.6 -63.15 427.4 M-46.15 448.75 Q-46.9 447.25 -48.3 447.55 L-48.75 447.7 Q-49.75 448.15 -50.0 449.6 -50.25 451.35 -49.0 453.85 -47.75 456.35 -46.85 457.05 -46.0 457.75 -45.55 456.3 L-45.1 454.8 -44.85 453.8 Q-44.6 452.7 -45.0 451.5 -45.4 450.25 -46.15 448.75 M-41.15 486.75 Q-41.65 489.5 -41.35 490.55 -41.1 491.6 -39.85 490.75 L-39.5 490.5 -38.9 490.1 -37.75 489.2 Q-36.9 488.5 -36.5 487.3 L-35.75 484.4 Q-35.45 482.75 -36.7 482.15 L-38.0 482.0 Q-38.65 482.15 -39.3 482.8 -40.65 484.0 -41.15 486.75 M-51.1 516.15 L-52.55 517.2 -54.1 519.3 Q-55.4 521.6 -55.55 522.75 L-55.55 522.85 Q-55.65 523.9 -54.2 523.5 L-51.7 522.7 Q-50.7 522.35 -49.9 521.3 L-49.3 520.5 -48.25 518.85 -47.85 517.7 Q-47.85 516.95 -48.45 516.4 -49.5 515.4 -51.1 516.15 M-64.4 543.45 Q-64.2 542.3 -65.1 541.65 -66.25 540.75 -67.75 541.65 -69.3 542.55 -70.4 545.15 -71.5 547.75 -71.45 548.85 -71.45 549.9 -70.05 549.35 L-67.65 548.25 -67.15 547.95 Q-66.5 547.5 -66.0 546.7 L-64.6 544.05 -64.4 543.45" fill="#443422" fill-rule="evenodd" stroke="none"/>
    <path d="M-33.7 216.15 L-34.6 217.55 Q-35.2 218.35 -35.55 217.75 -35.95 217.15 -36.2 215.4 -36.45 213.6 -35.95 212.6 -35.4 211.6 -34.5 211.7 -33.6 211.8 -33.4 212.85 L-33.3 214.75 Q-33.3 215.6 -33.7 216.15 M-36.1 241.9 Q-36.6 241.15 -36.9 238.95 -37.25 236.75 -36.6 235.5 -35.95 234.2 -34.8 234.35 -33.65 234.45 -33.45 235.8 L-33.25 238.2 Q-33.3 239.2 -33.75 239.95 L-34.95 241.7 Q-35.65 242.65 -36.1 241.9 M-30.65 258.3 Q-30.05 258.6 -29.6 259.4 -28.85 260.9 -28.45 262.15 L-28.25 263.1 Q-28.15 263.8 -28.35 264.45 L-29.05 266.95 Q-29.5 268.4 -30.35 267.7 -31.2 267.05 -32.45 264.55 -33.75 262.05 -33.45 260.3 -33.2 258.5 -31.75 258.2 L-30.65 258.3 M-18.6 280.45 Q-17.2 280.15 -16.45 281.65 -15.7 283.15 -15.3 284.4 -14.9 285.6 -15.15 286.7 L-15.7 288.7 -15.85 289.2 Q-16.3 290.65 -17.15 289.95 -18.05 289.25 -19.3 286.75 -20.55 284.25 -20.3 282.5 -20.05 281.05 -19.05 280.6 L-18.6 280.45 M-12.5 311.9 Q-11.25 312.5 -11.55 314.15 L-12.3 317.05 Q-12.7 318.25 -13.55 318.95 L-15.3 320.25 -15.65 320.5 Q-16.9 321.35 -17.15 320.3 -17.45 319.25 -16.95 316.5 -16.45 313.75 -15.1 312.55 -14.4 311.8 -13.65 311.75 L-12.5 311.9 M-31.3 346.0 Q-31.2 344.9 -29.85 342.45 -28.75 340.45 -27.45 339.6 L-26.85 339.3 Q-25.25 338.55 -24.2 339.55 -23.15 340.55 -24.0 342.0 L-25.65 344.45 Q-26.45 345.5 -27.45 345.85 L-29.95 346.65 Q-31.25 347.05 -31.3 346.15 L-31.3 346.0 M-44.7 370.3 Q-46.1 370.85 -46.1 369.8 -46.15 368.7 -45.05 366.1 -43.95 363.5 -42.4 362.6 -40.9 361.7 -39.75 362.6 -38.6 363.45 -39.25 365.0 L-40.65 367.65 Q-41.35 368.75 -42.3 369.2 L-44.7 370.3 M-56.0 391.15 L-55.5 391.45 Q-54.35 392.3 -55.0 393.85 L-56.4 396.5 Q-57.1 397.6 -58.05 398.05 L-58.25 398.15 -60.45 399.15 Q-61.85 399.7 -61.85 398.65 -61.9 397.55 -60.8 394.95 -59.7 392.35 -58.15 391.45 -57.0 390.75 -56.0 391.15 M-63.15 427.4 Q-62.9 425.6 -61.45 425.3 L-60.7 425.3 Q-59.85 425.45 -59.3 426.5 -58.55 428.0 -58.15 429.25 -57.75 430.5 -58.05 431.55 L-58.7 434.0 -58.75 434.05 Q-59.1 435.2 -59.75 435.0 L-60.05 434.8 Q-60.9 434.15 -62.15 431.65 L-62.4 431.15 Q-63.4 428.95 -63.15 427.4 M-46.15 448.75 Q-45.4 450.25 -45.0 451.5 -44.6 452.7 -44.85 453.8 L-45.1 454.8 -45.55 456.3 Q-46.0 457.75 -46.85 457.05 -47.75 456.35 -49.0 453.85 -50.25 451.35 -50.0 449.6 -49.75 448.15 -48.75 447.7 L-48.3 447.55 Q-46.9 447.25 -46.15 448.75 M-41.15 486.75 Q-40.65 484.0 -39.3 482.8 -38.65 482.15 -38.0 482.0 L-36.7 482.15 Q-35.45 482.75 -35.75 484.4 L-36.5 487.3 Q-36.9 488.5 -37.75 489.2 L-38.9 490.1 -39.5 490.5 -39.85 490.75 Q-41.1 491.6 -41.35 490.55 -41.65 489.5 -41.15 486.75 M-51.1 516.15 Q-49.5 515.4 -48.45 516.4 -47.85 516.95 -47.85 517.7 L-48.25 518.85 -49.3 520.5 -49.9 521.3 Q-50.7 522.35 -51.7 522.7 L-54.2 523.5 Q-55.65 523.9 -55.55 522.85 L-55.55 522.75 Q-55.4 521.6 -54.1 519.3 L-52.55 517.2 -51.1 516.15 M-64.4 543.45 L-64.6 544.05 -66.0 546.7 Q-66.5 547.5 -67.15 547.95 L-67.65 548.25 -70.05 549.35 Q-71.45 549.9 -71.45 548.85 -71.5 547.75 -70.4 545.15 -69.3 542.55 -67.75 541.65 -66.25 540.75 -65.1 541.65 -64.2 542.3 -64.4 543.45" fill="#ab8458" fill-rule="evenodd" stroke="none"/>
    <path d="M-31.85 212.2 L-32.2 212.0 -36.75 211.75 Q-38.85 212.4 -40.15 214.25 L-40.3 208.75 -43.25 171.4 Q-34.4 190.65 -31.85 212.2 M-40.15 217.65 Q-40.05 219.8 -40.25 221.8 L-40.1 221.8 -38.9 220.3 Q-37.15 218.35 -34.6 218.25 -32.45 218.15 -31.15 219.65 L-30.85 228.75 -30.3 236.6 Q-30.85 235.25 -31.9 234.75 -34.55 233.5 -37.6 234.4 -39.85 235.1 -41.4 236.95 L-41.4 235.3 Q-40.25 227.5 -40.15 217.65 M-41.8 244.15 L-41.95 247.0 -41.8 247.0 -40.3 245.1 Q-38.15 242.65 -34.9 242.55 -31.75 242.35 -30.15 244.9 L-29.9 242.45 -29.45 249.15 -29.4 249.15 -28.1 254.5 -27.05 257.9 Q-27.6 257.6 -28.25 257.55 L-30.9 257.6 -31.75 254.5 -32.2 252.1 -36.0 252.1 -35.6 254.5 -34.6 259.1 -35.05 259.4 Q-36.7 260.55 -37.9 262.35 -39.55 258.85 -40.05 254.5 L-40.2 253.0 -40.15 253.0 -39.95 252.1 -40.4 252.1 -43.05 252.7 -43.05 252.6 Q-43.1 252.5 -43.4 252.75 -42.3 249.05 -41.8 244.15 M-32.8 271.0 L-30.9 269.15 Q-29.1 272.9 -26.55 276.65 L-26.05 277.4 -26.0 277.45 Q-24.3 279.9 -22.95 282.5 L-24.65 284.65 Q-26.1 281.4 -27.9 278.55 L-28.35 277.85 -28.4 277.8 -32.8 271.0 M-25.8 267.4 Q-23.85 267.45 -22.1 268.9 L-22.4 267.5 Q-20.55 270.0 -18.45 271.35 -16.15 275.7 -14.4 279.95 L-15.05 279.8 Q-17.2 279.5 -19.2 280.25 L-21.45 275.65 -25.8 267.4 M-20.05 311.6 L-19.95 309.7 -19.95 308.4 Q-19.95 301.7 -21.1 295.95 L-21.1 295.9 -20.9 295.4 Q-20.2 293.75 -19.05 292.55 -17.0 300.85 -18.15 309.75 L-18.3 311.1 -20.05 311.6 M-13.55 311.15 L-13.15 307.5 Q-12.35 298.35 -15.1 290.4 L-15.2 290.1 -10.95 289.95 Q-7.6 302.35 -9.1 313.75 L-9.75 312.95 Q-11.25 311.6 -13.55 311.15 M-11.05 322.65 Q-11.95 325.5 -13.15 328.25 -15.65 334.2 -21.3 344.15 -21.2 343.05 -21.7 342.1 -22.2 341.1 -22.85 340.35 L-22.15 338.95 Q-18.8 332.35 -16.3 323.8 L-15.7 321.65 Q-12.2 322.8 -13.15 327.6 L-11.05 322.65 M-25.15 350.75 L-29.25 357.5 -37.45 370.5 Q-35.6 367.0 -37.0 364.9 L-38.1 363.5 -34.2 357.5 -30.75 352.75 -28.5 349.65 Q-27.5 351.3 -27.7 353.45 L-25.15 350.75 M-40.55 375.3 L-45.75 383.25 -49.0 387.4 Q-51.4 390.8 -53.05 394.35 -53.05 393.4 -53.5 392.65 -54.2 391.5 -55.85 390.65 L-54.4 387.4 Q-51.95 382.45 -48.3 378.15 L-43.7 372.3 Q-41.8 374.05 -41.75 376.85 L-40.55 375.3 M-55.5 401.05 Q-56.8 405.9 -56.9 411.05 -57.1 417.9 -55.15 425.3 L-55.5 424.7 -55.1 426.25 Q-55.85 424.9 -56.9 424.5 L-59.15 424.2 Q-60.6 417.2 -60.35 411.05 L-60.1 407.85 Q-59.75 404.65 -59.05 401.55 -57.5 403.2 -57.5 405.7 L-55.5 401.05 M-52.4 433.35 L-50.55 438.4 -47.9 443.3 Q-46.45 445.5 -44.75 446.9 -46.95 446.6 -48.95 447.35 L-54.0 438.25 -55.55 435.0 Q-53.65 435.5 -52.3 437.3 L-52.85 435.3 Q-52.3 435.55 -51.8 436.0 L-52.4 433.35 M-38.7 458.15 Q-33.55 471.35 -33.65 483.55 L-33.95 483.2 Q-35.5 481.8 -38.0 481.35 L-38.0 478.05 Q-38.25 472.2 -40.1 466.9 -41.95 461.75 -44.1 456.95 -41.15 456.2 -38.7 458.15 M-34.1 490.2 Q-35.05 497.45 -37.95 504.35 L-39.5 508.25 Q-41.5 513.05 -45.55 520.4 -45.6 519.6 -45.95 518.95 -46.55 517.75 -47.45 516.8 L-46.5 514.7 -44.65 510.05 -42.65 503.8 Q-40.9 497.85 -40.0 491.85 -36.4 492.95 -37.35 497.85 L-35.35 493.2 -34.1 490.2 M-50.15 528.45 Q-55.1 536.85 -62.0 547.75 -61.35 545.45 -62.35 543.95 -62.95 543.0 -63.7 542.3 -60.65 537.3 -57.1 532.75 -54.8 529.75 -52.75 526.5 -51.75 528.15 -51.95 530.3 L-50.15 528.45 M-67.1 555.6 L-72.1 563.25 -74.45 566.2 -74.4 566.2 -74.55 566.65 -75.75 571.15 Q-76.4 577.25 -77.5 581.85 -78.5 582.7 -79.9 582.3 -85.9 580.6 -86.7 572.9 -87.05 569.55 -86.6 566.25 L-86.15 563.9 -86.15 563.85 -86.05 563.4 -85.9 563.5 -82.9 558.9 -82.9 558.85 -81.4 556.65 -81.35 556.6 -76.9 549.75 -76.5 549.15 -74.35 549.1 -74.8 549.75 -80.0 557.5 -81.5 559.8 -84.15 564.3 -82.45 565.05 -82.45 566.25 Q-82.3 569.15 -81.15 571.8 -78.65 577.6 -76.05 568.35 L-75.55 566.6 -75.5 566.45 -75.45 566.25 -76.25 566.25 Q-74.75 565.0 -73.6 561.45 -71.55 555.2 -69.2 551.2 -67.2 552.9 -67.1 555.6 M-20.4 321.3 L-21.65 325.65 Q-23.65 332.0 -26.45 337.7 L-27.0 337.45 Q-28.25 337.0 -29.5 336.85 -25.75 330.7 -23.2 324.9 L-22.65 323.5 -22.0 321.75 -20.4 321.3 M-35.4 345.8 Q-33.45 345.9 -31.7 346.85 L-36.75 353.9 -39.55 357.5 -42.15 361.0 -42.75 360.85 -45.55 360.5 -43.8 357.5 Q-41.4 353.5 -38.5 349.85 L-35.4 345.8 M-48.65 370.05 L-53.65 377.5 -55.15 379.8 Q-57.5 383.5 -59.45 387.4 L-60.4 389.35 -63.05 389.55 -61.85 387.4 Q-59.4 383.05 -56.55 378.9 L-56.55 378.85 -55.05 376.65 -55.0 376.6 -50.7 370.05 Q-49.65 369.9 -48.65 370.05 M-67.15 398.95 Q-65.6 398.7 -64.1 398.95 -65.85 404.75 -66.25 411.05 L-66.3 411.6 Q-66.6 416.2 -66.1 420.55 L-65.05 426.45 -66.4 427.65 -66.9 426.95 Q-67.05 425.1 -67.45 423.5 -68.55 419.55 -68.7 415.1 L-68.7 411.05 -68.2 405.1 Q-67.8 401.4 -67.15 398.95 M-62.95 438.75 Q-61.7 436.75 -59.55 435.6 L-58.05 440.6 Q-56.35 445.45 -53.35 450.35 L-54.7 452.3 -61.8 440.95 -62.95 438.75 M-48.0 458.9 Q-45.75 463.1 -44.45 467.6 L-44.1 469.0 Q-43.0 473.45 -42.75 478.05 L-42.75 481.4 -45.0 482.2 -45.25 478.05 Q-45.8 472.9 -47.1 468.35 -48.2 464.45 -49.75 460.95 L-48.0 458.9 M-46.45 492.1 L-44.75 491.55 -45.65 496.65 -46.5 500.35 -48.0 505.65 -49.15 509.1 -51.25 514.3 Q-52.6 513.8 -54.0 513.7 -51.45 509.2 -49.55 504.9 L-49.0 503.5 -48.25 501.45 -48.2 501.4 -47.8 500.05 -46.95 496.35 -46.45 492.1 M-59.55 522.65 Q-57.75 522.75 -56.05 523.65 -59.1 528.65 -63.1 533.9 L-67.75 540.0 -68.1 539.9 -71.4 539.6 Q-68.5 534.45 -64.85 529.85 -62.15 526.45 -59.55 522.65 M-35.35 493.2 Q-36.1 498.85 -37.95 504.35 -36.1 498.85 -35.35 493.2" fill="#a8b38c" fill-rule="evenodd" stroke="none"/>
    <path d="M-43.4 252.75 Q-43.1 252.5 -43.05 252.6 L-43.05 252.7 -40.4 252.1 -39.95 252.1 -40.15 253.0 -40.2 253.0 -40.05 254.5 Q-39.55 258.85 -37.9 262.35 L-39.4 264.95 Q-41.25 260.25 -42.6 254.5 L-42.7 254.2 -42.9 253.2 -43.0 253.2 -43.05 253.2 -43.05 253.05 -43.05 252.7 -43.4 252.75 M-43.0 253.2 L-43.05 253.05 -43.0 253.2 M-38.5 267.0 L-37.95 268.1 -36.95 270.15 -38.5 267.0 M-34.45 274.25 L-34.05 273.15 -32.8 271.0 -28.4 277.8 -28.35 277.85 -27.9 278.55 Q-26.1 281.4 -24.65 284.65 -25.4 285.85 -25.8 287.3 -25.65 288.5 -24.8 290.35 -23.4 293.4 -22.55 296.4 L-21.1 295.95 Q-19.95 301.7 -19.95 308.4 L-19.95 309.7 -20.05 311.6 Q-21.3 312.1 -22.4 312.95 L-22.85 313.95 Q-19.8 296.5 -30.7 278.65 L-34.45 274.25 M-77.5 581.85 Q-79.65 590.8 -83.5 593.7 -87.2 596.55 -91.35 593.25 -95.55 590.6 -91.7 572.95 L-89.55 566.25 -90.0 566.25 -86.6 560.1 -80.4 550.3 -78.0 549.45 -76.5 549.15 -76.9 549.75 -81.35 556.6 -81.4 556.65 -82.9 558.85 -82.9 558.9 -85.9 563.5 -86.05 563.4 -86.15 563.85 -86.15 563.9 -86.6 566.25 Q-87.05 569.55 -86.7 572.9 -85.9 580.6 -79.9 582.3 -78.5 582.7 -77.5 581.85 M-73.95 540.1 L-63.15 523.0 -62.1 522.8 -59.55 522.65 Q-62.15 526.45 -64.85 529.85 -68.5 534.45 -71.4 539.6 L-73.95 540.1 M-58.65 514.7 L-58.75 514.7 -55.35 509.3 Q-52.85 505.25 -51.1 501.2 -49.8 497.4 -49.15 493.6 L-47.6 492.65 Q-47.0 492.3 -46.45 492.1 L-46.95 496.35 -47.8 500.05 -48.2 501.4 -48.25 501.45 -49.0 503.5 -49.55 504.9 Q-51.45 509.2 -54.0 513.7 L-57.45 514.0 -58.15 514.2 -58.65 514.7 M-47.2 484.65 Q-47.1 481.35 -47.45 478.05 L-48.1 478.05 -48.15 477.55 -48.2 477.15 -48.35 476.8 Q-53.3 461.05 -56.2 456.35 L-57.4 455.1 -57.05 455.7 Q-62.25 448.55 -65.5 439.85 L-65.4 439.6 -64.55 441.0 -64.15 441.6 -63.75 440.25 -62.95 438.75 -61.8 440.95 -54.7 452.3 -55.5 454.4 -54.9 456.45 -54.5 457.45 Q-53.1 460.5 -52.25 463.5 L-51.45 463.25 -50.8 463.05 -50.6 462.5 -49.75 460.95 Q-48.2 464.45 -47.1 468.35 -45.8 472.9 -45.25 478.05 L-45.0 482.2 -46.6 483.2 -47.2 484.65 M-68.4 430.65 L-68.8 429.4 Q-71.5 420.4 -70.85 411.05 -70.5 405.3 -68.8 399.4 L-68.4 399.25 -67.15 398.95 Q-67.8 401.4 -68.2 405.1 L-68.7 411.05 -68.7 415.1 Q-68.55 419.55 -67.45 423.5 -67.05 425.1 -66.9 426.95 L-66.4 427.65 -67.85 429.7 -67.85 429.75 -68.4 430.65 M-65.75 390.75 L-64.2 387.4 -60.25 380.1 -54.5 371.05 -52.65 370.4 -50.7 370.05 -55.0 376.6 -55.05 376.65 -56.55 378.85 -56.55 378.9 Q-59.4 383.05 -61.85 387.4 L-63.05 389.55 Q-64.2 389.75 -65.35 390.3 L-65.75 390.75 M-48.05 360.9 L-38.75 346.1 -37.85 345.95 -35.4 345.8 -38.5 349.85 Q-41.4 353.5 -43.8 357.5 L-45.55 360.5 -48.05 360.9 M-33.05 337.1 L-30.35 332.8 Q-27.6 328.4 -25.8 323.95 -24.65 323.1 -23.4 322.4 -22.7 322.0 -22.0 321.75 L-22.65 323.5 -23.2 324.9 Q-25.75 330.7 -29.5 336.85 L-33.05 337.1 M-64.55 441.0 Q-61.05 450.0 -55.7 455.15 L-54.9 456.45 -55.7 455.15 Q-61.05 450.0 -64.55 441.0 M-47.45 478.05 Q-48.25 470.7 -51.45 463.25 -48.25 470.7 -47.45 478.05 M-88.7 579.8 Q-89.2 579.7 -89.75 580.65 -90.3 581.6 -90.55 583.15 L-90.7 585.65 -90.25 586.75 -89.9 586.9 Q-89.45 587.0 -88.9 586.05 L-88.3 584.75 -88.05 583.65 Q-87.8 582.15 -87.95 581.0 -88.15 579.9 -88.7 579.8 M-51.1 501.2 Q-53.1 507.0 -56.7 512.8 L-57.45 514.0 -56.7 512.8 Q-53.1 507.0 -51.1 501.2" fill="#899865" fill-rule="evenodd" stroke="none"/>
    <path d="M-34.6 259.1 L-35.6 254.5 -36.0 252.1 -32.2 252.1 -31.75 254.5 -30.9 257.6 Q-32.8 257.95 -34.6 259.1 M-30.9 269.15 L-28.65 267.95 Q-27.2 267.35 -25.8 267.4 L-21.45 275.65 -19.2 280.25 Q-20.6 280.7 -21.9 281.65 L-22.95 282.5 Q-24.3 279.9 -26.0 277.45 L-26.05 277.4 -26.55 276.65 Q-29.1 272.9 -30.9 269.15 M-19.05 292.55 Q-17.65 291.0 -15.45 290.2 L-15.2 290.1 -15.1 290.4 Q-12.35 298.35 -13.15 307.5 L-13.55 311.15 -15.85 310.85 -18.3 311.1 -18.15 309.75 Q-17.0 300.85 -19.05 292.55 M-20.4 321.3 L-15.95 321.55 -15.7 321.65 -16.3 323.8 Q-18.8 332.35 -22.15 338.95 L-22.85 340.35 Q-24.25 338.65 -26.45 337.7 -23.65 332.0 -21.65 325.65 L-20.4 321.3 M-31.7 346.85 L-30.55 347.55 Q-29.2 348.45 -28.5 349.65 L-30.75 352.75 -34.2 357.5 -38.1 363.5 Q-39.7 361.8 -42.15 361.0 L-39.55 357.5 -36.75 353.9 -31.7 346.85 M-48.65 370.05 Q-46.9 370.3 -45.2 371.25 L-43.7 372.3 -48.3 378.15 Q-51.95 382.45 -54.4 387.4 L-55.85 390.65 Q-56.95 390.1 -58.5 389.7 L-60.4 389.35 -59.45 387.4 Q-57.5 383.5 -55.15 379.8 L-53.65 377.5 -48.65 370.05 M-59.05 401.55 Q-59.75 404.65 -60.1 407.85 L-60.35 411.05 Q-60.6 417.2 -59.15 424.2 -60.7 424.3 -62.7 425.1 -64.0 425.6 -65.05 426.45 L-66.1 420.55 Q-66.6 416.2 -66.3 411.6 L-66.25 411.05 Q-65.85 404.75 -64.1 398.95 -62.5 399.2 -60.95 400.1 L-59.05 401.55 M-59.55 435.6 L-58.35 435.05 -57.6 434.8 -55.55 435.0 -54.0 438.25 -48.95 447.35 Q-50.3 447.85 -51.6 448.75 L-53.35 450.35 Q-56.35 445.45 -58.05 440.6 L-59.55 435.6 M-48.0 458.9 Q-46.75 457.9 -45.15 457.3 L-44.1 456.95 Q-41.95 461.75 -40.1 466.9 -38.25 472.2 -38.0 478.05 L-38.0 481.35 -40.05 481.1 -42.75 481.4 -42.75 478.05 Q-43.0 473.45 -44.1 469.0 L-44.45 467.6 Q-45.75 463.1 -48.0 458.9 M-44.75 491.55 L-40.15 491.8 -40.0 491.85 Q-40.9 497.85 -42.65 503.8 L-44.65 510.05 -46.5 514.7 -47.45 516.8 Q-48.95 515.2 -51.25 514.3 L-49.15 509.1 -48.0 505.65 -46.5 500.35 -45.65 496.65 -44.75 491.55 M-75.55 566.6 L-76.05 568.35 Q-78.65 577.6 -81.15 571.8 -82.3 569.15 -82.45 566.25 L-82.45 565.05 -84.15 564.3 -81.5 559.8 -80.0 557.5 -74.8 549.75 -74.35 549.1 Q-72.4 549.25 -70.55 550.3 -69.8 550.7 -69.2 551.2 -71.55 555.2 -73.6 561.45 -74.75 565.0 -76.25 566.25 L-76.45 566.4 -75.55 566.6 M-56.05 523.65 L-54.8 524.4 Q-53.5 525.3 -52.75 526.5 -54.8 529.75 -57.1 532.75 -60.65 537.3 -63.7 542.3 -65.35 540.7 -67.75 540.0 L-63.1 533.9 Q-59.1 528.65 -56.05 523.65" fill="#c6cdb4" fill-rule="evenodd" stroke="none"/>
    <path d="M-88.7 579.8 Q-88.15 579.9 -87.95 581.0 -87.8 582.15 -88.05 583.65 L-88.3 584.75 -88.9 586.05 Q-89.45 587.0 -89.9 586.9 L-90.25 586.75 -90.7 585.65 -90.55 583.15 Q-90.3 581.6 -89.75 580.65 -89.2 579.7 -88.7 579.8" fill="url(#gradient0)" fill-rule="evenodd" stroke="none"/>
    <path d="M-31.85 212.2 Q-34.4 190.65 -43.25 171.4 L-40.3 208.75 -40.15 214.25 M-30.3 236.6 L-30.85 228.75 -31.15 219.65 M-41.8 244.15 Q-42.3 249.05 -43.4 252.75 -43.1 252.5 -43.05 252.6 L-43.05 252.7 -43.05 253.05 -43.0 253.2 -42.7 254.2 -42.6 254.5 Q-41.25 260.25 -39.4 264.95 M-27.05 257.9 L-28.1 254.5 -29.4 249.15 M-29.45 249.15 L-29.9 242.45 M-40.15 217.65 Q-40.25 227.5 -41.4 235.3 L-41.4 236.95 M-42.9 253.2 L-42.7 254.2 M-36.95 270.15 L-38.5 267.0 M-34.45 274.25 L-30.7 278.65 Q-19.8 296.5 -22.85 313.95 M-14.4 279.95 Q-16.15 275.7 -18.45 271.35 -20.55 270.0 -22.4 267.5 M-10.95 289.95 Q-7.6 302.35 -9.1 313.75 M-11.05 322.65 Q-11.95 325.5 -13.15 328.25 -15.65 334.2 -21.3 344.15 M-25.15 350.75 L-29.25 357.5 -37.45 370.5 M-40.55 375.3 L-45.75 383.25 -49.0 387.4 Q-51.4 390.8 -53.05 394.35 M-55.5 401.05 Q-56.8 405.9 -56.9 411.05 -57.1 417.9 -55.15 425.3 M-55.5 424.7 L-55.1 426.25 M-52.4 433.35 L-50.55 438.4 -47.9 443.3 Q-46.45 445.5 -44.75 446.9 M-38.7 458.15 Q-33.55 471.35 -33.65 483.55 M-34.1 490.2 Q-35.05 497.45 -37.95 504.35 L-39.5 508.25 Q-41.5 513.05 -45.55 520.4 M-50.15 528.45 Q-55.1 536.85 -62.0 547.75 M-67.1 555.6 L-72.1 563.25 -74.45 566.2 M-74.4 566.2 L-74.55 566.65 -75.75 571.15 Q-76.4 577.25 -77.5 581.85 -79.65 590.8 -83.5 593.7 -87.2 596.55 -91.35 593.25 -95.55 590.6 -91.7 572.95 L-89.55 566.25 M-90.0 566.25 L-86.6 560.1 -80.4 550.3 M-73.95 540.1 L-63.15 523.0 M-58.75 514.7 L-55.35 509.3 Q-52.85 505.25 -51.1 501.2 -49.8 497.4 -49.15 493.6 M-47.2 484.65 Q-47.1 481.35 -47.45 478.05 -48.25 470.7 -51.45 463.25 M-48.1 478.05 L-48.15 477.55 -48.2 477.15 -48.35 476.8 Q-53.3 461.05 -56.2 456.35 L-57.4 455.1 M-57.05 455.7 Q-62.25 448.55 -65.5 439.85 M-68.4 430.65 L-68.8 429.4 Q-71.5 420.4 -70.85 411.05 -70.5 405.3 -68.8 399.4 M-65.75 390.75 L-64.2 387.4 -60.25 380.1 -54.5 371.05 M-48.05 360.9 L-38.75 346.1 M-33.05 337.1 L-30.35 332.8 Q-27.6 328.4 -25.8 323.95 M-54.9 456.45 L-55.7 455.15 Q-61.05 450.0 -64.55 441.0 M-57.45 514.0 L-56.7 512.8 Q-53.1 507.0 -51.1 501.2 M-37.95 504.35 Q-36.1 498.85 -35.35 493.2" fill="none" stroke="#5f6150" stroke-linecap="round" stroke-linejoin="round" stroke-width="1.0"/>
  </g>
  <defs>
    <radialGradient cx="0" cy="0" gradientTransform="matrix(-0.0019, -4.0E-4, 0.0012, -0.0057, -89.25, 583.55)" gradientUnits="userSpaceOnUse" id="gradient0" r="819.2" spreadMethod="pad">
      <stop offset="0.0" stop-color="#ffffff"/>
      <stop offset="0.6705882352941176" stop-color="#000000"/>
    </radialGradient>
  </defs>
</svg>
