<?xml version="1.0" encoding="UTF-8" standalone="no"?>
<svg xmlns:xlink="http://www.w3.org/1999/xlink" height="400.4px" width="88.2px" xmlns="http://www.w3.org/2000/svg">
  <g transform="matrix(1.0, 0.0, 0.0, 1.0, 94.45, -251.6)">
    <path d="M-15.25 271.1 L-15.35 271.05 Q-16.8 270.15 -18.45 270.7 -20.3 271.3 -20.95 272.85 L-21.6 274.8 -32.05 252.1 Q-21.55 259.8 -15.25 271.1 M-19.15 281.05 L-18.7 280.05 Q-18.1 277.8 -16.0 276.9 L-12.65 277.0 -12.6 276.45 Q-8.25 286.4 -6.75 298.7 L-7.15 302.55 -7.2 300.7 -7.4 299.35 Q-8.1 297.55 -9.3 296.7 -9.9 296.25 -10.65 296.05 -12.75 295.4 -14.3 296.55 L-14.75 296.9 Q-15.9 297.95 -16.8 299.35 -16.7 290.7 -19.15 281.05 M-7.95 309.8 L-8.95 319.1 Q-8.6 320.55 -10.7 326.75 -10.95 324.3 -13.0 322.6 L-13.05 322.55 -11.6 322.55 -11.7 322.05 -13.7 322.05 -14.25 321.7 Q-12.25 312.4 -11.4 307.5 -9.35 308.05 -7.95 309.8 M-15.85 337.15 Q-20.05 344.9 -26.7 355.7 L-43.2 381.45 -46.45 385.6 -47.0 386.45 -45.15 382.5 -44.8 381.2 Q-44.85 378.8 -46.35 377.1 L-45.75 376.35 Q-40.45 370.05 -36.6 363.5 L-34.6 360.2 Q-32.95 361.95 -32.4 364.2 -32.05 363.2 -31.35 362.35 -29.1 359.3 -27.55 355.75 L-27.2 354.4 Q-27.2 352.45 -28.2 350.95 -23.4 344.6 -19.6 337.15 L-17.9 333.55 Q-16.45 335.15 -15.85 337.15 M-48.55 388.9 Q-54.1 398.35 -54.35 409.25 L-53.05 409.25 -53.05 409.35 -53.0 426.7 -52.9 427.05 -52.85 427.3 -52.1 430.0 Q-53.95 428.6 -56.15 428.7 L-56.35 427.7 -56.25 427.7 -57.25 413.2 Q-56.15 413.8 -55.2 414.8 L-55.2 412.65 Q-54.7 408.9 -55.15 405.1 -55.2 404.3 -55.5 403.8 -56.1 402.7 -56.95 402.0 -55.9 395.95 -53.8 390.25 L-52.4 386.8 Q-50.45 388.65 -49.8 391.1 -49.45 390.1 -48.75 389.2 L-48.55 388.9 M-47.95 439.9 L-46.6 441.9 Q-44.85 444.25 -42.85 445.5 -39.25 452.35 -36.95 458.95 L-38.9 455.9 -39.9 454.9 Q-41.75 453.8 -43.8 454.0 L-45.85 449.8 -50.05 441.9 -51.45 439.35 Q-49.65 439.25 -47.95 439.9 M-35.15 464.85 Q-29.95 484.9 -37.55 502.4 -43.75 517.3 -70.15 557.4 -78.5 567.1 -79.0 599.0 L-79.05 599.9 -79.05 599.75 Q-78.6 607.0 -75.6 614.35 -77.8 612.85 -80.15 612.2 -81.7 607.45 -82.15 603.0 L-82.35 600.7 -82.4 599.75 -81.95 599.65 -82.25 584.9 Q-81.3 585.55 -80.5 586.5 L-79.2 587.8 -78.25 581.15 -78.05 578.4 Q-79.45 575.5 -81.7 573.55 L-81.8 573.45 -81.9 573.35 Q-81.55 568.35 -80.75 566.2 -78.7 560.45 -75.15 555.45 -74.3 556.8 -73.95 558.5 L-73.15 560.85 -73.0 560.85 Q-71.55 557.65 -69.45 554.9 L-67.9 552.6 Q-67.75 549.65 -68.55 547.05 -65.8 543.3 -63.55 539.45 -61.25 535.4 -58.55 531.6 L-58.5 531.7 Q-57.8 532.7 -57.4 534.0 L-56.75 535.65 -55.05 532.7 -53.35 529.85 -52.1 527.4 Q-52.25 525.4 -52.8 523.65 -49.4 518.7 -46.55 513.1 -43.8 507.7 -41.65 501.0 -40.55 502.55 -39.85 504.6 L-38.1 501.0 -35.65 495.25 -35.3 493.9 Q-35.3 490.9 -37.65 488.9 L-38.4 488.3 -37.55 481.65 Q-36.75 472.5 -39.5 464.55 L-39.6 464.3 Q-37.0 463.65 -35.15 464.85 M-73.7 618.45 L-72.5 620.7 -71.8 621.95 -71.85 622.0 -69.8 625.05 Q-65.6 629.55 -62.9 633.4 -62.9 634.65 -64.1 635.5 -69.3 638.95 -75.65 634.45 -79.45 631.85 -82.15 628.15 L-82.35 627.85 -82.45 627.75 -83.1 628.25 -83.6 628.5 -83.9 626.0 Q-83.1 624.9 -81.9 624.05 L-81.7 624.45 -80.5 626.35 -79.4 625.6 -79.05 625.95 Q-77.95 626.95 -76.75 627.75 -74.95 628.9 -72.85 629.55 -66.8 631.45 -72.1 623.4 L-72.3 623.15 -71.9 623.2 -73.7 618.45 M-67.45 427.35 L-67.5 427.35 -67.5 427.05 -67.45 423.05 -67.45 426.25 -67.45 427.05 -67.45 427.35 M-22.7 322.0 Q-20.85 315.75 -18.1 309.85 L-18.1 310.6 -17.4 309.9 -22.65 322.0 -22.7 322.0 M-13.55 307.3 L-18.15 320.75 -18.35 320.8 -21.45 321.5 -17.35 309.85 -17.05 309.5 Q-15.5 307.55 -13.55 307.3 M-24.85 330.35 Q-23.2 330.25 -21.65 330.85 -23.4 335.05 -25.5 338.9 -28.0 343.45 -31.35 348.2 -33.1 347.35 -34.9 347.6 L-35.65 347.75 Q-31.4 342.3 -27.35 335.7 -26.45 334.2 -24.85 330.35 M-52.2 374.5 Q-48.4 369.0 -45.6 363.7 L-44.45 361.45 -42.15 357.25 Q-40.2 356.95 -38.4 357.6 L-43.7 364.8 -50.4 374.6 -52.2 374.5 M-65.4 401.4 Q-64.8 397.25 -63.9 395.05 L-62.75 392.3 -60.95 388.55 -59.3 385.6 -58.5 384.2 -56.35 384.45 -56.9 385.6 Q-58.8 389.4 -61.5 398.75 L-61.9 400.4 Q-63.9 400.4 -65.4 401.4 M-65.9 412.55 Q-64.35 411.8 -62.5 411.8 -62.15 418.9 -60.35 428.45 L-60.2 427.5 -59.8 429.65 Q-61.35 430.45 -62.2 431.85 L-63.3 434.0 Q-64.3 430.9 -64.6 427.2 L-64.7 427.2 -64.75 427.45 -64.75 427.2 -65.4 427.2 -64.75 427.15 -65.9 412.55 M-64.55 427.15 L-64.5 427.05 -64.35 426.25 Q-63.45 421.65 -63.2 419.2 L-64.7 427.15 -64.55 427.15 M-56.5 440.7 L-55.95 441.9 Q-54.0 446.35 -50.95 450.8 L-50.45 451.55 -50.4 451.6 -47.95 455.55 Q-49.05 456.35 -49.65 457.5 -50.9 454.95 -52.3 452.7 L-52.75 452.0 -52.8 451.95 -58.7 442.65 -58.4 442.25 Q-57.6 441.3 -56.5 440.7 M-45.65 469.3 Q-44.95 467.5 -43.6 466.3 L-43.5 466.65 Q-41.4 474.95 -42.55 483.9 L-43.0 487.1 -44.6 487.35 -44.35 483.85 -44.35 482.55 Q-44.35 475.4 -45.65 469.3 M-91.2 573.85 L-90.85 571.0 -89.7 568.25 Q-88.9 566.3 -87.9 564.5 -84.75 558.6 -80.95 553.05 L-80.95 553.0 -80.2 551.9 Q-79.45 552.1 -78.6 552.55 L-79.55 553.95 Q-84.2 561.2 -87.25 569.3 L-87.85 572.15 -89.05 572.45 Q-90.0 572.8 -90.8 573.45 L-91.2 573.85 M-91.25 584.5 Q-90.05 583.9 -88.65 583.7 L-88.8 601.2 -88.8 602.55 -88.5 601.15 -88.1 601.05 -88.1 601.1 -87.35 608.05 -86.25 613.15 -86.5 613.35 -88.1 614.8 -88.95 611.95 Q-90.1 607.65 -90.65 602.15 L-90.7 602.0 -90.7 602.3 -90.7 601.65 -91.25 584.5 M-46.75 496.95 L-45.35 497.55 -46.05 499.8 Q-48.6 507.85 -52.45 514.85 L-55.2 519.55 Q-56.4 518.55 -58.15 518.05 L-58.4 518.0 -54.3 511.65 Q-50.3 505.15 -47.6 499.05 L-47.05 497.65 -46.75 496.95 M-65.85 528.0 Q-64.15 528.05 -62.3 528.8 L-61.85 528.95 -70.65 540.75 -72.15 542.9 -72.75 542.6 -73.95 542.2 -72.55 539.65 -71.4 537.4 Q-68.95 532.5 -65.85 528.0 M-79.05 599.75 L-79.0 599.0 -79.05 599.75 M-72.5 620.7 L-72.4 621.2 -71.85 622.0 -72.4 621.2 -72.5 620.7 M-76.55 622.1 L-74.9 622.3 -76.4 623.4 -76.55 622.1" fill="#a8b38c" fill-rule="evenodd" stroke="none"/>
    <path d="M-21.6 274.8 L-20.95 272.85 Q-20.3 271.3 -18.45 270.7 -16.8 270.15 -15.35 271.05 L-15.25 271.1 -14.8 271.65 Q-13.55 273.45 -12.75 275.55 -12.6 275.95 -12.6 276.45 L-12.65 277.0 -16.0 276.9 Q-18.1 277.8 -18.7 280.05 L-19.15 281.05 -19.35 281.45 Q-20.0 279.45 -21.0 277.7 L-21.75 276.25 -21.6 274.8 M-16.45 275.05 Q-17.1 272.3 -18.9 272.35 -18.5 274.6 -16.85 275.65 -16.25 276.0 -16.45 275.05 M-16.8 299.35 Q-15.9 297.95 -14.75 296.9 L-14.3 296.55 Q-12.75 295.4 -10.65 296.05 -9.9 296.25 -9.3 296.7 -8.1 297.55 -7.4 299.35 L-7.2 300.7 -7.15 302.55 Q-7.15 305.4 -7.5 308.25 L-7.55 310.35 -7.95 309.8 Q-9.35 308.05 -11.4 307.5 L-12.0 307.35 -13.55 307.3 Q-15.5 307.55 -17.05 309.5 L-17.35 309.85 -17.4 309.9 -18.1 310.6 -18.1 309.85 -18.1 303.95 -17.95 301.25 -16.8 299.35 M-10.7 326.75 L-10.65 327.6 -11.0 328.9 Q-12.5 332.45 -14.7 335.55 -15.4 336.4 -15.8 337.4 L-15.85 337.15 Q-16.45 335.15 -17.9 333.55 -18.7 332.65 -19.75 331.9 L-21.65 330.85 Q-23.2 330.25 -24.85 330.35 L-26.75 330.7 -27.75 330.95 -28.25 331.05 -28.45 330.95 -25.5 325.1 -24.15 322.75 -22.7 322.0 -22.65 322.0 -21.45 321.5 -18.35 320.8 -18.15 320.75 Q-16.15 320.55 -14.25 321.7 L-13.7 322.05 -13.05 322.55 -13.0 322.6 Q-10.95 324.3 -10.7 326.75 M-47.0 386.45 L-48.55 388.9 -48.75 389.2 Q-49.45 390.1 -49.8 391.1 -50.45 388.65 -52.4 386.8 L-53.85 385.65 Q-55.05 384.8 -56.35 384.45 L-58.5 384.2 -60.9 384.55 -61.2 384.65 -62.65 384.95 -59.75 378.95 -58.4 376.55 Q-57.15 375.8 -55.8 375.35 -54.3 374.75 -52.7 374.55 L-52.2 374.5 -50.4 374.6 Q-48.8 375.0 -47.25 376.25 L-46.35 377.1 Q-44.85 378.8 -44.8 381.2 L-45.15 382.5 -47.0 386.45 M-52.1 430.0 L-51.95 430.15 Q-51.45 430.5 -51.05 431.2 -49.25 434.55 -48.25 438.15 L-47.45 440.1 -47.95 439.9 Q-49.65 439.25 -51.45 439.35 L-54.35 439.8 Q-55.55 440.1 -56.5 440.7 -57.6 441.3 -58.4 442.25 L-58.7 442.65 -59.75 444.45 -60.5 445.85 -60.55 446.0 -61.25 444.5 -61.95 443.0 -63.35 440.0 -64.3 437.5 Q-64.0 435.65 -63.3 434.0 L-62.2 431.85 Q-61.35 430.45 -59.8 429.65 -58.75 429.1 -57.35 428.85 L-56.15 428.7 Q-53.95 428.6 -52.1 430.0 M-36.95 458.95 L-35.25 462.45 Q-34.85 463.45 -35.1 464.9 L-35.15 464.85 Q-37.0 463.65 -39.6 464.3 L-41.1 464.8 Q-42.55 465.35 -43.6 466.3 -44.95 467.5 -45.65 469.3 L-45.9 470.05 -47.05 472.45 -47.6 470.95 Q-48.65 468.4 -50.05 466.1 L-51.3 463.75 -50.9 460.8 -49.9 457.9 -49.65 457.5 Q-49.05 456.35 -47.95 455.55 -46.9 454.8 -45.45 454.35 L-43.8 454.0 Q-41.75 453.8 -39.9 454.9 L-38.9 455.9 -36.95 458.95 M-75.6 614.35 L-75.45 614.45 -74.3 616.95 -73.7 618.45 -71.9 623.2 -72.3 623.15 -73.6 622.7 -74.9 622.3 -76.55 622.1 Q-78.7 622.1 -80.75 623.3 L-81.9 624.05 Q-83.1 624.9 -83.9 626.0 L-84.85 627.6 -85.25 628.5 Q-85.55 627.45 -86.1 626.5 -88.05 623.2 -89.15 619.5 L-89.35 618.35 -89.35 618.15 Q-89.2 616.2 -88.1 614.8 L-86.5 613.35 -86.25 613.15 Q-83.6 611.35 -81.0 612.0 L-80.15 612.2 Q-77.8 612.85 -75.6 614.35 M-83.15 551.9 L-84.2 552.3 Q-84.3 550.85 -83.8 549.85 -82.0 546.45 -79.4 543.6 L-78.35 542.7 -77.0 542.2 Q-75.5 541.8 -73.95 542.2 L-72.75 542.6 -72.15 542.9 Q-69.55 544.2 -68.7 546.6 L-68.55 547.05 Q-67.75 549.65 -67.9 552.6 L-69.45 554.9 Q-71.55 557.65 -73.0 560.85 L-73.15 560.85 -73.95 558.5 Q-74.3 556.8 -75.15 555.45 -76.25 553.8 -78.2 552.75 L-78.6 552.55 Q-79.45 552.1 -80.2 551.9 -81.8 551.5 -83.15 551.9 M-68.2 528.25 L-69.15 528.5 -68.2 526.65 Q-66.85 523.05 -64.6 519.85 L-63.65 518.85 -61.7 517.95 Q-60.15 517.55 -58.4 518.0 L-58.15 518.05 Q-56.4 518.55 -55.2 519.55 -54.2 520.35 -53.65 521.55 -53.15 522.55 -52.8 523.65 -52.25 525.4 -52.1 527.4 L-53.35 529.85 -55.05 532.7 -56.75 535.65 -57.4 534.0 Q-57.8 532.7 -58.5 531.7 L-58.55 531.6 Q-59.8 529.85 -61.85 528.95 L-62.3 528.8 Q-64.15 528.05 -65.85 528.0 L-68.2 528.25 M-49.6 496.65 L-51.4 496.95 Q-49.05 493.0 -49.25 491.55 -49.5 490.05 -48.8 489.0 L-47.3 488.25 Q-45.95 487.65 -44.6 487.35 L-43.0 487.1 Q-40.65 486.75 -38.4 488.3 L-37.65 488.9 Q-35.3 490.9 -35.3 493.9 L-35.65 495.25 -38.1 501.0 -39.85 504.6 Q-40.55 502.55 -41.65 501.0 -42.8 499.3 -44.4 498.15 -44.9 497.8 -45.35 497.55 L-46.75 496.95 -49.6 496.65 M-67.5 413.55 L-68.2 414.2 -69.6 415.35 -69.85 408.7 -69.8 406.0 -67.55 403.2 -65.65 401.55 -65.4 401.4 Q-63.9 400.4 -61.9 400.4 L-60.0 400.6 Q-58.2 400.9 -56.95 402.0 -56.1 402.7 -55.5 403.8 -55.2 404.3 -55.15 405.1 -54.7 408.9 -55.2 412.65 L-55.2 414.8 Q-56.15 413.8 -57.25 413.2 -59.05 412.15 -61.45 411.9 L-62.5 411.8 Q-64.35 411.8 -65.9 412.55 L-67.5 413.55 M-44.7 357.8 L-45.1 357.85 -42.1 351.9 -40.7 349.55 Q-39.85 349.05 -38.95 348.7 -37.35 348.0 -35.65 347.75 L-34.9 347.6 Q-33.1 347.35 -31.35 348.2 L-29.55 349.45 -28.2 350.95 Q-27.2 352.45 -27.2 354.4 L-27.55 355.75 Q-29.1 359.3 -31.35 362.35 -32.05 363.2 -32.4 364.2 -32.95 361.95 -34.6 360.2 L-36.35 358.7 Q-37.35 357.95 -38.4 357.6 -40.2 356.95 -42.15 357.25 L-43.35 357.5 -44.7 357.8 M-12.15 298.05 Q-13.15 301.35 -12.3 304.1 L-12.05 304.75 Q-11.65 305.85 -11.25 304.25 L-10.9 302.0 Q-10.7 299.2 -12.15 298.05 M-17.45 329.55 Q-14.1 326.1 -15.75 323.45 -18.75 326.1 -18.65 329.55 -18.65 330.75 -17.45 329.55 M-49.95 377.1 Q-52.9 379.8 -52.8 383.25 L-51.6 383.3 Q-48.3 379.75 -49.95 377.1 M-32.3 350.25 Q-35.3 352.9 -35.25 356.3 -35.25 357.55 -34.05 356.35 -30.65 352.9 -32.3 350.25 M-62.4 403.9 L-62.6 406.6 Q-62.4 408.0 -61.65 409.3 -61.05 410.4 -60.55 408.75 -59.25 404.1 -62.05 402.6 L-62.4 403.9 M-54.65 436.55 Q-55.25 431.8 -58.45 431.5 -58.25 435.4 -55.5 437.5 -54.5 438.25 -54.65 436.55 M-41.85 461.65 Q-43.0 457.0 -46.2 457.05 -45.55 460.95 -42.55 462.65 -41.45 463.3 -41.85 461.65 M-81.9 573.35 L-81.8 573.45 -81.7 573.55 Q-79.45 575.5 -78.05 578.4 L-78.25 581.15 -79.2 587.8 -80.5 586.5 Q-81.3 585.55 -82.25 584.9 -84.3 583.5 -87.0 583.55 L-88.65 583.7 Q-90.05 583.9 -91.25 584.5 -92.5 585.0 -93.5 585.9 -93.25 584.85 -93.3 583.75 -93.35 579.95 -92.5 576.15 L-92.05 574.85 -91.2 573.85 -90.8 573.45 Q-90.0 572.8 -89.05 572.45 L-87.85 572.15 -87.2 572.05 Q-84.25 571.7 -82.25 573.1 L-81.9 573.35 M-87.55 580.35 Q-87.25 582.0 -86.5 581.0 -84.5 578.15 -85.4 574.25 -88.35 575.55 -87.55 580.35 M-42.1 495.85 Q-38.75 492.4 -40.4 489.75 -43.4 492.4 -43.35 495.8 L-42.1 495.85 M-61.6 525.6 Q-62.0 527.25 -60.9 526.6 -57.95 524.75 -57.3 520.8 -60.55 520.85 -61.6 525.6 M-72.3 545.45 L-74.1 545.7 Q-76.0 546.5 -77.1 549.65 L-77.3 550.5 Q-77.3 551.1 -76.55 550.75 -73.4 549.25 -72.3 545.45 M-73.15 563.7 L-73.0 563.7 -73.1 563.85 -73.15 563.7 M-82.8 620.75 Q-81.75 622.05 -81.55 620.8 -81.2 617.35 -83.85 614.4 -85.8 616.95 -82.8 620.75" fill="#443422" fill-rule="evenodd" stroke="none"/>
    <path d="M-16.45 275.05 Q-16.25 276.0 -16.85 275.65 -18.5 274.6 -18.9 272.35 -17.1 272.3 -16.45 275.05 M-12.15 298.05 Q-10.7 299.2 -10.9 302.0 L-11.25 304.25 Q-11.65 305.85 -12.05 304.75 L-12.3 304.1 Q-13.15 301.35 -12.15 298.05 M-17.45 329.55 Q-18.65 330.75 -18.65 329.55 -18.75 326.1 -15.75 323.45 -14.1 326.1 -17.45 329.55 M-49.95 377.1 Q-48.3 379.75 -51.6 383.3 L-52.8 383.25 Q-52.9 379.8 -49.95 377.1 M-32.3 350.25 Q-30.65 352.9 -34.05 356.35 -35.25 357.55 -35.25 356.3 -35.3 352.9 -32.3 350.25 M-62.4 403.9 L-62.05 402.6 Q-59.25 404.1 -60.55 408.75 -61.05 410.4 -61.65 409.3 -62.4 408.0 -62.6 406.6 L-62.4 403.9 M-54.65 436.55 Q-54.5 438.25 -55.5 437.5 -58.25 435.4 -58.45 431.5 -55.25 431.8 -54.65 436.55 M-41.85 461.65 Q-41.45 463.3 -42.55 462.65 -45.55 460.95 -46.2 457.05 -43.0 457.0 -41.85 461.65 M-87.55 580.35 Q-88.35 575.55 -85.4 574.25 -84.5 578.15 -86.5 581.0 -87.25 582.0 -87.55 580.35 M-42.1 495.85 L-43.35 495.8 Q-43.4 492.4 -40.4 489.75 -38.75 492.4 -42.1 495.85 M-61.6 525.6 Q-60.55 520.85 -57.3 520.8 -57.95 524.75 -60.9 526.6 -62.0 527.25 -61.6 525.6 M-72.3 545.45 Q-73.4 549.25 -76.55 550.75 -77.3 551.1 -77.3 550.5 L-77.1 549.65 Q-76.0 546.5 -74.1 545.7 L-72.3 545.45 M-82.8 620.75 Q-85.8 616.95 -83.85 614.4 -81.2 617.35 -81.55 620.8 -81.75 622.05 -82.8 620.75" fill="#ab8458" fill-rule="evenodd" stroke="none"/>
    <path d="M-13.55 307.3 L-12.0 307.35 -11.4 307.5 Q-12.25 312.4 -14.25 321.7 -16.15 320.55 -18.15 320.75 L-13.55 307.3 M-31.35 348.2 Q-28.0 343.45 -25.5 338.9 -23.4 335.05 -21.65 330.85 L-19.75 331.9 Q-18.7 332.65 -17.9 333.55 L-19.6 337.15 Q-23.4 344.6 -28.2 350.95 L-29.55 349.45 -31.35 348.2 M-13.7 322.05 L-11.7 322.05 -11.6 322.55 -13.05 322.55 -13.7 322.05 M-34.6 360.2 L-36.6 363.5 Q-40.45 370.05 -45.75 376.35 L-46.35 377.1 -47.25 376.25 Q-48.8 375.0 -50.4 374.6 L-43.7 364.8 -38.4 357.6 Q-37.35 357.95 -36.35 358.7 L-34.6 360.2 M-61.9 400.4 L-61.5 398.75 Q-58.8 389.4 -56.9 385.6 L-56.35 384.45 Q-55.05 384.8 -53.85 385.65 L-52.4 386.8 -53.8 390.25 Q-55.9 395.95 -56.95 402.0 -58.2 400.9 -60.0 400.6 L-61.9 400.4 M-57.25 413.2 L-56.25 427.7 -56.35 427.7 -56.15 428.7 -57.35 428.85 Q-58.75 429.1 -59.8 429.65 L-60.2 427.5 -60.35 428.45 Q-62.15 418.9 -62.5 411.8 L-61.45 411.9 Q-59.05 412.15 -57.25 413.2 M-47.95 455.55 L-50.4 451.6 -50.45 451.55 -50.95 450.8 Q-54.0 446.35 -55.95 441.9 L-56.5 440.7 Q-55.55 440.1 -54.35 439.8 L-51.45 439.35 -50.05 441.9 -45.85 449.8 -43.8 454.0 -45.45 454.35 Q-46.9 454.8 -47.95 455.55 M-43.0 487.1 L-42.55 483.9 Q-41.4 474.95 -43.5 466.65 L-43.6 466.3 Q-42.55 465.35 -41.1 464.8 L-39.6 464.3 -39.5 464.55 Q-36.75 472.5 -37.55 481.65 L-38.4 488.3 Q-40.65 486.75 -43.0 487.1 M-41.65 501.0 Q-43.8 507.7 -46.55 513.1 -49.4 518.7 -52.8 523.65 -53.15 522.55 -53.65 521.55 -54.2 520.35 -55.2 519.55 L-52.45 514.85 Q-48.6 507.85 -46.05 499.8 L-45.35 497.55 Q-44.9 497.8 -44.4 498.15 -42.8 499.3 -41.65 501.0 M-58.55 531.6 Q-61.25 535.4 -63.55 539.45 -65.8 543.3 -68.55 547.05 L-68.7 546.6 Q-69.55 544.2 -72.15 542.9 L-70.65 540.75 -61.85 528.95 Q-59.8 529.85 -58.55 531.6 M-75.15 555.45 Q-78.7 560.45 -80.75 566.2 -81.55 568.35 -81.9 573.35 L-82.25 573.1 Q-84.25 571.7 -87.2 572.05 L-87.85 572.15 -87.25 569.3 Q-84.2 561.2 -79.55 553.95 L-78.6 552.55 -78.2 552.75 Q-76.25 553.8 -75.15 555.45 M-82.25 584.9 L-81.95 599.65 -82.4 599.75 -82.35 600.7 -82.15 603.0 Q-81.7 607.45 -80.15 612.2 L-81.0 612.0 Q-83.6 611.35 -86.25 613.15 L-87.35 608.05 -88.1 601.1 -88.1 601.05 -88.5 601.15 -88.8 602.55 -88.8 601.2 -88.65 583.7 -87.0 583.55 Q-84.3 583.5 -82.25 584.9 M-74.9 622.3 L-73.6 622.7 -72.3 623.15 -72.1 623.4 Q-66.8 631.45 -72.85 629.55 -74.95 628.9 -76.75 627.75 -77.95 626.95 -79.05 625.95 L-79.4 625.6 -80.5 626.35 -81.7 624.45 -81.9 624.05 -80.75 623.3 Q-78.7 622.1 -76.55 622.1 L-76.4 623.4 -74.9 622.3" fill="#c6cdb4" fill-rule="evenodd" stroke="none"/>
    <path d="M-62.9 633.4 Q-57.5 640.9 -57.8 645.75 -58.1 650.4 -63.35 651.4 -68.05 652.8 -78.95 638.3 L-81.05 632.8 -83.65 629.2 -83.8 629.0 -83.9 629.05 -84.1 628.8 -84.85 627.6 -83.9 626.0 -83.6 628.5 -83.55 628.55 -83.1 628.25 -82.45 627.75 -82.35 627.85 -82.15 628.15 Q-79.45 631.85 -75.65 634.45 -69.3 638.95 -64.1 635.5 -62.9 634.65 -62.9 633.4 M-89.35 618.35 Q-92.25 610.6 -92.55 602.05 L-92.55 602.85 Q-97.5 573.8 -84.65 554.25 L-83.15 551.9 Q-81.8 551.5 -80.2 551.9 L-80.95 553.0 -80.95 553.05 Q-84.75 558.6 -87.9 564.5 -88.9 566.3 -89.7 568.25 L-90.85 571.0 -91.2 573.85 -92.05 574.85 -92.5 576.15 Q-93.35 579.95 -93.3 583.75 -93.25 584.85 -93.5 585.9 -92.5 585.0 -91.25 584.5 L-90.7 601.65 -90.7 602.3 -90.7 602.0 -90.65 602.15 Q-90.1 607.65 -88.95 611.95 L-88.1 614.8 Q-89.2 616.2 -89.35 618.15 L-89.35 618.35 M-77.0 542.2 L-68.2 528.25 -65.85 528.0 Q-68.95 532.5 -71.4 537.4 L-72.55 539.65 -73.95 542.2 Q-75.5 541.8 -77.0 542.2 M-61.7 517.95 L-54.75 506.95 Q-51.55 501.8 -49.6 496.65 L-46.75 496.95 -47.05 497.65 -47.6 499.05 Q-50.3 505.15 -54.3 511.65 L-58.4 518.0 Q-60.15 517.55 -61.7 517.95 M-47.3 488.25 Q-45.75 479.65 -47.6 470.95 L-47.05 472.45 -45.9 470.05 -45.65 469.3 Q-44.35 475.4 -44.35 482.55 L-44.35 483.85 -44.6 487.35 Q-45.95 487.65 -47.3 488.25 M-50.9 460.8 Q-52.65 456.8 -55.1 452.8 -58.1 449.95 -60.5 445.85 L-59.75 444.45 -58.7 442.65 -52.8 451.95 -52.75 452.0 -52.3 452.7 Q-50.9 454.95 -49.65 457.5 L-49.9 457.9 -50.9 460.8 M-61.25 444.5 L-62.55 441.9 Q-65.45 435.7 -67.3 427.35 L-67.45 427.35 -67.45 427.05 -67.45 426.25 -67.45 423.05 -67.5 413.55 -65.9 412.55 -64.75 427.15 -65.4 427.2 -64.75 427.2 -64.75 427.45 -64.7 427.2 -64.6 427.2 Q-64.3 430.9 -63.3 434.0 -64.0 435.65 -64.3 437.5 L-63.35 440.0 -61.95 443.0 -61.25 444.5 M-67.55 403.2 Q-66.0 394.55 -61.65 385.6 L-61.2 384.65 -60.9 384.55 -58.5 384.2 -59.3 385.6 -60.95 388.55 -62.75 392.3 -63.9 395.05 Q-64.8 397.25 -65.4 401.4 L-65.65 401.55 -67.55 403.2 M-55.8 375.35 L-44.7 357.8 -43.35 357.5 -42.15 357.25 -44.45 361.45 -45.6 363.7 Q-48.4 369.0 -52.2 374.5 L-52.7 374.55 Q-54.3 374.75 -55.8 375.35 M-38.95 348.7 L-27.8 331.0 -27.75 330.95 -26.75 330.7 -24.85 330.35 Q-26.45 334.2 -27.35 335.7 -31.4 342.3 -35.65 347.75 -37.35 348.0 -38.95 348.7 M-17.4 309.9 L-17.35 309.85 -21.45 321.5 -22.65 322.0 -17.4 309.9 M-64.55 427.15 L-64.7 427.15 -63.2 419.2 Q-63.45 421.65 -64.35 426.25 L-64.5 427.05 -64.55 427.15 M-71.75 640.5 Q-72.15 640.85 -71.8 641.9 L-70.45 644.15 -68.65 645.85 -67.5 646.25 -67.15 646.1 Q-66.8 645.8 -67.15 644.8 L-67.75 643.45 -68.4 642.6 Q-69.4 641.35 -70.35 640.75 -71.35 640.2 -71.75 640.5" fill="#899865" fill-rule="evenodd" stroke="none"/>
    <path d="M-71.75 640.5 Q-71.35 640.2 -70.35 640.75 -69.4 641.35 -68.4 642.6 L-67.75 643.45 -67.15 644.8 Q-66.8 645.8 -67.15 646.1 L-67.5 646.25 -68.65 645.85 -70.45 644.15 -71.8 641.9 Q-72.15 640.85 -71.75 640.5" fill="url(#gradient0)" fill-rule="evenodd" stroke="none"/>
    <path d="M-15.25 271.1 Q-21.55 259.8 -32.05 252.1 L-21.6 274.8 M-7.15 302.55 L-6.75 298.7 Q-8.25 286.4 -12.6 276.45 M-7.95 309.8 L-8.95 319.1 Q-8.6 320.55 -10.7 326.75 M-15.85 337.15 Q-20.05 344.9 -26.7 355.7 L-43.2 381.45 -46.45 385.6 -47.0 386.45 -48.55 388.9 Q-54.1 398.35 -54.35 409.25 M-53.05 409.25 L-53.05 409.35 -53.0 426.7 -52.9 427.05 -52.85 427.3 -52.1 430.0 M-47.95 439.9 L-46.6 441.9 Q-44.85 444.25 -42.85 445.5 -39.25 452.35 -36.95 458.95 M-35.15 464.85 Q-29.95 484.9 -37.55 502.4 -43.75 517.3 -70.15 557.4 -78.5 567.1 -79.0 599.0 L-79.05 599.9 M-79.05 599.75 Q-78.6 607.0 -75.6 614.35 M-73.7 618.45 L-72.5 620.7 -71.8 621.95 M-71.85 622.0 L-69.8 625.05 Q-65.6 629.55 -62.9 633.4 -57.5 640.9 -57.8 645.75 -58.1 650.4 -63.35 651.4 -68.05 652.8 -78.95 638.3 L-81.05 632.8 -83.65 629.2 -83.8 629.0 M-83.9 629.05 L-84.1 628.8 -84.85 627.6 M-89.35 618.35 Q-92.25 610.6 -92.55 602.05 M-92.55 602.85 Q-97.5 573.8 -84.65 554.25 L-83.15 551.9 M-77.0 542.2 L-68.2 528.25 M-61.7 517.95 L-54.75 506.95 Q-51.55 501.8 -49.6 496.65 M-47.3 488.25 Q-45.75 479.65 -47.6 470.95 M-50.9 460.8 Q-52.65 456.8 -55.1 452.8 -58.1 449.95 -60.5 445.85 M-61.25 444.5 L-62.55 441.9 Q-65.45 435.7 -67.3 427.35 M-67.5 427.35 L-67.5 427.05 -67.45 423.05 -67.5 413.55 M-67.55 403.2 Q-66.0 394.55 -61.65 385.6 L-61.2 384.65 M-55.8 375.35 L-44.7 357.8 M-38.95 348.7 L-27.8 331.0 -27.75 330.95 M-22.7 322.0 Q-20.85 315.75 -18.1 309.85 M-16.8 299.35 Q-16.7 290.7 -19.15 281.05 M-79.0 599.0 L-79.05 599.75 M-71.85 622.0 L-72.4 621.2 -72.5 620.7" fill="none" stroke="#5f6150" stroke-linecap="round" stroke-linejoin="round" stroke-width="1.0"/>
  </g>
  <defs>
    <radialGradient cx="0" cy="0" gradientTransform="matrix(-0.0015, 0.0012, -0.0035, -0.0046, -69.2, 643.45)" gradientUnits="userSpaceOnUse" id="gradient0" r="819.2" spreadMethod="pad">
      <stop offset="0.0" stop-color="#ffffff"/>
      <stop offset="0.6705882352941176" stop-color="#000000"/>
    </radialGradient>
  </defs>
</svg>
