<?xml version="1.0" encoding="UTF-8" standalone="no"?>
<svg xmlns:xlink="http://www.w3.org/1999/xlink" height="372.4px" width="72.3px" xmlns="http://www.w3.org/2000/svg">
  <g transform="matrix(1.0, 0.0, 0.0, 1.0, 94.85, -341.35)">
    <path d="M-46.7 367.9 Q-47.7 367.55 -48.3 368.6 L-49.3 370.5 Q-49.7 371.35 -49.55 372.15 L-49.2 374.0 Q-49.0 375.05 -48.35 374.65 -47.7 374.2 -46.65 372.5 -45.6 370.75 -45.65 369.5 -45.75 368.2 -46.7 367.9 M-49.4 367.2 L-49.15 367.15 Q-46.6 367.1 -44.45 368.95 -43.35 369.95 -42.6 371.4 L-42.6 371.5 -42.9 372.1 -45.4 376.75 Q-46.3 377.95 -46.5 377.35 -47.0 376.0 -49.55 374.7 -51.95 373.45 -55.95 374.95 L-56.35 375.1 -55.25 374.05 -53.3 371.6 -52.4 370.1 Q-51.15 367.35 -49.4 367.2 M-62.75 386.55 Q-62.2 386.2 -61.4 386.2 -58.9 386.15 -55.65 388.45 -53.2 390.2 -52.1 393.0 L-51.7 394.1 -52.5 398.15 Q-53.05 400.85 -53.55 402.05 L-53.6 402.15 Q-54.15 403.35 -55.7 401.3 -57.3 399.2 -61.5 397.4 -65.65 395.55 -66.95 399.2 L-65.05 392.75 -64.4 389.6 Q-64.1 387.25 -62.75 386.55 M-62.25 391.2 Q-62.65 392.4 -62.35 393.5 L-61.65 396.0 Q-61.25 397.45 -60.35 396.75 -59.5 396.05 -58.25 393.55 -57.0 391.05 -57.25 389.3 -57.55 387.55 -58.9 387.25 -60.35 386.95 -61.1 388.45 L-62.25 391.2 M-39.2 450.35 L-36.35 453.65 -37.95 453.15 -39.7 452.75 Q-41.5 452.4 -43.15 452.7 -45.2 453.05 -47.0 454.35 L-47.2 454.55 -48.95 456.35 Q-50.05 458.0 -49.85 460.25 L-49.9 460.2 Q-52.3 457.85 -54.45 454.9 -56.5 452.1 -56.2 450.05 L-55.85 448.9 -54.6 447.05 -52.9 445.5 Q-51.85 444.75 -50.5 444.25 L-47.8 443.65 Q-45.75 443.45 -43.65 444.15 -42.75 444.95 -41.7 446.65 L-39.2 450.35 M-32.9 469.9 Q-32.5 471.0 -32.25 472.9 -31.75 477.5 -30.35 481.45 L-32.0 480.0 -33.0 479.25 Q-34.6 478.15 -36.3 477.7 -38.25 477.25 -40.3 477.65 L-41.1 477.8 Q-42.4 478.15 -43.35 478.9 -44.75 479.95 -45.4 481.8 L-45.55 481.35 Q-46.65 478.4 -47.3 475.0 -48.0 471.45 -46.7 469.7 L-46.0 469.0 -44.75 468.15 Q-43.6 467.45 -42.2 467.2 L-39.25 467.0 -37.5 467.3 Q-35.0 467.9 -32.95 469.8 L-32.9 469.9 M-35.5 499.6 L-35.45 499.7 Q-33.95 501.95 -36.15 505.85 -38.0 509.1 -40.1 511.7 -40.1 510.8 -40.35 510.0 -40.9 507.95 -42.8 506.65 L-43.6 506.15 Q-45.25 505.25 -47.0 505.0 L-49.7 505.05 -51.1 505.4 Q-52.35 505.75 -53.55 506.3 L-54.3 506.65 Q-52.05 503.7 -50.25 500.15 L-50.0 499.65 -49.75 499.1 Q-48.9 497.3 -48.1 496.4 -46.75 495.75 -45.35 495.55 L-43.85 495.4 -41.25 495.75 Q-40.25 496.0 -39.3 496.4 -36.95 497.5 -35.5 499.6 M-48.45 524.35 Q-48.6 525.9 -49.7 527.9 -51.6 531.15 -53.7 533.75 L-53.75 533.05 Q-54.05 530.55 -56.0 529.0 -56.55 528.55 -57.2 528.2 -58.5 527.45 -59.8 527.2 L-64.7 527.4 Q-66.2 527.85 -67.6 528.55 L-67.9 528.7 -66.4 526.65 -66.05 526.05 -65.75 525.6 -65.4 525.05 -63.35 521.15 Q-62.55 519.35 -61.7 518.45 L-61.05 518.15 Q-59.2 517.45 -57.35 517.45 L-54.85 517.8 -53.6 518.2 Q-51.45 519.0 -50.0 520.55 L-49.05 521.75 Q-48.3 522.85 -48.45 524.35 M-64.55 550.0 L-64.45 550.35 Q-65.3 551.15 -66.3 552.9 L-70.4 558.9 -70.45 558.6 -70.7 557.55 Q-71.45 555.2 -73.05 553.6 -74.15 552.55 -75.6 551.85 -76.35 551.45 -77.05 551.3 L-78.85 551.05 Q-80.6 551.05 -82.15 552.15 L-81.8 551.0 Q-80.95 548.3 -79.6 545.5 -78.0 542.15 -75.85 541.6 L-75.0 541.45 -72.85 541.65 -70.95 542.25 Q-69.65 542.85 -68.35 543.95 L-66.8 545.6 Q-65.4 547.45 -64.55 550.0 M-76.95 569.35 L-76.15 571.4 Q-76.35 572.6 -77.2 574.45 -78.6 577.5 -79.45 580.5 L-79.95 580.35 -80.85 580.05 -81.1 579.5 Q-81.75 578.0 -82.7 576.85 -84.25 575.15 -86.5 574.3 L-87.8 573.9 -90.8 574.0 Q-91.75 574.25 -92.65 574.9 L-93.05 575.2 Q-92.45 571.85 -91.15 568.35 -90.45 566.4 -89.45 565.3 -88.35 564.05 -86.9 563.9 L-86.75 563.85 -84.15 563.95 Q-82.05 564.35 -80.1 565.75 L-79.8 566.0 Q-78.0 567.35 -76.95 569.35 M-64.1 627.05 L-60.8 630.95 -62.65 630.35 -64.15 630.05 Q-66.05 629.7 -67.75 630.05 -69.7 630.4 -71.45 631.65 L-71.75 631.85 Q-72.9 632.7 -73.5 633.75 -74.5 635.4 -74.3 637.55 L-74.75 637.15 -77.65 633.85 -78.9 632.2 Q-80.05 630.65 -80.45 629.35 L-80.5 629.05 -80.65 627.2 -80.3 626.2 -79.1 624.4 Q-78.4 623.5 -77.4 622.85 -76.35 622.05 -74.95 621.55 L-72.35 620.95 Q-70.25 620.75 -68.1 621.45 -67.2 622.25 -66.15 623.95 L-64.1 627.05 M-57.85 646.7 L-57.4 647.1 Q-56.95 648.2 -56.7 650.2 -56.2 654.8 -54.8 658.75 -55.85 657.75 -57.0 656.9 L-57.45 656.55 Q-59.3 655.25 -61.3 654.9 -63.0 654.6 -64.75 654.95 L-66.1 655.3 Q-67.4 655.75 -68.3 656.65 -69.3 657.6 -69.85 659.1 L-70.55 657.1 -71.75 652.3 -72.0 649.55 Q-71.95 648.3 -71.45 647.45 L-70.45 646.3 -69.55 645.65 Q-68.35 644.9 -67.0 644.6 L-63.7 644.3 -62.3 644.5 Q-59.9 645.0 -57.85 646.7 M-91.15 606.25 L-92.8 602.45 Q-93.8 600.25 -93.25 598.7 -93.0 597.75 -92.2 597.05 L-91.05 596.2 Q-90.3 595.75 -89.3 595.45 L-86.1 594.95 -83.0 595.35 Q-81.2 595.85 -79.55 597.05 -78.95 598.1 -78.55 600.1 -77.55 604.6 -75.7 608.4 L-78.6 606.5 Q-79.2 606.15 -79.85 605.9 -81.8 605.1 -83.85 605.25 L-86.05 605.65 Q-87.35 606.0 -88.05 606.85 -89.5 608.45 -88.85 611.7 L-89.5 610.15 -91.15 606.25 M-64.55 433.5 L-64.4 434.4 -68.35 425.15 Q-69.7 422.15 -68.25 420.25 L-67.75 419.75 Q-65.65 417.8 -61.65 417.65 -58.1 417.55 -55.1 419.75 -54.5 420.8 -54.1 422.8 -53.1 427.3 -51.25 431.1 -52.65 430.05 -54.15 429.2 L-55.0 428.75 Q-56.95 427.85 -59.0 427.95 L-61.6 428.35 -63.25 429.2 Q-64.85 430.55 -64.55 433.5 M-34.15 361.35 L-33.95 361.35 -34.15 361.55 -34.15 361.35 M-65.0 418.7 Q-66.3 419.3 -66.0 420.95 L-65.25 423.85 Q-64.85 425.05 -63.95 425.75 L-63.85 425.8 -63.4 426.2 -61.85 427.3 Q-60.65 428.15 -60.35 427.1 -60.1 426.05 -60.6 423.3 -61.1 420.55 -62.4 419.35 -63.75 418.1 -65.0 418.7 M-47.7 449.25 Q-49.05 446.8 -50.65 446.1 L-52.65 445.9 Q-53.05 446.05 -53.35 446.35 -54.35 447.3 -53.6 448.65 L-53.55 448.8 -52.0 451.15 -51.9 451.25 Q-51.1 452.3 -50.1 452.65 L-47.9 453.35 -47.6 453.45 Q-46.15 453.85 -46.25 452.8 -46.35 451.7 -47.7 449.25 M-43.9 469.85 L-43.45 472.8 Q-43.15 474.05 -42.4 474.8 L-41.1 476.0 -40.45 476.55 Q-39.35 477.55 -38.95 476.55 -38.6 475.55 -38.8 472.75 -39.05 469.95 -40.15 468.6 -41.1 467.5 -42.1 467.55 L-42.7 467.7 Q-44.05 468.15 -43.9 469.85 M-85.55 565.75 L-86.7 568.5 Q-87.1 569.65 -86.85 570.7 L-86.8 570.8 -86.1 573.3 Q-85.7 574.75 -84.8 574.05 -83.95 573.35 -82.7 570.85 -81.45 568.35 -81.7 566.6 -82.0 564.85 -83.35 564.55 L-84.45 564.65 Q-85.1 564.9 -85.55 565.75 M-39.1 502.55 L-37.75 499.85 Q-37.1 498.3 -38.2 497.45 -38.8 497.0 -39.5 497.05 -40.15 497.05 -40.9 497.5 -42.45 498.4 -43.5 501.0 -44.6 503.55 -44.55 504.7 -44.5 505.75 -43.1 505.2 L-42.0 504.7 -40.75 504.1 Q-39.75 503.65 -39.1 502.55 M-54.4 519.5 L-54.5 519.55 Q-56.0 520.45 -57.1 523.05 L-57.5 524.05 Q-58.2 525.85 -58.15 526.75 -58.1 527.8 -56.75 527.25 L-54.35 526.15 -53.3 525.35 -52.7 524.6 -52.6 524.4 -51.35 521.95 Q-50.7 520.4 -51.85 519.5 -52.95 518.65 -54.4 519.5 M-73.8 543.45 L-75.2 546.05 Q-75.75 547.25 -75.55 548.3 L-75.45 548.85 -75.1 550.9 Q-74.8 552.35 -73.85 551.75 -72.95 551.15 -71.45 548.8 -69.95 546.45 -70.05 544.7 -70.15 543.1 -71.2 542.6 L-71.55 542.45 Q-72.9 542.0 -73.8 543.45 M-77.8 623.65 Q-78.85 624.65 -78.0 626.1 L-77.9 626.25 -76.6 628.25 -76.35 628.55 Q-75.55 629.6 -74.55 629.95 L-72.45 630.65 -72.05 630.75 Q-70.6 631.15 -70.7 630.1 -70.8 629.0 -72.15 626.55 -73.5 624.1 -75.1 623.4 L-77.2 623.25 Q-77.5 623.4 -77.8 623.65 M-68.35 647.15 L-67.9 650.1 Q-67.6 651.35 -66.85 652.1 L-66.1 652.8 -64.9 653.85 Q-63.8 654.85 -63.4 653.85 -63.05 652.85 -63.25 650.05 -63.5 647.25 -64.6 645.9 -65.7 644.6 -66.95 644.95 L-67.15 645.0 Q-68.5 645.45 -68.35 647.15 M-89.45 596.0 Q-90.75 596.6 -90.45 598.25 L-89.7 601.15 Q-89.3 602.35 -88.4 603.05 L-87.4 603.8 -86.3 604.6 -85.9 604.85 -85.1 604.9 -84.8 604.4 Q-84.55 603.35 -85.05 600.6 -85.55 597.85 -86.85 596.65 -88.05 595.5 -89.2 595.9 L-89.45 596.0" fill="#443422" fill-rule="evenodd" stroke="none"/>
    <path d="M-42.9 372.1 L-42.6 371.5 -42.6 371.4 Q-43.35 369.95 -44.45 368.95 -46.6 367.1 -49.15 367.15 L-49.4 367.2 Q-39.65 356.4 -23.05 341.85 -35.55 359.0 -42.9 372.1 M-55.95 374.95 Q-51.95 373.45 -49.55 374.7 -47.0 376.0 -46.5 377.35 -46.3 377.95 -45.4 376.75 -50.25 386.0 -52.1 393.0 -53.2 390.2 -55.65 388.45 -58.9 386.15 -61.4 386.2 -62.2 386.2 -62.75 386.55 L-62.4 385.65 Q-60.75 381.15 -55.95 374.95 M-53.55 402.05 Q-55.05 416.55 -52.0 424.0 L-52.5 424.0 Q-48.65 440.75 -41.8 445.05 L-39.75 449.1 -39.2 450.35 -41.7 446.65 Q-42.75 444.95 -43.65 444.15 -45.75 443.45 -47.8 443.65 L-52.35 435.45 Q-54.15 432.3 -55.0 428.75 L-54.15 429.2 Q-52.65 430.05 -51.25 431.1 -53.1 427.3 -54.1 422.8 -54.5 420.8 -55.1 419.75 -58.1 417.55 -61.65 417.65 -65.65 417.8 -67.75 419.75 L-68.25 420.25 Q-70.05 410.2 -69.05 405.8 -68.05 401.2 -65.05 392.75 L-66.95 399.2 Q-65.65 395.55 -61.5 397.4 -57.3 399.2 -55.7 401.3 -54.15 403.35 -53.6 402.15 L-53.55 402.05 M-37.95 453.15 Q-34.35 461.7 -32.9 469.9 L-32.95 469.8 Q-35.0 467.9 -37.5 467.3 -37.9 465.65 -38.45 464.1 -40.55 458.2 -43.15 452.7 -41.5 452.4 -39.7 452.75 L-37.95 453.15 M-32.0 480.0 Q-31.95 490.15 -35.5 499.6 -36.95 497.5 -39.3 496.4 -37.2 488.8 -36.5 481.2 L-36.3 477.7 Q-34.6 478.15 -33.0 479.25 L-32.0 480.0 M-40.35 510.0 Q-43.5 516.05 -48.45 524.35 -48.3 522.85 -49.05 521.75 L-50.0 520.55 Q-47.6 516.75 -45.5 512.65 -44.05 509.85 -42.8 506.65 -40.9 507.95 -40.35 510.0 M-53.75 533.05 L-60.3 543.45 -64.55 550.0 Q-65.4 547.45 -66.8 545.6 L-65.3 543.45 -62.5 539.0 Q-59.5 533.8 -56.0 529.0 -54.05 530.55 -53.75 533.05 M-70.45 558.6 L-71.5 559.95 Q-74.9 564.5 -76.95 569.35 -78.0 567.35 -79.8 566.0 L-79.7 565.75 Q-78.65 562.75 -77.15 559.95 -75.4 556.65 -73.05 553.6 -71.45 555.2 -70.7 557.55 L-70.45 558.6 M-79.95 580.35 L-80.1 581.85 Q-80.85 590.0 -78.5 599.0 L-78.85 598.4 -77.15 604.85 -77.1 604.9 -76.4 604.9 Q-75.25 608.95 -73.9 612.1 L-71.25 617.0 Q-69.2 620.05 -66.8 621.55 L-64.1 627.05 -66.15 623.95 Q-67.2 622.25 -68.1 621.45 -70.25 620.75 -72.35 620.95 L-77.35 611.95 Q-79.0 609.1 -79.85 605.9 -79.2 606.15 -78.6 606.5 L-75.7 608.4 Q-77.55 604.6 -78.55 600.1 -78.95 598.1 -79.55 597.05 -81.2 595.85 -83.0 595.35 -84.2 588.15 -83.45 581.85 L-83.45 581.55 -82.7 576.85 Q-81.75 578.0 -81.1 579.5 L-80.85 580.05 -79.95 580.35 M-62.65 630.35 Q-59.25 638.75 -57.85 646.7 -59.9 645.0 -62.3 644.5 -62.8 642.5 -63.45 640.6 -65.4 635.1 -67.75 630.05 -66.05 629.7 -64.15 630.05 L-62.65 630.35 M-57.0 656.9 Q-57.0 668.1 -61.5 678.45 -63.1 682.35 -66.1 687.95 L-65.6 688.25 -65.85 688.7 -68.15 692.75 Q-70.3 698.5 -72.5 702.65 L-74.9 702.5 Q-80.3 699.45 -79.15 691.75 L-78.5 688.4 -78.35 687.85 Q-77.6 685.4 -76.4 683.1 L-76.2 682.7 -75.5 683.05 -71.55 675.1 -71.0 673.7 -69.8 670.25 -68.95 666.55 Q-68.4 663.35 -68.3 659.9 L-68.3 658.6 -68.3 656.65 Q-67.4 655.75 -66.1 655.3 L-66.5 659.95 -67.65 666.85 -68.5 670.55 -70.0 675.85 Q-71.4 680.25 -73.15 684.3 L-72.9 684.45 -73.05 684.9 -73.7 688.4 Q-73.8 690.2 -73.5 692.05 -72.55 698.3 -67.7 689.95 L-66.8 688.4 -66.7 688.25 -66.5 687.75 Q-67.85 687.05 -69.15 686.4 -66.65 680.8 -64.65 674.0 -62.25 665.85 -61.5 657.7 L-61.3 654.9 Q-59.3 655.25 -57.45 656.55 L-57.0 656.9 M-63.25 429.2 L-61.6 428.35 -59.0 427.95 Q-58.1 433.0 -56.4 437.8 -55.05 441.65 -52.9 445.5 L-54.6 447.05 -60.15 438.15 Q-62.5 434.3 -63.25 429.2 M-48.95 456.35 L-47.2 454.55 Q-44.35 459.45 -42.8 464.8 L-42.45 466.2 -42.2 467.2 Q-43.6 467.45 -44.75 468.15 L-45.45 465.55 Q-46.85 460.6 -48.95 456.35 M-43.35 478.9 Q-42.4 478.15 -41.1 477.8 -41.15 480.6 -41.5 483.45 L-42.65 490.35 -43.5 494.05 -43.85 495.4 -45.35 495.55 -44.8 493.75 -43.95 490.05 Q-43.4 486.85 -43.3 483.4 L-43.3 482.1 -43.35 478.9 M-86.75 563.85 L-84.55 559.95 -79.9 552.6 -79.9 552.55 -78.85 551.05 -77.05 551.3 -78.5 553.5 Q-80.5 556.65 -82.2 559.95 L-84.15 563.95 -86.75 563.85 M-90.8 574.0 L-87.8 573.9 -88.45 576.4 -89.35 581.85 -89.65 585.3 Q-89.95 589.9 -89.45 594.25 L-89.3 595.45 Q-90.3 595.75 -91.05 596.2 -91.95 592.7 -92.05 588.8 -92.2 585.6 -91.85 581.85 L-91.55 578.8 -91.25 576.4 -90.8 574.0 M-49.7 505.05 L-47.0 505.0 Q-48.95 509.9 -51.4 514.4 L-53.6 518.2 -54.85 517.8 -57.35 517.45 -53.25 511.2 -49.7 505.05 M-64.7 527.4 L-59.8 527.2 -60.1 527.6 -69.6 540.3 -70.95 542.25 -72.85 541.65 -71.5 539.2 -70.35 536.95 Q-67.85 531.95 -64.7 527.4 M-77.4 622.85 Q-78.4 623.5 -79.1 624.4 L-85.15 614.65 Q-87.2 611.25 -88.05 606.85 -87.35 606.0 -86.05 605.65 L-83.85 605.25 Q-82.95 609.9 -81.4 614.3 -79.9 618.55 -77.4 622.85 M-73.5 633.75 Q-72.9 632.7 -71.75 631.85 -69.25 636.4 -67.8 641.3 L-67.45 642.7 -67.0 644.6 Q-68.35 644.9 -69.55 645.65 L-70.45 642.05 Q-71.7 637.65 -73.5 633.75" fill="#a8b38c" fill-rule="evenodd" stroke="none"/>
    <path d="M-46.7 367.9 Q-45.75 368.2 -45.65 369.5 -45.6 370.75 -46.65 372.5 -47.7 374.2 -48.35 374.65 -49.0 375.05 -49.2 374.0 L-49.55 372.15 Q-49.7 371.35 -49.3 370.5 L-48.3 368.6 Q-47.7 367.55 -46.7 367.9 M-62.25 391.2 L-61.1 388.45 Q-60.35 386.95 -58.9 387.25 -57.55 387.55 -57.25 389.3 -57.0 391.05 -58.25 393.55 -59.5 396.05 -60.35 396.75 -61.25 397.45 -61.65 396.0 L-62.35 393.5 Q-62.65 392.4 -62.25 391.2 M-65.0 418.7 Q-63.75 418.1 -62.4 419.35 -61.1 420.55 -60.6 423.3 -60.1 426.05 -60.35 427.1 -60.65 428.15 -61.85 427.3 L-63.4 426.2 -63.85 425.8 -63.95 425.75 Q-64.85 425.05 -65.25 423.85 L-66.0 420.95 Q-66.3 419.3 -65.0 418.7 M-47.7 449.25 Q-46.35 451.7 -46.25 452.8 -46.15 453.85 -47.6 453.45 L-47.9 453.35 -50.1 452.65 Q-51.1 452.3 -51.9 451.25 L-52.0 451.15 -53.55 448.8 -53.6 448.65 Q-54.35 447.3 -53.35 446.35 -53.05 446.05 -52.65 445.9 L-50.65 446.1 Q-49.05 446.8 -47.7 449.25 M-43.9 469.85 Q-44.05 468.15 -42.7 467.7 L-42.1 467.55 Q-41.1 467.5 -40.15 468.6 -39.05 469.95 -38.8 472.75 -38.6 475.55 -38.95 476.55 -39.35 477.55 -40.45 476.55 L-41.1 476.0 -42.4 474.8 Q-43.15 474.05 -43.45 472.8 L-43.9 469.85 M-85.55 565.75 Q-85.1 564.9 -84.45 564.65 L-83.35 564.55 Q-82.0 564.85 -81.7 566.6 -81.45 568.35 -82.7 570.85 -83.95 573.35 -84.8 574.05 -85.7 574.75 -86.1 573.3 L-86.8 570.8 -86.85 570.7 Q-87.1 569.65 -86.7 568.5 L-85.55 565.75 M-39.1 502.55 Q-39.75 503.65 -40.75 504.1 L-42.0 504.7 -43.1 505.2 Q-44.5 505.75 -44.55 504.7 -44.6 503.55 -43.5 501.0 -42.45 498.4 -40.9 497.5 -40.15 497.05 -39.5 497.05 -38.8 497.0 -38.2 497.45 -37.1 498.3 -37.75 499.85 L-39.1 502.55 M-54.4 519.5 Q-52.95 518.65 -51.85 519.5 -50.7 520.4 -51.35 521.95 L-52.6 524.4 -52.7 524.6 -53.3 525.35 -54.35 526.15 -56.75 527.25 Q-58.1 527.8 -58.15 526.75 -58.2 525.85 -57.5 524.05 L-57.1 523.05 Q-56.0 520.45 -54.5 519.55 L-54.4 519.5 M-73.8 543.45 Q-72.9 542.0 -71.55 542.45 L-71.2 542.6 Q-70.15 543.1 -70.05 544.7 -69.95 546.45 -71.45 548.8 -72.95 551.15 -73.85 551.75 -74.8 552.35 -75.1 550.9 L-75.45 548.85 -75.55 548.3 Q-75.75 547.25 -75.2 546.05 L-73.8 543.45 M-77.8 623.65 Q-77.5 623.4 -77.2 623.25 L-75.1 623.4 Q-73.5 624.1 -72.15 626.55 -70.8 629.0 -70.7 630.1 -70.6 631.15 -72.05 630.75 L-72.45 630.65 -74.55 629.95 Q-75.55 629.6 -76.35 628.55 L-76.6 628.25 -77.9 626.25 -78.0 626.1 Q-78.85 624.65 -77.8 623.65 M-68.35 647.15 Q-68.5 645.45 -67.15 645.0 L-66.95 644.95 Q-65.7 644.6 -64.6 645.9 -63.5 647.25 -63.25 650.05 -63.05 652.85 -63.4 653.85 -63.8 654.85 -64.9 653.85 L-66.1 652.8 -66.85 652.1 Q-67.6 651.35 -67.9 650.1 L-68.35 647.15 M-89.45 596.0 L-89.2 595.9 Q-88.05 595.5 -86.85 596.65 -85.55 597.85 -85.05 600.6 -84.55 603.35 -84.8 604.4 L-85.1 604.9 -85.9 604.85 -86.3 604.6 -87.4 603.8 -88.4 603.05 Q-89.3 602.35 -89.7 601.15 L-90.45 598.25 Q-90.75 596.6 -89.45 596.0" fill="#ab8458" fill-rule="evenodd" stroke="none"/>
    <path d="M-72.5 702.65 Q-76.8 710.85 -81.2 712.7 -85.5 714.55 -88.75 710.3 -92.15 706.75 -84.05 690.55 L-82.1 688.4 -78.7 683.0 -77.95 681.8 Q-70.75 669.5 -70.55 657.1 L-69.85 659.1 Q-69.3 657.6 -68.3 656.65 L-68.3 658.6 -68.3 659.9 Q-68.4 663.35 -68.95 666.55 L-69.8 670.25 -71.0 673.7 -71.55 675.1 -75.5 683.05 -76.2 682.7 -76.4 683.1 Q-77.6 685.4 -78.35 687.85 L-78.5 688.4 -79.15 691.75 Q-80.3 699.45 -74.9 702.5 L-72.5 702.65 M-72.0 649.55 Q-75.3 639.2 -77.65 633.85 L-74.75 637.15 -74.3 637.55 Q-74.5 635.4 -73.5 633.75 -71.7 637.65 -70.45 642.05 L-69.55 645.65 -70.45 646.3 -71.45 647.45 Q-71.95 648.3 -72.0 649.55 M-80.45 629.35 Q-87.75 619.3 -91.15 606.25 L-89.5 610.15 -88.85 611.7 Q-89.5 608.45 -88.05 606.85 -87.2 611.25 -85.15 614.65 L-79.1 624.4 -80.3 626.2 -80.65 627.2 -80.5 629.05 -80.75 628.8 -80.45 629.35 M-93.25 598.7 Q-95.0 590.4 -93.95 581.85 L-93.0 576.4 -92.65 574.9 Q-91.75 574.25 -90.8 574.0 L-91.25 576.4 -91.55 578.8 -91.85 581.85 Q-92.2 585.6 -92.05 588.8 -91.95 592.7 -91.05 596.2 L-92.2 597.05 Q-93.0 597.75 -93.25 598.7 M-89.45 565.3 L-87.0 559.95 -83.6 553.8 -81.8 551.0 -82.15 552.15 Q-80.6 551.05 -78.85 551.05 L-79.9 552.55 -79.9 552.6 -84.55 559.95 -86.75 563.85 -86.9 563.9 Q-88.35 564.05 -89.45 565.3 M-75.85 541.6 L-67.6 528.55 Q-66.2 527.85 -64.7 527.4 -67.85 531.95 -70.35 536.95 L-71.5 539.2 -72.85 541.65 -75.0 541.45 -75.85 541.6 M-61.05 518.15 L-53.7 506.5 -53.55 506.3 Q-52.35 505.75 -51.1 505.4 L-49.7 505.05 -53.25 511.2 -57.35 517.45 Q-59.2 517.45 -61.05 518.15 M-50.0 499.65 Q-45.85 490.55 -45.55 481.35 L-45.4 481.8 Q-44.75 479.95 -43.35 478.9 L-43.3 482.1 -43.3 483.4 Q-43.4 486.85 -43.95 490.05 L-44.8 493.75 -45.35 495.55 Q-46.75 495.75 -48.1 496.4 -48.9 497.3 -49.75 499.1 L-50.0 499.65 M-46.7 469.7 Q-47.8 464.95 -49.9 460.2 L-49.85 460.25 Q-50.05 458.0 -48.95 456.35 -46.85 460.6 -45.45 465.55 L-44.75 468.15 -46.0 469.0 -46.7 469.7 M-56.2 450.05 L-56.95 449.1 Q-61.6 443.1 -64.55 433.5 -64.85 430.55 -63.25 429.2 -62.5 434.3 -60.15 438.15 L-54.6 447.05 -55.85 448.9 -56.2 450.05 M-77.95 681.8 L-78.05 682.25 -80.1 686.2 -82.1 688.4 -80.1 686.2 -78.05 682.25 -77.95 681.8 M-71.45 647.45 Q-72.5 642.3 -74.75 637.15 -72.5 642.3 -71.45 647.45 M-80.65 627.2 Q-86.15 620.95 -89.5 610.15 -86.15 620.95 -80.65 627.2 M-82.8 697.95 Q-83.3 697.7 -84.05 698.5 -84.85 699.3 -85.45 700.7 -86.1 702.05 -86.2 703.1 L-86.05 704.3 -85.75 704.55 Q-85.35 704.75 -84.55 703.95 L-83.65 702.8 -83.15 701.85 Q-82.55 700.45 -82.4 699.3 -82.35 698.15 -82.8 697.95" fill="#899865" fill-rule="evenodd" stroke="none"/>
    <path d="M-55.0 428.75 Q-54.15 432.3 -52.35 435.45 L-47.8 443.65 -50.5 444.25 Q-51.85 444.75 -52.9 445.5 -55.05 441.65 -56.4 437.8 -58.1 433.0 -59.0 427.95 -56.95 427.85 -55.0 428.75 M-47.2 454.55 L-47.0 454.35 Q-45.2 453.05 -43.15 452.7 -40.55 458.2 -38.45 464.1 -37.9 465.65 -37.5 467.3 L-39.25 467.0 -42.2 467.2 -42.45 466.2 -42.8 464.8 Q-44.35 459.45 -47.2 454.55 M-41.1 477.8 L-40.3 477.65 Q-38.25 477.25 -36.3 477.7 L-36.5 481.2 Q-37.2 488.8 -39.3 496.4 -40.25 496.0 -41.25 495.75 L-43.85 495.4 -43.5 494.05 -42.65 490.35 -41.5 483.45 Q-41.15 480.6 -41.1 477.8 M-77.05 551.3 Q-76.35 551.45 -75.6 551.85 -74.15 552.55 -73.05 553.6 -75.4 556.65 -77.15 559.95 -78.65 562.75 -79.7 565.75 L-79.8 566.0 -80.1 565.75 Q-82.05 564.35 -84.15 563.95 L-82.2 559.95 Q-80.5 556.65 -78.5 553.5 L-77.05 551.3 M-89.3 595.45 L-89.45 594.25 Q-89.95 589.9 -89.65 585.3 L-89.35 581.85 -88.45 576.4 -87.8 573.9 -86.5 574.3 Q-84.25 575.15 -82.7 576.85 L-83.45 581.55 -83.45 581.85 Q-84.2 588.15 -83.0 595.35 L-86.1 594.95 -89.3 595.45 M-79.85 605.9 Q-79.0 609.1 -77.35 611.95 L-72.35 620.95 -74.95 621.55 Q-76.35 622.05 -77.4 622.85 -79.9 618.55 -81.4 614.3 -82.95 609.9 -83.85 605.25 -81.8 605.1 -79.85 605.9 M-53.6 518.2 L-51.4 514.4 Q-48.95 509.9 -47.0 505.0 -45.25 505.25 -43.6 506.15 L-42.8 506.65 Q-44.05 509.85 -45.5 512.65 -47.6 516.75 -50.0 520.55 -51.45 519.0 -53.6 518.2 M-59.8 527.2 Q-58.5 527.45 -57.2 528.2 -56.55 528.55 -56.0 529.0 -59.5 533.8 -62.5 539.0 L-65.3 543.45 -66.8 545.6 -68.35 543.95 Q-69.65 542.85 -70.95 542.25 L-69.6 540.3 -60.1 527.6 -59.8 527.2 M-67.75 630.05 Q-65.4 635.1 -63.45 640.6 -62.8 642.5 -62.3 644.5 L-63.7 644.3 -67.0 644.6 -67.45 642.7 -67.8 641.3 Q-69.25 636.4 -71.75 631.85 L-71.45 631.65 Q-69.7 630.4 -67.75 630.05 M-66.1 655.3 L-64.75 654.95 Q-63.0 654.6 -61.3 654.9 L-61.5 657.7 Q-62.25 665.85 -64.65 674.0 -66.65 680.8 -69.15 686.4 -67.85 687.05 -66.5 687.75 L-66.7 688.25 -66.8 688.4 -67.7 689.95 Q-72.55 698.3 -73.5 692.05 -73.8 690.2 -73.7 688.4 L-73.05 684.9 -72.9 684.45 -73.15 684.3 Q-71.4 680.25 -70.0 675.85 L-68.5 670.55 -67.65 666.85 -66.5 659.95 -66.1 655.3" fill="#c6cdb4" fill-rule="evenodd" stroke="none"/>
    <path d="M-82.8 697.95 Q-82.35 698.15 -82.4 699.3 -82.55 700.45 -83.15 701.85 L-83.65 702.8 -84.55 703.95 Q-85.35 704.75 -85.75 704.55 L-86.05 704.3 -86.2 703.1 Q-86.1 702.05 -85.45 700.7 -84.85 699.3 -84.05 698.5 -83.3 697.7 -82.8 697.95" fill="url(#gradient0)" fill-rule="evenodd" stroke="none"/>
    <path d="M-53.3 371.6 L-55.25 374.05 M-45.4 376.75 L-42.9 372.1 Q-35.55 359.0 -23.05 341.85 -39.65 356.4 -49.4 367.2 M-52.1 393.0 Q-50.25 386.0 -45.4 376.75 M-62.75 386.55 L-62.4 385.65 Q-60.75 381.15 -55.95 374.95 M-53.55 402.05 Q-55.05 416.55 -52.0 424.0 M-52.5 424.0 Q-48.65 440.75 -41.8 445.05 L-39.75 449.1 -39.2 450.35 M-37.95 453.15 Q-34.35 461.7 -32.9 469.9 M-32.0 480.0 Q-31.95 490.15 -35.5 499.6 M-40.35 510.0 Q-43.5 516.05 -48.45 524.35 M-53.75 533.05 L-60.3 543.45 -64.55 550.0 M-70.45 558.6 L-71.5 559.95 Q-74.9 564.5 -76.95 569.35 M-79.95 580.35 L-80.1 581.85 Q-80.85 590.0 -78.5 599.0 M-78.85 598.4 L-77.15 604.85 -77.1 604.9 M-76.4 604.9 Q-75.25 608.95 -73.9 612.1 L-71.25 617.0 Q-69.2 620.05 -66.8 621.55 L-64.1 627.05 M-62.65 630.35 Q-59.25 638.75 -57.85 646.7 M-57.0 656.9 Q-57.0 668.1 -61.5 678.45 -63.1 682.35 -66.1 687.95 M-65.6 688.25 L-65.85 688.7 -68.15 692.75 Q-70.3 698.5 -72.5 702.65 -76.8 710.85 -81.2 712.7 -85.5 714.55 -88.75 710.3 -92.15 706.75 -84.05 690.55 L-82.1 688.4 -80.1 686.2 -78.05 682.25 -77.95 681.8 M-72.0 649.55 Q-75.3 639.2 -77.65 633.85 M-80.45 629.35 Q-87.75 619.3 -91.15 606.25 M-93.25 598.7 Q-95.0 590.4 -93.95 581.85 L-93.0 576.4 -92.65 574.9 M-89.45 565.3 L-87.0 559.95 -83.6 553.8 -81.8 551.0 M-75.85 541.6 L-67.6 528.55 M-66.05 526.05 L-65.75 525.6 M-61.05 518.15 L-53.7 506.5 -53.55 506.3 M-50.25 500.15 L-50.0 499.65 Q-45.85 490.55 -45.55 481.35 M-46.7 469.7 Q-47.8 464.95 -49.9 460.2 M-56.2 450.05 L-56.95 449.1 Q-61.6 443.1 -64.55 433.5 M-68.25 420.25 Q-70.05 410.2 -69.05 405.8 -68.05 401.2 -65.05 392.75 M-80.75 628.8 L-80.5 629.05" fill="none" stroke="#5f6150" stroke-linecap="round" stroke-linejoin="round" stroke-width="1.0"/>
    <path d="M-82.1 688.4 L-78.7 683.0 -77.95 681.8 Q-70.75 669.5 -70.55 657.1 M-74.75 637.15 Q-72.5 642.3 -71.45 647.45 M-89.5 610.15 Q-86.15 620.95 -80.65 627.2" fill="none" stroke="#5f6150" stroke-linecap="round" stroke-linejoin="round" stroke-width="1.0"/>
  </g>
  <defs>
    <radialGradient cx="0" cy="0" gradientTransform="matrix(-0.0018, -8.0E-4, 0.0026, -0.0052, -84.3, 701.45)" gradientUnits="userSpaceOnUse" id="gradient0" r="819.2" spreadMethod="pad">
      <stop offset="0.0" stop-color="#ffffff"/>
      <stop offset="0.6705882352941176" stop-color="#000000"/>
    </radialGradient>
  </defs>
</svg>
