<?xml version="1.0" encoding="UTF-8" standalone="no"?>
<svg xmlns:xlink="http://www.w3.org/1999/xlink" height="424.6px" width="85.9px" xmlns="http://www.w3.org/2000/svg">
  <g transform="matrix(1.0, 0.0, 0.0, 1.0, 118.9, -346.8)">
    <path d="M-65.0 390.15 Q-63.7 388.3 -61.6 387.65 -59.15 386.9 -57.05 387.9 L-56.7 388.1 Q-55.5 388.95 -55.4 391.5 -55.35 393.9 -55.65 396.05 L-56.0 395.55 Q-57.3 394.05 -59.45 394.15 -62.0 394.25 -63.75 396.2 L-64.95 397.7 -65.1 397.7 Q-64.9 395.7 -65.0 393.55 L-65.1 392.35 -65.1 390.3 -65.0 390.15 M-60.8 388.5 Q-61.3 389.5 -61.05 391.3 -60.8 393.05 -60.4 393.65 -60.05 394.25 -59.45 393.45 L-58.55 392.05 Q-58.15 391.5 -58.15 390.65 L-58.25 388.75 Q-58.45 387.7 -59.35 387.6 -60.25 387.5 -60.8 388.5 M-66.25 412.85 Q-64.7 411.0 -62.45 410.3 -59.4 409.4 -56.75 410.65 -55.7 411.15 -55.15 412.5 -54.75 413.55 -54.7 415.1 L-54.75 418.35 -55.0 420.8 Q-56.6 418.25 -59.75 418.45 -63.0 418.55 -65.15 421.0 L-66.65 422.9 -66.8 422.9 -66.65 420.05 -66.85 416.15 Q-67.05 414.55 -66.85 413.6 L-66.25 412.85 M-59.8 417.6 L-58.6 415.85 Q-58.15 415.1 -58.1 414.1 L-58.3 411.7 Q-58.5 410.35 -59.65 410.25 -60.8 410.1 -61.45 411.4 -62.1 412.65 -61.75 414.85 -61.45 417.05 -60.95 417.8 -60.5 418.55 -59.8 417.6 M-51.9 433.8 Q-50.05 434.75 -48.85 437.95 -47.85 440.7 -47.25 443.4 L-46.95 444.8 Q-48.7 443.35 -50.65 443.3 -52.05 443.25 -53.5 443.85 -54.75 444.35 -55.75 445.05 L-57.65 446.9 -58.9 449.05 -59.3 450.15 -59.3 450.4 -61.8 446.05 -62.8 444.0 -63.35 442.9 Q-63.95 441.85 -64.45 441.3 L-64.25 440.85 Q-63.6 439.4 -62.75 438.25 -61.55 436.45 -59.9 435.3 L-59.45 435.0 Q-57.65 433.85 -55.75 433.5 L-53.1 433.45 Q-52.45 433.5 -51.9 433.8 M-39.25 455.85 Q-37.05 456.5 -35.7 460.15 -34.4 463.65 -33.8 467.0 -34.75 466.2 -35.8 465.85 L-40.05 466.0 -40.3 466.1 Q-42.5 466.9 -43.9 468.45 -45.05 469.65 -45.75 471.3 L-45.95 471.8 -45.95 471.85 -47.4 472.3 Q-48.25 469.3 -49.65 466.25 -50.5 464.4 -50.65 463.2 -50.25 461.75 -49.5 460.55 L-47.8 458.4 -46.75 457.55 Q-45.45 456.6 -44.05 456.15 -42.05 455.4 -39.9 455.7 L-39.25 455.85 M-33.95 489.65 Q-32.8 491.45 -34.05 494.25 L-35.9 498.55 -38.0 503.5 Q-37.05 498.7 -40.55 497.55 L-40.8 497.45 -45.25 497.2 -46.85 497.65 Q-47.55 497.9 -48.25 498.3 L-50.65 499.85 -51.1 500.2 Q-49.3 496.4 -48.3 491.9 L-47.7 489.85 -47.25 488.85 Q-46.15 488.0 -44.9 487.5 L-43.15 487.0 -40.7 486.75 -38.4 487.05 Q-36.1 487.5 -34.6 488.85 L-33.95 489.65 M-46.15 520.05 Q-46.35 521.8 -47.9 524.0 L-50.0 526.65 -52.55 529.35 Q-52.35 527.2 -53.35 525.55 -54.05 524.35 -55.4 523.45 L-56.55 522.75 Q-58.3 521.8 -60.25 521.7 L-62.7 521.85 -63.6 522.0 -66.05 522.75 Q-63.1 519.7 -60.65 515.75 -59.65 514.05 -58.75 513.25 L-57.9 513.0 -54.35 512.75 -51.85 513.35 -51.3 513.6 Q-49.1 514.55 -47.7 516.25 -47.05 517.0 -46.55 518.0 -46.05 518.95 -46.15 520.05 M-62.3 546.4 L-62.55 546.9 -65.4 551.2 -66.6 552.75 Q-66.65 549.95 -68.55 548.2 L-70.05 547.15 Q-71.75 546.2 -73.5 545.95 -74.5 545.8 -75.55 545.95 L-77.5 546.3 -79.35 546.95 -80.75 547.55 Q-78.15 544.2 -76.15 540.05 -75.3 538.25 -74.45 537.35 -73.7 537.0 -72.9 536.8 L-70.4 536.4 -67.6 536.75 -67.0 536.9 Q-64.55 537.7 -62.95 539.4 L-61.85 540.8 Q-60.45 542.9 -62.3 546.4 M-77.9 570.25 Q-77.85 571.9 -79.05 574.3 L-80.35 576.95 -82.35 581.6 Q-82.35 579.1 -83.9 577.45 -84.7 576.6 -85.8 576.0 -87.35 575.1 -88.95 574.85 -90.45 574.6 -92.0 574.85 L-93.25 575.15 -93.65 575.3 Q-94.8 575.75 -95.2 576.65 L-91.9 568.9 Q-91.25 567.5 -90.6 566.65 L-90.2 566.2 Q-89.05 565.65 -87.9 565.45 L-85.25 565.25 -83.35 565.6 Q-81.8 566.0 -80.7 566.55 -79.05 567.4 -78.35 568.55 -77.9 569.3 -77.9 570.25 M-79.95 602.15 L-79.65 602.8 Q-79.05 603.75 -78.55 605.05 L-77.25 609.25 -76.65 611.9 -77.7 611.2 -77.15 613.2 Q-78.5 611.4 -80.4 610.9 L-82.45 610.7 -83.2 610.95 -84.4 611.5 Q-86.55 612.65 -87.8 614.65 L-88.6 616.15 -89.0 617.5 -89.4 616.9 -90.25 615.5 -90.35 615.75 Q-90.55 616.35 -90.4 616.95 L-91.3 613.55 -92.5 611.1 Q-93.4 609.25 -94.15 608.4 L-93.25 606.55 -92.7 605.65 -92.7 605.6 -91.25 603.55 Q-90.65 602.9 -89.9 602.35 -88.85 601.5 -87.55 601.0 -85.55 600.2 -84.0 600.1 L-81.75 600.4 Q-80.7 600.8 -79.95 602.15 M-69.6 622.8 Q-66.95 623.1 -65.4 627.25 -64.1 630.75 -63.5 634.1 L-63.55 634.05 Q-66.0 632.1 -68.95 632.85 L-70.0 633.2 Q-71.6 633.8 -72.85 634.8 L-74.6 636.85 -75.45 638.4 -75.65 638.95 -76.3 639.15 -77.1 639.4 Q-77.95 636.4 -79.35 633.35 L-79.75 632.35 -80.35 630.3 -79.55 628.2 -78.2 626.25 -76.45 624.65 Q-75.15 623.75 -73.8 623.25 -71.8 622.5 -69.6 622.8 M-58.5 659.45 Q-56.85 661.35 -58.25 664.5 L-58.95 666.1 -60.2 669.1 -62.2 673.75 Q-61.25 668.85 -64.85 667.75 L-65.0 667.7 -69.6 667.45 Q-70.45 667.6 -71.3 668.0 L-72.45 668.55 -74.0 669.5 -75.3 670.45 Q-73.5 666.65 -72.5 662.15 L-72.05 660.55 -71.45 659.1 -69.85 658.1 Q-68.75 657.55 -67.6 657.3 L-64.9 657.0 -62.85 657.25 Q-60.35 657.7 -58.8 659.1 L-58.5 659.45 M-70.4 696.3 Q-70.3 698.25 -72.15 700.85 L-75.0 704.35 -76.8 706.2 Q-76.6 704.05 -77.6 702.4 -78.35 701.2 -79.65 700.3 -80.25 699.85 -80.9 699.55 -82.6 698.65 -84.4 698.55 L-86.95 698.7 -88.0 698.9 -90.3 699.6 Q-87.35 696.55 -84.9 692.6 L-83.5 690.6 -83.0 690.1 -82.3 689.9 -78.85 689.6 Q-77.45 689.7 -76.1 690.2 -73.8 691.1 -72.3 692.7 -71.4 693.65 -70.8 694.85 -70.45 695.5 -70.4 696.3 M-86.85 723.65 Q-87.2 724.7 -87.9 725.95 -89.8 729.15 -91.95 731.8 L-91.95 731.5 Q-92.05 728.8 -94.05 727.1 -94.65 726.6 -95.4 726.2 -97.25 725.15 -99.2 725.0 L-101.35 725.05 -102.85 725.35 -105.25 726.2 -106.1 726.6 Q-103.5 723.25 -101.5 719.1 -100.65 717.3 -99.8 716.4 L-98.8 716.0 -96.25 715.5 -92.95 715.8 -92.6 715.9 Q-90.2 716.6 -88.55 718.2 -87.8 718.9 -87.2 719.85 -86.2 721.35 -86.85 723.65 M-68.35 424.9 L-68.3 424.5 -68.05 424.5 -68.35 424.9 M-53.1 439.0 L-53.3 438.05 Q-53.7 436.8 -54.45 435.3 -54.9 434.5 -55.5 434.2 L-56.6 434.1 Q-58.05 434.4 -58.3 436.2 -58.6 437.95 -57.3 440.45 -56.05 442.95 -55.2 443.6 -54.35 444.3 -53.9 442.85 L-53.2 440.35 Q-53.0 439.7 -53.1 439.0 M-43.45 456.35 L-43.9 456.5 Q-44.9 456.95 -45.15 458.4 -45.4 460.15 -44.15 462.65 -42.9 465.15 -42.0 465.85 -41.15 466.55 -40.7 465.1 L-40.55 464.6 -40.0 462.6 Q-39.75 461.5 -40.15 460.3 -40.55 459.05 -41.3 457.55 -42.05 456.05 -43.45 456.35 M-37.35 487.8 L-38.5 487.65 Q-39.25 487.7 -39.95 488.45 -41.3 489.65 -41.8 492.4 -42.3 495.15 -42.0 496.2 -41.75 497.25 -40.5 496.4 L-40.15 496.15 -38.4 494.85 Q-37.55 494.15 -37.15 492.95 L-36.4 490.05 Q-36.1 488.4 -37.35 487.8 M-83.1 574.05 L-82.9 573.95 Q-81.95 573.5 -81.25 572.4 L-79.85 569.75 Q-79.2 568.2 -80.35 567.35 L-80.85 567.05 Q-81.85 566.65 -83.0 567.35 -84.55 568.25 -85.65 570.85 -86.75 573.45 -86.7 574.55 -86.7 575.6 -85.3 575.05 L-83.1 574.05 M-51.7 515.2 L-52.3 515.5 Q-53.6 516.35 -54.7 518.35 -56.05 520.8 -56.15 521.9 L-56.15 522.05 Q-56.1 522.95 -54.8 522.55 L-52.3 521.75 Q-51.3 521.4 -50.5 520.35 L-48.85 517.9 Q-48.0 516.45 -49.05 515.45 -50.1 514.45 -51.7 515.2 M-67.25 538.5 Q-68.8 539.4 -69.9 542.0 -71.0 544.6 -70.95 545.7 -70.95 546.75 -69.55 546.2 L-67.15 545.1 Q-66.2 544.65 -65.5 543.55 L-64.1 540.9 Q-63.45 539.35 -64.6 538.5 -65.75 537.6 -67.25 538.5 M-69.95 630.7 L-69.7 629.7 Q-69.45 628.6 -69.85 627.4 -70.25 626.15 -71.0 624.65 -71.75 623.15 -73.15 623.45 L-73.6 623.6 Q-74.6 624.05 -74.85 625.5 -75.1 627.25 -73.85 629.75 -72.6 632.25 -71.7 632.95 -70.85 633.65 -70.4 632.2 L-69.95 630.7 M-61.55 658.05 L-62.85 657.9 Q-63.5 658.05 -64.15 658.7 -65.5 659.9 -66.0 662.65 -66.5 665.4 -66.2 666.45 -65.95 667.5 -64.7 666.65 L-64.35 666.4 -63.75 666.0 -62.6 665.1 Q-61.75 664.4 -61.35 663.2 L-60.6 660.3 Q-60.3 658.65 -61.55 658.05 M-73.3 692.3 Q-74.35 691.3 -75.95 692.05 -76.75 692.35 -77.4 693.1 L-78.95 695.2 Q-80.25 697.5 -80.4 698.65 L-80.4 698.75 Q-80.5 699.8 -79.05 699.4 L-76.55 698.6 Q-75.55 698.25 -74.75 697.2 L-74.15 696.4 -73.1 694.75 -72.7 693.6 Q-72.7 692.85 -73.3 692.3 M-86.3 601.2 Q-87.75 601.5 -88.0 603.3 -88.25 604.85 -87.25 607.05 L-87.0 607.55 Q-85.75 610.05 -84.9 610.7 L-84.6 610.9 Q-83.95 611.1 -83.6 609.95 L-83.55 609.9 -82.9 607.45 Q-82.6 606.4 -83.0 605.15 -83.4 603.9 -84.15 602.4 -84.7 601.35 -85.55 601.2 L-86.3 601.2 M-89.95 717.55 Q-91.1 716.65 -92.6 717.55 -94.15 718.45 -95.25 721.05 -96.35 723.65 -96.3 724.75 -96.3 725.8 -94.9 725.25 L-92.5 724.15 -92.0 723.85 Q-91.35 723.4 -90.85 722.6 L-89.45 719.95 -89.25 719.35 Q-89.05 718.2 -89.95 717.55" fill="#443422" fill-rule="evenodd" stroke="none"/>
    <path d="M-60.8 388.5 Q-60.25 387.5 -59.35 387.6 -58.45 387.7 -58.25 388.75 L-58.15 390.65 Q-58.15 391.5 -58.55 392.05 L-59.45 393.45 Q-60.05 394.25 -60.4 393.65 -60.8 393.05 -61.05 391.3 -61.3 389.5 -60.8 388.5 M-59.8 417.6 Q-60.5 418.55 -60.95 417.8 -61.45 417.05 -61.75 414.85 -62.1 412.65 -61.45 411.4 -60.8 410.1 -59.65 410.25 -58.5 410.35 -58.3 411.7 L-58.1 414.1 Q-58.15 415.1 -58.6 415.85 L-59.8 417.6 M-53.1 439.0 Q-53.0 439.7 -53.2 440.35 L-53.9 442.85 Q-54.35 444.3 -55.2 443.6 -56.05 442.95 -57.3 440.45 -58.6 437.95 -58.3 436.2 -58.05 434.4 -56.6 434.1 L-55.5 434.2 Q-54.9 434.5 -54.45 435.3 -53.7 436.8 -53.3 438.05 L-53.1 439.0 M-43.45 456.35 Q-42.05 456.05 -41.3 457.55 -40.55 459.05 -40.15 460.3 -39.75 461.5 -40.0 462.6 L-40.55 464.6 -40.7 465.1 Q-41.15 466.55 -42.0 465.85 -42.9 465.15 -44.15 462.65 -45.4 460.15 -45.15 458.4 -44.9 456.95 -43.9 456.5 L-43.45 456.35 M-37.35 487.8 Q-36.1 488.4 -36.4 490.05 L-37.15 492.95 Q-37.55 494.15 -38.4 494.85 L-40.15 496.15 -40.5 496.4 Q-41.75 497.25 -42.0 496.2 -42.3 495.15 -41.8 492.4 -41.3 489.65 -39.95 488.45 -39.25 487.7 -38.5 487.65 L-37.35 487.8 M-83.1 574.05 L-85.3 575.05 Q-86.7 575.6 -86.7 574.55 -86.75 573.45 -85.65 570.85 -84.55 568.25 -83.0 567.35 -81.85 566.65 -80.85 567.05 L-80.35 567.35 Q-79.2 568.2 -79.85 569.75 L-81.25 572.4 Q-81.95 573.5 -82.9 573.95 L-83.1 574.05 M-51.7 515.2 Q-50.1 514.45 -49.05 515.45 -48.0 516.45 -48.85 517.9 L-50.5 520.35 Q-51.3 521.4 -52.3 521.75 L-54.8 522.55 Q-56.1 522.95 -56.15 522.05 L-56.15 521.9 Q-56.05 520.8 -54.7 518.35 -53.6 516.35 -52.3 515.5 L-51.7 515.2 M-67.25 538.5 Q-65.75 537.6 -64.6 538.5 -63.45 539.35 -64.1 540.9 L-65.5 543.55 Q-66.2 544.65 -67.15 545.1 L-69.55 546.2 Q-70.95 546.75 -70.95 545.7 -71.0 544.6 -69.9 542.0 -68.8 539.4 -67.25 538.5 M-69.95 630.7 L-70.4 632.2 Q-70.85 633.65 -71.7 632.95 -72.6 632.25 -73.85 629.75 -75.1 627.25 -74.85 625.5 -74.6 624.05 -73.6 623.6 L-73.15 623.45 Q-71.75 623.15 -71.0 624.65 -70.25 626.15 -69.85 627.4 -69.45 628.6 -69.7 629.7 L-69.95 630.7 M-61.55 658.05 Q-60.3 658.65 -60.6 660.3 L-61.35 663.2 Q-61.75 664.4 -62.6 665.1 L-63.75 666.0 -64.35 666.4 -64.7 666.65 Q-65.95 667.5 -66.2 666.45 -66.5 665.4 -66.0 662.65 -65.5 659.9 -64.15 658.7 -63.5 658.05 -62.85 657.9 L-61.55 658.05 M-73.3 692.3 Q-72.7 692.85 -72.7 693.6 L-73.1 694.75 -74.15 696.4 -74.75 697.2 Q-75.55 698.25 -76.55 698.6 L-79.05 699.4 Q-80.5 699.8 -80.4 698.75 L-80.4 698.65 Q-80.25 697.5 -78.95 695.2 L-77.4 693.1 Q-76.75 692.35 -75.95 692.05 -74.35 691.3 -73.3 692.3 M-86.3 601.2 L-85.55 601.2 Q-84.7 601.35 -84.15 602.4 -83.4 603.9 -83.0 605.15 -82.6 606.4 -82.9 607.45 L-83.55 609.9 -83.6 609.95 Q-83.95 611.1 -84.6 610.9 L-84.9 610.7 Q-85.75 610.05 -87.0 607.55 L-87.25 607.05 Q-88.25 604.85 -88.0 603.3 -87.75 601.5 -86.3 601.2 M-89.95 717.55 Q-89.05 718.2 -89.25 719.35 L-89.45 719.95 -90.85 722.6 Q-91.35 723.4 -92.0 723.85 L-92.5 724.15 -94.9 725.25 Q-96.3 725.8 -96.3 724.75 -96.35 723.65 -95.25 721.05 -94.15 718.45 -92.6 717.55 -91.1 716.65 -89.95 717.55" fill="#ab8458" fill-rule="evenodd" stroke="none"/>
    <path d="M-56.7 388.1 L-57.05 387.9 Q-59.15 386.9 -61.6 387.65 -63.7 388.3 -65.0 390.15 L-65.15 384.65 -68.1 347.3 Q-59.25 366.55 -56.7 388.1 M-65.0 393.55 Q-64.9 395.7 -65.1 397.7 L-64.95 397.7 -63.75 396.2 Q-62.0 394.25 -59.45 394.15 -57.3 394.05 -56.0 395.55 L-55.7 404.65 -55.15 412.5 Q-55.7 411.15 -56.75 410.65 -59.4 409.4 -62.45 410.3 -64.7 411.0 -66.25 412.85 L-66.25 411.2 Q-65.1 403.4 -65.0 393.55 M-54.75 418.35 L-54.3 425.05 -54.25 425.05 -52.95 430.4 -51.9 433.8 Q-52.45 433.5 -53.1 433.45 L-55.75 433.5 -56.6 430.4 -57.05 428.0 -60.85 428.0 -60.45 430.4 -59.45 435.0 -59.9 435.3 Q-61.55 436.45 -62.75 438.25 -64.4 434.75 -64.9 430.4 L-65.05 428.9 -65.0 428.9 -64.8 428.0 -65.25 428.0 -67.9 428.6 -67.9 428.5 Q-67.95 428.4 -68.25 428.65 -67.15 424.95 -66.65 420.05 L-66.8 422.9 -66.65 422.9 -65.15 421.0 Q-63.0 418.55 -59.75 418.45 -56.6 418.25 -55.0 420.8 L-54.75 418.35 M-47.25 443.4 Q-45.4 445.9 -43.3 447.25 -41.0 451.6 -39.25 455.85 L-39.9 455.7 Q-42.05 455.4 -44.05 456.15 L-46.3 451.55 -50.65 443.3 Q-48.7 443.35 -46.95 444.8 L-47.25 443.4 M-35.8 465.85 Q-32.45 478.25 -33.95 489.65 L-34.6 488.85 Q-36.1 487.5 -38.4 487.05 L-38.0 483.4 Q-37.2 474.25 -39.95 466.3 L-40.05 466.0 -35.8 465.85 M-35.9 498.55 Q-36.8 501.4 -38.0 504.15 -40.5 510.1 -46.15 520.05 -46.05 518.95 -46.55 518.0 -47.05 517.0 -47.7 516.25 L-47.0 514.85 Q-43.65 508.25 -41.15 499.7 L-40.55 497.55 Q-37.05 498.7 -38.0 503.5 L-35.9 498.55 M-50.0 526.65 L-54.1 533.4 -62.3 546.4 Q-60.45 542.9 -61.85 540.8 L-62.95 539.4 -59.05 533.4 -55.6 528.65 -53.35 525.55 Q-52.35 527.2 -52.55 529.35 L-50.0 526.65 M-65.4 551.2 L-70.6 559.15 -73.85 563.3 Q-76.25 566.7 -77.9 570.25 -77.9 569.3 -78.35 568.55 -79.05 567.4 -80.7 566.55 L-79.25 563.3 Q-76.8 558.35 -73.15 554.05 L-68.55 548.2 Q-66.65 549.95 -66.6 552.75 L-65.4 551.2 M-80.35 576.95 Q-81.65 581.8 -81.75 586.95 -81.95 593.8 -80.0 601.2 L-80.35 600.6 -79.95 602.15 Q-80.7 600.8 -81.75 600.4 L-84.0 600.1 Q-85.45 593.1 -85.2 586.95 L-84.95 583.75 Q-84.6 580.55 -83.9 577.45 -82.35 579.1 -82.35 581.6 L-80.35 576.95 M-77.25 609.25 L-75.4 614.3 -72.75 619.2 Q-71.3 621.4 -69.6 622.8 -71.8 622.5 -73.8 623.25 L-78.85 614.15 -80.4 610.9 Q-78.5 611.4 -77.15 613.2 L-77.7 611.2 -76.65 611.9 -77.25 609.25 M-63.55 634.05 Q-58.4 647.25 -58.5 659.45 L-58.8 659.1 Q-60.35 657.7 -62.85 657.25 L-62.85 653.95 Q-63.1 648.1 -64.95 642.8 -66.8 637.65 -68.95 632.85 -66.0 632.1 -63.55 634.05 M-58.95 666.1 Q-59.9 673.35 -62.8 680.25 L-64.35 684.15 Q-66.35 688.95 -70.4 696.3 -70.45 695.5 -70.8 694.85 -71.4 693.65 -72.3 692.7 L-71.35 690.6 -69.5 685.95 -67.5 679.7 Q-65.75 673.75 -64.85 667.75 -61.25 668.85 -62.2 673.75 L-60.2 669.1 -58.95 666.1 M-75.0 704.35 Q-79.95 712.75 -86.85 723.65 -86.2 721.35 -87.2 719.85 -87.8 718.9 -88.55 718.2 -85.5 713.2 -81.95 708.65 L-77.6 702.4 Q-76.6 704.05 -76.8 706.2 L-75.0 704.35 M-91.95 731.5 L-96.95 739.15 -99.3 742.1 -99.25 742.1 -99.4 742.55 -100.6 747.05 Q-101.25 753.15 -102.35 757.75 -103.35 758.6 -104.75 758.2 -110.75 756.5 -111.55 748.8 -111.9 745.45 -111.45 742.15 L-111.0 739.8 -111.0 739.75 -110.9 739.3 -110.75 739.4 -107.75 734.8 -107.75 734.75 -106.25 732.55 -106.2 732.5 Q-103.8 729.05 -101.75 725.65 L-101.35 725.05 -99.2 725.0 -99.65 725.65 -104.85 733.4 -106.35 735.7 -109.0 740.2 -107.3 740.95 -107.3 742.15 Q-107.15 745.05 -106.0 747.7 -103.5 753.5 -100.9 744.25 L-100.4 742.5 -100.35 742.35 -100.3 742.15 -101.1 742.15 Q-99.6 740.9 -98.45 737.35 -96.4 731.1 -94.05 727.1 -92.05 728.8 -91.95 731.5 M-55.75 445.05 Q-53.95 448.8 -51.4 452.55 L-50.9 453.3 -50.85 453.35 Q-49.15 455.8 -47.8 458.4 L-49.5 460.55 Q-50.95 457.3 -52.75 454.45 L-53.2 453.75 -53.25 453.7 -57.65 446.9 -55.75 445.05 M-45.95 471.85 L-45.95 471.8 -45.75 471.3 Q-45.05 469.65 -43.9 468.45 -41.85 476.75 -43.0 485.65 L-43.15 487.0 -44.9 487.5 -44.8 485.6 -44.8 484.3 Q-44.8 477.6 -45.95 471.85 M-87.9 565.45 L-86.7 563.3 Q-84.25 558.95 -81.4 554.8 L-81.4 554.75 -79.9 552.55 -79.85 552.5 -75.55 545.95 Q-74.5 545.8 -73.5 545.95 L-78.5 553.4 -80.0 555.7 Q-82.35 559.4 -84.3 563.3 L-85.25 565.25 -87.9 565.45 M-88.95 574.85 Q-90.7 580.65 -91.1 586.95 L-91.15 587.5 Q-91.45 592.1 -90.95 596.45 L-89.9 602.35 Q-90.65 602.9 -91.25 603.55 L-91.75 602.85 Q-91.9 601.0 -92.3 599.4 -93.4 595.45 -93.55 591.0 L-93.55 586.95 -93.05 581.0 Q-92.65 577.3 -92.0 574.85 -90.45 574.6 -88.95 574.85 M-45.25 497.2 L-46.5 501.55 Q-48.5 507.9 -51.3 513.6 L-51.85 513.35 -54.35 512.75 Q-50.6 506.6 -48.05 500.8 L-47.5 499.4 -46.85 497.65 -45.25 497.2 M-67.0 536.9 L-67.6 536.75 -70.4 536.4 -68.65 533.4 Q-66.25 529.4 -63.35 525.75 L-60.25 521.7 Q-58.3 521.8 -56.55 522.75 L-61.6 529.8 -64.4 533.4 -67.0 536.9 M-74.6 636.85 L-72.85 634.8 Q-70.6 639.0 -69.3 643.5 L-68.95 644.9 Q-67.85 649.35 -67.6 653.95 L-67.6 657.3 Q-68.75 657.55 -69.85 658.1 L-70.1 653.95 Q-70.65 648.8 -71.95 644.25 -73.05 640.35 -74.6 636.85 M-78.2 626.25 L-79.55 628.2 -86.65 616.85 -87.8 614.65 Q-86.55 612.65 -84.4 611.5 L-82.9 616.5 Q-81.2 621.35 -78.2 626.25 M-69.6 667.45 L-70.5 672.55 -71.35 676.25 -72.85 681.55 -74.0 685.0 -76.1 690.2 Q-77.45 689.7 -78.85 689.6 -76.3 685.1 -74.4 680.8 L-73.85 679.4 -73.1 677.35 -73.05 677.3 -72.65 675.95 Q-72.15 674.15 -71.8 672.25 L-71.3 668.0 Q-70.45 667.6 -69.6 667.45 M-62.8 680.25 Q-60.95 674.75 -60.2 669.1 -60.95 674.75 -62.8 680.25 M-92.6 715.9 L-92.95 715.8 -96.25 715.5 Q-93.35 710.35 -89.7 705.75 -87.0 702.35 -84.4 698.55 -82.6 698.65 -80.9 699.55 -83.95 704.55 -87.95 709.8 L-92.6 715.9" fill="#a8b38c" fill-rule="evenodd" stroke="none"/>
    <path d="M-102.35 757.75 Q-104.5 766.7 -108.35 769.6 -112.05 772.45 -116.2 769.15 -120.4 766.5 -116.55 748.85 L-114.4 742.15 -114.85 742.15 -111.45 736.0 -105.25 726.2 -102.85 725.35 -101.35 725.05 -101.75 725.65 Q-103.8 729.05 -106.2 732.5 L-106.25 732.55 -107.75 734.75 -107.75 734.8 -110.75 739.4 -110.9 739.3 -111.0 739.75 -111.0 739.8 -111.45 742.15 Q-111.9 745.45 -111.55 748.8 -110.75 756.5 -104.75 758.2 -103.35 758.6 -102.35 757.75 M-98.8 716.0 L-88.0 698.9 -86.95 698.7 -84.4 698.55 Q-87.0 702.35 -89.7 705.75 -93.35 710.35 -96.25 715.5 L-98.8 716.0 M-83.5 690.6 L-83.6 690.6 -80.2 685.2 Q-77.7 681.15 -75.95 677.1 -74.65 673.3 -74.0 669.5 L-72.45 668.55 -71.3 668.0 -71.8 672.25 Q-72.15 674.15 -72.65 675.95 L-73.05 677.3 -73.1 677.35 -73.85 679.4 -74.4 680.8 Q-76.3 685.1 -78.85 689.6 L-82.3 689.9 -83.0 690.1 -83.5 690.6 M-72.05 660.55 Q-71.95 657.25 -72.3 653.95 L-72.95 653.95 -73.0 653.45 -73.05 653.05 -73.2 652.7 Q-78.15 636.95 -81.05 632.25 L-82.25 631.0 -81.9 631.6 Q-87.1 624.45 -90.35 615.75 L-90.25 615.5 -89.4 616.9 -89.0 617.5 -88.6 616.15 -87.8 614.65 -86.65 616.85 -79.55 628.2 -80.35 630.3 -79.75 632.35 -79.35 633.35 Q-77.95 636.4 -77.1 639.4 L-76.3 639.15 -75.65 638.95 -75.45 638.4 -74.6 636.85 Q-73.05 640.35 -71.95 644.25 -70.65 648.8 -70.1 653.95 L-69.85 658.1 -71.45 659.1 -72.05 660.55 M-93.25 606.55 L-93.65 605.3 Q-96.35 596.3 -95.7 586.95 -95.35 581.2 -93.65 575.3 L-93.25 575.15 -92.0 574.85 Q-92.65 577.3 -93.05 581.0 L-93.55 586.95 -93.55 591.0 Q-93.4 595.45 -92.3 599.4 -91.9 601.0 -91.75 602.85 L-91.25 603.55 -92.7 605.6 -92.7 605.65 -93.25 606.55 M-90.6 566.65 L-89.05 563.3 -85.1 556.0 -79.35 546.95 -77.5 546.3 -75.55 545.95 -79.85 552.5 -79.9 552.55 -81.4 554.75 -81.4 554.8 Q-84.25 558.95 -86.7 563.3 L-87.9 565.45 Q-89.05 565.65 -90.2 566.2 L-90.6 566.65 M-72.9 536.8 L-63.6 522.0 -62.7 521.85 -60.25 521.7 -63.35 525.75 Q-66.25 529.4 -68.65 533.4 L-70.4 536.4 -72.9 536.8 M-57.9 513.0 L-55.2 508.7 Q-52.45 504.3 -50.65 499.85 L-48.25 498.3 Q-47.55 497.9 -46.85 497.65 L-47.5 499.4 -48.05 500.8 Q-50.6 506.6 -54.35 512.75 L-57.9 513.0 M-47.7 489.85 Q-44.65 472.4 -55.55 454.55 L-59.3 450.15 -58.9 449.05 -57.65 446.9 -53.25 453.7 -53.2 453.75 -52.75 454.45 Q-50.95 457.3 -49.5 460.55 -50.25 461.75 -50.65 463.2 -50.5 464.4 -49.65 466.25 -48.25 469.3 -47.4 472.3 L-45.95 471.85 Q-44.8 477.6 -44.8 484.3 L-44.8 485.6 -44.9 487.5 Q-46.15 488.0 -47.25 488.85 L-47.7 489.85 M-61.8 446.05 L-63.35 442.9 -62.8 444.0 -61.8 446.05 M-64.25 440.85 Q-66.1 436.15 -67.45 430.4 L-67.55 430.1 -67.75 429.1 -67.85 429.1 -67.9 429.1 -67.9 428.95 -67.9 428.6 -68.25 428.65 Q-67.95 428.4 -67.9 428.5 L-67.9 428.6 -65.25 428.0 -64.8 428.0 -65.0 428.9 -65.05 428.9 -64.9 430.4 Q-64.4 434.75 -62.75 438.25 -63.6 439.4 -64.25 440.85 M-67.85 429.1 L-67.9 428.95 -67.85 429.1 M-79.75 632.35 L-80.55 631.05 Q-85.9 625.9 -89.4 616.9 -85.9 625.9 -80.55 631.05 L-79.75 632.35 M-72.3 653.95 Q-73.1 646.6 -76.3 639.15 -73.1 646.6 -72.3 653.95 M-75.95 677.1 Q-77.95 682.9 -81.55 688.7 L-82.3 689.9 -81.55 688.7 Q-77.95 682.9 -75.95 677.1 M-113.55 755.7 Q-114.05 755.6 -114.6 756.55 -115.15 757.5 -115.4 759.05 L-115.55 761.55 -115.1 762.65 -114.75 762.8 Q-114.3 762.9 -113.75 761.95 L-113.15 760.65 -112.9 759.55 Q-112.65 758.05 -112.8 756.9 -113.0 755.8 -113.55 755.7" fill="#899865" fill-rule="evenodd" stroke="none"/>
    <path d="M-59.45 435.0 L-60.45 430.4 -60.85 428.0 -57.05 428.0 -56.6 430.4 -55.75 433.5 Q-57.65 433.85 -59.45 435.0 M-55.75 445.05 Q-54.75 444.35 -53.5 443.85 -52.05 443.25 -50.65 443.3 L-46.3 451.55 -44.05 456.15 Q-45.45 456.6 -46.75 457.55 L-47.8 458.4 Q-49.15 455.8 -50.85 453.35 L-50.9 453.3 -51.4 452.55 Q-53.95 448.8 -55.75 445.05 M-43.9 468.45 Q-42.5 466.9 -40.3 466.1 L-40.05 466.0 -39.95 466.3 Q-37.2 474.25 -38.0 483.4 L-38.4 487.05 -40.7 486.75 -43.15 487.0 -43.0 485.65 Q-41.85 476.75 -43.9 468.45 M-85.25 565.25 L-84.3 563.3 Q-82.35 559.4 -80.0 555.7 L-78.5 553.4 -73.5 545.95 Q-71.75 546.2 -70.05 547.15 L-68.55 548.2 -73.15 554.05 Q-76.8 558.35 -79.25 563.3 L-80.7 566.55 Q-81.8 566.0 -83.35 565.6 L-85.25 565.25 M-88.95 574.85 Q-87.35 575.1 -85.8 576.0 -84.7 576.6 -83.9 577.45 -84.6 580.55 -84.95 583.75 L-85.2 586.95 Q-85.45 593.1 -84.0 600.1 -85.55 600.2 -87.55 601.0 -88.85 601.5 -89.9 602.35 L-90.95 596.45 Q-91.45 592.1 -91.15 587.5 L-91.1 586.95 Q-90.7 580.65 -88.95 574.85 M-40.55 497.55 L-41.15 499.7 Q-43.65 508.25 -47.0 514.85 L-47.7 516.25 Q-49.1 514.55 -51.3 513.6 -48.5 507.9 -46.5 501.55 L-45.25 497.2 -40.8 497.45 -40.55 497.55 M-67.0 536.9 L-64.4 533.4 -61.6 529.8 -56.55 522.75 -55.4 523.45 Q-54.05 524.35 -53.35 525.55 L-55.6 528.65 -59.05 533.4 -62.95 539.4 Q-64.55 537.7 -67.0 536.9 M-80.4 610.9 L-78.85 614.15 -73.8 623.25 Q-75.15 623.75 -76.45 624.65 L-78.2 626.25 Q-81.2 621.35 -82.9 616.5 L-84.4 611.5 -83.2 610.95 -82.45 610.7 -80.4 610.9 M-72.85 634.8 Q-71.6 633.8 -70.0 633.2 L-68.95 632.85 Q-66.8 637.65 -64.95 642.8 -63.1 648.1 -62.85 653.95 L-62.85 657.25 -64.9 657.0 -67.6 657.3 -67.6 653.95 Q-67.85 649.35 -68.95 644.9 L-69.3 643.5 Q-70.6 639.0 -72.85 634.8 M-69.6 667.45 L-65.0 667.7 -64.85 667.75 Q-65.75 673.75 -67.5 679.7 L-69.5 685.95 -71.35 690.6 -72.3 692.7 Q-73.8 691.1 -76.1 690.2 L-74.0 685.0 -72.85 681.55 -71.35 676.25 -70.5 672.55 -69.6 667.45 M-80.9 699.55 Q-80.25 699.85 -79.65 700.3 -78.35 701.2 -77.6 702.4 L-81.95 708.65 Q-85.5 713.2 -88.55 718.2 -90.2 716.6 -92.6 715.9 L-87.95 709.8 Q-83.95 704.55 -80.9 699.55 M-100.4 742.5 L-100.9 744.25 Q-103.5 753.5 -106.0 747.7 -107.15 745.05 -107.3 742.15 L-107.3 740.95 -109.0 740.2 -106.35 735.7 -104.85 733.4 -99.65 725.65 -99.2 725.0 Q-97.25 725.15 -95.4 726.2 -94.65 726.6 -94.05 727.1 -96.4 731.1 -98.45 737.35 -99.6 740.9 -101.1 742.15 L-101.3 742.3 -100.4 742.5" fill="#c6cdb4" fill-rule="evenodd" stroke="none"/>
    <path d="M-113.55 755.7 Q-113.0 755.8 -112.8 756.9 -112.65 758.05 -112.9 759.55 L-113.15 760.65 -113.75 761.95 Q-114.3 762.9 -114.75 762.8 L-115.1 762.65 -115.55 761.55 -115.4 759.05 Q-115.15 757.5 -114.6 756.55 -114.05 755.6 -113.55 755.7" fill="url(#gradient0)" fill-rule="evenodd" stroke="none"/>
    <path d="M-56.7 388.1 Q-59.25 366.55 -68.1 347.3 L-65.15 384.65 -65.0 390.15 M-55.15 412.5 L-55.7 404.65 -56.0 395.55 M-54.75 418.35 L-54.3 425.05 M-54.25 425.05 L-52.95 430.4 -51.9 433.8 M-47.25 443.4 Q-45.4 445.9 -43.3 447.25 -41.0 451.6 -39.25 455.85 M-35.8 465.85 Q-32.45 478.25 -33.95 489.65 M-35.9 498.55 Q-36.8 501.4 -38.0 504.15 -40.5 510.1 -46.15 520.05 M-50.0 526.65 L-54.1 533.4 -62.3 546.4 M-65.4 551.2 L-70.6 559.15 -73.85 563.3 Q-76.25 566.7 -77.9 570.25 M-80.35 576.95 Q-81.65 581.8 -81.75 586.95 -81.95 593.8 -80.0 601.2 M-80.35 600.6 L-79.95 602.15 M-77.25 609.25 L-75.4 614.3 -72.75 619.2 Q-71.3 621.4 -69.6 622.8 M-63.55 634.05 Q-58.4 647.25 -58.5 659.45 M-58.95 666.1 Q-59.9 673.35 -62.8 680.25 L-64.35 684.15 Q-66.35 688.95 -70.4 696.3 M-75.0 704.35 Q-79.95 712.75 -86.85 723.65 M-91.95 731.5 L-96.95 739.15 -99.3 742.1 M-99.25 742.1 L-99.4 742.55 -100.6 747.05 Q-101.25 753.15 -102.35 757.75 -104.5 766.7 -108.35 769.6 -112.05 772.45 -116.2 769.15 -120.4 766.5 -116.55 748.85 L-114.4 742.15 M-114.85 742.15 L-111.45 736.0 -105.25 726.2 M-98.8 716.0 L-88.0 698.9 M-83.6 690.6 L-80.2 685.2 Q-77.7 681.15 -75.95 677.1 -74.65 673.3 -74.0 669.5 M-72.05 660.55 Q-71.95 657.25 -72.3 653.95 -73.1 646.6 -76.3 639.15 M-72.95 653.95 L-73.0 653.45 -73.05 653.05 -73.2 652.7 Q-78.15 636.95 -81.05 632.25 L-82.25 631.0 M-81.9 631.6 Q-87.1 624.45 -90.35 615.75 M-93.25 606.55 L-93.65 605.3 Q-96.35 596.3 -95.7 586.95 -95.35 581.2 -93.65 575.3 M-90.6 566.65 L-89.05 563.3 -85.1 556.0 -79.35 546.95 M-72.9 536.8 L-63.6 522.0 M-57.9 513.0 L-55.2 508.7 Q-52.45 504.3 -50.65 499.85 M-47.7 489.85 Q-44.65 472.4 -55.55 454.55 L-59.3 450.15 M-61.8 446.05 L-63.35 442.9 M-64.25 440.85 Q-66.1 436.15 -67.45 430.4 L-67.55 430.1 -67.85 429.1 -67.9 428.95 -67.9 428.6 -67.9 428.5 Q-67.95 428.4 -68.25 428.65 -67.15 424.95 -66.65 420.05 M-66.25 412.85 L-66.25 411.2 Q-65.1 403.4 -65.0 393.55 M-67.75 429.1 L-67.55 430.1 M-89.4 616.9 Q-85.9 625.9 -80.55 631.05 L-79.75 632.35 M-60.2 669.1 Q-60.95 674.75 -62.8 680.25 M-82.3 689.9 L-81.55 688.7 Q-77.95 682.9 -75.95 677.1" fill="none" stroke="#5f6150" stroke-linecap="round" stroke-linejoin="round" stroke-width="1.0"/>
  </g>
  <defs>
    <radialGradient cx="0" cy="0" gradientTransform="matrix(-0.0019, -4.0E-4, 0.0012, -0.0057, -114.1, 759.45)" gradientUnits="userSpaceOnUse" id="gradient0" r="819.2" spreadMethod="pad">
      <stop offset="0.0" stop-color="#ffffff"/>
      <stop offset="0.6705882352941176" stop-color="#000000"/>
    </radialGradient>
  </defs>
</svg>
