<?xml version="1.0" encoding="UTF-8" standalone="no"?>
<svg xmlns:xlink="http://www.w3.org/1999/xlink" height="400.4px" width="88.2px" xmlns="http://www.w3.org/2000/svg">
  <g transform="matrix(1.0, 0.0, 0.0, 1.0, 121.55, -434.3)">
    <path d="M-42.35 453.8 L-42.45 453.75 Q-43.9 452.85 -45.55 453.4 -47.4 454.0 -48.05 455.55 L-48.7 457.5 -59.15 434.8 Q-48.65 442.5 -42.35 453.8 M-46.25 463.75 L-45.8 462.75 Q-45.2 460.5 -43.1 459.6 L-39.75 459.7 -39.7 459.15 Q-35.35 469.1 -33.85 481.4 L-34.25 485.25 -34.3 483.4 -34.5 482.05 Q-35.2 480.25 -36.4 479.4 -37.0 478.95 -37.75 478.75 -39.85 478.1 -41.4 479.25 L-41.85 479.6 Q-43.0 480.65 -43.9 482.05 -43.8 473.4 -46.25 463.75 M-35.05 492.5 L-36.05 501.8 Q-35.7 503.25 -37.8 509.45 -38.05 507.0 -40.1 505.3 L-40.15 505.25 -38.7 505.25 -38.8 504.75 -40.8 504.75 -41.35 504.4 Q-39.35 495.1 -38.5 490.2 -36.45 490.75 -35.05 492.5 M-42.95 519.85 Q-47.15 527.6 -53.8 538.4 L-70.3 564.15 -73.55 568.3 -74.1 569.15 -72.25 565.2 -71.9 563.9 Q-71.95 561.5 -73.45 559.8 L-72.85 559.05 Q-67.55 552.75 -63.7 546.2 L-61.7 542.9 Q-60.05 544.65 -59.5 546.9 -59.15 545.9 -58.45 545.05 -56.2 542.0 -54.65 538.45 L-54.3 537.1 Q-54.3 535.15 -55.3 533.65 -50.5 527.3 -46.7 519.85 L-45.0 516.25 Q-43.55 517.85 -42.95 519.85 M-75.65 571.6 Q-81.2 581.05 -81.45 591.95 L-80.15 591.95 -80.15 592.05 -80.1 609.4 -80.0 609.75 -79.95 610.0 -79.2 612.7 Q-81.05 611.3 -83.25 611.4 L-83.45 610.4 -83.35 610.4 -84.35 595.9 Q-83.25 596.5 -82.3 597.5 L-82.3 595.35 Q-81.8 591.6 -82.25 587.8 -82.3 587.0 -82.6 586.5 -83.2 585.4 -84.05 584.7 -83.0 578.65 -80.9 572.95 L-79.5 569.5 Q-77.55 571.35 -76.9 573.8 -76.55 572.8 -75.85 571.9 L-75.65 571.6 M-75.05 622.6 L-73.7 624.6 Q-71.95 626.95 -69.95 628.2 -66.35 635.05 -64.05 641.65 -64.95 640.1 -66.0 638.6 L-67.0 637.6 Q-68.85 636.5 -70.9 636.7 L-72.95 632.5 -77.15 624.6 -78.55 622.05 Q-76.75 621.95 -75.05 622.6 M-62.25 647.55 Q-57.05 667.6 -64.65 685.1 -70.85 700.0 -97.25 740.1 -105.6 749.8 -106.1 781.7 L-106.15 782.6 -106.15 782.45 Q-105.7 789.7 -102.7 797.05 -104.9 795.55 -107.25 794.9 -108.8 790.15 -109.25 785.7 L-109.45 783.4 -109.5 782.45 -109.05 782.35 -109.35 767.6 Q-108.4 768.25 -107.6 769.2 L-106.3 770.5 -105.35 763.85 -105.15 761.1 Q-106.55 758.2 -108.8 756.25 L-108.9 756.15 -109.0 756.05 Q-108.65 751.05 -107.85 748.9 -105.8 743.15 -102.25 738.15 -101.4 739.5 -101.05 741.2 -100.95 742.05 -100.25 743.55 L-100.1 743.55 Q-98.65 740.35 -96.55 737.6 L-95.0 735.3 Q-94.85 732.35 -95.65 729.75 -92.9 726.0 -90.65 722.15 -88.35 718.1 -85.65 714.3 L-85.6 714.4 Q-84.9 715.4 -84.5 716.7 L-83.85 718.35 -82.15 715.4 -80.45 712.55 -79.2 710.1 Q-79.35 708.1 -79.9 706.35 -76.5 701.4 -73.65 695.8 -70.9 690.4 -68.75 683.7 -67.65 685.25 -66.95 687.3 L-65.2 683.7 -62.75 677.95 -62.4 676.6 Q-62.4 673.6 -64.75 671.6 L-65.5 671.0 -64.65 664.35 Q-63.85 655.2 -66.6 647.25 L-66.7 647.0 Q-64.1 646.35 -62.25 647.55 M-100.8 801.15 L-99.6 803.4 -98.9 804.65 -98.95 804.7 -96.9 807.75 Q-92.7 812.25 -90.0 816.1 -90.0 817.35 -91.2 818.2 -96.4 821.65 -102.75 817.15 -106.55 814.55 -109.25 810.85 L-109.45 810.55 -109.55 810.45 -110.2 810.95 -110.7 811.2 -111.0 808.7 Q-110.2 807.6 -109.0 806.75 L-108.8 807.15 -107.6 809.05 -106.5 808.3 -106.15 808.65 -103.85 810.45 Q-102.05 811.6 -99.95 812.25 -93.9 814.15 -99.2 806.1 L-99.4 805.85 -99.0 805.9 -100.8 801.15 M-94.55 610.05 L-94.6 610.05 -94.6 609.75 -94.55 605.75 -94.55 608.95 -94.55 609.75 -94.55 610.05 M-49.8 504.7 Q-47.95 498.45 -45.2 492.55 L-45.2 493.3 -44.5 492.6 -49.75 504.7 -49.8 504.7 M-44.45 492.55 L-44.15 492.2 Q-42.6 490.25 -40.65 490.0 L-45.25 503.45 -45.45 503.5 -48.55 504.2 -44.45 492.55 M-85.6 566.9 L-83.45 567.15 -84.0 568.3 Q-85.9 572.1 -88.6 581.45 L-89.0 583.1 Q-91.0 583.1 -92.5 584.1 -91.9 579.95 -91.0 577.75 L-89.85 575.0 -88.05 571.25 -86.4 568.3 -85.6 566.9 M-62.75 530.45 Q-58.5 525.0 -54.45 518.4 -53.55 516.9 -51.95 513.05 -50.3 512.95 -48.75 513.55 -50.5 517.75 -52.6 521.6 -55.1 526.15 -58.45 530.9 -60.2 530.05 -62.0 530.3 L-62.75 530.45 M-69.25 539.95 L-65.5 540.3 -70.8 547.5 -77.5 557.3 -79.3 557.2 Q-75.5 551.7 -72.7 546.4 L-71.55 544.15 -69.25 539.95 M-75.05 638.25 Q-76.15 639.05 -76.75 640.2 -78.0 637.65 -79.4 635.4 L-79.85 634.7 -79.9 634.65 -85.8 625.35 -85.5 624.95 Q-84.7 624.0 -83.6 623.4 L-83.05 624.6 Q-81.1 629.05 -78.05 633.5 L-77.55 634.25 -77.5 634.3 -75.05 638.25 M-70.7 649.0 L-70.6 649.35 Q-68.5 657.65 -69.65 666.6 L-70.1 669.8 -71.7 670.05 -71.45 666.55 -71.45 665.25 Q-71.45 658.1 -72.75 652.0 -72.05 650.2 -70.7 649.0 M-73.85 679.65 L-72.45 680.25 -73.15 682.5 Q-75.7 690.55 -79.55 697.55 L-82.3 702.25 Q-83.5 701.25 -85.25 700.75 L-85.5 700.7 -81.4 694.35 Q-77.4 687.85 -74.7 681.75 L-74.15 680.35 -73.85 679.65 M-93.0 595.25 Q-91.45 594.5 -89.6 594.5 -89.25 601.6 -87.45 611.15 L-87.3 610.2 -86.9 612.35 Q-88.45 613.15 -89.3 614.55 L-90.4 616.7 Q-91.4 613.6 -91.7 609.9 L-91.8 609.9 -91.85 610.15 -91.85 609.9 -92.5 609.9 -91.85 609.85 -93.0 595.25 M-91.65 609.85 L-91.6 609.75 -91.45 608.95 Q-90.55 604.35 -90.3 601.9 L-91.8 609.85 -91.65 609.85 M-92.95 710.7 Q-91.25 710.75 -89.4 711.5 L-88.95 711.65 Q-93.8 717.9 -97.75 723.45 L-99.25 725.6 -99.85 725.3 -101.05 724.9 -99.65 722.35 -98.5 720.1 Q-96.05 715.2 -92.95 710.7 M-118.3 756.55 Q-118.2 754.35 -117.95 753.7 L-116.8 750.95 -115.0 747.2 Q-111.85 741.3 -108.05 735.75 L-108.05 735.7 -107.3 734.6 Q-106.55 734.8 -105.7 735.25 L-106.65 736.65 Q-111.3 743.9 -114.35 752.0 L-114.95 754.85 -116.15 755.15 Q-117.1 755.5 -117.9 756.15 L-118.3 756.55 M-118.35 767.2 Q-117.15 766.6 -115.75 766.4 L-115.9 783.9 -115.9 785.25 -115.6 783.85 -115.2 783.75 -115.2 783.8 -114.45 790.75 -113.35 795.85 -113.6 796.05 -115.2 797.5 -116.05 794.65 Q-117.2 790.35 -117.75 784.85 L-117.8 784.7 -117.8 785.0 -117.8 784.35 -118.35 767.2 M-106.1 781.7 L-106.15 782.45 -106.1 781.7 M-99.6 803.4 L-99.5 803.9 -98.95 804.7 -99.5 803.9 -99.6 803.4 M-102.0 805.0 L-103.5 806.1 -103.65 804.8 -102.0 805.0" fill="#a8b38c" fill-rule="evenodd" stroke="none"/>
    <path d="M-46.0 455.05 Q-45.6 457.3 -43.95 458.35 -43.35 458.7 -43.55 457.75 -44.2 455.0 -46.0 455.05 M-42.35 453.8 L-41.9 454.35 Q-40.65 456.15 -39.85 458.25 -39.7 458.65 -39.7 459.15 L-39.75 459.7 -43.1 459.6 Q-45.2 460.5 -45.8 462.75 L-46.25 463.75 -46.45 464.15 Q-47.1 462.15 -48.1 460.4 L-48.85 458.95 -48.7 457.5 -48.05 455.55 Q-47.4 454.0 -45.55 453.4 -43.9 452.85 -42.45 453.75 L-42.35 453.8 M-34.25 485.25 Q-34.25 488.1 -34.6 490.95 L-34.65 493.05 -35.05 492.5 Q-36.45 490.75 -38.5 490.2 L-39.1 490.05 -40.65 490.0 Q-42.6 490.25 -44.15 492.2 L-44.45 492.55 -44.5 492.6 -45.2 493.3 -45.2 492.55 -45.2 486.65 -45.05 483.95 -43.9 482.05 Q-43.0 480.65 -41.85 479.6 L-41.4 479.25 Q-39.85 478.1 -37.75 478.75 -37.0 478.95 -36.4 479.4 -35.2 480.25 -34.5 482.05 L-34.3 483.4 -34.25 485.25 M-37.8 509.45 L-37.75 510.3 -38.1 511.6 Q-39.6 515.15 -41.8 518.25 L-42.9 520.1 -42.95 519.85 Q-43.55 517.85 -45.0 516.25 L-46.85 514.6 Q-47.8 513.95 -48.75 513.55 -50.3 512.95 -51.95 513.05 L-53.85 513.4 -54.85 513.65 -55.35 513.75 -55.55 513.65 -52.6 507.8 -51.25 505.45 -49.8 504.7 -49.75 504.7 -48.55 504.2 -45.45 503.5 -45.25 503.45 Q-43.25 503.25 -41.35 504.4 L-40.8 504.75 -40.15 505.25 -40.1 505.3 Q-38.05 507.0 -37.8 509.45 M-74.1 569.15 L-75.65 571.6 -75.85 571.9 Q-76.55 572.8 -76.9 573.8 -77.55 571.35 -79.5 569.5 L-80.95 568.35 Q-82.15 567.5 -83.45 567.15 L-85.6 566.9 -88.0 567.25 -88.3 567.35 -89.75 567.65 -86.85 561.65 -85.5 559.25 Q-84.25 558.5 -82.9 558.05 L-79.8 557.25 -79.3 557.2 -77.5 557.3 Q-75.9 557.7 -74.35 558.95 L-73.45 559.8 Q-71.95 561.5 -71.9 563.9 L-72.25 565.2 -74.1 569.15 M-79.2 612.7 L-79.05 612.85 Q-78.55 613.2 -78.15 613.9 -76.35 617.25 -75.35 620.85 L-74.55 622.8 -75.05 622.6 Q-76.75 621.95 -78.55 622.05 L-81.45 622.5 Q-82.65 622.8 -83.6 623.4 -84.7 624.0 -85.5 624.95 L-85.8 625.35 -86.85 627.15 -87.6 628.55 -87.65 628.7 -88.35 627.2 -89.05 625.7 -90.45 622.7 -91.4 620.2 Q-91.1 618.35 -90.4 616.7 L-89.3 614.55 Q-88.45 613.15 -86.9 612.35 -85.85 611.8 -84.45 611.55 L-83.25 611.4 Q-81.05 611.3 -79.2 612.7 M-64.05 641.65 L-62.35 645.15 Q-61.95 646.15 -62.2 647.6 L-62.25 647.55 Q-64.1 646.35 -66.7 647.0 L-68.2 647.5 Q-69.65 648.05 -70.7 649.0 -72.05 650.2 -72.75 652.0 L-73.0 652.75 -74.15 655.15 -74.7 653.65 Q-75.75 651.1 -77.15 648.8 L-78.4 646.45 -78.0 643.5 -77.0 640.6 -76.75 640.2 Q-76.15 639.05 -75.05 638.25 -74.0 637.5 -72.55 637.05 L-70.9 636.7 Q-68.85 636.5 -67.0 637.6 L-66.0 638.6 Q-64.95 640.1 -64.05 641.65 M-102.7 797.05 L-102.55 797.15 -101.4 799.65 -100.8 801.15 -99.0 805.9 -99.4 805.85 -100.7 805.4 -102.0 805.0 -103.65 804.8 Q-105.8 804.8 -107.85 806.0 L-109.0 806.75 Q-110.2 807.6 -111.0 808.7 L-111.95 810.3 -112.35 811.2 Q-112.65 810.15 -113.2 809.2 -115.15 805.9 -116.25 802.2 L-116.45 801.05 -116.45 800.85 Q-116.3 798.9 -115.2 797.5 L-113.6 796.05 -113.35 795.85 Q-110.7 794.05 -108.1 794.7 L-107.25 794.9 Q-104.9 795.55 -102.7 797.05 M-110.25 734.6 L-111.3 735.0 Q-111.4 733.55 -110.9 732.55 -109.1 729.15 -106.5 726.3 L-105.45 725.4 -104.1 724.9 Q-102.6 724.5 -101.05 724.9 L-99.85 725.3 -99.25 725.6 Q-96.65 726.9 -95.8 729.3 L-95.65 729.75 Q-94.85 732.35 -95.0 735.3 L-96.55 737.6 Q-98.65 740.35 -100.1 743.55 L-100.25 743.55 Q-100.95 742.05 -101.05 741.2 -101.4 739.5 -102.25 738.15 -103.35 736.5 -105.3 735.45 L-105.7 735.25 Q-106.55 734.8 -107.3 734.6 -108.9 734.2 -110.25 734.6 M-95.3 710.95 L-96.25 711.2 Q-95.65 710.35 -95.3 709.35 -93.95 705.75 -91.7 702.55 L-90.75 701.55 Q-89.8 700.9 -88.8 700.65 -87.25 700.25 -85.5 700.7 L-85.25 700.75 Q-83.5 701.25 -82.3 702.25 -81.3 703.05 -80.75 704.25 -80.25 705.25 -79.9 706.35 -79.35 708.1 -79.2 710.1 L-80.45 712.55 -82.15 715.4 -83.85 718.35 -84.5 716.7 Q-84.9 715.4 -85.6 714.4 L-85.65 714.3 Q-86.9 712.55 -88.95 711.65 L-89.4 711.5 Q-91.25 710.75 -92.95 710.7 L-95.3 710.95 M-76.7 679.35 L-78.5 679.65 Q-76.15 675.7 -76.35 674.25 -76.6 672.75 -75.9 671.7 L-74.4 670.95 Q-73.05 670.35 -71.7 670.05 L-70.1 669.8 Q-67.75 669.45 -65.5 671.0 L-64.75 671.6 Q-62.4 673.6 -62.4 676.6 L-62.75 677.95 -65.2 683.7 -66.95 687.3 Q-67.65 685.25 -68.75 683.7 -69.9 682.0 -71.5 680.85 L-72.45 680.25 -73.85 679.65 -76.7 679.35 M-94.6 596.25 L-95.3 596.9 -96.7 598.05 -96.95 591.4 -96.9 588.7 -94.65 585.9 -92.75 584.25 -92.5 584.1 Q-91.0 583.1 -89.0 583.1 L-87.1 583.3 Q-85.3 583.6 -84.05 584.7 -83.2 585.4 -82.6 586.5 -82.3 587.0 -82.25 587.8 -81.8 591.6 -82.3 595.35 L-82.3 597.5 Q-83.25 596.5 -84.35 595.9 -86.15 594.85 -88.55 594.6 L-89.6 594.5 Q-91.45 594.5 -93.0 595.25 L-94.6 596.25 M-71.8 540.5 L-72.2 540.55 -69.2 534.6 -67.8 532.25 -66.05 531.4 Q-64.45 530.7 -62.75 530.45 L-62.0 530.3 Q-60.2 530.05 -58.45 530.9 -57.55 531.35 -56.65 532.15 L-55.3 533.65 Q-54.3 535.15 -54.3 537.1 L-54.65 538.45 Q-56.2 542.0 -58.45 545.05 -59.15 545.9 -59.5 546.9 -60.05 544.65 -61.7 542.9 -62.5 542.05 -63.45 541.4 -64.45 540.65 -65.5 540.3 L-69.25 539.95 -70.45 540.2 -71.8 540.5 M-39.15 487.45 Q-38.75 488.55 -38.35 486.95 L-38.0 484.7 Q-37.8 481.9 -39.25 480.75 -40.25 484.05 -39.4 486.8 L-39.15 487.45 M-89.5 586.6 L-89.7 589.3 Q-89.5 590.7 -88.75 592.0 -88.15 593.1 -87.65 591.45 -86.35 586.8 -89.15 585.3 L-89.5 586.6 M-44.55 512.25 Q-41.2 508.8 -42.85 506.15 -45.85 508.8 -45.75 512.25 -45.75 513.45 -44.55 512.25 M-61.15 539.05 Q-57.75 535.6 -59.4 532.95 -62.4 535.6 -62.35 539.0 L-61.15 539.05 M-78.7 566.0 Q-75.4 562.45 -77.05 559.8 -80.0 562.5 -79.9 565.95 L-78.7 566.0 M-68.95 644.35 Q-70.1 639.7 -73.3 639.75 -72.65 643.65 -69.65 645.35 -68.55 646.0 -68.95 644.35 M-69.2 678.55 Q-65.85 675.1 -67.5 672.45 -70.5 675.1 -70.45 678.5 L-69.2 678.55 M-109.0 756.05 L-108.9 756.15 -108.8 756.25 Q-106.55 758.2 -105.15 761.1 L-105.35 763.85 -106.3 770.5 -107.6 769.2 Q-108.4 768.25 -109.35 767.6 -111.4 766.2 -114.1 766.25 L-115.75 766.4 Q-117.15 766.6 -118.35 767.2 -119.6 767.7 -120.6 768.6 -120.35 767.55 -120.4 766.45 -120.45 762.65 -119.6 758.85 L-119.15 757.55 -118.3 756.55 -117.9 756.15 Q-117.1 755.5 -116.15 755.15 L-114.95 754.85 -114.3 754.75 Q-111.35 754.4 -109.35 755.8 L-109.0 756.05 M-81.75 619.25 Q-82.35 614.5 -85.55 614.2 -85.35 618.1 -82.6 620.2 -81.6 620.95 -81.75 619.25 M-88.7 708.3 Q-89.1 709.95 -88.0 709.3 -85.05 707.45 -84.4 703.5 -87.65 703.55 -88.7 708.3 M-104.2 732.35 L-104.4 733.2 Q-104.4 733.8 -103.65 733.45 -100.5 731.95 -99.4 728.15 L-101.2 728.4 Q-103.1 729.2 -104.2 732.35 M-100.25 746.4 L-100.1 746.4 -100.2 746.55 -100.25 746.4 M-114.65 763.05 Q-114.35 764.7 -113.6 763.7 -111.6 760.85 -112.5 756.95 -115.45 758.25 -114.65 763.05 M-109.9 803.45 L-108.65 803.5 Q-108.3 800.05 -110.95 797.1 -112.9 799.65 -109.9 803.45" fill="#443422" fill-rule="evenodd" stroke="none"/>
    <path d="M-46.0 455.05 Q-44.2 455.0 -43.55 457.75 -43.35 458.7 -43.95 458.35 -45.6 457.3 -46.0 455.05 M-39.15 487.45 L-39.4 486.8 Q-40.25 484.05 -39.25 480.75 -37.8 481.9 -38.0 484.7 L-38.35 486.95 Q-38.75 488.55 -39.15 487.45 M-89.5 586.6 L-89.15 585.3 Q-86.35 586.8 -87.65 591.45 -88.15 593.1 -88.75 592.0 -89.5 590.7 -89.7 589.3 L-89.5 586.6 M-44.55 512.25 Q-45.75 513.45 -45.75 512.25 -45.85 508.8 -42.85 506.15 -41.2 508.8 -44.55 512.25 M-61.15 539.05 L-62.35 539.0 Q-62.4 535.6 -59.4 532.95 -57.75 535.6 -61.15 539.05 M-78.7 566.0 L-79.9 565.95 Q-80.0 562.5 -77.05 559.8 -75.4 562.45 -78.7 566.0 M-68.95 644.35 Q-68.55 646.0 -69.65 645.35 -72.65 643.65 -73.3 639.75 -70.1 639.7 -68.95 644.35 M-69.2 678.55 L-70.45 678.5 Q-70.5 675.1 -67.5 672.45 -65.85 675.1 -69.2 678.55 M-81.75 619.25 Q-81.6 620.95 -82.6 620.2 -85.35 618.1 -85.55 614.2 -82.35 614.5 -81.75 619.25 M-88.7 708.3 Q-87.65 703.55 -84.4 703.5 -85.05 707.45 -88.0 709.3 -89.1 709.95 -88.7 708.3 M-104.2 732.35 Q-103.1 729.2 -101.2 728.4 L-99.4 728.15 Q-100.5 731.95 -103.65 733.45 -104.4 733.8 -104.4 733.2 L-104.2 732.35 M-114.65 763.05 Q-115.45 758.25 -112.5 756.95 -111.6 760.85 -113.6 763.7 -114.35 764.7 -114.65 763.05 M-109.9 803.45 Q-112.9 799.65 -110.95 797.1 -108.3 800.05 -108.65 803.5 L-109.9 803.45" fill="#ab8458" fill-rule="evenodd" stroke="none"/>
    <path d="M-90.0 816.1 Q-84.6 823.6 -84.9 828.45 -85.2 833.1 -90.45 834.1 -95.15 835.5 -106.05 821.0 L-108.15 815.5 -110.75 811.9 -110.9 811.7 -111.0 811.75 -111.2 811.5 -111.95 810.3 -111.0 808.7 -110.7 811.2 -110.65 811.25 -110.2 810.95 -109.55 810.45 -109.45 810.55 -109.25 810.85 Q-106.55 814.55 -102.75 817.15 -96.4 821.65 -91.2 818.2 -90.0 817.35 -90.0 816.1 M-116.45 801.05 Q-119.35 793.3 -119.65 784.75 L-119.65 785.55 Q-124.6 756.5 -111.75 736.95 L-110.25 734.6 Q-108.9 734.2 -107.3 734.6 L-108.05 735.7 -108.05 735.75 Q-111.85 741.3 -115.0 747.2 L-116.8 750.95 -117.95 753.7 Q-118.2 754.35 -118.3 756.55 L-119.15 757.55 -119.6 758.85 Q-120.45 762.65 -120.4 766.45 -120.35 767.55 -120.6 768.6 -119.6 767.7 -118.35 767.2 L-117.8 784.35 -117.8 785.0 -117.8 784.7 -117.75 784.85 Q-117.2 790.35 -116.05 794.65 L-115.2 797.5 Q-116.3 798.9 -116.45 800.85 L-116.45 801.05 M-104.1 724.9 L-95.3 710.95 -92.95 710.7 Q-96.05 715.2 -98.5 720.1 L-99.65 722.35 -101.05 724.9 Q-102.6 724.5 -104.1 724.9 M-88.8 700.65 L-81.85 689.65 Q-78.65 684.5 -76.7 679.35 L-73.85 679.65 -74.15 680.35 -74.7 681.75 Q-77.4 687.85 -81.4 694.35 L-85.5 700.7 Q-87.25 700.25 -88.8 700.65 M-74.4 670.95 Q-72.85 662.35 -74.7 653.65 L-74.15 655.15 -73.0 652.75 -72.75 652.0 Q-71.45 658.1 -71.45 665.25 L-71.45 666.55 -71.7 670.05 Q-73.05 670.35 -74.4 670.95 M-78.0 643.5 Q-79.75 639.5 -82.2 635.5 -85.2 632.65 -87.6 628.55 L-86.85 627.15 -85.8 625.35 -79.9 634.65 -79.85 634.7 -79.4 635.4 Q-78.0 637.65 -76.75 640.2 L-77.0 640.6 -78.0 643.5 M-88.35 627.2 L-89.65 624.6 Q-92.55 618.4 -94.4 610.05 L-94.55 610.05 -94.55 609.75 -94.55 608.95 -94.55 605.75 -94.6 596.25 -93.0 595.25 -91.85 609.85 -92.5 609.9 -91.85 609.9 -91.85 610.15 -91.8 609.9 -91.7 609.9 Q-91.4 613.6 -90.4 616.7 -91.1 618.35 -91.4 620.2 L-90.45 622.7 -89.05 625.7 -88.35 627.2 M-94.65 585.9 Q-93.1 577.25 -88.75 568.3 L-88.3 567.35 -88.0 567.25 -85.6 566.9 -86.4 568.3 -88.05 571.25 -89.85 575.0 -91.0 577.75 Q-91.9 579.95 -92.5 584.1 L-92.75 584.25 -94.65 585.9 M-82.9 558.05 L-71.8 540.5 -70.45 540.2 -69.25 539.95 -71.55 544.15 -72.7 546.4 Q-75.5 551.7 -79.3 557.2 L-79.8 557.25 -82.9 558.05 M-66.05 531.4 L-54.9 513.7 -54.85 513.65 -53.85 513.4 -51.95 513.05 Q-53.55 516.9 -54.45 518.4 -58.5 525.0 -62.75 530.45 -64.45 530.7 -66.05 531.4 M-44.5 492.6 L-44.45 492.55 -48.55 504.2 -49.75 504.7 -44.5 492.6 M-91.65 609.85 L-91.8 609.85 -90.3 601.9 Q-90.55 604.35 -91.45 608.95 L-91.6 609.75 -91.65 609.85 M-98.85 823.2 Q-99.25 823.55 -98.9 824.6 L-97.55 826.85 -95.75 828.55 Q-95.05 828.95 -94.6 828.95 L-94.25 828.8 Q-93.9 828.5 -94.25 827.5 L-94.85 826.15 -95.5 825.3 Q-96.5 824.05 -97.45 823.45 -98.45 822.9 -98.85 823.2" fill="#899865" fill-rule="evenodd" stroke="none"/>
    <path d="M-40.65 490.0 L-39.1 490.05 -38.5 490.2 Q-39.35 495.1 -41.35 504.4 -43.25 503.25 -45.25 503.45 L-40.65 490.0 M-83.45 567.15 Q-82.15 567.5 -80.95 568.35 L-79.5 569.5 -80.9 572.95 Q-83.0 578.65 -84.05 584.7 -85.3 583.6 -87.1 583.3 L-89.0 583.1 -88.6 581.45 Q-85.9 572.1 -84.0 568.3 L-83.45 567.15 M-40.8 504.75 L-38.8 504.75 -38.7 505.25 -40.15 505.25 -40.8 504.75 M-58.45 530.9 Q-55.1 526.15 -52.6 521.6 -50.5 517.75 -48.75 513.55 -47.8 513.95 -46.85 514.6 L-45.0 516.25 -46.7 519.85 Q-50.5 527.3 -55.3 533.65 L-56.65 532.15 Q-57.55 531.35 -58.45 530.9 M-77.5 557.3 L-70.8 547.5 -65.5 540.3 Q-64.45 540.65 -63.45 541.4 -62.5 542.05 -61.7 542.9 L-63.7 546.2 Q-67.55 552.75 -72.85 559.05 L-73.45 559.8 -74.35 558.95 Q-75.9 557.7 -77.5 557.3 M-78.55 622.05 L-77.15 624.6 -72.95 632.5 -70.9 636.7 -72.55 637.05 Q-74.0 637.5 -75.05 638.25 L-77.5 634.3 -77.55 634.25 -78.05 633.5 Q-81.1 629.05 -83.05 624.6 L-83.6 623.4 Q-82.65 622.8 -81.45 622.5 L-78.55 622.05 M-70.1 669.8 L-69.65 666.6 Q-68.5 657.65 -70.6 649.35 L-70.7 649.0 Q-69.65 648.05 -68.2 647.5 L-66.7 647.0 -66.6 647.25 Q-63.85 655.2 -64.65 664.35 L-65.5 671.0 Q-67.75 669.45 -70.1 669.8 M-68.75 683.7 Q-70.9 690.4 -73.65 695.8 -76.5 701.4 -79.9 706.35 -80.25 705.25 -80.75 704.25 -81.3 703.05 -82.3 702.25 L-79.55 697.55 Q-75.7 690.55 -73.15 682.5 L-72.45 680.25 -71.5 680.85 Q-69.9 682.0 -68.75 683.7 M-85.65 714.3 Q-88.35 718.1 -90.65 722.15 -92.9 726.0 -95.65 729.75 L-95.8 729.3 Q-96.65 726.9 -99.25 725.6 L-97.75 723.45 Q-93.8 717.9 -88.95 711.65 -86.9 712.55 -85.65 714.3 M-102.25 738.15 Q-105.8 743.15 -107.85 748.9 -108.65 751.05 -109.0 756.05 L-109.35 755.8 Q-111.35 754.4 -114.3 754.75 L-114.95 754.85 -114.35 752.0 Q-111.3 743.9 -106.65 736.65 L-105.7 735.25 -105.3 735.45 Q-103.35 736.5 -102.25 738.15 M-109.35 767.6 L-109.05 782.35 -109.5 782.45 -109.45 783.4 -109.25 785.7 Q-108.8 790.15 -107.25 794.9 L-108.1 794.7 Q-110.7 794.05 -113.35 795.85 L-114.45 790.75 -115.2 783.8 -115.2 783.75 -115.6 783.85 -115.9 785.25 -115.9 783.9 -115.75 766.4 -114.1 766.25 Q-111.4 766.2 -109.35 767.6 M-89.6 594.5 L-88.55 594.6 Q-86.15 594.85 -84.35 595.9 L-83.35 610.4 -83.45 610.4 -83.25 611.4 -84.45 611.55 Q-85.85 611.8 -86.9 612.35 L-87.3 610.2 -87.45 611.15 Q-89.25 601.6 -89.6 594.5 M-102.0 805.0 L-100.7 805.4 -99.4 805.85 -99.2 806.1 Q-93.9 814.15 -99.95 812.25 -102.05 811.6 -103.85 810.45 L-106.15 808.65 -106.5 808.3 -107.6 809.05 -108.8 807.15 -109.0 806.75 -107.85 806.0 Q-105.8 804.8 -103.65 804.8 L-103.5 806.1 -102.0 805.0" fill="#c6cdb4" fill-rule="evenodd" stroke="none"/>
    <path d="M-98.85 823.2 Q-98.45 822.9 -97.45 823.45 -96.5 824.05 -95.5 825.3 L-94.85 826.15 -94.25 827.5 Q-93.9 828.5 -94.25 828.8 L-94.6 828.95 Q-95.05 828.95 -95.75 828.55 L-97.55 826.85 -98.9 824.6 Q-99.25 823.55 -98.85 823.2" fill="url(#gradient0)" fill-rule="evenodd" stroke="none"/>
    <path d="M-39.7 459.15 Q-35.35 469.1 -33.85 481.4 L-34.25 485.25 M-35.05 492.5 L-36.05 501.8 Q-35.7 503.25 -37.8 509.45 M-42.95 519.85 Q-47.15 527.6 -53.8 538.4 L-70.3 564.15 -73.55 568.3 -74.1 569.15 -75.65 571.6 Q-81.2 581.05 -81.45 591.95 M-80.15 591.95 L-80.15 592.05 -80.1 609.4 -80.0 609.75 -79.95 610.0 -79.2 612.7 M-75.05 622.6 L-73.7 624.6 Q-71.95 626.95 -69.95 628.2 -66.35 635.05 -64.05 641.65 M-62.25 647.55 Q-57.05 667.6 -64.65 685.1 -70.85 700.0 -97.25 740.1 -105.6 749.8 -106.1 781.7 L-106.15 782.6 M-106.15 782.45 Q-105.7 789.7 -102.7 797.05 M-100.8 801.15 L-99.6 803.4 -98.9 804.65 M-98.95 804.7 L-96.9 807.75 Q-92.7 812.25 -90.0 816.1 -84.6 823.6 -84.9 828.45 -85.2 833.1 -90.45 834.1 -95.15 835.5 -106.05 821.0 L-108.15 815.5 -110.75 811.9 -110.9 811.7 M-111.0 811.75 L-111.2 811.5 -111.95 810.3 M-116.45 801.05 Q-119.35 793.3 -119.65 784.75 M-119.65 785.55 Q-124.6 756.5 -111.75 736.95 L-110.25 734.6 M-104.1 724.9 L-95.3 710.95 M-88.8 700.65 L-81.85 689.65 Q-78.65 684.5 -76.7 679.35 M-74.4 670.95 Q-72.85 662.35 -74.7 653.65 M-78.0 643.5 Q-79.75 639.5 -82.2 635.5 -85.2 632.65 -87.6 628.55 M-88.35 627.2 L-89.65 624.6 Q-92.55 618.4 -94.4 610.05 M-94.6 610.05 L-94.6 609.75 -94.55 605.75 -94.6 596.25 M-94.65 585.9 Q-93.1 577.25 -88.75 568.3 L-88.3 567.35 M-82.9 558.05 L-71.8 540.5 M-66.05 531.4 L-54.9 513.7 -54.85 513.65 M-49.8 504.7 Q-47.95 498.45 -45.2 492.55 M-43.9 482.05 Q-43.8 473.4 -46.25 463.75 M-48.7 457.5 L-59.15 434.8 Q-48.65 442.5 -42.35 453.8 M-106.15 782.45 L-106.1 781.7 M-98.95 804.7 L-99.5 803.9 -99.6 803.4" fill="none" stroke="#5f6150" stroke-linecap="round" stroke-linejoin="round" stroke-width="1.0"/>
  </g>
  <defs>
    <radialGradient cx="0" cy="0" gradientTransform="matrix(-0.0015, 0.0012, -0.0035, -0.0046, -96.3, 826.15)" gradientUnits="userSpaceOnUse" id="gradient0" r="819.2" spreadMethod="pad">
      <stop offset="0.0" stop-color="#ffffff"/>
      <stop offset="0.6705882352941176" stop-color="#000000"/>
    </radialGradient>
  </defs>
</svg>
