<?xml version="1.0" encoding="UTF-8" standalone="no"?>
<svg xmlns:xlink="http://www.w3.org/1999/xlink" height="372.4px" width="72.3px" xmlns="http://www.w3.org/2000/svg">
  <g transform="matrix(1.0, 0.0, 0.0, 1.0, 124.15, -524.0)">
    <path d="M-85.25 557.6 L-85.65 557.75 -84.55 556.7 -82.6 554.25 -81.7 552.75 Q-80.45 550.0 -78.7 549.85 L-78.45 549.8 Q-75.9 549.75 -73.75 551.6 -72.65 552.6 -71.9 554.05 L-71.9 554.15 -72.2 554.75 -74.7 559.4 Q-75.6 560.6 -75.8 560.0 -76.3 558.65 -78.85 557.35 -81.25 556.1 -85.25 557.6 M-92.05 569.2 Q-91.5 568.85 -90.7 568.85 -88.2 568.8 -84.95 571.1 -82.5 572.85 -81.4 575.65 L-81.0 576.75 -81.8 580.8 Q-82.35 583.5 -82.85 584.7 L-82.9 584.8 Q-83.45 586.0 -85.0 583.95 -86.6 581.85 -90.8 580.05 -94.95 578.2 -96.25 581.85 L-94.35 575.4 -93.7 572.25 Q-93.4 569.9 -92.05 569.2 M-68.5 633.0 L-65.65 636.3 -67.25 635.8 -69.0 635.4 Q-70.8 635.05 -72.45 635.35 -74.5 635.7 -76.3 637.0 L-76.5 637.2 -78.25 639.0 Q-79.35 640.65 -79.15 642.9 L-79.2 642.85 Q-81.6 640.5 -83.75 637.55 -85.8 634.75 -85.5 632.7 L-85.15 631.55 -83.9 629.7 -82.2 628.15 Q-81.15 627.4 -79.8 626.9 L-77.1 626.3 Q-75.05 626.1 -72.95 626.8 -72.05 627.6 -71.0 629.3 L-68.5 633.0 M-62.2 652.55 Q-61.8 653.65 -61.55 655.55 -61.05 660.15 -59.65 664.1 L-61.3 662.65 -62.3 661.9 Q-63.9 660.8 -65.6 660.35 -67.55 659.9 -69.6 660.3 L-70.4 660.45 Q-71.7 660.8 -72.65 661.55 -74.05 662.6 -74.7 664.45 L-74.85 664.0 Q-75.95 661.05 -76.6 657.65 -77.3 654.1 -76.0 652.35 L-75.3 651.65 -74.05 650.8 Q-72.9 650.1 -71.5 649.85 L-68.55 649.65 -66.8 649.95 Q-64.3 650.55 -62.25 652.45 L-62.2 652.55 M-64.8 682.25 L-64.75 682.35 Q-63.25 684.6 -65.45 688.5 -67.3 691.75 -69.4 694.35 -69.4 693.45 -69.65 692.65 -70.2 690.6 -72.1 689.3 L-72.9 688.8 Q-74.55 687.9 -76.3 687.65 L-79.0 687.7 -80.4 688.05 -82.85 688.95 -83.6 689.3 Q-81.35 686.35 -79.55 682.8 L-79.3 682.3 -79.05 681.75 Q-78.2 679.95 -77.4 679.05 -76.05 678.4 -74.65 678.2 L-73.15 678.05 -70.55 678.4 -68.6 679.05 Q-66.25 680.15 -64.8 682.25 M-77.75 707.0 Q-77.9 708.55 -79.0 710.55 -80.9 713.8 -83.0 716.4 L-83.05 715.7 Q-83.35 713.2 -85.3 711.65 L-86.5 710.85 Q-87.8 710.1 -89.1 709.85 L-94.0 710.05 -96.9 711.2 -97.2 711.35 -95.7 709.3 -95.35 708.7 -95.05 708.25 -94.7 707.7 Q-93.6 705.85 -92.65 703.8 -91.85 702.0 -91.0 701.1 L-90.35 700.8 Q-88.5 700.1 -86.65 700.1 L-84.15 700.45 Q-83.5 700.6 -82.9 700.85 -80.75 701.65 -79.3 703.2 L-78.35 704.4 Q-77.6 705.5 -77.75 707.0 M-93.85 732.65 L-93.75 733.0 Q-94.6 733.8 -95.6 735.55 -97.85 739.3 -99.7 741.55 L-99.75 741.25 -100.0 740.2 Q-100.75 737.85 -102.35 736.25 -103.45 735.2 -104.9 734.5 -105.65 734.1 -106.35 733.95 L-108.15 733.7 Q-109.9 733.7 -111.45 734.8 L-111.1 733.65 Q-110.25 730.95 -108.9 728.15 -107.3 724.8 -105.15 724.25 L-104.3 724.1 -102.15 724.3 -100.25 724.9 Q-98.95 725.5 -97.65 726.6 -96.8 727.35 -96.1 728.25 -94.7 730.1 -93.85 732.65 M-106.25 752.0 L-105.45 754.05 Q-105.65 755.25 -106.5 757.1 -107.9 760.15 -108.75 763.15 L-109.25 763.0 -110.15 762.7 -110.4 762.15 Q-111.05 760.65 -112.0 759.5 -113.55 757.8 -115.8 756.95 L-117.1 756.55 -120.1 756.65 Q-121.05 756.9 -121.95 757.55 L-122.35 757.85 Q-121.75 754.5 -120.45 751.0 -119.75 749.05 -118.75 747.95 -117.65 746.7 -116.2 746.55 L-116.05 746.5 -113.45 746.6 Q-111.35 747.0 -109.4 748.4 L-109.1 748.65 Q-107.3 750.0 -106.25 752.0 M-93.4 809.7 L-90.1 813.6 -91.95 813.0 -93.45 812.7 Q-95.35 812.35 -97.05 812.7 -99.0 813.05 -100.75 814.3 L-101.05 814.5 Q-102.2 815.35 -102.8 816.4 -103.8 818.05 -103.6 820.2 L-104.05 819.8 -106.95 816.5 -108.2 814.85 Q-109.35 813.3 -109.75 812.0 L-109.8 811.7 -109.95 809.85 -109.6 808.85 -108.4 807.05 -106.7 805.5 -104.25 804.2 Q-103.0 803.7 -101.65 803.6 -99.55 803.4 -97.4 804.1 -96.5 804.9 -95.45 806.6 L-93.4 809.7 M-87.15 829.35 L-86.7 829.75 Q-86.25 830.85 -86.0 832.85 -85.5 837.45 -84.1 841.4 L-86.3 839.55 -86.75 839.2 Q-88.6 837.9 -90.6 837.55 -92.3 837.25 -94.05 837.6 L-95.4 837.95 Q-96.7 838.4 -97.6 839.3 -98.6 840.25 -99.15 841.75 L-99.85 839.75 -101.05 834.95 -101.3 832.2 Q-101.25 830.95 -100.75 830.1 -100.4 829.4 -99.75 828.95 -99.35 828.55 -98.85 828.3 -97.65 827.55 -96.3 827.25 L-93.0 826.95 -91.6 827.15 Q-89.2 827.65 -87.15 829.35 M-120.45 788.9 L-122.1 785.1 Q-123.1 782.9 -122.55 781.35 -122.3 780.4 -121.5 779.7 -121.0 779.2 -120.35 778.85 L-118.6 778.1 -115.4 777.6 -112.3 778.0 Q-110.5 778.5 -108.85 779.7 -108.25 780.75 -107.85 782.75 -106.85 787.25 -105.0 791.05 -106.4 790.0 -107.9 789.15 -108.5 788.8 -109.15 788.55 -111.1 787.75 -113.15 787.9 L-115.35 788.3 Q-116.65 788.65 -117.35 789.5 -118.8 791.1 -118.15 794.35 L-118.8 792.8 -120.45 788.9 M-93.85 616.15 L-93.7 617.05 -97.65 607.8 Q-99.0 604.8 -97.55 602.9 L-97.05 602.4 Q-94.95 600.45 -90.95 600.3 -87.4 600.2 -84.4 602.4 -83.8 603.45 -83.4 605.45 -82.4 609.95 -80.55 613.75 L-83.45 611.85 Q-83.9 611.6 -84.3 611.4 -86.25 610.5 -88.3 610.6 L-90.9 611.0 Q-91.9 611.3 -92.55 611.85 -94.15 613.2 -93.85 616.15 M-90.4 571.1 L-91.55 573.85 Q-91.95 575.05 -91.65 576.15 L-90.95 578.65 Q-90.55 580.1 -89.65 579.4 -88.8 578.7 -87.55 576.2 -86.3 573.7 -86.55 571.95 -86.85 570.2 -88.2 569.9 -89.65 569.6 -90.4 571.1 M-63.45 544.0 L-63.25 544.0 -63.45 544.2 -63.45 544.0 M-78.6 553.15 Q-79.0 554.0 -78.85 554.8 L-78.5 556.65 Q-78.3 557.7 -77.65 557.3 L-75.95 555.15 Q-74.9 553.4 -74.95 552.15 -75.05 550.85 -76.0 550.55 -77.0 550.2 -77.6 551.25 L-78.6 553.15 M-76.9 636.1 Q-75.45 636.5 -75.55 635.45 -75.65 634.35 -77.0 631.9 -78.35 629.45 -79.95 628.75 L-81.95 628.55 -82.65 629.0 Q-83.65 629.95 -82.9 631.3 L-82.85 631.45 -81.3 633.8 -81.2 633.9 Q-80.4 634.95 -79.4 635.3 L-77.2 636.0 -76.9 636.1 M-69.45 651.25 Q-70.4 650.15 -71.4 650.2 L-72.0 650.35 Q-73.35 650.8 -73.2 652.5 L-72.75 655.45 Q-72.45 656.7 -71.7 657.45 L-70.4 658.65 -69.75 659.2 Q-68.65 660.2 -68.25 659.2 -67.9 658.2 -68.1 655.4 -68.35 652.6 -69.45 651.25 M-67.5 680.1 Q-68.1 679.65 -68.8 679.7 -69.45 679.7 -70.2 680.15 -71.75 681.05 -72.8 683.65 -73.9 686.2 -73.85 687.35 -73.8 688.4 -72.4 687.85 L-71.3 687.35 -70.05 686.75 Q-69.05 686.3 -68.4 685.2 L-67.05 682.5 Q-66.4 680.95 -67.5 680.1 M-94.3 601.35 Q-95.6 601.95 -95.3 603.6 L-94.55 606.5 Q-94.15 607.7 -93.25 608.4 L-93.15 608.45 -92.7 608.85 -91.15 609.95 Q-89.95 610.8 -89.65 609.75 -89.4 608.7 -89.9 605.95 -90.4 603.2 -91.7 602.0 -93.05 600.75 -94.3 601.35 M-83.7 702.15 L-83.8 702.2 Q-85.3 703.1 -86.4 705.7 L-86.8 706.7 Q-87.5 708.5 -87.45 709.4 -87.4 710.45 -86.05 709.9 L-83.65 708.8 -82.6 708.0 -82.0 707.25 -81.9 707.05 -80.65 704.6 Q-80.0 703.05 -81.15 702.15 -82.25 701.3 -83.7 702.15 M-104.5 728.7 Q-105.05 729.9 -104.85 730.95 L-104.75 731.5 -104.4 733.55 Q-104.1 735.0 -103.15 734.4 -102.25 733.8 -100.75 731.45 -99.25 729.1 -99.35 727.35 -99.45 725.75 -100.5 725.25 L-100.85 725.1 Q-102.2 724.65 -103.1 726.1 L-104.5 728.7 M-113.75 747.3 Q-114.4 747.55 -114.85 748.4 L-116.0 751.15 Q-116.4 752.3 -116.15 753.35 L-116.1 753.45 -115.4 755.95 Q-115.0 757.4 -114.1 756.7 -113.25 756.0 -112.0 753.5 -110.75 751.0 -111.0 749.25 -111.3 747.5 -112.65 747.2 L-113.75 747.3 M-118.75 778.65 Q-120.05 779.25 -119.75 780.9 L-119.0 783.8 Q-118.6 785.0 -117.7 785.7 L-116.7 786.45 -115.6 787.25 -115.2 787.5 -114.4 787.55 -114.1 787.05 Q-113.85 786.0 -114.35 783.25 -114.85 780.5 -116.15 779.3 -117.35 778.15 -118.5 778.55 L-118.75 778.65 M-104.4 806.05 L-106.5 805.9 -107.1 806.3 Q-108.15 807.3 -107.3 808.75 L-107.2 808.9 -105.9 810.9 -105.65 811.2 Q-104.85 812.25 -103.85 812.6 L-101.75 813.3 -101.35 813.4 Q-99.9 813.8 -100.0 812.75 -100.1 811.65 -101.45 809.2 -102.8 806.75 -104.4 806.05 M-96.45 827.65 Q-97.8 828.1 -97.65 829.8 L-97.2 832.75 Q-96.9 834.0 -96.15 834.75 L-95.4 835.45 -94.2 836.5 Q-93.1 837.5 -92.7 836.5 -92.35 835.5 -92.55 832.7 -92.8 829.9 -93.9 828.55 -95.0 827.25 -96.25 827.6 L-96.45 827.65" fill="#443422" fill-rule="evenodd" stroke="none"/>
    <path d="M-85.25 557.6 Q-81.25 556.1 -78.85 557.35 -76.3 558.65 -75.8 560.0 -75.6 560.6 -74.7 559.4 -79.55 568.65 -81.4 575.65 -82.5 572.85 -84.95 571.1 -88.2 568.8 -90.7 568.85 -91.5 568.85 -92.05 569.2 L-91.7 568.3 Q-90.05 563.8 -85.25 557.6 M-72.2 554.75 L-71.9 554.15 -71.9 554.05 Q-72.65 552.6 -73.75 551.6 -75.9 549.75 -78.45 549.8 L-78.7 549.85 Q-68.95 539.05 -52.35 524.5 -64.85 541.65 -72.2 554.75 M-82.85 584.7 Q-84.35 599.2 -81.3 606.65 L-81.8 606.65 Q-77.95 623.4 -71.1 627.7 L-69.05 631.75 -68.5 633.0 -71.0 629.3 Q-72.05 627.6 -72.95 626.8 -75.05 626.1 -77.1 626.3 L-81.65 618.1 Q-83.45 614.95 -84.3 611.4 -83.9 611.6 -83.45 611.85 L-80.55 613.75 Q-82.4 609.95 -83.4 605.45 -83.8 603.45 -84.4 602.4 -87.4 600.2 -90.95 600.3 -94.95 600.45 -97.05 602.4 L-97.55 602.9 Q-99.35 592.85 -98.35 588.45 -97.35 583.85 -94.35 575.4 L-96.25 581.85 Q-94.95 578.2 -90.8 580.05 -86.6 581.85 -85.0 583.95 -83.45 586.0 -82.9 584.8 L-82.85 584.7 M-67.25 635.8 Q-63.65 644.35 -62.2 652.55 L-62.25 652.45 Q-64.3 650.55 -66.8 649.95 -67.2 648.3 -67.75 646.75 -69.85 640.85 -72.45 635.35 -70.8 635.05 -69.0 635.4 L-67.25 635.8 M-61.3 662.65 Q-61.25 672.8 -64.8 682.25 -66.25 680.15 -68.6 679.05 -66.5 671.45 -65.8 663.85 L-65.6 660.35 Q-63.9 660.8 -62.3 661.9 L-61.3 662.65 M-69.65 692.65 Q-72.8 698.7 -77.75 707.0 -77.6 705.5 -78.35 704.4 L-79.3 703.2 Q-76.9 699.4 -74.8 695.3 -73.35 692.5 -72.1 689.3 -70.2 690.6 -69.65 692.65 M-83.05 715.7 L-89.6 726.1 -93.85 732.65 Q-94.7 730.1 -96.1 728.25 L-94.6 726.1 -91.8 721.65 Q-88.8 716.45 -85.3 711.65 -83.35 713.2 -83.05 715.7 M-99.75 741.25 L-100.8 742.6 Q-104.2 747.15 -106.25 752.0 -107.3 750.0 -109.1 748.65 L-109.0 748.4 Q-107.95 745.4 -106.45 742.6 -104.7 739.3 -102.35 736.25 -100.75 737.85 -100.0 740.2 L-99.75 741.25 M-109.25 763.0 L-109.4 764.5 Q-110.15 772.65 -107.8 781.65 L-108.15 781.05 -106.45 787.5 -106.4 787.55 -105.7 787.55 Q-104.55 791.6 -103.2 794.75 L-100.55 799.65 Q-98.5 802.7 -96.1 804.2 L-93.4 809.7 -95.45 806.6 Q-96.5 804.9 -97.4 804.1 -99.55 803.4 -101.65 803.6 L-106.65 794.6 Q-108.3 791.75 -109.15 788.55 -108.5 788.8 -107.9 789.15 -106.4 790.0 -105.0 791.05 -106.85 787.25 -107.85 782.75 -108.25 780.75 -108.85 779.7 -110.5 778.5 -112.3 778.0 -113.5 770.8 -112.75 764.5 L-112.75 764.2 -112.0 759.5 Q-111.05 760.65 -110.4 762.15 L-110.15 762.7 -109.25 763.0 M-91.95 813.0 Q-88.55 821.4 -87.15 829.35 -89.2 827.65 -91.6 827.15 -92.1 825.15 -92.75 823.25 -94.7 817.75 -97.05 812.7 -95.35 812.35 -93.45 812.7 L-91.95 813.0 M-86.3 839.55 Q-86.3 850.75 -90.8 861.1 -92.4 865.0 -95.4 870.6 L-94.9 870.9 -95.15 871.35 -97.45 875.4 Q-99.6 881.15 -101.8 885.3 L-104.2 885.15 Q-109.6 882.1 -108.45 874.4 L-107.8 871.05 -107.65 870.5 Q-106.9 868.05 -105.7 865.75 L-105.5 865.35 -104.8 865.7 Q-102.6 861.65 -100.85 857.75 L-100.3 856.35 -99.1 852.9 Q-98.6 851.1 -98.25 849.2 -97.7 846.0 -97.6 842.55 L-97.6 841.25 -97.6 839.3 Q-96.7 838.4 -95.4 837.95 L-95.8 842.6 -96.95 849.5 -97.8 853.2 -99.3 858.5 Q-100.7 862.9 -102.45 866.95 L-102.2 867.1 -102.35 867.55 -103.0 871.05 Q-103.1 872.85 -102.8 874.7 -101.85 880.95 -97.0 872.6 L-96.1 871.05 -96.0 870.9 -95.8 870.4 -98.45 869.05 Q-95.95 863.45 -93.95 856.65 -91.55 848.5 -90.8 840.35 L-90.6 837.55 Q-88.6 837.9 -86.75 839.2 L-86.3 839.55 M-82.2 628.15 L-83.9 629.7 -89.45 620.8 Q-91.8 616.95 -92.55 611.85 -91.9 611.3 -90.9 611.0 L-88.3 610.6 Q-87.4 615.65 -85.7 620.45 -84.35 624.3 -82.2 628.15 M-76.5 637.2 Q-73.65 642.1 -72.1 647.45 L-71.75 648.85 -71.5 649.85 Q-72.9 650.1 -74.05 650.8 L-74.75 648.2 Q-76.15 643.25 -78.25 639.0 L-76.5 637.2 M-74.65 678.2 L-74.1 676.4 -73.25 672.7 Q-72.7 669.5 -72.6 666.05 L-72.6 664.75 -72.65 661.55 Q-71.7 660.8 -70.4 660.45 -70.45 663.25 -70.8 666.1 -71.25 669.55 -71.95 673.0 L-72.8 676.7 -73.15 678.05 -74.65 678.2 M-79.0 687.7 L-76.3 687.65 Q-78.25 692.55 -80.7 697.05 L-82.9 700.85 Q-83.5 700.6 -84.15 700.45 L-86.65 700.1 -82.55 693.85 -79.0 687.7 M-94.0 710.05 L-89.1 709.85 -89.4 710.25 Q-94.65 717.0 -98.9 722.95 L-100.25 724.9 -102.15 724.3 -100.8 721.85 -99.65 719.6 Q-97.15 714.6 -94.0 710.05 M-106.35 733.95 L-107.8 736.15 -111.5 742.6 -113.45 746.6 -116.05 746.5 -113.85 742.6 -109.2 735.25 -109.2 735.2 -108.15 733.7 -106.35 733.95 M-120.35 778.85 Q-121.25 775.35 -121.35 771.45 -121.5 768.25 -121.15 764.5 L-120.85 761.45 -120.55 759.05 -120.1 756.65 -117.1 756.55 -117.75 759.05 -118.65 764.5 -118.95 767.95 Q-119.25 772.55 -118.75 776.9 L-118.6 778.1 -120.35 778.85 M-117.35 789.5 Q-116.65 788.65 -115.35 788.3 L-113.15 787.9 Q-112.25 792.55 -110.7 796.95 -109.2 801.2 -106.7 805.5 L-108.4 807.05 -114.45 797.3 Q-116.5 793.9 -117.35 789.5 M-98.85 828.3 L-99.75 824.7 Q-101.0 820.3 -102.8 816.4 -102.2 815.35 -101.05 814.5 -98.55 819.05 -97.1 823.95 L-96.75 825.35 -96.3 827.25 Q-97.65 827.55 -98.85 828.3" fill="#a8b38c" fill-rule="evenodd" stroke="none"/>
    <path d="M-90.4 571.1 Q-89.65 569.6 -88.2 569.9 -86.85 570.2 -86.55 571.95 -86.3 573.7 -87.55 576.2 -88.8 578.7 -89.65 579.4 -90.55 580.1 -90.95 578.65 L-91.65 576.15 Q-91.95 575.05 -91.55 573.85 L-90.4 571.1 M-78.6 553.15 L-77.6 551.25 Q-77.0 550.2 -76.0 550.55 -75.05 550.85 -74.95 552.15 -74.9 553.4 -75.95 555.15 L-77.65 557.3 Q-78.3 557.7 -78.5 556.65 L-78.85 554.8 Q-79.0 554.0 -78.6 553.15 M-76.9 636.1 L-77.2 636.0 -79.4 635.3 Q-80.4 634.95 -81.2 633.9 L-81.3 633.8 -82.85 631.45 -82.9 631.3 Q-83.65 629.95 -82.65 629.0 L-81.95 628.55 -79.95 628.75 Q-78.35 629.45 -77.0 631.9 -75.65 634.35 -75.55 635.45 -75.45 636.5 -76.9 636.1 M-69.45 651.25 Q-68.35 652.6 -68.1 655.4 -67.9 658.2 -68.25 659.2 -68.65 660.2 -69.75 659.2 L-70.4 658.65 -71.7 657.45 Q-72.45 656.7 -72.75 655.45 L-73.2 652.5 Q-73.35 650.8 -72.0 650.35 L-71.4 650.2 Q-70.4 650.15 -69.45 651.25 M-67.5 680.1 Q-66.4 680.95 -67.05 682.5 L-68.4 685.2 Q-69.05 686.3 -70.05 686.75 L-71.3 687.35 -72.4 687.85 Q-73.8 688.4 -73.85 687.35 -73.9 686.2 -72.8 683.65 -71.75 681.05 -70.2 680.15 -69.45 679.7 -68.8 679.7 -68.1 679.65 -67.5 680.1 M-94.3 601.35 Q-93.05 600.75 -91.7 602.0 -90.4 603.2 -89.9 605.95 -89.4 608.7 -89.65 609.75 -89.95 610.8 -91.15 609.95 L-92.7 608.85 -93.15 608.45 -93.25 608.4 Q-94.15 607.7 -94.55 606.5 L-95.3 603.6 Q-95.6 601.95 -94.3 601.35 M-83.7 702.15 Q-82.25 701.3 -81.15 702.15 -80.0 703.05 -80.65 704.6 L-81.9 707.05 -82.0 707.25 -82.6 708.0 -83.65 708.8 -86.05 709.9 Q-87.4 710.45 -87.45 709.4 -87.5 708.5 -86.8 706.7 L-86.4 705.7 Q-85.3 703.1 -83.8 702.2 L-83.7 702.15 M-104.5 728.7 L-103.1 726.1 Q-102.2 724.65 -100.85 725.1 L-100.5 725.25 Q-99.45 725.75 -99.35 727.35 -99.25 729.1 -100.75 731.45 -102.25 733.8 -103.15 734.4 -104.1 735.0 -104.4 733.55 L-104.75 731.5 -104.85 730.95 Q-105.05 729.9 -104.5 728.7 M-113.75 747.3 L-112.65 747.2 Q-111.3 747.5 -111.0 749.25 -110.75 751.0 -112.0 753.5 -113.25 756.0 -114.1 756.7 -115.0 757.4 -115.4 755.95 L-116.1 753.45 -116.15 753.35 Q-116.4 752.3 -116.0 751.15 L-114.85 748.4 Q-114.4 747.55 -113.75 747.3 M-118.75 778.65 L-118.5 778.55 Q-117.35 778.15 -116.15 779.3 -114.85 780.5 -114.35 783.25 -113.85 786.0 -114.1 787.05 L-114.4 787.55 -115.2 787.5 -115.6 787.25 -116.7 786.45 -117.7 785.7 Q-118.6 785.0 -119.0 783.8 L-119.75 780.9 Q-120.05 779.25 -118.75 778.65 M-104.4 806.05 Q-102.8 806.75 -101.45 809.2 -100.1 811.65 -100.0 812.75 -99.9 813.8 -101.35 813.4 L-101.75 813.3 -103.85 812.6 Q-104.85 812.25 -105.65 811.2 L-105.9 810.9 -107.2 808.9 -107.3 808.75 Q-108.15 807.3 -107.1 806.3 L-106.5 805.9 -104.4 806.05 M-96.45 827.65 L-96.25 827.6 Q-95.0 827.25 -93.9 828.55 -92.8 829.9 -92.55 832.7 -92.35 835.5 -92.7 836.5 -93.1 837.5 -94.2 836.5 L-95.4 835.45 -96.15 834.75 Q-96.9 834.0 -97.2 832.75 L-97.65 829.8 Q-97.8 828.1 -96.45 827.65" fill="#ab8458" fill-rule="evenodd" stroke="none"/>
    <path d="M-77.1 626.3 L-79.8 626.9 Q-81.15 627.4 -82.2 628.15 -84.35 624.3 -85.7 620.45 -87.4 615.65 -88.3 610.6 -86.25 610.5 -84.3 611.4 -83.45 614.95 -81.65 618.1 L-77.1 626.3 M-76.5 637.2 L-76.3 637.0 Q-74.5 635.7 -72.45 635.35 -69.85 640.85 -67.75 646.75 -67.2 648.3 -66.8 649.95 L-68.55 649.65 -71.5 649.85 -71.75 648.85 -72.1 647.45 Q-73.65 642.1 -76.5 637.2 M-73.15 678.05 L-72.8 676.7 -71.95 673.0 Q-71.25 669.55 -70.8 666.1 -70.45 663.25 -70.4 660.45 L-69.6 660.3 Q-67.55 659.9 -65.6 660.35 L-65.8 663.85 Q-66.5 671.45 -68.6 679.05 L-70.55 678.4 -73.15 678.05 M-82.9 700.85 L-80.7 697.05 Q-78.25 692.55 -76.3 687.65 -74.55 687.9 -72.9 688.8 L-72.1 689.3 Q-73.35 692.5 -74.8 695.3 -76.9 699.4 -79.3 703.2 -80.75 701.65 -82.9 700.85 M-89.1 709.85 Q-87.8 710.1 -86.5 710.85 L-85.3 711.65 Q-88.8 716.45 -91.8 721.65 L-94.6 726.1 -96.1 728.25 Q-96.8 727.35 -97.65 726.6 -98.95 725.5 -100.25 724.9 L-98.9 722.95 Q-94.65 717.0 -89.4 710.25 L-89.1 709.85 M-106.35 733.95 Q-105.65 734.1 -104.9 734.5 -103.45 735.2 -102.35 736.25 -104.7 739.3 -106.45 742.6 -107.95 745.4 -109.0 748.4 L-109.1 748.65 -109.4 748.4 Q-111.35 747.0 -113.45 746.6 L-111.5 742.6 -107.8 736.15 -106.35 733.95 M-117.1 756.55 L-115.8 756.95 Q-113.55 757.8 -112.0 759.5 L-112.75 764.2 -112.75 764.5 Q-113.5 770.8 -112.3 778.0 L-115.4 777.6 -118.6 778.1 -118.75 776.9 Q-119.25 772.55 -118.95 767.95 L-118.65 764.5 -117.75 759.05 -117.1 756.55 M-109.15 788.55 Q-108.3 791.75 -106.65 794.6 L-101.65 803.6 Q-103.0 803.7 -104.25 804.2 L-106.7 805.5 Q-109.2 801.2 -110.7 796.95 -112.25 792.55 -113.15 787.9 -111.1 787.75 -109.15 788.55 M-101.05 814.5 L-100.75 814.3 Q-99.0 813.05 -97.05 812.7 -94.7 817.75 -92.75 823.25 -92.1 825.15 -91.6 827.15 L-93.0 826.95 -96.3 827.25 -96.75 825.35 -97.1 823.95 Q-98.55 819.05 -101.05 814.5 M-95.4 837.95 L-94.05 837.6 Q-92.3 837.25 -90.6 837.55 L-90.8 840.35 Q-91.55 848.5 -93.95 856.65 -95.95 863.45 -98.45 869.05 L-95.8 870.4 -96.0 870.9 -96.1 871.05 -97.0 872.6 Q-101.85 880.95 -102.8 874.7 -103.1 872.85 -103.0 871.05 L-102.35 867.55 -102.2 867.1 -102.45 866.95 Q-100.7 862.9 -99.3 858.5 L-97.8 853.2 -96.95 849.5 -95.8 842.6 -95.4 837.95" fill="#c6cdb4" fill-rule="evenodd" stroke="none"/>
    <path d="M-101.8 885.3 Q-106.1 893.5 -110.5 895.35 -114.8 897.2 -118.05 892.95 -121.45 889.4 -113.35 873.2 L-111.4 871.05 -108.0 865.65 -107.25 864.45 Q-100.05 852.15 -99.85 839.75 L-99.15 841.75 Q-98.6 840.25 -97.6 839.3 L-97.6 841.25 -97.6 842.55 Q-97.7 846.0 -98.25 849.2 -98.6 851.1 -99.1 852.9 L-100.3 856.35 -100.85 857.75 Q-102.6 861.65 -104.8 865.7 L-105.5 865.35 -105.7 865.75 Q-106.9 868.05 -107.65 870.5 L-107.8 871.05 -108.45 874.4 Q-109.6 882.1 -104.2 885.15 L-101.8 885.3 M-101.3 832.2 Q-104.6 821.85 -106.95 816.5 L-104.05 819.8 -103.6 820.2 Q-103.8 818.05 -102.8 816.4 -101.0 820.3 -99.75 824.7 L-98.85 828.3 Q-99.35 828.55 -99.75 828.95 -100.4 829.4 -100.75 830.1 -101.25 830.95 -101.3 832.2 M-109.75 812.0 Q-117.05 801.95 -120.45 788.9 L-118.8 792.8 -118.15 794.35 Q-118.8 791.1 -117.35 789.5 -116.5 793.9 -114.45 797.3 L-108.4 807.05 -109.6 808.85 -109.95 809.85 -109.8 811.7 -110.05 811.45 -109.75 812.0 M-122.55 781.35 Q-124.3 773.05 -123.25 764.5 L-122.3 759.05 -121.95 757.55 Q-121.05 756.9 -120.1 756.65 L-120.55 759.05 -120.85 761.45 -121.15 764.5 Q-121.5 768.25 -121.35 771.45 -121.25 775.35 -120.35 778.85 -121.0 779.2 -121.5 779.7 -122.3 780.4 -122.55 781.35 M-118.75 747.95 L-116.3 742.6 -112.9 736.45 -111.1 733.65 -111.45 734.8 Q-109.9 733.7 -108.15 733.7 L-109.2 735.2 -109.2 735.25 -113.85 742.6 -116.05 746.5 -116.2 746.55 Q-117.65 746.7 -118.75 747.95 M-105.15 724.25 L-96.9 711.2 -94.0 710.05 Q-97.15 714.6 -99.65 719.6 L-100.8 721.85 -102.15 724.3 -104.3 724.1 -105.15 724.25 M-90.35 700.8 L-83.0 689.15 -82.85 688.95 -80.4 688.05 -79.0 687.7 -82.55 693.85 -86.65 700.1 Q-88.5 700.1 -90.35 700.8 M-79.3 682.3 Q-75.15 673.2 -74.85 664.0 L-74.7 664.45 Q-74.05 662.6 -72.65 661.55 L-72.6 664.75 -72.6 666.05 Q-72.7 669.5 -73.25 672.7 L-74.1 676.4 -74.65 678.2 Q-76.05 678.4 -77.4 679.05 -78.2 679.95 -79.05 681.75 L-79.3 682.3 M-76.0 652.35 Q-77.1 647.6 -79.2 642.85 L-79.15 642.9 Q-79.35 640.65 -78.25 639.0 -76.15 643.25 -74.75 648.2 L-74.05 650.8 -75.3 651.65 -76.0 652.35 M-85.5 632.7 L-86.25 631.75 Q-90.9 625.75 -93.85 616.15 -94.15 613.2 -92.55 611.85 -91.8 616.95 -89.45 620.8 L-83.9 629.7 -85.15 631.55 -85.5 632.7 M-109.95 809.85 Q-115.45 803.6 -118.8 792.8 -115.45 803.6 -109.95 809.85 M-100.75 830.1 Q-101.8 824.95 -104.05 819.8 -101.8 824.95 -100.75 830.1 M-107.25 864.45 L-107.35 864.9 -109.4 868.85 -111.4 871.05 -109.4 868.85 -107.35 864.9 -107.25 864.45 M-112.1 880.6 Q-112.6 880.35 -113.35 881.15 -114.15 881.95 -114.75 883.35 -115.4 884.7 -115.5 885.75 L-115.35 886.95 -115.05 887.2 Q-114.65 887.4 -113.85 886.6 L-112.95 885.45 -112.45 884.5 Q-111.85 883.1 -111.7 881.95 -111.65 880.8 -112.1 880.6" fill="#899865" fill-rule="evenodd" stroke="none"/>
    <path d="M-112.1 880.6 Q-111.65 880.8 -111.7 881.95 -111.85 883.1 -112.45 884.5 L-112.95 885.45 -113.85 886.6 Q-114.65 887.4 -115.05 887.2 L-115.35 886.95 -115.5 885.75 Q-115.4 884.7 -114.75 883.35 -114.15 881.95 -113.35 881.15 -112.6 880.35 -112.1 880.6" fill="url(#gradient0)" fill-rule="evenodd" stroke="none"/>
    <path d="M-74.7 559.4 L-72.2 554.75 Q-64.85 541.65 -52.35 524.5 -68.95 539.05 -78.7 549.85 M-82.6 554.25 L-84.55 556.7 M-92.05 569.2 L-91.7 568.3 Q-90.05 563.8 -85.25 557.6 M-81.4 575.65 Q-79.55 568.65 -74.7 559.4 M-82.85 584.7 Q-84.35 599.2 -81.3 606.65 M-81.8 606.65 Q-77.95 623.4 -71.1 627.7 L-69.05 631.75 -68.5 633.0 M-67.25 635.8 Q-63.65 644.35 -62.2 652.55 M-61.3 662.65 Q-61.25 672.8 -64.8 682.25 M-69.65 692.65 Q-72.8 698.7 -77.75 707.0 M-83.05 715.7 L-89.6 726.1 -93.85 732.65 M-99.75 741.25 L-100.8 742.6 Q-104.2 747.15 -106.25 752.0 M-109.25 763.0 L-109.4 764.5 Q-110.15 772.65 -107.8 781.65 M-108.15 781.05 L-106.45 787.5 -106.4 787.55 M-105.7 787.55 Q-104.55 791.6 -103.2 794.75 L-100.55 799.65 Q-98.5 802.7 -96.1 804.2 L-93.4 809.7 M-91.95 813.0 Q-88.55 821.4 -87.15 829.35 M-86.3 839.55 Q-86.3 850.75 -90.8 861.1 -92.4 865.0 -95.4 870.6 M-94.9 870.9 L-95.15 871.35 -97.45 875.4 Q-99.6 881.15 -101.8 885.3 -106.1 893.5 -110.5 895.35 -114.8 897.2 -118.05 892.95 -121.45 889.4 -113.35 873.2 L-111.4 871.05 -109.4 868.85 -107.35 864.9 -107.25 864.45 M-101.3 832.2 Q-104.6 821.85 -106.95 816.5 M-109.75 812.0 Q-117.05 801.95 -120.45 788.9 M-122.55 781.35 Q-124.3 773.05 -123.25 764.5 L-122.3 759.05 -121.95 757.55 M-118.75 747.95 L-116.3 742.6 -112.9 736.45 -111.1 733.65 M-105.15 724.25 L-96.9 711.2 M-95.35 708.7 L-95.05 708.25 M-90.35 700.8 L-83.0 689.15 -82.85 688.95 M-79.55 682.8 L-79.3 682.3 Q-75.15 673.2 -74.85 664.0 M-76.0 652.35 Q-77.1 647.6 -79.2 642.85 M-85.5 632.7 L-86.25 631.75 Q-90.9 625.75 -93.85 616.15 M-97.55 602.9 Q-99.35 592.85 -98.35 588.45 -97.35 583.85 -94.35 575.4 M-110.05 811.45 L-109.8 811.7" fill="none" stroke="#5f6150" stroke-linecap="round" stroke-linejoin="round" stroke-width="1.0"/>
    <path d="M-111.4 871.05 L-108.0 865.65 -107.25 864.45 Q-100.05 852.15 -99.85 839.75 M-118.8 792.8 Q-115.45 803.6 -109.95 809.85 M-104.05 819.8 Q-101.8 824.95 -100.75 830.1" fill="none" stroke="#5f6150" stroke-linecap="round" stroke-linejoin="round" stroke-width="1.0"/>
  </g>
  <defs>
    <radialGradient cx="0" cy="0" gradientTransform="matrix(-0.0018, -8.0E-4, 0.0026, -0.0052, -113.6, 884.1)" gradientUnits="userSpaceOnUse" id="gradient0" r="819.2" spreadMethod="pad">
      <stop offset="0.0" stop-color="#ffffff"/>
      <stop offset="0.6705882352941176" stop-color="#000000"/>
    </radialGradient>
  </defs>
</svg>
