<?xml version="1.0" encoding="UTF-8" standalone="no"?>
<svg xmlns:xlink="http://www.w3.org/1999/xlink" height="424.6px" width="85.9px" xmlns="http://www.w3.org/2000/svg">
  <g transform="matrix(1.0, 0.0, 0.0, 1.0, 145.95, -524.95)">
    <path d="M-85.3 566.9 Q-85.5 565.85 -86.4 565.75 -87.3 565.65 -87.85 566.65 -88.35 567.65 -88.1 569.45 -87.85 571.2 -87.45 571.8 -87.1 572.4 -86.5 571.6 L-85.6 570.2 Q-85.2 569.65 -85.2 568.8 L-85.3 566.9 M-92.05 568.3 Q-90.75 566.45 -88.65 565.8 -86.2 565.05 -84.1 566.05 L-83.75 566.25 Q-82.55 567.1 -82.45 569.65 -82.4 572.05 -82.7 574.2 L-83.05 573.7 Q-84.35 572.2 -86.5 572.3 -89.05 572.4 -90.8 574.35 L-92.0 575.85 -92.15 575.85 Q-91.95 573.85 -92.05 571.7 L-92.15 570.5 -92.15 568.45 -92.05 568.3 M-93.7 598.2 L-93.9 594.3 Q-94.1 592.7 -93.9 591.75 L-93.3 591.0 Q-91.75 589.15 -89.5 588.45 -86.45 587.55 -83.8 588.8 -82.75 589.3 -82.2 590.65 -81.8 591.7 -81.75 593.25 L-81.8 596.5 -82.05 598.95 Q-83.65 596.4 -86.8 596.6 -90.05 596.7 -92.2 599.15 L-93.7 601.05 -93.85 601.05 -93.7 598.2 M-88.5 589.55 Q-89.15 590.8 -88.8 593.0 -88.5 595.2 -88.0 595.95 -87.55 596.7 -86.85 595.75 L-85.65 594.0 Q-85.2 593.25 -85.15 592.25 L-85.35 589.85 Q-85.55 588.5 -86.7 588.4 -87.85 588.25 -88.5 589.55 M-78.95 611.95 Q-77.1 612.9 -75.9 616.1 -74.9 618.85 -74.3 621.55 L-74.0 622.95 Q-75.75 621.5 -77.7 621.45 -79.1 621.4 -80.55 622.0 -81.8 622.5 -82.8 623.2 -83.9 624.0 -84.7 625.05 L-85.95 627.2 -86.35 628.3 -86.35 628.55 -88.85 624.2 -89.85 622.15 -90.4 621.05 Q-91.0 620.0 -91.5 619.45 L-91.3 619.0 Q-90.65 617.55 -89.8 616.4 -88.6 614.6 -86.95 613.45 L-86.5 613.15 Q-84.7 612.0 -82.8 611.65 L-80.15 611.6 -78.95 611.95 M-66.3 634.0 Q-64.1 634.65 -62.75 638.3 -61.45 641.8 -60.85 645.15 -61.8 644.35 -62.85 644.0 L-67.1 644.15 -67.35 644.25 Q-69.55 645.05 -70.95 646.6 -72.1 647.8 -72.8 649.45 L-73.0 649.95 -73.0 650.0 -74.45 650.45 Q-75.3 647.45 -76.7 644.4 -77.55 642.55 -77.7 641.35 -77.3 639.9 -76.55 638.7 L-74.85 636.55 -73.8 635.7 Q-72.5 634.75 -71.1 634.3 -69.1 633.55 -66.95 633.85 L-66.3 634.0 M-61.0 667.8 Q-59.85 669.6 -61.1 672.4 L-62.95 676.7 -65.05 681.65 Q-64.1 676.85 -67.6 675.7 L-67.85 675.6 -72.3 675.35 -73.9 675.8 -75.3 676.45 Q-76.55 677.15 -77.7 678.0 L-78.15 678.35 Q-76.35 674.55 -75.35 670.05 L-74.75 668.0 -74.3 667.0 Q-73.2 666.15 -71.95 665.65 L-70.2 665.15 -67.75 664.9 -65.45 665.2 Q-63.15 665.65 -61.65 667.0 L-61.0 667.8 M-73.2 698.2 Q-73.4 699.95 -74.95 702.15 L-77.05 704.8 -79.6 707.5 Q-79.4 705.35 -80.4 703.7 -81.1 702.5 -82.45 701.6 -83.05 701.2 -83.6 700.9 -85.35 699.95 -87.3 699.85 L-89.75 700.0 -90.65 700.15 -93.1 700.9 Q-90.15 697.85 -87.7 693.9 -86.7 692.2 -85.8 691.4 L-84.95 691.15 -81.4 690.9 -78.9 691.5 -78.35 691.75 Q-76.15 692.7 -74.75 694.4 -74.1 695.15 -73.6 696.15 -73.1 697.1 -73.2 698.2 M-89.35 724.55 L-89.6 725.05 Q-90.95 727.35 -92.45 729.35 L-93.65 730.9 Q-93.7 728.1 -95.6 726.35 -96.25 725.75 -97.1 725.3 -98.8 724.35 -100.55 724.1 -101.55 723.95 -102.6 724.1 L-104.55 724.45 -106.4 725.1 -107.8 725.7 Q-105.2 722.35 -103.2 718.2 -102.35 716.4 -101.5 715.5 L-99.95 714.95 -97.45 714.55 -94.65 714.9 -94.05 715.05 Q-91.6 715.85 -90.0 717.55 L-88.9 718.95 Q-87.5 721.05 -89.35 724.55 M-104.95 748.4 Q-104.9 750.05 -106.1 752.45 L-107.4 755.1 -109.4 759.75 Q-109.4 757.25 -110.95 755.6 L-112.85 754.15 Q-114.4 753.25 -116.0 753.0 -117.5 752.75 -119.05 753.0 L-120.3 753.3 -120.7 753.45 Q-121.85 753.9 -122.25 754.8 L-118.95 747.05 -117.65 744.8 -117.25 744.35 Q-116.1 743.8 -114.95 743.6 L-112.3 743.4 -110.4 743.75 Q-108.85 744.15 -107.75 744.7 -106.1 745.55 -105.4 746.7 -104.95 747.45 -104.95 748.4 M-107.0 780.3 L-106.7 780.95 Q-106.1 781.9 -105.6 783.2 L-104.3 787.4 -103.7 790.05 Q-104.2 789.6 -104.75 789.35 L-104.2 791.35 Q-105.55 789.55 -107.45 789.05 L-109.5 788.85 -110.25 789.1 -111.45 789.65 Q-113.6 790.8 -114.85 792.8 L-115.65 794.3 -116.05 795.65 -116.45 795.05 -117.3 793.65 -117.4 793.9 -117.45 795.1 -118.35 791.7 -119.55 789.25 Q-120.45 787.4 -121.2 786.55 L-120.3 784.7 -119.75 783.8 -119.75 783.75 -118.3 781.7 -116.95 780.5 Q-115.9 779.65 -114.6 779.15 -112.6 778.35 -111.05 778.25 L-108.8 778.55 Q-107.75 778.95 -107.0 780.3 M-96.65 800.95 Q-94.0 801.25 -92.45 805.4 -91.15 808.9 -90.55 812.25 L-90.6 812.2 Q-93.05 810.25 -96.0 811.0 L-97.05 811.35 Q-98.65 811.95 -99.9 812.95 L-101.65 815.0 -102.5 816.55 -102.7 817.1 -103.35 817.3 -104.15 817.55 Q-105.0 814.55 -106.4 811.5 L-106.8 810.5 -107.4 808.45 -106.6 806.35 -105.25 804.4 -103.5 802.8 Q-102.2 801.9 -100.85 801.4 -98.85 800.65 -96.65 800.95 M-85.55 837.6 Q-83.9 839.5 -85.3 842.65 L-86.0 844.25 -87.25 847.25 -89.25 851.9 Q-88.3 847.0 -91.9 845.9 L-92.05 845.85 -96.65 845.6 Q-97.5 845.75 -98.35 846.15 L-99.5 846.7 -101.05 847.65 -102.35 848.6 Q-100.55 844.8 -99.55 840.3 L-99.1 838.7 -98.5 837.25 -96.9 836.25 Q-95.8 835.7 -94.65 835.45 L-91.95 835.15 -89.9 835.4 Q-87.4 835.85 -85.85 837.25 L-85.55 837.6 M-97.45 874.45 Q-97.35 876.4 -99.2 879.0 L-102.05 882.5 -103.85 884.35 Q-103.65 882.2 -104.65 880.55 -105.4 879.35 -106.7 878.45 L-107.95 877.7 Q-109.65 876.8 -111.45 876.7 L-114.0 876.85 -115.05 877.05 -117.35 877.75 Q-114.4 874.7 -111.95 870.75 L-110.55 868.75 -110.05 868.25 -109.35 868.05 -105.9 867.75 -103.15 868.35 Q-100.85 869.25 -99.35 870.85 -98.45 871.8 -97.85 873.0 -97.5 873.65 -97.45 874.45 M-113.9 901.8 Q-114.25 902.85 -114.95 904.1 -116.85 907.3 -119.0 909.95 L-119.0 909.65 Q-119.1 906.95 -121.1 905.25 -121.7 904.75 -122.45 904.35 -124.3 903.3 -126.25 903.15 L-128.4 903.2 -129.9 903.5 Q-131.15 903.85 -132.3 904.35 L-133.15 904.75 Q-130.55 901.4 -128.55 897.25 -127.7 895.45 -126.85 894.55 L-125.85 894.15 -123.3 893.65 -120.0 893.95 -119.65 894.05 Q-117.25 894.75 -115.6 896.35 -114.85 897.05 -114.25 898.0 -113.25 899.5 -113.9 901.8 M-80.15 617.15 L-80.35 616.2 Q-80.75 614.95 -81.5 613.45 -81.95 612.65 -82.55 612.35 L-83.65 612.25 Q-85.1 612.55 -85.35 614.35 -85.65 616.1 -84.35 618.6 -83.1 621.1 -82.25 621.75 -81.4 622.45 -80.95 621.0 L-80.25 618.5 Q-80.05 617.85 -80.15 617.15 M-70.95 634.65 Q-71.95 635.1 -72.2 636.55 -72.45 638.3 -71.2 640.8 -69.95 643.3 -69.05 644.0 -68.2 644.7 -67.75 643.25 L-67.6 642.75 -67.05 640.75 Q-66.8 639.65 -67.2 638.45 -67.6 637.2 -68.35 635.7 -69.1 634.2 -70.5 634.5 L-70.95 634.65 M-63.45 668.2 Q-63.15 666.55 -64.4 665.95 L-65.55 665.8 Q-66.3 665.85 -67.0 666.6 -68.35 667.8 -68.85 670.55 -69.35 673.3 -69.05 674.35 -68.8 675.4 -67.55 674.55 L-67.2 674.3 -65.45 673.0 Q-64.6 672.3 -64.2 671.1 L-63.45 668.2 M-95.1 602.65 L-95.4 603.05 -95.35 602.65 -95.1 602.65 M-81.75 696.5 Q-83.1 698.95 -83.2 700.05 L-83.2 700.2 Q-83.15 701.1 -81.85 700.7 L-79.35 699.9 Q-78.35 699.55 -77.55 698.5 L-75.9 696.05 Q-75.05 694.6 -76.1 693.6 -77.15 692.6 -78.75 693.35 L-79.35 693.65 Q-80.65 694.5 -81.75 696.5 M-91.65 716.65 Q-92.8 715.75 -94.3 716.65 -95.85 717.55 -96.95 720.15 -98.05 722.75 -98.0 723.85 -98.0 724.9 -96.6 724.35 L-94.2 723.25 Q-93.25 722.8 -92.55 721.7 L-91.15 719.05 Q-90.5 717.5 -91.65 716.65 M-106.9 747.9 Q-106.25 746.35 -107.4 745.5 L-107.9 745.2 Q-108.9 744.8 -110.05 745.5 -111.6 746.4 -112.7 749.0 -113.8 751.6 -113.75 752.7 -113.75 753.75 -112.35 753.2 L-110.15 752.2 -109.95 752.1 Q-109.0 751.65 -108.3 750.55 L-106.9 747.9 M-112.6 779.35 L-113.35 779.35 Q-114.8 779.65 -115.05 781.45 -115.3 783.0 -114.3 785.2 L-114.05 785.7 Q-112.8 788.2 -111.95 788.85 L-111.65 789.05 Q-111.0 789.25 -110.65 788.1 L-110.6 788.05 -109.95 785.6 Q-109.65 784.55 -110.05 783.3 -110.45 782.05 -111.2 780.55 -111.75 779.5 -112.6 779.35 M-100.2 801.6 L-100.65 801.75 Q-101.65 802.2 -101.9 803.65 -102.15 805.4 -100.9 807.9 -99.65 810.4 -98.75 811.1 -97.9 811.8 -97.45 810.35 L-97.0 808.85 -96.75 807.85 Q-96.5 806.75 -96.9 805.55 -97.3 804.3 -98.05 802.8 -98.8 801.3 -100.2 801.6 M-91.2 836.85 Q-92.55 838.05 -93.05 840.8 -93.55 843.55 -93.25 844.6 -93.0 845.65 -91.75 844.8 L-91.4 844.55 -90.8 844.15 -89.65 843.25 Q-88.8 842.55 -88.4 841.35 L-87.65 838.45 Q-87.35 836.8 -88.6 836.2 L-89.9 836.05 Q-90.55 836.2 -91.2 836.85 M-103.0 870.2 L-104.45 871.25 -106.0 873.35 Q-107.3 875.65 -107.45 876.8 L-107.45 876.9 Q-107.55 877.95 -106.1 877.55 L-103.6 876.75 Q-102.6 876.4 -101.8 875.35 L-101.2 874.55 -100.15 872.9 Q-99.8 872.25 -99.75 871.75 -99.75 871.0 -100.35 870.45 -101.4 869.45 -103.0 870.2 M-117.0 895.7 Q-118.15 894.8 -119.65 895.7 -121.2 896.6 -122.3 899.2 -123.4 901.8 -123.35 902.9 -123.35 903.95 -121.95 903.4 L-119.55 902.3 -119.05 902.0 Q-118.4 901.55 -117.9 900.75 L-116.5 898.1 -116.3 897.5 Q-116.1 896.35 -117.0 895.7" fill="#443422" fill-rule="evenodd" stroke="none"/>
    <path d="M-83.75 566.25 L-84.1 566.05 Q-86.2 565.05 -88.65 565.8 -90.75 566.45 -92.05 568.3 L-92.2 562.8 -95.15 525.45 Q-86.3 544.7 -83.75 566.25 M-92.05 571.7 Q-91.95 573.85 -92.15 575.85 L-92.0 575.85 -90.8 574.35 Q-89.05 572.4 -86.5 572.3 -84.35 572.2 -83.05 573.7 L-82.75 582.8 -82.2 590.65 Q-82.75 589.3 -83.8 588.8 -86.45 587.55 -89.5 588.45 -91.75 589.15 -93.3 591.0 L-93.3 589.35 Q-92.15 581.55 -92.05 571.7 M-81.8 596.5 L-81.35 603.2 -81.3 603.2 -80.0 608.55 -78.95 611.95 -80.15 611.6 -82.8 611.65 -83.65 608.55 -84.1 606.15 -87.9 606.15 -87.5 608.55 -86.5 613.15 -86.95 613.45 Q-88.6 614.6 -89.8 616.4 -91.45 612.9 -91.95 608.55 L-92.1 607.05 -92.05 607.05 -91.85 606.15 -92.3 606.15 -94.95 606.75 -94.95 606.65 -95.3 606.8 Q-94.2 603.1 -93.7 598.2 L-93.85 601.05 -93.7 601.05 -92.2 599.15 Q-90.05 596.7 -86.8 596.6 -83.65 596.4 -82.05 598.95 L-81.8 596.5 M-74.3 621.55 Q-72.45 624.05 -70.35 625.4 -68.05 629.75 -66.3 634.0 L-66.95 633.85 Q-69.1 633.55 -71.1 634.3 L-73.35 629.7 -77.7 621.45 Q-75.75 621.5 -74.0 622.95 L-74.3 621.55 M-62.85 644.0 Q-59.5 656.4 -61.0 667.8 L-61.65 667.0 Q-63.15 665.65 -65.45 665.2 L-65.05 661.55 Q-64.25 652.4 -67.0 644.45 L-67.1 644.15 -62.85 644.0 M-62.95 676.7 Q-63.85 679.55 -65.05 682.3 -67.55 688.25 -73.2 698.2 -73.1 697.1 -73.6 696.15 -74.1 695.15 -74.75 694.4 L-74.05 693.0 Q-70.7 686.4 -68.2 677.85 L-67.6 675.7 Q-64.1 676.85 -65.05 681.65 L-62.95 676.7 M-77.05 704.8 L-81.15 711.55 -89.35 724.55 Q-87.5 721.05 -88.9 718.95 L-90.0 717.55 -86.1 711.55 -82.65 706.8 -80.4 703.7 Q-79.4 705.35 -79.6 707.5 L-77.05 704.8 M-92.45 729.35 L-97.65 737.3 -100.9 741.45 Q-103.3 744.85 -104.95 748.4 -104.95 747.45 -105.4 746.7 -106.1 745.55 -107.75 744.7 L-106.3 741.45 Q-103.85 736.5 -100.2 732.2 L-95.6 726.35 Q-93.7 728.1 -93.65 730.9 L-92.45 729.35 M-107.4 755.1 Q-108.7 759.95 -108.8 765.1 -109.0 771.95 -107.05 779.35 L-107.4 778.75 -107.0 780.3 Q-107.75 778.95 -108.8 778.55 L-111.05 778.25 Q-112.5 771.25 -112.25 765.1 L-112.0 761.9 Q-111.65 758.7 -110.95 755.6 -109.4 757.25 -109.4 759.75 L-107.4 755.1 M-104.3 787.4 L-102.45 792.45 -99.8 797.35 Q-98.35 799.55 -96.65 800.95 -98.85 800.65 -100.85 801.4 L-105.9 792.3 -107.45 789.05 Q-105.55 789.55 -104.2 791.35 L-104.75 789.35 Q-104.2 789.6 -103.7 790.05 L-104.3 787.4 M-90.6 812.2 Q-85.45 825.4 -85.55 837.6 L-85.85 837.25 Q-87.4 835.85 -89.9 835.4 L-89.9 832.1 Q-90.15 826.25 -92.0 820.95 -93.85 815.8 -96.0 811.0 -93.05 810.25 -90.6 812.2 M-86.0 844.25 Q-86.95 851.5 -89.85 858.4 L-91.4 862.3 Q-93.4 867.1 -97.45 874.45 -97.5 873.65 -97.85 873.0 -98.45 871.8 -99.35 870.85 L-98.4 868.75 -96.55 864.1 -94.55 857.85 Q-92.8 851.9 -91.9 845.9 -88.3 847.0 -89.25 851.9 L-87.25 847.25 -86.0 844.25 M-102.05 882.5 Q-107.0 890.9 -113.9 901.8 -113.25 899.5 -114.25 898.0 -114.85 897.05 -115.6 896.35 -112.55 891.35 -109.0 886.8 L-104.65 880.55 Q-103.65 882.2 -103.85 884.35 L-102.05 882.5 M-119.0 909.65 L-124.0 917.3 -126.35 920.25 -126.3 920.25 -126.45 920.7 -127.65 925.2 Q-128.3 931.3 -129.4 935.9 -130.4 936.75 -131.8 936.35 -137.8 934.65 -138.6 926.95 -138.95 923.6 -138.5 920.3 L-138.05 917.95 -138.05 917.9 -137.95 917.45 -137.8 917.55 -134.8 912.95 -134.8 912.9 -133.3 910.7 -133.25 910.65 Q-130.85 907.2 -128.8 903.8 L-128.4 903.2 -126.25 903.15 -126.7 903.8 -131.9 911.55 -133.4 913.85 -136.05 918.35 -134.35 919.1 -134.35 920.3 Q-134.2 923.2 -133.05 925.85 -130.55 931.65 -127.95 922.4 L-127.45 920.65 -127.4 920.5 -127.35 920.3 -128.15 920.3 Q-126.65 919.05 -125.5 915.5 -123.45 909.25 -121.1 905.25 -119.1 906.95 -119.0 909.65 M-74.85 636.55 L-76.55 638.7 Q-78.0 635.45 -79.8 632.6 L-80.25 631.9 -80.3 631.85 -84.7 625.05 Q-83.9 624.0 -82.8 623.2 -81.0 626.95 -78.45 630.7 L-77.95 631.45 -77.9 631.5 Q-76.2 633.95 -74.85 636.55 M-73.0 650.0 L-73.0 649.95 -72.8 649.45 Q-72.1 647.8 -70.95 646.6 -68.9 654.9 -70.05 663.8 L-70.2 665.15 -71.95 665.65 -71.85 663.75 -71.85 662.45 Q-71.85 655.75 -73.0 650.0 M-72.3 675.35 L-73.55 679.7 Q-75.55 686.05 -78.35 691.75 L-78.9 691.5 -81.4 690.9 Q-77.65 684.75 -75.1 678.95 L-74.55 677.55 -73.9 675.8 -72.3 675.35 M-97.45 714.55 L-95.7 711.55 Q-93.3 707.55 -90.4 703.9 L-87.3 699.85 Q-85.35 699.95 -83.6 700.9 L-88.65 707.95 -91.45 711.55 -94.05 715.05 -94.65 714.9 -97.45 714.55 M-114.95 743.6 L-113.75 741.45 Q-111.3 737.1 -108.45 732.95 L-108.45 732.9 -106.95 730.7 -106.9 730.65 -102.6 724.1 Q-101.55 723.95 -100.55 724.1 L-105.55 731.55 -107.05 733.85 Q-109.4 737.55 -111.35 741.45 L-112.3 743.4 -114.95 743.6 M-116.0 753.0 Q-117.75 758.8 -118.15 765.1 L-118.2 765.65 Q-118.5 770.25 -118.0 774.6 -117.65 777.6 -116.95 780.5 L-118.3 781.7 -118.8 781.0 Q-118.95 779.15 -119.35 777.55 -120.45 773.6 -120.6 769.15 L-120.6 765.1 -120.1 759.15 Q-119.7 755.45 -119.05 753.0 -117.5 752.75 -116.0 753.0 M-111.45 789.65 L-109.95 794.65 Q-108.25 799.5 -105.25 804.4 L-106.6 806.35 -113.7 795.0 -114.85 792.8 Q-113.6 790.8 -111.45 789.65 M-99.9 812.95 Q-97.65 817.15 -96.35 821.65 L-96.0 823.05 Q-94.9 827.5 -94.65 832.1 L-94.65 835.45 Q-95.8 835.7 -96.9 836.25 L-97.15 832.1 Q-97.7 826.95 -99.0 822.4 -100.1 818.5 -101.65 815.0 L-99.9 812.95 M-89.85 858.4 Q-88.0 852.9 -87.25 847.25 -88.0 852.9 -89.85 858.4 M-96.65 845.6 L-97.55 850.7 -98.4 854.4 -99.9 859.7 -101.05 863.15 -103.15 868.35 -105.9 867.75 Q-103.35 863.25 -101.45 858.95 L-100.9 857.55 -100.15 855.5 -100.1 855.45 -99.7 854.1 Q-99.2 852.3 -98.85 850.4 L-98.35 846.15 Q-97.5 845.75 -96.65 845.6 M-107.95 877.7 Q-111.0 882.7 -115.0 887.95 L-119.65 894.05 -120.0 893.95 -123.3 893.65 Q-120.4 888.5 -116.75 883.9 -114.05 880.5 -111.45 876.7 -109.65 876.8 -107.95 877.7" fill="#a8b38c" fill-rule="evenodd" stroke="none"/>
    <path d="M-85.3 566.9 L-85.2 568.8 Q-85.2 569.65 -85.6 570.2 L-86.5 571.6 Q-87.1 572.4 -87.45 571.8 -87.85 571.2 -88.1 569.45 -88.35 567.65 -87.85 566.65 -87.3 565.65 -86.4 565.75 -85.5 565.85 -85.3 566.9 M-88.5 589.55 Q-87.85 588.25 -86.7 588.4 -85.55 588.5 -85.35 589.85 L-85.15 592.25 Q-85.2 593.25 -85.65 594.0 L-86.85 595.75 Q-87.55 596.7 -88.0 595.95 -88.5 595.2 -88.8 593.0 -89.15 590.8 -88.5 589.55 M-80.15 617.15 Q-80.05 617.85 -80.25 618.5 L-80.95 621.0 Q-81.4 622.45 -82.25 621.75 -83.1 621.1 -84.35 618.6 -85.65 616.1 -85.35 614.35 -85.1 612.55 -83.65 612.25 L-82.55 612.35 Q-81.95 612.65 -81.5 613.45 -80.75 614.95 -80.35 616.2 L-80.15 617.15 M-70.95 634.65 L-70.5 634.5 Q-69.1 634.2 -68.35 635.7 -67.6 637.2 -67.2 638.45 -66.8 639.65 -67.05 640.75 L-67.6 642.75 -67.75 643.25 Q-68.2 644.7 -69.05 644.0 -69.95 643.3 -71.2 640.8 -72.45 638.3 -72.2 636.55 -71.95 635.1 -70.95 634.65 M-63.45 668.2 L-64.2 671.1 Q-64.6 672.3 -65.45 673.0 L-67.2 674.3 -67.55 674.55 Q-68.8 675.4 -69.05 674.35 -69.35 673.3 -68.85 670.55 -68.35 667.8 -67.0 666.6 -66.3 665.85 -65.55 665.8 L-64.4 665.95 Q-63.15 666.55 -63.45 668.2 M-81.75 696.5 Q-80.65 694.5 -79.35 693.65 L-78.75 693.35 Q-77.15 692.6 -76.1 693.6 -75.05 694.6 -75.9 696.05 L-77.55 698.5 Q-78.35 699.55 -79.35 699.9 L-81.85 700.7 Q-83.15 701.1 -83.2 700.2 L-83.2 700.05 Q-83.1 698.95 -81.75 696.5 M-91.65 716.65 Q-90.5 717.5 -91.15 719.05 L-92.55 721.7 Q-93.25 722.8 -94.2 723.25 L-96.6 724.35 Q-98.0 724.9 -98.0 723.85 -98.05 722.75 -96.95 720.15 -95.85 717.55 -94.3 716.65 -92.8 715.75 -91.65 716.65 M-106.9 747.9 L-108.3 750.55 Q-109.0 751.65 -109.95 752.1 L-110.15 752.2 -112.35 753.2 Q-113.75 753.75 -113.75 752.7 -113.8 751.6 -112.7 749.0 -111.6 746.4 -110.05 745.5 -108.9 744.8 -107.9 745.2 L-107.4 745.5 Q-106.25 746.35 -106.9 747.9 M-112.6 779.35 Q-111.75 779.5 -111.2 780.55 -110.45 782.05 -110.05 783.3 -109.65 784.55 -109.95 785.6 L-110.6 788.05 -110.65 788.1 Q-111.0 789.25 -111.65 789.05 L-111.95 788.85 Q-112.8 788.2 -114.05 785.7 L-114.3 785.2 Q-115.3 783.0 -115.05 781.45 -114.8 779.65 -113.35 779.35 L-112.6 779.35 M-100.2 801.6 Q-98.8 801.3 -98.05 802.8 -97.3 804.3 -96.9 805.55 -96.5 806.75 -96.75 807.85 L-97.0 808.85 -97.45 810.35 Q-97.9 811.8 -98.75 811.1 -99.65 810.4 -100.9 807.9 -102.15 805.4 -101.9 803.65 -101.65 802.2 -100.65 801.75 L-100.2 801.6 M-91.2 836.85 Q-90.55 836.2 -89.9 836.05 L-88.6 836.2 Q-87.35 836.8 -87.65 838.45 L-88.4 841.35 Q-88.8 842.55 -89.65 843.25 L-90.8 844.15 -91.4 844.55 -91.75 844.8 Q-93.0 845.65 -93.25 844.6 -93.55 843.55 -93.05 840.8 -92.55 838.05 -91.2 836.85 M-103.0 870.2 Q-101.4 869.45 -100.35 870.45 -99.75 871.0 -99.75 871.75 -99.8 872.25 -100.15 872.9 L-101.2 874.55 -101.8 875.35 Q-102.6 876.4 -103.6 876.75 L-106.1 877.55 Q-107.55 877.95 -107.45 876.9 L-107.45 876.8 Q-107.3 875.65 -106.0 873.35 L-104.45 871.25 -103.0 870.2 M-117.0 895.7 Q-116.1 896.35 -116.3 897.5 L-116.5 898.1 -117.9 900.75 Q-118.4 901.55 -119.05 902.0 L-119.55 902.3 -121.95 903.4 Q-123.35 903.95 -123.35 902.9 -123.4 901.8 -122.3 899.2 -121.2 896.6 -119.65 895.7 -118.15 894.8 -117.0 895.7" fill="#ab8458" fill-rule="evenodd" stroke="none"/>
    <path d="M-82.8 623.2 Q-81.8 622.5 -80.55 622.0 -79.1 621.4 -77.7 621.45 L-73.35 629.7 -71.1 634.3 Q-72.5 634.75 -73.8 635.7 L-74.85 636.55 Q-76.2 633.95 -77.9 631.5 L-77.95 631.45 -78.45 630.7 Q-81.0 626.95 -82.8 623.2 M-70.95 646.6 Q-69.55 645.05 -67.35 644.25 L-67.1 644.15 -67.0 644.45 Q-64.25 652.4 -65.05 661.55 L-65.45 665.2 -67.75 664.9 -70.2 665.15 -70.05 663.8 Q-68.9 654.9 -70.95 646.6 M-72.3 675.35 L-67.85 675.6 -67.6 675.7 -68.2 677.85 Q-70.7 686.4 -74.05 693.0 L-74.75 694.4 Q-76.15 692.7 -78.35 691.75 -75.55 686.05 -73.55 679.7 L-72.3 675.35 M-86.5 613.15 L-87.5 608.55 -87.9 606.15 -84.1 606.15 -83.65 608.55 -82.8 611.65 Q-84.7 612.0 -86.5 613.15 M-94.05 715.05 L-91.45 711.55 -88.65 707.95 -83.6 700.9 Q-83.05 701.2 -82.45 701.6 -81.1 702.5 -80.4 703.7 L-82.65 706.8 -86.1 711.55 -90.0 717.55 Q-91.6 715.85 -94.05 715.05 M-112.3 743.4 L-111.35 741.45 Q-109.4 737.55 -107.05 733.85 L-105.55 731.55 -100.55 724.1 Q-98.8 724.35 -97.1 725.3 -96.25 725.75 -95.6 726.35 L-100.2 732.2 Q-103.85 736.5 -106.3 741.45 L-107.75 744.7 Q-108.85 744.15 -110.4 743.75 L-112.3 743.4 M-116.0 753.0 Q-114.4 753.25 -112.85 754.15 L-110.95 755.6 Q-111.65 758.7 -112.0 761.9 L-112.25 765.1 Q-112.5 771.25 -111.05 778.25 -112.6 778.35 -114.6 779.15 -115.9 779.65 -116.95 780.5 -117.65 777.6 -118.0 774.6 -118.5 770.25 -118.2 765.65 L-118.15 765.1 Q-117.75 758.8 -116.0 753.0 M-111.45 789.65 L-110.25 789.1 -109.5 788.85 -107.45 789.05 -105.9 792.3 -100.85 801.4 Q-102.2 801.9 -103.5 802.8 L-105.25 804.4 Q-108.25 799.5 -109.95 794.65 L-111.45 789.65 M-99.9 812.95 Q-98.65 811.95 -97.05 811.35 L-96.0 811.0 Q-93.85 815.8 -92.0 820.95 -90.15 826.25 -89.9 832.1 L-89.9 835.4 -91.95 835.15 -94.65 835.45 -94.65 832.1 Q-94.9 827.5 -96.0 823.05 L-96.35 821.65 Q-97.65 817.15 -99.9 812.95 M-91.9 845.9 Q-92.8 851.9 -94.55 857.85 L-96.55 864.1 -98.4 868.75 -99.35 870.85 Q-100.85 869.25 -103.15 868.35 L-101.05 863.15 -99.9 859.7 -98.4 854.4 -97.55 850.7 -96.65 845.6 -92.05 845.85 -91.9 845.9 M-107.95 877.7 L-106.7 878.45 Q-105.4 879.35 -104.65 880.55 L-109.0 886.8 Q-112.55 891.35 -115.6 896.35 -117.25 894.75 -119.65 894.05 L-115.0 887.95 Q-111.0 882.7 -107.95 877.7 M-121.1 905.25 Q-123.45 909.25 -125.5 915.5 -126.65 919.05 -128.15 920.3 L-128.35 920.45 -127.45 920.65 -127.95 922.4 Q-130.55 931.65 -133.05 925.85 -134.2 923.2 -134.35 920.3 L-134.35 919.1 -136.05 918.35 -133.4 913.85 -131.9 911.55 -126.7 903.8 -126.25 903.15 Q-124.3 903.3 -122.45 904.35 -121.7 904.75 -121.1 905.25" fill="#c6cdb4" fill-rule="evenodd" stroke="none"/>
    <path d="M-129.4 935.9 Q-131.55 944.85 -135.4 947.75 -139.1 950.6 -143.25 947.3 -147.45 944.65 -143.6 927.0 L-141.45 920.3 -141.9 920.3 -138.5 914.15 -132.3 904.35 Q-131.15 903.85 -129.9 903.5 L-128.4 903.2 -128.8 903.8 Q-130.85 907.2 -133.25 910.65 L-133.3 910.7 -134.8 912.9 -134.8 912.95 -137.8 917.55 -137.95 917.45 -138.05 917.9 -138.05 917.95 -138.5 920.3 Q-138.95 923.6 -138.6 926.95 -137.8 934.65 -131.8 936.35 -130.4 936.75 -129.4 935.9 M-125.85 894.15 L-115.05 877.05 -114.0 876.85 -111.45 876.7 Q-114.05 880.5 -116.75 883.9 -120.4 888.5 -123.3 893.65 L-125.85 894.15 M-110.55 868.75 L-110.65 868.75 -107.25 863.35 Q-104.75 859.3 -103.0 855.25 -101.7 851.45 -101.05 847.65 L-99.5 846.7 -98.35 846.15 -98.85 850.4 Q-99.2 852.3 -99.7 854.1 L-100.1 855.45 -100.15 855.5 -100.9 857.55 -101.45 858.95 Q-103.35 863.25 -105.9 867.75 L-109.35 868.05 -110.05 868.25 -110.55 868.75 M-99.1 838.7 Q-99.0 835.4 -99.35 832.1 L-100.0 832.1 -100.05 831.6 -100.1 831.2 -100.25 830.85 Q-105.2 815.1 -108.1 810.4 L-109.3 809.15 -108.95 809.75 Q-114.15 802.6 -117.4 793.9 L-117.3 793.65 -116.45 795.05 -116.05 795.65 -115.65 794.3 -114.85 792.8 -113.7 795.0 -106.6 806.35 -107.4 808.45 -106.8 810.5 -107.6 809.2 Q-112.95 804.05 -116.45 795.05 -112.95 804.05 -107.6 809.2 L-106.8 810.5 -106.4 811.5 Q-105.0 814.55 -104.15 817.55 L-103.35 817.3 -102.7 817.1 -102.5 816.55 -101.65 815.0 Q-100.1 818.5 -99.0 822.4 -97.7 826.95 -97.15 832.1 L-96.9 836.25 -98.5 837.25 -99.1 838.7 M-120.3 784.7 L-120.7 783.45 Q-123.4 774.45 -122.75 765.1 -122.4 759.35 -120.7 753.45 L-120.3 753.3 -119.05 753.0 Q-119.7 755.45 -120.1 759.15 L-120.6 765.1 -120.6 769.15 Q-120.45 773.6 -119.35 777.55 -118.95 779.15 -118.8 781.0 L-118.3 781.7 -119.75 783.75 -119.75 783.8 -120.3 784.7 M-117.65 744.8 L-116.1 741.45 -112.15 734.15 -106.4 725.1 -104.55 724.45 -102.6 724.1 -106.9 730.65 -106.95 730.7 -108.45 732.9 -108.45 732.95 Q-111.3 737.1 -113.75 741.45 L-114.95 743.6 Q-116.1 743.8 -117.25 744.35 L-117.65 744.8 M-99.95 714.95 L-90.65 700.15 -89.75 700.0 -87.3 699.85 -90.4 703.9 Q-93.3 707.55 -95.7 711.55 L-97.45 714.55 -99.95 714.95 M-84.95 691.15 L-82.25 686.85 Q-79.5 682.45 -77.7 678.0 -76.55 677.15 -75.3 676.45 L-73.9 675.8 -74.55 677.55 -75.1 678.95 Q-77.65 684.75 -81.4 690.9 L-84.95 691.15 M-74.75 668.0 Q-71.7 650.55 -82.6 632.7 -84.6 630.75 -86.35 628.3 L-85.95 627.2 -84.7 625.05 -80.3 631.85 -80.25 631.9 -79.8 632.6 Q-78.0 635.45 -76.55 638.7 -77.3 639.9 -77.7 641.35 -77.55 642.55 -76.7 644.4 -75.3 647.45 -74.45 650.45 L-73.0 650.0 Q-71.85 655.75 -71.85 662.45 L-71.85 663.75 -71.95 665.65 Q-73.2 666.15 -74.3 667.0 L-74.75 668.0 M-88.85 624.2 L-90.4 621.05 -89.85 622.15 -88.85 624.2 M-91.3 619.0 Q-93.15 614.3 -94.5 608.55 L-94.6 608.25 -94.8 607.25 -94.9 607.25 -94.95 607.25 -94.95 607.1 -94.95 606.75 -95.3 606.8 -94.95 606.65 -94.95 606.75 -92.3 606.15 -91.85 606.15 -92.05 607.05 -92.1 607.05 -91.95 608.55 Q-91.45 612.9 -89.8 616.4 -90.65 617.55 -91.3 619.0 M-94.9 607.25 L-94.95 607.1 -94.9 607.25 M-99.35 832.1 Q-100.15 824.75 -103.35 817.3 -100.15 824.75 -99.35 832.1 M-103.0 855.25 Q-105.0 861.05 -108.6 866.85 L-109.35 868.05 -108.6 866.85 Q-105.0 861.05 -103.0 855.25 M-142.45 937.2 L-142.6 939.7 -142.15 940.8 -141.8 940.95 Q-141.35 941.05 -140.8 940.1 L-140.2 938.8 -139.95 937.7 Q-139.7 936.2 -139.85 935.05 -140.05 933.95 -140.6 933.85 -141.1 933.75 -141.65 934.7 -142.2 935.65 -142.45 937.2" fill="#899865" fill-rule="evenodd" stroke="none"/>
    <path d="M-142.45 937.2 Q-142.2 935.65 -141.65 934.7 -141.1 933.75 -140.6 933.85 -140.05 933.95 -139.85 935.05 -139.7 936.2 -139.95 937.7 L-140.2 938.8 -140.8 940.1 Q-141.35 941.05 -141.8 940.95 L-142.15 940.8 -142.6 939.7 -142.45 937.2" fill="url(#gradient0)" fill-rule="evenodd" stroke="none"/>
    <path d="M-83.75 566.25 Q-86.3 544.7 -95.15 525.45 L-92.2 562.8 -92.05 568.3 M-93.3 591.0 L-93.3 589.35 Q-92.15 581.55 -92.05 571.7 M-81.8 596.5 L-81.35 603.2 M-81.3 603.2 L-80.0 608.55 -78.95 611.95 M-74.3 621.55 Q-72.45 624.05 -70.35 625.4 -68.05 629.75 -66.3 634.0 M-62.85 644.0 Q-59.5 656.4 -61.0 667.8 M-62.95 676.7 Q-63.85 679.55 -65.05 682.3 -67.55 688.25 -73.2 698.2 M-77.05 704.8 L-81.15 711.55 -89.35 724.55 M-92.45 729.35 L-97.65 737.3 -100.9 741.45 Q-103.3 744.85 -104.95 748.4 M-107.4 755.1 Q-108.7 759.95 -108.8 765.1 -109.0 771.95 -107.05 779.35 M-107.4 778.75 L-107.0 780.3 M-104.3 787.4 L-102.45 792.45 -99.8 797.35 Q-98.35 799.55 -96.65 800.95 M-90.6 812.2 Q-85.45 825.4 -85.55 837.6 M-86.0 844.25 Q-86.95 851.5 -89.85 858.4 L-91.4 862.3 Q-93.4 867.1 -97.45 874.45 M-102.05 882.5 Q-107.0 890.9 -113.9 901.8 M-119.0 909.65 L-124.0 917.3 -126.35 920.25 M-126.3 920.25 L-126.45 920.7 -127.65 925.2 Q-128.3 931.3 -129.4 935.9 -131.55 944.85 -135.4 947.75 -139.1 950.6 -143.25 947.3 -147.45 944.65 -143.6 927.0 L-141.45 920.3 M-141.9 920.3 L-138.5 914.15 -132.3 904.35 M-125.85 894.15 L-115.05 877.05 M-110.65 868.75 L-107.25 863.35 Q-104.75 859.3 -103.0 855.25 -101.7 851.45 -101.05 847.65 M-99.1 838.7 Q-99.0 835.4 -99.35 832.1 -100.15 824.75 -103.35 817.3 M-100.0 832.1 L-100.05 831.6 -100.1 831.2 -100.25 830.85 Q-105.2 815.1 -108.1 810.4 L-109.3 809.15 M-108.95 809.75 Q-114.15 802.6 -117.4 793.9 M-120.3 784.7 L-120.7 783.45 Q-123.4 774.45 -122.75 765.1 -122.4 759.35 -120.7 753.45 M-117.65 744.8 L-116.1 741.45 -112.15 734.15 -106.4 725.1 M-99.95 714.95 L-90.65 700.15 M-84.95 691.15 L-82.25 686.85 Q-79.5 682.45 -77.7 678.0 M-74.75 668.0 Q-71.7 650.55 -82.6 632.7 -84.6 630.75 -86.35 628.3 M-88.85 624.2 L-90.4 621.05 M-91.3 619.0 Q-93.15 614.3 -94.5 608.55 L-94.6 608.25 -94.9 607.25 -94.95 607.1 -94.95 606.75 -94.95 606.65 -95.3 606.8 Q-94.2 603.1 -93.7 598.2 M-82.2 590.65 L-82.75 582.8 -83.05 573.7 M-94.8 607.25 L-94.6 608.25 M-116.45 795.05 Q-112.95 804.05 -107.6 809.2 L-106.8 810.5 M-87.25 847.25 Q-88.0 852.9 -89.85 858.4 M-109.35 868.05 L-108.6 866.85 Q-105.0 861.05 -103.0 855.25" fill="none" stroke="#5f6150" stroke-linecap="round" stroke-linejoin="round" stroke-width="1.0"/>
  </g>
  <defs>
    <radialGradient cx="0" cy="0" gradientTransform="matrix(-0.0019, -4.0E-4, 0.0012, -0.0057, -141.15, 937.6)" gradientUnits="userSpaceOnUse" id="gradient0" r="819.2" spreadMethod="pad">
      <stop offset="0.0" stop-color="#ffffff"/>
      <stop offset="0.6705882352941176" stop-color="#000000"/>
    </radialGradient>
  </defs>
</svg>
