<?xml version="1.0" encoding="UTF-8" standalone="no"?>
<svg xmlns:xlink="http://www.w3.org/1999/xlink" height="301.85px" width="462.2px" xmlns="http://www.w3.org/2000/svg">
  <g transform="matrix(1.0, 0.0, 0.0, 1.0, 226.55, 140.55)">
    <path d="M27.35 -113.95 Q26.8 -114.5 26.8 -115.2 26.8 -115.9 27.35 -116.4 27.85 -116.95 28.55 -116.95 29.25 -116.95 29.8 -116.4 30.3 -115.9 30.3 -115.2 30.3 -114.5 29.8 -113.95 29.25 -113.45 28.55 -113.45 27.85 -113.45 27.35 -113.95 M39.9 -109.35 L40.6 -110.05 45.9 -110.45 46.45 -110.85 49.35 -109.75 52.25 -111.05 53.25 -109.05 50.7 -108.05 49.5 -106.35 47.55 -106.3 45.1 -108.65 42.05 -106.85 40.3 -107.25 39.9 -109.35 M46.8 -140.55 L46.65 -140.3 46.55 -140.55 46.8 -140.55 M48.45 -137.2 L48.25 -135.65 47.85 -136.85 48.45 -137.2 M49.8 -126.9 L49.9 -123.7 53.05 -123.75 52.75 -127.4 52.05 -128.1 54.3 -129.7 55.6 -129.05 54.35 -127.85 54.7 -123.95 57.1 -122.7 53.25 -121.8 49.75 -117.25 49.0 -117.15 48.05 -118.3 49.3 -123.5 46.7 -125.8 47.45 -127.45 49.8 -126.9 M60.65 -124.35 L61.2 -124.1 61.4 -123.55 61.2 -122.95 60.65 -122.75 Q60.35 -122.75 60.15 -122.95 59.9 -123.2 59.9 -123.55 59.9 -123.9 60.15 -124.1 L60.65 -124.35 M55.4 -116.55 L60.95 -115.85 60.3 -114.85 58.8 -115.2 56.25 -113.45 54.75 -114.4 55.4 -116.55 M50.3 -102.1 L51.85 -101.65 52.5 -98.1 60.3 -97.2 59.9 -96.0 52.65 -94.55 51.75 -93.7 44.95 -93.45 44.5 -92.35 43.55 -91.65 42.65 -91.65 42.0 -92.35 42.55 -94.0 45.9 -94.25 46.95 -96.55 49.4 -97.8 49.2 -100.7 50.3 -102.1 M57.5 -105.75 Q57.15 -105.45 56.65 -105.45 56.15 -105.45 55.85 -105.75 55.5 -106.1 55.5 -106.6 55.5 -107.1 55.85 -107.4 56.15 -107.75 56.65 -107.75 57.15 -107.75 57.5 -107.4 L57.8 -106.6 Q57.8 -106.1 57.5 -105.75 M66.35 -95.95 Q65.95 -95.55 65.4 -95.55 64.85 -95.55 64.5 -95.95 64.1 -96.35 64.1 -96.9 64.1 -97.45 64.5 -97.85 64.85 -98.25 65.4 -98.25 65.95 -98.25 66.35 -97.85 L66.7 -96.9 Q66.7 -96.35 66.35 -95.95 M47.1 -84.4 L50.65 -84.4 50.65 -79.1 47.1 -79.1 47.1 -84.4 M57.3 -81.25 Q58.0 -81.25 58.55 -80.7 59.05 -80.2 59.05 -79.5 59.05 -78.8 58.55 -78.25 58.0 -77.75 57.3 -77.75 56.6 -77.75 56.1 -78.25 55.55 -78.8 55.55 -79.5 55.55 -80.2 56.1 -80.7 56.6 -81.25 57.3 -81.25 M55.35 -63.95 L51.3 -62.35 49.05 -63.5 49.2 -64.9 54.75 -67.05 55.65 -66.1 55.35 -63.95 M46.55 -59.95 L47.25 -59.65 47.55 -58.95 47.25 -58.25 Q46.95 -57.95 46.55 -57.95 46.15 -57.95 45.85 -58.25 45.55 -58.55 45.55 -58.95 45.55 -59.35 45.85 -59.65 46.15 -59.95 46.55 -59.95 M67.85 -57.6 L65.1 -57.6 65.1 -60.25 67.85 -60.25 67.85 -57.6 M63.7 -50.75 Q63.7 -51.45 64.25 -51.95 64.75 -52.5 65.45 -52.5 66.15 -52.5 66.7 -51.95 67.2 -51.45 67.2 -50.75 67.2 -50.05 66.7 -49.5 66.15 -49.0 65.45 -49.0 64.75 -49.0 64.25 -49.5 63.7 -50.05 63.7 -50.75 M34.6 -94.4 Q34.05 -93.9 33.3 -93.9 32.55 -93.9 32.05 -94.4 31.5 -94.95 31.5 -95.65 31.5 -96.35 32.05 -96.85 32.55 -97.4 33.3 -97.4 34.05 -97.4 34.6 -96.85 35.1 -96.35 35.1 -95.65 35.1 -94.95 34.6 -94.4 M38.45 -87.9 Q39.25 -87.9 39.8 -87.35 40.35 -86.8 40.35 -86.05 40.35 -85.3 39.8 -84.75 39.25 -84.2 38.45 -84.2 37.65 -84.2 37.1 -84.75 36.55 -85.3 36.55 -86.05 36.55 -86.8 37.1 -87.35 37.65 -87.9 38.45 -87.9 M27.75 -95.4 Q27.25 -94.95 26.55 -94.95 25.85 -94.95 25.4 -95.4 24.9 -95.9 24.9 -96.6 24.9 -97.3 25.4 -97.75 25.85 -98.25 26.55 -98.25 27.25 -98.25 27.75 -97.75 L28.2 -96.6 Q28.2 -95.9 27.75 -95.4 M20.55 -82.35 Q20.0 -81.85 19.3 -81.85 18.6 -81.85 18.1 -82.35 17.55 -82.9 17.55 -83.6 17.55 -84.3 18.1 -84.8 18.6 -85.35 19.3 -85.35 20.0 -85.35 20.55 -84.8 21.05 -84.3 21.05 -83.6 21.05 -82.9 20.55 -82.35 M28.8 -77.2 Q28.25 -76.65 27.45 -76.65 26.65 -76.65 26.1 -77.2 25.55 -77.75 25.55 -78.55 25.55 -79.35 26.1 -79.9 26.65 -80.45 27.45 -80.45 28.25 -80.45 28.8 -79.9 29.35 -79.35 29.35 -78.55 29.35 -77.75 28.8 -77.2 M18.6 -61.05 Q18.0 -60.5 17.2 -60.5 16.4 -60.5 15.85 -61.05 15.25 -61.6 15.25 -62.4 15.25 -63.2 15.85 -63.75 16.4 -64.3 17.2 -64.3 18.0 -64.3 18.6 -63.75 19.15 -63.2 19.15 -62.4 19.15 -61.6 18.6 -61.05 M27.0 -66.55 Q26.4 -66.0 25.6 -66.0 24.8 -66.0 24.25 -66.55 23.65 -67.1 23.65 -67.9 23.65 -68.7 24.25 -69.25 24.8 -69.8 25.6 -69.8 26.4 -69.8 27.0 -69.25 27.55 -68.7 27.55 -67.9 27.55 -67.1 27.0 -66.55 M37.75 -41.45 Q36.95 -41.45 36.4 -42.0 35.85 -42.55 35.85 -43.3 35.85 -44.05 36.4 -44.6 36.95 -45.15 37.75 -45.15 38.55 -45.15 39.1 -44.6 39.65 -44.05 39.65 -43.3 39.65 -42.55 39.1 -42.0 38.55 -41.45 37.75 -41.45 M29.05 -38.3 Q29.85 -38.3 30.4 -37.75 30.95 -37.2 30.95 -36.45 30.95 -35.7 30.4 -35.15 29.85 -34.6 29.05 -34.6 28.25 -34.6 27.7 -35.15 27.15 -35.7 27.15 -36.45 27.15 -37.2 27.7 -37.75 28.25 -38.3 29.05 -38.3 M11.05 -2.55 L11.5 -2.55 11.25 -2.1 11.05 -2.55 M67.05 -27.95 L65.25 -22.5 63.5 -27.95 67.05 -27.95 M51.65 -46.3 Q51.2 -45.8 50.6 -45.8 50.0 -45.8 49.6 -46.3 49.15 -46.85 49.15 -47.6 49.15 -48.35 49.6 -48.85 50.0 -49.4 50.6 -49.4 51.2 -49.4 51.65 -48.85 52.05 -48.35 52.05 -47.6 52.05 -46.85 51.65 -46.3 M54.85 -40.75 L48.3 -37.2 46.65 -38.2 52.0 -42.85 53.85 -42.3 54.85 -40.75 M58.8 -39.25 L56.7 -40.6 58.65 -41.15 59.25 -40.0 58.8 -39.25 M47.45 -25.7 Q47.8 -26.1 48.3 -26.1 48.8 -26.1 49.2 -25.7 L49.55 -24.85 Q49.55 -24.35 49.2 -23.95 48.8 -23.6 48.3 -23.6 47.8 -23.6 47.45 -23.95 47.05 -24.35 47.05 -24.85 47.05 -25.35 47.45 -25.7 M60.35 -18.75 L63.6 -14.95 62.85 -13.45 61.4 -13.7 60.6 -17.6 59.5 -18.75 60.35 -18.75 M54.0 -16.2 L54.2 -15.5 53.1 -13.75 47.25 -15.55 52.95 -16.9 54.0 -16.2 M43.8 -1.35 Q44.15 -1.75 44.65 -1.75 45.15 -1.75 45.55 -1.35 45.9 -1.0 45.9 -0.5 45.9 0.0 45.55 0.4 45.15 0.75 44.65 0.75 44.15 0.75 43.8 0.4 43.4 0.0 43.4 -0.5 L43.8 -1.35 M71.95 -20.2 Q72.5 -20.75 73.3 -20.75 74.1 -20.75 74.65 -20.2 75.2 -19.65 75.2 -18.9 75.2 -18.15 74.65 -17.6 74.1 -17.05 73.3 -17.05 72.5 -17.05 71.95 -17.6 71.4 -18.15 71.4 -18.9 71.4 -19.65 71.95 -20.2 M62.5 -4.65 L62.35 -4.3 Q62.2 -4.15 62.0 -4.15 L61.65 -4.3 61.5 -4.65 61.65 -5.0 62.0 -5.15 62.35 -5.0 62.5 -4.65 M161.35 -59.85 Q160.8 -59.35 160.1 -59.35 159.4 -59.35 158.9 -59.85 158.35 -60.35 158.35 -61.05 158.35 -61.75 158.9 -62.25 159.4 -62.75 160.1 -62.75 160.8 -62.75 161.35 -62.25 161.85 -61.75 161.85 -61.05 161.85 -60.35 161.35 -59.85 M86.5 -25.8 Q87.3 -25.8 87.85 -25.25 88.4 -24.7 88.4 -23.95 88.4 -23.2 87.85 -22.65 87.3 -22.1 86.5 -22.1 85.7 -22.1 85.15 -22.65 84.6 -23.2 84.6 -23.95 84.6 -24.7 85.15 -25.25 85.7 -25.8 86.5 -25.8 M96.8 -6.4 L97.15 -6.25 97.25 -5.95 97.15 -5.6 96.8 -5.5 96.5 -5.6 96.35 -5.95 96.5 -6.25 96.8 -6.4 M94.65 -0.4 L94.8 -0.75 95.1 -0.9 95.45 -0.75 95.55 -0.4 95.45 -0.05 95.1 0.1 94.8 -0.05 94.65 -0.4 M116.4 -22.7 Q116.7 -23.0 117.1 -23.0 L117.8 -22.7 118.1 -22.0 117.8 -21.3 Q117.5 -21.0 117.1 -21.0 116.7 -21.0 116.4 -21.3 116.1 -21.6 116.1 -22.0 116.1 -22.4 116.4 -22.7 M110.0 -13.0 Q109.65 -12.65 109.15 -12.65 108.65 -12.65 108.3 -13.0 107.95 -13.35 107.95 -13.85 107.95 -14.35 108.3 -14.7 108.65 -15.05 109.15 -15.05 109.65 -15.05 110.0 -14.7 L110.35 -13.85 Q110.35 -13.35 110.0 -13.0 M116.1 -4.4 L118.15 -0.1 117.55 1.35 118.1 2.7 119.65 3.6 119.4 5.75 118.65 6.25 115.5 5.8 116.35 2.0 115.0 1.25 115.0 -3.5 116.1 -4.4 M152.35 -46.7 Q151.8 -46.15 151.0 -46.15 150.2 -46.15 149.65 -46.7 149.1 -47.25 149.1 -48.05 149.1 -48.85 149.65 -49.4 150.2 -49.95 151.0 -49.95 151.8 -49.95 152.35 -49.4 152.9 -48.85 152.9 -48.05 152.9 -47.25 152.35 -46.7 M148.55 -34.95 Q149.25 -34.95 149.8 -34.4 150.3 -33.9 150.3 -33.2 150.3 -32.5 149.8 -31.95 149.25 -31.45 148.55 -31.45 147.85 -31.45 147.35 -31.95 146.8 -32.5 146.8 -33.2 146.8 -33.9 147.35 -34.4 147.85 -34.95 148.55 -34.95 M157.85 -31.85 L157.85 -22.9 154.6 -22.9 154.6 -31.85 157.85 -31.85 M132.05 -39.8 Q131.55 -39.3 130.85 -39.3 130.15 -39.3 129.65 -39.8 129.15 -40.3 129.15 -41.0 129.15 -41.7 129.65 -42.2 130.15 -42.7 130.85 -42.7 131.55 -42.7 132.05 -42.2 132.55 -41.7 132.55 -41.0 132.55 -40.3 132.05 -39.8 M139.65 -21.35 L147.15 -18.8 147.75 -17.25 151.65 -16.2 151.95 -14.8 149.85 -13.55 146.95 -15.95 141.6 -13.5 140.75 -11.05 139.8 -10.35 137.9 -11.05 138.25 -12.95 141.25 -14.05 141.75 -17.85 137.8 -19.25 137.75 -20.5 139.65 -21.35 M129.55 -14.35 Q129.95 -14.8 130.55 -14.8 131.15 -14.8 131.6 -14.35 132.0 -13.95 132.0 -13.35 132.0 -12.75 131.6 -12.3 131.15 -11.9 130.55 -11.9 129.95 -11.9 129.55 -12.3 129.1 -12.75 129.1 -13.35 129.1 -13.95 129.55 -14.35 M129.3 -7.25 Q129.3 -6.3 128.2 -5.6 127.05 -4.95 125.45 -4.95 123.85 -4.95 122.75 -5.6 121.6 -6.3 121.6 -7.25 121.6 -8.2 122.75 -8.85 123.85 -9.55 125.45 -9.55 127.05 -9.55 128.2 -8.85 129.3 -8.2 129.3 -7.25 M123.9 -1.15 Q124.45 -0.65 124.45 0.1 124.45 0.85 123.9 1.4 123.35 1.9 122.6 1.9 121.85 1.9 121.3 1.4 120.75 0.85 120.75 0.1 120.75 -0.65 121.3 -1.15 121.85 -1.7 122.6 -1.7 123.35 -1.7 123.9 -1.15 M130.0 -1.75 Q130.55 -2.3 131.35 -2.3 132.15 -2.3 132.7 -1.75 133.25 -1.2 133.25 -0.45 133.25 0.3 132.7 0.85 132.15 1.4 131.35 1.4 130.55 1.4 130.0 0.85 129.45 0.3 129.45 -0.45 129.45 -1.2 130.0 -1.75 M204.1 -50.8 L205.55 -51.65 205.4 -49.95 204.75 -49.75 204.1 -50.8 M214.95 -52.7 L214.8 -52.65 214.65 -52.7 214.6 -52.85 214.65 -53.0 214.8 -53.05 214.95 -53.0 215.0 -52.85 214.95 -52.7 M227.85 -53.7 L227.95 -53.45 227.85 -53.2 227.6 -53.1 Q227.45 -53.1 227.35 -53.2 L227.25 -53.45 227.35 -53.7 227.6 -53.8 227.85 -53.7 M235.65 -52.85 L235.55 -52.55 235.25 -52.45 235.0 -52.55 234.85 -52.85 235.0 -53.1 235.25 -53.25 235.55 -53.1 235.65 -52.85 M166.25 -63.0 Q167.0 -63.0 167.55 -62.45 168.1 -61.9 168.1 -61.15 168.1 -60.4 167.55 -59.85 167.0 -59.3 166.25 -59.3 165.5 -59.3 164.95 -59.85 164.4 -60.4 164.4 -61.15 164.4 -61.9 164.95 -62.45 165.5 -63.0 166.25 -63.0 M193.3 -51.05 L198.95 -51.85 194.05 -48.7 192.65 -49.8 193.3 -51.05 M194.45 -42.35 L194.65 -41.9 194.45 -41.45 193.95 -41.25 Q193.65 -41.25 193.45 -41.45 L193.25 -41.9 193.45 -42.35 193.95 -42.55 194.45 -42.35 M201.85 -41.5 L201.3 -41.3 200.8 -41.5 Q200.55 -41.75 200.55 -42.1 L200.8 -42.65 201.3 -42.9 201.85 -42.65 202.05 -42.1 201.85 -41.5 M189.95 -46.7 Q190.4 -46.25 190.4 -45.6 190.4 -44.95 189.95 -44.45 189.5 -44.0 188.85 -44.0 188.2 -44.0 187.75 -44.45 187.3 -44.95 187.3 -45.6 187.3 -46.25 187.75 -46.7 188.2 -47.2 188.85 -47.2 189.5 -47.2 189.95 -46.7 M185.5 -40.45 L187.55 -39.45 187.25 -38.2 185.85 -37.25 185.75 -35.9 187.85 -34.35 188.05 -33.4 187.55 -32.6 185.7 -33.0 185.15 -36.3 179.95 -37.5 176.6 -32.85 175.25 -38.85 173.8 -39.65 173.35 -41.9 176.6 -43.05 177.8 -44.6 180.05 -43.65 177.15 -41.25 177.35 -39.55 180.25 -37.9 182.55 -39.6 183.95 -39.45 185.5 -40.45 M166.95 -44.15 L170.4 -41.75 168.75 -39.35 169.45 -37.75 168.55 -32.95 161.55 -35.85 164.95 -36.8 167.25 -39.85 166.3 -43.5 163.55 -44.6 164.1 -47.5 166.2 -46.45 166.95 -44.15 M180.5 -21.85 Q180.5 -21.3 180.15 -20.9 179.75 -20.55 179.25 -20.55 178.75 -20.55 178.4 -20.9 178.0 -21.3 178.0 -21.85 178.0 -22.4 178.4 -22.75 178.75 -23.15 179.25 -23.15 179.75 -23.15 180.15 -22.75 180.5 -22.4 180.5 -21.85 M179.5 -14.1 Q180.3 -14.1 180.9 -13.55 181.45 -13.0 181.45 -12.2 181.45 -11.4 180.9 -10.85 180.3 -10.3 179.5 -10.3 178.7 -10.3 178.15 -10.85 177.55 -11.4 177.55 -12.2 177.55 -13.0 178.15 -13.55 178.7 -14.1 179.5 -14.1 M210.9 -49.05 L211.3 -49.05 211.1 -48.65 210.9 -49.05 M204.2 -45.75 L202.8 -44.4 203.05 -45.75 204.2 -45.75 M150.45 8.9 Q150.45 9.6 149.95 10.15 149.4 10.65 148.7 10.65 148.0 10.65 147.5 10.15 146.95 9.6 146.95 8.9 146.95 8.2 147.5 7.7 148.0 7.15 148.7 7.15 149.4 7.15 149.95 7.7 150.45 8.2 150.45 8.9 M132.5 27.35 Q131.95 27.85 131.25 27.85 130.55 27.85 130.05 27.35 129.5 26.8 129.5 26.1 129.5 25.4 130.05 24.9 130.55 24.35 131.25 24.35 131.95 24.35 132.5 24.9 133.0 25.4 133.0 26.1 133.0 26.8 132.5 27.35 M114.1 6.0 Q114.9 6.45 114.9 7.1 114.9 7.75 114.1 8.25 L112.15 8.7 110.2 8.25 Q109.4 7.75 109.4 7.1 109.4 6.45 110.2 6.0 111.0 5.5 112.15 5.5 113.3 5.5 114.1 6.0 M102.45 3.95 L101.6 4.3 Q101.1 4.3 100.75 3.95 100.4 3.6 100.4 3.1 100.4 2.6 100.75 2.25 101.1 1.9 101.6 1.9 102.1 1.9 102.45 2.25 102.8 2.6 102.8 3.1 L102.45 3.95 M104.65 8.05 Q104.65 7.4 105.3 6.95 105.9 6.45 106.75 6.45 107.6 6.45 108.25 6.95 108.85 7.4 108.85 8.05 108.85 8.7 108.25 9.2 L106.75 9.65 Q105.9 9.65 105.3 9.2 104.65 8.7 104.65 8.05 M102.65 11.35 L102.95 11.95 102.65 12.6 101.8 12.85 101.0 12.6 100.65 11.95 Q100.65 11.6 101.0 11.35 101.3 11.05 101.8 11.05 102.3 11.05 102.65 11.35 M86.9 8.6 L87.05 8.25 87.4 8.1 87.75 8.25 87.9 8.6 87.75 8.95 87.4 9.1 87.05 8.95 86.9 8.6 M93.15 24.0 L92.1 27.0 90.3 27.15 92.1 23.3 93.15 24.0 M83.95 63.0 L84.35 62.8 84.8 63.0 84.95 63.4 84.8 63.85 84.35 64.0 83.95 63.85 83.75 63.4 83.95 63.0 M104.45 76.55 L103.75 76.85 103.05 76.55 Q102.75 76.25 102.75 75.85 102.75 75.45 103.05 75.15 103.35 74.85 103.75 74.85 104.15 74.85 104.45 75.15 L104.75 75.85 104.45 76.55 M68.3 14.9 Q67.95 15.25 67.45 15.25 66.95 15.25 66.6 14.9 66.25 14.55 66.25 14.05 66.25 13.55 66.6 13.2 66.95 12.85 67.45 12.85 67.95 12.85 68.3 13.2 68.65 13.55 68.65 14.05 L68.3 14.9 M49.9 16.5 L50.0 16.8 49.9 17.15 49.55 17.25 49.25 17.15 49.1 16.8 Q49.1 16.6 49.25 16.5 49.35 16.35 49.55 16.35 L49.9 16.5 M45.7 41.5 L45.45 41.5 45.45 41.1 45.7 41.1 45.7 41.5 M69.75 39.95 L69.55 39.5 70.0 39.5 69.75 39.95 M35.25 21.55 L35.55 21.55 35.55 21.9 35.25 21.9 35.25 21.55 M27.5 35.35 L27.2 36.05 26.45 36.35 Q26.0 36.35 25.7 36.05 25.4 35.75 25.4 35.35 25.4 34.95 25.7 34.65 26.0 34.35 26.45 34.35 L27.2 34.65 27.5 35.35 M71.5 57.05 Q71.5 56.85 71.65 56.75 71.8 56.6 72.0 56.6 72.2 56.6 72.35 56.75 L72.5 57.05 72.35 57.4 72.0 57.5 71.65 57.4 71.5 57.05 M69.6 53.65 L69.6 53.95 69.3 53.95 69.3 53.65 69.6 53.65 M79.65 63.0 L79.55 63.2 79.45 63.0 79.65 63.0 M75.85 67.9 L75.85 68.25 75.45 68.25 75.45 67.9 75.85 67.9 M47.8 56.1 L48.0 56.1 47.9 56.3 47.8 56.1 M55.3 84.5 L55.5 84.5 55.4 84.8 55.3 84.5 M68.0 86.8 L68.2 86.8 68.1 87.0 68.0 86.8 M65.6 88.55 L65.4 88.55 65.4 88.25 65.6 88.25 65.6 88.55 M77.8 91.75 L77.8 92.05 77.5 92.05 77.5 91.75 77.8 91.75 M61.2 110.65 L61.2 111.05 60.95 111.05 60.95 110.65 61.2 110.65 M47.2 103.4 L47.2 103.7 46.9 103.7 46.9 103.4 47.2 103.4 M51.05 134.4 L51.05 134.75 50.6 134.75 50.6 134.4 51.05 134.4 M27.45 122.2 L27.45 122.55 27.15 122.55 27.15 122.2 27.45 122.2 M3.8 101.45 L4.0 101.45 3.9 101.65 3.8 101.45 M-225.95 -6.1 Q-226.05 -6.0 -226.2 -6.0 L-226.45 -6.1 -226.55 -6.35 -226.45 -6.6 -226.2 -6.7 -225.95 -6.6 -225.85 -6.35 -225.95 -6.1 M-219.15 -3.5 L-219.0 -3.55 -218.85 -3.5 -218.8 -3.35 -218.85 -3.2 -219.0 -3.15 -219.15 -3.2 -219.2 -3.35 -219.15 -3.5 M-204.75 -8.55 L-204.55 -8.05 -204.75 -7.5 -205.35 -7.3 -205.9 -7.5 -206.15 -8.05 -205.9 -8.55 -205.35 -8.8 -204.75 -8.55 M-208.45 -11.4 L-208.6 -11.35 -208.75 -11.4 -208.8 -11.55 -208.75 -11.7 -208.6 -11.75 -208.45 -11.7 -208.4 -11.55 -208.45 -11.4 M-193.6 -3.1 Q-194.05 -3.55 -194.05 -4.15 L-193.6 -5.2 Q-193.15 -5.65 -192.5 -5.65 -191.85 -5.65 -191.4 -5.2 -190.95 -4.75 -190.95 -4.15 -190.95 -3.55 -191.4 -3.1 -191.85 -2.65 -192.5 -2.65 -193.15 -2.65 -193.6 -3.1 M-165.15 -13.85 Q-164.45 -13.85 -163.9 -13.3 -163.4 -12.8 -163.4 -12.1 -163.4 -11.4 -163.9 -10.85 -164.45 -10.35 -165.15 -10.35 -165.85 -10.35 -166.35 -10.85 -166.9 -11.4 -166.9 -12.1 -166.9 -12.8 -166.35 -13.3 -165.85 -13.85 -165.15 -13.85 M-176.05 -13.3 Q-175.35 -13.3 -174.8 -12.75 -174.3 -12.25 -174.3 -11.55 -174.3 -10.85 -174.8 -10.3 -175.35 -9.8 -176.05 -9.8 -176.75 -9.8 -177.25 -10.3 -177.8 -10.85 -177.8 -11.55 -177.8 -12.25 -177.25 -12.75 -176.75 -13.3 -176.05 -13.3 M-164.85 -2.95 L-166.3 -1.2 -168.35 -2.2 -164.25 -6.8 -161.2 -6.65 -158.65 -8.1 -157.1 -7.15 -157.6 -5.2 -161.15 -5.0 -162.5 -3.6 -164.85 -2.95 M-145.85 -7.7 Q-146.4 -7.2 -147.1 -7.2 -147.8 -7.2 -148.3 -7.7 -148.85 -8.25 -148.85 -8.95 -148.85 -9.65 -148.3 -10.15 -147.8 -10.7 -147.1 -10.7 -146.4 -10.7 -145.85 -10.15 -145.35 -9.65 -145.35 -8.95 -145.35 -8.25 -145.85 -7.7 M-144.4 -1.55 Q-144.4 -2.35 -143.85 -2.9 -143.3 -3.45 -142.55 -3.45 -141.8 -3.45 -141.25 -2.9 -140.7 -2.35 -140.7 -1.55 -140.7 -0.75 -141.25 -0.2 -141.8 0.35 -142.55 0.35 -143.3 0.35 -143.85 -0.2 -144.4 -0.75 -144.4 -1.55 M-148.45 -0.95 L-148.45 1.55 -156.3 1.55 -156.3 -0.95 -148.45 -0.95 M-2.4 20.25 L-2.2 20.25 -2.3 20.45 -2.4 20.25 M-54.4 45.9 L-53.55 46.3 -53.05 47.1 -51.45 47.45 -50.3 46.6 -49.0 46.6 -47.95 47.4 -47.7 48.5 -48.75 50.85 -47.45 53.0 -48.0 54.65 -50.35 54.8 -51.4 53.55 -50.0 50.55 -52.7 48.6 -55.25 50.8 -53.55 53.55 -55.2 55.35 -57.0 54.9 -57.35 52.8 -55.5 50.75 -55.65 46.15 -54.4 45.9 M-44.7 61.2 L-45.7 59.45 -43.7 58.7 -41.8 55.35 -38.15 63.2 -38.95 64.95 -41.2 64.75 -41.65 61.9 -42.65 60.85 -44.7 61.2 M-56.8 69.05 Q-56.3 69.05 -55.95 69.4 -55.65 69.7 -55.65 70.2 -55.65 70.7 -55.95 71.05 L-56.8 71.35 Q-57.3 71.35 -57.6 71.05 -57.95 70.7 -57.95 70.2 -57.95 69.7 -57.6 69.4 -57.3 69.05 -56.8 69.05 M-52.35 72.6 L-51.65 71.5 -45.5 70.15 -44.95 75.75 -43.15 77.5 -46.15 79.45 -47.5 83.6 -45.4 85.05 -45.15 86.6 -47.75 88.55 -49.4 87.85 -52.5 89.35 -55.95 86.65 -56.6 84.8 -61.0 83.35 -59.25 82.75 -58.55 80.65 -59.7 79.3 -58.75 76.45 -58.45 80.5 -54.65 81.3 -53.25 79.3 -51.45 80.0 -49.65 78.5 -51.25 76.45 -53.65 76.7 -55.3 75.0 -54.8 73.25 -52.35 72.6 M-68.05 74.1 L-68.3 74.55 -68.55 74.1 -68.05 74.1 M-63.7 74.65 L-63.3 74.5 Q-63.05 74.5 -62.9 74.65 L-62.75 75.0 -62.9 75.35 -63.3 75.5 -63.7 75.35 -63.85 75.0 -63.7 74.65 M-63.05 89.5 L-60.8 90.2 -58.95 89.05 -59.95 94.05 -64.55 94.25 -66.75 89.05 -66.05 87.25 -64.25 87.25 -63.05 89.5 M-40.8 89.25 L-40.8 92.55 -44.0 92.55 -44.0 89.25 -40.8 89.25 M-14.6 65.05 L-16.8 65.55 Q-18.1 65.55 -19.0 65.05 -19.9 64.5 -19.9 63.8 -19.9 63.1 -19.0 62.6 -18.1 62.05 -16.8 62.05 -15.5 62.05 -14.6 62.6 -13.7 63.1 -13.7 63.8 -13.7 64.5 -14.6 65.05 M-26.35 56.2 Q-26.9 55.65 -26.9 54.9 -26.9 54.15 -26.35 53.6 -25.8 53.05 -25.0 53.05 -24.2 53.05 -23.65 53.6 -23.1 54.15 -23.1 54.9 -23.1 55.65 -23.65 56.2 -24.2 56.75 -25.0 56.75 -25.8 56.75 -26.35 56.2 M-32.25 62.9 L-22.8 62.9 -22.8 66.7 -32.25 66.7 -32.25 62.9 M-36.25 73.0 Q-35.55 73.0 -35.0 73.55 -34.5 74.05 -34.5 74.75 -34.5 75.45 -35.0 76.0 -35.55 76.5 -36.25 76.5 -36.95 76.5 -37.45 76.0 -38.0 75.45 -38.0 74.75 -38.0 74.05 -37.45 73.55 -36.95 73.0 -36.25 73.0 M-26.6 76.8 Q-26.1 77.3 -26.1 78.0 -26.1 78.7 -26.6 79.25 -27.1 79.75 -27.8 79.75 -28.5 79.75 -29.0 79.25 -29.5 78.7 -29.5 78.0 -29.5 77.3 -29.0 76.8 -28.5 76.25 -27.8 76.25 -27.1 76.25 -26.6 76.8 M-38.9 97.4 Q-38.9 96.6 -38.35 96.05 -37.8 95.5 -37.0 95.5 -36.2 95.5 -35.65 96.05 -35.1 96.6 -35.1 97.4 -35.1 98.2 -35.65 98.75 -36.2 99.3 -37.0 99.3 -37.8 99.3 -38.35 98.75 -38.9 98.2 -38.9 97.4 M-120.65 9.55 Q-121.25 10.1 -122.05 10.1 -122.85 10.1 -123.4 9.55 -124.0 9.0 -124.0 8.2 -124.0 7.4 -123.4 6.85 -122.85 6.3 -122.05 6.3 -121.25 6.3 -120.65 6.85 -120.1 7.4 -120.1 8.2 -120.1 9.0 -120.65 9.55 M-115.55 22.2 Q-115.05 22.2 -114.7 22.55 -114.4 22.85 -114.4 23.3 -114.4 23.75 -114.7 24.1 L-115.55 24.4 -116.35 24.1 -116.7 23.3 Q-116.7 22.85 -116.35 22.55 -116.05 22.2 -115.55 22.2 M-110.3 35.7 Q-111.35 36.25 -112.8 36.25 -114.25 36.25 -115.25 35.7 -116.3 35.1 -116.3 34.25 -116.3 33.4 -115.25 32.85 -114.25 32.25 -112.8 32.25 -111.35 32.25 -110.3 32.85 -109.3 33.4 -109.3 34.25 -109.3 35.1 -110.3 35.7 M-120.35 48.05 Q-120.75 48.45 -121.3 48.45 -121.85 48.45 -122.25 48.05 -122.65 47.65 -122.65 47.1 -122.65 46.55 -122.25 46.15 -121.85 45.75 -121.3 45.75 -120.75 45.75 -120.35 46.15 -119.95 46.55 -119.95 47.1 -119.95 47.65 -120.35 48.05 M-106.8 44.5 Q-107.15 44.85 -107.65 44.85 L-108.5 44.5 -108.85 43.65 Q-108.85 43.15 -108.5 42.8 -108.15 42.45 -107.65 42.45 -107.15 42.45 -106.8 42.8 -106.45 43.15 -106.45 43.65 -106.45 44.15 -106.8 44.5 M-81.7 44.7 L-81.95 45.15 -82.2 44.7 -81.7 44.7 M-127.95 9.7 L-127.95 16.85 -130.65 16.85 -130.65 9.7 -127.95 9.7 M-136.45 6.5 Q-137.0 7.05 -137.8 7.05 -138.6 7.05 -139.15 6.5 -139.7 5.95 -139.7 5.15 -139.7 4.35 -139.15 3.8 -138.6 3.25 -137.8 3.25 -137.0 3.25 -136.45 3.8 -135.9 4.35 -135.9 5.15 -135.9 5.95 -136.45 6.5 M-153.15 18.2 L-153.15 24.75 -156.45 24.75 -156.45 18.2 -153.15 18.2 M-160.6 12.8 L-166.15 18.4 -167.75 14.25 -164.25 12.45 -162.65 9.9 -160.95 9.8 -160.6 12.8 M-148.75 35.75 Q-148.05 35.75 -147.5 36.3 -147.0 36.8 -147.0 37.5 -147.0 38.2 -147.5 38.75 -148.05 39.25 -148.75 39.25 -149.45 39.25 -149.95 38.75 -150.5 38.2 -150.5 37.5 -150.5 36.8 -149.95 36.3 -149.45 35.75 -148.75 35.75 M-143.55 32.15 Q-143.0 31.55 -142.2 31.55 -141.4 31.55 -140.8 32.15 -140.25 32.7 -140.25 33.5 -140.25 34.3 -140.8 34.9 -141.4 35.45 -142.2 35.45 -143.0 35.45 -143.55 34.9 -144.15 34.3 -144.15 33.5 -144.15 32.7 -143.55 32.15 M-142.7 46.35 Q-142.2 46.85 -142.2 47.55 -142.2 48.25 -142.7 48.8 -143.25 49.3 -144.0 49.3 -144.75 49.3 -145.25 48.8 -145.8 48.25 -145.8 47.55 -145.8 46.85 -145.25 46.35 -144.75 45.8 -144.0 45.8 -143.25 45.8 -142.7 46.35 M-123.5 42.4 Q-124.05 42.9 -124.8 42.9 -125.55 42.9 -126.05 42.4 -126.6 41.85 -126.6 41.15 -126.6 40.45 -126.05 39.95 -125.55 39.4 -124.8 39.4 -124.05 39.4 -123.5 39.95 -123.0 40.45 -123.0 41.15 -123.0 41.85 -123.5 42.4 M-136.4 53.55 Q-137.0 54.1 -137.8 54.1 -138.6 54.1 -139.15 53.55 -139.75 53.0 -139.75 52.2 -139.75 51.4 -139.15 50.85 -138.6 50.3 -137.8 50.3 -137.0 50.3 -136.4 50.85 -135.85 51.4 -135.85 52.2 -135.85 53.0 -136.4 53.55 M-146.05 61.35 Q-146.6 61.85 -147.3 61.85 -148.0 61.85 -148.5 61.35 -149.05 60.8 -149.05 60.1 -149.05 59.4 -148.5 58.9 -148.0 58.35 -147.3 58.35 -146.6 58.35 -146.05 58.9 -145.55 59.4 -145.55 60.1 -145.55 60.8 -146.05 61.35 M-128.0 77.05 Q-128.0 77.75 -128.5 78.3 -129.05 78.8 -129.75 78.8 -130.45 78.8 -130.95 78.3 -131.5 77.75 -131.5 77.05 -131.5 76.35 -130.95 75.85 -130.45 75.3 -129.75 75.3 -129.05 75.3 -128.5 75.85 -128.0 76.35 -128.0 77.05 M-129.85 83.7 Q-129.05 83.7 -128.5 84.25 -127.95 84.8 -127.95 85.6 -127.95 86.4 -128.5 86.95 -129.05 87.5 -129.85 87.5 -130.65 87.5 -131.2 86.95 -131.75 86.4 -131.75 85.6 -131.75 84.8 -131.2 84.25 -130.65 83.7 -129.85 83.7 M-99.3 51.2 Q-99.65 51.55 -100.15 51.55 -100.65 51.55 -101.0 51.2 L-101.35 50.35 Q-101.35 49.85 -101.0 49.5 -100.65 49.15 -100.15 49.15 -99.65 49.15 -99.3 49.5 -98.95 49.85 -98.95 50.35 -98.95 50.85 -99.3 51.2 M-99.4 60.2 Q-99.7 60.5 -100.1 60.5 L-100.8 60.2 -101.1 59.5 -100.8 58.8 Q-100.5 58.5 -100.1 58.5 -99.7 58.5 -99.4 58.8 -99.1 59.1 -99.1 59.5 -99.1 59.9 -99.4 60.2 M-91.7 67.9 Q-91.7 67.4 -91.35 67.05 -91.0 66.7 -90.5 66.7 -90.0 66.7 -89.65 67.05 -89.3 67.4 -89.3 67.9 -89.3 68.4 -89.65 68.75 L-90.5 69.1 Q-91.0 69.1 -91.35 68.75 -91.7 68.4 -91.7 67.9 M-86.3 70.3 L-86.2 70.05 -85.95 69.95 Q-85.8 69.95 -85.7 70.05 L-85.6 70.3 -85.7 70.55 -85.95 70.65 -86.2 70.55 -86.3 70.3 M-116.05 63.05 Q-115.5 62.5 -114.7 62.5 -113.9 62.5 -113.35 63.05 -112.8 63.6 -112.8 64.4 -112.8 65.2 -113.35 65.75 -113.9 66.3 -114.7 66.3 -115.5 66.3 -116.05 65.75 -116.6 65.2 -116.6 64.4 -116.6 63.6 -116.05 63.05 M-103.4 70.8 Q-103.95 71.35 -104.75 71.35 -105.55 71.35 -106.1 70.8 -106.65 70.2 -106.65 69.4 -106.65 68.6 -106.1 68.05 -105.55 67.45 -104.75 67.45 -103.95 67.45 -103.4 68.05 -102.85 68.6 -102.85 69.4 -102.85 70.2 -103.4 70.8 M-115.5 78.7 L-118.1 78.7 -118.1 76.15 -115.5 76.15 -115.5 78.7 M-83.7 84.65 L-84.05 84.55 -84.2 84.2 -84.05 83.9 Q-83.9 83.75 -83.7 83.75 -83.5 83.75 -83.35 83.9 -83.2 84.0 -83.2 84.2 L-83.35 84.55 -83.7 84.65 M-87.35 90.45 L-85.1 92.65 -86.6 92.05 -88.0 92.4 -88.6 94.0 -90.5 93.25 -88.35 92.1 -87.35 90.45 M-83.6 110.45 Q-84.15 111.0 -84.95 111.0 -85.75 111.0 -86.3 110.45 -86.85 109.9 -86.85 109.1 -86.85 108.3 -86.3 107.75 -85.75 107.2 -84.95 107.2 -84.15 107.2 -83.6 107.75 -83.05 108.3 -83.05 109.1 -83.05 109.9 -83.6 110.45 M-102.05 99.65 Q-101.65 99.65 -101.35 99.95 -101.1 100.25 -101.1 100.65 -101.1 101.05 -101.35 101.35 -101.65 101.65 -102.05 101.65 -102.45 101.65 -102.7 101.35 L-103.0 100.65 -102.7 99.95 Q-102.45 99.65 -102.05 99.65 M-82.3 135.25 L-82.15 135.55 -82.3 135.9 -82.65 136.0 -83.0 135.9 -83.15 135.55 -83.0 135.25 Q-82.85 135.1 -82.65 135.1 -82.45 135.1 -82.3 135.25 M-23.65 141.85 Q-24.0 142.2 -24.5 142.2 L-25.35 141.85 -25.7 141.0 Q-25.7 140.5 -25.35 140.15 -25.0 139.8 -24.5 139.8 -24.0 139.8 -23.65 140.15 -23.3 140.5 -23.3 141.0 -23.3 141.5 -23.65 141.85 M-47.55 103.3 L-47.85 103.4 -48.1 103.3 -48.25 103.05 -48.1 102.8 -47.85 102.7 -47.55 102.8 -47.45 103.05 -47.55 103.3 M-43.6 111.0 L-43.8 111.5 -44.0 111.0 -43.6 111.0 M-60.5 106.1 L-60.05 106.1 -60.3 106.55 -60.5 106.1 M-54.3 106.9 L-49.65 110.2 -50.65 112.1 -54.65 108.05 -54.3 106.9 M-52.0 119.55 Q-52.55 119.0 -52.55 118.3 -52.55 117.6 -52.0 117.1 -51.5 116.55 -50.8 116.55 -50.1 116.55 -49.55 117.1 -49.05 117.6 -49.05 118.3 -49.05 119.0 -49.55 119.55 -50.1 120.05 -50.8 120.05 -51.5 120.05 -52.0 119.55 M-70.45 101.8 Q-71.0 102.3 -71.75 102.3 -72.5 102.3 -73.0 101.8 -73.55 101.25 -73.55 100.55 -73.55 99.85 -73.0 99.35 -72.5 98.8 -71.75 98.8 -71.0 98.8 -70.45 99.35 -69.95 99.85 -69.95 100.55 -69.95 101.25 -70.45 101.8 M-66.7 106.95 L-67.05 106.1 Q-67.05 105.6 -66.7 105.25 -66.35 104.9 -65.85 104.9 -65.35 104.9 -65.0 105.25 -64.65 105.6 -64.65 106.1 -64.65 106.6 -65.0 106.95 -65.35 107.3 -65.85 107.3 -66.35 107.3 -66.7 106.95 M-67.05 114.4 L-67.05 114.7 -67.25 114.7 -67.25 114.4 -67.05 114.4 M-63.65 140.15 L-63.75 140.45 -63.85 140.15 -63.65 140.15 M-70.1 141.5 L-69.95 141.85 -70.1 142.2 -70.45 142.35 -70.8 142.2 -70.95 141.85 -70.8 141.5 -70.45 141.35 Q-70.25 141.35 -70.1 141.5 M-46.3 125.35 L-46.1 125.35 -46.2 125.55 -46.3 125.35 M-50.6 147.3 L-50.7 147.1 -50.5 147.1 -50.6 147.3 M-48.8 160.85 L-49.05 161.3 -49.25 160.85 -48.8 160.85 M-53.75 153.45 L-53.75 153.15 -53.55 153.15 -53.55 153.45 -53.75 153.45 M-59.15 157.5 L-59.25 157.3 -59.05 157.3 -59.15 157.5 M-76.1 159.75 L-75.8 159.75 -75.8 160.05 -76.1 160.05 -76.1 159.75 M-172.3 7.3 L-182.35 7.3 -182.35 4.55 -172.3 4.55 -172.3 7.3 M-177.45 17.55 L-173.25 20.4 -173.35 22.1 -176.2 23.6 -177.0 25.15 -178.7 25.4 -178.6 17.9 -177.45 17.55 M-186.65 2.35 Q-187.05 2.7 -187.55 2.7 -188.05 2.7 -188.4 2.35 -188.8 1.95 -188.8 1.4 -188.8 0.85 -188.4 0.5 -188.05 0.1 -187.55 0.1 -187.05 0.1 -186.65 0.5 -186.3 0.85 -186.3 1.4 -186.3 1.95 -186.65 2.35 M-191.9 5.15 L-192.4 5.35 Q-192.7 5.35 -192.9 5.15 L-193.1 4.65 -192.9 4.15 -192.4 3.95 -191.9 4.15 -191.7 4.65 -191.9 5.15 M-195.2 1.25 L-195.8 1.45 -196.4 1.25 -196.65 0.65 -196.4 0.1 -195.8 -0.15 Q-195.45 -0.15 -195.2 0.1 -194.95 0.3 -194.95 0.65 L-195.2 1.25 M-201.4 8.45 Q-201.65 8.65 -202.0 8.65 L-202.6 8.45 -202.85 7.85 -202.6 7.3 Q-202.35 7.05 -202.0 7.05 L-201.4 7.3 Q-201.15 7.5 -201.15 7.85 L-201.4 8.45 M-196.2 7.5 L-196.8 7.75 -197.35 7.5 -197.6 6.9 -197.35 6.3 Q-197.15 6.05 -196.8 6.05 -196.45 6.05 -196.2 6.3 L-196.0 6.9 -196.2 7.5 M-199.3 17.0 L-199.8 17.2 Q-200.1 17.2 -200.3 17.0 L-200.5 16.5 -200.3 16.0 -199.8 15.8 -199.3 16.0 -199.1 16.5 -199.3 17.0 M-183.5 16.7 Q-184.0 17.15 -184.65 17.15 L-185.75 16.7 Q-186.25 16.25 -186.25 15.6 -186.25 14.95 -185.75 14.5 -185.3 14.05 -184.65 14.05 -184.0 14.05 -183.5 14.5 -183.05 14.95 -183.05 15.6 -183.05 16.25 -183.5 16.7 M-186.15 29.15 Q-185.8 28.75 -185.25 28.75 -184.7 28.75 -184.3 29.15 -183.95 29.55 -183.95 30.1 -183.95 30.65 -184.3 31.05 -184.7 31.45 -185.25 31.45 -185.8 31.45 -186.15 31.05 -186.55 30.65 -186.55 30.1 -186.55 29.55 -186.15 29.15 M-202.95 1.8 L-203.5 2.0 Q-203.8 2.0 -204.0 1.8 L-204.25 1.25 -204.0 0.75 Q-203.8 0.5 -203.5 0.5 -203.2 0.5 -202.95 0.75 L-202.75 1.25 -202.95 1.8" fill="#ccffff" fill-rule="evenodd" stroke="none"/>
  </g>
</svg>
