<?xml version="1.0" encoding="UTF-8" standalone="no"?>
<svg xmlns:xlink="http://www.w3.org/1999/xlink" height="400.4px" width="88.2px" xmlns="http://www.w3.org/2000/svg">
  <g transform="matrix(1.0, 0.0, 0.0, 1.0, 148.6, -612.45)">
    <path d="M-69.4 631.95 L-69.5 631.9 Q-70.95 631.0 -72.6 631.55 -74.45 632.15 -75.1 633.7 L-75.75 635.65 -86.2 612.95 Q-75.7 620.65 -69.4 631.95 M-73.3 641.9 L-72.85 640.9 Q-72.25 638.65 -70.15 637.75 L-66.8 637.85 -66.75 637.3 Q-62.4 647.25 -60.9 659.55 L-61.3 663.4 -61.35 661.55 -61.55 660.2 Q-62.25 658.4 -63.45 657.55 -64.05 657.1 -64.8 656.9 -66.9 656.25 -68.45 657.4 L-68.9 657.75 -70.95 660.2 Q-70.85 651.55 -73.3 641.9 M-67.7 668.15 L-72.3 681.6 -72.5 681.65 -75.6 682.35 -71.5 670.7 -71.2 670.35 Q-69.65 668.4 -67.7 668.15 M-68.4 682.55 Q-66.4 673.25 -65.55 668.35 -63.5 668.9 -62.1 670.65 L-63.1 679.95 Q-62.75 681.4 -64.85 687.6 -65.1 685.15 -67.15 683.45 L-67.2 683.4 -65.75 683.4 -65.85 682.9 -67.85 682.9 -68.4 682.55 M-70.0 698.0 Q-74.2 705.75 -80.85 716.55 -87.8 727.75 -97.35 742.3 L-100.6 746.45 -101.15 747.3 -99.3 743.35 -98.95 742.05 Q-99.0 739.65 -100.5 737.95 L-99.9 737.2 Q-94.6 730.9 -90.75 724.35 L-88.75 721.05 Q-87.1 722.8 -86.55 725.05 -86.2 724.05 -85.5 723.2 -83.25 720.15 -81.7 716.6 L-81.35 715.25 Q-81.35 713.3 -82.35 711.8 -77.55 705.45 -73.75 698.0 L-72.05 694.4 Q-70.6 696.0 -70.0 698.0 M-102.7 749.75 Q-108.25 759.2 -108.5 770.1 L-107.2 770.1 -107.2 770.2 -107.15 787.55 -107.05 787.9 -107.0 788.15 -106.25 790.85 Q-108.1 789.45 -110.3 789.55 L-110.5 788.55 -110.4 788.55 -111.4 774.05 Q-110.3 774.65 -109.35 775.65 L-109.35 773.5 Q-108.85 769.75 -109.3 765.95 -109.35 765.15 -109.65 764.65 -110.25 763.55 -111.1 762.85 -110.05 756.8 -107.95 751.1 L-106.55 747.65 Q-104.6 749.5 -103.95 751.95 -103.6 750.95 -102.9 750.05 L-102.7 749.75 M-102.1 800.75 L-100.75 802.75 Q-99.0 805.1 -97.0 806.35 -93.4 813.2 -91.1 819.8 L-93.05 816.75 -94.05 815.75 Q-95.9 814.65 -97.95 814.85 L-100.0 810.65 -104.2 802.75 -105.6 800.2 Q-103.8 800.1 -102.1 800.75 M-89.3 825.7 Q-84.1 845.75 -91.7 863.25 -97.9 878.15 -124.3 918.25 -132.65 927.95 -133.15 959.85 L-133.2 960.75 -133.2 960.6 Q-132.75 967.85 -129.75 975.2 -131.95 973.7 -134.3 973.05 -135.85 968.3 -136.3 963.85 L-136.5 961.55 -136.55 960.6 -136.1 960.5 -136.4 945.75 Q-135.45 946.4 -134.65 947.35 L-133.35 948.65 -132.4 942.0 -132.2 939.25 Q-133.6 936.35 -135.85 934.4 L-135.95 934.3 -136.05 934.2 Q-135.7 929.2 -134.9 927.05 -132.85 921.3 -129.3 916.3 -128.45 917.65 -128.1 919.35 -128.0 920.2 -127.3 921.7 L-127.15 921.7 Q-125.7 918.5 -123.6 915.75 L-122.05 913.45 Q-121.9 910.5 -122.7 907.9 -119.95 904.15 -117.7 900.3 -115.4 896.25 -112.7 892.45 L-112.65 892.55 Q-111.95 893.55 -111.55 894.85 L-110.9 896.5 -109.2 893.55 -107.5 890.7 -106.25 888.25 Q-106.4 886.25 -106.95 884.5 -103.55 879.55 -100.7 873.95 -97.95 868.55 -95.8 861.85 -94.7 863.4 -94.0 865.45 L-92.25 861.85 -89.8 856.1 -89.45 854.75 Q-89.45 851.75 -91.8 849.75 L-92.55 849.15 -91.7 842.5 Q-90.9 833.35 -93.65 825.4 L-93.75 825.15 Q-91.15 824.5 -89.3 825.7 M-127.85 979.3 L-126.65 981.55 -125.95 982.8 -126.0 982.85 -123.95 985.9 Q-119.75 990.4 -117.05 994.25 -117.05 995.5 -118.25 996.35 -123.45 999.8 -129.8 995.3 -133.6 992.7 -136.3 989.0 L-136.5 988.7 -136.6 988.6 -137.25 989.1 -137.75 989.35 -138.05 986.85 Q-137.25 985.75 -136.05 984.9 L-135.85 985.3 -134.65 987.2 -133.55 986.45 -133.2 986.8 -130.9 988.6 Q-129.1 989.75 -127.0 990.4 -120.95 992.3 -126.25 984.25 L-126.45 984.0 -126.05 984.05 -127.85 979.3 M-121.6 788.2 L-121.65 788.2 -121.65 787.9 -121.6 783.9 -121.6 787.1 -121.6 787.9 -121.6 788.2 M-76.85 682.85 Q-75.0 676.6 -72.25 670.7 L-72.25 671.45 -71.55 670.75 -76.8 682.85 -76.85 682.85 M-75.8 691.7 Q-77.55 695.9 -79.65 699.75 -82.15 704.3 -85.5 709.05 -87.25 708.2 -89.05 708.45 L-89.8 708.6 Q-85.55 703.15 -81.5 696.55 -80.6 695.05 -79.0 691.2 -77.35 691.1 -75.8 691.7 M-106.35 735.35 Q-102.55 729.85 -99.75 724.55 L-98.6 722.3 -96.3 718.1 Q-94.35 717.8 -92.55 718.45 L-97.85 725.65 -104.55 735.45 -106.35 735.35 M-110.5 745.3 L-111.05 746.45 Q-112.95 750.25 -115.65 759.6 L-116.05 761.25 Q-118.05 761.25 -119.55 762.25 -118.95 758.1 -118.05 755.9 L-116.9 753.15 -115.1 749.4 -113.45 746.45 -112.65 745.05 -110.5 745.3 M-120.05 773.4 Q-118.5 772.65 -116.65 772.65 -116.3 779.75 -114.5 789.3 L-114.35 788.35 -113.95 790.5 Q-115.5 791.3 -116.35 792.7 L-117.45 794.85 Q-118.45 791.75 -118.75 788.05 L-118.85 788.05 -118.9 788.3 -118.9 788.05 -119.55 788.05 -118.9 788.0 -120.05 773.4 M-118.7 788.0 L-118.65 787.9 -118.5 787.1 Q-117.6 782.5 -117.35 780.05 L-118.85 788.0 -118.7 788.0 M-110.65 801.55 L-110.1 802.75 Q-108.15 807.2 -105.1 811.65 L-104.6 812.4 -104.55 812.45 -102.1 816.4 Q-103.2 817.2 -103.8 818.35 -105.05 815.8 -106.45 813.55 L-106.9 812.85 -106.95 812.8 -112.85 803.5 -112.55 803.1 Q-111.75 802.15 -110.65 801.55 M-97.75 827.15 L-97.65 827.5 Q-95.55 835.8 -96.7 844.75 L-97.15 847.95 -98.75 848.2 Q-98.55 846.5 -98.5 844.7 L-98.5 843.4 Q-98.5 836.25 -99.8 830.15 -99.1 828.35 -97.75 827.15 M-99.5 858.4 L-100.2 860.65 Q-102.75 868.7 -106.6 875.7 L-109.35 880.4 Q-110.55 879.4 -112.3 878.9 L-112.55 878.85 -108.45 872.5 Q-104.45 866.0 -101.75 859.9 L-101.2 858.5 -100.9 857.8 -99.5 858.4 M-120.0 888.85 Q-118.3 888.9 -116.45 889.65 L-116.0 889.8 -124.8 901.6 -126.3 903.75 -126.9 903.45 -128.1 903.05 -126.7 900.5 -125.55 898.25 Q-123.1 893.35 -120.0 888.85 M-132.75 913.4 L-133.7 914.8 Q-138.35 922.05 -141.4 930.15 L-142.0 933.0 -143.2 933.3 Q-144.15 933.65 -144.95 934.3 L-145.35 934.7 Q-145.25 932.5 -145.0 931.85 L-143.85 929.1 -142.05 925.35 Q-138.9 919.45 -135.1 913.9 L-135.1 913.85 -134.35 912.75 Q-133.6 912.95 -132.75 913.4 M-145.4 945.35 Q-144.2 944.75 -142.8 944.55 L-142.95 962.05 -142.95 963.4 -142.65 962.0 -142.25 961.9 -142.25 961.95 -141.5 968.9 -140.4 974.0 -140.65 974.2 -142.25 975.65 -143.1 972.8 Q-144.25 968.5 -144.8 963.0 L-144.85 962.85 -144.85 963.15 -144.85 962.5 -145.4 945.35 M-133.15 959.85 L-133.2 960.6 -133.15 959.85 M-129.05 983.15 L-130.55 984.25 -130.7 982.95 -129.05 983.15 M-126.65 981.55 L-126.55 982.05 -126.0 982.85 -126.55 982.05 -126.65 981.55" fill="#a8b38c" fill-rule="evenodd" stroke="none"/>
    <path d="M-75.75 635.65 L-75.1 633.7 Q-74.45 632.15 -72.6 631.55 -70.95 631.0 -69.5 631.9 L-69.4 631.95 -68.95 632.5 Q-67.7 634.3 -66.9 636.4 -66.75 636.8 -66.75 637.3 L-66.8 637.85 -70.15 637.75 Q-72.25 638.65 -72.85 640.9 L-73.3 641.9 -73.5 642.3 Q-74.15 640.3 -75.15 638.55 L-75.9 637.1 -75.75 635.65 M-71.0 636.5 Q-70.4 636.85 -70.6 635.9 -71.25 633.15 -73.05 633.2 -72.65 635.45 -71.0 636.5 M-72.25 670.7 L-72.25 664.8 -72.1 662.1 -70.95 660.2 -68.9 657.75 -68.45 657.4 Q-66.9 656.25 -64.8 656.9 -64.05 657.1 -63.45 657.55 -62.25 658.4 -61.55 660.2 L-61.35 661.55 -61.3 663.4 Q-61.3 666.25 -61.65 669.1 L-61.7 671.2 -62.1 670.65 Q-63.5 668.9 -65.55 668.35 L-66.15 668.2 -67.7 668.15 Q-69.65 668.4 -71.2 670.35 L-71.5 670.7 -71.55 670.75 -72.25 671.45 -72.25 670.7 M-66.2 665.6 Q-65.8 666.7 -65.4 665.1 L-65.05 662.85 Q-64.85 660.05 -66.3 658.9 -67.3 662.2 -66.45 664.95 L-66.2 665.6 M-72.3 681.6 Q-70.3 681.4 -68.4 682.55 L-67.85 682.9 -67.2 683.4 -67.15 683.45 Q-65.1 685.15 -64.85 687.6 L-64.8 688.45 -65.15 689.75 Q-66.65 693.3 -68.85 696.4 L-69.95 698.25 -70.0 698.0 Q-70.6 696.0 -72.05 694.4 L-73.9 692.75 Q-74.85 692.1 -75.8 691.7 -77.35 691.1 -79.0 691.2 L-80.9 691.55 -81.9 691.8 -82.4 691.9 -82.6 691.8 -79.65 685.95 -78.3 683.6 -76.85 682.85 -76.8 682.85 -75.6 682.35 -72.5 681.65 -72.3 681.6 M-101.15 747.3 L-102.7 749.75 -102.9 750.05 Q-103.6 750.95 -103.95 751.95 -104.6 749.5 -106.55 747.65 -107.2 747.05 -108.0 746.5 -109.2 745.65 -110.5 745.3 L-112.65 745.05 -115.05 745.4 -115.35 745.5 -116.8 745.8 -113.9 739.8 -112.55 737.4 Q-111.3 736.65 -109.95 736.2 L-106.85 735.4 -106.35 735.35 -104.55 735.45 Q-102.95 735.85 -101.4 737.1 L-100.5 737.95 Q-99.0 739.65 -98.95 742.05 L-99.3 743.35 -101.15 747.3 M-106.25 790.85 L-106.1 791.0 Q-105.6 791.35 -105.2 792.05 -103.4 795.4 -102.4 799.0 L-101.6 800.95 -102.1 800.75 Q-103.8 800.1 -105.6 800.2 L-108.5 800.65 Q-109.7 800.95 -110.65 801.55 -111.75 802.15 -112.55 803.1 L-112.85 803.5 -113.9 805.3 -114.65 806.7 -114.7 806.85 -115.4 805.35 -116.1 803.85 -117.5 800.85 -118.45 798.35 Q-118.15 796.5 -117.45 794.85 L-116.35 792.7 Q-115.5 791.3 -113.95 790.5 -112.9 789.95 -111.5 789.7 L-110.3 789.55 Q-108.1 789.45 -106.25 790.85 M-91.1 819.8 L-89.4 823.3 Q-89.0 824.3 -89.25 825.75 L-89.3 825.7 Q-91.15 824.5 -93.75 825.15 L-95.25 825.65 Q-96.7 826.2 -97.75 827.15 -99.1 828.35 -99.8 830.15 L-100.05 830.9 -101.2 833.3 -101.75 831.8 Q-102.8 829.25 -104.2 826.95 L-105.45 824.6 -105.05 821.65 -104.05 818.75 -103.8 818.35 Q-103.2 817.2 -102.1 816.4 -101.05 815.65 -99.6 815.2 L-97.95 814.85 Q-95.9 814.65 -94.05 815.75 L-93.05 816.75 -91.1 819.8 M-129.75 975.2 L-129.6 975.3 -128.45 977.8 -127.85 979.3 -126.05 984.05 -126.45 984.0 -127.75 983.55 -129.05 983.15 -130.7 982.95 Q-132.85 982.95 -134.9 984.15 L-136.05 984.9 Q-137.25 985.75 -138.05 986.85 L-139.0 988.45 -139.4 989.35 Q-139.7 988.3 -140.25 987.35 -142.2 984.05 -143.3 980.35 L-143.5 979.2 -143.5 979.0 Q-143.35 977.05 -142.25 975.65 L-140.65 974.2 -140.4 974.0 Q-137.75 972.2 -135.15 972.85 L-134.3 973.05 Q-131.95 973.7 -129.75 975.2 M-137.3 912.75 L-138.35 913.15 Q-138.45 911.7 -137.95 910.7 -136.15 907.3 -133.55 904.45 L-132.5 903.55 -131.15 903.05 Q-129.65 902.65 -128.1 903.05 L-126.9 903.45 -126.3 903.75 Q-123.7 905.05 -122.85 907.45 L-122.7 907.9 Q-121.9 910.5 -122.05 913.45 L-123.6 915.75 Q-125.7 918.5 -127.15 921.7 L-127.3 921.7 Q-128.0 920.2 -128.1 919.35 -128.45 917.65 -129.3 916.3 -130.4 914.65 -132.35 913.6 L-132.75 913.4 Q-133.6 912.95 -134.35 912.75 -135.95 912.35 -137.3 912.75 M-122.35 889.1 L-123.3 889.35 -122.35 887.5 Q-121.0 883.9 -118.75 880.7 L-117.8 879.7 Q-116.85 879.05 -115.85 878.8 -114.3 878.4 -112.55 878.85 L-112.3 878.9 Q-110.55 879.4 -109.35 880.4 -108.35 881.2 -107.8 882.4 -107.3 883.4 -106.95 884.5 -106.4 886.25 -106.25 888.25 L-107.5 890.7 -109.2 893.55 -110.9 896.5 -111.55 894.85 Q-111.95 893.55 -112.65 892.55 L-112.7 892.45 Q-113.95 890.7 -116.0 889.8 L-116.45 889.65 Q-118.3 888.9 -120.0 888.85 L-122.35 889.1 M-103.75 857.5 L-105.55 857.8 Q-103.2 853.85 -103.4 852.4 -103.65 850.9 -102.95 849.85 L-101.45 849.1 Q-100.1 848.5 -98.75 848.2 L-97.15 847.95 Q-94.8 847.6 -92.55 849.15 L-91.8 849.75 Q-89.45 851.75 -89.45 854.75 L-89.8 856.1 -92.25 861.85 -94.0 865.45 Q-94.7 863.4 -95.8 861.85 -96.95 860.15 -98.55 859.0 -99.05 858.65 -99.5 858.4 L-100.9 857.8 -103.75 857.5 M-121.65 774.4 L-122.35 775.05 -123.75 776.2 -124.0 769.55 -123.95 766.85 -121.7 764.05 -119.8 762.4 -119.55 762.25 Q-118.05 761.25 -116.05 761.25 L-114.15 761.45 Q-112.35 761.75 -111.1 762.85 -110.25 763.55 -109.65 764.65 -109.35 765.15 -109.3 765.95 -108.85 769.75 -109.35 773.5 L-109.35 775.65 Q-110.3 774.65 -111.4 774.05 -113.2 773.0 -115.6 772.75 L-116.65 772.65 Q-118.5 772.65 -120.05 773.4 L-121.65 774.4 M-98.85 718.65 L-99.25 718.7 -96.25 712.75 -94.85 710.4 -93.1 709.55 Q-91.5 708.85 -89.8 708.6 L-89.05 708.45 Q-87.25 708.2 -85.5 709.05 -84.6 709.5 -83.7 710.3 L-82.35 711.8 Q-81.35 713.3 -81.35 715.25 L-81.7 716.6 Q-83.25 720.15 -85.5 723.2 -86.2 724.05 -86.55 725.05 -87.1 722.8 -88.75 721.05 L-90.5 719.55 Q-91.5 718.8 -92.55 718.45 -94.35 717.8 -96.3 718.1 L-97.5 718.35 -98.85 718.65 M-71.6 690.4 Q-68.25 686.95 -69.9 684.3 -72.9 686.95 -72.8 690.4 -72.8 691.6 -71.6 690.4 M-86.45 711.1 Q-89.45 713.75 -89.4 717.15 L-88.2 717.2 Q-84.8 713.75 -86.45 711.1 M-105.75 744.15 Q-102.45 740.6 -104.1 737.95 -107.05 740.65 -106.95 744.1 L-105.75 744.15 M-116.55 764.75 L-116.75 767.45 Q-116.55 768.85 -115.8 770.15 -115.2 771.25 -114.7 769.6 -113.4 764.95 -116.2 763.45 L-116.55 764.75 M-108.8 797.4 Q-109.4 792.65 -112.6 792.35 -112.4 796.25 -109.65 798.35 -108.65 799.1 -108.8 797.4 M-136.05 934.2 L-135.95 934.3 -135.85 934.4 Q-133.6 936.35 -132.2 939.25 L-132.4 942.0 -133.35 948.65 -134.65 947.35 Q-135.45 946.4 -136.4 945.75 -138.45 944.35 -141.15 944.4 L-142.8 944.55 Q-144.2 944.75 -145.4 945.35 -146.65 945.85 -147.65 946.75 -147.4 945.7 -147.45 944.6 -147.5 940.8 -146.65 937.0 L-146.2 935.7 -145.35 934.7 -144.95 934.3 Q-144.15 933.65 -143.2 933.3 L-142.0 933.0 -141.35 932.9 Q-138.4 932.55 -136.4 933.95 L-136.05 934.2 M-100.35 817.9 Q-99.7 821.8 -96.7 823.5 -95.6 824.15 -96.0 822.5 -97.15 817.85 -100.35 817.9 M-96.25 856.7 Q-92.9 853.25 -94.55 850.6 -97.55 853.25 -97.5 856.65 L-96.25 856.7 M-115.75 886.45 Q-116.15 888.1 -115.05 887.45 -112.1 885.6 -111.45 881.65 -114.7 881.7 -115.75 886.45 M-131.25 910.5 L-131.45 911.35 Q-131.45 911.95 -130.7 911.6 -127.55 910.1 -126.45 906.3 L-128.25 906.55 Q-130.15 907.35 -131.25 910.5 M-127.3 924.55 L-127.15 924.55 -127.25 924.7 -127.3 924.55 M-141.7 941.2 Q-141.4 942.85 -140.65 941.85 -138.65 939.0 -139.55 935.1 -142.5 936.4 -141.7 941.2 M-136.95 981.6 L-135.7 981.65 Q-135.35 978.2 -138.0 975.25 -139.95 977.8 -136.95 981.6" fill="#443422" fill-rule="evenodd" stroke="none"/>
    <path d="M-71.0 636.5 Q-72.65 635.45 -73.05 633.2 -71.25 633.15 -70.6 635.9 -70.4 636.85 -71.0 636.5 M-66.2 665.6 L-66.45 664.95 Q-67.3 662.2 -66.3 658.9 -64.85 660.05 -65.05 662.85 L-65.4 665.1 Q-65.8 666.7 -66.2 665.6 M-71.6 690.4 Q-72.8 691.6 -72.8 690.4 -72.9 686.95 -69.9 684.3 -68.25 686.95 -71.6 690.4 M-86.45 711.1 Q-84.8 713.75 -88.2 717.2 L-89.4 717.15 Q-89.45 713.75 -86.45 711.1 M-105.75 744.15 L-106.95 744.1 Q-107.05 740.65 -104.1 737.95 -102.45 740.6 -105.75 744.15 M-116.55 764.75 L-116.2 763.45 Q-113.4 764.95 -114.7 769.6 -115.2 771.25 -115.8 770.15 -116.55 768.85 -116.75 767.45 L-116.55 764.75 M-108.8 797.4 Q-108.65 799.1 -109.65 798.35 -112.4 796.25 -112.6 792.35 -109.4 792.65 -108.8 797.4 M-100.35 817.9 Q-97.15 817.85 -96.0 822.5 -95.6 824.15 -96.7 823.5 -99.7 821.8 -100.35 817.9 M-96.25 856.7 L-97.5 856.65 Q-97.55 853.25 -94.55 850.6 -92.9 853.25 -96.25 856.7 M-115.75 886.45 Q-114.7 881.7 -111.45 881.65 -112.1 885.6 -115.05 887.45 -116.15 888.1 -115.75 886.45 M-131.25 910.5 Q-130.15 907.35 -128.25 906.55 L-126.45 906.3 Q-127.55 910.1 -130.7 911.6 -131.45 911.95 -131.45 911.35 L-131.25 910.5 M-141.7 941.2 Q-142.5 936.4 -139.55 935.1 -138.65 939.0 -140.65 941.85 -141.4 942.85 -141.7 941.2 M-136.95 981.6 Q-139.95 977.8 -138.0 975.25 -135.35 978.2 -135.7 981.65 L-136.95 981.6" fill="#ab8458" fill-rule="evenodd" stroke="none"/>
    <path d="M-67.7 668.15 L-66.15 668.2 -65.55 668.35 Q-66.4 673.25 -68.4 682.55 -70.3 681.4 -72.3 681.6 L-67.7 668.15 M-75.8 691.7 Q-74.85 692.1 -73.9 692.75 L-72.05 694.4 -73.75 698.0 Q-77.55 705.45 -82.35 711.8 L-83.7 710.3 Q-84.6 709.5 -85.5 709.05 -82.15 704.3 -79.65 699.75 -77.55 695.9 -75.8 691.7 M-67.85 682.9 L-65.85 682.9 -65.75 683.4 -67.2 683.4 -67.85 682.9 M-88.75 721.05 L-90.75 724.35 Q-94.6 730.9 -99.9 737.2 L-100.5 737.95 -101.4 737.1 Q-102.95 735.85 -104.55 735.45 L-97.85 725.65 -92.55 718.45 Q-91.5 718.8 -90.5 719.55 L-88.75 721.05 M-106.55 747.65 L-107.95 751.1 Q-110.05 756.8 -111.1 762.85 -112.35 761.75 -114.15 761.45 L-116.05 761.25 -115.65 759.6 Q-112.95 750.25 -111.05 746.45 L-110.5 745.3 Q-109.2 745.65 -108.0 746.5 -107.2 747.05 -106.55 747.65 M-111.4 774.05 L-110.4 788.55 -110.5 788.55 -110.3 789.55 -111.5 789.7 Q-112.9 789.95 -113.95 790.5 L-114.35 788.35 -114.5 789.3 Q-116.3 779.75 -116.65 772.65 L-115.6 772.75 Q-113.2 773.0 -111.4 774.05 M-97.95 814.85 L-99.6 815.2 Q-101.05 815.65 -102.1 816.4 L-104.55 812.45 -104.6 812.4 -105.1 811.65 Q-108.15 807.2 -110.1 802.75 L-110.65 801.55 Q-109.7 800.95 -108.5 800.65 L-105.6 800.2 -104.2 802.75 -100.0 810.65 -97.95 814.85 M-93.75 825.15 L-93.65 825.4 Q-90.9 833.35 -91.7 842.5 L-92.55 849.15 Q-94.8 847.6 -97.15 847.95 L-96.7 844.75 Q-95.55 835.8 -97.65 827.5 L-97.75 827.15 Q-96.7 826.2 -95.25 825.65 L-93.75 825.15 M-95.8 861.85 Q-97.95 868.55 -100.7 873.95 -103.55 879.55 -106.95 884.5 -107.3 883.4 -107.8 882.4 -108.35 881.2 -109.35 880.4 L-106.6 875.7 Q-102.75 868.7 -100.2 860.65 L-99.5 858.4 Q-99.05 858.65 -98.55 859.0 -96.95 860.15 -95.8 861.85 M-112.7 892.45 Q-115.4 896.25 -117.7 900.3 -119.95 904.15 -122.7 907.9 L-122.85 907.45 Q-123.7 905.05 -126.3 903.75 L-124.8 901.6 -116.0 889.8 Q-113.95 890.7 -112.7 892.45 M-129.3 916.3 Q-132.85 921.3 -134.9 927.05 -135.7 929.2 -136.05 934.2 L-136.4 933.95 Q-138.4 932.55 -141.35 932.9 L-142.0 933.0 -141.4 930.15 Q-138.35 922.05 -133.7 914.8 L-132.75 913.4 -132.35 913.6 Q-130.4 914.65 -129.3 916.3 M-136.4 945.75 L-136.1 960.5 -136.55 960.6 -136.5 961.55 -136.3 963.85 Q-135.85 968.3 -134.3 973.05 L-135.15 972.85 Q-137.75 972.2 -140.4 974.0 L-141.5 968.9 -142.25 961.95 -142.25 961.9 -142.65 962.0 -142.95 963.4 -142.95 962.05 -142.8 944.55 -141.15 944.4 Q-138.45 944.35 -136.4 945.75 M-126.45 984.0 L-126.25 984.25 Q-120.95 992.3 -127.0 990.4 -129.1 989.75 -130.9 988.6 L-133.2 986.8 -133.55 986.45 -134.65 987.2 -135.85 985.3 -136.05 984.9 -134.9 984.15 Q-132.85 982.95 -130.7 982.95 L-130.55 984.25 -129.05 983.15 -127.75 983.55 -126.45 984.0" fill="#c6cdb4" fill-rule="evenodd" stroke="none"/>
    <path d="M-117.05 994.25 Q-111.65 1001.75 -111.95 1006.6 -112.25 1011.25 -117.5 1012.25 -122.2 1013.65 -133.1 999.15 L-135.2 993.65 -137.8 990.05 -137.95 989.85 -138.05 989.9 -138.25 989.65 -139.0 988.45 -138.05 986.85 -137.75 989.35 -137.7 989.4 -137.25 989.1 -136.6 988.6 -136.5 988.7 -136.3 989.0 Q-133.6 992.7 -129.8 995.3 -123.45 999.8 -118.25 996.35 -117.05 995.5 -117.05 994.25 M-143.5 979.2 Q-146.4 971.45 -146.7 962.9 L-146.7 963.7 Q-151.65 934.65 -138.8 915.1 L-137.3 912.75 Q-135.95 912.35 -134.35 912.75 L-135.1 913.85 -135.1 913.9 Q-138.9 919.45 -142.05 925.35 L-143.85 929.1 -145.0 931.85 Q-145.25 932.5 -145.35 934.7 L-146.2 935.7 -146.65 937.0 Q-147.5 940.8 -147.45 944.6 -147.4 945.7 -147.65 946.75 -146.65 945.85 -145.4 945.35 L-144.85 962.5 -144.85 963.15 -144.85 962.85 -144.8 963.0 Q-144.25 968.5 -143.1 972.8 L-142.25 975.65 Q-143.35 977.05 -143.5 979.0 L-143.5 979.2 M-131.15 903.05 L-122.35 889.1 -120.0 888.85 Q-123.1 893.35 -125.55 898.25 L-126.7 900.5 -128.1 903.05 Q-129.65 902.65 -131.15 903.05 M-115.85 878.8 L-108.9 867.8 Q-105.7 862.65 -103.75 857.5 L-100.9 857.8 -101.2 858.5 -101.75 859.9 Q-104.45 866.0 -108.45 872.5 L-112.55 878.85 Q-114.3 878.4 -115.85 878.8 M-101.45 849.1 Q-99.9 840.5 -101.75 831.8 L-101.2 833.3 -100.05 830.9 -99.8 830.15 Q-98.5 836.25 -98.5 843.4 L-98.5 844.7 Q-98.55 846.5 -98.75 848.2 -100.1 848.5 -101.45 849.1 M-105.05 821.65 Q-106.8 817.65 -109.25 813.65 -112.25 810.8 -114.65 806.7 L-113.9 805.3 -112.85 803.5 -106.95 812.8 -106.9 812.85 -106.45 813.55 Q-105.05 815.8 -103.8 818.35 L-104.05 818.75 -105.05 821.65 M-115.4 805.35 L-116.7 802.75 Q-119.6 796.55 -121.45 788.2 L-121.6 788.2 -121.6 787.9 -121.6 787.1 -121.6 783.9 -121.65 774.4 -120.05 773.4 -118.9 788.0 -119.55 788.05 -118.9 788.05 -118.9 788.3 -118.85 788.05 -118.75 788.05 Q-118.45 791.75 -117.45 794.85 -118.15 796.5 -118.45 798.35 L-117.5 800.85 -116.1 803.85 -115.4 805.35 M-121.7 764.05 Q-120.15 755.4 -115.8 746.45 L-115.35 745.5 -115.05 745.4 -112.65 745.05 -113.45 746.45 -115.1 749.4 -116.9 753.15 -118.05 755.9 Q-118.95 758.1 -119.55 762.25 L-119.8 762.4 -121.7 764.05 M-109.95 736.2 L-98.85 718.65 -97.5 718.35 -96.3 718.1 -98.6 722.3 -99.75 724.55 Q-102.55 729.85 -106.35 735.35 L-106.85 735.4 -109.95 736.2 M-93.1 709.55 L-81.95 691.85 -81.9 691.8 -80.9 691.55 -79.0 691.2 Q-80.6 695.05 -81.5 696.55 -85.55 703.15 -89.8 708.6 -91.5 708.85 -93.1 709.55 M-71.55 670.75 L-71.5 670.7 -75.6 682.35 -76.8 682.85 -71.55 670.75 M-118.7 788.0 L-118.85 788.0 -117.35 780.05 Q-117.6 782.5 -118.5 787.1 L-118.65 787.9 -118.7 788.0 M-121.3 1006.95 Q-120.95 1006.65 -121.3 1005.65 L-121.9 1004.3 -122.55 1003.45 Q-123.55 1002.2 -124.5 1001.6 -125.5 1001.05 -125.9 1001.35 -126.3 1001.7 -125.95 1002.75 L-124.6 1005.0 Q-123.7 1006.15 -122.8 1006.7 L-121.65 1007.1 -121.3 1006.95" fill="#899865" fill-rule="evenodd" stroke="none"/>
    <path d="M-121.3 1006.95 L-121.65 1007.1 -122.8 1006.7 Q-123.7 1006.15 -124.6 1005.0 L-125.95 1002.75 Q-126.3 1001.7 -125.9 1001.35 -125.5 1001.05 -124.5 1001.6 -123.55 1002.2 -122.55 1003.45 L-121.9 1004.3 -121.3 1005.65 Q-120.95 1006.65 -121.3 1006.95" fill="url(#gradient0)" fill-rule="evenodd" stroke="none"/>
    <path d="M-69.4 631.95 Q-75.7 620.65 -86.2 612.95 L-75.75 635.65 M-70.95 660.2 Q-70.85 651.55 -73.3 641.9 M-61.3 663.4 L-60.9 659.55 Q-62.4 647.25 -66.75 637.3 M-62.1 670.65 L-63.1 679.95 Q-62.75 681.4 -64.85 687.6 M-70.0 698.0 Q-74.2 705.75 -80.85 716.55 -87.8 727.75 -97.35 742.3 L-100.6 746.45 -101.15 747.3 -102.7 749.75 Q-108.25 759.2 -108.5 770.1 M-107.2 770.1 L-107.2 770.2 -107.15 787.55 -107.05 787.9 -107.0 788.15 -106.25 790.85 M-102.1 800.75 L-100.75 802.75 Q-99.0 805.1 -97.0 806.35 -93.4 813.2 -91.1 819.8 M-89.3 825.7 Q-84.1 845.75 -91.7 863.25 -97.9 878.15 -124.3 918.25 -132.65 927.95 -133.15 959.85 L-133.2 960.75 M-133.2 960.6 Q-132.75 967.85 -129.75 975.2 M-127.85 979.3 L-126.65 981.55 -125.95 982.8 M-126.0 982.85 L-123.95 985.9 Q-119.75 990.4 -117.05 994.25 -111.65 1001.75 -111.95 1006.6 -112.25 1011.25 -117.5 1012.25 -122.2 1013.65 -133.1 999.15 L-135.2 993.65 -137.8 990.05 -137.95 989.85 M-138.05 989.9 L-138.25 989.65 -139.0 988.45 M-143.5 979.2 Q-146.4 971.45 -146.7 962.9 M-146.7 963.7 Q-151.65 934.65 -138.8 915.1 L-137.3 912.75 M-131.15 903.05 L-122.35 889.1 M-115.85 878.8 L-108.9 867.8 Q-105.7 862.65 -103.75 857.5 M-101.45 849.1 Q-99.9 840.5 -101.75 831.8 M-105.05 821.65 Q-106.8 817.65 -109.25 813.65 -112.25 810.8 -114.65 806.7 M-115.4 805.35 L-116.7 802.75 Q-119.6 796.55 -121.45 788.2 M-121.65 788.2 L-121.65 787.9 -121.6 783.9 -121.65 774.4 M-121.7 764.05 Q-120.15 755.4 -115.8 746.45 L-115.35 745.5 M-109.95 736.2 L-98.85 718.65 M-93.1 709.55 L-81.95 691.85 -81.9 691.8 M-76.85 682.85 Q-75.0 676.6 -72.25 670.7 M-133.2 960.6 L-133.15 959.85 M-126.0 982.85 L-126.55 982.05 -126.65 981.55" fill="none" stroke="#5f6150" stroke-linecap="round" stroke-linejoin="round" stroke-width="1.0"/>
  </g>
  <defs>
    <radialGradient cx="0" cy="0" gradientTransform="matrix(-0.0015, 0.0012, -0.0035, -0.0046, -123.35, 1004.3)" gradientUnits="userSpaceOnUse" id="gradient0" r="819.2" spreadMethod="pad">
      <stop offset="0.0" stop-color="#ffffff"/>
      <stop offset="0.6705882352941176" stop-color="#000000"/>
    </radialGradient>
  </defs>
</svg>
