<?xml version="1.0" encoding="UTF-8" standalone="no"?>
<svg xmlns:xlink="http://www.w3.org/1999/xlink" height="372.4px" width="72.3px" xmlns="http://www.w3.org/2000/svg">
  <g transform="matrix(1.0, 0.0, 0.0, 1.0, 146.7, -702.15)">
    <path d="M-105.15 732.4 L-104.25 730.9 Q-103.0 728.15 -101.25 728.0 L-101.0 727.95 Q-98.45 727.9 -96.3 729.75 -95.2 730.75 -94.45 732.2 L-94.45 732.3 -94.75 732.9 -97.25 737.55 Q-98.15 738.75 -98.35 738.15 -98.85 736.8 -101.4 735.5 -103.8 734.25 -107.8 735.75 L-108.2 735.9 -107.1 734.85 -105.15 732.4 M-86.0 722.15 L-85.8 722.15 -86.0 722.35 -86.0 722.15 M-100.15 729.4 L-101.15 731.3 Q-101.55 732.15 -101.4 732.95 L-101.05 734.8 Q-100.85 735.85 -100.2 735.45 L-98.5 733.3 Q-97.45 731.55 -97.5 730.3 -97.6 729.0 -98.55 728.7 -99.55 728.35 -100.15 729.4 M-114.6 747.35 Q-114.05 747.0 -113.25 747.0 -110.75 746.95 -107.5 749.25 -105.05 751.0 -103.95 753.8 L-103.55 754.9 -104.35 758.95 Q-104.9 761.65 -105.4 762.85 L-105.45 762.95 Q-106.0 764.15 -107.55 762.1 -109.15 760.0 -113.35 758.2 -117.5 756.35 -118.8 760.0 L-116.9 753.55 -116.25 750.4 Q-115.95 748.05 -114.6 747.35 M-110.75 748.05 Q-112.2 747.75 -112.95 749.25 L-114.1 752.0 Q-114.5 753.2 -114.2 754.3 L-113.5 756.8 Q-113.1 758.25 -112.2 757.55 -111.35 756.85 -110.1 754.35 -108.85 751.85 -109.1 750.1 -109.4 748.35 -110.75 748.05 M-120.1 781.05 L-119.6 780.55 Q-117.5 778.6 -113.5 778.45 -109.95 778.35 -106.95 780.55 -106.35 781.6 -105.95 783.6 -104.95 788.1 -103.1 791.9 -104.5 790.85 -106.0 790.0 L-106.85 789.55 Q-108.8 788.65 -110.85 788.75 L-113.45 789.15 -115.1 790.0 Q-116.7 791.35 -116.4 794.3 L-116.25 795.2 -120.2 785.95 Q-121.55 782.95 -120.1 781.05 M-99.65 804.45 Q-97.6 804.25 -95.5 804.95 -94.6 805.75 -93.55 807.45 L-91.05 811.15 -88.2 814.45 -89.8 813.95 -91.55 813.55 Q-93.35 813.2 -95.0 813.5 -97.05 813.85 -98.85 815.15 L-99.05 815.35 -100.8 817.15 Q-101.9 818.8 -101.7 821.05 L-101.75 821.0 Q-104.15 818.65 -106.3 815.7 -108.35 812.9 -108.05 810.85 L-107.7 809.7 -106.45 807.85 Q-105.75 807.0 -104.75 806.3 -103.7 805.55 -102.35 805.05 L-99.65 804.45 M-114.25 780.15 Q-115.6 778.9 -116.85 779.5 -118.15 780.1 -117.85 781.75 L-117.1 784.65 Q-116.7 785.85 -115.8 786.55 L-115.7 786.6 -115.25 787.0 -113.7 788.1 Q-112.5 788.95 -112.2 787.9 -111.95 786.85 -112.45 784.1 -112.95 781.35 -114.25 780.15 M-99.45 814.25 Q-98.0 814.65 -98.1 813.6 -98.2 812.5 -99.55 810.05 -100.9 807.6 -102.5 806.9 L-104.5 806.7 -105.2 807.15 Q-106.2 808.1 -105.45 809.45 L-105.4 809.6 -103.85 811.95 -103.75 812.05 Q-102.95 813.1 -101.95 813.45 L-99.75 814.15 -99.45 814.25 M-94.05 828.0 L-91.1 827.8 -89.35 828.1 Q-86.85 828.7 -84.8 830.6 L-84.75 830.7 Q-84.35 831.8 -84.1 833.7 -83.6 838.3 -82.2 842.25 L-83.85 840.8 -84.85 840.05 Q-86.45 838.95 -88.15 838.5 -90.1 838.05 -92.15 838.45 L-92.95 838.6 Q-94.25 838.95 -95.2 839.7 -96.6 840.75 -97.25 842.6 L-97.4 842.15 Q-98.5 839.2 -99.15 835.8 -99.85 832.25 -98.55 830.5 L-97.85 829.8 -96.6 828.95 Q-95.45 828.25 -94.05 828.0 M-94.55 828.5 Q-95.9 828.95 -95.75 830.65 L-95.3 833.6 Q-95.0 834.85 -94.25 835.6 L-92.95 836.8 -92.3 837.35 Q-91.2 838.35 -90.8 837.35 -90.45 836.35 -90.65 833.55 -90.9 830.75 -92.0 829.4 -92.95 828.3 -93.95 828.35 L-94.55 828.5 M-95.7 856.2 L-93.1 856.55 Q-92.1 856.8 -91.15 857.2 -88.8 858.3 -87.35 860.4 L-87.3 860.5 Q-85.8 862.75 -88.0 866.65 -89.85 869.9 -91.95 872.5 -91.95 871.6 -92.2 870.8 -92.75 868.75 -94.65 867.45 L-95.45 866.95 Q-97.1 866.05 -98.85 865.8 L-101.55 865.85 -102.95 866.2 Q-104.2 866.55 -105.4 867.1 L-106.15 867.45 Q-103.9 864.5 -102.1 860.95 L-101.85 860.45 -101.6 859.9 Q-100.75 858.1 -99.95 857.2 -98.6 856.55 -97.2 856.35 L-95.7 856.2 M-91.35 857.85 Q-92.0 857.85 -92.75 858.3 -94.3 859.2 -95.35 861.8 -96.45 864.35 -96.4 865.5 -96.35 866.55 -94.95 866.0 L-93.85 865.5 -92.6 864.9 Q-91.6 864.45 -90.95 863.35 L-89.6 860.65 Q-88.95 859.1 -90.05 858.25 -90.65 857.8 -91.35 857.85 M-109.2 878.25 L-106.7 878.6 -105.45 879.0 Q-103.3 879.8 -101.85 881.35 L-100.9 882.55 Q-100.15 883.65 -100.3 885.15 -100.45 886.7 -101.55 888.7 -103.45 891.95 -105.55 894.55 L-105.6 893.85 Q-105.9 891.35 -107.85 889.8 -108.4 889.35 -109.05 889.0 -110.35 888.25 -111.65 888.0 L-116.55 888.2 Q-118.05 888.65 -119.45 889.35 L-119.75 889.5 -118.25 887.45 -117.9 886.85 -117.6 886.4 -117.25 885.85 -115.2 881.95 Q-114.4 880.15 -113.55 879.25 L-112.9 878.95 Q-111.05 878.25 -109.2 878.25 M-127.7 902.4 L-126.85 902.25 -124.7 902.45 Q-123.75 902.65 -122.8 903.05 -121.5 903.65 -120.2 904.75 L-118.65 906.4 Q-117.25 908.25 -116.4 910.8 L-116.3 911.15 Q-117.15 911.95 -118.15 913.7 -120.4 917.45 -122.25 919.7 L-122.3 919.4 -122.55 918.35 Q-123.3 916.0 -124.9 914.4 -126.0 913.35 -127.45 912.65 -128.2 912.25 -128.9 912.1 L-130.7 911.85 Q-132.45 911.85 -134.0 912.95 L-133.65 911.8 Q-132.8 909.1 -131.45 906.3 -129.85 902.95 -127.7 902.4 M-103.7 880.3 Q-104.8 879.45 -106.25 880.3 L-106.35 880.35 Q-107.85 881.25 -108.95 883.85 L-109.35 884.85 Q-110.05 886.65 -110.0 887.55 -109.95 888.6 -108.6 888.05 L-106.2 886.95 -105.15 886.15 -104.55 885.4 -104.45 885.2 -103.2 882.75 Q-102.55 881.2 -103.7 880.3 M-128.8 930.15 L-128.0 932.2 Q-128.2 933.4 -129.05 935.25 -130.45 938.3 -131.3 941.3 L-131.8 941.15 -132.7 940.85 -132.95 940.3 Q-133.6 938.8 -134.55 937.65 -136.1 935.95 -138.35 935.1 L-139.65 934.7 -142.65 934.8 -144.5 935.7 -144.9 936.0 Q-144.3 932.65 -143.0 929.15 -142.3 927.2 -141.3 926.1 -140.2 924.85 -138.75 924.7 L-138.6 924.65 -136.0 924.75 Q-133.9 925.15 -131.95 926.55 L-131.65 926.8 Q-129.85 928.15 -128.8 930.15 M-115.95 987.85 L-112.65 991.75 -114.5 991.15 -116.0 990.85 Q-117.9 990.5 -119.6 990.85 -121.55 991.2 -123.3 992.45 L-123.6 992.65 Q-124.75 993.5 -125.35 994.55 -126.35 996.2 -126.15 998.35 L-126.6 997.95 -129.5 994.65 -130.75 993.0 Q-131.9 991.45 -132.3 990.15 L-132.35 989.85 -132.5 988.0 -132.15 987.0 -130.95 985.2 -129.25 983.65 Q-128.2 982.85 -126.8 982.35 L-124.2 981.75 Q-122.1 981.55 -119.95 982.25 -119.05 983.05 -118.0 984.75 L-115.95 987.85 M-109.7 1007.5 L-109.25 1007.9 Q-108.8 1009.0 -108.55 1011.0 -108.05 1015.6 -106.65 1019.55 -107.7 1018.55 -108.85 1017.7 L-109.3 1017.35 Q-111.15 1016.05 -113.15 1015.7 -114.85 1015.4 -116.6 1015.75 L-117.95 1016.1 Q-119.25 1016.55 -120.15 1017.45 -121.15 1018.4 -121.7 1019.9 L-122.4 1017.9 -123.6 1013.1 -123.85 1010.35 Q-123.8 1009.1 -123.3 1008.25 L-122.3 1007.1 -121.4 1006.45 Q-120.2 1005.7 -118.85 1005.4 L-115.55 1005.1 -114.15 1005.3 Q-111.75 1005.8 -109.7 1007.5 M-143.0 967.05 L-144.65 963.25 Q-145.65 961.05 -145.1 959.5 -144.85 958.55 -144.05 957.85 L-142.9 957.0 Q-142.15 956.55 -141.15 956.25 L-137.95 955.75 -134.85 956.15 Q-133.05 956.65 -131.4 957.85 -130.8 958.9 -130.4 960.9 -129.4 965.4 -127.55 969.2 L-130.45 967.3 -131.7 966.7 Q-133.65 965.9 -135.7 966.05 L-137.9 966.45 Q-139.2 966.8 -139.9 967.65 -141.35 969.25 -140.7 972.5 L-141.35 970.95 -143.0 967.05 M-123.05 903.4 L-123.4 903.25 Q-124.75 902.8 -125.65 904.25 L-127.05 906.85 Q-127.6 908.05 -127.4 909.1 L-127.3 909.65 -126.95 911.7 Q-126.65 913.15 -125.7 912.55 -124.8 911.95 -123.3 909.6 -121.8 907.25 -121.9 905.5 -122.0 903.9 -123.05 903.4 M-136.3 925.45 Q-136.95 925.7 -137.4 926.55 L-138.55 929.3 Q-138.95 930.45 -138.7 931.5 L-138.65 931.6 -137.95 934.1 Q-137.55 935.55 -136.65 934.85 -135.8 934.15 -134.55 931.65 -133.3 929.15 -133.55 927.4 -133.85 925.65 -135.2 925.35 L-136.3 925.45 M-141.3 956.8 Q-142.6 957.4 -142.3 959.05 L-141.55 961.95 Q-141.15 963.15 -140.25 963.85 L-139.25 964.6 -138.15 965.4 -137.75 965.65 -136.95 965.7 -136.65 965.2 Q-136.4 964.15 -136.9 961.4 -137.4 958.65 -138.7 957.45 -139.9 956.3 -141.05 956.7 L-141.3 956.8 M-128.45 989.05 L-128.2 989.35 Q-127.4 990.4 -126.4 990.75 L-124.3 991.45 -123.9 991.55 Q-122.45 991.95 -122.55 990.9 -122.65 989.8 -124.0 987.35 -125.35 984.9 -126.95 984.2 L-129.05 984.05 -129.65 984.45 Q-130.7 985.45 -129.85 986.9 L-129.75 987.05 -128.45 989.05 M-119.0 1005.8 Q-120.35 1006.25 -120.2 1007.95 L-119.75 1010.9 Q-119.45 1012.15 -118.7 1012.9 L-117.95 1013.6 -116.75 1014.65 Q-115.65 1015.65 -115.25 1014.65 -114.9 1013.65 -115.1 1010.85 -115.35 1008.05 -116.45 1006.7 -117.55 1005.4 -118.8 1005.75 L-119.0 1005.8" fill="#443422" fill-rule="evenodd" stroke="none"/>
    <path d="M-107.8 735.75 Q-103.8 734.25 -101.4 735.5 -98.85 736.8 -98.35 738.15 -98.15 738.75 -97.25 737.55 -102.1 746.8 -103.95 753.8 -105.05 751.0 -107.5 749.25 -110.75 746.95 -113.25 747.0 -114.05 747.0 -114.6 747.35 L-114.25 746.45 Q-112.6 741.95 -107.8 735.75 M-94.75 732.9 L-94.45 732.3 -94.45 732.2 Q-95.2 730.75 -96.3 729.75 -98.45 727.9 -101.0 727.95 L-101.25 728.0 Q-91.5 717.2 -74.9 702.65 -87.4 719.8 -94.75 732.9 M-116.9 753.55 L-118.8 760.0 Q-117.5 756.35 -113.35 758.2 -109.15 760.0 -107.55 762.1 -106.0 764.15 -105.45 762.95 L-105.4 762.85 Q-106.9 777.35 -103.85 784.8 L-104.35 784.8 Q-100.5 801.55 -93.65 805.85 L-91.6 809.9 -91.05 811.15 -93.55 807.45 Q-94.6 805.75 -95.5 804.95 -97.6 804.25 -99.65 804.45 L-104.2 796.25 Q-106.0 793.1 -106.85 789.55 L-106.0 790.0 Q-104.5 790.85 -103.1 791.9 -104.95 788.1 -105.95 783.6 -106.35 781.6 -106.95 780.55 -109.95 778.35 -113.5 778.45 -117.5 778.6 -119.6 780.55 L-120.1 781.05 Q-121.9 771.0 -120.9 766.6 -119.9 762.0 -116.9 753.55 M-115.1 790.0 L-113.45 789.15 -110.85 788.75 Q-109.95 793.8 -108.25 798.6 -106.9 802.45 -104.75 806.3 -105.75 807.0 -106.45 807.85 L-112.0 798.95 Q-114.35 795.1 -115.1 790.0 M-95.0 813.5 Q-93.35 813.2 -91.55 813.55 L-89.8 813.95 Q-86.2 822.5 -84.75 830.7 L-84.8 830.6 Q-86.85 828.7 -89.35 828.1 -89.75 826.45 -90.3 824.9 -92.4 819.0 -95.0 813.5 M-100.8 817.15 L-99.05 815.35 Q-96.2 820.25 -94.65 825.6 L-94.3 827.0 -94.05 828.0 Q-95.45 828.25 -96.6 828.95 L-97.3 826.35 Q-98.7 821.4 -100.8 817.15 M-88.15 838.5 Q-86.45 838.95 -84.85 840.05 L-83.85 840.8 Q-83.8 850.95 -87.35 860.4 -88.8 858.3 -91.15 857.2 -89.05 849.6 -88.35 842.0 L-88.15 838.5 M-95.2 839.7 Q-94.25 838.95 -92.95 838.6 -93.0 841.4 -93.35 844.25 L-94.5 851.15 -95.35 854.85 -95.7 856.2 -97.2 856.35 -96.65 854.55 -95.8 850.85 Q-95.25 847.65 -95.15 844.2 L-95.15 842.9 -95.2 839.7 M-101.55 865.85 L-98.85 865.8 Q-100.8 870.7 -103.25 875.2 L-105.45 879.0 -106.7 878.6 -109.2 878.25 -105.1 872.0 -101.55 865.85 M-94.65 867.45 Q-92.75 868.75 -92.2 870.8 -95.35 876.85 -100.3 885.15 -100.15 883.65 -100.9 882.55 L-101.85 881.35 Q-99.45 877.55 -97.35 873.45 -95.9 870.65 -94.65 867.45 M-124.7 902.45 L-123.35 900.0 -122.2 897.75 Q-119.7 892.75 -116.55 888.2 L-111.65 888.0 -111.95 888.4 -121.45 901.1 -122.8 903.05 Q-123.75 902.65 -124.7 902.45 M-107.85 889.8 Q-105.9 891.35 -105.6 893.85 L-112.15 904.25 -116.4 910.8 Q-117.25 908.25 -118.65 906.4 L-117.15 904.25 -114.35 899.8 Q-111.35 894.6 -107.85 889.8 M-122.3 919.4 L-123.35 920.75 Q-126.75 925.3 -128.8 930.15 -129.85 928.15 -131.65 926.8 L-131.55 926.55 Q-130.5 923.55 -129.0 920.75 -127.25 917.45 -124.9 914.4 -123.3 916.0 -122.55 918.35 L-122.3 919.4 M-131.8 941.15 L-131.95 942.65 Q-132.7 950.8 -130.35 959.8 L-130.7 959.2 -129.0 965.65 -128.95 965.7 -128.25 965.7 Q-127.1 969.75 -125.75 972.9 L-123.1 977.8 Q-121.05 980.85 -118.65 982.35 L-115.95 987.85 -118.0 984.75 Q-119.05 983.05 -119.95 982.25 -122.1 981.55 -124.2 981.75 L-129.2 972.75 Q-130.85 969.9 -131.7 966.7 L-130.45 967.3 -127.55 969.2 Q-129.4 965.4 -130.4 960.9 -130.8 958.9 -131.4 957.85 -133.05 956.65 -134.85 956.15 -136.05 948.95 -135.3 942.65 L-135.3 942.35 -134.55 937.65 Q-133.6 938.8 -132.95 940.3 L-132.7 940.85 -131.8 941.15 M-114.5 991.15 Q-111.1 999.55 -109.7 1007.5 -111.75 1005.8 -114.15 1005.3 -114.65 1003.3 -115.3 1001.4 -117.25 995.9 -119.6 990.85 -117.9 990.5 -116.0 990.85 L-114.5 991.15 M-108.85 1017.7 Q-108.85 1028.9 -113.35 1039.25 -114.95 1043.15 -117.95 1048.75 L-117.45 1049.05 -117.7 1049.5 -120.0 1053.55 Q-122.15 1059.3 -124.35 1063.45 L-126.75 1063.3 Q-132.15 1060.25 -131.0 1052.55 L-130.35 1049.2 -130.2 1048.65 Q-129.45 1046.2 -128.25 1043.9 L-128.05 1043.5 -127.35 1043.85 -123.4 1035.9 -122.85 1034.5 -121.65 1031.05 Q-121.15 1029.25 -120.8 1027.35 -120.25 1024.15 -120.15 1020.7 L-120.15 1019.4 -120.15 1017.45 Q-119.25 1016.55 -117.95 1016.1 L-118.35 1020.75 -119.5 1027.65 -120.35 1031.35 -121.85 1036.65 Q-123.25 1041.05 -125.0 1045.1 L-124.75 1045.25 -124.9 1045.7 -125.55 1049.2 Q-125.65 1051.0 -125.35 1052.85 -124.4 1059.1 -119.55 1050.75 L-118.65 1049.2 -118.55 1049.05 -118.35 1048.55 -121.0 1047.2 Q-118.5 1041.6 -116.5 1034.8 -114.1 1026.65 -113.35 1018.5 L-113.15 1015.7 Q-111.15 1016.05 -109.3 1017.35 L-108.85 1017.7 M-138.6 924.65 L-136.4 920.75 -131.75 913.4 -131.75 913.35 -130.7 911.85 -128.9 912.1 -130.35 914.3 -134.05 920.75 -136.0 924.75 -138.6 924.65 M-142.65 934.8 L-139.65 934.7 -140.3 937.2 -141.2 942.65 -141.5 946.1 Q-141.8 950.7 -141.3 955.05 L-141.15 956.25 Q-142.15 956.55 -142.9 957.0 -143.8 953.5 -143.9 949.6 -144.05 946.4 -143.7 942.65 L-143.4 939.6 -143.1 937.2 -142.65 934.8 M-139.9 967.65 Q-139.2 966.8 -137.9 966.45 L-135.7 966.05 Q-134.8 970.7 -133.25 975.1 -131.75 979.35 -129.25 983.65 L-130.95 985.2 -137.0 975.45 Q-139.05 972.05 -139.9 967.65 M-118.85 1005.4 Q-120.2 1005.7 -121.4 1006.45 L-122.3 1002.85 Q-123.55 998.45 -125.35 994.55 -124.75 993.5 -123.6 992.65 -121.1 997.2 -119.65 1002.1 L-119.3 1003.5 -118.85 1005.4" fill="#a8b38c" fill-rule="evenodd" stroke="none"/>
    <path d="M-100.15 729.4 Q-99.55 728.35 -98.55 728.7 -97.6 729.0 -97.5 730.3 -97.45 731.55 -98.5 733.3 L-100.2 735.45 Q-100.85 735.85 -101.05 734.8 L-101.4 732.95 Q-101.55 732.15 -101.15 731.3 L-100.15 729.4 M-110.75 748.05 Q-109.4 748.35 -109.1 750.1 -108.85 751.85 -110.1 754.35 -111.35 756.85 -112.2 757.55 -113.1 758.25 -113.5 756.8 L-114.2 754.3 Q-114.5 753.2 -114.1 752.0 L-112.95 749.25 Q-112.2 747.75 -110.75 748.05 M-114.25 780.15 Q-112.95 781.35 -112.45 784.1 -111.95 786.85 -112.2 787.9 -112.5 788.95 -113.7 788.1 L-115.25 787.0 -115.7 786.6 -115.8 786.55 Q-116.7 785.85 -117.1 784.65 L-117.85 781.75 Q-118.15 780.1 -116.85 779.5 -115.6 778.9 -114.25 780.15 M-99.45 814.25 L-99.75 814.15 -101.95 813.45 Q-102.95 813.1 -103.75 812.05 L-103.85 811.95 -105.4 809.6 -105.45 809.45 Q-106.2 808.1 -105.2 807.15 L-104.5 806.7 -102.5 806.9 Q-100.9 807.6 -99.55 810.05 -98.2 812.5 -98.1 813.6 -98.0 814.65 -99.45 814.25 M-94.55 828.5 L-93.95 828.35 Q-92.95 828.3 -92.0 829.4 -90.9 830.75 -90.65 833.55 -90.45 836.35 -90.8 837.35 -91.2 838.35 -92.3 837.35 L-92.95 836.8 -94.25 835.6 Q-95.0 834.85 -95.3 833.6 L-95.75 830.65 Q-95.9 828.95 -94.55 828.5 M-91.35 857.85 Q-90.65 857.8 -90.05 858.25 -88.95 859.1 -89.6 860.65 L-90.95 863.35 Q-91.6 864.45 -92.6 864.9 L-93.85 865.5 -94.95 866.0 Q-96.35 866.55 -96.4 865.5 -96.45 864.35 -95.35 861.8 -94.3 859.2 -92.75 858.3 -92.0 857.85 -91.35 857.85 M-103.7 880.3 Q-102.55 881.2 -103.2 882.75 L-104.45 885.2 -104.55 885.4 -105.15 886.15 -106.2 886.95 -108.6 888.05 Q-109.95 888.6 -110.0 887.55 -110.05 886.65 -109.35 884.85 L-108.95 883.85 Q-107.85 881.25 -106.35 880.35 L-106.25 880.3 Q-104.8 879.45 -103.7 880.3 M-123.05 903.4 Q-122.0 903.9 -121.9 905.5 -121.8 907.25 -123.3 909.6 -124.8 911.95 -125.7 912.55 -126.65 913.15 -126.95 911.7 L-127.3 909.65 -127.4 909.1 Q-127.6 908.05 -127.05 906.85 L-125.65 904.25 Q-124.75 902.8 -123.4 903.25 L-123.05 903.4 M-136.3 925.45 L-135.2 925.35 Q-133.85 925.65 -133.55 927.4 -133.3 929.15 -134.55 931.65 -135.8 934.15 -136.65 934.85 -137.55 935.55 -137.95 934.1 L-138.65 931.6 -138.7 931.5 Q-138.95 930.45 -138.55 929.3 L-137.4 926.55 Q-136.95 925.7 -136.3 925.45 M-141.3 956.8 L-141.05 956.7 Q-139.9 956.3 -138.7 957.45 -137.4 958.65 -136.9 961.4 -136.4 964.15 -136.65 965.2 L-136.95 965.7 -137.75 965.65 -138.15 965.4 -139.25 964.6 -140.25 963.85 Q-141.15 963.15 -141.55 961.95 L-142.3 959.05 Q-142.6 957.4 -141.3 956.8 M-128.45 989.05 L-129.75 987.05 -129.85 986.9 Q-130.7 985.45 -129.65 984.45 L-129.05 984.05 -126.95 984.2 Q-125.35 984.9 -124.0 987.35 -122.65 989.8 -122.55 990.9 -122.45 991.95 -123.9 991.55 L-124.3 991.45 -126.4 990.75 Q-127.4 990.4 -128.2 989.35 L-128.45 989.05 M-119.0 1005.8 L-118.8 1005.75 Q-117.55 1005.4 -116.45 1006.7 -115.35 1008.05 -115.1 1010.85 -114.9 1013.65 -115.25 1014.65 -115.65 1015.65 -116.75 1014.65 L-117.95 1013.6 -118.7 1012.9 Q-119.45 1012.15 -119.75 1010.9 L-120.2 1007.95 Q-120.35 1006.25 -119.0 1005.8" fill="#ab8458" fill-rule="evenodd" stroke="none"/>
    <path d="M-106.85 789.55 Q-106.0 793.1 -104.2 796.25 L-99.65 804.45 -102.35 805.05 Q-103.7 805.55 -104.75 806.3 -106.9 802.45 -108.25 798.6 -109.95 793.8 -110.85 788.75 -108.8 788.65 -106.85 789.55 M-99.05 815.35 L-98.85 815.15 Q-97.05 813.85 -95.0 813.5 -92.4 819.0 -90.3 824.9 -89.75 826.45 -89.35 828.1 L-91.1 827.8 -94.05 828.0 -94.3 827.0 -94.65 825.6 Q-96.2 820.25 -99.05 815.35 M-92.95 838.6 L-92.15 838.45 Q-90.1 838.05 -88.15 838.5 L-88.35 842.0 Q-89.05 849.6 -91.15 857.2 -92.1 856.8 -93.1 856.55 L-95.7 856.2 -95.35 854.85 -94.5 851.15 -93.35 844.25 Q-93.0 841.4 -92.95 838.6 M-98.85 865.8 Q-97.1 866.05 -95.45 866.95 L-94.65 867.45 Q-95.9 870.65 -97.35 873.45 -99.45 877.55 -101.85 881.35 -103.3 879.8 -105.45 879.0 L-103.25 875.2 Q-100.8 870.7 -98.85 865.8 M-111.65 888.0 Q-110.35 888.25 -109.05 889.0 -108.4 889.35 -107.85 889.8 -111.35 894.6 -114.35 899.8 L-117.15 904.25 -118.65 906.4 -120.2 904.75 Q-121.5 903.65 -122.8 903.05 L-121.45 901.1 -111.95 888.4 -111.65 888.0 M-128.9 912.1 Q-128.2 912.25 -127.45 912.65 -126.0 913.35 -124.9 914.4 -127.25 917.45 -129.0 920.75 -130.5 923.55 -131.55 926.55 L-131.65 926.8 -131.95 926.55 Q-133.9 925.15 -136.0 924.75 L-134.05 920.75 -130.35 914.3 -128.9 912.1 M-139.65 934.7 L-138.35 935.1 Q-136.1 935.95 -134.55 937.65 L-135.3 942.35 -135.3 942.65 Q-136.05 948.95 -134.85 956.15 L-137.95 955.75 -141.15 956.25 -141.3 955.05 Q-141.8 950.7 -141.5 946.1 L-141.2 942.65 -140.3 937.2 -139.65 934.7 M-131.7 966.7 Q-130.85 969.9 -129.2 972.75 L-124.2 981.75 -126.8 982.35 Q-128.2 982.85 -129.25 983.65 -131.75 979.35 -133.25 975.1 -134.8 970.7 -135.7 966.05 -133.65 965.9 -131.7 966.7 M-119.6 990.85 Q-117.25 995.9 -115.3 1001.4 -114.65 1003.3 -114.15 1005.3 L-115.55 1005.1 -118.85 1005.4 -119.3 1003.5 -119.65 1002.1 Q-121.1 997.2 -123.6 992.65 L-123.3 992.45 Q-121.55 991.2 -119.6 990.85 M-117.95 1016.1 L-116.6 1015.75 Q-114.85 1015.4 -113.15 1015.7 L-113.35 1018.5 Q-114.1 1026.65 -116.5 1034.8 -118.5 1041.6 -121.0 1047.2 L-118.35 1048.55 -118.55 1049.05 -118.65 1049.2 -119.55 1050.75 Q-124.4 1059.1 -125.35 1052.85 -125.65 1051.0 -125.55 1049.2 L-124.9 1045.7 -124.75 1045.25 -125.0 1045.1 Q-123.25 1041.05 -121.85 1036.65 L-120.35 1031.35 -119.5 1027.65 -118.35 1020.75 -117.95 1016.1" fill="#c6cdb4" fill-rule="evenodd" stroke="none"/>
    <path d="M-115.1 790.0 Q-114.35 795.1 -112.0 798.95 L-106.45 807.85 -107.7 809.7 -108.05 810.85 -108.8 809.9 Q-113.45 803.9 -116.4 794.3 -116.7 791.35 -115.1 790.0 M-101.75 821.0 L-101.7 821.05 Q-101.9 818.8 -100.8 817.15 -98.7 821.4 -97.3 826.35 L-96.6 828.95 -97.85 829.8 -98.55 830.5 Q-99.65 825.75 -101.75 821.0 M-97.4 842.15 L-97.25 842.6 Q-96.6 840.75 -95.2 839.7 L-95.15 842.9 -95.15 844.2 Q-95.25 847.65 -95.8 850.85 L-96.65 854.55 -97.2 856.35 Q-98.6 856.55 -99.95 857.2 -100.75 858.1 -101.6 859.9 L-101.85 860.45 Q-97.7 851.35 -97.4 842.15 M-105.4 867.1 Q-104.2 866.55 -102.95 866.2 L-101.55 865.85 -105.1 872.0 -109.2 878.25 Q-111.05 878.25 -112.9 878.95 L-105.55 867.3 -105.4 867.1 M-119.45 889.35 Q-118.05 888.65 -116.55 888.2 -119.7 892.75 -122.2 897.75 L-123.35 900.0 -124.7 902.45 -126.85 902.25 -127.7 902.4 -119.45 889.35 M-124.35 1063.45 Q-128.65 1071.65 -133.05 1073.5 -137.35 1075.35 -140.6 1071.1 -144.0 1067.55 -135.9 1051.35 L-133.95 1049.2 -130.55 1043.8 -129.8 1042.6 Q-122.6 1030.3 -122.4 1017.9 L-121.7 1019.9 Q-121.15 1018.4 -120.15 1017.45 L-120.15 1019.4 -120.15 1020.7 Q-120.25 1024.15 -120.8 1027.35 -121.15 1029.25 -121.65 1031.05 L-122.85 1034.5 -123.4 1035.9 -127.35 1043.85 -128.05 1043.5 -128.25 1043.9 Q-129.45 1046.2 -130.2 1048.65 L-130.35 1049.2 -131.0 1052.55 Q-132.15 1060.25 -126.75 1063.3 L-124.35 1063.45 M-123.85 1010.35 Q-127.15 1000.0 -129.5 994.65 L-126.6 997.95 -126.15 998.35 Q-126.35 996.2 -125.35 994.55 -123.55 998.45 -122.3 1002.85 L-121.4 1006.45 -122.3 1007.1 -123.3 1008.25 Q-123.8 1009.1 -123.85 1010.35 M-132.3 990.15 Q-139.6 980.1 -143.0 967.05 L-141.35 970.95 -140.7 972.5 Q-141.35 969.25 -139.9 967.65 -139.05 972.05 -137.0 975.45 L-130.95 985.2 -132.15 987.0 -132.5 988.0 Q-138.0 981.75 -141.35 970.95 -138.0 981.75 -132.5 988.0 L-132.35 989.85 -132.6 989.6 -132.3 990.15 M-145.1 959.5 Q-146.85 951.2 -145.8 942.65 L-144.85 937.2 -144.5 935.7 -142.65 934.8 -143.1 937.2 -143.4 939.6 -143.7 942.65 Q-144.05 946.4 -143.9 949.6 -143.8 953.5 -142.9 957.0 L-144.05 957.85 Q-144.85 958.55 -145.1 959.5 M-141.3 926.1 L-138.85 920.75 -135.45 914.6 -133.65 911.8 -134.0 912.95 Q-132.45 911.85 -130.7 911.85 L-131.75 913.35 -131.75 913.4 -136.4 920.75 -138.6 924.65 -138.75 924.7 Q-140.2 924.85 -141.3 926.1 M-123.3 1008.25 Q-124.35 1003.1 -126.6 997.95 -124.35 1003.1 -123.3 1008.25 M-133.95 1049.2 L-131.95 1047.0 -129.9 1043.05 -129.8 1042.6 -129.9 1043.05 -131.95 1047.0 -133.95 1049.2 M-135.9 1059.3 Q-136.7 1060.1 -137.3 1061.5 -137.95 1062.85 -138.05 1063.9 L-137.9 1065.1 -137.6 1065.35 Q-137.2 1065.55 -136.4 1064.75 L-135.5 1063.6 -135.0 1062.65 Q-134.4 1061.25 -134.25 1060.1 -134.2 1058.95 -134.65 1058.75 -135.15 1058.5 -135.9 1059.3" fill="#899865" fill-rule="evenodd" stroke="none"/>
    <path d="M-135.9 1059.3 Q-135.15 1058.5 -134.65 1058.75 -134.2 1058.95 -134.25 1060.1 -134.4 1061.25 -135.0 1062.65 L-135.5 1063.6 -136.4 1064.75 Q-137.2 1065.55 -137.6 1065.35 L-137.9 1065.1 -138.05 1063.9 Q-137.95 1062.85 -137.3 1061.5 -136.7 1060.1 -135.9 1059.3" fill="url(#gradient0)" fill-rule="evenodd" stroke="none"/>
    <path d="M-105.15 732.4 L-107.1 734.85 M-97.25 737.55 L-94.75 732.9 Q-87.4 719.8 -74.9 702.65 -91.5 717.2 -101.25 728.0 M-103.95 753.8 Q-102.1 746.8 -97.25 737.55 M-107.8 735.75 Q-112.6 741.95 -114.25 746.45 L-114.6 747.35 M-116.9 753.55 Q-119.9 762.0 -120.9 766.6 -121.9 771.0 -120.1 781.05 M-91.05 811.15 L-91.6 809.9 -93.65 805.85 Q-100.5 801.55 -104.35 784.8 M-103.85 784.8 Q-106.9 777.35 -105.4 762.85 M-116.4 794.3 Q-113.45 803.9 -108.8 809.9 L-108.05 810.85 M-101.75 821.0 Q-99.65 825.75 -98.55 830.5 M-84.75 830.7 Q-86.2 822.5 -89.8 813.95 M-101.85 860.45 L-102.1 860.95 M-112.9 878.95 L-105.55 867.3 -105.4 867.1 M-119.45 889.35 L-127.7 902.4 M-117.9 886.85 L-117.6 886.4 M-100.3 885.15 Q-95.35 876.85 -92.2 870.8 M-97.4 842.15 Q-97.7 851.35 -101.85 860.45 M-83.85 840.8 Q-83.8 850.95 -87.35 860.4 M-116.4 910.8 L-112.15 904.25 -105.6 893.85 M-122.3 919.4 L-123.35 920.75 Q-126.75 925.3 -128.8 930.15 M-131.8 941.15 L-131.95 942.65 Q-132.7 950.8 -130.35 959.8 M-130.7 959.2 L-129.0 965.65 -128.95 965.7 M-128.25 965.7 Q-127.1 969.75 -125.75 972.9 L-123.1 977.8 Q-121.05 980.85 -118.65 982.35 L-115.95 987.85 M-114.5 991.15 Q-111.1 999.55 -109.7 1007.5 M-108.85 1017.7 Q-108.85 1028.9 -113.35 1039.25 -114.95 1043.15 -117.95 1048.75 M-117.45 1049.05 L-117.7 1049.5 -120.0 1053.55 Q-122.15 1059.3 -124.35 1063.45 -128.65 1071.65 -133.05 1073.5 -137.35 1075.35 -140.6 1071.1 -144.0 1067.55 -135.9 1051.35 L-133.95 1049.2 -131.95 1047.0 -129.9 1043.05 -129.8 1042.6 M-123.85 1010.35 Q-127.15 1000.0 -129.5 994.65 M-132.3 990.15 Q-139.6 980.1 -143.0 967.05 M-145.1 959.5 Q-146.85 951.2 -145.8 942.65 L-144.85 937.2 -144.5 935.7 M-141.3 926.1 L-138.85 920.75 -135.45 914.6 -133.65 911.8 M-132.6 989.6 L-132.35 989.85" fill="none" stroke="#5f6150" stroke-linecap="round" stroke-linejoin="round" stroke-width="1.0"/>
    <path d="M-133.95 1049.2 L-130.55 1043.8 -129.8 1042.6 Q-122.6 1030.3 -122.4 1017.9 M-141.35 970.95 Q-138.0 981.75 -132.5 988.0 M-126.6 997.95 Q-124.35 1003.1 -123.3 1008.25" fill="none" stroke="#5f6150" stroke-linecap="round" stroke-linejoin="round" stroke-width="1.0"/>
  </g>
  <defs>
    <radialGradient cx="0" cy="0" gradientTransform="matrix(-0.0018, -8.0E-4, 0.0026, -0.0052, -136.15, 1062.25)" gradientUnits="userSpaceOnUse" id="gradient0" r="819.2" spreadMethod="pad">
      <stop offset="0.0" stop-color="#ffffff"/>
      <stop offset="0.6705882352941176" stop-color="#000000"/>
    </radialGradient>
  </defs>
</svg>
