<?xml version="1.0" encoding="UTF-8" standalone="no"?>
<svg xmlns:xlink="http://www.w3.org/1999/xlink" height="311.1px" width="493.5px" xmlns="http://www.w3.org/2000/svg">
  <g transform="matrix(1.0, 0.0, 0.0, 1.0, 249.3, 147.3)">
    <path d="M-49.75 127.35 Q-49.2 127.85 -49.2 128.6 -49.2 129.35 -49.75 129.9 -50.3 130.4 -51.05 130.4 -51.8 130.4 -52.35 129.9 -52.9 129.35 -52.9 128.6 -52.9 127.85 -52.35 127.35 -51.8 126.8 -51.05 126.8 -50.3 126.8 -49.75 127.35 M-67.0 116.45 L-66.85 116.85 -67.0 117.25 -67.4 117.4 -67.8 117.25 -67.95 116.85 -67.8 116.45 -67.4 116.3 -67.0 116.45 M-74.65 108.45 L-73.05 109.9 -74.65 111.6 -74.7 113.25 -74.65 108.45 M-69.05 102.55 L-68.85 102.55 -68.95 102.75 -69.05 102.55 M-43.65 123.45 Q-42.95 123.4 -43.6 123.55 L-43.65 123.45 M-47.9 113.6 L-47.7 113.6 -47.8 113.8 -47.9 113.6 M-52.0 117.4 Q-51.2 117.4 -50.65 117.85 -50.1 118.3 -50.1 118.9 -50.1 119.5 -50.65 119.95 -51.2 120.4 -52.0 120.4 L-53.35 119.95 Q-53.9 119.5 -53.9 118.9 -53.9 118.3 -53.35 117.85 -52.8 117.4 -52.0 117.4 M-42.9 102.65 L-43.0 102.35 -42.9 102.1 -42.65 101.95 -42.4 102.1 -42.3 102.35 -42.4 102.65 -42.65 102.75 -42.9 102.65 M-33.35 101.35 Q-32.8 101.9 -32.8 102.65 -32.8 103.4 -33.35 103.95 -33.9 104.5 -34.7 104.5 -35.5 104.5 -36.05 103.95 -36.6 103.4 -36.6 102.65 -36.6 101.9 -36.05 101.35 -35.5 100.8 -34.7 100.8 -33.9 100.8 -33.35 101.35 M-114.45 103.35 Q-113.95 103.85 -113.95 104.6 -113.95 105.35 -114.45 105.9 -115.0 106.4 -115.7 106.4 -116.4 106.4 -116.9 105.9 -117.45 105.35 -117.45 104.6 -117.45 103.85 -116.9 103.35 -116.4 102.8 -115.7 102.8 -115.0 102.8 -114.45 103.35 M-88.85 117.05 Q-88.15 117.05 -87.65 117.55 -87.2 118.05 -87.2 118.75 -87.2 119.45 -87.65 119.95 -88.15 120.45 -88.85 120.45 -89.55 120.45 -90.0 119.95 -90.5 119.45 -90.5 118.75 -90.5 118.05 -90.0 117.55 -89.55 117.05 -88.85 117.05 M-99.15 80.0 Q-98.85 80.3 -98.85 80.8 -98.85 81.3 -99.15 81.65 L-100.0 81.95 Q-100.5 81.95 -100.8 81.65 -101.15 81.3 -101.15 80.8 -101.15 80.3 -100.8 80.0 -100.5 79.65 -100.0 79.65 -99.5 79.65 -99.15 80.0 M-89.1 85.6 Q-88.8 85.9 -88.8 86.4 -88.8 86.9 -89.1 87.25 -89.45 87.55 -89.95 87.55 L-90.75 87.25 Q-91.1 86.9 -91.1 86.4 -91.1 85.9 -90.75 85.6 -90.45 85.25 -89.95 85.25 -89.45 85.25 -89.1 85.6 M-85.4 75.25 Q-85.25 75.4 -85.25 75.65 L-85.4 76.05 -85.75 76.2 -86.1 76.05 -86.25 75.65 -86.1 75.25 -85.75 75.1 Q-85.55 75.1 -85.4 75.25 M-102.5 94.15 Q-102.2 93.8 -101.75 93.8 -101.3 93.8 -100.95 94.15 -100.65 94.45 -100.65 94.95 -100.65 95.45 -100.95 95.8 -101.3 96.1 -101.75 96.1 -102.2 96.1 -102.5 95.8 L-102.85 94.95 Q-102.85 94.45 -102.5 94.15 M-116.55 96.4 Q-117.1 95.85 -117.1 95.1 -117.1 94.35 -116.55 93.85 -116.0 93.3 -115.25 93.3 -114.5 93.3 -113.95 93.85 -113.4 94.35 -113.4 95.1 -113.4 95.85 -113.95 96.4 -114.5 96.9 -115.25 96.9 -116.0 96.9 -116.55 96.4 M-107.85 60.35 Q-107.35 59.8 -106.6 59.8 -105.85 59.8 -105.3 60.35 -104.8 60.85 -104.8 61.6 -104.8 62.35 -105.3 62.9 -105.85 63.4 -106.6 63.4 -107.35 63.4 -107.85 62.9 -108.4 62.35 -108.4 61.6 -108.4 60.85 -107.85 60.35 M-108.75 53.8 Q-108.2 54.3 -108.2 55.05 -108.2 55.8 -108.75 56.35 -109.3 56.85 -110.05 56.85 -110.8 56.85 -111.35 56.35 -111.9 55.8 -111.9 55.05 -111.9 54.3 -111.35 53.8 -110.8 53.25 -110.05 53.25 -109.3 53.25 -108.75 53.8 M-85.4 65.15 Q-85.25 65.3 -85.25 65.55 L-85.4 65.95 Q-85.55 66.1 -85.8 66.1 L-86.2 65.95 -86.35 65.55 -86.2 65.15 -85.8 65.0 Q-85.55 65.0 -85.4 65.15 M-94.25 58.55 L-94.4 58.15 -94.25 57.75 -93.9 57.6 Q-93.7 57.6 -93.55 57.75 L-93.4 58.15 -93.55 58.55 -93.9 58.7 -94.25 58.55 M-131.25 75.1 Q-130.7 75.65 -130.7 76.45 -130.7 77.25 -131.25 77.8 -131.8 78.35 -132.6 78.35 -133.4 78.35 -133.95 77.8 -134.5 77.25 -134.5 76.45 -134.5 75.65 -133.95 75.1 -133.4 74.55 -132.6 74.55 -131.8 74.55 -131.25 75.1 M-123.25 65.7 Q-122.55 65.7 -122.0 66.2 -121.5 66.7 -121.5 67.4 -121.5 68.1 -122.0 68.6 -122.55 69.1 -123.25 69.1 -123.95 69.1 -124.45 68.6 -125.0 68.1 -125.0 67.4 -125.0 66.7 -124.45 66.2 -123.95 65.7 -123.25 65.7 M-132.5 49.5 Q-131.95 50.05 -131.95 50.85 -131.95 51.65 -132.5 52.2 -133.05 52.75 -133.8 52.75 -134.55 52.75 -135.1 52.2 -135.65 51.65 -135.65 50.85 -135.65 50.05 -135.1 49.5 -134.55 48.95 -133.8 48.95 -133.05 48.95 -132.5 49.5 M-129.3 60.45 Q-128.55 60.45 -128.0 61.0 -127.45 61.5 -127.45 62.25 -127.45 63.0 -128.0 63.55 -128.55 64.05 -129.3 64.05 -130.05 64.05 -130.6 63.55 -131.15 63.0 -131.15 62.25 -131.15 61.5 -130.6 61.0 -130.05 60.45 -129.3 60.45 M-126.1 45.05 Q-125.6 45.55 -125.6 46.25 -125.6 46.95 -126.1 47.45 -126.65 47.95 -127.35 47.95 -128.05 47.95 -128.55 47.45 -129.1 46.95 -129.1 46.25 -129.1 45.55 -128.55 45.05 -128.05 44.55 -127.35 44.55 -126.65 44.55 -126.1 45.05 M-141.65 28.85 L-138.75 28.85 -138.75 35.5 -141.65 35.5 -141.65 28.85 M-158.8 29.25 L-158.8 35.2 -164.75 35.2 -164.75 29.25 -158.8 29.25 M-148.45 19.15 L-147.55 18.7 -145.85 19.35 -146.3 21.85 -149.1 22.75 -151.3 29.4 -152.9 24.1 -149.2 21.95 -148.45 19.15 M-151.6 1.75 L-151.1 0.6 -148.25 -0.15 -144.95 1.45 -152.25 5.4 -154.25 4.65 -154.2 3.4 -151.6 1.75 M-122.75 13.1 Q-122.2 13.65 -122.2 14.45 -122.2 15.25 -122.75 15.8 -123.3 16.35 -124.05 16.35 -124.8 16.35 -125.35 15.8 -125.9 15.25 -125.9 14.45 -125.9 13.65 -125.35 13.1 -124.8 12.55 -124.05 12.55 -123.3 12.55 -122.75 13.1 M-136.95 10.9 L-139.5 9.1 -141.4 9.15 -142.3 6.9 -140.35 6.3 -134.7 9.3 -136.95 10.9 M-130.45 8.25 Q-131.0 7.7 -131.0 6.95 -131.0 6.2 -130.45 5.65 -129.9 5.1 -129.1 5.1 -128.3 5.1 -127.75 5.65 -127.2 6.2 -127.2 6.95 -127.2 7.7 -127.75 8.25 -128.3 8.8 -129.1 8.8 -129.9 8.8 -130.45 8.25 M-100.6 46.35 L-95.55 47.95 -97.1 48.85 -98.25 47.95 -100.9 47.95 -101.35 47.15 -100.6 46.35 M-115.85 25.35 Q-115.55 25.65 -115.55 26.15 -115.55 26.65 -115.85 27.0 -116.2 27.3 -116.7 27.3 -117.2 27.3 -117.5 27.0 L-117.85 26.15 Q-117.85 25.65 -117.5 25.35 -117.2 25.0 -116.7 25.0 -116.2 25.0 -115.85 25.35 M-102.7 36.1 L-102.85 35.7 -102.7 35.3 -102.3 35.15 Q-102.05 35.15 -101.9 35.3 -101.75 35.45 -101.75 35.7 L-101.9 36.1 -102.3 36.25 -102.7 36.1 M-108.0 18.05 Q-107.65 18.4 -107.65 18.9 -107.65 19.4 -108.0 19.75 -108.4 20.1 -108.9 20.1 -109.4 20.1 -109.75 19.75 -110.15 19.4 -110.15 18.9 -110.15 18.4 -109.75 18.05 -109.4 17.7 -108.9 17.7 -108.4 17.7 -108.0 18.05 M-113.8 21.05 Q-113.8 21.8 -114.3 22.35 -114.85 22.85 -115.55 22.85 -116.25 22.85 -116.75 22.35 -117.3 21.8 -117.3 21.05 -117.3 20.3 -116.75 19.8 -116.25 19.25 -115.55 19.25 -114.85 19.25 -114.3 19.8 -113.8 20.3 -113.8 21.05 M-36.15 81.3 Q-36.15 80.8 -35.8 80.45 -35.45 80.1 -34.95 80.1 -34.45 80.1 -34.1 80.45 -33.75 80.8 -33.75 81.3 -33.75 81.8 -34.1 82.15 -34.45 82.5 -34.95 82.5 -35.45 82.5 -35.8 82.15 L-36.15 81.3 M-26.15 85.9 Q-26.5 85.55 -26.5 85.05 -26.5 84.55 -26.15 84.25 -25.85 83.9 -25.35 83.9 -24.85 83.9 -24.5 84.25 -24.2 84.55 -24.2 85.05 -24.2 85.55 -24.5 85.9 L-25.35 86.2 -26.15 85.9 M-27.0 66.0 L-25.5 65.8 -23.2 62.25 -19.85 70.8 -21.7 71.35 -26.35 66.55 -29.7 67.25 -31.05 65.65 -29.45 64.6 -27.0 66.0 M-23.55 58.45 Q-24.1 57.9 -24.1 57.1 -24.1 56.3 -23.55 55.75 -23.0 55.2 -22.2 55.2 -21.4 55.2 -20.85 55.75 -20.3 56.3 -20.3 57.1 -20.3 57.9 -20.85 58.45 -21.4 59.0 -22.2 59.0 -23.0 59.0 -23.55 58.45 M-11.75 66.5 Q-11.1 67.15 -11.1 68.05 -11.1 68.95 -11.75 69.6 -12.4 70.25 -13.3 70.25 -14.2 70.25 -14.85 69.6 -15.5 68.95 -15.5 68.05 -15.5 67.15 -14.85 66.5 -14.2 65.85 -13.3 65.85 -12.4 65.85 -11.75 66.5 M-61.9 90.7 L-61.15 92.15 -64.9 93.5 -65.4 95.3 -64.15 96.55 -63.9 99.45 -60.85 100.55 -60.8 101.35 -62.15 101.9 -68.5 93.7 -61.9 90.7 M-75.3 84.85 L-75.4 85.2 -75.75 85.3 -76.05 85.2 -76.2 84.85 -76.05 84.55 -75.75 84.4 Q-75.55 84.4 -75.4 84.55 L-75.3 84.85 M-40.65 64.85 L-40.65 57.95 -37.8 57.95 -37.8 64.85 -40.65 64.85 M-51.5 65.7 Q-51.25 65.95 -51.25 66.3 L-51.5 66.9 -52.15 67.15 -52.75 66.9 -53.05 66.3 -52.75 65.7 -52.15 65.45 Q-51.8 65.45 -51.5 65.7 M-55.7 57.0 Q-55.4 57.3 -55.4 57.8 -55.4 58.3 -55.7 58.65 L-56.55 58.95 -57.35 58.65 -57.7 57.8 Q-57.7 57.3 -57.35 57.0 -57.05 56.65 -56.55 56.65 -56.05 56.65 -55.7 57.0 M-47.9 56.3 Q-48.45 56.85 -49.2 56.85 -49.95 56.85 -50.5 56.3 -51.05 55.75 -51.05 55.0 -51.05 54.25 -50.5 53.7 -49.95 53.15 -49.2 53.15 -48.45 53.15 -47.9 53.7 -47.35 54.25 -47.35 55.0 -47.35 55.75 -47.9 56.3 M-57.0 48.85 L-57.0 47.15 -48.45 47.15 -48.45 48.85 -57.0 48.85 M-132.75 -2.75 Q-132.2 -2.2 -132.2 -1.4 -132.2 -0.6 -132.75 0.0 -133.35 0.55 -134.15 0.55 -134.95 0.55 -135.5 0.0 -136.1 -0.6 -136.1 -1.4 -136.1 -2.2 -135.5 -2.75 -134.95 -3.35 -134.15 -3.35 -133.35 -3.35 -132.75 -2.75 M-153.9 -7.15 Q-153.4 -7.7 -152.65 -7.7 -151.9 -7.7 -151.35 -7.15 -150.85 -6.65 -150.85 -5.9 -150.85 -5.15 -151.35 -4.6 -151.9 -4.1 -152.65 -4.1 -153.4 -4.1 -153.9 -4.6 -154.45 -5.15 -154.45 -5.9 -154.45 -6.65 -153.9 -7.15 M-178.0 -0.7 Q-177.25 -0.7 -176.7 -0.15 -176.15 0.4 -176.15 1.15 -176.15 1.9 -176.7 2.45 -177.25 3.0 -178.0 3.0 -178.75 3.0 -179.3 2.45 -179.85 1.9 -179.85 1.15 -179.85 0.4 -179.3 -0.15 -178.75 -0.7 -178.0 -0.7 M-163.7 -7.95 Q-163.15 -8.55 -162.35 -8.55 -161.55 -8.55 -161.0 -7.95 -160.45 -7.4 -160.45 -6.6 -160.45 -5.8 -161.0 -5.2 -161.55 -4.65 -162.35 -4.65 -163.15 -4.65 -163.7 -5.2 -164.25 -5.8 -164.25 -6.6 -164.25 -7.4 -163.7 -7.95 M-189.75 -5.45 Q-189.3 -5.0 -189.3 -4.35 -189.3 -3.7 -189.75 -3.25 -190.2 -2.8 -190.8 -2.8 -191.4 -2.8 -191.85 -3.25 -192.3 -3.7 -192.3 -4.35 -192.3 -5.0 -191.85 -5.45 -191.4 -5.9 -190.8 -5.9 -190.2 -5.9 -189.75 -5.45 M-194.6 -8.15 L-194.8 -8.6 -194.6 -9.05 -194.15 -9.25 -193.7 -9.05 -193.5 -8.6 -193.7 -8.15 Q-193.9 -7.95 -194.15 -7.95 L-194.6 -8.15 M-211.15 -2.25 L-211.1 -2.1 -211.15 -1.95 -211.3 -1.9 -211.45 -1.95 -211.5 -2.1 -211.45 -2.25 -211.3 -2.3 -211.15 -2.25 M-216.95 -15.85 L-216.95 -16.35 -216.6 -16.35 -216.6 -15.85 -216.95 -15.85 M-204.4 -12.7 L-202.65 -12.95 -200.85 -12.7 Q-200.15 -12.45 -200.15 -12.1 -200.15 -11.75 -200.85 -11.5 L-202.65 -11.25 -204.4 -11.5 Q-205.15 -11.75 -205.15 -12.1 -205.15 -12.45 -204.4 -12.7 M-239.95 -8.05 L-240.15 -7.85 -240.35 -8.05 -239.95 -8.05 M-238.35 -10.95 L-238.25 -10.7 -238.35 -10.45 Q-238.45 -10.35 -238.6 -10.35 L-238.85 -10.45 -238.95 -10.7 -238.85 -10.95 -238.6 -11.05 -238.35 -10.95 M-235.3 -8.85 L-235.1 -7.85 -235.2 -7.65 -235.3 -8.85 M-224.2 -15.8 L-223.8 -15.8 -224.0 -15.4 -224.2 -15.8 M-249.3 -9.25 Q-248.95 -8.6 -249.3 -9.15 L-249.3 -9.25 M50.55 111.35 L50.35 110.9 50.8 110.9 50.55 111.35 M69.75 118.1 L69.75 118.5 69.35 118.5 69.35 118.1 69.75 118.1 M69.85 84.05 L69.75 84.25 69.65 84.05 69.85 84.05 M53.75 87.95 L54.05 87.95 54.05 88.3 53.75 88.3 53.75 87.95 M47.55 84.75 L47.85 84.75 47.85 85.1 47.55 85.1 47.55 84.75 M72.2 56.45 L72.2 57.05 71.8 57.05 71.8 56.45 72.2 56.45 M24.2 63.65 L24.3 64.0 24.2 64.35 23.85 64.5 Q23.65 64.5 23.55 64.35 L23.4 64.0 Q23.4 63.8 23.55 63.65 23.65 63.5 23.85 63.5 24.05 63.5 24.2 63.65 M77.75 41.4 L77.0 42.65 77.1 41.2 77.75 41.4 M68.65 40.35 L68.5 40.0 Q68.5 39.8 68.65 39.65 68.8 39.5 69.0 39.5 69.2 39.5 69.35 39.65 L69.5 40.0 69.35 40.35 69.0 40.5 68.65 40.35 M54.8 47.65 Q54.85 47.55 54.95 47.55 L55.1 47.65 55.15 47.8 55.1 48.0 54.95 48.05 54.8 48.0 54.75 47.8 54.8 47.65 M44.5 23.85 L44.6 24.1 44.5 24.35 44.25 24.45 44.0 24.35 43.9 24.1 44.0 23.85 44.25 23.75 44.5 23.85 M53.7 8.7 L54.4 9.45 54.5 10.6 51.2 10.6 50.95 8.9 52.35 8.35 53.7 8.7 M63.15 19.1 L63.05 19.3 62.95 19.1 63.15 19.1 M64.35 7.85 Q64.7 8.2 64.7 8.7 64.7 9.2 64.35 9.6 63.95 9.95 63.45 9.95 62.95 9.95 62.6 9.6 62.2 9.2 62.2 8.7 62.2 8.2 62.6 7.85 62.95 7.45 63.45 7.45 63.95 7.45 64.35 7.85 M74.8 5.95 Q74.45 5.6 74.45 5.15 74.45 4.7 74.8 4.4 75.1 4.05 75.55 4.05 76.0 4.05 76.35 4.4 L76.65 5.15 76.35 5.95 75.55 6.25 74.8 5.95 M89.45 97.8 L89.55 98.1 89.45 98.45 89.1 98.55 88.8 98.45 88.65 98.1 88.8 97.8 Q88.9 97.65 89.1 97.65 L89.45 97.8 M118.0 42.35 Q118.5 42.85 118.5 43.6 118.5 44.35 118.0 44.9 117.45 45.4 116.7 45.4 115.95 45.4 115.45 44.9 114.9 44.35 114.9 43.6 114.9 42.85 115.45 42.35 115.95 41.8 116.7 41.8 117.45 41.8 118.0 42.35 M87.3 27.5 L87.7 27.65 87.85 28.0 87.7 28.35 87.3 28.5 86.9 28.35 86.75 28.0 86.9 27.65 Q87.05 27.5 87.3 27.5 M98.85 21.55 Q99.15 21.9 99.15 22.4 L98.85 23.25 Q98.5 23.6 98.0 23.6 97.5 23.6 97.2 23.25 96.85 22.9 96.85 22.4 96.85 21.9 97.2 21.55 97.5 21.2 98.0 21.2 98.5 21.2 98.85 21.55 M90.6 23.4 Q90.6 22.95 90.95 22.65 91.25 22.3 91.7 22.3 92.15 22.3 92.5 22.65 L92.8 23.4 92.5 24.2 91.7 24.5 Q91.25 24.5 90.95 24.2 90.6 23.85 90.6 23.4 M87.75 17.9 L87.9 18.25 87.75 18.6 87.4 18.75 87.05 18.6 86.9 18.25 87.05 17.9 87.4 17.75 87.75 17.9 M83.0 8.4 L83.3 8.4 83.3 8.7 83.0 8.7 83.0 8.4 M118.45 12.6 Q118.95 13.15 118.95 13.9 118.95 14.65 118.45 15.2 117.9 15.75 117.15 15.75 116.4 15.75 115.9 15.2 115.35 14.65 115.35 13.9 115.35 13.15 115.9 12.6 116.4 12.05 117.15 12.05 117.9 12.05 118.45 12.6 M104.2 18.9 L104.5 19.6 104.2 20.3 Q103.9 20.6 103.5 20.6 L102.8 20.3 Q102.5 20.0 102.5 19.6 102.5 19.2 102.8 18.9 103.1 18.6 103.5 18.6 103.9 18.6 104.2 18.9 M109.3 13.3 Q109.85 13.8 109.85 14.55 109.85 15.3 109.3 15.85 108.75 16.35 108.0 16.35 107.25 16.35 106.7 15.85 106.15 15.3 106.15 14.55 106.15 13.8 106.7 13.3 107.25 12.75 108.0 12.75 108.75 12.75 109.3 13.3 M101.55 10.15 Q101.95 10.15 102.25 11.0 L102.5 13.05 102.25 15.1 Q101.95 15.95 101.55 15.95 101.15 15.95 100.9 15.1 100.6 14.25 100.6 13.05 100.6 11.85 100.9 11.0 101.15 10.15 101.55 10.15 M111.4 4.4 Q112.25 4.4 112.85 5.0 113.45 5.6 113.45 6.45 113.45 7.3 112.85 7.9 112.25 8.5 111.4 8.5 110.55 8.5 109.95 7.9 109.35 7.3 109.35 6.45 109.35 5.6 109.95 5.0 110.55 4.4 111.4 4.4 M134.15 22.9 Q134.95 22.9 135.5 23.45 136.05 24.0 136.05 24.8 136.05 25.6 135.5 26.15 134.95 26.7 134.15 26.7 133.35 26.7 132.8 26.15 132.25 25.6 132.25 24.8 132.25 24.0 132.8 23.45 133.35 22.9 134.15 22.9 M166.35 0.05 Q166.9 0.6 166.9 1.35 166.9 2.1 166.35 2.65 165.8 3.2 165.05 3.2 164.3 3.2 163.75 2.65 163.2 2.1 163.2 1.35 163.2 0.6 163.75 0.05 164.3 -0.5 165.05 -0.5 165.8 -0.5 166.35 0.05 M244.15 -59.25 L244.2 -59.3 244.2 -59.25 244.15 -59.25 M205.9 -45.2 L206.1 -44.7 205.9 -44.15 205.35 -43.95 Q205.05 -43.95 204.85 -44.15 L204.6 -44.7 204.85 -45.2 205.35 -45.45 205.9 -45.2 M212.8 -49.2 L212.65 -49.15 212.5 -49.2 212.45 -49.35 212.5 -49.5 212.65 -49.55 212.8 -49.5 212.85 -49.35 212.8 -49.2 M165.95 -10.95 Q166.5 -10.45 166.5 -9.7 166.5 -8.95 165.95 -8.4 165.4 -7.9 164.65 -7.9 163.9 -7.9 163.35 -8.4 162.8 -8.95 162.8 -9.7 162.8 -10.45 163.35 -10.95 163.9 -11.5 164.65 -11.5 165.4 -11.5 165.95 -10.95 M172.4 -25.95 Q173.15 -25.95 173.7 -25.4 174.25 -24.85 174.25 -24.05 174.25 -23.25 173.7 -22.7 173.15 -22.15 172.4 -22.15 171.65 -22.15 171.1 -22.7 170.55 -23.25 170.55 -24.05 170.55 -24.85 171.1 -25.4 171.65 -25.95 172.4 -25.95 M177.75 -32.9 Q177.3 -33.35 177.3 -33.95 177.3 -34.55 177.75 -35.0 178.2 -35.45 178.8 -35.45 L179.85 -35.0 180.3 -33.95 Q180.3 -33.35 179.85 -32.9 179.4 -32.45 178.8 -32.45 178.2 -32.45 177.75 -32.9 M175.35 -39.95 Q175.85 -39.45 175.85 -38.75 175.85 -38.05 175.35 -37.5 174.8 -37.0 174.05 -37.0 173.3 -37.0 172.8 -37.5 172.25 -38.05 172.25 -38.75 172.25 -39.45 172.8 -39.95 173.3 -40.5 174.05 -40.5 174.8 -40.5 175.35 -39.95 M186.45 -39.6 L188.95 -39.6 188.95 -33.55 186.45 -33.55 186.45 -39.6 M183.35 -47.85 L184.05 -47.8 184.95 -46.0 180.1 -42.65 177.7 -44.05 178.2 -45.1 183.35 -47.85 M196.45 -37.55 L197.05 -37.8 197.7 -37.55 197.95 -36.95 197.7 -36.35 197.05 -36.1 Q196.7 -36.1 196.45 -36.35 196.15 -36.6 196.15 -36.95 196.15 -37.3 196.45 -37.55 M196.6 -43.7 L197.2 -43.4 197.45 -42.8 197.2 -42.15 Q196.95 -41.9 196.6 -41.9 196.25 -41.9 196.0 -42.15 L195.75 -42.8 196.0 -43.4 Q196.25 -43.7 196.6 -43.7 M200.65 -49.0 L200.85 -48.45 200.65 -47.85 200.05 -47.65 Q199.7 -47.65 199.5 -47.85 199.25 -48.1 199.25 -48.45 199.25 -48.8 199.5 -49.0 199.7 -49.25 200.05 -49.25 L200.65 -49.0 M195.05 -51.75 L196.15 -50.85 194.5 -50.35 190.7 -43.9 189.45 -43.95 188.85 -45.65 190.7 -47.35 191.4 -50.3 195.05 -51.75 M236.95 -55.75 Q237.8 -55.6 236.9 -55.6 L236.95 -55.75 M240.15 -57.95 L240.25 -57.7 240.15 -57.45 239.9 -57.35 Q239.75 -57.35 239.65 -57.45 L239.55 -57.7 239.65 -57.95 239.9 -58.05 240.15 -57.95 M225.15 -64.7 L225.15 -65.0 225.35 -65.0 225.35 -64.7 225.15 -64.7 M222.45 -55.65 L222.45 -55.3 222.05 -55.3 222.05 -55.65 222.45 -55.65 M210.75 -55.05 L211.1 -55.05 211.1 -54.75 210.75 -54.75 210.75 -55.05 M205.0 -56.5 L205.25 -55.9 205.0 -55.25 Q204.75 -55.0 204.4 -55.0 L203.8 -55.25 Q203.55 -55.55 203.55 -55.9 L203.8 -56.5 Q204.05 -56.8 204.4 -56.8 L205.0 -56.5 M203.05 -62.65 Q202.75 -62.95 202.75 -63.3 202.75 -63.65 203.05 -63.9 203.3 -64.2 203.7 -64.2 L204.4 -63.9 204.65 -63.3 204.4 -62.65 203.7 -62.4 Q203.3 -62.4 203.05 -62.65 M124.9 -1.2 Q125.55 -1.2 126.05 -0.7 126.5 -0.25 126.5 0.4 L126.05 1.55 Q125.55 2.0 124.9 2.0 124.25 2.0 123.8 1.55 123.3 1.05 123.3 0.4 123.3 -0.25 123.8 -0.7 124.25 -1.2 124.9 -1.2 M124.15 -9.2 L125.4 -9.75 136.7 -1.85 134.75 -1.1 131.65 -3.25 126.85 -1.35 126.8 -5.7 124.25 -7.5 124.15 -9.2 M136.8 -24.05 Q137.3 -23.55 137.3 -22.85 137.3 -22.15 136.8 -21.6 136.25 -21.1 135.55 -21.1 134.85 -21.1 134.35 -21.6 133.8 -22.15 133.8 -22.85 133.8 -23.55 134.35 -24.05 134.85 -24.6 135.55 -24.6 136.25 -24.6 136.8 -24.05 M140.85 -19.4 L140.45 -21.5 142.3 -22.75 143.0 -22.55 143.65 -19.8 142.2 -18.45 143.8 -12.6 143.0 -11.65 141.45 -11.5 140.2 -12.5 139.5 -17.2 140.85 -19.4 M139.05 -40.95 Q139.6 -40.45 139.6 -39.7 139.6 -38.95 139.05 -38.4 138.5 -37.9 137.75 -37.9 137.0 -37.9 136.45 -38.4 135.9 -38.95 135.9 -39.7 135.9 -40.45 136.45 -40.95 137.0 -41.5 137.75 -41.5 138.5 -41.5 139.05 -40.95 M159.5 -34.4 L161.65 -35.05 163.25 -37.55 165.15 -37.45 165.1 -34.8 163.05 -34.05 162.4 -31.25 165.7 -29.8 172.45 -32.4 173.05 -31.65 172.1 -29.45 162.3 -25.0 161.2 -25.0 159.95 -27.25 161.65 -29.1 161.5 -30.6 159.45 -31.5 158.35 -33.15 159.5 -34.4 M150.7 -27.75 L151.5 -29.6 153.15 -30.55 149.4 -39.1 152.35 -39.0 152.9 -36.0 155.9 -34.75 156.3 -33.5 155.6 -32.4 153.95 -31.6 153.6 -30.8 154.6 -28.15 153.1 -23.0 146.15 -26.0 150.7 -27.75 M118.2 -1.0 Q118.7 -0.6 118.7 -0.05 118.7 0.5 118.2 0.9 117.65 1.3 116.9 1.3 116.15 1.3 115.65 0.9 115.1 0.5 115.1 -0.05 115.1 -0.6 115.65 -1.0 116.15 -1.4 116.9 -1.4 117.65 -1.4 118.2 -1.0 M103.4 -8.8 L103.25 -9.15 103.4 -9.5 103.75 -9.65 104.1 -9.5 104.25 -9.15 104.1 -8.8 103.75 -8.65 103.4 -8.8 M90.9 -1.9 Q91.7 -1.9 92.3 -1.35 92.85 -0.8 92.85 0.0 92.85 0.8 92.3 1.35 91.7 1.9 90.9 1.9 90.1 1.9 89.55 1.35 88.95 0.8 88.95 0.0 88.95 -0.8 89.55 -1.35 90.1 -1.9 90.9 -1.9 M118.8 -31.3 L119.05 -30.65 118.8 -29.95 118.1 -29.7 117.45 -29.95 Q117.15 -30.25 117.15 -30.65 117.15 -31.05 117.45 -31.3 L118.1 -31.6 118.8 -31.3 M154.9 -56.65 L155.3 -55.75 154.9 -53.7 151.45 -55.0 154.9 -56.65 M146.15 -55.3 L147.35 -56.05 149.95 -54.85 147.55 -53.55 146.15 -55.3 M67.6 -4.55 L67.9 -3.8 67.6 -3.0 Q67.3 -2.7 66.85 -2.7 66.4 -2.7 66.1 -3.0 65.8 -3.35 65.8 -3.8 65.8 -4.25 66.1 -4.55 66.4 -4.9 66.85 -4.9 67.3 -4.9 67.6 -4.55 M48.55 -2.75 L48.7 -2.45 48.55 -2.1 48.2 -2.0 47.85 -2.1 Q47.7 -2.25 47.7 -2.45 L47.85 -2.75 48.2 -2.9 48.55 -2.75 M54.5 -18.5 L54.5 -15.9 47.3 -15.9 47.3 -18.5 54.5 -18.5 M59.4 -19.7 L59.5 -19.4 59.4 -19.05 59.05 -18.95 Q58.85 -18.95 58.75 -19.05 L58.6 -19.4 58.75 -19.7 59.05 -19.85 59.4 -19.7 M49.0 -27.4 Q49.5 -27.95 50.25 -27.95 51.0 -27.95 51.55 -27.4 52.05 -26.9 52.05 -26.2 52.05 -25.5 51.55 -24.95 51.0 -24.45 50.25 -24.45 49.5 -24.45 49.0 -24.95 48.45 -25.5 48.45 -26.2 48.45 -26.9 49.0 -27.4 M45.3 -39.4 L45.45 -39.8 45.85 -39.95 46.25 -39.8 46.4 -39.4 46.25 -39.0 45.85 -38.85 Q45.6 -38.85 45.45 -39.0 45.3 -39.15 45.3 -39.4 M55.9 -45.85 L55.9 -42.9 49.75 -42.9 49.75 -45.85 55.9 -45.85 M68.6 -30.3 Q69.1 -29.8 69.1 -29.05 69.1 -28.3 68.6 -27.75 68.05 -27.25 67.3 -27.25 66.55 -27.25 66.05 -27.75 65.5 -28.3 65.5 -29.05 65.5 -29.8 66.05 -30.3 66.55 -30.85 67.3 -30.85 68.05 -30.85 68.6 -30.3 M70.15 -39.45 Q70.7 -38.95 70.7 -38.2 70.7 -37.45 70.15 -36.9 69.6 -36.4 68.85 -36.4 68.1 -36.4 67.55 -36.9 67.0 -37.45 67.0 -38.2 67.0 -38.95 67.55 -39.45 68.1 -40.0 68.85 -40.0 69.6 -40.0 70.15 -39.45 M27.8 -15.55 Q28.15 -15.2 28.15 -14.7 28.15 -14.2 27.8 -13.85 27.45 -13.5 26.95 -13.5 26.45 -13.5 26.1 -13.85 25.75 -14.2 25.75 -14.7 25.75 -15.2 26.1 -15.55 26.45 -15.9 26.95 -15.9 27.45 -15.9 27.8 -15.55 M35.55 -21.25 Q35.15 -21.65 35.15 -22.15 35.15 -22.65 35.55 -23.0 35.9 -23.4 36.45 -23.4 37.0 -23.4 37.4 -23.0 L37.75 -22.15 Q37.75 -21.65 37.4 -21.25 37.0 -20.9 36.45 -20.9 35.9 -20.9 35.55 -21.25 M14.7 -44.15 L15.05 -43.3 Q15.05 -42.8 14.7 -42.4 14.3 -42.05 13.8 -42.05 13.3 -42.05 12.95 -42.4 12.55 -42.8 12.55 -43.3 12.55 -43.8 12.95 -44.15 13.3 -44.55 13.8 -44.55 14.3 -44.55 14.7 -44.15 M22.8 -51.0 Q23.6 -51.0 24.15 -50.45 24.7 -49.9 24.7 -49.1 24.7 -48.3 24.15 -47.75 23.6 -47.2 22.8 -47.2 22.0 -47.2 21.45 -47.75 20.9 -48.3 20.9 -49.1 20.9 -49.9 21.45 -50.45 22.0 -51.0 22.8 -51.0 M24.7 -62.6 Q25.45 -62.6 26.0 -62.05 26.55 -61.5 26.55 -60.75 26.55 -60.0 26.0 -59.45 25.45 -58.9 24.7 -58.9 23.95 -58.9 23.4 -59.45 22.85 -60.0 22.85 -60.75 22.85 -61.5 23.4 -62.05 23.95 -62.6 24.7 -62.6 M34.15 -66.1 Q34.15 -66.9 34.7 -67.45 35.25 -68.0 36.05 -68.0 36.85 -68.0 37.4 -67.45 37.95 -66.9 37.95 -66.1 37.95 -65.3 37.4 -64.75 36.85 -64.2 36.05 -64.2 35.25 -64.2 34.7 -64.75 34.15 -65.3 34.15 -66.1 M16.85 -67.65 Q17.4 -67.1 17.4 -66.35 17.4 -65.6 16.85 -65.05 16.3 -64.5 15.5 -64.5 14.7 -64.5 14.15 -65.05 13.6 -65.6 13.6 -66.35 13.6 -67.1 14.15 -67.65 14.7 -68.2 15.5 -68.2 16.3 -68.2 16.85 -67.65 M29.55 -78.05 Q29.0 -78.6 29.0 -79.35 29.0 -80.1 29.55 -80.65 30.05 -81.2 30.8 -81.2 31.55 -81.2 32.1 -80.65 32.6 -80.1 32.6 -79.35 32.6 -78.6 32.1 -78.05 31.55 -77.5 30.8 -77.5 30.05 -77.5 29.55 -78.05 M21.65 -81.3 Q21.65 -82.1 22.2 -82.65 22.75 -83.2 23.55 -83.2 24.35 -83.2 24.9 -82.65 25.45 -82.1 25.45 -81.3 25.45 -80.5 24.9 -79.95 24.35 -79.4 23.55 -79.4 22.75 -79.4 22.2 -79.95 21.65 -80.5 21.65 -81.3 M48.5 -66.65 Q49.4 -66.65 50.05 -65.65 50.65 -64.7 50.65 -63.35 50.65 -62.0 50.05 -61.0 49.4 -60.05 48.5 -60.05 47.6 -60.05 47.0 -61.0 46.35 -62.0 46.35 -63.35 46.35 -64.7 47.0 -65.65 47.6 -66.65 48.5 -66.65 M58.8 -62.95 L59.1 -62.2 58.8 -61.4 Q58.45 -61.1 57.95 -61.1 57.45 -61.1 57.15 -61.4 56.8 -61.75 56.8 -62.2 56.8 -62.65 57.15 -62.95 57.45 -63.3 57.95 -63.3 58.45 -63.3 58.8 -62.95 M41.65 -75.8 Q42.45 -75.8 43.0 -75.25 43.55 -74.7 43.55 -73.95 43.55 -73.2 43.0 -72.65 42.45 -72.1 41.65 -72.1 40.85 -72.1 40.3 -72.65 39.75 -73.2 39.75 -73.95 39.75 -74.7 40.3 -75.25 40.85 -75.8 41.65 -75.8 M48.65 -85.25 Q48.65 -86.05 49.2 -86.6 49.75 -87.15 50.55 -87.15 51.35 -87.15 51.9 -86.6 52.45 -86.05 52.45 -85.25 52.45 -84.45 51.9 -83.9 51.35 -83.35 50.55 -83.35 49.75 -83.35 49.2 -83.9 48.65 -84.45 48.65 -85.25 M59.85 -91.4 Q60.35 -90.85 60.35 -90.1 60.35 -89.35 59.85 -88.8 59.3 -88.25 58.55 -88.25 57.8 -88.25 57.3 -88.8 56.75 -89.35 56.75 -90.1 56.75 -90.85 57.3 -91.4 57.8 -91.95 58.55 -91.95 59.3 -91.95 59.85 -91.4 M53.75 -95.15 L52.7 -92.85 48.8 -90.45 42.9 -93.5 39.8 -91.75 38.3 -92.45 38.5 -94.9 40.55 -96.7 47.15 -94.8 48.3 -93.5 49.7 -93.6 50.75 -95.35 53.75 -95.15 M70.1 -79.5 Q70.65 -78.95 70.65 -78.15 70.65 -77.35 70.1 -76.8 69.55 -76.25 68.75 -76.25 67.95 -76.25 67.4 -76.8 66.85 -77.35 66.85 -78.15 66.85 -78.95 67.4 -79.5 67.95 -80.05 68.75 -80.05 69.55 -80.05 70.1 -79.5 M61.65 -79.2 L60.9 -78.2 58.0 -78.35 56.15 -77.25 53.45 -77.85 50.55 -76.35 44.6 -78.2 53.4 -79.35 55.25 -80.8 60.35 -81.0 61.65 -79.2 M63.55 -100.1 Q64.15 -100.1 64.6 -99.65 65.0 -99.25 65.0 -98.65 65.0 -98.05 64.6 -97.6 64.15 -97.2 63.55 -97.2 62.95 -97.2 62.55 -97.6 62.1 -98.05 62.1 -98.65 62.1 -99.25 62.55 -99.65 62.95 -100.1 63.55 -100.1 M64.6 -110.25 L65.05 -109.2 Q65.05 -108.6 64.6 -108.15 64.15 -107.7 63.55 -107.7 62.95 -107.7 62.5 -108.15 62.05 -108.6 62.05 -109.2 62.05 -109.8 62.5 -110.25 62.95 -110.7 63.55 -110.7 64.15 -110.7 64.6 -110.25 M55.95 -108.85 L57.8 -108.85 57.8 -100.6 55.95 -100.6 55.95 -108.85 M54.15 -116.0 L54.95 -116.9 55.7 -116.95 60.6 -113.95 60.05 -113.5 58.0 -114.35 56.65 -113.75 55.65 -110.35 53.8 -110.5 48.65 -97.45 48.0 -105.6 49.55 -106.8 49.1 -110.5 47.0 -111.4 45.75 -113.4 48.7 -114.65 50.7 -112.4 53.9 -113.45 54.15 -116.0 M53.85 -125.65 L54.1 -125.1 53.85 -124.5 53.25 -124.3 52.65 -124.5 Q52.4 -124.75 52.4 -125.1 52.4 -125.45 52.65 -125.65 L53.25 -125.9 53.85 -125.65 M46.1 -125.65 L46.9 -126.5 50.25 -126.1 47.3 -123.85 46.1 -124.9 46.1 -125.65 M50.15 -134.65 L49.95 -134.25 49.75 -134.65 50.15 -134.65 M47.5 -138.8 L46.8 -138.0 46.1 -138.8 47.5 -138.8 M42.05 -147.25 L42.1 -147.1 42.05 -146.95 41.9 -146.9 41.75 -146.95 41.7 -147.1 41.75 -147.25 41.9 -147.3 42.05 -147.25 M51.85 -138.1 L52.25 -138.1 52.05 -137.7 51.85 -138.1 M25.9 -102.55 Q26.45 -102.0 26.45 -101.2 26.45 -100.4 25.9 -99.85 25.35 -99.3 24.55 -99.3 23.75 -99.3 23.2 -99.85 22.65 -100.4 22.65 -101.2 22.65 -102.0 23.2 -102.55 23.75 -103.1 24.55 -103.1 25.35 -103.1 25.9 -102.55 M-51.0 162.4 L-50.8 162.2 -50.75 162.2 -50.5 162.4 -50.6 162.5 -50.6 162.6 -50.65 162.6 -50.75 162.65 -50.85 162.55 -50.9 162.55 -50.95 162.45 -51.0 162.4 M-49.5 163.05 L-49.25 163.2 -49.2 163.2 -49.1 162.9 -49.05 162.75 -49.0 162.7 -48.85 162.7 -48.85 162.75 -48.8 162.9 -48.65 163.2 -48.4 163.05 -48.4 163.45 -48.7 163.35 -48.85 163.75 -48.85 163.8 -49.0 163.8 -49.05 163.75 -49.1 163.6 -49.2 163.35 -49.25 163.35 -49.5 163.45 -49.5 163.05 M-48.75 163.35 L-48.9 163.25 -48.75 163.2 -48.75 163.15 -48.95 163.25 -49.15 163.15 -49.15 163.2 -49.0 163.25 -49.15 163.3 -49.15 163.35 -48.95 163.3 -48.75 163.35 M-68.1 158.3 L-68.05 158.2 -67.95 158.15 -67.85 158.2 -67.8 158.2 -67.8 158.3 -67.8 158.4 -67.85 158.45 -67.95 158.45 -68.05 158.45 -68.05 158.4 -68.1 158.3 M-72.4 156.15 L-72.45 156.1 -72.4 156.1 -72.4 156.05 -72.3 156.0 -72.2 156.05 -72.15 156.05 -72.15 156.1 -72.15 156.15 -72.2 156.2 -72.3 156.2 -72.4 156.2 -72.4 156.15 M-21.95 154.85 L-22.15 154.9 -22.3 154.85 -22.4 154.6 -22.3 154.4 -22.15 154.3 -21.95 154.4 -21.9 154.6 -21.95 154.85 M-203.6 1.45 L-203.4 1.9 -203.6 2.35 Q-203.8 2.55 -204.05 2.55 L-204.5 2.35 -204.7 1.9 -204.5 1.45 -204.05 1.25 Q-203.8 1.25 -203.6 1.45 M-172.75 43.35 Q-172.75 42.55 -172.2 42.0 -171.65 41.45 -170.85 41.45 -170.05 41.45 -169.5 42.0 -168.95 42.55 -168.95 43.35 -168.95 44.15 -169.5 44.7 -170.05 45.25 -170.85 45.25 -171.65 45.25 -172.2 44.7 -172.75 44.15 -172.75 43.35 M-184.25 26.55 Q-183.8 27.0 -183.8 27.6 -183.8 28.2 -184.25 28.65 L-185.35 29.1 Q-186.0 29.1 -186.45 28.65 L-186.9 27.6 Q-186.9 27.0 -186.45 26.55 -186.0 26.1 -185.35 26.1 -184.7 26.1 -184.25 26.55 M-194.65 13.35 Q-194.35 13.75 -194.35 14.35 -194.35 14.95 -194.65 15.35 L-195.4 15.75 -196.15 15.35 -196.45 14.35 -196.15 13.35 Q-195.85 12.95 -195.4 12.95 -194.95 12.95 -194.65 13.35 M-198.1 2.15 L-197.9 2.7 -198.1 3.3 -198.65 3.5 -199.15 3.3 -199.4 2.7 -199.15 2.15 -198.65 1.9 Q-198.35 1.9 -198.1 2.15 M-189.75 9.3 L-190.2 8.25 Q-190.2 7.65 -189.75 7.2 -189.3 6.75 -188.65 6.75 -188.0 6.75 -187.55 7.2 -187.1 7.65 -187.1 8.25 -187.1 8.85 -187.55 9.3 -188.0 9.75 -188.65 9.75 -189.3 9.75 -189.75 9.3 M-170.0 24.0 Q-169.25 24.0 -168.7 24.55 -168.15 25.05 -168.15 25.8 -168.15 26.55 -168.7 27.1 -169.25 27.6 -170.0 27.6 -170.75 27.6 -171.3 27.1 -171.85 26.55 -171.85 25.8 -171.85 25.05 -171.3 24.55 -170.75 24.0 -170.0 24.0 M-181.1 14.95 L-181.1 17.0 -188.15 17.0 -188.15 14.95 -181.1 14.95 M-178.45 11.35 L-176.0 11.35 -176.1 12.9 -179.25 13.3 -178.45 11.35 M-174.25 9.8 L-172.95 6.95 -172.0 7.1 -172.25 9.65 -174.25 9.8 M-180.2 7.0 Q-179.95 7.25 -179.95 7.65 L-180.2 8.35 -180.85 8.6 -181.45 8.35 -181.75 7.65 -181.45 7.0 Q-181.2 6.7 -180.85 6.7 -180.5 6.7 -180.2 7.0" fill="#ccffff" fill-rule="evenodd" stroke="none"/>
  </g>
</svg>
