<?xml version="1.0" encoding="UTF-8" standalone="no"?>
<svg xmlns:xlink="http://www.w3.org/1999/xlink" height="303.8px" width="461.15px" xmlns="http://www.w3.org/2000/svg">
  <g transform="matrix(1.0, 0.0, 0.0, 1.0, 243.45, 161.55)">
    <path d="M49.9 -160.95 L50.4 -161.0 50.4 -160.95 50.3 -160.85 50.45 -160.9 50.4 -160.75 50.4 -160.55 50.4 -160.5 50.3 -160.15 50.3 -160.5 50.2 -160.5 49.4 -160.1 Q49.25 -160.3 49.35 -160.45 L49.55 -160.8 49.9 -160.95 M50.4 -161.45 L50.4 -161.25 50.3 -161.3 50.35 -161.25 50.4 -161.2 50.2 -161.2 50.4 -161.5 50.4 -161.45 50.45 -161.55 50.5 -161.3 50.4 -161.25 50.4 -161.45 M50.4 -160.95 L50.4 -161.0 50.4 -161.15 50.4 -161.2 50.5 -161.1 50.45 -161.0 50.4 -160.95 M50.45 -161.2 L50.5 -161.25 50.5 -161.2 50.45 -161.2 M49.9 -160.75 L49.9 -160.65 50.0 -160.8 49.9 -160.85 49.9 -160.75 M49.9 -151.75 L49.9 -152.25 49.05 -152.7 50.05 -152.65 Q51.1 -152.15 49.9 -151.75 M53.15 -149.65 L52.75 -149.55 52.35 -149.65 52.2 -149.95 52.35 -150.2 52.75 -150.35 53.15 -150.2 53.3 -149.95 53.15 -149.65 M39.1 -137.55 L38.45 -137.3 Q38.1 -137.3 37.85 -137.55 37.55 -137.85 37.55 -138.2 37.55 -138.55 37.85 -138.8 L38.45 -139.1 39.1 -138.8 39.35 -138.2 39.1 -137.55 M51.35 -143.35 L50.35 -145.35 52.35 -145.35 51.35 -143.35 M49.2 -136.5 L49.85 -136.25 50.1 -135.65 49.85 -135.05 Q49.55 -134.8 49.2 -134.8 48.85 -134.8 48.6 -135.05 48.3 -135.3 48.3 -135.65 L48.6 -136.25 49.2 -136.5 M44.8 -129.1 L46.0 -129.05 46.75 -126.1 46.05 -125.3 44.15 -127.25 44.8 -129.1 M52.5 -131.45 Q52.5 -132.15 53.0 -132.65 53.5 -133.2 54.2 -133.2 54.9 -133.2 55.4 -132.65 55.9 -132.15 55.9 -131.45 55.9 -130.75 55.4 -130.2 54.9 -129.7 54.2 -129.7 53.5 -129.7 53.0 -130.2 52.5 -130.75 52.5 -131.45 M53.35 -125.6 L52.95 -125.45 Q52.7 -125.45 52.55 -125.6 52.4 -125.75 52.4 -126.0 L52.55 -126.4 52.95 -126.55 53.35 -126.4 53.5 -126.0 53.35 -125.6 M55.55 -111.9 L55.65 -110.1 54.65 -109.55 52.2 -111.25 54.3 -112.25 55.55 -111.9 M49.9 -120.0 Q49.55 -120.0 49.3 -120.25 49.0 -120.55 49.0 -120.9 L49.3 -121.5 Q49.55 -121.8 49.9 -121.8 L50.55 -121.5 50.8 -120.9 50.55 -120.25 Q50.25 -120.0 49.9 -120.0 M43.65 -118.65 Q44.15 -118.65 44.55 -118.3 L44.9 -117.45 Q44.9 -116.95 44.55 -116.6 44.15 -116.25 43.65 -116.25 43.15 -116.25 42.8 -116.6 42.4 -116.95 42.4 -117.45 42.4 -117.95 42.8 -118.3 43.15 -118.65 43.65 -118.65 M48.15 -113.8 Q49.4 -113.8 50.3 -113.25 51.2 -112.75 51.2 -112.05 51.2 -111.35 50.3 -110.8 49.4 -110.3 48.15 -110.3 46.9 -110.3 46.0 -110.8 45.1 -111.35 45.1 -112.05 45.1 -112.75 46.0 -113.25 46.9 -113.8 48.15 -113.8 M48.0 -99.75 L49.55 -97.0 53.0 -96.4 56.9 -102.75 58.45 -99.25 56.6 -95.15 54.55 -93.9 49.4 -94.3 46.05 -99.75 48.0 -99.75 M62.55 -101.5 Q63.15 -101.5 63.6 -100.7 64.0 -99.9 64.0 -98.75 64.0 -97.6 63.6 -96.8 63.15 -96.0 62.55 -96.0 61.95 -96.0 61.55 -96.8 61.1 -97.6 61.1 -98.75 61.1 -99.9 61.55 -100.7 61.95 -101.5 62.55 -101.5 M64.7 -95.05 L67.6 -93.15 67.5 -92.25 65.7 -91.9 64.7 -95.05 M67.75 -78.8 Q67.2 -78.3 66.5 -78.3 65.8 -78.3 65.3 -78.8 64.75 -79.35 64.75 -80.1 64.75 -80.85 65.3 -81.35 65.8 -81.9 66.5 -81.9 67.2 -81.9 67.75 -81.35 68.25 -80.85 68.25 -80.1 68.25 -79.35 67.75 -78.8 M56.65 -90.55 Q57.3 -91.4 58.25 -91.4 59.2 -91.4 59.9 -90.55 60.55 -89.7 60.55 -88.5 60.55 -87.3 59.9 -86.45 59.2 -85.6 58.25 -85.6 57.3 -85.6 56.65 -86.45 55.95 -87.3 55.95 -88.5 55.95 -89.7 56.65 -90.55 M48.75 -89.6 Q49.65 -89.6 50.3 -88.7 50.9 -87.8 50.9 -86.5 50.9 -85.2 50.3 -84.3 49.65 -83.4 48.75 -83.4 47.85 -83.4 47.25 -84.3 46.6 -85.2 46.6 -86.5 46.6 -87.8 47.25 -88.7 47.85 -89.6 48.75 -89.6 M40.75 -77.65 L39.0 -75.65 37.45 -76.0 40.15 -84.15 41.85 -82.35 42.1 -78.0 40.75 -77.65 M49.75 -76.4 L51.65 -78.5 54.25 -78.3 54.5 -77.15 53.85 -76.05 50.5 -75.6 47.65 -73.0 43.3 -77.2 49.75 -76.4 M58.8 -72.8 Q59.35 -73.35 60.15 -73.35 60.95 -73.35 61.5 -72.8 62.05 -72.25 62.05 -71.5 62.05 -70.75 61.5 -70.2 60.95 -69.65 60.15 -69.65 59.35 -69.65 58.8 -70.2 58.25 -70.75 58.25 -71.5 58.25 -72.25 58.8 -72.8 M51.9 -67.2 Q51.35 -66.65 50.6 -66.65 49.85 -66.65 49.3 -67.2 48.75 -67.75 48.75 -68.55 48.75 -69.35 49.3 -69.9 49.85 -70.45 50.6 -70.45 51.35 -70.45 51.9 -69.9 52.45 -69.35 52.45 -68.55 52.45 -67.75 51.9 -67.2 M47.55 -61.7 L53.4 -59.9 55.55 -61.4 63.55 -60.8 62.15 -59.15 59.15 -59.75 57.15 -58.65 53.25 -59.5 51.4 -57.4 47.0 -58.4 45.9 -60.6 47.55 -61.7 M41.55 -52.05 Q41.0 -51.5 40.25 -51.5 39.5 -51.5 39.0 -52.05 38.45 -52.6 38.45 -53.35 38.45 -54.1 39.0 -54.65 39.5 -55.2 40.25 -55.2 41.0 -55.2 41.55 -54.65 42.05 -54.1 42.05 -53.35 42.05 -52.6 41.55 -52.05 M70.25 -57.65 Q70.25 -58.45 70.8 -59.0 71.35 -59.55 72.15 -59.55 72.95 -59.55 73.5 -59.0 74.05 -58.45 74.05 -57.65 74.05 -56.85 73.5 -56.3 72.95 -55.75 72.15 -55.75 71.35 -55.75 70.8 -56.3 70.25 -56.85 70.25 -57.65 M21.7 -86.85 Q22.2 -86.35 22.2 -85.65 22.2 -84.95 21.7 -84.4 21.15 -83.9 20.45 -83.9 19.75 -83.9 19.25 -84.4 18.7 -84.95 18.7 -85.65 18.7 -86.35 19.25 -86.85 19.75 -87.4 20.45 -87.4 21.15 -87.4 21.7 -86.85 M18.85 -63.95 Q18.85 -64.7 19.4 -65.2 19.95 -65.75 20.7 -65.75 21.45 -65.75 22.0 -65.2 22.55 -64.7 22.55 -63.95 22.55 -63.2 22.0 -62.65 21.45 -62.15 20.7 -62.15 19.95 -62.15 19.4 -62.65 18.85 -63.2 18.85 -63.95 M28.3 -63.4 Q29.1 -63.4 29.7 -62.8 30.25 -62.25 30.25 -61.45 30.25 -60.65 29.7 -60.05 29.1 -59.5 28.3 -59.5 27.5 -59.5 26.95 -60.05 26.35 -60.65 26.35 -61.45 26.35 -62.25 26.95 -62.8 27.5 -63.4 28.3 -63.4 M32.45 -45.9 Q33.0 -46.45 33.8 -46.45 34.6 -46.45 35.15 -45.9 35.7 -45.35 35.7 -44.55 35.7 -43.75 35.15 -43.2 34.6 -42.65 33.8 -42.65 33.0 -42.65 32.45 -43.2 31.9 -43.75 31.9 -44.55 31.9 -45.35 32.45 -45.9 M22.9 -40.7 Q22.55 -40.4 22.05 -40.4 21.55 -40.4 21.25 -40.7 20.9 -41.05 20.9 -41.55 20.9 -42.05 21.25 -42.35 21.55 -42.7 22.05 -42.7 L22.9 -42.35 23.2 -41.55 22.9 -40.7 M20.9 -27.75 Q20.5 -27.4 20.0 -27.4 19.5 -27.4 19.15 -27.75 18.75 -28.15 18.75 -28.65 18.75 -29.15 19.15 -29.5 19.5 -29.9 20.0 -29.9 20.5 -29.9 20.9 -29.5 21.25 -29.15 21.25 -28.65 21.25 -28.15 20.9 -27.75 M12.55 -46.75 Q12.15 -46.4 11.65 -46.4 11.15 -46.4 10.8 -46.75 10.4 -47.1 10.4 -47.6 10.4 -48.1 10.8 -48.45 11.15 -48.8 11.65 -48.8 L12.55 -48.45 12.9 -47.6 Q12.9 -47.1 12.55 -46.75 M11.15 -22.5 L11.0 -22.15 Q10.85 -22.0 10.6 -22.0 10.35 -22.0 10.2 -22.15 L10.05 -22.5 10.2 -22.85 10.6 -23.0 11.0 -22.85 11.15 -22.5 M58.3 -43.6 L58.7 -43.75 59.1 -43.6 59.25 -43.2 59.1 -42.8 Q58.95 -42.65 58.7 -42.65 L58.3 -42.8 58.15 -43.2 58.3 -43.6 M47.45 -40.9 L46.55 -44.95 48.2 -45.7 51.0 -41.75 49.7 -39.95 47.45 -40.9 M56.05 -23.8 Q57.15 -23.35 57.15 -22.65 57.15 -21.95 56.05 -21.45 L53.35 -21.0 Q51.8 -21.0 50.7 -21.45 49.55 -21.95 49.55 -22.65 49.55 -23.35 50.7 -23.8 L53.35 -24.3 56.05 -23.8 M45.3 -18.65 L45.6 -18.65 45.45 -18.45 45.3 -18.65 M49.5 -2.5 Q49.15 -2.85 49.15 -3.35 49.15 -3.85 49.5 -4.2 49.85 -4.55 50.35 -4.55 50.85 -4.55 51.2 -4.2 L51.55 -3.35 Q51.55 -2.85 51.2 -2.5 50.85 -2.15 50.35 -2.15 49.85 -2.15 49.5 -2.5 M72.6 -14.25 Q72.05 -13.75 71.35 -13.75 70.65 -13.75 70.15 -14.25 69.6 -14.75 69.6 -15.45 69.6 -16.15 70.15 -16.65 70.65 -17.15 71.35 -17.15 72.05 -17.15 72.6 -16.65 73.1 -16.15 73.1 -15.45 73.1 -14.75 72.6 -14.25 M69.35 -3.9 Q68.55 -3.9 68.0 -4.45 67.45 -5.0 67.45 -5.75 67.45 -6.5 68.0 -7.05 68.55 -7.6 69.35 -7.6 70.15 -7.6 70.7 -7.05 71.25 -6.5 71.25 -5.75 71.25 -5.0 70.7 -4.45 70.15 -3.9 69.35 -3.9 M104.95 -19.05 Q105.1 -19.2 105.3 -19.2 L105.65 -19.05 105.8 -18.7 105.65 -18.35 105.3 -18.2 Q105.1 -18.2 104.95 -18.35 L104.8 -18.7 104.95 -19.05 M121.0 -11.9 L121.85 -12.45 123.3 -12.3 125.1 -10.1 128.5 -10.55 129.85 -8.6 127.5 -6.55 129.0 -0.85 127.75 0.9 125.6 -0.05 124.75 -4.2 127.0 -7.1 125.3 -9.65 122.65 -9.0 120.75 -11.15 121.0 -11.9 M142.5 -46.5 Q141.9 -46.05 141.05 -46.05 140.2 -46.05 139.6 -46.5 139.0 -47.0 139.0 -47.7 139.0 -48.4 139.6 -48.85 140.2 -49.35 141.05 -49.35 141.9 -49.35 142.5 -48.85 143.1 -48.4 143.1 -47.7 143.1 -47.0 142.5 -46.5 M150.5 -25.55 L148.15 -24.35 146.95 -21.5 142.65 -23.25 139.5 -22.1 138.4 -23.25 138.05 -26.45 136.25 -28.25 137.6 -30.45 138.55 -30.1 139.05 -26.05 143.1 -23.75 146.8 -25.35 148.35 -28.15 150.6 -28.0 151.1 -26.6 150.5 -25.55 M160.55 -28.95 Q160.0 -28.45 159.25 -28.45 158.5 -28.45 158.0 -28.95 157.45 -29.5 157.45 -30.25 157.45 -31.0 158.0 -31.5 158.5 -32.05 159.25 -32.05 160.0 -32.05 160.55 -31.5 161.05 -31.0 161.05 -30.25 161.05 -29.5 160.55 -28.95 M136.85 -45.65 Q136.25 -45.3 135.45 -45.3 134.65 -45.3 134.1 -45.65 133.5 -46.05 133.5 -46.6 133.5 -47.15 134.1 -47.5 134.65 -47.9 135.45 -47.9 136.25 -47.9 136.85 -47.5 137.4 -47.15 137.4 -46.6 137.4 -46.05 136.85 -45.65 M125.75 -28.55 Q125.2 -28.0 124.45 -28.0 123.7 -28.0 123.15 -28.55 122.6 -29.1 122.6 -29.85 122.6 -30.6 123.15 -31.15 123.7 -31.7 124.45 -31.7 125.2 -31.7 125.75 -31.15 126.3 -30.6 126.3 -29.85 126.3 -29.1 125.75 -28.55 M138.95 -19.4 L139.85 -18.3 139.25 -12.45 138.25 -11.8 132.0 -13.95 131.45 -14.8 135.75 -16.6 136.9 -18.85 138.95 -19.4 M157.35 -19.4 L147.35 -14.65 145.95 -15.05 145.6 -17.2 147.6 -18.05 148.5 -19.5 156.15 -22.6 157.85 -22.1 157.35 -19.4 M156.85 -13.95 Q157.4 -14.5 158.15 -14.5 158.9 -14.5 159.45 -13.95 160.0 -13.45 160.0 -12.7 160.0 -11.95 159.45 -11.4 158.9 -10.9 158.15 -10.9 157.4 -10.9 156.85 -11.4 156.3 -11.95 156.3 -12.7 156.3 -13.45 156.85 -13.95 M213.1 -65.9 Q212.8 -65.65 212.45 -65.65 212.1 -65.65 211.85 -65.9 211.55 -66.2 211.55 -66.55 211.55 -66.9 211.85 -67.15 L212.45 -67.45 213.1 -67.15 213.35 -66.55 213.1 -65.9 M212.55 -61.8 L212.85 -61.8 212.85 -61.6 212.55 -61.6 212.55 -61.8 M203.75 -53.0 L205.6 -52.2 208.05 -53.25 207.9 -52.25 202.6 -51.9 203.75 -53.0 M216.75 -56.65 L217.15 -56.65 216.95 -56.25 216.75 -56.65 M213.4 -53.7 L213.7 -53.7 213.7 -53.4 213.4 -53.4 213.4 -53.7 M190.05 -62.85 L191.1 -62.4 Q191.5 -62.0 191.5 -61.4 191.5 -60.8 191.1 -60.35 190.65 -59.95 190.05 -59.95 189.45 -59.95 189.05 -60.35 188.6 -60.8 188.6 -61.4 188.6 -62.0 189.05 -62.4 L190.05 -62.85 M191.4 -51.05 Q190.9 -50.6 190.25 -50.6 189.6 -50.6 189.15 -51.05 188.65 -51.5 188.65 -52.15 188.65 -52.8 189.15 -53.25 189.6 -53.7 190.25 -53.7 L191.4 -53.25 Q191.85 -52.8 191.85 -52.15 191.85 -51.5 191.4 -51.05 M196.85 -50.3 Q196.55 -50.05 196.2 -50.05 195.85 -50.05 195.6 -50.3 195.3 -50.55 195.3 -50.9 L195.6 -51.5 196.2 -51.75 196.85 -51.5 197.1 -50.9 196.85 -50.3 M197.2 -44.15 Q197.45 -44.45 197.8 -44.45 L198.45 -44.15 198.7 -43.55 198.45 -42.9 197.8 -42.65 Q197.45 -42.65 197.2 -42.9 196.9 -43.2 196.9 -43.55 L197.2 -44.15 M182.75 -44.25 L179.65 -43.75 179.0 -42.2 177.0 -41.5 176.35 -37.1 175.2 -36.7 172.55 -39.0 176.3 -40.8 177.8 -45.15 181.55 -46.65 183.15 -44.15 186.1 -42.7 185.5 -41.25 184.15 -41.4 183.4 -43.7 182.75 -44.25 M189.35 -38.8 Q189.85 -39.15 190.55 -39.15 L191.75 -38.8 Q192.25 -38.45 192.25 -37.95 192.25 -37.45 191.75 -37.1 191.25 -36.75 190.55 -36.75 189.85 -36.75 189.35 -37.1 188.85 -37.45 188.85 -37.95 188.85 -38.45 189.35 -38.8 M183.25 -26.7 Q182.85 -26.35 182.3 -26.35 181.75 -26.35 181.4 -26.7 181.0 -27.1 181.0 -27.65 181.0 -28.2 181.4 -28.55 181.75 -28.95 182.3 -28.95 182.85 -28.95 183.25 -28.55 183.6 -28.2 183.6 -27.65 183.6 -27.1 183.25 -26.7 M183.0 -33.95 Q182.55 -33.55 181.95 -33.55 181.35 -33.55 180.95 -33.95 180.5 -34.4 180.5 -35.0 180.5 -35.6 180.95 -36.0 181.35 -36.45 181.95 -36.45 L183.0 -36.0 Q183.4 -35.6 183.4 -35.0 183.4 -34.4 183.0 -33.95 M164.4 -38.2 L171.85 -39.15 164.4 -35.5 163.55 -37.3 164.4 -38.2 M163.95 -26.2 Q164.7 -26.2 165.25 -25.65 165.8 -25.15 165.8 -24.4 165.8 -23.65 165.25 -23.1 164.7 -22.6 163.95 -22.6 163.2 -22.6 162.65 -23.1 162.1 -23.65 162.1 -24.4 162.1 -25.15 162.65 -25.65 163.2 -26.2 163.95 -26.2 M174.5 -30.85 L174.5 -23.15 172.2 -23.15 172.2 -30.85 174.5 -30.85 M214.15 -49.15 L213.95 -48.75 213.75 -49.15 214.15 -49.15 M217.7 -43.75 L217.5 -43.35 217.3 -43.75 217.7 -43.75 M206.2 -41.65 L205.65 -41.45 Q205.35 -41.45 205.15 -41.65 204.9 -41.85 204.9 -42.15 L205.15 -42.65 205.65 -42.85 206.2 -42.65 206.4 -42.15 206.2 -41.65 M148.7 2.9 Q149.2 2.35 149.95 2.35 150.7 2.35 151.25 2.9 151.75 3.4 151.75 4.15 151.75 4.9 151.25 5.45 150.7 5.95 149.95 5.95 149.2 5.95 148.7 5.45 148.15 4.9 148.15 4.15 148.15 3.4 148.7 2.9 M150.75 18.15 Q150.1 18.15 149.65 17.7 149.2 17.25 149.2 16.6 149.2 15.95 149.65 15.5 150.1 15.05 150.75 15.05 151.4 15.05 151.85 15.5 152.3 15.95 152.3 16.6 152.3 17.25 151.85 17.7 151.4 18.15 150.75 18.15 M122.1 11.8 L119.25 12.4 117.85 10.9 116.25 10.85 114.85 12.25 112.6 12.25 112.1 10.15 113.15 7.3 110.6 5.7 111.95 4.75 114.25 6.6 116.15 6.1 117.85 6.7 118.95 9.55 121.75 10.25 122.1 11.8 M109.15 16.8 Q108.65 16.3 108.65 15.6 108.65 14.9 109.15 14.45 109.6 13.95 110.25 13.95 110.9 13.95 111.4 14.45 111.85 14.9 111.85 15.6 111.85 16.3 111.4 16.8 L110.25 17.25 Q109.6 17.25 109.15 16.8 M104.05 15.75 Q103.7 16.1 103.2 16.1 102.7 16.1 102.35 15.75 102.0 15.35 102.0 14.85 102.0 14.35 102.35 14.0 102.7 13.6 103.2 13.6 103.7 13.6 104.05 14.0 104.4 14.35 104.4 14.85 L104.05 15.75 M90.75 5.0 L90.65 5.2 90.55 5.0 90.75 5.0 M96.15 20.4 L96.7 20.0 97.9 20.45 94.8 27.0 94.15 25.3 95.85 24.3 96.15 20.4 M92.75 29.75 Q93.0 29.45 93.4 29.45 93.8 29.45 94.1 29.75 L94.35 30.45 94.1 31.15 93.4 31.45 Q93.0 31.45 92.75 31.15 92.45 30.85 92.45 30.45 92.45 30.05 92.75 29.75 M87.15 30.9 L87.5 27.45 88.0 28.25 87.4 29.0 87.15 30.9 M89.15 36.45 L88.8 36.6 88.45 36.45 88.3 36.1 Q88.3 35.9 88.45 35.75 88.6 35.6 88.8 35.6 89.0 35.6 89.15 35.75 L89.3 36.1 89.15 36.45 M84.3 39.95 L83.85 40.1 83.45 39.95 83.25 39.55 83.45 39.15 Q83.6 39.0 83.85 39.0 L84.3 39.15 84.45 39.55 84.3 39.95 M102.3 29.15 Q102.65 28.8 103.15 28.8 103.65 28.8 104.0 29.15 104.35 29.5 104.35 30.0 L104.0 30.85 Q103.65 31.2 103.15 31.2 102.65 31.2 102.3 30.85 101.95 30.5 101.95 30.0 101.95 29.5 102.3 29.15 M120.95 43.4 Q120.4 43.9 119.7 43.9 119.0 43.9 118.5 43.4 117.95 42.85 117.95 42.15 117.95 41.45 118.5 40.95 119.0 40.4 119.7 40.4 120.4 40.4 120.95 40.95 121.45 41.45 121.45 42.15 121.45 42.85 120.95 43.4 M103.05 63.7 L102.2 64.0 Q101.7 64.0 101.4 63.7 101.05 63.35 101.05 62.85 101.05 62.35 101.4 62.05 101.7 61.7 102.2 61.7 102.7 61.7 103.05 62.05 L103.35 62.85 103.05 63.7 M69.0 21.2 L68.65 21.35 68.3 21.2 68.15 20.85 68.3 20.5 68.65 20.35 69.0 20.5 69.15 20.85 69.0 21.2 M60.0 3.15 L59.9 3.45 59.8 3.15 60.0 3.15 M55.05 7.8 L53.9 9.2 52.45 9.15 50.95 7.5 47.75 7.8 47.25 6.85 48.35 6.25 54.85 7.15 55.05 7.8 M52.05 36.35 Q52.35 36.0 52.8 36.0 53.25 36.0 53.6 36.35 53.9 36.65 53.9 37.1 L53.6 37.9 52.8 38.2 Q52.35 38.2 52.05 37.9 51.7 37.55 51.7 37.1 51.7 36.65 52.05 36.35 M48.4 32.65 L48.3 32.95 48.2 32.65 48.4 32.65 M77.9 30.25 Q78.05 30.1 78.25 30.1 L78.6 30.25 78.75 30.6 78.6 30.95 78.25 31.1 77.9 30.95 77.75 30.6 77.9 30.25 M73.1 34.85 L73.5 34.85 73.3 35.35 73.1 34.85 M61.6 28.55 L61.55 28.45 Q62.3 28.65 61.6 28.55 M64.95 34.45 L64.6 34.6 64.25 34.45 64.1 34.1 64.25 33.75 Q64.4 33.6 64.6 33.6 L64.95 33.75 65.1 34.1 64.95 34.45 M67.35 31.1 L67.75 31.1 67.55 31.6 67.35 31.1 M76.45 40.25 L76.85 40.05 77.25 40.25 77.4 40.65 77.25 41.1 76.85 41.25 76.45 41.1 76.3 40.65 76.45 40.25 M72.65 45.4 L72.85 45.4 72.75 45.7 72.65 45.4 M34.75 0.25 Q34.9 0.1 35.1 0.1 L35.45 0.25 35.6 0.6 35.45 0.95 35.1 1.1 34.75 0.95 34.6 0.6 Q34.6 0.4 34.75 0.25 M25.3 9.1 L24.85 9.25 24.45 9.1 24.25 8.65 24.45 8.25 24.85 8.05 25.3 8.25 25.45 8.65 25.3 9.1 M70.8 67.35 L70.8 67.8 70.35 67.8 70.35 67.35 70.8 67.35 M62.0 62.9 L62.0 63.35 61.55 63.35 61.55 62.9 62.0 62.9 M43.75 50.35 L43.8 50.5 43.75 50.65 43.6 50.7 43.45 50.65 43.4 50.5 43.45 50.35 43.6 50.3 43.75 50.35 M57.25 71.6 L56.85 71.6 56.85 71.2 57.25 71.2 57.25 71.6 M55.45 75.7 L55.45 76.05 55.15 76.05 55.15 75.7 55.45 75.7 M54.95 106.55 L54.9 106.55 54.95 106.5 54.95 106.55 M-243.35 -8.45 L-243.45 -8.55 Q-242.8 -8.45 -243.35 -8.45 M-210.25 -15.7 Q-210.5 -15.5 -210.85 -15.5 -211.2 -15.5 -211.4 -15.7 L-211.65 -16.3 -211.4 -16.85 -210.85 -17.1 -210.25 -16.85 -210.05 -16.3 -210.25 -15.7 M-203.5 -15.3 L-203.75 -15.9 -203.5 -16.45 -202.9 -16.7 -202.3 -16.45 -202.05 -15.9 -202.3 -15.3 Q-202.55 -15.1 -202.9 -15.1 L-203.5 -15.3 M-206.8 -6.7 L-206.25 -6.95 -205.65 -6.7 -205.45 -6.2 -205.65 -5.65 -206.25 -5.45 -206.8 -5.65 -207.05 -6.2 -206.8 -6.7 M-211.1 -11.75 L-211.45 -11.75 -211.45 -12.05 -211.1 -12.05 -211.1 -11.75 M-201.65 -0.2 L-202.85 0.5 -203.35 1.6 -204.1 1.5 -201.75 -1.4 -201.65 -0.2 M-194.75 -0.8 L-194.5 -0.95 -194.2 -0.8 -194.1 -0.4 -194.2 0.0 -194.5 0.15 -194.75 0.0 -194.9 -0.4 -194.75 -0.8 M-189.5 -8.95 L-189.45 -10.65 -187.95 -9.3 -189.5 -8.95 M-178.75 -3.15 Q-179.15 -2.75 -179.75 -2.75 -180.35 -2.75 -180.75 -3.15 -181.15 -3.6 -181.15 -4.2 -181.15 -4.8 -180.75 -5.2 -180.35 -5.65 -179.75 -5.65 -179.15 -5.65 -178.75 -5.2 -178.35 -4.8 -178.35 -4.2 -178.35 -3.6 -178.75 -3.15 M-175.95 -0.65 Q-175.3 -0.65 -174.85 -0.2 -174.4 0.25 -174.4 0.9 -174.4 1.55 -174.85 2.0 -175.3 2.45 -175.95 2.45 -176.6 2.45 -177.05 2.0 -177.5 1.55 -177.5 0.9 -177.5 0.25 -177.05 -0.2 -176.6 -0.65 -175.95 -0.65 M-149.8 -1.3 Q-149.3 -1.85 -148.55 -1.85 -147.8 -1.85 -147.25 -1.3 -146.75 -0.8 -146.75 -0.05 -146.75 0.7 -147.25 1.25 -147.8 1.75 -148.55 1.75 -149.3 1.75 -149.8 1.25 -150.35 0.7 -150.35 -0.05 -150.35 -0.8 -149.8 -1.3 M-51.2 48.15 Q-50.65 47.7 -49.85 47.7 -49.05 47.7 -48.45 48.15 -47.9 48.6 -47.9 49.2 -47.9 49.8 -48.45 50.25 L-49.85 50.7 Q-50.65 50.7 -51.2 50.25 -51.8 49.8 -51.8 49.2 -51.8 48.6 -51.2 48.15 M-56.15 48.95 Q-55.4 48.95 -54.85 49.4 -54.35 49.8 -54.35 50.4 -54.35 51.0 -54.85 51.45 -55.4 51.85 -56.15 51.85 -56.9 51.85 -57.4 51.45 -57.95 51.0 -57.95 50.4 -57.95 49.8 -57.4 49.4 -56.9 48.95 -56.15 48.95 M-50.4 59.9 L-52.5 62.95 -54.65 62.25 -54.1 60.9 -51.5 60.0 -50.75 57.45 -49.4 56.7 -48.5 56.9 -48.25 59.3 -50.4 59.9 M-50.9 67.65 L-51.5 67.85 -52.1 67.65 -52.35 67.05 -52.1 66.5 Q-51.85 66.25 -51.5 66.25 -51.15 66.25 -50.9 66.5 -50.65 66.7 -50.65 67.05 L-50.9 67.65 M-57.4 63.35 L-56.65 63.35 -57.05 63.75 -57.4 63.35 M-50.9 71.9 L-50.05 73.1 -47.3 72.05 -47.3 69.35 -44.1 65.4 -40.7 67.0 -41.35 68.7 -43.45 69.45 -45.1 71.95 -44.2 78.25 -42.55 79.4 -42.2 80.7 -46.75 89.7 -48.4 91.15 -47.5 95.45 -49.05 95.95 -54.05 88.35 -62.0 89.8 -60.95 87.0 -57.45 85.05 -56.7 83.25 -56.85 84.65 -54.4 88.2 -53.7 88.25 -53.5 88.9 -50.55 89.35 -49.6 87.35 -50.45 86.05 -52.05 85.75 -50.55 85.0 -50.4 82.8 -52.35 80.85 -56.45 82.35 -56.05 73.2 -55.5 72.7 -51.7 72.65 -50.9 71.9 M-41.25 73.95 L-41.0 73.95 -41.15 74.2 -41.25 73.95 M-66.35 77.8 Q-65.8 77.25 -65.05 77.25 -64.3 77.25 -63.75 77.8 -63.2 78.3 -63.2 79.05 -63.2 79.8 -63.75 80.35 -64.3 80.85 -65.05 80.85 -65.8 80.85 -66.35 80.35 -66.9 79.8 -66.9 79.05 -66.9 78.3 -66.35 77.8 M-68.3 98.5 L-67.6 103.35 -66.0 105.3 -66.9 108.7 -72.75 103.95 -69.25 98.2 -68.3 98.5 M-66.9 95.7 Q-66.9 94.9 -66.35 94.35 -65.8 93.8 -65.05 93.8 -64.3 93.8 -63.75 94.35 -63.2 94.9 -63.2 95.7 -63.2 96.5 -63.75 97.05 -64.3 97.6 -65.05 97.6 -65.8 97.6 -66.35 97.05 -66.9 96.5 -66.9 95.7 M-50.05 76.25 Q-50.7 76.25 -51.15 76.7 -51.65 77.15 -51.65 77.8 -51.65 78.45 -51.15 78.9 -50.7 79.35 -50.05 79.35 -49.4 79.35 -48.9 78.9 -48.45 78.45 -48.45 77.8 -48.45 77.15 -48.9 76.7 -49.4 76.25 -50.05 76.25 M-60.05 96.35 L-60.45 96.35 -60.45 95.95 -60.05 95.95 -60.05 96.35 M-54.0 97.95 Q-53.2 97.95 -52.65 98.5 -52.1 99.05 -52.1 99.85 -52.1 100.65 -52.65 101.2 -53.2 101.75 -54.0 101.75 -54.8 101.75 -55.35 101.2 -55.9 100.65 -55.9 99.85 -55.9 99.05 -55.35 98.5 -54.8 97.95 -54.0 97.95 M-18.25 60.45 Q-17.9 60.8 -17.9 61.3 -17.9 61.8 -18.25 62.2 -18.65 62.55 -19.15 62.55 L-20.0 62.2 Q-20.4 61.8 -20.4 61.3 -20.4 60.8 -20.0 60.45 -19.65 60.05 -19.15 60.05 -18.65 60.05 -18.25 60.45 M-19.15 72.65 L-19.75 73.85 -21.05 73.2 -19.9 70.15 -20.6 67.1 -18.3 66.7 -17.55 68.15 -19.95 70.6 -19.15 72.65 M-10.9 73.0 Q-11.25 72.65 -11.25 72.15 -11.25 71.65 -10.9 71.35 -10.6 71.0 -10.15 71.0 -9.7 71.0 -9.35 71.35 -9.05 71.65 -9.05 72.15 -9.05 72.65 -9.35 73.0 L-10.15 73.3 Q-10.6 73.3 -10.9 73.0 M-36.6 59.0 L-36.6 66.9 -39.5 66.9 -39.5 59.0 -36.6 59.0 M-37.65 70.75 L-37.15 69.9 -36.85 71.2 -37.65 70.75 M-25.55 70.8 Q-26.15 71.35 -26.95 71.35 -27.75 71.35 -28.3 70.8 -28.9 70.2 -28.9 69.4 -28.9 68.6 -28.3 68.05 -27.75 67.45 -26.95 67.45 -26.15 67.45 -25.55 68.05 -25.0 68.6 -25.0 69.4 -25.0 70.2 -25.55 70.8 M-33.95 89.35 L-33.65 89.2 -33.3 89.35 -33.2 89.6 -33.3 89.9 -33.65 90.0 -33.95 89.9 -34.1 89.6 -33.95 89.35 M-38.75 97.85 Q-38.0 97.85 -37.45 98.4 -36.95 98.95 -36.95 99.7 -36.95 100.45 -37.45 101.0 -38.0 101.55 -38.75 101.55 -39.5 101.55 -40.0 101.0 -40.55 100.45 -40.55 99.7 -40.55 98.95 -40.0 98.4 -39.5 97.85 -38.75 97.85 M-22.85 94.25 L-23.25 94.4 -23.65 94.25 -23.8 93.85 -23.65 93.45 Q-23.5 93.3 -23.25 93.3 -23.0 93.3 -22.85 93.45 -22.7 93.6 -22.7 93.85 L-22.85 94.25 M-18.0 77.5 L-19.35 77.35 -19.45 74.75 -18.0 77.5 M-119.8 9.1 Q-120.35 9.6 -121.1 9.6 -121.85 9.6 -122.4 9.1 -122.95 8.55 -122.95 7.8 -122.95 7.05 -122.4 6.55 -121.85 6.0 -121.1 6.0 -120.35 6.0 -119.8 6.55 -119.25 7.05 -119.25 7.8 -119.25 8.55 -119.8 9.1 M-114.9 17.7 Q-115.25 18.05 -115.75 18.05 -116.25 18.05 -116.6 17.7 -116.95 17.35 -116.95 16.85 -116.95 16.35 -116.6 16.0 -116.25 15.65 -115.75 15.65 -115.25 15.65 -114.9 16.0 -114.55 16.35 -114.55 16.85 -114.55 17.35 -114.9 17.7 M-110.45 24.4 Q-109.95 24.4 -109.6 24.75 -109.25 25.05 -109.25 25.55 -109.25 26.05 -109.6 26.4 L-110.45 26.7 -111.3 26.4 -111.65 25.55 Q-111.65 25.05 -111.3 24.75 -110.95 24.4 -110.45 24.4 M-102.55 33.9 Q-102.95 33.55 -102.95 33.05 -102.95 32.55 -102.55 32.2 -102.2 31.85 -101.7 31.85 -101.2 31.85 -100.8 32.2 -100.45 32.55 -100.45 33.05 -100.45 33.55 -100.8 33.9 -101.2 34.25 -101.7 34.25 L-102.55 33.9 M-103.55 39.55 L-103.9 39.7 -104.25 39.55 -104.4 39.15 -104.25 38.75 -103.9 38.6 Q-103.7 38.6 -103.55 38.75 -103.4 38.9 -103.4 39.15 -103.4 39.4 -103.55 39.55 M-95.4 30.9 Q-95.25 31.05 -95.25 31.3 L-95.4 31.7 -95.8 31.85 -96.2 31.7 -96.35 31.3 -96.2 30.9 -95.8 30.75 -95.4 30.9 M-138.65 0.55 Q-138.1 1.1 -138.1 1.85 -138.1 2.6 -138.65 3.15 -139.2 3.7 -139.95 3.7 -140.7 3.7 -141.25 3.15 -141.8 2.6 -141.8 1.85 -141.8 1.1 -141.25 0.55 -140.7 0.0 -139.95 0.0 -139.2 0.0 -138.65 0.55 M-140.1 12.4 L-137.7 9.2 -131.2 9.85 -136.4 12.0 -137.3 13.7 -139.65 13.75 -140.1 12.4 M-121.75 18.35 L-121.55 19.25 -122.15 20.55 -128.25 18.0 -126.5 15.95 -121.75 18.35 M-159.65 16.5 Q-159.65 15.9 -159.2 15.45 -158.75 15.0 -158.1 15.0 -157.45 15.0 -157.0 15.45 -156.55 15.9 -156.55 16.5 -156.55 17.1 -157.0 17.55 -157.45 18.0 -158.1 18.0 L-159.2 17.55 Q-159.65 17.1 -159.65 16.5 M-161.35 23.15 Q-161.9 23.55 -162.7 23.55 -163.5 23.55 -164.05 23.15 -164.6 22.75 -164.6 22.15 -164.6 21.55 -164.05 21.15 L-162.7 20.75 Q-161.9 20.75 -161.35 21.15 -160.8 21.55 -160.8 22.15 -160.8 22.75 -161.35 23.15 M-145.8 24.65 L-146.75 25.7 -148.65 26.0 -153.0 23.45 -143.8 21.2 -143.0 21.9 -143.7 24.15 -145.8 24.65 M-155.25 35.6 Q-154.5 35.6 -153.95 36.15 -153.45 36.65 -153.45 37.4 -153.45 38.15 -153.95 38.7 -154.5 39.2 -155.25 39.2 -156.0 39.2 -156.5 38.7 -157.05 38.15 -157.05 37.4 -157.05 36.65 -156.5 36.15 -156.0 35.6 -155.25 35.6 M-147.7 40.7 L-143.05 44.5 -146.8 46.8 -147.45 49.15 -150.4 49.3 -150.85 47.6 -148.9 45.15 -150.15 41.7 -149.3 40.65 -147.7 40.7 M-131.4 32.15 L-134.75 33.85 -136.6 40.85 -138.25 35.75 -132.55 30.15 -131.55 30.35 -131.4 32.15 M-124.0 41.15 L-124.0 48.7 -126.7 48.7 -126.7 41.15 -124.0 41.15 M-155.4 59.5 Q-155.95 60.05 -156.7 60.05 -157.45 60.05 -157.95 59.5 -158.5 58.95 -158.5 58.2 -158.5 57.45 -157.95 56.9 -157.45 56.35 -156.7 56.35 -155.95 56.35 -155.4 56.9 -154.9 57.45 -154.9 58.2 -154.9 58.95 -155.4 59.5 M-89.3 49.6 L-89.1 49.6 -89.2 49.8 -89.3 49.6 M-86.45 61.6 L-85.75 61.6 -85.75 61.85 -86.45 61.85 -86.45 61.6 M-94.5 71.25 Q-94.8 71.55 -95.25 71.55 -95.7 71.55 -96.0 71.25 L-96.3 70.45 -96.0 69.7 Q-95.7 69.35 -95.25 69.35 -94.8 69.35 -94.5 69.7 -94.2 70.0 -94.2 70.45 -94.2 70.9 -94.5 71.25 M-81.9 63.25 L-82.35 63.35 -82.75 63.25 -82.95 63.0 -82.75 62.75 -82.35 62.65 -81.9 62.75 -81.75 63.0 -81.9 63.25 M-111.15 61.8 Q-111.7 62.35 -112.5 62.35 -113.3 62.35 -113.85 61.8 -114.4 61.25 -114.4 60.45 -114.4 59.65 -113.85 59.1 -113.3 58.55 -112.5 58.55 -111.7 58.55 -111.15 59.1 -110.6 59.65 -110.6 60.45 -110.6 61.25 -111.15 61.8 M-117.7 67.0 Q-118.2 67.45 -118.85 67.45 -119.5 67.45 -119.95 67.0 -120.45 66.55 -120.45 65.9 -120.45 65.25 -119.95 64.8 -119.5 64.35 -118.85 64.35 -118.2 64.35 -117.7 64.8 -117.25 65.25 -117.25 65.9 -117.25 66.55 -117.7 67.0 M-109.7 83.0 Q-109.15 82.4 -108.35 82.4 -107.55 82.4 -106.95 83.0 -106.4 83.55 -106.4 84.35 -106.4 85.15 -106.95 85.75 -107.55 86.3 -108.35 86.3 -109.15 86.3 -109.7 85.75 -110.3 85.15 -110.3 84.35 -110.3 83.55 -109.7 83.0 M-113.25 79.85 Q-113.85 80.4 -114.65 80.4 -115.45 80.4 -116.0 79.85 -116.6 79.25 -116.6 78.45 -116.6 77.65 -116.0 77.1 -115.45 76.5 -114.65 76.5 -113.85 76.5 -113.25 77.1 -112.7 77.65 -112.7 78.45 -112.7 79.25 -113.25 79.85 M-116.75 95.7 Q-117.3 96.2 -118.05 96.2 -118.8 96.2 -119.35 95.7 -119.9 95.15 -119.9 94.4 -119.9 93.65 -119.35 93.15 -118.8 92.6 -118.05 92.6 -117.3 92.6 -116.75 93.15 -116.2 93.65 -116.2 94.4 -116.2 95.15 -116.75 95.7 M-90.85 78.65 Q-91.25 79.0 -91.75 79.0 -92.25 79.0 -92.6 78.65 -93.0 78.3 -93.0 77.8 -93.0 77.3 -92.6 76.95 -92.25 76.6 -91.75 76.6 -91.25 76.6 -90.85 76.95 -90.5 77.3 -90.5 77.8 -90.5 78.3 -90.85 78.65 M-85.55 98.5 Q-85.4 98.35 -85.2 98.35 -85.0 98.35 -84.85 98.5 -84.7 98.65 -84.7 98.85 L-84.85 99.2 -85.2 99.35 -85.55 99.2 -85.7 98.85 -85.55 98.5 M-99.7 115.6 L-100.55 115.9 -101.35 115.6 -101.7 114.8 Q-101.7 114.35 -101.35 114.05 -101.05 113.7 -100.55 113.7 -100.05 113.7 -99.7 114.05 -99.4 114.35 -99.4 114.8 -99.4 115.25 -99.7 115.6 M-87.45 114.0 L-87.1 113.85 Q-86.9 113.85 -86.75 114.0 -86.6 114.15 -86.6 114.4 -86.6 114.65 -86.75 114.8 L-87.1 114.95 -87.45 114.8 -87.6 114.4 -87.45 114.0 M-102.35 125.8 L-102.7 125.05 Q-102.7 124.6 -102.35 124.3 -102.05 124.0 -101.6 124.0 -101.15 124.0 -100.8 124.3 -100.5 124.6 -100.5 125.05 -100.5 125.5 -100.8 125.8 -101.15 126.1 -101.6 126.1 L-102.35 125.8 M-94.1 128.65 Q-93.75 128.3 -93.25 128.3 -92.75 128.3 -92.4 128.65 -92.05 129.0 -92.05 129.5 -92.05 130.0 -92.4 130.35 -92.75 130.7 -93.25 130.7 -93.75 130.7 -94.1 130.35 L-94.45 129.5 Q-94.45 129.0 -94.1 128.65 M-31.0 110.65 Q-31.55 111.2 -32.3 111.2 -33.05 111.2 -33.6 110.65 -34.15 110.1 -34.15 109.35 -34.15 108.6 -33.6 108.05 -33.05 107.5 -32.3 107.5 -31.55 107.5 -31.0 108.05 -30.45 108.6 -30.45 109.35 -30.45 110.1 -31.0 110.65 M-46.45 102.7 L-47.3 102.35 -47.65 101.5 Q-47.65 101.0 -47.3 100.65 -46.95 100.3 -46.45 100.3 -45.95 100.3 -45.6 100.65 -45.25 101.0 -45.25 101.5 -45.25 102.0 -45.6 102.35 -45.95 102.7 -46.45 102.7 M-63.0 110.95 Q-62.75 110.95 -62.55 111.1 -62.4 111.25 -62.4 111.5 L-62.55 111.9 -63.0 112.05 -63.4 111.9 -63.6 111.5 -63.4 111.1 -63.0 110.95 M-76.65 119.3 L-76.25 119.5 Q-76.1 119.65 -76.1 119.9 L-76.25 120.35 -76.65 120.5 -77.05 120.35 -77.2 119.9 -77.05 119.5 -76.65 119.3 M-68.95 129.45 L-69.05 129.25 -68.85 129.25 -68.95 129.45 M-73.15 141.85 L-72.85 141.85 -73.0 142.25 -73.15 141.85 M-52.95 128.25 Q-52.5 127.8 -51.9 127.8 -51.3 127.8 -50.85 128.25 -50.4 128.7 -50.4 129.3 -50.4 129.9 -50.85 130.35 -51.3 130.8 -51.9 130.8 L-52.95 130.35 Q-53.4 129.9 -53.4 129.3 -53.4 128.7 -52.95 128.25 M-53.55 132.8 L-53.55 133.15 -53.85 133.15 -53.85 132.8 -53.55 132.8 M-52.1 141.45 L-52.45 140.6 Q-52.45 140.1 -52.1 139.8 -51.8 139.45 -51.3 139.45 -50.8 139.45 -50.45 139.8 -50.15 140.1 -50.15 140.6 -50.15 141.1 -50.45 141.45 -50.8 141.75 -51.3 141.75 L-52.1 141.45 M-163.5 10.0 Q-164.3 10.0 -164.85 9.45 -165.4 8.9 -165.4 8.15 -165.4 7.4 -164.85 6.85 -164.3 6.3 -163.5 6.3 -162.7 6.3 -162.15 6.85 -161.6 7.4 -161.6 8.15 -161.6 8.9 -162.15 9.45 -162.7 10.0 -163.5 10.0 M-175.2 15.3 Q-174.7 14.75 -174.0 14.75 -173.3 14.75 -172.75 15.3 -172.25 15.8 -172.25 16.55 -172.25 17.3 -172.75 17.85 -173.3 18.35 -174.0 18.35 -174.7 18.35 -175.2 17.85 -175.75 17.3 -175.75 16.55 -175.75 15.8 -175.2 15.3 M-180.65 22.45 Q-180.1 22.45 -179.7 23.15 -179.3 23.85 -179.3 24.85 -179.3 25.85 -179.7 26.55 -180.1 27.25 -180.65 27.25 -181.2 27.25 -181.6 26.55 -182.0 25.85 -182.0 24.85 -182.0 23.85 -181.6 23.15 -181.2 22.45 -180.65 22.45 M-165.0 17.1 Q-165.5 17.6 -166.2 17.6 -166.9 17.6 -167.4 17.1 -167.9 16.6 -167.9 15.9 -167.9 15.2 -167.4 14.7 -166.9 14.2 -166.2 14.2 -165.5 14.2 -165.0 14.7 -164.5 15.2 -164.5 15.9 -164.5 16.6 -165.0 17.1 M-190.3 8.95 Q-190.3 8.5 -189.75 8.2 L-188.55 7.9 -187.3 8.2 Q-186.8 8.5 -186.8 8.95 -186.8 9.4 -187.3 9.7 L-188.55 10.0 -189.75 9.7 Q-190.3 9.4 -190.3 8.95 M-183.8 11.05 L-186.05 9.55 -182.8 9.3 -182.6 10.3 -183.8 11.05 M-173.5 28.3 L-173.75 26.2 -165.7 24.0 -166.1 25.5 -172.2 28.7 -173.5 28.3 M-172.9 40.25 Q-172.9 39.5 -172.35 39.0 -171.85 38.45 -171.15 38.45 -170.45 38.45 -169.9 39.0 -169.4 39.5 -169.4 40.25 -169.4 41.0 -169.9 41.55 -170.45 42.05 -171.15 42.05 -171.85 42.05 -172.35 41.55 -172.9 41.0 -172.9 40.25 M-216.0 5.95 L-216.0 6.25 -216.3 6.25 -216.3 5.95 -216.0 5.95" fill="#ccffff" fill-rule="evenodd" stroke="none"/>
  </g>
</svg>
