<?xml version="1.0" encoding="UTF-8" standalone="no"?>
<svg xmlns:xlink="http://www.w3.org/1999/xlink" height="301.2px" width="486.45px" xmlns="http://www.w3.org/2000/svg">
  <g transform="matrix(1.0, 0.0, 0.0, 1.0, 238.85, 144.4)">
    <path d="M72.4 96.7 L72.4 97.1 72.0 97.1 72.0 96.7 72.4 96.7 M47.0 83.5 L47.4 83.5 47.2 84.0 47.0 83.5 M48.4 80.75 L48.15 81.2 47.95 80.75 48.4 80.75 M52.65 65.6 L52.8 65.25 Q52.95 65.1 53.2 65.1 L53.6 65.25 53.75 65.6 53.6 65.95 53.2 66.1 52.8 65.95 52.65 65.6 M58.35 65.0 Q57.75 64.8 58.35 64.9 L58.35 65.0 M62.05 59.35 L62.25 59.35 62.15 59.55 62.05 59.35 M80.7 57.8 L80.9 57.8 80.8 58.0 80.7 57.8 M74.1 54.25 L74.3 54.25 74.2 54.45 74.1 54.25 M22.8 33.5 L22.8 33.8 22.5 33.8 22.5 33.5 22.8 33.5 M34.0 24.9 L33.9 25.1 33.8 24.9 34.0 24.9 M78.75 48.3 L78.85 48.55 78.75 48.8 78.5 48.9 78.25 48.8 78.15 48.55 78.25 48.3 78.5 48.2 78.75 48.3 M68.0 31.2 L68.0 31.6 67.6 31.6 67.6 31.2 68.0 31.2 M48.15 32.0 L48.3 32.4 48.15 32.8 47.8 32.95 47.45 32.8 Q47.3 32.65 47.3 32.4 47.3 32.15 47.45 32.0 47.6 31.85 47.8 31.85 L48.15 32.0 M52.9 35.3 Q52.6 35.0 52.6 34.6 52.6 34.2 52.9 33.9 53.2 33.6 53.6 33.6 54.0 33.6 54.3 33.9 L54.6 34.6 54.3 35.3 53.6 35.6 52.9 35.3 M50.05 20.8 Q50.2 20.65 50.4 20.65 L50.75 20.8 50.9 21.1 50.75 21.45 50.4 21.55 50.05 21.45 49.9 21.1 Q49.9 20.9 50.05 20.8 M57.25 2.85 L55.8 3.2 53.1 1.5 50.5 2.05 50.0 1.25 50.8 0.4 53.3 1.15 56.05 0.25 57.6 2.2 57.25 2.85 M70.05 19.3 Q70.05 18.8 70.45 18.45 70.8 18.05 71.3 18.05 71.8 18.05 72.2 18.45 72.55 18.8 72.55 19.3 72.55 19.8 72.2 20.2 L71.3 20.55 Q70.8 20.55 70.45 20.2 70.05 19.8 70.05 19.3 M72.55 9.45 Q72.15 9.1 72.15 8.6 72.15 8.1 72.55 7.75 72.9 7.4 73.4 7.4 73.9 7.4 74.3 7.75 74.65 8.1 74.65 8.6 L74.3 9.45 73.4 9.8 Q72.9 9.8 72.55 9.45 M88.05 83.25 L88.2 83.65 88.05 84.05 87.65 84.2 87.25 84.05 87.1 83.65 87.25 83.25 87.65 83.1 Q87.9 83.1 88.05 83.25 M99.4 52.7 L99.55 53.05 99.4 53.4 99.05 53.55 98.7 53.4 98.55 53.05 Q98.55 52.85 98.7 52.7 98.85 52.55 99.05 52.55 99.25 52.55 99.4 52.7 M105.95 60.45 Q106.3 60.8 106.3 61.3 L105.95 62.15 105.1 62.5 Q104.6 62.5 104.25 62.15 103.9 61.8 103.9 61.3 103.9 60.8 104.25 60.45 104.6 60.1 105.1 60.1 105.6 60.1 105.95 60.45 M89.15 47.4 L89.25 47.75 89.15 48.1 88.8 48.25 88.5 48.1 88.35 47.75 88.5 47.4 Q88.6 47.25 88.8 47.25 89.0 47.25 89.15 47.4 M89.45 30.75 Q89.7 30.75 89.85 30.9 L90.0 31.25 89.85 31.6 89.45 31.75 89.05 31.6 88.9 31.25 Q88.9 31.05 89.05 30.9 89.2 30.75 89.45 30.75 M95.25 30.55 Q95.75 30.55 96.1 30.9 L96.4 31.7 96.1 32.55 95.25 32.85 94.45 32.55 Q94.1 32.2 94.1 31.7 94.1 31.2 94.45 30.9 94.75 30.55 95.25 30.55 M100.2 24.1 L100.0 22.25 104.15 23.15 104.4 25.15 106.7 26.6 106.45 28.55 104.7 28.5 103.65 24.55 100.75 24.8 100.1 26.65 98.55 26.85 98.3 26.1 100.2 24.1 M110.65 15.2 L110.65 8.5 113.6 8.5 113.6 15.2 110.65 15.2 M113.15 6.0 L111.85 4.0 108.45 3.1 110.1 2.3 111.6 3.35 115.6 3.15 115.8 4.3 113.15 6.0 M137.45 32.5 Q137.95 33.0 137.95 33.7 137.95 34.4 137.45 34.95 136.9 35.45 136.2 35.45 135.5 35.45 135.0 34.95 134.45 34.4 134.45 33.7 134.45 33.0 135.0 32.5 135.5 31.95 136.2 31.95 136.9 31.95 137.45 32.5 M136.55 18.1 Q137.1 18.6 137.1 19.35 137.1 20.1 136.55 20.65 136.0 21.15 135.25 21.15 134.5 21.15 133.95 20.65 133.4 20.1 133.4 19.35 133.4 18.6 133.95 18.1 134.5 17.55 135.25 17.55 136.0 17.55 136.55 18.1 M247.55 -56.5 L247.6 -56.55 247.6 -56.5 247.55 -56.5 M247.6 -56.6 L247.6 -56.55 247.55 -56.55 247.6 -56.6 M203.75 -36.0 L204.0 -35.45 203.75 -34.85 203.15 -34.65 202.55 -34.85 202.3 -35.45 Q202.3 -35.8 202.55 -36.0 L203.15 -36.25 203.75 -36.0 M165.85 -16.75 Q165.85 -17.5 166.4 -18.0 166.95 -18.55 167.7 -18.55 168.45 -18.55 169.0 -18.0 169.55 -17.5 169.55 -16.75 169.55 -16.0 169.0 -15.45 168.45 -14.95 167.7 -14.95 166.95 -14.95 166.4 -15.45 165.85 -16.0 165.85 -16.75 M173.85 -29.2 Q173.85 -29.95 174.4 -30.45 174.9 -31.0 175.65 -31.0 176.4 -31.0 176.95 -30.45 177.45 -29.95 177.45 -29.2 177.45 -28.45 176.95 -27.9 176.4 -27.4 175.65 -27.4 174.9 -27.4 174.4 -27.9 173.85 -28.45 173.85 -29.2 M165.6 -25.7 Q165.6 -26.45 166.15 -26.95 166.7 -27.5 167.45 -27.5 168.2 -27.5 168.75 -26.95 169.3 -26.45 169.3 -25.7 169.3 -24.95 168.75 -24.4 168.2 -23.9 167.45 -23.9 166.7 -23.9 166.15 -24.4 165.6 -24.95 165.6 -25.7 M166.6 -42.95 L168.7 -37.45 171.65 -35.65 171.4 -33.75 169.5 -33.5 167.8 -36.5 165.65 -36.6 163.75 -34.75 161.9 -36.0 166.6 -42.95 M191.75 -35.5 Q192.2 -35.05 192.2 -34.45 192.2 -33.85 191.75 -33.4 191.3 -32.95 190.65 -32.95 190.0 -32.95 189.55 -33.4 189.1 -33.85 189.1 -34.45 189.1 -35.05 189.55 -35.5 190.0 -35.95 190.65 -35.95 191.3 -35.95 191.75 -35.5 M182.95 -37.7 Q183.6 -37.7 184.1 -37.25 184.55 -36.8 184.55 -36.15 184.55 -35.5 184.1 -35.05 183.6 -34.6 182.95 -34.6 182.3 -34.6 181.85 -35.05 181.35 -35.5 181.35 -36.15 181.35 -36.8 181.85 -37.25 182.3 -37.7 182.95 -37.7 M182.65 -46.35 L182.75 -44.85 181.5 -44.15 178.4 -46.0 176.4 -44.95 174.85 -45.55 174.7 -47.3 176.7 -48.15 179.1 -45.9 181.8 -46.85 182.65 -46.35 M193.35 -49.15 Q194.4 -48.45 194.4 -47.5 194.4 -46.55 193.35 -45.85 192.3 -45.15 190.8 -45.15 189.3 -45.15 188.25 -45.85 187.2 -46.55 187.2 -47.5 187.2 -48.45 188.25 -49.15 189.3 -49.85 190.8 -49.85 192.3 -49.85 193.35 -49.15 M199.15 -43.95 L199.8 -43.65 200.05 -43.05 199.8 -42.4 Q199.5 -42.15 199.15 -42.15 198.8 -42.15 198.55 -42.4 198.25 -42.7 198.25 -43.05 198.25 -43.4 198.55 -43.65 L199.15 -43.95 M199.1 -49.9 L199.6 -49.7 199.8 -49.2 199.6 -48.7 199.1 -48.5 Q198.8 -48.5 198.6 -48.7 L198.4 -49.2 198.6 -49.7 Q198.8 -49.9 199.1 -49.9 M198.4 -59.8 L198.2 -60.25 198.4 -60.7 Q198.6 -60.9 198.85 -60.9 L199.3 -60.7 199.5 -60.25 199.3 -59.8 198.85 -59.6 Q198.6 -59.6 198.4 -59.8 M198.45 -65.6 Q198.0 -66.05 198.0 -66.65 198.0 -67.25 198.45 -67.65 198.9 -68.1 199.5 -68.1 L200.55 -67.65 Q201.0 -67.25 201.0 -66.65 201.0 -66.05 200.55 -65.6 200.1 -65.2 199.5 -65.2 198.9 -65.2 198.45 -65.6 M177.75 -59.15 Q178.25 -58.65 178.25 -57.95 178.25 -57.25 177.75 -56.7 177.2 -56.2 176.45 -56.2 175.7 -56.2 175.2 -56.7 174.65 -57.25 174.65 -57.95 174.65 -58.65 175.2 -59.15 175.7 -59.7 176.45 -59.7 177.2 -59.7 177.75 -59.15 M236.55 -53.3 L236.55 -53.9 237.15 -53.9 237.15 -53.3 236.55 -53.3 M212.15 -51.15 L212.45 -51.15 212.45 -50.95 212.15 -50.95 212.15 -51.15 M207.2 -49.85 L206.15 -53.5 208.3 -53.5 207.2 -49.85 M203.6 -52.85 L202.95 -53.6 204.6 -53.35 203.6 -52.85 M211.55 -58.75 L211.6 -58.6 211.55 -58.45 211.4 -58.4 211.25 -58.45 211.2 -58.6 211.25 -58.75 211.4 -58.8 211.55 -58.75 M118.3 -5.65 L124.35 -5.65 124.35 0.4 118.3 0.4 118.3 -5.65 M143.85 -1.65 Q144.6 -1.65 145.15 -1.1 145.65 -0.6 145.65 0.1 145.65 0.8 145.15 1.35 144.6 1.85 143.85 1.85 143.1 1.85 142.6 1.35 142.05 0.8 142.05 0.1 142.05 -0.6 142.6 -1.1 143.1 -1.65 143.85 -1.65 M150.35 -14.4 Q150.85 -13.85 150.85 -13.1 150.85 -12.35 150.35 -11.8 149.8 -11.25 149.05 -11.25 148.3 -11.25 147.8 -11.8 147.25 -12.35 147.25 -13.1 147.25 -13.85 147.8 -14.4 148.3 -14.95 149.05 -14.95 149.8 -14.95 150.35 -14.4 M143.35 -18.85 Q142.8 -19.35 142.8 -20.05 142.8 -20.75 143.35 -21.25 143.85 -21.75 144.55 -21.75 145.25 -21.75 145.8 -21.25 146.3 -20.75 146.3 -20.05 146.3 -19.35 145.8 -18.85 145.25 -18.35 144.55 -18.35 143.85 -18.35 143.35 -18.85 M159.3 -14.6 Q159.75 -14.15 159.75 -13.5 159.75 -12.85 159.3 -12.35 158.8 -11.9 158.15 -11.9 157.5 -11.9 157.05 -12.35 156.55 -12.85 156.55 -13.5 156.55 -14.15 157.05 -14.6 157.5 -15.1 158.15 -15.1 158.8 -15.1 159.3 -14.6 M158.15 -21.1 Q158.6 -21.6 159.3 -21.6 160.0 -21.6 160.5 -21.1 160.95 -20.6 160.95 -19.9 160.95 -19.2 160.5 -18.7 160.0 -18.2 159.3 -18.2 158.6 -18.2 158.15 -18.7 157.65 -19.2 157.65 -19.9 157.65 -20.6 158.15 -21.1 M131.1 -4.3 L141.4 -11.25 142.35 -11.25 143.45 -10.0 142.7 -8.05 131.9 -2.6 131.1 -4.3 M133.6 -17.05 L135.85 -16.05 132.45 -10.65 131.05 -10.25 128.65 -11.5 125.75 -10.65 124.45 -11.3 124.0 -12.5 124.7 -15.1 122.1 -17.15 122.5 -18.95 125.05 -18.1 125.15 -14.6 128.65 -12.75 132.3 -14.2 133.6 -17.05 M127.35 -39.45 Q127.8 -39.9 128.45 -39.9 129.1 -39.9 129.55 -39.45 130.0 -39.0 130.0 -38.35 130.0 -37.7 129.55 -37.25 129.1 -36.8 128.45 -36.8 127.8 -36.8 127.35 -37.25 126.9 -37.7 126.9 -38.35 126.9 -39.0 127.35 -39.45 M123.15 -37.85 L123.75 -37.6 123.95 -37.1 123.75 -36.55 123.15 -36.35 Q122.8 -36.35 122.6 -36.55 L122.35 -37.1 122.6 -37.6 Q122.8 -37.85 123.15 -37.85 M150.6 -26.45 L148.7 -27.65 148.9 -29.15 153.5 -32.5 155.3 -32.6 156.9 -30.65 161.55 -31.05 162.15 -29.3 161.15 -28.25 160.05 -28.25 157.2 -30.25 150.6 -26.45 M112.1 -19.15 L112.4 -18.35 112.1 -17.5 Q111.75 -17.2 111.25 -17.2 110.75 -17.2 110.45 -17.5 110.1 -17.85 110.1 -18.35 110.1 -18.85 110.45 -19.15 L111.25 -19.5 Q111.75 -19.5 112.1 -19.15 M92.75 -5.35 L92.75 -5.05 92.55 -5.05 92.55 -5.35 92.75 -5.35 M46.55 -18.7 L46.55 -23.9 49.8 -23.9 49.8 -18.7 46.55 -18.7 M56.1 -40.65 L57.8 -41.05 Q58.8 -41.05 59.55 -40.65 60.25 -40.25 60.25 -39.65 60.25 -39.05 59.55 -38.65 58.8 -38.25 57.8 -38.25 L56.1 -38.65 Q55.35 -39.05 55.35 -39.65 55.35 -40.25 56.1 -40.65 M53.05 -39.0 L52.7 -37.8 51.9 -37.1 50.35 -36.95 48.7 -38.15 46.9 -38.1 45.55 -39.05 45.45 -40.35 48.1 -41.2 53.05 -39.0 M76.75 -36.95 Q77.25 -36.4 77.25 -35.65 77.25 -34.9 76.75 -34.35 76.2 -33.8 75.45 -33.8 74.7 -33.8 74.2 -34.35 73.65 -34.9 73.65 -35.65 73.65 -36.4 74.2 -36.95 74.7 -37.5 75.45 -37.5 76.2 -37.5 76.75 -36.95 M64.6 -38.75 L62.9 -38.4 Q61.9 -38.4 61.2 -38.75 60.5 -39.15 60.5 -39.65 60.5 -40.15 61.2 -40.5 61.9 -40.9 62.9 -40.9 L64.6 -40.5 Q65.3 -40.15 65.3 -39.65 65.3 -39.15 64.6 -38.75 M32.75 -22.75 Q33.25 -22.25 33.25 -21.55 33.25 -20.85 32.75 -20.35 32.25 -19.85 31.55 -19.85 30.85 -19.85 30.35 -20.35 29.85 -20.85 29.85 -21.55 29.85 -22.25 30.35 -22.75 30.85 -23.25 31.55 -23.25 32.25 -23.25 32.75 -22.75 M17.55 -6.9 L17.7 -6.55 17.55 -6.2 17.2 -6.05 16.85 -6.2 16.7 -6.55 16.85 -6.9 17.2 -7.05 17.55 -6.9 M7.1 -0.25 L7.4 -0.25 7.4 0.05 7.1 0.05 7.1 -0.25 M18.85 -20.25 L18.7 -20.6 18.85 -20.95 19.25 -21.1 19.65 -20.95 19.8 -20.6 19.65 -20.25 Q19.5 -20.1 19.25 -20.1 L18.85 -20.25 M8.25 -27.6 L8.4 -27.2 8.25 -26.8 Q8.1 -26.65 7.85 -26.65 7.6 -26.65 7.45 -26.8 7.3 -26.95 7.3 -27.2 L7.45 -27.6 7.85 -27.75 8.25 -27.6 M16.75 -44.2 Q16.4 -44.55 16.4 -45.05 16.4 -45.55 16.75 -45.9 17.1 -46.25 17.6 -46.25 L18.45 -45.9 Q18.8 -45.55 18.8 -45.05 18.8 -44.55 18.45 -44.2 18.1 -43.85 17.6 -43.85 17.1 -43.85 16.75 -44.2 M39.8 -32.05 Q40.3 -31.6 40.3 -30.9 40.3 -30.2 39.8 -29.7 39.3 -29.25 38.6 -29.25 37.9 -29.25 37.4 -29.7 36.9 -30.2 36.9 -30.9 36.9 -31.6 37.4 -32.05 37.9 -32.55 38.6 -32.55 39.3 -32.55 39.8 -32.05 M24.7 -40.75 Q24.15 -41.25 24.15 -41.95 24.15 -42.65 24.7 -43.15 25.2 -43.65 25.9 -43.65 26.6 -43.65 27.15 -43.15 27.65 -42.65 27.65 -41.95 27.65 -41.25 27.15 -40.75 26.6 -40.25 25.9 -40.25 25.2 -40.25 24.7 -40.75 M35.5 -58.0 L35.2 -59.3 40.0 -63.3 40.75 -61.7 38.15 -57.7 35.5 -58.0 M17.9 -69.75 Q18.4 -69.25 18.4 -68.5 18.4 -67.75 17.9 -67.2 17.35 -66.7 16.6 -66.7 15.85 -66.7 15.35 -67.2 14.8 -67.75 14.8 -68.5 14.8 -69.25 15.35 -69.75 15.85 -70.3 16.6 -70.3 17.35 -70.3 17.9 -69.75 M69.45 -61.75 Q70.2 -61.75 70.75 -61.2 71.3 -60.7 71.3 -59.95 71.3 -59.2 70.75 -58.65 70.2 -58.15 69.45 -58.15 68.7 -58.15 68.15 -58.65 67.6 -59.2 67.6 -59.95 67.6 -60.7 68.15 -61.2 68.7 -61.75 69.45 -61.75 M59.8 -51.45 Q59.8 -52.2 60.35 -52.75 60.9 -53.3 61.7 -53.3 62.5 -53.3 63.05 -52.75 63.6 -52.2 63.6 -51.45 63.6 -50.7 63.05 -50.15 62.5 -49.6 61.7 -49.6 60.9 -49.6 60.35 -50.15 59.8 -50.7 59.8 -51.45 M53.9 -59.65 Q54.45 -59.15 54.45 -58.4 54.45 -57.65 53.9 -57.1 53.35 -56.6 52.6 -56.6 51.85 -56.6 51.3 -57.1 50.75 -57.65 50.75 -58.4 50.75 -59.15 51.3 -59.65 51.85 -60.2 52.6 -60.2 53.35 -60.2 53.9 -59.65 M49.5 -49.9 Q49.5 -50.4 49.85 -50.7 50.2 -51.05 50.7 -51.05 51.2 -51.05 51.55 -50.7 51.9 -50.4 51.9 -49.9 51.9 -49.4 51.55 -49.05 51.2 -48.75 50.7 -48.75 50.2 -48.75 49.85 -49.05 49.5 -49.4 49.5 -49.9 M48.4 -57.3 Q49.7 -56.85 49.7 -56.25 49.7 -55.65 48.4 -55.2 L45.25 -54.75 42.1 -55.2 Q40.8 -55.65 40.8 -56.25 40.8 -56.85 42.1 -57.3 L45.25 -57.75 48.4 -57.3 M46.85 -71.3 L49.9 -71.3 49.9 -64.85 46.85 -64.85 46.85 -71.3 M58.6 -72.45 Q59.1 -72.95 59.8 -72.95 60.5 -72.95 61.05 -72.45 61.55 -71.95 61.55 -71.25 61.55 -70.55 61.05 -70.05 60.5 -69.55 59.8 -69.55 59.1 -69.55 58.6 -70.05 58.05 -70.55 58.05 -71.25 58.05 -71.95 58.6 -72.45 M46.75 -83.65 L49.1 -80.95 54.7 -79.8 57.5 -85.15 60.05 -83.5 57.85 -78.05 56.3 -77.1 54.4 -73.25 48.85 -80.2 45.75 -81.1 45.1 -83.05 46.75 -83.65 M49.5 -98.35 Q50.25 -97.6 50.25 -96.55 50.25 -95.5 49.5 -94.75 48.75 -94.0 47.7 -94.0 46.65 -94.0 45.9 -94.75 45.15 -95.5 45.15 -96.55 45.15 -97.6 45.9 -98.35 46.65 -99.1 47.7 -99.1 48.75 -99.1 49.5 -98.35 M56.6 -93.65 L55.9 -93.25 54.4 -93.35 53.8 -93.85 53.5 -94.75 56.45 -96.45 57.2 -94.9 56.6 -93.65 M66.25 -79.85 L67.35 -77.6 69.9 -76.55 70.0 -74.65 68.75 -74.3 63.7 -80.15 66.25 -79.85 M43.65 -104.65 Q44.05 -104.15 44.05 -103.4 44.05 -102.65 43.65 -102.1 43.25 -101.6 42.65 -101.6 42.05 -101.6 41.65 -102.1 41.25 -102.65 41.25 -103.4 41.25 -104.15 41.65 -104.65 42.05 -105.2 42.65 -105.2 43.25 -105.2 43.65 -104.65 M48.6 -106.75 Q49.05 -107.2 49.7 -107.2 50.35 -107.2 50.8 -106.75 L51.25 -105.7 Q51.25 -105.1 50.8 -104.65 50.35 -104.2 49.7 -104.2 49.05 -104.2 48.6 -104.65 48.15 -105.1 48.15 -105.7 48.15 -106.3 48.6 -106.75 M43.45 -117.1 L45.65 -117.1 45.65 -109.7 43.45 -109.7 43.45 -117.1 M55.95 -122.75 L57.15 -121.15 55.25 -116.15 54.0 -115.3 54.1 -111.8 52.55 -111.8 52.8 -114.4 53.85 -115.2 54.5 -122.85 55.95 -122.75 M56.4 -132.75 L56.6 -132.75 56.6 -132.45 56.4 -132.45 56.4 -132.75 M48.95 -125.2 L50.0 -124.75 Q50.4 -124.35 50.4 -123.75 50.4 -123.15 50.0 -122.7 49.55 -122.3 48.95 -122.3 48.35 -122.3 47.95 -122.7 47.5 -123.15 47.5 -123.75 47.5 -124.35 47.95 -124.75 48.35 -125.2 48.95 -125.2 M50.75 -136.85 L54.65 -136.2 50.75 -135.0 49.5 -135.9 50.1 -137.6 50.75 -136.85 M54.0 -144.3 L54.25 -141.5 49.8 -143.35 51.4 -143.15 53.1 -144.4 54.0 -144.3 M36.05 -128.7 L36.5 -127.65 Q36.5 -127.05 36.05 -126.6 35.6 -126.15 35.0 -126.15 34.4 -126.15 33.95 -126.6 33.5 -127.05 33.5 -127.65 33.5 -128.25 33.95 -128.7 34.4 -129.15 35.0 -129.15 35.6 -129.15 36.05 -128.7 M38.6 -138.6 L38.35 -139.15 38.6 -139.65 39.1 -139.9 39.65 -139.65 39.85 -139.15 39.65 -138.6 39.1 -138.4 Q38.8 -138.4 38.6 -138.6 M60.5 147.3 L60.3 147.5 60.2 147.5 60.05 147.3 60.2 147.15 60.3 147.15 60.5 147.3 M-222.9 -19.75 L-222.9 -20.05 -222.6 -20.05 -222.6 -19.75 -222.9 -19.75 M19.45 125.6 L19.2 126.05 19.0 125.6 19.45 125.6 M-238.85 -5.6 L-238.25 -5.6 -238.55 -5.3 -238.85 -5.6 M-97.1 141.75 Q-96.95 141.9 -96.95 142.15 L-97.1 142.55 -97.5 142.7 -97.9 142.55 -98.05 142.15 -97.9 141.75 -97.5 141.6 Q-97.25 141.6 -97.1 141.75 M-85.5 135.75 Q-85.35 135.9 -85.35 136.1 L-85.5 136.45 -85.9 136.6 -86.3 136.45 -86.45 136.1 -86.3 135.75 Q-86.15 135.6 -85.9 135.6 -85.65 135.6 -85.5 135.75 M-102.7 113.5 Q-102.4 113.8 -102.4 114.2 -102.4 114.6 -102.7 114.9 -103.0 115.2 -103.4 115.2 L-104.1 114.9 -104.4 114.2 -104.1 113.5 Q-103.8 113.2 -103.4 113.2 -103.0 113.2 -102.7 113.5 M-92.8 102.2 Q-92.55 102.45 -92.55 102.85 L-92.8 103.55 -93.5 103.8 -94.15 103.55 -94.45 102.85 -94.15 102.2 Q-93.9 101.9 -93.5 101.9 -93.1 101.9 -92.8 102.2 M-99.05 95.5 Q-98.75 95.8 -98.75 96.3 -98.75 96.8 -99.05 97.15 -99.4 97.45 -99.9 97.45 -100.4 97.45 -100.7 97.15 -101.05 96.8 -101.05 96.3 -101.05 95.8 -100.7 95.5 -100.4 95.15 -99.9 95.15 -99.4 95.15 -99.05 95.5 M-96.85 75.6 Q-96.5 75.95 -96.5 76.45 -96.5 76.95 -96.85 77.3 -97.2 77.65 -97.7 77.65 -98.2 77.65 -98.55 77.3 L-98.9 76.45 Q-98.9 75.95 -98.55 75.6 -98.2 75.25 -97.7 75.25 -97.2 75.25 -96.85 75.6 M-102.7 81.45 Q-102.2 81.95 -102.2 82.65 -102.2 83.35 -102.7 83.9 -103.25 84.4 -104.0 84.4 -104.75 84.4 -105.25 83.9 -105.8 83.35 -105.8 82.65 -105.8 81.95 -105.25 81.45 -104.75 80.9 -104.0 80.9 -103.25 80.9 -102.7 81.45 M-111.55 62.65 L-111.55 55.2 -109.25 55.2 -109.25 62.65 -111.55 62.65 M-91.0 53.6 L-91.1 53.8 -91.2 53.6 -91.0 53.6 M-143.7 73.35 Q-143.15 72.8 -142.4 72.8 -141.65 72.8 -141.1 73.35 -140.55 73.9 -140.55 74.7 -140.55 75.5 -141.1 76.05 -141.65 76.6 -142.4 76.6 -143.15 76.6 -143.7 76.05 -144.25 75.5 -144.25 74.7 -144.25 73.9 -143.7 73.35 M-158.05 55.95 Q-158.6 55.4 -158.6 54.65 -158.6 53.9 -158.05 53.35 -157.5 52.8 -156.75 52.8 -156.0 52.8 -155.45 53.35 -154.9 53.9 -154.9 54.65 -154.9 55.4 -155.45 55.95 -156.0 56.5 -156.75 56.5 -157.5 56.5 -158.05 55.95 M-133.15 58.95 L-135.05 57.05 -135.05 55.5 -132.15 55.9 -131.65 56.55 -127.85 57.8 -134.25 64.25 -135.85 63.85 -136.0 62.4 -133.25 60.5 -133.15 58.95 M-139.05 49.55 Q-138.5 50.1 -138.5 50.9 -138.5 51.7 -139.05 52.25 -139.6 52.8 -140.4 52.8 -141.2 52.8 -141.75 52.25 -142.3 51.7 -142.3 50.9 -142.3 50.1 -141.75 49.55 -141.2 49.0 -140.4 49.0 -139.6 49.0 -139.05 49.55 M-122.95 47.8 Q-122.4 46.75 -121.6 46.75 -120.8 46.75 -120.25 47.8 -119.7 48.8 -119.7 50.25 -119.7 51.7 -120.25 52.75 -120.8 53.75 -121.6 53.75 -122.4 53.75 -122.95 52.75 -123.5 51.7 -123.5 50.25 -123.5 48.8 -122.95 47.8 M-128.6 33.1 L-128.85 35.25 -131.6 36.6 -132.1 37.5 -137.45 37.05 -138.5 35.25 -137.3 33.95 -134.8 34.5 -130.45 32.55 -128.6 33.1 M-159.15 40.0 L-158.8 37.9 -155.65 37.45 -154.65 36.2 -151.7 36.65 -157.5 40.8 -159.15 40.0 M-160.25 27.85 Q-160.8 27.3 -160.8 26.55 -160.8 25.8 -160.25 25.3 -159.75 24.75 -159.0 24.75 -158.25 24.75 -157.7 25.3 -157.2 25.8 -157.2 26.55 -157.2 27.3 -157.7 27.85 -158.25 28.35 -159.0 28.35 -159.75 28.35 -160.25 27.85 M-148.7 32.35 Q-148.3 31.95 -147.7 31.95 -147.1 31.95 -146.65 32.35 -146.25 32.75 -146.25 33.35 -146.25 33.95 -146.65 34.35 -147.1 34.75 -147.7 34.75 -148.3 34.75 -148.7 34.35 -149.15 33.95 -149.15 33.35 -149.15 32.75 -148.7 32.35 M-145.0 26.95 Q-145.0 26.2 -144.45 25.65 -143.9 25.1 -143.15 25.1 -142.4 25.1 -141.85 25.65 -141.3 26.2 -141.3 26.95 -141.3 27.7 -141.85 28.25 -142.4 28.8 -143.15 28.8 -143.9 28.8 -144.45 28.25 -145.0 27.7 -145.0 26.95 M-151.5 24.0 Q-150.75 24.0 -150.2 24.55 -149.65 25.1 -149.65 25.85 -149.65 26.6 -150.2 27.15 -150.75 27.7 -151.5 27.7 -152.25 27.7 -152.8 27.15 -153.35 26.6 -153.35 25.85 -153.35 25.1 -152.8 24.55 -152.25 24.0 -151.5 24.0 M-150.1 17.95 Q-150.65 17.4 -150.65 16.65 -150.65 15.9 -150.1 15.4 -149.6 14.85 -148.9 14.85 -148.2 14.85 -147.65 15.4 -147.15 15.9 -147.15 16.65 -147.15 17.4 -147.65 17.95 -148.2 18.45 -148.9 18.45 -149.6 18.45 -150.1 17.95 M-160.5 6.7 Q-159.95 7.25 -159.95 8.05 -159.95 8.85 -160.5 9.4 -161.05 9.95 -161.8 9.95 -162.55 9.95 -163.1 9.4 -163.65 8.85 -163.65 8.05 -163.65 7.25 -163.1 6.7 -162.55 6.15 -161.8 6.15 -161.05 6.15 -160.5 6.7 M-133.9 7.05 Q-133.55 7.45 -133.55 8.0 -133.55 8.55 -133.9 8.95 -134.3 9.35 -134.85 9.35 -135.4 9.35 -135.75 8.95 -136.15 8.55 -136.15 8.0 -136.15 7.45 -135.75 7.05 -135.4 6.65 -134.85 6.65 -134.3 6.65 -133.9 7.05 M-126.0 9.85 Q-125.45 10.4 -125.45 11.2 -125.45 12.0 -126.0 12.6 -126.6 13.15 -127.4 13.15 -128.2 13.15 -128.75 12.6 -129.35 12.0 -129.35 11.2 -129.35 10.4 -128.75 9.85 -128.2 9.25 -127.4 9.25 -126.6 9.25 -126.0 9.85 M-88.0 46.2 Q-87.75 46.2 -87.55 46.35 L-87.4 46.75 -87.55 47.15 -88.0 47.3 -88.4 47.15 -88.6 46.75 -88.4 46.35 -88.0 46.2 M-96.95 38.4 L-97.1 38.05 -96.95 37.75 -96.6 37.6 Q-96.4 37.6 -96.25 37.75 -96.1 37.85 -96.1 38.05 L-96.25 38.4 -96.6 38.5 -96.95 38.4 M-118.0 42.3 Q-117.3 42.3 -116.8 42.8 -116.35 43.3 -116.35 44.0 -116.35 44.7 -116.8 45.2 -117.3 45.7 -118.0 45.7 -118.7 45.7 -119.15 45.2 -119.65 44.7 -119.65 44.0 -119.65 43.3 -119.15 42.8 -118.7 42.3 -118.0 42.3 M-111.35 27.3 L-110.55 29.8 -109.25 30.4 -109.1 31.7 -110.5 32.05 -114.3 29.35 -113.75 26.75 -111.35 27.3 M-101.95 28.25 Q-101.8 28.4 -101.8 28.6 L-101.95 28.95 -102.35 29.1 -102.75 28.95 -102.9 28.6 -102.75 28.25 -102.35 28.1 Q-102.1 28.1 -101.95 28.25 M-108.9 19.5 Q-109.25 19.15 -109.25 18.65 -109.25 18.15 -108.9 17.8 -108.55 17.45 -108.05 17.45 -107.55 17.45 -107.2 17.8 -106.85 18.15 -106.85 18.65 -106.85 19.15 -107.2 19.5 -107.55 19.85 -108.05 19.85 -108.55 19.85 -108.9 19.5 M-120.5 19.25 L-121.25 21.6 -122.35 22.25 -122.95 24.0 -124.8 24.5 -125.8 24.1 -126.25 22.85 -122.95 17.15 -121.75 17.0 -120.5 19.25 M-15.65 84.0 L-15.25 84.15 -15.1 84.5 -15.25 84.85 -15.65 85.0 -16.05 84.85 -16.2 84.5 -16.05 84.15 Q-15.9 84.0 -15.65 84.0 M-18.05 79.8 L-18.2 79.45 -18.05 79.1 -17.7 78.95 Q-17.5 78.95 -17.35 79.1 L-17.2 79.45 -17.35 79.8 -17.7 79.95 -18.05 79.8 M-6.7 79.3 L-6.85 78.95 -6.7 78.65 Q-6.6 78.5 -6.4 78.5 -6.2 78.5 -6.05 78.65 L-5.95 78.95 -6.05 79.3 -6.4 79.4 -6.7 79.3 M-24.45 72.8 Q-23.75 72.8 -23.2 73.35 -22.7 73.85 -22.7 74.55 -22.7 75.25 -23.2 75.8 -23.75 76.3 -24.45 76.3 -25.15 76.3 -25.65 75.8 -26.2 75.25 -26.2 74.55 -26.2 73.85 -25.65 73.35 -25.15 72.8 -24.45 72.8 M-15.35 66.25 L-13.6 70.45 -14.65 72.3 -16.2 72.0 -16.1 65.75 -15.35 66.25 M-50.0 84.45 Q-49.0 83.7 -49.0 82.7 -49.0 81.7 -50.0 81.0 -51.05 80.25 -52.5 80.25 -53.95 80.25 -54.95 81.0 -56.0 81.7 -56.0 82.7 -56.0 83.7 -54.95 84.45 -53.95 85.15 -52.5 85.15 -51.05 85.15 -50.0 84.45 M-76.5 95.25 L-76.35 95.6 -76.5 95.95 -76.9 96.1 -77.3 95.95 -77.45 95.6 -77.3 95.25 -76.9 95.1 Q-76.65 95.1 -76.5 95.25 M-80.35 87.2 L-80.2 87.55 -80.35 87.9 -80.7 88.05 -81.05 87.9 -81.2 87.55 -81.05 87.2 -80.7 87.05 Q-80.5 87.05 -80.35 87.2 M-71.95 78.75 L-71.95 78.3 -71.5 78.3 -71.5 78.75 -71.95 78.75 M-66.5 80.4 Q-66.0 80.9 -66.0 81.65 -66.0 82.4 -66.5 82.95 -67.05 83.45 -67.8 83.45 -68.55 83.45 -69.05 82.95 -69.6 82.4 -69.6 81.65 -69.6 80.9 -69.05 80.4 -68.55 79.85 -67.8 79.85 -67.05 79.85 -66.5 80.4 M-44.4 66.9 L-43.7 63.0 -36.0 64.45 -35.35 65.6 -32.8 66.55 -33.45 69.0 -35.6 70.95 -39.45 68.45 -42.2 68.85 -44.35 72.65 -45.45 73.0 -46.3 75.4 -40.35 85.65 -44.3 87.3 -44.15 90.75 -44.55 91.35 -46.2 92.1 -46.3 95.9 -47.8 96.6 -50.5 95.35 -52.8 96.4 -54.35 95.25 -51.95 93.05 -50.0 93.85 -47.3 92.05 -48.3 88.6 -52.6 85.65 -57.2 87.85 -62.25 98.6 -65.1 92.65 -63.95 89.75 -61.65 90.25 -57.7 88.15 -58.0 83.3 -60.8 82.35 -52.6 71.85 -49.35 72.65 -46.95 71.3 -45.9 67.8 -44.4 66.9 M-58.1 70.9 L-57.8 70.9 -57.8 71.2 -58.1 71.2 -58.1 70.9 M-55.0 57.25 L-52.4 58.0 -50.0 61.8 -47.2 63.05 -48.15 63.95 -50.15 64.05 -50.4 63.15 -51.05 62.55 -53.3 62.1 -55.8 59.2 -55.0 57.25 M-56.4 55.05 L-57.65 54.1 -57.2 53.5 -56.25 53.85 -56.4 55.05 M-48.35 50.5 Q-47.8 51.05 -47.8 51.85 -47.8 52.65 -48.35 53.25 -48.95 53.8 -49.75 53.8 -50.55 53.8 -51.1 53.25 -51.7 52.65 -51.7 51.85 -51.7 51.05 -51.1 50.5 -50.55 49.9 -49.75 49.9 -48.95 49.9 -48.35 50.5 M-173.55 -5.3 Q-173.05 -4.95 -173.05 -4.4 -173.05 -3.85 -173.55 -3.45 -174.05 -3.1 -174.75 -3.1 -175.45 -3.1 -175.95 -3.45 -176.45 -3.85 -176.45 -4.4 -176.45 -4.95 -175.95 -5.3 -175.45 -5.7 -174.75 -5.7 -174.05 -5.7 -173.55 -5.3 M-193.2 -2.0 L-192.75 -3.05 Q-192.3 -3.5 -191.65 -3.5 -191.0 -3.5 -190.55 -3.05 -190.1 -2.6 -190.1 -2.0 -190.1 -1.4 -190.55 -0.95 -191.0 -0.5 -191.65 -0.5 -192.3 -0.5 -192.75 -0.95 -193.2 -1.4 -193.2 -2.0 M-196.7 -10.0 Q-196.45 -9.75 -196.45 -9.4 L-196.7 -8.75 Q-196.95 -8.5 -197.3 -8.5 -197.65 -8.5 -197.9 -8.75 L-198.15 -9.4 -197.9 -10.0 -197.3 -10.3 Q-196.95 -10.3 -196.7 -10.0 M-202.35 -17.05 L-201.65 -17.5 -197.0 -15.9 -197.0 -14.8 -198.35 -14.2 -200.65 -16.15 -201.95 -16.25 -202.35 -17.05 M-190.2 -13.0 L-190.65 -14.1 -190.2 -15.2 Q-189.75 -15.65 -189.1 -15.65 -188.45 -15.65 -188.0 -15.2 -187.55 -14.75 -187.55 -14.1 -187.55 -13.45 -188.0 -13.0 -188.45 -12.55 -189.1 -12.55 -189.75 -12.55 -190.2 -13.0 M-205.4 -1.7 L-205.15 -1.1 Q-205.15 -0.75 -205.4 -0.5 -205.65 -0.25 -206.0 -0.25 -206.35 -0.25 -206.6 -0.5 L-206.85 -1.1 -206.6 -1.7 -206.0 -1.95 -205.4 -1.7 M-210.15 -14.1 L-210.15 -14.6 -209.8 -14.6 -209.8 -14.1 -210.15 -14.1 M-87.7 147.85 L-87.85 147.5 -87.7 147.2 -87.7 147.15 -87.3 147.0 Q-87.05 147.0 -86.9 147.15 L-86.9 147.2 -86.75 147.5 -86.9 147.85 -87.3 148.0 -87.7 147.85 M-72.7 135.35 L-72.4 135.35 -72.4 135.55 -72.7 135.55 -72.7 135.35 M-79.05 131.8 L-79.15 132.0 -79.25 131.8 -79.05 131.8 M-70.7 115.95 L-70.4 114.0 -69.0 115.55 -69.8 116.55 -70.7 115.95 M-73.05 109.05 Q-72.05 109.05 -71.35 109.55 -70.65 110.05 -70.65 110.75 -70.65 111.45 -71.35 111.95 -72.05 112.45 -73.05 112.45 L-74.75 111.95 Q-75.45 111.45 -75.45 110.75 -75.45 110.05 -74.75 109.55 -74.05 109.05 -73.05 109.05 M-69.4 102.45 Q-69.95 101.9 -69.95 101.15 -69.95 100.4 -69.4 99.85 -68.85 99.3 -68.05 99.3 -67.25 99.3 -66.7 99.85 -66.15 100.4 -66.15 101.15 -66.15 101.9 -66.7 102.45 -67.25 103.0 -68.05 103.0 -68.85 103.0 -69.4 102.45 M-45.9 111.4 L-45.75 111.75 -45.9 112.1 -46.25 112.25 -46.6 112.1 -46.75 111.75 -46.6 111.4 Q-46.45 111.25 -46.25 111.25 L-45.9 111.4 M-56.75 112.8 L-56.75 112.45 -56.45 112.45 -56.45 112.8 -56.75 112.8 M-56.35 108.45 Q-56.35 107.65 -55.75 107.1 -55.2 106.55 -54.4 106.55 -53.6 106.55 -53.0 107.1 -52.45 107.65 -52.45 108.45 -52.45 109.25 -53.0 109.8 -53.6 110.35 -54.4 110.35 -55.2 110.35 -55.75 109.8 -56.35 109.25 -56.35 108.45 M-57.45 100.75 L-57.45 101.05 -57.8 101.05 -57.8 100.75 -57.45 100.75 M-46.4 106.6 L-46.0 106.6 -46.0 107.0 -46.4 107.0 -46.4 106.6 M-48.65 101.05 L-48.35 101.95 -48.75 103.3 -48.35 104.45 -49.15 104.3 -49.9 101.1 -48.65 101.05 M-31.75 117.75 Q-31.75 117.05 -31.2 116.55 -30.7 116.0 -29.95 116.0 -29.2 116.0 -28.65 116.55 -28.15 117.05 -28.15 117.75 -28.15 118.45 -28.65 119.0 -29.2 119.5 -29.95 119.5 -30.7 119.5 -31.2 119.0 -31.75 118.45 -31.75 117.75 M-36.0 105.55 Q-35.5 106.05 -35.5 106.75 -35.5 107.45 -36.0 108.0 -36.55 108.5 -37.3 108.5 -38.05 108.5 -38.55 108.0 -39.1 107.45 -39.1 106.75 -39.1 106.05 -38.55 105.55 -38.05 105.0 -37.3 105.0 -36.55 105.0 -36.0 105.55 M-32.35 99.2 L-32.45 99.0 -32.25 99.0 -32.35 99.2 M-21.25 104.3 L-21.25 104.0 -20.95 104.0 -20.95 104.3 -21.25 104.3 M-70.25 143.4 L-70.35 143.5 -70.35 143.6 -70.4 143.6 -70.5 143.65 -70.6 143.55 -70.65 143.55 -70.7 143.45 -70.75 143.4 -70.5 143.15 -70.25 143.4 M-46.4 123.85 Q-46.85 123.8 -46.4 123.7 L-46.4 123.85 M-51.3 140.15 Q-50.95 140.5 -50.95 141.0 -50.95 141.5 -51.3 141.85 -51.65 142.2 -52.15 142.2 -52.65 142.2 -53.0 141.85 L-53.35 141.0 Q-53.35 140.5 -53.0 140.15 -52.65 139.8 -52.15 139.8 -51.65 139.8 -51.3 140.15 M-45.65 156.6 L-45.7 156.55 -45.45 156.3 -45.2 156.55 -45.3 156.65 -45.3 156.75 -45.35 156.75 -45.4 156.8 -45.5 156.7 -45.6 156.7 -45.65 156.6 M-50.9 154.05 L-51.0 154.4 -51.35 154.5 -51.65 154.4 -51.8 154.05 -51.65 153.75 -51.35 153.6 Q-51.15 153.6 -51.0 153.75 L-50.9 154.05 M-210.9 3.1 L-210.9 2.9 -210.7 2.9 -210.7 3.1 -210.9 3.1 M-164.9 34.05 Q-164.45 35.2 -164.45 36.85 -164.45 38.5 -164.9 39.7 -165.4 40.85 -166.1 40.85 -166.8 40.85 -167.25 39.7 -167.75 38.5 -167.75 36.85 -167.75 35.2 -167.25 34.05 -166.8 32.85 -166.1 32.85 -165.4 32.85 -164.9 34.05 M-201.15 14.75 L-200.95 15.35 -201.15 15.95 -201.75 16.2 -202.3 15.95 -202.55 15.35 -202.3 14.75 Q-202.1 14.5 -201.75 14.5 -201.4 14.5 -201.15 14.75 M-198.2 8.9 Q-198.0 8.5 -197.7 8.5 L-197.2 8.9 -197.0 9.85 -197.2 10.8 -197.7 11.2 -198.2 10.8 -198.4 9.85 -198.2 8.9 M-188.0 8.8 L-190.05 9.1 -190.45 7.55 -187.55 4.35 -186.15 4.65 -185.85 5.45 -188.0 8.8 M-175.35 17.35 L-174.7 15.9 -172.9 16.15 -172.05 17.4 -167.9 18.1 -167.9 19.9 -175.35 17.35 M-180.55 11.9 L-181.85 12.35 -182.35 11.0 -181.0 9.6 -180.55 11.9 M-181.3 5.15 L-179.25 5.15 -181.1 7.1 -181.3 5.15 M-164.2 0.85 Q-163.7 1.35 -163.7 2.05 -163.7 2.75 -164.2 3.3 -164.75 3.8 -165.45 3.8 -166.15 3.8 -166.65 3.3 -167.2 2.75 -167.2 2.05 -167.2 1.35 -166.65 0.85 -166.15 0.3 -165.45 0.3 -164.75 0.3 -164.2 0.85" fill="#ccffff" fill-rule="evenodd" stroke="none"/>
  </g>
</svg>
