<?xml version="1.0" encoding="UTF-8" standalone="no"?>
<svg xmlns:xlink="http://www.w3.org/1999/xlink" height="123.35px" width="163.4px" xmlns="http://www.w3.org/2000/svg">
  <g transform="matrix(1.0, 0.0, 0.0, 1.0, 82.5, 61.5)">
    <path d="M5.6 -38.2 Q8.3 -34.95 12.15 -33.6 20.45 -30.7 25.75 -23.8 28.45 -20.3 31.6 -17.2 L44.4 -5.25 Q46.7 -3.15 48.15 -0.45 52.55 7.55 59.8 12.7 66.9 17.75 69.4 25.8 70.4 29.05 72.7 31.7 78.6 38.45 80.65 46.35 81.4 49.3 79.85 51.35 75.85 56.7 68.75 60.25 59.25 65.0 55.5 55.6 L52.8 49.25 Q49.2 41.3 45.2 34.05 40.9 26.25 37.3 18.2 33.95 10.7 28.85 3.45 L26.0 -0.5 Q20.75 -7.3 14.65 -13.25 8.55 -19.2 1.75 -24.3 -0.7 -26.15 -2.8 -29.15 -6.6 -34.65 -12.2 -38.75 -19.0 -43.8 -26.9 -47.45 -34.35 -50.85 -42.6 -52.7 -50.9 -54.5 -59.65 -55.15 -68.0 -55.75 -76.6 -55.25 -86.65 -54.65 -79.6 -57.95 -78.05 -59.15 -66.55 -60.15 -59.5 -61.7 -53.55 -61.45 -50.25 -61.3 -46.5 -60.2 L-39.65 -58.4 -31.35 -57.7 Q-26.3 -57.4 -23.15 -55.95 -15.25 -52.35 -7.8 -48.65 0.15 -44.7 5.6 -38.2" fill="url(#gradient0)" fill-rule="evenodd" stroke="none"/>
  </g>
  <defs>
    <radialGradient cx="0" cy="0" gradientTransform="matrix(0.1212, 0.0, 0.0, 0.1212, -2.1, -46.2)" gradientUnits="userSpaceOnUse" id="gradient0" r="819.2" spreadMethod="pad">
      <stop offset="0.2196078431372549" stop-color="#00cc99" stop-opacity="0.5019608"/>
      <stop offset="0.6509803921568628" stop-color="#218383" stop-opacity="0.5019608"/>
    </radialGradient>
  </defs>
</svg>
