<?xml version="1.0" encoding="UTF-8" standalone="no"?>
<svg xmlns:xlink="http://www.w3.org/1999/xlink" height="127.35px" width="164.8px" xmlns="http://www.w3.org/2000/svg">
  <g transform="matrix(1.0, 0.0, 0.0, 1.0, 82.45, 61.3)">
    <path d="M0.65 -43.05 Q5.15 -39.65 9.85 -36.85 14.75 -33.85 18.45 -29.5 22.05 -25.2 26.55 -21.8 30.8 -18.65 34.0 -14.55 37.55 -10.05 41.95 -6.2 L50.45 1.5 Q54.6 5.45 57.15 10.65 59.05 14.6 62.45 17.5 66.2 20.65 68.75 24.8 71.5 29.3 73.3 34.5 L74.4 38.35 Q75.8 43.8 79.4 48.25 83.05 52.75 82.15 58.2 81.0 64.75 75.25 65.8 69.5 66.85 64.6 63.65 59.7 60.4 57.9 54.6 56.7 50.8 54.7 47.4 L50.75 40.85 44.7 31.25 Q41.75 26.75 40.0 21.8 38.15 16.4 35.05 11.65 L28.95 1.75 23.15 -7.25 Q20.05 -11.75 15.45 -15.1 10.9 -18.5 6.65 -22.55 2.45 -26.5 -1.2 -30.85 -4.9 -35.35 -9.75 -37.95 -14.85 -40.8 -19.5 -44.1 -24.2 -47.45 -29.8 -49.1 L-40.35 -52.15 Q-45.8 -53.8 -51.6 -54.4 -57.1 -54.95 -62.55 -56.15 -68.3 -57.45 -73.85 -56.25 L-79.9 -56.0 Q-85.2 -56.8 -79.4 -58.7 L-74.7 -59.8 -63.5 -61.25 Q-57.6 -61.6 -52.0 -59.9 -49.25 -59.1 -46.5 -59.4 -40.3 -60.15 -35.15 -57.7 -32.35 -56.4 -29.45 -56.95 -23.3 -58.05 -18.5 -53.9 -14.3 -50.3 -9.35 -48.5 -4.15 -46.65 0.65 -43.05" fill="url(#gradient0)" fill-rule="evenodd" stroke="none"/>
  </g>
  <defs>
    <radialGradient cx="0" cy="0" gradientTransform="matrix(0.1553, 0.0, 0.0, 0.1553, 0.95, -36.1)" gradientUnits="userSpaceOnUse" id="gradient0" r="819.2" spreadMethod="pad">
      <stop offset="0.2196078431372549" stop-color="#00cc99" stop-opacity="0.5019608"/>
      <stop offset="0.6509803921568628" stop-color="#218383" stop-opacity="0.5019608"/>
    </radialGradient>
  </defs>
</svg>
