<?xml version="1.0" encoding="UTF-8" standalone="no"?>
<svg xmlns:xlink="http://www.w3.org/1999/xlink" height="123.0px" width="163.3px" xmlns="http://www.w3.org/2000/svg">
  <g transform="matrix(1.0, 0.0, 0.0, 1.0, 82.15, 61.75)">
    <path d="M9.65 -20.75 Q7.1 -24.75 3.05 -27.1 -2.05 -30.1 -6.45 -34.45 -10.3 -38.3 -13.5 -42.05 L-15.1 -43.1 Q-22.3 -45.3 -28.95 -48.65 -33.65 -51.0 -39.35 -51.45 -45.75 -52.0 -52.1 -53.4 L-56.6 -54.45 Q-63.05 -56.05 -69.6 -56.1 L-82.15 -56.6 -80.3 -57.2 -73.85 -60.2 Q-68.6 -62.35 -62.6 -61.55 L-55.6 -60.65 -43.7 -58.75 -32.4 -57.2 Q-25.7 -56.6 -20.25 -52.8 -16.8 -50.35 -12.75 -48.8 -6.35 -46.45 -0.9 -43.7 4.85 -40.8 9.95 -37.05 L14.55 -33.65 Q18.95 -30.4 22.9 -26.6 26.2 -23.45 30.05 -21.1 35.2 -18.05 38.8 -13.2 42.0 -8.85 44.55 -3.95 46.95 0.75 51.9 3.25 56.2 5.45 59.15 9.2 63.3 14.45 65.7 20.75 67.75 26.2 71.95 30.7 76.35 35.5 78.8 41.7 80.55 46.15 81.05 50.7 81.95 58.3 74.6 60.15 L69.3 61.15 Q62.95 61.85 59.15 57.0 56.4 53.4 54.05 49.3 50.55 43.15 49.3 36.25 48.5 32.05 45.4 29.15 40.25 24.4 37.9 17.55 36.45 13.35 34.1 9.4 31.4 4.7 27.85 0.5 25.5 -2.25 23.85 -5.55 22.55 -8.2 20.7 -9.45 14.05 -13.9 9.65 -20.75" fill="url(#gradient0)" fill-rule="evenodd" stroke="none"/>
  </g>
  <defs>
    <radialGradient cx="0" cy="0" gradientTransform="matrix(0.1526, 0.0, 0.0, 0.1526, 0.95, -39.75)" gradientUnits="userSpaceOnUse" id="gradient0" r="819.2" spreadMethod="pad">
      <stop offset="0.2196078431372549" stop-color="#00cc99" stop-opacity="0.5019608"/>
      <stop offset="0.6509803921568628" stop-color="#218383" stop-opacity="0.5019608"/>
    </radialGradient>
  </defs>
</svg>
