<?xml version="1.0" encoding="UTF-8" standalone="no"?>
<svg xmlns:xlink="http://www.w3.org/1999/xlink" height="237.75px" width="43.75px" xmlns="http://www.w3.org/2000/svg">
  <g transform="matrix(1.0, 0.0, 0.0, 1.0, 22.95, 121.2)">
    <path d="M5.15 -80.85 Q5.2 -69.4 6.05 -57.7 6.9 -46.7 11.0 -36.55 12.75 -32.3 12.6 -27.7 12.45 -21.2 11.25 -14.65 9.3 -3.8 11.1 7.2 12.9 18.2 17.65 28.45 19.4 32.2 17.55 35.8 L17.15 36.7 Q17.85 46.8 19.7 59.3 21.55 71.8 20.35 80.5 19.1 89.15 19.6 100.05 19.85 105.95 15.85 110.6 8.1 119.55 -3.2 115.05 -15.05 110.3 -13.85 97.5 -12.75 85.9 -14.75 74.85 -15.9 68.65 -15.8 62.7 -15.55 52.0 -15.9 37.65 -17.6 30.3 -18.35 22.45 -19.4 11.05 -21.8 0.0 -24.45 -12.1 -21.1 -23.05 -18.85 -30.5 -18.2 -40.5 -17.65 -49.0 -15.65 -57.25 L-10.0 -79.35 Q-7.3 -89.1 -5.65 -99.8 -3.9 -110.85 -1.35 -121.2 3.45 -113.4 4.25 -102.85 5.05 -92.1 5.15 -80.85" fill="url(#gradient0)" fill-rule="evenodd" stroke="none"/>
  </g>
  <defs>
    <radialGradient cx="0" cy="0" gradientTransform="matrix(0.2216, 0.0, 0.0, 0.2216, -6.25, -64.35)" gradientUnits="userSpaceOnUse" id="gradient0" r="819.2" spreadMethod="pad">
      <stop offset="0.2196078431372549" stop-color="#00cc99" stop-opacity="0.5019608"/>
      <stop offset="0.6509803921568628" stop-color="#218383" stop-opacity="0.5019608"/>
    </radialGradient>
  </defs>
</svg>
