<?xml version="1.0" encoding="UTF-8" standalone="no"?>
<svg xmlns:xlink="http://www.w3.org/1999/xlink" height="247.25px" width="43.45px" xmlns="http://www.w3.org/2000/svg">
  <g transform="matrix(1.0, 0.0, 0.0, 1.0, 21.55, 120.4)">
    <path d="M8.85 -63.1 Q9.05 -57.35 10.05 -51.85 12.1 -40.35 13.35 -28.45 14.05 -21.75 12.9 -15.15 11.05 -4.5 10.6 6.5 10.15 17.5 14.6 27.85 19.25 38.55 21.25 49.7 22.4 56.05 20.65 60.0 L20.65 61.5 Q20.6 72.45 21.45 84.2 22.35 95.8 21.5 107.35 20.55 120.5 8.8 125.3 -3.05 130.1 -10.15 119.9 -16.85 110.25 -19.25 98.9 -20.25 93.95 -19.65 89.15 -18.85 82.55 -18.4 76.05 -17.95 69.05 -18.55 61.0 -21.85 56.65 -20.55 48.85 -18.75 37.55 -20.35 26.8 -22.05 15.1 -21.35 3.4 -20.7 -8.3 -18.5 -19.5 L-14.3 -41.05 Q-11.95 -52.5 -11.6 -64.35 -11.3 -73.1 -8.4 -81.4 -5.85 -88.65 -4.8 -96.55 L-1.95 -119.35 Q7.05 -124.0 5.1 -108.3 3.55 -96.25 6.0 -85.0 8.4 -74.25 8.85 -63.1" fill="url(#gradient0)" fill-rule="evenodd" stroke="none"/>
  </g>
  <defs>
    <radialGradient cx="0" cy="0" gradientTransform="matrix(0.2014, 0.0, 0.0, 0.2014, -1.95, -37.5)" gradientUnits="userSpaceOnUse" id="gradient0" r="819.2" spreadMethod="pad">
      <stop offset="0.2196078431372549" stop-color="#00cc99" stop-opacity="0.5019608"/>
      <stop offset="0.6509803921568628" stop-color="#218383" stop-opacity="0.5019608"/>
    </radialGradient>
  </defs>
</svg>
