<?xml version="1.0" encoding="UTF-8" standalone="no"?>
<svg xmlns:xlink="http://www.w3.org/1999/xlink" height="254.6px" width="56.5px" xmlns="http://www.w3.org/2000/svg">
  <g transform="matrix(1.0, 0.0, 0.0, 1.0, 24.0, 120.4)">
    <path d="M3.1 -87.1 Q4.75 -75.7 8.1 -64.8 10.45 -57.0 8.95 -48.75 8.15 -44.25 9.65 -39.7 13.1 -29.05 11.6 -16.7 10.6 -8.45 10.55 -0.2 10.45 11.15 11.3 22.5 L12.45 35.65 Q19.4 43.4 20.85 54.8 L23.85 76.75 Q25.5 87.95 28.95 98.65 32.55 109.6 32.5 121.35 32.45 130.65 23.45 132.3 12.7 134.2 1.7 134.2 -3.45 134.2 -7.75 131.9 -17.5 126.7 -18.7 114.65 -19.65 105.05 -21.55 95.6 -23.65 85.2 -21.0 74.75 -18.6 65.0 -19.8 54.95 L-19.95 53.7 Q-21.0 46.3 -22.7 39.1 L-23.6 31.55 Q-24.65 20.05 -22.95 8.6 -21.2 -2.85 -21.05 -14.85 -20.9 -26.3 -19.35 -37.95 L-18.0 -46.9 Q-16.0 -58.5 -12.3 -69.25 -11.25 -72.35 -10.9 -74.95 -9.35 -86.65 -5.45 -97.5 -1.55 -108.25 -1.35 -120.0 6.85 -122.5 4.0 -110.1 1.4 -98.95 3.1 -87.1" fill="url(#gradient0)" fill-rule="evenodd" stroke="none"/>
  </g>
  <defs>
    <radialGradient cx="0" cy="0" gradientTransform="matrix(0.2397, 0.0, 0.0, 0.2397, -4.4, -61.3)" gradientUnits="userSpaceOnUse" id="gradient0" r="819.2" spreadMethod="pad">
      <stop offset="0.2196078431372549" stop-color="#00cc99" stop-opacity="0.5019608"/>
      <stop offset="0.6509803921568628" stop-color="#218383" stop-opacity="0.5019608"/>
    </radialGradient>
  </defs>
</svg>
