<?xml version="1.0" encoding="UTF-8" standalone="no"?>
<svg xmlns:xlink="http://www.w3.org/1999/xlink" height="68.95px" width="39.35px" xmlns="http://www.w3.org/2000/svg">
  <g transform="matrix(1.0, 0.0, 0.0, 1.0, 19.0, 34.7)">
    <path d="M18.35 -15.15 Q18.5 -2.9 19.9 8.0 21.35 19.6 17.9 29.95 15.5 37.1 5.85 32.3 5.4 19.05 4.3 7.6 3.2 -3.95 2.9 -15.15 -3.3 -7.65 -4.45 2.4 -4.85 5.8 -9.3 5.4 -13.05 5.1 -17.2 6.25 -19.3 -4.05 -17.0 -13.7 -16.3 -16.55 -17.55 -19.8 -22.8 -33.65 -8.75 -34.55 L-5.0 -34.7 Q2.55 -34.7 7.9 -31.15 18.25 -24.3 18.35 -15.15" fill="url(#gradient0)" fill-rule="evenodd" stroke="none"/>
  </g>
  <defs>
    <radialGradient cx="0" cy="0" gradientTransform="matrix(0.0795, 0.0, 0.0, 0.0795, -6.85, -27.35)" gradientUnits="userSpaceOnUse" id="gradient0" r="819.2" spreadMethod="pad">
      <stop offset="0.2196078431372549" stop-color="#00cc99" stop-opacity="0.5019608"/>
      <stop offset="0.6509803921568628" stop-color="#218383" stop-opacity="0.5019608"/>
    </radialGradient>
  </defs>
</svg>
