<?xml version="1.0" encoding="UTF-8" standalone="no"?>
<svg xmlns:xlink="http://www.w3.org/1999/xlink" height="51.85px" width="40.1px" xmlns="http://www.w3.org/2000/svg">
  <g transform="matrix(1.0, 0.0, 0.0, 1.0, 19.65, 36.7)">
    <path d="M0.8 -35.65 Q13.2 -31.75 19.6 -18.85 20.6 -16.8 20.45 -14.65 19.75 -3.3 18.5 8.8 18.15 11.8 16.25 12.85 2.9 20.25 1.9 3.7 1.25 -6.75 4.8 -15.15 0.85 -15.3 -1.5 -12.45 -8.05 -4.5 -9.4 8.0 -22.45 9.5 -18.9 -6.1 -18.05 -9.9 -18.1 -13.3 -18.25 -25.3 -12.35 -34.1 -7.65 -38.3 0.8 -35.65" fill="url(#gradient0)" fill-rule="evenodd" stroke="none"/>
  </g>
  <defs>
    <radialGradient cx="0" cy="0" gradientTransform="matrix(0.053, 0.0, 0.0, 0.053, -3.8, -24.9)" gradientUnits="userSpaceOnUse" id="gradient0" r="819.2" spreadMethod="pad">
      <stop offset="0.2196078431372549" stop-color="#00cc99" stop-opacity="0.5019608"/>
      <stop offset="0.6509803921568628" stop-color="#218383" stop-opacity="0.5019608"/>
    </radialGradient>
  </defs>
</svg>
