<?xml version="1.0" encoding="UTF-8" standalone="no"?>
<svg xmlns:xlink="http://www.w3.org/1999/xlink" height="233.25px" width="455.0px" xmlns="http://www.w3.org/2000/svg">
  <g transform="matrix(1.0, 0.0, 0.0, 1.0, 222.25, 279.9)">
    <path d="M74.85 -266.4 L81.25 -263.25 Q96.5 -255.55 115.75 -247.15 L142.1 -234.15 164.1 -222.15 Q192.15 -205.4 210.1 -195.65 L232.75 -185.75 209.75 -172.65 187.1 -165.75 163.75 -155.25 119.25 -127.75 96.25 -115.25 72.85 -104.0 26.6 -85.75 4.6 -73.4 -19.25 -56.5 -42.25 -46.65 -64.65 -56.25 -133.65 -95.15 -155.5 -106.0 -179.0 -116.9 -200.9 -127.75 -222.25 -140.5 -221.25 -141.25 -199.25 -150.9 -176.65 -167.0 -153.9 -179.75 Q-136.45 -185.95 -106.75 -198.4 L-79.0 -212.0 -61.25 -221.5 Q-38.95 -234.55 -16.4 -249.4 L6.25 -259.75 30.1 -267.15 52.35 -279.9 52.85 -279.9 74.85 -266.4" fill="url(#gradient0)" fill-rule="evenodd" stroke="none"/>
    <path d="M-36.55 -48.5 L-42.4 -46.65 -56.3 -52.4 Q-48.05 -52.65 -40.2 -49.85 L-36.55 -48.5" fill="#3ecaaa" fill-rule="evenodd" stroke="none"/>
    <path d="M52.6 -279.9 L58.1 -276.25 52.6 -273.25 46.85 -276.15 52.6 -279.9 M-44.9 -231.4 L-33.4 -230.75 -27.8 -234.4 -22.15 -230.15 -10.65 -229.9 -5.05 -233.75 7.0 -231.15 Q25.15 -227.65 43.35 -225.8 47.6 -225.55 51.35 -227.15 L116.35 -195.5 119.35 -190.75 136.35 -203.65 130.45 -213.15 119.85 -218.25 116.6 -223.65 113.05 -225.3 Q63.3 -245.6 9.1 -247.15 L6.45 -241.25 1.1 -245.25 -4.9 -245.15 -13.3 -251.0 -7.65 -253.9 -4.65 -252.0 Q9.15 -253.35 22.9 -252.55 40.6 -251.4 57.6 -246.25 L63.45 -248.65 Q100.85 -237.5 136.7 -222.4 L136.45 -217.0 141.95 -207.5 158.95 -199.0 158.45 -169.0 152.7 -165.15 141.45 -168.75 130.1 -161.15 124.45 -163.9 124.6 -175.75 113.35 -181.75 113.45 -187.25 110.7 -191.9 51.6 -222.15 40.2 -217.5 Q27.55 -220.05 14.55 -221.3 -24.35 -224.6 -62.05 -214.75 L-67.8 -218.0 -44.9 -231.4 M6.4 -200.15 L16.85 -205.0 Q22.35 -201.55 28.9 -199.85 L30.3 -199.6 34.4 -200.0 37.2 -200.3 38.5 -200.85 67.85 -187.65 67.6 -169.9 61.95 -166.4 50.85 -170.25 39.2 -162.15 Q33.8 -165.4 28.05 -167.75 18.55 -171.65 8.4 -172.0 1.05 -172.25 -6.05 -170.65 L-22.8 -185.25 -22.9 -192.9 -17.3 -195.65 -14.4 -201.0 -5.8 -205.15 6.4 -200.15 M44.95 -179.25 L45.2 -186.4 39.45 -189.4 36.85 -194.65 26.1 -194.6 Q9.85 -194.85 -5.8 -199.0 L-8.65 -197.65 -11.55 -192.4 -8.8 -178.15 -1.6 -177.4 Q16.45 -176.05 33.7 -170.65 L44.95 -179.25 M13.2 -128.0 Q4.2 -124.95 -4.95 -128.15 L-7.25 -128.9 -18.4 -125.5 -63.3 -147.0 -69.3 -146.4 -80.55 -137.65 -80.65 -130.9 -74.9 -127.9 -72.15 -123.0 Q-34.0 -101.6 9.1 -107.5 21.15 -109.4 32.6 -113.65 L32.7 -121.4 26.95 -121.65 15.6 -129.0 13.2 -128.0 M15.7 -134.65 L28.5 -129.25 49.95 -137.9 Q56.5 -133.85 61.8 -128.3 L62.9 -127.1 Q65.85 -123.35 66.7 -118.5 1.0 -77.75 -74.1 -115.35 L-91.9 -124.0 -91.9 -136.4 -103.15 -141.75 -103.05 -147.65 -74.4 -167.65 -68.8 -164.9 -68.9 -152.75 -63.3 -153.25 -18.4 -130.4 -7.15 -134.65 5.35 -132.4 15.7 -134.65 M-160.55 -108.25 L-205.55 -130.25 -188.3 -140.15 -177.15 -135.9 -171.3 -140.4 -171.15 -152.9 -165.55 -156.5 -159.8 -153.5 -160.05 -141.5 -148.9 -136.0 -148.9 -123.65 -143.15 -124.25 Q-125.2 -114.4 -105.95 -107.7 -73.3 -96.45 -41.4 -83.7 L-30.15 -87.75 12.1 -78.25 6.35 -74.65 Q-10.9 -76.4 -27.95 -79.25 -88.85 -88.75 -143.15 -117.75 L-149.05 -117.25 -160.55 -108.25 M-28.05 -52.0 L-36.55 -48.5 -40.2 -49.85 Q-48.05 -52.65 -56.3 -52.4 L-61.9 -55.0 -42.05 -60.25 -28.05 -52.0 M226.95 -188.0 Q229.8 -186.85 232.6 -185.75 L226.85 -182.15 226.95 -188.0" fill="#5de6c4" fill-rule="evenodd" stroke="none"/>
    <path d="M34.7 -237.9 L34.35 -229.9 11.95 -237.4 14.85 -243.5 Q22.0 -240.95 29.35 -238.95 31.95 -238.15 34.7 -237.9 M68.6 -224.0 L51.85 -232.15 45.95 -230.5 46.1 -238.4 68.7 -231.9 68.6 -224.0 M80.2 -224.9 L80.1 -232.9 111.1 -219.25 113.7 -214.15 108.2 -209.9 80.2 -224.9 M11.2 -190.75 L11.2 -184.35 -0.3 -184.35 -0.3 -190.75 11.2 -190.75 M30.85 -190.65 L33.85 -185.25 27.95 -180.9 22.45 -184.0 22.6 -192.0 30.85 -190.65 M3.95 -114.65 L-4.15 -108.5 -29.55 -117.5 -35.3 -113.15 -66.55 -127.25 -69.3 -132.15 -63.65 -136.65 -41.15 -124.4 Q-38.6 -125.8 -36.0 -126.65 L-34.6 -126.9 -33.2 -127.05 -30.4 -126.8 Q-28.4 -126.45 -26.45 -125.7 L-24.6 -124.85 -18.55 -120.65 -12.65 -122.25 -7.15 -118.4 -1.4 -122.5 9.85 -122.4 9.85 -114.5 3.95 -114.65 M-2.4 -68.65 L-22.3 -55.15 -41.9 -67.9 -58.9 -59.75 -64.8 -63.4 -70.4 -59.4 -137.9 -97.25 -132.15 -101.75 -109.65 -89.65 -103.9 -94.15 -64.4 -78.15 -58.9 -82.5 -41.8 -74.15 -36.15 -75.9 -30.55 -72.0 -24.8 -76.15 -2.4 -68.65" fill="#b2fffe" fill-rule="evenodd" stroke="none"/>
    <path d="M34.7 -237.9 Q31.95 -238.15 29.35 -238.95 22.0 -240.95 14.85 -243.5 L11.95 -237.4 34.35 -229.9 34.7 -237.9 M-13.3 -251.0 L-4.9 -245.15 1.1 -245.25 6.45 -241.25 9.1 -247.15 Q63.3 -245.6 113.05 -225.3 L116.6 -223.65 119.85 -218.25 130.45 -213.15 136.35 -203.65 119.35 -190.75 116.35 -195.5 51.35 -227.15 Q47.6 -225.55 43.35 -225.8 25.15 -227.65 7.0 -231.15 L-5.05 -233.75 -10.65 -229.9 -22.15 -230.15 -27.8 -234.4 -33.4 -230.75 -44.9 -231.4 -13.3 -251.0 M68.6 -224.0 L68.7 -231.9 46.1 -238.4 45.95 -230.5 51.85 -232.15 68.6 -224.0 M80.2 -224.9 L108.2 -209.9 113.7 -214.15 111.1 -219.25 80.1 -232.9 80.2 -224.9 M44.95 -179.25 L33.7 -170.65 Q16.45 -176.05 -1.6 -177.4 L-8.8 -178.15 -11.55 -192.4 -8.65 -197.65 -5.8 -199.0 Q9.85 -194.85 26.1 -194.6 L36.85 -194.65 39.45 -189.4 45.2 -186.4 44.95 -179.25 M30.85 -190.65 L22.6 -192.0 22.45 -184.0 27.95 -180.9 33.85 -185.25 30.85 -190.65 M11.2 -190.75 L-0.3 -190.75 -0.3 -184.35 11.2 -184.35 11.2 -190.75 M13.2 -128.0 L15.6 -129.0 26.95 -121.65 32.7 -121.4 32.6 -113.65 Q21.15 -109.4 9.1 -107.5 -34.0 -101.6 -72.15 -123.0 L-74.9 -127.9 -80.65 -130.9 -80.55 -137.65 -69.3 -146.4 -63.3 -147.0 -18.4 -125.5 -7.25 -128.9 -4.95 -128.15 Q4.2 -124.95 13.2 -128.0 M3.95 -114.65 L9.85 -114.5 9.85 -122.4 -1.4 -122.5 -7.15 -118.4 -12.65 -122.25 -18.55 -120.65 -24.6 -124.85 -26.45 -125.7 Q-28.4 -126.45 -30.4 -126.8 L-33.2 -127.05 -34.6 -126.9 -36.0 -126.65 Q-38.6 -125.8 -41.15 -124.4 L-63.65 -136.65 -69.3 -132.15 -66.55 -127.25 -35.3 -113.15 -29.55 -117.5 -4.15 -108.5 3.95 -114.65 M-160.55 -108.25 L-149.05 -117.25 -143.15 -117.75 Q-88.85 -88.75 -27.95 -79.25 -10.9 -76.4 6.35 -74.65 L-2.4 -68.65 -24.8 -76.15 -30.55 -72.0 -36.15 -75.9 -41.8 -74.15 -58.9 -82.5 -64.4 -78.15 -103.9 -94.15 -109.65 -89.65 -132.15 -101.75 -137.9 -97.25 -160.55 -108.25 M-22.3 -55.15 L-28.05 -52.0 -42.05 -60.25 -61.9 -55.0 -70.4 -59.4 -64.8 -63.4 -58.9 -59.75 -41.9 -67.9 -22.3 -55.15" fill="#82fae2" fill-rule="evenodd" stroke="none"/>
    <path d="M74.85 -266.4 L81.25 -263.25 Q96.5 -255.55 115.75 -247.15 L142.1 -234.15 164.1 -222.15 Q192.15 -205.4 210.1 -195.65 L232.75 -185.75 209.75 -172.65 187.1 -165.75 163.75 -155.25 119.25 -127.75 96.25 -115.25 72.85 -104.0 26.6 -85.75 4.6 -73.4 -19.25 -56.5 -42.25 -46.65 -64.65 -56.25 -133.65 -95.15 -155.5 -106.0 -179.0 -116.9 -200.9 -127.75 -222.25 -140.5 -221.25 -141.25 -199.25 -150.9 -176.65 -167.0 -153.9 -179.75 Q-136.45 -185.95 -106.75 -198.4 L-79.0 -212.0 -61.25 -221.5 Q-38.95 -234.55 -16.4 -249.4 L6.25 -259.75 30.1 -267.15 52.35 -279.9 52.85 -279.9 74.85 -266.4 Z" fill="none" stroke="#009999" stroke-linecap="round" stroke-linejoin="round" stroke-width="0.05"/>
  </g>
  <defs>
    <radialGradient cx="0" cy="0" gradientTransform="matrix(0.4158, 0.0, 0.0, 0.4158, -87.3, -69.1)" gradientUnits="userSpaceOnUse" id="gradient0" r="819.2" spreadMethod="pad">
      <stop offset="0.0" stop-color="#b5ffff"/>
      <stop offset="1.0" stop-color="#44d4b2"/>
    </radialGradient>
  </defs>
</svg>
