<?xml version="1.0" encoding="UTF-8" standalone="no"?>
<svg xmlns:xlink="http://www.w3.org/1999/xlink" height="233.35px" width="455.15px" xmlns="http://www.w3.org/2000/svg">
  <g transform="matrix(1.0, 0.0, 0.0, 1.0, 222.4, 280.5)">
    <path d="M77.25 -266.5 Q132.5 -239.7 146.25 -232.15 L210.5 -196.75 232.75 -186.25 210.25 -174.0 187.0 -165.0 163.5 -153.9 118.0 -127.75 75.1 -106.0 26.0 -84.25 5.85 -73.4 -19.25 -57.65 -42.25 -47.15 -63.5 -57.0 -133.25 -95.15 -198.65 -127.75 -222.25 -141.15 -199.0 -152.15 -176.5 -166.4 -153.75 -178.65 Q-100.85 -200.5 -62.0 -221.9 L-16.5 -248.15 6.75 -259.25 30.1 -268.25 52.5 -280.5 53.6 -280.0 77.25 -266.5" fill="url(#gradient0)" fill-rule="evenodd" stroke="none"/>
    <path d="M-36.55 -49.4 L-42.4 -47.15 -56.3 -53.5 -53.9 -53.8 Q-44.5 -54.35 -36.55 -49.4 M-205.65 -131.5 L-222.4 -141.15 -205.3 -148.9 -205.65 -131.5" fill="#40ccab" fill-rule="evenodd" stroke="none"/>
    <path d="M58.1 -277.15 L52.6 -274.15 46.7 -277.0 52.35 -280.5 58.1 -277.15 M-33.55 -238.25 L-22.05 -230.75 -10.8 -230.65 -4.9 -234.15 0.85 -230.5 11.95 -230.4 17.6 -234.0 23.35 -230.5 34.7 -230.65 40.45 -234.25 Q44.75 -232.7 48.75 -230.2 59.35 -223.45 71.6 -220.7 78.95 -218.95 85.7 -222.25 L130.7 -199.15 136.35 -202.9 133.7 -207.4 122.1 -213.15 119.1 -218.15 Q94.35 -226.55 70.3 -235.95 66.45 -237.4 62.85 -235.0 L34.85 -244.75 29.1 -241.0 12.1 -244.65 6.45 -240.9 0.95 -244.65 -10.55 -244.75 -16.3 -241.15 -21.9 -245.0 Q34.95 -261.7 89.5 -236.75 98.95 -232.4 108.1 -227.0 L119.85 -230.15 125.1 -227.4 127.85 -216.9 139.35 -211.0 142.1 -206.4 158.85 -198.0 158.2 -156.4 152.7 -153.25 124.45 -165.15 124.6 -189.25 51.6 -224.4 40.2 -221.4 Q34.25 -223.3 28.25 -222.6 L17.6 -221.65 Q6.45 -224.75 -4.7 -222.1 -23.7 -217.8 -39.15 -228.0 L-50.65 -221.9 -56.3 -225.15 -33.55 -238.25 M6.75 -199.65 L16.85 -204.0 28.55 -198.15 39.6 -201.0 56.45 -192.5 56.45 -180.0 67.7 -174.65 67.6 -168.75 50.45 -158.65 5.35 -177.65 -17.4 -168.65 -23.15 -171.9 -22.9 -192.15 6.75 -199.65 M45.2 -185.65 L16.85 -198.0 5.45 -191.15 -0.15 -191.15 -0.3 -184.15 22.45 -177.5 28.2 -181.4 39.6 -175.5 45.1 -179.25 45.2 -185.65 M9.85 -107.65 L21.35 -107.5 32.6 -114.15 32.7 -121.25 21.2 -121.5 15.6 -118.0 9.85 -121.75 -1.4 -121.75 -7.15 -118.25 -9.9 -123.5 -74.55 -141.75 -80.55 -137.9 -80.55 -131.5 -63.65 -122.9 -61.05 -118.0 -1.4 -107.65 4.35 -111.25 9.85 -107.65 M66.85 -119.4 L27.1 -99.0 Q4.25 -102.65 -18.1 -104.55 -38.3 -106.2 -58.05 -113.25 L-64.15 -110.75 -91.9 -125.15 -91.8 -137.15 -103.15 -142.9 -102.8 -160.65 -97.15 -164.0 -85.8 -159.4 -74.3 -166.5 -68.8 -163.75 -68.9 -151.65 Q-55.6 -144.0 -41.4 -138.2 -27.25 -132.4 -12.55 -128.4 L-6.9 -130.9 Q-1.65 -128.9 3.9 -129.45 27.3 -131.75 50.1 -136.75 L66.85 -126.25 66.85 -119.4 M-205.3 -148.9 L-182.3 -162.65 -159.8 -152.15 -159.3 -140.15 -148.65 -134.65 -148.5 -132.55 Q-117.3 -108.0 -79.8 -94.15 -58.4 -86.1 -36.05 -81.75 L-30.15 -84.25 -24.8 -81.65 -19.8 -82.7 -11.35 -83.55 Q1.25 -83.65 12.1 -77.15 L6.2 -73.75 Q-52.8 -76.05 -107.1 -98.9 -132.35 -109.5 -154.65 -125.5 L-171.65 -114.25 -205.65 -131.5 -205.3 -148.9 M-28.05 -53.25 L-36.55 -49.4 Q-44.5 -54.35 -53.9 -53.8 L-56.3 -53.5 -61.9 -56.25 -58.0 -57.05 Q-42.55 -59.6 -28.05 -53.25 M232.6 -186.25 L226.85 -183.0 226.95 -188.75 232.6 -186.25" fill="#54e1be" fill-rule="evenodd" stroke="none"/>
    <path d="M-21.9 -245.0 L-16.3 -241.15 -10.55 -244.75 0.95 -244.65 6.45 -240.9 12.1 -244.65 29.1 -241.0 34.85 -244.75 62.85 -235.0 Q66.45 -237.4 70.3 -235.95 94.35 -226.55 119.1 -218.15 L122.1 -213.15 133.7 -207.4 136.35 -202.9 130.7 -199.15 85.7 -222.25 Q78.95 -218.95 71.6 -220.7 59.35 -223.45 48.75 -230.2 44.75 -232.7 40.45 -234.25 L34.7 -230.65 23.35 -230.5 17.6 -234.0 11.95 -230.4 0.85 -230.5 -4.9 -234.15 -10.8 -230.65 -22.05 -230.75 -33.55 -238.25 -21.9 -245.0 M9.85 -107.65 L4.35 -111.25 -1.4 -107.65 -61.05 -118.0 -63.65 -122.9 -80.55 -131.5 -80.55 -137.9 -74.55 -141.75 -9.9 -123.5 -7.15 -118.25 -1.4 -121.75 9.85 -121.75 15.6 -118.0 21.2 -121.5 32.7 -121.25 32.6 -114.15 21.35 -107.5 9.85 -107.65 M45.2 -185.65 L45.1 -179.25 39.6 -175.5 28.2 -181.4 22.45 -177.5 -0.3 -184.15 -0.15 -191.15 5.45 -191.15 16.85 -198.0 45.2 -185.65 M6.2 -73.75 L-2.4 -68.4 Q-15.3 -74.55 -28.65 -68.95 L-30.4 -68.15 -47.55 -74.9 -47.65 -67.9 -41.9 -68.15 -22.3 -56.25 -28.05 -53.25 Q-42.55 -59.6 -58.0 -57.05 L-61.9 -56.25 -70.4 -60.65 -59.05 -67.4 -58.9 -74.5 Q-69.55 -75.9 -79.25 -80.2 -86.2 -83.2 -92.8 -87.0 L-98.55 -83.25 -132.15 -101.4 -137.9 -97.5 -171.65 -114.25 -154.65 -125.5 Q-132.35 -109.5 -107.1 -98.9 -52.8 -76.05 6.2 -73.75 M-24.05 -121.4 L-24.15 -114.4 -12.9 -114.5 -15.55 -119.9 -24.05 -121.4 M-46.55 -127.4 L-58.05 -126.5 -55.3 -121.65 -35.65 -113.9 -35.4 -121.0 -46.55 -127.4" fill="#6bf5d0" fill-rule="evenodd" stroke="none"/>
    <path d="M-2.4 -68.4 L-22.3 -56.25 -41.9 -68.15 -47.65 -67.9 -47.55 -74.9 -30.4 -68.15 -28.65 -68.95 Q-15.3 -74.55 -2.4 -68.4 M-70.4 -60.65 L-137.9 -97.5 -132.15 -101.4 -98.55 -83.25 -92.8 -87.0 Q-86.2 -83.2 -79.25 -80.2 -69.55 -75.9 -58.9 -74.5 L-59.05 -67.4 -70.4 -60.65 M-46.55 -127.4 L-35.4 -121.0 -35.65 -113.9 -55.3 -121.65 -58.05 -126.5 -46.55 -127.4 M-24.05 -121.4 L-15.55 -119.9 -12.9 -114.5 -24.15 -114.4 -24.05 -121.4" fill="#84ffe4" fill-rule="evenodd" stroke="none"/>
    <path d="M77.25 -266.5 Q132.5 -239.7 146.25 -232.15 L210.5 -196.75 232.75 -186.25 210.25 -174.0 187.0 -165.0 163.5 -153.9 118.0 -127.75 75.1 -106.0 26.0 -84.25 5.85 -73.4 -19.25 -57.65 -42.25 -47.15 -63.5 -57.0 -133.25 -95.15 -198.65 -127.75 -222.25 -141.15 -199.0 -152.15 -176.5 -166.4 -153.75 -178.65 Q-100.85 -200.5 -62.0 -221.9 L-16.5 -248.15 6.75 -259.25 30.1 -268.25 52.5 -280.5 53.6 -280.0 77.25 -266.5 Z" fill="none" stroke="#009999" stroke-linecap="round" stroke-linejoin="round" stroke-width="0.05"/>
  </g>
  <defs>
    <radialGradient cx="0" cy="0" gradientTransform="matrix(0.4156, 0.0, 0.0, 0.4156, -87.3, -70.1)" gradientUnits="userSpaceOnUse" id="gradient0" r="819.2" spreadMethod="pad">
      <stop offset="0.0" stop-color="#81ffe2"/>
      <stop offset="1.0" stop-color="#45d3b2"/>
    </radialGradient>
  </defs>
</svg>
