<?xml version="1.0" encoding="UTF-8" standalone="no"?>
<svg xmlns:xlink="http://www.w3.org/1999/xlink" height="233.35px" width="455.0px" xmlns="http://www.w3.org/2000/svg">
  <g transform="matrix(1.0, 0.0, 0.0, 1.0, 222.4, 281.0)">
    <path d="M75.5 -268.65 L121.85 -245.0 Q165.0 -222.75 209.6 -198.5 L232.6 -186.9 209.85 -174.9 179.1 -160.4 157.5 -149.5 95.1 -116.9 28.5 -84.25 7.35 -73.4 -19.25 -58.75 -42.25 -47.65 -222.4 -141.65 -197.75 -153.9 Q-181.45 -163.35 -153.9 -177.4 L-103.4 -201.75 -75.65 -215.75 -4.15 -253.15 32.0 -270.25 51.5 -280.5 52.85 -281.0 75.5 -268.65" fill="url(#gradient0)" fill-rule="evenodd" stroke="none"/>
    <path d="M58.1 -278.0 L52.6 -275.0 46.7 -277.9 52.6 -281.0 58.1 -278.0 M215.45 -177.9 L215.7 -195.25 Q224.1 -191.05 232.45 -186.9 L215.45 -177.9 M-36.55 -50.25 L-42.4 -47.65 -59.15 -56.0 -56.5 -55.8 Q-46.05 -54.95 -36.55 -50.25" fill="#46d3b2" fill-rule="evenodd" stroke="none"/>
    <path d="M46.7 -277.9 L52.6 -275.0 58.1 -278.0 215.7 -195.25 215.45 -177.9 181.1 -161.5 169.85 -167.4 170.2 -190.9 147.7 -202.5 147.45 -214.5 Q122.3 -227.55 97.1 -240.65 L85.6 -234.9 63.45 -246.65 51.6 -240.75 29.35 -252.65 17.7 -246.9 0.95 -255.65 46.7 -277.9 M17.45 -222.5 L28.95 -228.25 51.35 -216.5 62.95 -222.4 102.35 -201.65 102.1 -190.0 113.35 -184.15 112.85 -154.9 Q104.35 -150.75 95.85 -146.65 L78.85 -156.0 79.1 -179.5 28.35 -205.75 16.95 -200.0 5.95 -205.9 -5.8 -200.15 -17.15 -205.9 -51.4 -188.75 -62.65 -194.25 -74.15 -188.4 -79.55 -190.9 -79.55 -196.75 -16.4 -228.5 -5.05 -222.65 6.2 -228.4 17.45 -222.5 M33.1 -138.65 Q-15.3 -128.15 -57.55 -156.5 L-57.4 -162.4 -40.3 -170.65 4.7 -146.65 16.8 -152.0 33.1 -144.15 33.1 -138.65 M9.6 -91.4 Q-5.95 -86.05 -21.7 -90.65 L-24.55 -91.65 -24.15 -97.25 -18.55 -99.9 -7.55 -94.25 4.1 -99.9 9.6 -96.9 9.6 -91.4 M-75.4 -106.25 L-64.05 -111.75 -35.9 -97.4 -35.9 -91.9 -41.55 -89.0 -63.9 -100.5 -75.55 -95.15 -137.4 -127.5 -137.3 -139.15 -148.55 -145.15 -148.05 -180.15 -136.4 -185.75 -125.3 -179.4 -125.65 -155.9 -114.4 -149.9 -114.55 -138.25 -103.3 -132.25 -103.55 -120.9 -75.4 -106.25" fill="#40ccac" fill-rule="evenodd" stroke="none"/>
    <path d="M91.1 -219.5 L91.35 -225.9 97.2 -228.9 125.2 -214.15 125.1 -208.25 119.35 -204.9 91.1 -219.5 M9.65 -192.1 Q11.35 -190.35 11.35 -187.9 11.35 -185.45 9.65 -183.7 7.9 -181.95 5.45 -181.95 3.0 -181.95 1.3 -183.7 -0.45 -185.45 -0.45 -187.9 -0.45 -190.35 1.3 -192.1 3.0 -193.85 5.45 -193.85 7.9 -193.85 9.65 -192.1 M56.35 -173.4 L50.45 -170.25 22.6 -184.65 22.6 -191.15 28.2 -194.15 Q42.3 -186.8 56.35 -179.5 L56.35 -173.4 M38.6 -129.9 L55.45 -120.4 55.35 -114.4 38.35 -105.5 26.95 -111.5 15.6 -105.65 4.2 -111.65 -7.15 -105.65 Q-17.25 -107.35 -27.5 -109.65 -37.6 -112.0 -47.65 -115.05 L-61.05 -119.0 -64.05 -123.75 -91.9 -138.15 -91.55 -156.0 -85.8 -159.15 Q-60.65 -144.2 -33.05 -134.45 -3.8 -124.25 27.2 -123.9 L38.6 -129.9 M-171.8 -115.15 L-194.4 -126.75 -193.9 -150.25 -187.9 -153.4 -148.8 -133.65 -148.65 -121.5 Q-138.9 -115.1 -128.65 -109.6 -94.35 -91.0 -55.8 -86.55 L-52.8 -86.4 -50.55 -85.1 Q-49.5 -84.45 -48.3 -84.0 L-46.0 -83.15 Q-44.9 -82.7 -43.7 -82.6 L-38.85 -81.7 Q-34.3 -81.45 -30.05 -83.25 L9.2 -74.5 -2.3 -68.25 Q-14.85 -75.0 -28.85 -71.8 L-30.8 -71.4 Q-44.45 -79.35 -60.25 -78.0 L-64.8 -77.4 Q-80.6 -86.15 -98.4 -83.15 L-166.15 -118.25 -171.8 -115.15 M-25.15 -55.9 L-36.55 -50.25 Q-46.05 -54.95 -56.5 -55.8 L-59.15 -56.0 -70.4 -61.9 -64.8 -65.0 -47.65 -61.9 -42.05 -65.15 -25.15 -55.9 M-12.65 -121.15 L-24.1 -121.15 -24.1 -114.75 -12.65 -114.75 -12.65 -121.15 M-46.55 -126.9 L-52.15 -129.9 -58.05 -126.75 Q-55.45 -121.75 -49.85 -121.1 L-46.9 -120.75 -46.55 -126.9" fill="#4edbb8" fill-rule="evenodd" stroke="none"/>
    <path d="M-2.3 -68.25 L-25.15 -55.9 -42.05 -65.15 -47.65 -61.9 -64.8 -65.0 -70.4 -61.9 -171.8 -115.15 -166.15 -118.25 -98.4 -83.15 Q-80.6 -86.15 -64.8 -77.4 L-60.25 -78.0 Q-44.45 -79.35 -30.8 -71.4 L-28.85 -71.8 Q-14.85 -75.0 -2.3 -68.25 M-46.55 -126.9 L-46.9 -120.75 -49.85 -121.1 Q-55.45 -121.75 -58.05 -126.75 L-52.15 -129.9 -46.55 -126.9 M-12.65 -121.15 L-12.65 -114.75 -24.1 -114.75 -24.1 -121.15 -12.65 -121.15" fill="#56e2be" fill-rule="evenodd" stroke="none"/>
    <path d="M75.5 -268.65 L121.85 -245.0 Q165.0 -222.75 209.6 -198.5 L232.6 -186.9 209.85 -174.9 179.1 -160.4 157.5 -149.5 95.1 -116.9 28.5 -84.25 7.35 -73.4 -19.25 -58.75 -42.25 -47.65 -222.4 -141.65 -197.75 -153.9 Q-181.45 -163.35 -153.9 -177.4 L-103.4 -201.75 -75.65 -215.75 -4.15 -253.15 32.0 -270.25 51.5 -280.5 52.85 -281.0 75.5 -268.65 Z" fill="none" stroke="#009999" stroke-linecap="round" stroke-linejoin="round" stroke-width="0.05"/>
  </g>
  <defs>
    <radialGradient cx="0" cy="0" gradientTransform="matrix(0.4154, 0.0, 0.0, 0.4154, -87.3, -71.1)" gradientUnits="userSpaceOnUse" id="gradient0" r="819.2" spreadMethod="pad">
      <stop offset="0.0" stop-color="#57e3bf"/>
      <stop offset="1.0" stop-color="#44d2b1"/>
    </radialGradient>
  </defs>
</svg>
