<?xml version="1.0" encoding="UTF-8" standalone="no"?>
<svg xmlns:xlink="http://www.w3.org/1999/xlink" height="233.35px" width="455.15px" xmlns="http://www.w3.org/2000/svg">
  <g transform="matrix(1.0, 0.0, 0.0, 1.0, 222.4, 281.5)">
    <path d="M73.25 -271.25 L141.0 -235.15 210.5 -199.5 232.75 -187.25 208.85 -175.65 186.75 -163.4 159.5 -149.5 93.0 -116.9 30.75 -84.25 -13.9 -62.5 -42.25 -48.15 -132.4 -95.15 -173.25 -116.9 -222.25 -142.25 -200.4 -153.75 Q-178.3 -163.5 -151.5 -177.25 L-91.75 -208.75 Q-76.95 -216.6 -10.9 -248.5 L37.85 -274.4 52.85 -281.5 73.25 -271.25" fill="url(#gradient0)" fill-rule="evenodd" stroke="none"/>
    <path d="M57.85 -255.5 L46.35 -254.65 46.45 -260.9 52.2 -264.0 57.85 -261.0 57.85 -255.5 M192.45 -166.75 L181.2 -172.15 181.6 -196.0 159.1 -207.4 159.2 -219.5 108.6 -246.0 105.05 -245.1 101.4 -244.7 99.6 -244.65 Q82.9 -245.5 69.1 -254.75 L69.2 -261.15 80.6 -267.25 193.2 -208.15 192.95 -190.25 204.2 -184.75 203.95 -173.15 192.45 -166.75 M23.7 -267.0 L23.85 -261.0 17.95 -257.75 12.45 -260.9 23.7 -267.0 M17.45 -211.15 L6.9 -210.15 -5.4 -211.15 -16.9 -205.15 -22.4 -208.15 -22.4 -214.5 0.6 -220.5 Q54.7 -216.55 102.1 -191.0 L101.85 -179.0 113.2 -173.25 113.1 -167.65 95.85 -158.25 Q93.1 -159.55 90.35 -160.9 L90.45 -172.75 73.45 -181.25 68.1 -189.75 68.1 -196.25 62.45 -199.15 Q38.2 -197.5 17.45 -211.15 M-10.35 -109.15 Q2.1 -106.4 14.45 -108.55 L17.75 -109.35 49.7 -112.15 61.1 -106.4 72.35 -112.15 77.95 -109.25 55.1 -97.25 49.45 -100.4 38.2 -94.4 Q-16.1 -92.6 -66.75 -112.45 L-75.05 -115.65 -86.65 -112.5 -120.3 -130.0 -126.15 -126.75 Q-99.75 -96.75 -58.65 -89.6 -27.35 -84.05 3.85 -88.4 12.25 -83.75 20.6 -79.15 L9.2 -73.5 Q-47.95 -77.75 -101.35 -98.15 -114.1 -103.05 -126.4 -108.9 L-126.3 -114.75 -131.8 -123.65 -148.8 -132.65 -148.3 -161.75 -142.3 -164.9 -114.4 -151.0 -114.3 -138.9 Q-88.75 -123.75 -60.25 -116.0 -35.7 -109.4 -10.35 -109.15 M11.25 -138.35 L11.25 -144.4 -1.05 -144.4 -1.05 -138.35 11.25 -138.35 M32.95 -137.65 Q-4.8 -119.25 -41.4 -140.15 -44.2 -141.75 -46.4 -143.75 L-46.3 -149.75 -57.55 -155.5 -57.4 -161.4 -51.8 -164.4 -40.3 -158.9 -28.8 -165.0 -0.9 -150.5 16.2 -153.4 33.2 -143.9 32.95 -137.65 M-216.8 -139.5 L-222.4 -142.25 -216.8 -145.25 -216.8 -139.5 M-34.9 -150.0 L-35.05 -143.9 -12.4 -138.0 -12.3 -144.4 -29.3 -153.25 -34.9 -150.0 M-47.8 -51.15 L-59.15 -57.25 -53.55 -60.0 Q-47.65 -58.35 -41.45 -58.0 -35.7 -57.45 -30.55 -59.9 L-25.3 -57.15 -36.8 -51.15 -47.8 -51.15" fill="#4bd8b6" fill-rule="evenodd" stroke="none"/>
    <path d="M80.6 -267.25 L69.2 -261.15 69.1 -254.75 Q82.9 -245.5 99.6 -244.65 L101.4 -244.7 105.05 -245.1 108.6 -246.0 159.2 -219.5 159.1 -207.4 181.6 -196.0 181.2 -172.15 192.45 -166.75 158.2 -149.0 158.2 -154.9 169.7 -160.4 169.95 -178.0 158.7 -183.9 158.7 -195.75 147.7 -201.5 147.85 -213.25 Q109.85 -233.85 67.65 -243.6 L29.2 -251.65 17.85 -245.9 0.95 -254.65 12.45 -260.9 17.95 -257.75 23.85 -261.0 23.7 -267.0 35.2 -273.15 41.1 -270.15 52.6 -275.9 63.7 -270.0 69.35 -273.15 80.6 -267.25 M57.85 -255.5 L57.85 -261.0 52.2 -264.0 46.45 -260.9 46.35 -254.65 57.85 -255.5 M203.95 -173.15 L204.2 -184.75 192.95 -190.25 193.2 -208.15 215.7 -196.5 215.45 -179.15 203.95 -173.15 M-183.05 -122.0 L-216.8 -139.5 -216.8 -145.25 -193.9 -156.75 -193.9 -145.25 -182.8 -139.0 -183.05 -122.0" fill="#45d2b1" fill-rule="evenodd" stroke="none"/>
    <path d="M69.35 -273.15 L63.7 -270.0 52.6 -275.9 41.1 -270.15 35.2 -273.15 52.7 -281.5 Q61.05 -277.3 69.35 -273.15 M0.95 -254.65 L17.85 -245.9 29.2 -251.65 67.65 -243.6 Q109.85 -233.85 147.85 -213.25 L147.7 -201.5 158.7 -195.75 158.7 -183.9 169.95 -178.0 169.7 -160.4 158.2 -154.9 158.2 -149.0 135.2 -137.9 135.6 -161.65 124.35 -167.65 124.6 -179.4 Q119.0 -182.25 113.35 -185.15 L113.45 -196.9 Q78.0 -216.0 39.1 -226.65 L28.95 -229.25 Q25.1 -227.05 20.55 -227.0 L19.1 -227.0 17.65 -227.25 7.95 -228.85 6.35 -229.25 Q2.15 -227.1 -2.45 -227.2 L-3.6 -227.2 -4.8 -227.5 -15.1 -228.9 -16.55 -229.25 -39.4 -217.75 -50.55 -223.65 -62.05 -217.9 -67.8 -220.9 Q-33.4 -237.75 0.95 -254.65 M67.35 -154.9 L61.7 -152.15 5.45 -182.5 -5.8 -176.9 -17.4 -182.4 -29.05 -176.65 -34.3 -179.15 -34.3 -184.9 -0.05 -202.0 28.2 -193.25 Q40.05 -196.55 50.95 -190.95 60.5 -186.2 67.85 -178.4 L67.35 -154.9 M17.75 -109.35 L14.45 -108.55 Q2.1 -106.4 -10.35 -109.15 -58.3 -123.35 -103.15 -145.0 L-102.65 -174.15 -85.65 -182.5 -79.8 -179.25 -80.05 -167.4 -68.8 -161.4 -68.9 -149.65 Q-39.8 -130.25 -7.15 -117.75 L4.35 -123.25 15.6 -117.65 27.1 -123.25 32.7 -120.5 34.1 -116.4 17.75 -109.35 M215.7 -196.5 L232.6 -187.25 215.45 -179.15 215.7 -196.5 M-193.9 -156.75 L-182.3 -162.25 -171.05 -156.0 -171.15 -144.25 -159.9 -138.25 -160.15 -126.75 -148.9 -120.9 -148.9 -109.25 -98.65 -83.15 Q-93.45 -83.75 -88.05 -83.25 -81.95 -82.75 -76.05 -80.85 L-71.9 -79.5 -67.9 -78.0 -59.15 -74.25 -59.05 -68.9 -64.55 -65.9 -75.9 -71.65 -81.65 -69.0 -183.05 -122.0 -182.8 -139.0 -193.9 -145.25 -193.9 -156.75 M-36.3 -68.25 L-41.8 -65.65 -47.65 -68.65 -47.3 -73.9 -36.15 -73.75 -36.3 -68.25" fill="#40cdac" fill-rule="evenodd" stroke="none"/>
    <path d="M20.6 -79.15 Q12.25 -83.75 3.85 -88.4 -27.35 -84.05 -58.65 -89.6 -99.75 -96.75 -126.15 -126.75 L-120.3 -130.0 -86.65 -112.5 -75.05 -115.65 -66.75 -112.45 Q-16.1 -92.6 38.2 -94.4 L49.45 -100.4 55.1 -97.25 20.6 -79.15 M11.25 -138.35 L-1.05 -138.35 -1.05 -144.4 11.25 -144.4 11.25 -138.35 M-34.9 -150.0 L-29.3 -153.25 -12.3 -144.4 -12.4 -138.0 -35.05 -143.9 -34.9 -150.0 M-36.8 -51.15 L-42.4 -48.15 -47.8 -51.15 -36.8 -51.15" fill="#52debc" fill-rule="evenodd" stroke="none"/>
    <path d="M73.25 -271.25 L141.0 -235.15 210.5 -199.5 232.75 -187.25 208.85 -175.65 186.75 -163.4 159.5 -149.5 93.0 -116.9 30.75 -84.25 -13.9 -62.5 -42.25 -48.15 -132.4 -95.15 -173.25 -116.9 -222.25 -142.25 -200.4 -153.75 Q-178.3 -163.5 -151.5 -177.25 L-91.75 -208.75 Q-76.95 -216.6 -10.9 -248.5 L37.85 -274.4 52.85 -281.5 73.25 -271.25 Z" fill="none" stroke="#009999" stroke-linecap="round" stroke-linejoin="round" stroke-width="0.05"/>
  </g>
  <defs>
    <radialGradient cx="0" cy="0" gradientTransform="matrix(0.3125, 0.0, 0.0, 0.3125, 26.45, -82.25)" gradientUnits="userSpaceOnUse" id="gradient0" r="819.2" spreadMethod="pad">
      <stop offset="0.0" stop-color="#4edbb8"/>
      <stop offset="1.0" stop-color="#46d3b1"/>
    </radialGradient>
  </defs>
</svg>
