<?xml version="1.0" encoding="UTF-8" standalone="no"?>
<svg xmlns:xlink="http://www.w3.org/1999/xlink" height="233.5px" width="455.15px" xmlns="http://www.w3.org/2000/svg">
  <g transform="matrix(1.0, 0.0, 0.0, 1.0, 222.4, 282.15)">
    <path d="M76.0 -271.15 Q132.65 -239.4 144.25 -233.65 L209.6 -201.25 232.75 -187.9 209.6 -177.15 189.5 -164.4 165.1 -151.0 112.85 -127.75 91.0 -116.9 70.35 -106.0 27.1 -81.0 4.1 -70.15 -19.5 -61.0 -42.25 -48.65 -66.5 -62.5 -131.9 -95.15 -199.75 -132.25 -222.25 -142.75 -199.4 -155.4 Q-176.8 -162.95 -154.0 -174.75 L-108.9 -200.75 Q-86.0 -213.1 -62.15 -224.5 L-13.75 -245.9 8.1 -257.75 29.85 -271.5 52.6 -282.15 76.0 -271.15" fill="url(#gradient0)" fill-rule="evenodd" stroke="none"/>
    <path d="M193.1 -209.4 L176.1 -198.15 164.7 -203.5 161.85 -208.25 150.7 -213.65 145.2 -223.0 77.45 -246.15 74.7 -251.25 69.1 -247.5 40.95 -257.4 35.45 -253.9 9.45 -258.75 15.2 -262.4 23.85 -260.75 23.85 -267.65 32.45 -272.9 51.95 -261.0 69.2 -268.25 74.95 -264.9 80.6 -268.5 91.85 -262.4 80.45 -255.0 83.2 -249.75 91.85 -248.4 97.6 -252.15 114.1 -242.75 120.1 -243.15 150.85 -226.9 153.7 -222.15 159.35 -225.9 193.1 -209.4 M0.45 -207.25 L-5.4 -211.0 -11.15 -207.5 -22.4 -207.9 -22.4 -214.9 -16.85 -215.65 Q-14.15 -216.05 -11.6 -217.0 -6.0 -219.15 -0.55 -222.0 L6.1 -217.75 11.7 -221.4 Q17.7 -220.05 23.7 -219.25 31.55 -218.25 39.05 -220.95 39.7 -221.1 40.35 -221.4 L82.2 -205.25 85.2 -200.25 96.1 -195.0 101.95 -185.9 96.35 -182.0 Q59.05 -196.3 20.2 -205.5 L17.35 -210.9 11.6 -207.25 0.45 -207.25 M34.35 -214.25 L23.3 -214.4 25.6 -209.5 33.95 -207.65 34.35 -214.25 M45.6 -208.0 L56.85 -201.75 62.7 -202.15 73.85 -196.15 79.45 -196.65 76.6 -201.5 45.7 -215.15 45.6 -208.0 M54.95 -97.4 L43.6 -90.75 37.7 -91.0 Q29.2 -97.7 19.2 -92.95 L15.45 -91.4 Q9.15 -96.15 1.35 -97.0 L-7.3 -91.5 -24.3 -98.5 -30.05 -94.75 -69.55 -110.65 -75.4 -106.75 -109.1 -124.4 -114.9 -120.65 -112.15 -116.0 -58.65 -90.4 -52.9 -94.15 Q-36.7 -84.5 -19.05 -91.5 -7.55 -85.65 3.85 -91.65 L20.95 -84.4 26.45 -87.9 32.2 -84.15 20.6 -77.9 4.35 -84.25 Q-5.1 -79.75 -15.0 -79.7 -75.4 -79.35 -120.55 -117.0 L-126.15 -119.9 -125.9 -138.9 -120.3 -142.75 -108.9 -137.4 -106.15 -132.65 Q-85.2 -121.35 -63.2 -112.75 -7.15 -91.05 49.35 -101.0 L54.95 -97.4 M21.7 -137.4 L18.85 -132.4 Q-10.5 -129.6 -37.65 -141.25 L-40.55 -146.15 -46.15 -148.9 -46.15 -155.15 -40.65 -158.75 -37.35 -158.6 Q-4.65 -156.75 21.7 -137.4 M11.45 -138.05 L7.6 -143.15 -0.9 -144.9 -1.05 -137.75 11.45 -138.05 M-34.9 -149.9 L-32.15 -145.15 -12.4 -137.5 -12.4 -144.75 -23.65 -150.9 -34.9 -149.9 M-47.8 -51.9 L-39.55 -50.4 -42.4 -48.65 -47.8 -51.9" fill="#63efcb" fill-rule="evenodd" stroke="none"/>
    <path d="M9.45 -258.75 L35.45 -253.9 40.95 -257.4 69.1 -247.5 74.7 -251.25 77.45 -246.15 145.2 -223.0 150.7 -213.65 161.85 -208.25 164.7 -203.5 176.1 -198.15 193.1 -209.4 204.45 -203.65 205.05 -197.25 215.6 -191.9 215.45 -180.4 180.95 -159.5 169.85 -165.0 170.1 -188.75 158.95 -194.4 158.95 -200.4 142.95 -212.8 Q114.65 -233.8 80.2 -241.4 L74.2 -238.9 Q65.8 -241.9 56.95 -243.05 34.15 -245.2 12.7 -253.65 L6.35 -250.9 0.85 -253.65 9.45 -258.75 M80.6 -268.5 L74.95 -264.9 69.2 -268.25 51.95 -261.0 32.45 -272.9 38.2 -275.9 52.45 -268.0 55.2 -269.95 Q61.1 -273.95 68.35 -274.75 L80.6 -268.5 M39.95 -227.25 L68.45 -215.9 74.2 -218.5 102.2 -203.9 102.2 -198.15 107.7 -189.15 113.35 -186.4 112.85 -156.75 107.2 -153.65 95.45 -157.9 84.6 -151.25 78.7 -153.75 78.95 -177.45 Q40.1 -201.15 -5.0 -196.4 -28.4 -193.7 -51.3 -186.4 L-68.15 -197.15 -67.9 -203.8 -28.4 -224.5 -16.65 -221.5 5.85 -230.15 27.4 -223.85 Q33.5 -222.1 38.55 -226.1 L39.95 -227.25 M0.45 -207.25 L11.6 -207.25 17.35 -210.9 20.2 -205.5 Q59.05 -196.3 96.35 -182.0 L101.95 -185.9 96.1 -195.0 85.2 -200.25 82.2 -205.25 40.35 -221.4 Q39.7 -221.1 39.05 -220.95 31.55 -218.25 23.7 -219.25 17.7 -220.05 11.7 -221.4 L6.1 -217.75 -0.55 -222.0 Q-6.0 -219.15 -11.6 -217.0 -14.15 -216.05 -16.85 -215.65 L-22.4 -214.9 -22.4 -207.9 -11.15 -207.5 -5.4 -211.0 0.45 -207.25 M20.6 -77.9 L9.2 -72.5 Q-9.8 -77.85 -29.65 -77.6 -35.9 -77.5 -41.9 -75.9 L-81.4 -89.9 -87.15 -87.5 -137.65 -113.75 -137.4 -125.5 -148.8 -131.25 -148.65 -143.25 -159.8 -149.0 -159.55 -166.4 -153.65 -169.15 -142.4 -164.4 -131.4 -171.5 -114.3 -164.0 -114.4 -152.0 -103.15 -146.25 -103.3 -140.5 Q-58.9 -107.3 -2.35 -105.6 11.6 -104.55 25.35 -106.15 38.05 -107.9 49.6 -113.15 L61.25 -107.4 83.85 -119.15 89.45 -116.15 54.95 -97.4 49.35 -101.0 Q-7.15 -91.05 -63.2 -112.75 -85.2 -121.35 -106.15 -132.65 L-108.9 -137.4 -120.3 -142.75 -125.9 -138.9 -126.15 -119.9 -120.55 -117.0 Q-75.4 -79.35 -15.0 -79.7 -5.1 -79.75 4.35 -84.25 L20.6 -77.9 M16.85 -177.75 L22.35 -175.0 22.1 -169.15 16.6 -166.25 10.85 -168.25 10.95 -175.15 16.85 -177.75 M27.85 -160.4 L33.35 -157.25 33.1 -143.65 Q38.75 -140.0 44.35 -136.4 L44.35 -130.65 38.6 -127.9 27.35 -134.0 24.35 -129.0 4.45 -122.4 -23.65 -130.65 -29.55 -128.15 -57.65 -142.65 -57.4 -160.4 -40.3 -170.5 Q-38.15 -170.0 -36.4 -168.85 -4.45 -148.5 27.85 -160.4 M21.7 -137.4 Q-4.65 -156.75 -37.35 -158.6 L-40.65 -158.75 -46.15 -155.15 -46.15 -148.9 -40.55 -146.15 -37.65 -141.25 Q-10.5 -129.6 18.85 -132.4 L21.7 -137.4 M-222.4 -142.75 L-205.4 -152.4 -205.55 -135.0 -222.4 -142.75 M-47.8 -51.9 L-59.15 -58.4 -53.3 -61.0 -33.8 -53.75 -39.55 -50.4 -47.8 -51.9" fill="#51debb" fill-rule="evenodd" stroke="none"/>
    <path d="M215.45 -180.4 L215.6 -191.9 205.05 -197.25 204.45 -203.65 232.6 -187.9 215.45 -180.4 M38.2 -275.9 L52.35 -282.15 68.35 -274.75 Q61.1 -273.95 55.2 -269.95 L52.45 -268.0 38.2 -275.9" fill="#3fccab" fill-rule="evenodd" stroke="none"/>
    <path d="M159.35 -225.9 L153.7 -222.15 150.85 -226.9 120.1 -243.15 114.1 -242.75 97.6 -252.15 91.85 -248.4 83.2 -249.75 80.45 -255.0 91.85 -262.4 159.35 -225.9 M23.85 -267.65 L23.85 -260.75 15.2 -262.4 23.85 -267.65 M34.35 -214.25 L33.95 -207.65 25.6 -209.5 23.3 -214.4 34.35 -214.25 M45.6 -208.0 L45.7 -215.15 76.6 -201.5 79.45 -196.65 73.85 -196.15 62.7 -202.15 56.85 -201.75 45.6 -208.0 M43.6 -90.75 L32.2 -84.15 26.45 -87.9 20.95 -84.4 3.85 -91.65 Q-7.55 -85.65 -19.05 -91.5 -36.7 -84.5 -52.9 -94.15 L-58.65 -90.4 -112.15 -116.0 -114.9 -120.65 -109.1 -124.4 -75.4 -106.75 -69.55 -110.65 -30.05 -94.75 -24.3 -98.5 -7.3 -91.5 1.35 -97.0 Q9.15 -96.15 15.45 -91.4 L19.2 -92.95 Q29.2 -97.7 37.7 -91.0 L43.6 -90.75 M11.45 -138.05 L-1.05 -137.75 -0.9 -144.9 7.6 -143.15 11.45 -138.05 M-34.9 -149.9 L-23.65 -150.9 -12.4 -144.75 -12.4 -137.5 -32.15 -145.15 -34.9 -149.9" fill="#76feda" fill-rule="evenodd" stroke="none"/>
    <path d="M76.0 -271.15 Q132.65 -239.4 144.25 -233.65 L209.6 -201.25 232.75 -187.9 209.6 -177.15 189.5 -164.4 165.1 -151.0 112.85 -127.75 91.0 -116.9 70.35 -106.0 27.1 -81.0 4.1 -70.15 -19.5 -61.0 -42.25 -48.65 -66.5 -62.5 -131.9 -95.15 -199.75 -132.25 -222.25 -142.75 -199.4 -155.4 Q-176.8 -162.95 -154.0 -174.75 L-108.9 -200.75 Q-86.0 -213.1 -62.15 -224.5 L-13.75 -245.9 8.1 -257.75 29.85 -271.5 52.6 -282.15 76.0 -271.15 Z" fill="none" stroke="#009999" stroke-linecap="round" stroke-linejoin="round" stroke-width="0.05"/>
  </g>
  <defs>
    <radialGradient cx="0" cy="0" gradientTransform="matrix(0.4156, 0.0, 0.0, 0.4156, 97.5, -259.4)" gradientUnits="userSpaceOnUse" id="gradient0" r="819.2" spreadMethod="pad">
      <stop offset="0.0" stop-color="#66f5cf"/>
      <stop offset="1.0" stop-color="#46d3b2"/>
    </radialGradient>
  </defs>
</svg>
