<?xml version="1.0" encoding="UTF-8" standalone="no"?>
<svg xmlns:xlink="http://www.w3.org/1999/xlink" height="233.75px" width="455.15px" xmlns="http://www.w3.org/2000/svg">
  <g transform="matrix(1.0, 0.0, 0.0, 1.0, 222.4, 282.9)">
    <path d="M209.35 -202.65 L232.75 -188.4 209.75 -178.25 187.35 -162.4 164.25 -149.5 118.1 -131.15 89.1 -116.9 69.1 -106.0 26.6 -79.5 4.0 -69.4 -18.5 -62.5 -42.25 -49.15 -64.15 -62.5 -86.15 -73.4 -109.65 -84.25 -131.4 -95.15 -151.4 -106.0 -200.5 -133.9 -222.4 -143.25 -199.25 -156.5 Q-174.8 -162.5 -154.15 -173.5 L-133.25 -186.75 -105.4 -203.5 Q-66.35 -225.8 -14.4 -244.4 L7.75 -256.9 30.25 -272.75 52.1 -282.5 Q50.5 -284.0 58.85 -280.0 L74.85 -273.0 Q130.0 -240.95 143.6 -234.15 L166.85 -222.65 Q185.4 -214.65 209.35 -202.65" fill="url(#gradient0)" fill-rule="evenodd" stroke="none"/>
    <path d="M193.2 -210.4 L204.45 -204.9 204.1 -186.5 215.35 -181.4 181.1 -158.75 181.2 -170.4 170.1 -175.5 170.2 -187.5 159.1 -193.15 156.35 -203.5 Q144.25 -209.85 131.85 -215.35 74.35 -241.0 12.2 -252.65 L6.6 -249.9 0.85 -252.65 9.45 -258.25 Q48.5 -250.3 86.6 -238.9 134.25 -224.65 176.1 -197.65 L193.2 -210.4 M35.35 -275.5 L39.1 -277.65 42.15 -276.9 Q54.4 -274.3 66.6 -276.75 L72.1 -274.15 63.95 -269.0 35.35 -275.5 M28.85 -223.5 L40.2 -228.25 102.1 -205.15 102.1 -192.75 113.35 -187.4 112.95 -169.25 107.35 -165.75 95.85 -169.4 84.6 -161.5 78.95 -164.15 79.2 -176.25 73.35 -175.9 28.45 -198.75 16.95 -194.5 Q13.3 -196.05 9.6 -197.0 2.15 -198.9 -5.55 -197.4 -22.9 -201.3 -39.65 -191.25 L-56.65 -203.0 -56.65 -210.4 -28.65 -225.4 -16.55 -222.5 Q-12.1 -224.85 -7.15 -226.3 11.3 -232.15 28.85 -223.5 M13.95 -224.85 L10.45 -224.35 7.0 -223.65 Q-1.8 -221.8 -9.85 -218.25 L-13.35 -216.65 -16.8 -214.9 -22.4 -215.25 -22.55 -207.4 -11.05 -206.9 -5.4 -210.65 -2.8 -204.65 16.7 -200.0 28.35 -203.5 73.7 -182.15 79.6 -182.75 90.7 -191.5 90.7 -198.25 85.1 -201.0 82.2 -206.15 39.95 -222.4 28.45 -218.5 17.45 -225.25 13.95 -224.85 M16.1 -152.25 L5.2 -148.9 Q-6.65 -153.95 -19.35 -156.15 L-29.3 -157.5 -37.8 -151.0 -37.9 -140.5 Q-22.0 -130.25 -3.5 -127.55 1.2 -126.85 4.6 -130.15 L18.85 -131.4 19.1 -150.65 16.1 -152.25 M4.85 -153.65 L16.2 -158.5 33.1 -143.65 32.95 -136.15 27.2 -133.25 Q24.2 -127.85 18.3 -125.85 14.65 -124.75 11.0 -124.55 -26.35 -121.5 -57.55 -141.4 L-57.4 -159.25 -51.8 -162.75 -40.4 -158.75 -28.9 -166.9 4.85 -153.65 M20.6 -76.65 L9.2 -71.5 Q-12.6 -73.45 -33.8 -78.7 -37.95 -79.8 -41.8 -82.15 L-53.15 -77.75 Q-96.6 -92.35 -137.65 -112.65 L-137.4 -124.4 -148.8 -130.25 -148.4 -148.15 -142.65 -152.0 -131.4 -147.9 -120.05 -156.0 -103.15 -147.4 Q-92.05 -124.55 -64.25 -115.9 -39.7 -108.35 -14.15 -105.3 18.85 -101.5 49.35 -114.0 L60.85 -108.15 72.35 -114.15 77.95 -111.0 55.1 -97.65 43.85 -105.9 Q-9.4 -92.7 -61.55 -111.4 -87.65 -120.85 -109.15 -138.25 L-126.15 -125.5 -126.15 -119.0 -109.4 -110.65 -106.4 -105.4 Q-80.55 -91.95 -52.9 -83.25 L-41.55 -87.0 -30.4 -80.5 -21.9 -81.5 -19.05 -83.65 Q-13.85 -81.85 -8.15 -82.05 L3.95 -83.35 20.6 -76.65 M-45.05 -50.9 L-50.65 -54.5 -42.05 -59.15 -33.8 -54.9 -39.55 -51.0 -42.15 -52.5 -45.05 -50.9" fill="#5ce6c4" fill-rule="evenodd" stroke="none"/>
    <path d="M193.2 -210.4 L176.1 -197.65 Q134.25 -224.65 86.6 -238.9 48.5 -250.3 9.45 -258.25 L15.2 -262.4 Q19.25 -259.4 24.3 -258.2 32.45 -256.5 39.8 -260.5 L40.85 -261.0 Q44.2 -257.7 48.6 -255.75 51.85 -254.25 55.35 -253.75 L57.7 -253.5 57.85 -261.5 51.85 -261.25 31.6 -273.5 35.35 -275.5 63.95 -269.0 72.1 -274.15 80.6 -269.75 69.2 -262.25 69.2 -254.25 74.95 -254.65 Q83.95 -247.55 94.7 -243.9 96.75 -243.1 98.95 -242.55 L103.2 -241.4 108.7 -245.75 153.7 -221.65 159.45 -226.15 193.2 -210.4 M13.95 -224.85 L17.45 -225.25 28.45 -218.5 39.95 -222.4 82.2 -206.15 85.1 -201.0 90.7 -198.25 90.7 -191.5 79.6 -182.75 73.7 -182.15 28.35 -203.5 16.7 -200.0 -2.8 -204.65 -5.4 -210.65 -11.05 -206.9 -22.55 -207.4 -22.4 -215.25 -16.8 -214.9 -13.35 -216.65 -9.85 -218.25 Q-1.8 -221.8 7.0 -223.65 L10.45 -224.35 13.95 -224.85 M5.7 -214.25 L0.2 -214.4 3.1 -208.4 11.45 -206.5 17.45 -210.65 22.85 -206.75 28.7 -208.4 Q31.95 -204.75 36.45 -202.95 L38.2 -202.35 41.55 -201.7 43.05 -201.6 45.9 -202.15 Q47.35 -202.45 48.65 -203.1 L51.35 -204.65 73.85 -192.4 79.45 -196.9 77.35 -200.55 45.6 -215.9 39.95 -211.5 34.2 -215.15 28.45 -213.4 17.2 -220.9 5.7 -214.25 M16.1 -152.25 L19.1 -150.65 18.85 -131.4 4.6 -130.15 Q1.2 -126.85 -3.5 -127.55 -22.0 -130.25 -37.9 -140.5 L-37.8 -151.0 -29.3 -157.5 -19.35 -156.15 Q-6.65 -153.95 5.2 -148.9 L16.1 -152.25 M10.35 -145.4 L4.6 -144.0 -12.3 -152.5 -18.05 -148.15 -23.65 -151.4 -32.15 -148.0 -32.15 -144.9 -7.05 -131.25 -3.8 -131.5 4.85 -137.75 10.35 -137.4 10.35 -145.4 M55.1 -97.65 L20.6 -76.65 3.95 -83.35 -8.15 -82.05 Q-13.85 -81.85 -19.05 -83.65 L-21.9 -81.5 -30.4 -80.5 -41.55 -87.0 -52.9 -83.25 Q-80.55 -91.95 -106.4 -105.4 L-109.4 -110.65 -126.15 -119.0 -126.15 -125.5 -109.15 -138.25 Q-87.65 -120.85 -61.55 -111.4 -9.4 -92.7 43.85 -105.9 L55.1 -97.65 M32.2 -98.9 L15.2 -91.25 6.85 -97.65 -7.55 -91.4 -24.55 -99.15 -29.8 -95.0 -69.8 -111.5 -75.4 -107.0 -97.9 -119.25 -103.55 -114.65 Q-98.75 -110.0 -93.4 -106.15 L-85.2 -100.7 -79.6 -97.55 Q-70.95 -93.0 -61.55 -90.25 L-58.4 -89.4 -52.65 -93.75 -47.4 -90.15 -41.55 -91.9 -40.05 -91.05 -38.65 -90.35 -35.8 -89.45 -32.95 -88.55 -31.55 -88.35 -30.15 -88.35 -27.25 -88.4 Q-25.85 -88.7 -24.5 -89.15 L-21.65 -90.1 Q-20.2 -90.7 -18.8 -91.4 L-16.9 -90.4 -15.0 -89.55 -13.0 -88.75 -11.0 -88.1 -8.85 -87.5 -6.85 -87.25 -4.85 -87.25 -3.9 -87.3 -3.0 -87.6 Q-0.45 -88.2 1.45 -89.65 L3.95 -91.75 6.5 -89.65 9.2 -87.9 12.35 -86.3 13.85 -85.6 15.35 -85.2 16.85 -84.9 Q22.15 -84.1 26.9 -86.7 29.9 -88.45 32.2 -90.9 L32.2 -98.9 M-45.05 -50.9 L-42.15 -52.5 -39.55 -51.0 -42.4 -49.15 -45.05 -50.9" fill="#7df8df" fill-rule="evenodd" stroke="none"/>
    <path d="M39.1 -277.65 L52.35 -282.65 66.6 -276.75 Q54.4 -274.3 42.15 -276.9 L39.1 -277.65" fill="#3ecaaa" fill-rule="evenodd" stroke="none"/>
    <path d="M15.2 -262.4 L31.6 -273.5 51.85 -261.25 57.85 -261.5 57.7 -253.5 55.35 -253.75 Q51.85 -254.25 48.6 -255.75 44.2 -257.7 40.85 -261.0 L39.8 -260.5 Q32.45 -256.5 24.3 -258.2 19.25 -259.4 15.2 -262.4 M80.6 -269.75 L159.45 -226.15 153.7 -221.65 108.7 -245.75 103.2 -241.4 98.95 -242.55 Q96.75 -243.1 94.7 -243.9 83.95 -247.55 74.95 -254.65 L69.2 -254.25 69.2 -262.25 80.6 -269.75 M5.7 -214.25 L17.2 -220.9 28.45 -213.4 34.2 -215.15 39.95 -211.5 45.6 -215.9 77.35 -200.55 79.45 -196.9 73.85 -192.4 51.35 -204.65 48.65 -203.1 Q47.35 -202.45 45.9 -202.15 L43.05 -201.6 41.55 -201.7 38.2 -202.35 36.45 -202.95 Q31.95 -204.75 28.7 -208.4 L22.85 -206.75 17.45 -210.65 11.45 -206.5 3.1 -208.4 0.2 -214.4 5.7 -214.25 M10.35 -145.4 L10.35 -137.4 4.85 -137.75 -3.8 -131.5 -7.05 -131.25 -32.15 -144.9 -32.15 -148.0 -23.65 -151.4 -18.05 -148.15 -12.3 -152.5 4.6 -144.0 10.35 -145.4 M32.2 -98.9 L32.2 -90.9 Q29.9 -88.45 26.9 -86.7 22.15 -84.1 16.85 -84.9 L15.35 -85.2 13.85 -85.6 12.35 -86.3 9.2 -87.9 6.5 -89.65 3.95 -91.75 1.45 -89.65 Q-0.45 -88.2 -3.0 -87.6 L-3.9 -87.3 -4.85 -87.25 -6.85 -87.25 -8.85 -87.5 -11.0 -88.1 -13.0 -88.75 -15.0 -89.55 -16.9 -90.4 -18.8 -91.4 Q-20.2 -90.7 -21.65 -90.1 L-24.5 -89.15 Q-25.85 -88.7 -27.25 -88.4 L-30.15 -88.35 -31.55 -88.35 -32.95 -88.55 -35.8 -89.45 -38.65 -90.35 -40.05 -91.05 -41.55 -91.9 -47.4 -90.15 -52.65 -93.75 -58.4 -89.4 -61.55 -90.25 Q-70.95 -93.0 -79.6 -97.55 L-85.2 -100.7 -93.4 -106.15 Q-98.75 -110.0 -103.55 -114.65 L-97.9 -119.25 -75.4 -107.0 -69.8 -111.5 -29.8 -95.0 -24.55 -99.15 -7.55 -91.4 6.85 -97.65 15.2 -91.25 32.2 -98.9" fill="#a7fffc" fill-rule="evenodd" stroke="none"/>
    <path d="M209.35 -202.65 L232.75 -188.4 209.75 -178.25 187.35 -162.4 164.25 -149.5 118.1 -131.15 89.1 -116.9 69.1 -106.0 26.6 -79.5 4.0 -69.4 -18.5 -62.5 -42.25 -49.15 -64.15 -62.5 -86.15 -73.4 -109.65 -84.25 -131.4 -95.15 -151.4 -106.0 -200.5 -133.9 -222.4 -143.25 -199.25 -156.5 Q-174.8 -162.5 -154.15 -173.5 L-133.25 -186.75 -105.4 -203.5 Q-66.35 -225.8 -14.4 -244.4 L7.75 -256.9 30.25 -272.75 52.1 -282.5 Q50.5 -284.0 58.85 -280.0 L74.85 -273.0 Q130.0 -240.95 143.6 -234.15 L166.85 -222.65 Q185.4 -214.65 209.35 -202.65 Z" fill="none" stroke="#009999" stroke-linecap="round" stroke-linejoin="round" stroke-width="0.05"/>
  </g>
  <defs>
    <radialGradient cx="0" cy="0" gradientTransform="matrix(0.4157, 0.0, 0.0, 0.4157, 97.5, -260.35)" gradientUnits="userSpaceOnUse" id="gradient0" r="819.2" spreadMethod="pad">
      <stop offset="0.0" stop-color="#97fffa"/>
      <stop offset="1.0" stop-color="#44d3b1"/>
    </radialGradient>
  </defs>
</svg>
