<?xml version="1.0" encoding="UTF-8" standalone="no"?>
<svg xmlns:xlink="http://www.w3.org/1999/xlink" height="99.3px" width="96.35px" xmlns="http://www.w3.org/2000/svg">
  <g transform="matrix(1.0, 0.0, 0.0, 1.0, 48.15, 49.65)">
    <path d="M-9.95 -3.0 L-9.9 -3.2 -9.8 -3.55 Q-9.2 -5.7 -7.55 -7.4 L-7.4 -7.55 Q-5.8 -9.1 -3.75 -9.75 L-3.4 -9.85 -3.2 -9.9 Q-3.35 -8.6 -3.6 -8.5 L-3.95 -8.35 Q-5.35 -7.8 -6.55 -6.65 L-6.65 -6.55 Q-7.85 -5.3 -8.4 -3.8 L-8.5 -3.5 Q-8.6 -3.3 -9.95 -3.0 M1.15 -10.0 L1.4 -9.95 1.75 -9.85 Q4.0 -9.2 5.75 -7.45 7.35 -5.85 8.05 -3.85 L8.15 -3.5 8.25 -3.25 Q6.85 -3.45 6.75 -3.7 L6.65 -4.0 Q6.0 -5.45 4.85 -6.6 3.6 -7.85 2.0 -8.45 L1.7 -8.55 Q1.45 -8.65 1.15 -10.0 M8.3 1.3 L8.2 1.6 8.1 2.0 Q7.45 4.05 5.8 5.7 L5.7 5.8 Q4.1 7.35 2.2 8.05 L1.8 8.15 1.55 8.2 Q1.75 6.85 2.0 6.8 L2.35 6.65 Q3.7 6.05 4.8 4.9 L4.9 4.8 Q6.1 3.6 6.7 2.2 L6.8 1.85 Q6.9 1.6 8.3 1.3 M-2.95 8.3 L-3.25 8.2 -3.6 8.1 Q-5.75 7.45 -7.45 5.75 -9.05 4.15 -9.7 2.15 L-9.8 1.85 -9.9 1.6 -8.45 2.05 -8.35 2.3 Q-7.75 3.7 -6.6 4.85 -5.35 6.1 -3.8 6.7 L-3.5 6.85 Q-3.3 6.9 -2.95 8.3" fill="#ffffff" fill-opacity="0.24705882" fill-rule="evenodd" stroke="none"/>
    <path d="M-8.5 -3.5 L-8.4 -3.8 Q-7.85 -5.3 -6.65 -6.55 L-6.55 -6.65 Q-5.35 -7.8 -3.95 -8.35 L-3.6 -8.5 Q-3.9 -7.05 -4.15 -6.85 L-5.65 -5.75 -5.75 -5.65 -6.9 -4.1 Q-7.05 -3.85 -8.5 -3.5 M1.7 -8.55 L2.0 -8.45 Q3.6 -7.85 4.85 -6.6 6.0 -5.45 6.65 -4.0 L6.75 -3.7 Q5.3 -3.95 5.15 -4.25 L4.0 -5.7 2.35 -6.95 Q2.05 -7.1 1.7 -8.55 M-4.1 5.2 Q-3.85 5.35 -3.5 6.85 L-3.8 6.7 Q-5.35 6.1 -6.6 4.85 -7.75 3.7 -8.35 2.3 L-8.45 2.05 Q-7.0 2.25 -6.85 2.5 L-5.7 4.0 -4.1 5.2 M6.8 1.85 L6.7 2.2 Q6.1 3.6 4.9 4.8 L4.8 4.9 Q3.7 6.05 2.35 6.65 L2.0 6.8 Q2.25 5.25 2.55 5.1 L3.95 4.0 4.0 3.95 5.15 2.45 Q5.3 2.2 6.8 1.85" fill="#ffffff" fill-opacity="0.49803922" fill-rule="evenodd" stroke="none"/>
    <path d="M-9.95 -3.0 Q-8.6 -3.3 -8.5 -3.5 -7.05 -3.85 -6.9 -4.1 -5.15 -4.5 -4.85 -4.8 L-4.8 -4.85 Q-4.5 -5.15 -4.15 -6.85 -3.9 -7.05 -3.6 -8.5 -3.35 -8.6 -3.2 -9.9 -2.1 -10.2 -1.85 -49.65 0.2 -10.2 1.15 -10.0 1.45 -8.65 1.7 -8.55 2.05 -7.1 2.35 -6.95 2.75 -5.15 3.1 -4.8 3.35 -4.55 5.15 -4.25 5.3 -3.95 6.75 -3.7 6.85 -3.45 8.25 -3.25 8.5 -2.1 48.2 -2.3 8.5 0.25 8.3 1.3 6.9 1.6 6.8 1.85 5.3 2.2 5.15 2.45 3.4 2.8 3.1 3.1 2.8 3.4 2.55 5.1 2.25 5.25 2.0 6.8 1.75 6.85 1.55 8.2 0.4 8.5 -0.1 49.65 -1.95 8.5 -2.95 8.3 -3.3 6.9 -3.5 6.85 -3.85 5.35 -4.1 5.2 -4.5 3.4 -4.8 3.1 -5.15 2.75 -6.85 2.5 -7.0 2.25 -8.45 2.05 L-9.9 1.6 Q-58.0 2.1 -45.65 0.5 L-9.95 -3.0" fill="#ffffff" fill-rule="evenodd" stroke="none"/>
    <path d="M-6.9 -4.1 L-5.75 -5.65 -5.65 -5.75 -4.15 -6.85 Q-4.5 -5.15 -4.8 -4.85 L-4.85 -4.8 Q-5.15 -4.5 -6.9 -4.1 M2.35 -6.95 L4.0 -5.7 5.15 -4.25 Q3.35 -4.55 3.1 -4.8 2.75 -5.15 2.35 -6.95 M-4.1 5.2 L-5.7 4.0 -6.85 2.5 Q-5.15 2.75 -4.8 3.1 -4.5 3.4 -4.1 5.2 M5.15 2.45 L4.0 3.95 3.95 4.0 2.55 5.1 Q2.8 3.4 3.1 3.1 3.4 2.8 5.15 2.45" fill="#ffffff" fill-opacity="0.7490196" fill-rule="evenodd" stroke="none"/>
  </g>
</svg>
