<?xml version="1.0" encoding="UTF-8" standalone="no"?>
<svg xmlns:xlink="http://www.w3.org/1999/xlink" height="121.7px" width="134.6px" xmlns="http://www.w3.org/2000/svg">
  <g transform="matrix(1.0, 0.0, 0.0, 1.0, 224.1, -80.3)">
    <path d="M-141.55 143.6 L-144.4 139.65 Q-149.65 132.85 -155.75 126.9 -161.85 120.95 -168.65 115.85 -171.1 114.0 -173.2 111.0 -177.0 105.5 -182.6 101.4 -189.4 96.35 -197.3 92.7 -204.75 89.3 -213.0 87.45 L-220.75 86.05 Q-221.9 85.15 -223.6 84.6 L-224.1 83.45 -222.8 82.45 -221.3 81.2 -218.75 81.3 Q-216.95 81.2 -215.75 80.3 L-210.05 81.75 -201.75 82.45 Q-196.7 82.75 -193.55 84.2 -185.65 87.8 -178.2 91.5 -170.25 95.45 -164.8 101.95 -162.1 105.2 -158.25 106.55 -149.95 109.45 -144.65 116.35 -141.95 119.85 -138.8 122.95 L-126.0 134.9 Q-123.7 137.0 -122.25 139.7 -117.85 147.7 -110.6 152.85 -103.5 157.9 -101.0 165.95 -100.0 169.2 -97.7 171.85 -91.8 178.6 -89.75 186.5 -89.0 189.45 -90.55 191.5 -94.55 196.85 -101.65 200.4 -111.15 205.15 -114.9 195.75 L-117.6 189.4 Q-121.2 181.45 -125.2 174.2 -129.5 166.4 -133.1 158.35 -136.45 150.85 -141.55 143.6" fill="url(#gradient0)" fill-rule="evenodd" stroke="none"/>
  </g>
  <defs>
    <radialGradient cx="0" cy="0" gradientTransform="matrix(0.1212, 0.0, 0.0, 0.1212, -172.5, 93.95)" gradientUnits="userSpaceOnUse" id="gradient0" r="819.2" spreadMethod="pad">
      <stop offset="0.2196078431372549" stop-color="#00cc99" stop-opacity="0.5019608"/>
      <stop offset="0.6509803921568628" stop-color="#218383" stop-opacity="0.5019608"/>
    </radialGradient>
  </defs>
</svg>
