<?xml version="1.0" encoding="UTF-8" standalone="no"?>
<svg xmlns:xlink="http://www.w3.org/1999/xlink" height="185.9px" width="181.8px" xmlns="http://www.w3.org/2000/svg">
  <g transform="matrix(1.0, 0.0, 0.0, 1.0, -13.35, 12.2)">
    <path d="M30.8 -12.2 Q35.0 -10.5 39.35 -8.95 40.3 -8.65 40.6 -7.75 41.2 -6.05 42.1 -4.65 L42.35 -0.55 Q43.2 10.45 47.3 20.6 49.05 24.85 48.9 29.45 48.75 35.95 47.55 42.5 45.6 53.35 47.4 64.35 49.2 75.35 53.95 85.6 55.7 89.35 53.85 92.95 L53.45 93.85 Q54.15 103.95 56.0 116.45 57.85 128.95 56.65 137.65 55.4 146.3 55.9 157.2 56.15 163.1 52.15 167.75 44.4 176.7 33.1 172.2 21.25 167.45 22.45 154.65 23.55 143.05 21.55 132.0 20.4 125.8 20.5 119.85 20.75 109.15 20.4 94.8 18.7 87.45 17.95 79.6 16.9 68.2 14.5 57.15 11.85 45.05 15.2 34.1 17.45 26.65 18.1 16.65 18.65 8.5 20.5 0.55 26.5 -0.05 26.35 -7.65 L27.6 -9.35 Q28.4 -10.25 28.8 -11.35 L30.8 -12.2" fill="url(#gradient0)" fill-rule="evenodd" stroke="none"/>
    <path d="M175.25 40.55 L184.25 39.85 185.1 39.7 191.05 39.5 192.7 41.0 Q194.1 42.5 195.15 44.25 L187.5 45.55 Q178.5 47.4 170.4 50.8 161.75 54.45 154.35 59.5 148.25 63.6 144.1 69.1 141.8 72.1 139.15 73.95 131.75 79.05 125.1 85.0 118.45 90.95 112.75 97.75 L109.6 101.7 Q104.05 108.95 100.4 116.45 96.5 124.5 91.8 132.3 87.45 139.55 83.5 147.5 L80.6 153.85 Q76.5 163.25 66.15 158.5 58.4 154.95 54.05 149.6 52.35 147.55 53.15 144.6 55.4 136.7 61.85 129.95 64.35 127.3 65.45 124.05 68.15 116.0 75.9 110.95 83.8 105.8 88.6 97.8 90.15 95.1 92.7 93.0 L106.65 81.05 Q110.05 77.95 113.0 74.45 118.75 67.55 127.8 64.65 132.0 63.3 134.95 60.05 140.9 53.55 149.55 49.6 157.65 45.9 166.3 42.3 169.7 40.85 175.25 40.55" fill="url(#gradient1)" fill-rule="evenodd" stroke="none"/>
  </g>
  <defs>
    <radialGradient cx="0" cy="0" gradientTransform="matrix(0.2216, 0.0, 0.0, 0.2216, 30.05, -7.2)" gradientUnits="userSpaceOnUse" id="gradient0" r="819.2" spreadMethod="pad">
      <stop offset="0.2196078431372549" stop-color="#00cc99" stop-opacity="0.5019608"/>
      <stop offset="0.6509803921568628" stop-color="#218383" stop-opacity="0.5019608"/>
    </radialGradient>
    <radialGradient cx="0" cy="0" gradientTransform="matrix(-0.1321, 0.0, 0.0, 0.1212, 143.35, 52.05)" gradientUnits="userSpaceOnUse" id="gradient1" r="819.2" spreadMethod="pad">
      <stop offset="0.2196078431372549" stop-color="#00cc99" stop-opacity="0.5019608"/>
      <stop offset="0.6509803921568628" stop-color="#218383" stop-opacity="0.5019608"/>
    </radialGradient>
  </defs>
</svg>
