<?xml version="1.0" encoding="UTF-8" standalone="no"?>
<svg xmlns:xlink="http://www.w3.org/1999/xlink" height="314.6px" width="472.8px" xmlns="http://www.w3.org/2000/svg">
  <g transform="matrix(1.0, 0.0, 0.0, 1.0, 246.05, 61.65)">
    <path d="M-54.9 143.35 Q-47.35 143.35 -42.0 146.9 -31.65 153.75 -31.55 162.9 -31.4 175.15 -30.0 186.05 -28.55 197.65 -32.0 208.0 -34.4 215.15 -44.05 210.35 -44.5 197.1 -45.6 185.65 -46.7 174.1 -47.0 162.9 -49.85 166.35 -51.65 170.35 -56.0 164.5 -64.75 162.95 L-66.7 163.3 Q-66.45 160.9 -67.45 158.25 -72.7 144.4 -58.65 143.5 L-54.9 143.35" fill="url(#gradient0)" fill-rule="evenodd" stroke="none"/>
    <path d="M48.85 -50.15 L48.6 -50.0 48.3 -50.1 48.1 -50.5 48.3 -50.85 48.5 -50.95 48.8 -50.85 49.0 -50.5 48.85 -50.15 M38.05 -61.6 L38.05 -61.2 38.05 -61.0 37.5 -61.55 38.0 -61.65 38.05 -61.65 38.05 -61.6 M35.45 -60.2 L35.3 -60.15 35.15 -60.2 35.1 -60.35 35.15 -60.5 35.3 -60.55 35.45 -60.5 35.5 -60.35 35.45 -60.2 M39.2 -57.25 L39.05 -57.85 39.65 -58.2 39.85 -57.4 39.2 -57.25 M32.85 -57.05 L32.65 -57.0 32.5 -57.05 32.4 -57.25 32.5 -57.4 32.65 -57.5 32.85 -57.4 32.9 -57.25 32.85 -57.05 M39.8 -52.6 L39.95 -52.7 40.15 -52.6 40.15 -52.55 40.15 -52.45 39.95 -52.4 39.8 -52.45 39.75 -52.55 39.8 -52.6 M40.15 -47.25 L39.55 -47.05 40.15 -47.6 40.15 -47.4 40.05 -47.45 40.15 -47.35 40.15 -47.25 40.2 -47.25 40.2 -47.3 40.25 -47.25 40.4 -47.3 40.25 -47.35 40.4 -47.7 40.55 -47.35 40.6 -47.4 40.6 -47.35 40.55 -47.3 40.55 -47.35 40.45 -47.3 40.2 -47.2 40.15 -47.2 40.15 -47.25 M40.45 -47.1 L40.4 -47.1 40.45 -47.1 M38.4 -43.65 L38.6 -43.75 38.8 -44.15 39.2 -44.05 39.5 -44.2 40.35 -42.9 Q40.65 -42.5 41.1 -42.35 L40.9 -42.25 39.65 -41.7 39.6 -41.85 39.1 -42.4 38.2 -43.0 38.15 -43.0 38.4 -43.4 38.4 -43.65 M36.2 -39.7 L35.6 -39.8 35.65 -40.75 36.0 -40.75 36.2 -39.7 M21.6 -30.5 Q22.1 -30.0 22.1 -29.25 22.1 -28.5 21.6 -28.0 21.1 -27.5 20.35 -27.5 19.6 -27.5 19.1 -28.0 18.6 -28.5 18.6 -29.25 18.6 -30.0 19.1 -30.5 19.6 -31.0 20.35 -31.0 21.1 -31.0 21.6 -30.5 M28.75 -31.7 Q29.25 -32.25 30.05 -32.25 30.85 -32.25 31.4 -31.7 31.9 -31.2 31.9 -30.4 31.9 -29.6 31.4 -29.05 30.85 -28.55 30.05 -28.55 29.25 -28.55 28.75 -29.05 28.2 -29.6 28.2 -30.4 28.2 -31.2 28.75 -31.7 M39.1 -27.9 L38.9 -27.8 38.7 -28.45 39.35 -28.8 39.6 -28.1 39.1 -27.9 M38.65 -25.25 L39.2 -24.8 Q40.3 -24.2 39.9 -22.75 L39.9 -22.8 39.8 -22.55 38.55 -22.05 37.5 -22.6 36.6 -24.35 38.25 -25.8 38.4 -25.6 38.65 -25.25 M14.15 -17.65 Q13.65 -18.35 13.8 -19.75 L16.8 -19.65 Q19.0 -19.55 20.3 -18.85 L20.85 -18.5 Q20.6 -18.15 19.75 -17.75 18.2 -17.15 16.45 -17.25 L16.25 -17.25 Q14.8 -17.15 14.15 -17.65 M16.6 -3.5 Q17.2 -3.6 17.6 -4.1 18.85 -5.95 20.8 -4.95 L20.9 -4.9 21.0 -3.2 18.6 -2.0 18.15 -1.65 16.9 -0.3 14.65 -1.2 Q14.6 -1.85 14.95 -2.4 15.45 -3.35 16.6 -3.5 M33.85 -15.4 L36.3 -15.35 36.9 -13.3 36.95 -13.25 36.25 -13.4 Q35.25 -13.4 34.5 -14.05 33.85 -14.6 33.85 -15.4 M31.6 -16.75 L29.2 -16.1 28.2 -17.15 28.25 -17.95 30.5 -18.8 31.6 -16.75 M39.0 -7.85 Q38.95 -8.35 38.55 -8.7 L37.55 -9.7 37.4 -10.9 37.55 -11.1 37.75 -12.1 37.65 -12.4 38.35 -12.25 Q39.3 -12.2 40.05 -11.35 40.85 -10.4 40.85 -9.0 L41.05 -8.3 42.25 -5.95 40.7 -4.05 40.2 -4.35 39.4 -4.7 39.0 -7.85 M40.65 -47.1 L40.65 -47.15 40.7 -47.2 40.95 -47.1 40.65 -47.1 40.85 -46.65 40.5 -47.05 40.55 -47.1 40.65 -47.1 M42.3 -48.5 L43.75 -50.25 43.2 -48.45 42.3 -48.5 M43.2 -40.55 L43.25 -40.45 43.2 -40.4 43.35 -40.35 43.45 -40.2 42.95 -39.85 43.2 -40.4 42.85 -40.5 43.2 -40.55 43.0 -40.85 43.35 -40.6 43.3 -40.55 43.2 -40.55 M43.5 -40.25 L43.45 -40.35 43.6 -40.3 43.5 -40.25 M43.4 -40.6 L43.3 -40.85 43.55 -40.6 43.45 -40.55 43.4 -40.55 43.4 -40.6 M42.65 -42.7 L42.7 -42.6 42.65 -41.95 Q42.55 -42.0 42.55 -42.0 L42.3 -42.15 42.0 -42.3 42.35 -42.45 42.65 -42.7 M46.6 -34.45 L46.55 -34.4 Q45.7 -33.95 44.65 -34.1 L43.75 -34.0 43.9 -34.25 45.6 -37.15 47.45 -36.6 Q47.7 -35.15 46.6 -34.45 M43.25 -33.65 L43.0 -33.2 42.65 -32.4 41.6 -32.45 41.55 -33.0 43.15 -33.6 43.25 -33.65 M48.55 -19.1 Q48.2 -19.05 47.9 -18.8 L47.45 -18.2 47.35 -17.95 47.25 -17.4 Q47.25 -16.35 46.55 -15.6 45.95 -15.05 45.25 -14.9 L43.7 -15.95 44.3 -18.4 49.7 -20.2 50.25 -19.45 48.55 -19.1 M42.5 -0.65 L42.65 -0.55 42.55 -0.35 41.5 1.6 39.9 2.05 38.95 0.25 40.7 -1.95 40.9 -1.75 42.5 -0.65 M44.6 -1.05 L46.0 -3.1 47.9 -3.4 48.4 -2.75 Q49.3 -1.55 48.35 -0.4 L48.4 -0.45 48.15 -0.15 44.6 -1.0 44.6 -1.05 M208.4 30.05 L208.35 30.2 208.15 30.25 207.95 30.2 207.9 30.05 207.95 29.95 208.15 29.85 208.35 29.95 208.4 30.05 M202.95 27.7 Q203.2 27.45 203.6 27.45 204.0 27.45 204.25 27.7 L204.5 28.35 204.25 29.0 203.6 29.25 202.95 29.0 202.7 28.35 Q202.7 27.95 202.95 27.7 M205.95 33.65 L205.8 33.6 205.75 33.45 205.8 33.3 205.95 33.25 206.1 33.3 206.15 33.45 206.1 33.6 205.95 33.65 M210.05 36.65 L209.95 36.45 210.05 36.3 Q210.1 36.2 210.2 36.2 L210.4 36.3 210.45 36.45 210.4 36.65 210.2 36.7 210.05 36.65 M212.25 42.35 L212.25 42.5 212.1 42.5 212.0 42.5 211.95 42.35 212.0 42.25 212.1 42.2 212.25 42.25 212.25 42.35 M208.05 44.4 L207.95 44.4 207.9 44.25 207.95 44.15 208.05 44.1 208.2 44.15 208.2 44.25 208.2 44.4 208.05 44.4 M211.45 46.95 L211.5 47.05 211.45 47.2 211.25 47.25 211.05 47.2 211.0 47.05 211.05 46.95 211.25 46.85 211.45 46.95 M218.85 39.0 L218.55 38.9 218.35 38.5 218.55 38.15 218.75 38.05 219.05 38.15 219.25 38.5 219.1 38.85 218.85 39.0 M215.1 38.75 L215.3 38.4 215.5 38.3 215.8 38.4 216.0 38.75 215.85 39.1 215.6 39.25 215.3 39.15 215.1 38.75 M225.0 36.35 L225.0 34.5 226.05 35.45 225.2 36.1 226.5 36.0 226.6 36.0 226.35 35.75 226.5 35.35 226.6 35.55 226.75 36.35 226.75 36.5 226.45 36.5 226.15 36.55 226.15 36.45 226.15 36.55 225.95 36.55 225.6 36.65 225.1 36.9 225.05 36.6 225.0 36.35 M226.05 35.45 L226.25 35.3 226.3 35.7 226.05 35.45 M226.6 38.0 L226.55 38.3 226.2 38.9 226.0 39.1 225.65 39.35 224.75 39.6 224.05 39.7 Q223.7 39.85 224.3 39.25 L223.8 38.2 223.95 38.15 224.0 38.2 224.35 38.3 224.5 38.35 224.55 38.45 224.4 38.55 224.55 38.5 224.8 39.6 225.55 37.95 224.75 38.35 224.5 38.35 224.5 38.1 224.7 37.35 224.85 37.15 225.1 36.9 225.45 37.4 226.0 37.8 226.0 37.85 226.05 37.8 226.5 37.85 226.6 37.85 226.6 38.0 M174.0 33.2 Q173.2 33.2 172.65 32.65 172.1 32.1 172.1 31.3 172.1 30.5 172.65 29.95 173.2 29.4 174.0 29.4 174.8 29.4 175.35 29.95 175.9 30.5 175.9 31.3 175.9 32.1 175.35 32.65 174.8 33.2 174.0 33.2 M165.0 38.2 Q165.8 38.2 166.35 38.75 166.9 39.3 166.9 40.1 166.9 40.9 166.35 41.45 165.8 42.0 165.0 42.0 164.2 42.0 163.65 41.45 163.1 40.9 163.1 40.1 163.1 39.3 163.65 38.75 164.2 38.2 165.0 38.2 M172.0 47.4 L172.7 46.95 173.0 46.2 Q173.2 44.5 173.9 43.65 174.2 43.3 174.6 43.4 175.15 43.65 175.55 44.6 176.05 45.85 175.9 47.0 175.8 47.45 176.0 47.9 L176.55 48.55 177.15 48.95 177.05 48.85 Q178.0 49.85 177.85 51.3 L174.6 50.55 173.65 50.65 171.85 51.45 170.4 50.8 168.6 49.75 168.95 47.0 171.2 47.5 172.0 47.4 M194.25 28.95 L194.5 29.55 194.25 30.15 193.6 30.4 192.95 30.15 192.7 29.55 Q192.7 29.2 192.95 28.95 L193.6 28.7 Q194.0 28.7 194.25 28.95 M193.9 36.95 L194.15 37.45 193.2 37.95 193.3 37.1 193.9 36.95 M191.55 40.4 L191.65 41.3 190.9 41.35 190.8 40.75 191.55 40.4 M198.05 41.15 L198.2 41.1 198.35 41.15 198.4 41.3 198.35 41.45 198.2 41.5 198.05 41.45 198.0 41.3 198.05 41.15 M194.9 47.6 L195.15 47.05 Q195.4 46.8 195.75 46.8 196.1 46.8 196.35 47.05 L196.6 47.6 196.35 48.15 195.75 48.4 195.15 48.15 194.9 47.6 M196.05 53.5 L195.45 53.75 194.85 53.5 194.6 52.9 Q194.6 52.55 194.85 52.3 195.1 52.05 195.45 52.05 L196.05 52.3 196.3 52.9 196.05 53.5 M189.15 53.5 L188.5 53.75 187.85 53.5 187.6 52.9 Q187.6 52.55 187.85 52.3 188.1 52.05 188.5 52.05 188.9 52.05 189.15 52.3 L189.4 52.9 189.15 53.5 M182.7 54.1 L181.7 54.8 179.65 55.25 179.2 54.55 179.5 53.15 179.5 53.0 Q181.25 53.1 182.3 53.75 182.6 53.95 182.7 54.1 M176.8 58.05 L177.7 58.05 178.55 59.8 178.0 60.45 176.1 59.6 176.8 58.05 M167.2 54.9 L167.85 55.25 167.15 57.6 166.1 57.8 Q165.65 57.85 165.3 58.2 164.95 58.5 164.9 58.95 164.5 60.65 163.7 61.4 L162.8 61.6 Q162.05 61.2 161.65 60.1 161.15 58.75 161.35 57.6 L161.25 56.75 161.75 56.7 163.65 56.2 164.5 55.65 Q165.6 54.05 167.2 54.9 M171.15 61.0 Q171.8 61.0 172.25 61.45 172.65 61.85 172.65 62.5 172.65 63.15 172.25 63.6 171.8 64.0 171.15 64.0 170.5 64.0 170.1 63.6 169.65 63.15 169.65 62.5 169.65 61.85 170.1 61.45 170.5 61.0 171.15 61.0 M162.8 68.9 Q162.8 69.7 162.3 70.25 161.75 70.75 160.95 70.75 160.15 70.75 159.65 70.25 159.1 69.7 159.1 68.9 159.1 68.1 159.65 67.6 160.15 67.05 160.95 67.05 161.75 67.05 162.3 67.6 162.8 68.1 162.8 68.9 M146.05 48.3 Q146.6 48.85 146.6 49.65 146.6 50.45 146.05 51.0 145.5 51.55 144.65 51.55 143.8 51.55 143.25 51.0 142.7 50.45 142.7 49.65 142.7 48.85 143.25 48.3 143.8 47.75 144.65 47.75 145.5 47.75 146.05 48.3 M159.95 49.05 L160.65 48.85 161.45 50.3 159.9 52.35 Q159.55 52.85 159.6 53.45 L159.85 55.45 160.0 55.85 Q159.45 55.8 159.05 56.1 L158.65 56.35 157.35 56.35 156.75 55.9 156.2 55.65 155.55 55.65 154.3 55.9 153.8 56.1 Q153.65 56.15 153.55 56.3 153.2 56.65 153.15 57.1 153.05 57.55 153.25 58.0 L154.4 60.55 153.8 61.25 153.75 61.25 151.35 61.05 151.1 58.7 150.7 57.8 150.4 57.6 150.35 57.55 149.8 57.35 148.85 57.55 148.8 57.6 147.75 57.85 Q146.6 57.6 145.95 56.6 L146.05 56.4 146.05 56.35 Q146.65 55.15 147.45 54.9 148.25 54.8 149.3 55.35 L149.8 55.65 150.6 55.85 150.7 55.85 151.4 55.65 151.95 55.0 152.1 54.7 156.9 53.3 157.5 53.0 157.9 52.4 158.0 52.15 158.1 51.5 Q157.95 49.5 159.85 49.05 L159.95 49.05 M94.1 71.1 L93.95 70.75 94.1 70.4 Q94.25 70.25 94.5 70.25 L94.9 70.4 95.05 70.75 94.9 71.1 94.5 71.25 94.1 71.1 M90.3 89.75 L90.0 89.85 89.7 89.75 89.6 89.45 89.7 89.15 90.0 89.05 90.3 89.15 90.4 89.45 90.3 89.75 M90.05 98.6 L90.5 99.1 90.8 99.4 92.5 100.5 92.25 101.35 90.7 101.2 90.45 100.3 89.85 99.5 89.15 99.1 89.05 98.8 89.05 99.0 88.7 98.8 90.05 98.6 M118.65 80.0 Q118.95 78.9 120.05 78.7 L121.25 78.65 121.45 78.65 121.7 80.35 120.9 81.5 118.75 81.9 Q118.4 81.95 118.15 82.15 L118.35 81.55 118.65 80.05 118.65 80.0 M111.95 79.95 L109.7 80.5 109.0 78.85 110.3 77.15 110.6 76.4 110.8 74.3 112.5 73.65 113.55 75.45 112.4 76.75 Q112.0 77.15 112.0 77.7 L111.95 79.95 M114.35 85.75 Q114.35 84.55 115.15 83.65 115.85 82.85 116.85 82.85 L117.75 82.6 117.55 83.15 Q117.45 83.65 117.7 84.05 L117.8 84.3 117.75 85.0 Q117.7 85.5 118.05 86.0 L118.9 86.55 120.05 86.85 120.6 87.55 120.6 89.25 Q119.2 90.75 117.55 89.75 L116.8 89.5 116.05 89.7 114.15 90.7 112.35 90.1 111.6 90.05 106.9 90.85 105.95 90.1 106.45 87.75 110.45 86.8 112.05 87.5 112.75 87.6 113.45 87.35 113.6 87.25 114.15 86.55 114.25 86.3 114.35 85.75 M110.6 98.85 Q110.05 99.35 109.3 99.35 108.55 99.35 108.05 98.85 107.5 98.3 107.5 97.6 107.5 96.9 108.05 96.4 108.55 95.85 109.3 95.85 110.05 95.85 110.6 96.4 111.1 96.9 111.1 97.6 111.1 98.3 110.6 98.85 M132.85 59.0 L132.25 59.1 Q130.45 59.75 129.75 58.1 L129.75 58.15 129.5 57.4 131.55 56.05 132.7 56.8 133.8 57.0 134.55 56.85 134.9 56.75 137.25 55.65 138.6 56.35 138.55 58.55 135.3 60.1 133.45 59.15 132.85 59.0 M141.15 66.75 L141.6 68.4 139.55 69.65 Q139.0 69.15 138.85 68.6 L138.85 68.65 Q138.55 67.4 139.4 66.5 L139.7 65.9 139.75 65.25 139.4 63.3 141.3 62.2 142.4 63.5 141.3 65.7 Q141.0 66.2 141.15 66.75 M132.45 81.7 Q132.45 82.5 131.9 83.05 131.35 83.6 130.55 83.6 129.75 83.6 129.2 83.05 128.65 82.5 128.65 81.7 128.65 80.9 129.2 80.35 129.75 79.8 130.55 79.8 131.35 79.8 131.9 80.35 132.45 80.9 132.45 81.7 M139.35 92.2 L139.8 92.25 139.25 95.25 138.15 95.45 137.65 95.4 136.85 95.1 136.25 94.0 136.8 92.35 138.35 91.9 139.35 92.2 M141.7 89.0 L144.15 88.75 143.95 90.65 141.25 91.0 141.7 89.0 M145.4 79.2 Q147.2 79.45 147.0 81.45 146.95 82.05 147.35 82.55 147.7 83.0 148.3 83.1 149.1 83.2 149.4 84.1 L149.4 84.05 149.45 84.7 149.45 84.9 147.8 86.6 146.15 86.15 146.1 86.15 146.1 83.85 145.95 83.15 145.45 82.6 143.85 81.55 144.35 79.25 145.4 79.2 M47.9 4.9 Q49.6 4.2 50.9 5.55 L50.4 7.1 50.35 7.1 Q48.5 7.85 47.35 6.15 L47.9 4.9 M44.2 7.95 L43.4 8.55 Q43.05 8.75 42.9 9.1 L42.8 9.3 Q41.7 10.5 40.05 10.45 L39.85 7.55 40.2 7.35 40.65 7.0 41.15 6.5 41.1 6.5 44.55 6.6 44.2 7.95 M48.25 12.15 Q48.8 12.7 48.8 13.5 48.8 14.3 48.25 14.85 47.7 15.4 46.9 15.4 46.1 15.4 45.55 14.85 45.0 14.3 45.0 13.5 45.0 12.7 45.55 12.15 46.1 11.6 46.9 11.6 47.7 11.6 48.25 12.15 M46.95 28.0 L46.15 30.05 43.7 29.85 Q43.05 29.8 42.6 30.25 L41.75 31.0 Q41.4 31.25 41.3 31.7 L41.3 32.55 41.75 33.25 Q42.5 33.9 42.35 34.9 L42.35 34.95 41.65 36.35 40.3 36.55 39.25 36.0 39.1 35.75 38.4 35.0 37.45 34.9 Q36.9 35.0 36.6 35.45 L35.7 36.6 Q35.35 36.95 35.35 37.45 L35.35 37.6 35.0 37.3 34.25 37.1 33.25 36.45 Q32.6 35.55 32.6 34.25 L32.6 34.05 32.4 32.25 34.1 30.95 35.35 31.5 35.9 33.5 Q36.05 34.0 36.5 34.35 L37.45 34.6 Q37.95 34.55 38.35 34.2 L40.0 32.7 40.4 32.15 40.5 31.45 40.15 28.35 45.95 27.2 46.95 28.0 M46.2 42.3 Q45.45 42.3 44.95 41.8 44.4 41.25 44.4 40.55 44.4 39.85 44.95 39.35 45.45 38.8 46.2 38.8 46.95 38.8 47.5 39.35 48.0 39.85 48.0 40.55 48.0 41.25 47.5 41.8 46.95 42.3 46.2 42.3 M44.75 47.2 Q45.55 47.2 46.1 47.75 46.65 48.3 46.65 49.1 46.65 49.9 46.1 50.45 45.55 51.0 44.75 51.0 43.95 51.0 43.4 50.45 42.85 49.9 42.85 49.1 42.85 48.3 43.4 47.75 43.95 47.2 44.75 47.2 M37.95 15.55 L36.3 15.95 35.3 15.45 34.85 14.8 34.85 13.5 35.25 13.0 36.8 12.45 37.9 12.7 37.9 12.75 38.5 13.6 38.5 14.85 37.95 15.55 M12.45 35.55 Q13.25 35.55 13.8 36.1 14.3 36.6 14.3 37.4 14.3 38.2 13.8 38.75 13.25 39.25 12.45 39.25 11.65 39.25 11.15 38.75 10.6 38.2 10.6 37.4 10.6 36.6 11.15 36.1 11.65 35.55 12.45 35.55 M10.1 27.25 Q10.6 27.75 10.6 28.5 10.6 29.25 10.1 29.8 9.55 30.3 8.75 30.3 7.95 30.3 7.45 29.8 6.9 29.25 6.9 28.5 6.9 27.75 7.45 27.25 7.95 26.7 8.75 26.7 9.55 26.7 10.1 27.25 M2.5 26.35 Q2.5 27.1 2.0 27.65 1.45 28.15 0.65 28.15 -0.15 28.15 -0.65 27.65 -1.2 27.1 -1.2 26.35 -1.2 25.6 -0.65 25.1 -0.15 24.55 0.65 24.55 1.45 24.55 2.0 25.1 2.5 25.6 2.5 26.35 M21.3 39.75 Q21.85 39.2 22.7 39.2 23.55 39.2 24.1 39.75 24.65 40.3 24.65 41.1 24.65 41.9 24.1 42.45 23.55 43.0 22.7 43.0 21.85 43.0 21.3 42.45 20.75 41.9 20.75 41.1 20.75 40.3 21.3 39.75 M34.1 51.7 Q34.1 50.9 34.65 50.35 35.2 49.8 36.0 49.8 36.8 49.8 37.35 50.35 37.9 50.9 37.9 51.7 37.9 52.5 37.35 53.05 36.8 53.6 36.0 53.6 35.2 53.6 34.65 53.05 34.1 52.5 34.1 51.7 M24.9 65.1 L24.35 64.95 24.9 64.8 25.45 64.95 24.9 65.1 M37.7 62.1 L39.1 62.0 39.95 61.85 Q41.25 61.2 42.2 61.4 43.05 61.75 43.6 63.0 L43.6 63.1 43.7 63.25 Q42.65 64.35 41.35 63.6 L41.25 63.6 40.05 62.7 Q39.65 62.3 39.05 62.25 L37.7 62.1 M33.5 69.15 Q34.0 69.15 34.35 69.5 34.7 69.85 34.7 70.35 34.7 70.85 34.35 71.2 34.0 71.55 33.5 71.55 33.0 71.55 32.65 71.2 32.3 70.85 32.3 70.35 32.3 69.85 32.65 69.5 33.0 69.15 33.5 69.15 M39.8 81.6 L40.05 81.8 39.85 81.75 39.75 83.5 37.15 83.25 Q38.5 82.4 39.8 81.6 M25.3 78.3 Q26.0 78.3 26.5 78.9 27.1 79.6 27.1 80.6 L27.15 81.0 26.7 81.05 24.45 81.55 Q24.1 81.6 23.85 81.8 L23.45 82.3 22.4 84.2 21.5 84.05 21.25 82.85 22.8 81.9 23.3 81.35 23.5 80.6 Q23.5 79.6 24.1 78.9 24.6 78.3 25.3 78.3 M27.95 82.0 L27.8 81.9 27.55 81.85 27.7 81.8 27.8 81.9 27.95 81.9 27.95 82.0 M28.05 81.45 L28.15 81.0 28.4 81.6 28.8 81.45 28.5 81.75 28.9 82.05 28.5 82.0 28.7 82.55 28.15 82.15 28.3 81.95 28.5 82.0 28.45 81.8 28.5 81.75 28.45 81.7 28.4 81.6 28.3 81.6 28.05 81.45 M25.3 96.85 Q24.55 96.85 24.05 96.35 23.5 95.8 23.5 95.05 23.5 94.3 24.05 93.8 24.55 93.25 25.3 93.25 26.05 93.25 26.6 93.8 27.1 94.3 27.1 95.05 27.1 95.8 26.6 96.35 26.05 96.85 25.3 96.85 M64.65 55.5 L64.85 55.15 65.25 54.95 65.7 55.15 65.85 55.5 65.7 55.9 65.25 56.05 64.85 55.9 64.65 55.5 M59.1 51.35 Q59.1 52.15 58.55 52.7 58.0 53.25 57.2 53.25 56.4 53.25 55.85 52.7 55.3 52.15 55.3 51.35 55.3 50.55 55.85 50.0 56.4 49.45 57.2 49.45 58.0 49.45 58.55 50.0 59.1 50.55 59.1 51.35 M42.75 77.9 L40.7 78.35 40.2 75.95 41.55 76.25 Q42.55 76.85 42.75 77.9 M57.1 97.05 L57.1 97.15 57.0 97.2 56.7 97.35 56.6 97.4 56.45 97.35 56.15 97.25 56.05 97.25 56.0 97.15 55.85 96.85 55.75 96.75 55.8 96.6 55.9 96.3 55.95 96.2 56.05 96.15 56.3 96.0 56.45 95.9 56.55 95.95 56.9 96.05 57.0 96.1 57.05 96.2 57.2 96.45 57.25 96.6 57.2 96.7 57.1 97.05 M76.5 107.0 L76.6 107.1 76.5 107.2 76.4 107.1 76.5 107.0 M68.25 103.65 L67.95 103.1 68.25 102.55 68.8 102.25 69.35 102.55 69.65 103.1 69.35 103.65 68.8 103.95 68.25 103.65 M59.7 116.85 Q59.2 116.85 58.9 116.55 58.6 116.25 58.6 115.8 58.6 115.35 58.9 115.05 59.2 114.75 59.7 114.75 60.2 114.75 60.5 115.05 L60.8 115.8 60.5 116.55 59.7 116.85 M40.65 135.75 L40.75 135.8 40.8 135.9 40.75 136.0 40.65 136.05 40.55 136.0 40.5 135.9 40.55 135.8 40.65 135.75 M58.6 145.55 L58.8 145.45 58.7 145.25 59.2 145.5 58.6 145.55 M63.65 128.45 L65.2 128.95 65.65 129.15 67.75 130.7 65.55 131.15 65.65 131.0 65.75 130.85 63.55 131.35 63.65 128.45 M65.9 130.0 L66.0 130.4 65.8 130.35 65.95 130.45 66.05 130.55 66.15 131.0 66.2 130.65 66.35 130.75 66.55 130.85 66.45 130.7 66.95 130.6 66.25 130.45 66.3 129.85 66.1 130.25 65.9 130.0 M71.9 148.25 L71.55 148.15 71.4 147.75 71.55 147.4 Q71.7 147.25 71.9 147.25 72.1 147.25 72.3 147.4 L72.4 147.75 72.3 148.15 71.9 148.25 M33.65 100.15 L33.35 101.0 Q33.0 101.3 32.5 101.3 L31.7 101.0 Q31.35 100.65 31.35 100.15 31.35 99.65 31.7 99.35 32.0 99.0 32.5 99.0 33.0 99.0 33.35 99.35 L33.65 100.15 M35.8 111.2 L36.1 112.0 35.8 112.85 35.0 113.15 Q34.55 113.15 34.25 112.85 33.9 112.5 33.9 112.0 33.9 111.5 34.25 111.2 34.55 110.85 35.0 110.85 35.45 110.85 35.8 111.2 M22.35 107.25 L22.25 107.3 22.2 107.3 21.8 107.45 22.1 107.45 21.75 107.7 21.3 106.85 22.1 107.15 22.1 106.8 22.3 107.2 22.3 107.25 22.35 107.25 22.45 107.3 22.45 107.2 22.7 107.1 23.1 107.0 23.65 107.05 Q24.1 107.2 24.4 107.55 L24.9 108.15 23.75 108.15 23.45 107.15 22.6 108.15 23.75 108.15 24.15 109.55 23.05 109.2 22.45 108.85 22.2 108.5 21.85 107.85 22.15 107.75 22.2 108.0 22.35 107.6 22.7 107.9 22.45 107.45 22.7 107.4 22.75 107.4 22.35 107.3 22.35 107.25 22.3 107.2 22.55 107.0 22.45 107.2 22.35 107.25 M22.1 107.45 L22.15 107.45 22.1 107.45 M10.0 140.9 L10.25 140.75 10.4 140.65 10.5 140.7 10.85 140.8 10.95 140.85 11.0 140.95 11.15 141.2 11.2 141.35 11.15 141.45 11.05 141.8 11.05 141.9 10.95 141.95 10.65 142.1 10.55 142.15 10.4 142.1 10.1 142.0 10.0 142.0 9.95 141.9 9.8 141.6 9.7 141.5 9.75 141.35 9.85 141.05 9.9 140.95 10.0 140.9 M32.95 130.5 L33.0 130.65 32.95 130.85 32.8 130.9 32.7 130.85 32.6 130.65 32.7 130.5 32.8 130.4 32.95 130.5 M39.65 131.25 L39.3 131.35 39.0 131.25 38.85 130.9 39.0 130.6 Q39.1 130.45 39.3 130.45 L39.65 130.6 39.75 130.9 39.65 131.25 M22.1 129.25 Q21.75 128.9 21.75 128.4 21.75 127.9 22.1 127.55 22.45 127.2 23.0 127.2 23.55 127.2 23.9 127.55 24.25 127.9 24.25 128.4 L23.9 129.25 23.0 129.6 Q22.45 129.6 22.1 129.25 M36.8 152.25 L36.95 152.5 37.0 152.65 36.95 152.75 36.85 153.1 36.85 153.2 36.75 153.25 36.45 153.4 36.35 153.45 36.2 153.4 35.9 153.3 35.8 153.3 35.75 153.2 35.6 152.9 35.5 152.8 35.55 152.65 35.65 152.35 35.7 152.25 35.8 152.2 36.05 152.05 36.2 151.95 36.3 152.0 36.65 152.1 36.75 152.15 36.8 152.25 M17.3 173.05 L17.2 173.0 17.15 172.9 17.2 172.8 17.3 172.75 17.4 172.8 17.45 172.9 17.4 173.0 17.3 173.05 M67.6 150.2 L67.2 150.35 66.8 150.2 66.65 149.85 66.8 149.5 Q66.95 149.35 67.2 149.35 L67.6 149.5 67.75 149.85 67.6 150.2 M64.0 159.35 L63.8 159.45 63.65 159.35 63.6 159.3 63.65 159.25 63.8 159.15 64.0 159.25 64.0 159.3 64.0 159.35 M74.1 170.25 L73.7 170.1 73.55 169.75 73.7 169.4 Q73.85 169.25 74.1 169.25 L74.5 169.4 74.65 169.75 74.5 170.1 74.1 170.25 M50.7 159.85 L50.65 159.95 50.55 160.3 50.55 160.4 50.45 160.45 50.15 160.6 50.05 160.65 49.9 160.6 49.6 160.5 49.5 160.5 49.45 160.4 49.3 160.1 49.2 160.0 49.25 159.85 49.35 159.55 49.4 159.45 49.5 159.4 Q49.6 159.25 49.75 159.25 L49.9 159.15 50.0 159.2 50.35 159.3 50.45 159.35 50.5 159.45 50.65 159.7 50.7 159.85 M47.1 155.0 L47.25 155.35 47.1 155.7 46.7 155.85 46.3 155.7 46.15 155.35 Q46.15 155.15 46.3 155.0 L46.7 154.85 Q46.95 154.85 47.1 155.0 M49.95 161.6 L49.9 161.7 49.8 162.05 49.8 162.15 49.7 162.2 49.4 162.35 49.3 162.4 49.15 162.35 48.85 162.25 48.75 162.25 48.7 162.15 48.55 161.85 48.45 161.75 48.5 161.6 48.6 161.3 48.65 161.2 48.75 161.15 Q48.85 161.0 49.0 161.0 L49.15 160.9 49.25 160.95 49.6 161.05 49.7 161.1 49.75 161.2 49.9 161.45 49.95 161.6 M53.2 161.85 L53.5 162.45 53.2 163.05 52.8 163.25 52.25 163.1 51.9 162.45 52.2 161.9 52.65 161.65 53.2 161.85 M64.4 197.75 L64.35 197.6 64.4 197.5 64.65 197.35 64.9 197.5 64.95 197.6 64.95 197.75 64.65 197.85 64.4 197.75 M122.15 129.2 Q122.15 129.95 121.65 130.45 121.15 130.95 120.4 130.95 119.65 130.95 119.15 130.45 118.65 129.95 118.65 129.2 118.65 128.45 119.15 127.95 119.65 127.45 120.4 127.45 121.15 127.45 121.65 127.95 122.15 128.45 122.15 129.2 M111.75 111.85 Q112.3 112.4 112.3 113.2 112.3 114.0 111.75 114.55 111.2 115.1 110.45 115.1 109.7 115.1 109.15 114.55 108.6 114.0 108.6 113.2 108.6 112.4 109.15 111.85 109.7 111.3 110.45 111.3 111.2 111.3 111.75 111.85 M91.75 110.65 Q91.4 111.0 90.85 111.0 90.3 111.0 89.95 110.65 89.6 110.3 89.6 109.8 89.6 109.3 89.95 108.95 90.3 108.6 90.85 108.6 91.4 108.6 91.75 108.95 92.1 109.3 92.1 109.8 L91.75 110.65 M88.85 117.6 L88.55 118.45 87.7 118.75 86.9 118.45 Q86.55 118.1 86.55 117.6 86.55 117.1 86.9 116.8 87.2 116.45 87.7 116.45 88.2 116.45 88.55 116.8 L88.85 117.6 M98.55 116.4 L98.65 116.7 98.55 117.05 98.15 117.15 97.8 117.05 97.65 116.7 97.8 116.4 Q97.95 116.25 98.15 116.25 98.35 116.25 98.55 116.4 M90.65 129.55 L90.3 129.7 Q89.2 130.25 87.3 130.35 L87.25 130.35 84.75 129.95 83.95 129.4 84.3 129.2 Q85.2 128.65 86.9 128.6 L87.0 128.6 Q88.4 128.45 89.75 129.0 L90.65 129.55 M83.0 138.5 Q82.65 138.15 82.65 137.65 82.65 137.15 83.0 136.8 83.35 136.45 83.85 136.45 84.35 136.45 84.7 136.8 85.05 137.15 85.05 137.65 L84.7 138.5 83.85 138.85 Q83.35 138.85 83.0 138.5 M101.9 134.55 Q102.4 134.05 103.15 134.05 103.9 134.05 104.4 134.55 104.9 135.05 104.9 135.8 104.9 136.55 104.4 137.05 103.9 137.55 103.15 137.55 102.4 137.55 101.9 137.05 101.4 136.55 101.4 135.8 101.4 135.05 101.9 134.55 M97.7 167.9 Q97.35 168.25 96.9 168.25 96.45 168.25 96.1 167.9 95.75 167.55 95.75 167.05 95.75 166.55 96.1 166.2 96.45 165.85 96.9 165.85 97.35 165.85 97.7 166.2 98.05 166.55 98.05 167.05 L97.7 167.9 M89.15 180.9 L89.25 180.95 89.6 181.55 89.25 182.15 89.15 182.2 88.85 182.35 88.55 182.2 88.45 182.15 88.1 181.55 88.45 180.95 88.55 180.9 88.85 180.75 89.15 180.9 M102.65 179.4 L102.8 179.5 102.85 179.6 102.8 179.75 102.65 179.8 102.55 179.75 102.45 179.6 102.55 179.5 102.65 179.4 M71.2 211.35 L71.25 211.4 71.35 211.55 71.25 211.75 71.2 211.75 71.15 211.75 71.05 211.55 71.15 211.4 71.2 211.35 M56.7 203.9 L56.6 204.0 56.5 203.9 56.6 203.8 56.7 203.9 M44.4 219.85 L44.1 220.4 43.55 220.7 43.0 220.4 42.7 219.85 43.0 219.3 43.55 219.0 44.1 219.3 44.4 219.85 M49.85 226.95 L50.0 227.2 50.05 227.35 50.0 227.45 49.9 227.8 49.9 227.9 49.8 227.95 49.5 228.1 49.4 228.15 49.25 228.1 48.95 228.0 48.85 228.0 48.8 227.9 48.65 227.6 48.55 227.5 48.6 227.35 48.7 227.05 48.75 226.95 48.85 226.9 49.1 226.75 49.25 226.65 49.35 226.7 49.7 226.8 49.8 226.85 49.85 226.95 M31.65 212.9 L31.75 212.95 32.1 213.05 32.2 213.1 32.25 213.2 32.4 213.45 32.45 213.6 32.4 213.7 32.3 214.05 32.3 214.15 32.2 214.2 31.9 214.35 31.8 214.4 31.65 214.35 31.35 214.25 31.25 214.25 31.2 214.15 31.05 213.85 30.95 213.75 31.0 213.6 31.1 213.3 31.15 213.2 31.25 213.15 Q31.35 213.0 31.5 213.0 L31.65 212.9 M38.0 221.1 L37.7 221.7 37.3 221.9 36.75 221.75 36.4 221.1 36.7 220.55 37.15 220.3 37.7 220.5 38.0 221.1 M-10.85 59.55 L-10.95 59.9 -11.35 60.0 -11.7 59.9 -11.85 59.55 -11.7 59.25 -11.35 59.1 Q-11.15 59.1 -10.95 59.25 L-10.85 59.55 M-156.8 86.7 L-157.4 87.15 Q-158.4 88.35 -159.3 88.45 -160.1 88.3 -160.85 87.45 L-156.25 83.35 -154.25 83.8 -153.95 84.65 -154.25 85.75 -156.8 86.7 M-136.9 98.35 L-138.65 97.15 -138.3 95.35 -136.25 95.65 -136.0 98.05 -135.75 98.7 -135.25 99.15 Q-133.7 100.05 -133.4 101.05 -133.35 101.85 -134.0 102.75 L-134.15 102.75 Q-136.4 102.2 -136.25 99.7 -136.25 99.3 -136.4 98.95 L-136.9 98.35 M-116.6 113.35 L-116.95 113.25 -117.1 112.85 -116.95 112.5 Q-116.8 112.35 -116.6 112.35 L-116.2 112.5 -116.1 112.85 -116.2 113.25 -116.6 113.35 M-107.9 132.5 L-107.9 133.25 -108.0 133.15 -108.35 132.85 -108.65 133.05 -108.65 133.1 -109.1 132.25 -109.5 132.35 -108.75 131.8 -108.45 131.55 -107.9 132.1 -107.65 132.35 -107.9 132.5 M-108.7 132.2 L-108.75 131.8 -108.85 132.25 -108.75 132.2 -108.7 132.2 M-108.85 132.4 L-108.9 132.55 -108.85 132.4 M-109.1 132.25 L-109.0 132.25 -109.15 132.15 -109.1 132.25 M-109.2 135.05 L-108.8 135.85 -108.6 135.75 -108.4 136.2 -108.6 136.3 -108.8 135.85 -109.8 136.4 -109.25 134.9 -109.2 135.05 M-113.95 145.65 L-114.05 145.7 -113.85 145.65 -113.95 145.65 -113.8 145.55 -113.8 145.65 -113.95 146.15 -113.6 145.7 -113.8 145.65 -112.5 145.35 -112.65 145.85 -113.55 145.7 -113.4 146.8 -114.65 145.55 -113.95 145.65 M-109.5 143.85 L-111.25 144.15 -110.9 142.35 -109.2 142.35 -109.5 143.85 M-107.05 147.45 Q-106.7 147.1 -106.15 147.1 -105.6 147.1 -105.25 147.45 -104.9 147.8 -104.9 148.3 -104.9 148.8 -105.25 149.15 -105.6 149.5 -106.15 149.5 L-107.05 149.15 -107.4 148.3 Q-107.4 147.8 -107.05 147.45 M-95.05 144.35 L-94.95 144.25 -94.85 144.35 -94.95 144.45 -95.05 144.35 M-127.65 107.8 Q-127.15 108.3 -127.15 109.0 -127.15 109.7 -127.65 110.25 -128.2 110.75 -128.95 110.75 -129.7 110.75 -130.2 110.25 -130.75 109.7 -130.75 109.0 -130.75 108.3 -130.2 107.8 -129.7 107.25 -128.95 107.25 -128.2 107.25 -127.65 107.8 M-131.7 117.5 Q-131.1 119.65 -131.25 121.45 L-131.25 121.6 -132.0 121.55 -132.95 121.7 -134.65 121.0 -134.8 120.95 -134.65 120.4 Q-134.35 117.25 -133.45 115.85 L-132.9 115.3 Q-132.2 115.8 -131.7 117.5 M-136.6 121.75 L-136.75 122.3 Q-136.8 123.65 -137.3 124.2 L-138.8 124.15 -138.9 124.15 -139.7 123.8 -139.1 121.6 -136.6 121.75 M-129.9 123.1 L-127.95 123.3 -127.35 123.95 -127.75 126.15 -128.7 126.7 Q-129.2 126.95 -129.4 127.5 -129.6 128.0 -129.4 128.55 L-128.8 130.1 -128.85 130.45 Q-129.0 130.95 -128.75 131.45 L-128.0 132.1 -127.05 132.2 -125.75 131.9 -124.85 132.25 -124.15 133.25 -124.15 134.4 -124.65 135.1 -127.05 135.0 -128.0 132.75 Q-128.2 132.35 -128.55 132.1 -128.95 131.85 -129.4 131.85 L-131.25 131.85 -131.95 131.35 -132.4 129.9 -132.15 129.1 -130.85 128.3 Q-130.35 127.95 -130.2 127.35 -130.05 126.75 -130.35 126.25 L-130.65 125.7 -130.25 123.25 -130.25 123.05 -129.9 123.1 M-153.95 109.45 Q-154.7 109.45 -155.2 108.95 -155.75 108.4 -155.75 107.6 -155.75 106.8 -155.2 106.3 -154.7 105.75 -153.95 105.75 -153.2 105.75 -152.65 106.3 -152.15 106.8 -152.15 107.6 -152.15 108.4 -152.65 108.95 -153.2 109.45 -153.95 109.45 M-157.25 114.45 Q-157.8 115.0 -158.6 115.0 -159.4 115.0 -159.95 114.45 -160.5 113.9 -160.5 113.15 -160.5 112.4 -159.95 111.85 -159.4 111.3 -158.6 111.3 -157.8 111.3 -157.25 111.85 -156.7 112.4 -156.7 113.15 -156.7 113.9 -157.25 114.45 M-151.1 111.85 Q-150.55 111.3 -149.75 111.3 -148.95 111.3 -148.4 111.85 -147.85 112.4 -147.85 113.15 -147.85 113.9 -148.4 114.45 -148.95 115.0 -149.75 115.0 -150.55 115.0 -151.1 114.45 -151.65 113.9 -151.65 113.15 -151.65 112.4 -151.1 111.85 M-147.95 132.15 Q-148.45 132.65 -149.2 132.65 -149.95 132.65 -150.45 132.15 -150.95 131.65 -150.95 130.95 -150.95 130.25 -150.45 129.75 -149.95 129.25 -149.2 129.25 -148.45 129.25 -147.95 129.75 -147.45 130.25 -147.45 130.95 -147.45 131.65 -147.95 132.15 M-160.15 132.9 L-161.0 133.2 -161.65 133.65 -161.95 134.35 -162.15 135.6 -165.4 136.0 -165.45 136.0 Q-167.35 135.9 -168.5 135.2 -169.1 134.75 -169.15 134.3 -168.95 133.75 -168.05 133.3 -166.75 132.6 -165.1 132.75 L-164.5 132.7 -163.95 132.35 -161.55 130.1 -160.3 130.55 -160.15 132.9 M-134.55 141.75 Q-135.3 141.75 -135.85 141.2 -136.4 140.65 -136.4 139.85 -136.4 139.05 -135.85 138.5 -135.3 137.95 -134.55 137.95 -133.8 137.95 -133.25 138.5 -132.7 139.05 -132.7 139.85 -132.7 140.65 -133.25 141.2 -133.8 141.75 -134.55 141.75 M-126.5 147.1 Q-125.95 147.65 -125.95 148.45 -125.95 149.25 -126.5 149.8 -127.05 150.35 -127.85 150.35 -128.65 150.35 -129.2 149.8 -129.75 149.25 -129.75 148.45 -129.75 147.65 -129.2 147.1 -128.65 146.55 -127.85 146.55 -127.05 146.55 -126.5 147.1 M-138.7 161.25 Q-137.95 161.25 -137.4 161.8 -136.9 162.3 -136.9 163.0 -136.9 163.7 -137.4 164.25 -137.95 164.75 -138.7 164.75 -139.45 164.75 -139.95 164.25 -140.5 163.7 -140.5 163.0 -140.5 162.3 -139.95 161.8 -139.45 161.25 -138.7 161.25 M-127.65 164.65 Q-128.2 165.15 -128.95 165.15 -129.7 165.15 -130.2 164.65 -130.75 164.1 -130.75 163.4 -130.75 162.7 -130.2 162.2 -129.7 161.65 -128.95 161.65 -128.2 161.65 -127.65 162.2 -127.15 162.7 -127.15 163.4 -127.15 164.1 -127.65 164.65 M-122.8 170.75 Q-123.35 170.2 -123.35 169.4 -123.35 168.6 -122.8 168.1 -122.3 167.55 -121.55 167.55 -120.8 167.55 -120.25 168.1 -119.75 168.6 -119.75 169.4 -119.75 170.2 -120.25 170.75 -120.8 171.25 -121.55 171.25 -122.3 171.25 -122.8 170.75 M-155.15 161.05 Q-155.7 161.6 -156.55 161.6 -157.4 161.6 -157.95 161.05 -158.5 160.5 -158.5 159.7 -158.5 158.9 -157.95 158.35 -157.4 157.8 -156.55 157.8 -155.7 157.8 -155.15 158.35 -154.6 158.9 -154.6 159.7 -154.6 160.5 -155.15 161.05 M-83.2 160.6 L-83.45 161.2 -83.35 161.35 -84.45 161.45 -84.2 160.45 -83.95 160.7 -83.2 160.6 M-84.5 161.55 L-84.55 161.75 -84.5 161.55 -84.45 161.55 -84.4 162.4 -85.35 161.1 -84.5 161.45 -84.8 161.5 -84.5 161.55 M-87.35 168.8 L-87.25 168.85 -86.9 168.95 -86.8 169.0 -86.75 169.1 -86.6 169.35 -86.55 169.5 -86.6 169.6 -86.7 169.95 -86.7 170.05 -86.8 170.1 -87.1 170.25 -87.2 170.3 -87.35 170.25 -87.65 170.15 -87.75 170.15 -87.8 170.05 -87.95 169.75 -88.05 169.65 -88.0 169.5 -87.9 169.2 -87.85 169.1 -87.75 169.05 Q-87.65 168.9 -87.5 168.9 L-87.35 168.8 M-110.6 157.6 Q-110.6 157.05 -110.25 156.7 -109.9 156.35 -109.35 156.35 -108.8 156.35 -108.45 156.7 -108.1 157.05 -108.1 157.6 -108.1 158.15 -108.45 158.5 L-109.35 158.85 Q-109.9 158.85 -110.25 158.5 -110.6 158.15 -110.6 157.6 M-105.95 169.8 Q-105.6 170.15 -105.6 170.65 -105.6 171.15 -105.95 171.5 -106.3 171.85 -106.8 171.85 -107.3 171.85 -107.65 171.5 L-108.0 170.65 Q-108.0 170.15 -107.65 169.8 -107.3 169.45 -106.8 169.45 -106.3 169.45 -105.95 169.8 M-114.3 197.95 Q-114.0 198.25 -114.0 198.7 -114.0 199.15 -114.3 199.45 L-115.1 199.75 -115.9 199.45 -116.2 198.7 -115.9 197.95 Q-115.6 197.65 -115.1 197.65 -114.6 197.65 -114.3 197.95 M-102.25 182.55 Q-102.7 182.55 -103.0 182.25 -103.35 181.9 -103.35 181.4 -103.35 180.9 -103.0 180.6 -102.7 180.25 -102.25 180.25 -101.8 180.25 -101.45 180.6 -101.15 180.9 -101.15 181.4 -101.15 181.9 -101.45 182.25 L-102.25 182.55 M-89.95 196.1 L-89.85 196.4 -89.95 196.75 -90.3 196.85 -90.6 196.75 -90.75 196.4 -90.6 196.1 Q-90.5 195.95 -90.3 195.95 -90.1 195.95 -89.95 196.1 M-39.25 147.1 Q-39.7 146.35 -39.6 145.1 L-39.55 145.05 Q-37.4 144.4 -36.25 146.75 L-35.75 147.35 -35.0 147.6 -34.2 147.8 -34.0 147.85 Q-32.6 148.2 -32.15 148.9 -31.9 149.75 -32.6 151.2 L-32.75 151.85 Q-32.75 152.85 -33.3 153.55 -33.8 154.05 -34.4 154.1 L-35.15 154.3 -37.15 155.45 -37.4 155.65 -38.15 156.4 Q-39.85 156.6 -40.5 154.95 L-40.55 154.85 -38.3 152.3 -37.6 151.75 -36.9 151.75 Q-36.3 151.75 -35.85 151.3 L-35.6 151.05 -35.15 150.25 -35.3 149.3 -35.65 148.65 Q-35.85 148.3 -36.2 148.1 L-36.95 147.85 Q-38.55 147.8 -39.25 147.1 M-47.4 147.05 Q-46.9 147.55 -46.9 148.3 -46.9 149.05 -47.4 149.6 -47.95 150.1 -48.75 150.1 -49.55 150.1 -50.05 149.6 -50.6 149.05 -50.6 148.3 -50.6 147.55 -50.05 147.05 -49.55 146.5 -48.75 146.5 -47.95 146.5 -47.4 147.05 M-48.55 153.95 Q-47.75 153.95 -47.2 154.5 -46.7 155.0 -46.7 155.75 -46.7 156.5 -47.2 157.05 -47.75 157.55 -48.55 157.55 -49.35 157.55 -49.85 157.05 -50.4 156.5 -50.4 155.75 -50.4 155.0 -49.85 154.5 -49.35 153.95 -48.55 153.95 M-57.4 160.2 L-57.35 160.4 -56.9 161.15 -56.05 161.5 -54.6 161.7 -54.2 162.15 -53.75 163.05 -53.35 163.5 -52.8 163.8 -51.75 164.1 -52.0 164.6 Q-52.25 165.1 -52.05 165.7 L-51.3 168.2 -52.55 169.65 -52.85 170.3 -52.8 171.05 -52.65 171.55 -52.35 172.1 -51.2 173.4 -52.25 175.05 -52.35 175.3 -53.35 177.65 -55.8 177.35 Q-56.35 177.3 -56.8 177.6 L-57.4 178.4 -57.65 179.15 -57.7 179.9 -57.4 180.55 -57.2 180.8 -57.4 182.45 -57.05 183.55 -56.1 184.75 -56.35 185.85 -57.7 186.15 Q-58.2 186.25 -58.55 186.65 -58.9 187.05 -58.9 187.6 L-58.55 188.55 -58.2 189.0 -59.05 191.05 -61.1 190.8 -61.95 189.3 -62.5 188.7 -63.25 188.5 Q-64.1 188.45 -64.7 187.7 -65.5 186.65 -65.5 185.25 L-65.5 185.1 Q-65.5 184.5 -65.9 184.05 -66.35 183.6 -66.95 183.6 L-68.85 183.55 -68.8 182.65 -67.5 181.9 -67.3 181.8 -66.55 181.2 -66.0 180.3 Q-65.9 179.8 -66.15 179.3 L-66.35 178.95 -66.2 178.0 -64.6 176.1 -64.25 175.35 -64.35 174.55 Q-64.5 174.15 -64.8 173.9 L-65.45 173.4 Q-65.9 173.1 -66.4 173.1 -68.0 173.1 -69.2 172.5 L-69.95 171.8 -69.3 171.15 Q-68.15 170.5 -66.5 170.5 L-65.7 170.3 -65.15 169.65 -64.55 168.4 -64.4 167.6 -64.7 166.85 -66.5 164.45 -66.1 163.3 -65.45 162.85 -64.05 162.85 -63.45 163.25 -63.4 163.35 -63.0 164.55 -63.55 165.95 Q-63.75 166.4 -63.6 166.9 L-63.05 167.7 -61.65 168.8 -60.8 169.1 -59.9 168.85 -58.65 168.0 -58.1 167.35 -58.0 166.45 Q-58.1 166.0 -58.45 165.7 L-58.75 165.4 -58.75 163.85 -58.95 163.1 Q-59.15 162.75 -59.5 162.55 L-60.8 161.8 -60.9 161.05 -61.2 160.35 -61.75 159.9 -62.45 159.55 -62.6 159.35 Q-62.9 158.85 -63.45 158.7 L-67.15 157.55 -67.15 157.5 -67.35 155.65 -66.55 154.8 -66.2 154.15 -66.15 153.45 -66.45 152.1 -66.1 151.2 -65.3 150.65 -63.05 151.9 -63.9 154.25 -63.95 155.1 -63.55 155.8 -63.3 156.05 -62.5 156.5 -61.6 156.4 -59.35 155.4 -57.8 156.7 -58.0 158.35 -57.85 159.15 -57.4 160.2 M-59.1 172.5 L-59.3 172.45 -61.2 171.85 -62.25 171.9 Q-62.8 172.15 -63.0 172.7 L-63.35 173.55 Q-63.6 174.05 -63.4 174.55 L-62.8 175.35 -61.8 176.0 -61.1 176.25 -57.1 176.6 -56.5 176.55 -56.0 176.2 -54.9 175.2 -54.4 174.4 Q-54.35 173.9 -54.55 173.5 L-55.15 172.8 -56.25 172.2 -57.1 172.0 -57.9 172.35 -58.5 172.8 -59.1 172.5 M-43.3 166.25 L-43.25 166.25 -40.75 166.45 -40.3 169.05 -41.35 169.45 -42.8 168.75 -43.4 167.3 -43.45 166.25 -43.3 166.25 M-46.9 169.55 L-46.8 169.4 -46.75 169.35 -46.7 169.4 -46.6 169.55 -46.7 169.75 -46.75 169.75 -46.8 169.75 -46.9 169.55 M-74.95 175.2 L-74.6 175.3 -74.5 175.35 -74.45 175.45 -74.3 175.7 -74.25 175.85 -74.3 175.95 -74.4 176.3 -74.4 176.4 -74.5 176.45 -74.8 176.6 -74.9 176.65 -75.05 176.6 -75.35 176.5 -75.45 176.5 -75.5 176.4 -75.65 176.1 -75.75 176.0 -75.7 175.85 -75.6 175.55 -75.55 175.45 -75.45 175.4 Q-75.35 175.25 -75.2 175.25 L-75.05 175.15 -74.95 175.2 M-79.75 187.7 L-79.85 187.8 -79.95 187.7 -79.85 187.6 -79.75 187.7 M-77.05 195.6 L-77.0 195.7 -77.0 195.85 -77.3 195.95 -77.55 195.85 -77.6 195.7 -77.55 195.6 -77.3 195.45 -77.05 195.6 M-40.95 183.95 L-41.1 183.8 -41.35 183.55 -41.7 183.3 -41.75 181.9 -40.45 181.65 -39.7 182.4 -40.75 184.2 -40.95 183.95 M-53.8 190.05 L-54.15 187.6 -53.15 187.2 -51.4 189.55 -52.65 190.55 -53.8 190.05 M-19.2 160.0 Q-19.95 160.0 -20.45 159.5 -21.0 158.95 -21.0 158.25 -21.0 157.55 -20.45 157.05 -19.95 156.5 -19.2 156.5 -18.45 156.5 -17.9 157.05 -17.4 157.55 -17.4 158.25 -17.4 158.95 -17.9 159.5 -18.45 160.0 -19.2 160.0 M-6.7 170.5 L-7.1 170.6 -7.45 170.5 -7.6 170.1 -7.45 169.75 Q-7.3 169.6 -7.1 169.6 L-6.7 169.75 -6.6 170.1 -6.7 170.5 M-27.8 159.0 Q-28.45 159.05 -28.85 159.5 L-30.5 161.35 -32.0 160.25 -29.7 157.9 -29.55 157.8 -28.15 156.0 -26.05 156.4 -26.0 157.0 Q-25.95 157.95 -26.3 158.5 -26.8 158.95 -27.8 159.0 M-227.3 72.5 L-227.25 72.45 -227.2 72.5 -227.3 72.5 M-227.05 72.5 L-227.2 72.35 -227.15 72.3 -226.75 72.5 -227.05 72.5 M-226.9 72.65 L-226.95 72.6 -226.9 72.55 -226.9 72.65 M-228.7 83.45 L-228.7 83.6 -228.8 83.6 -228.85 83.6 -228.9 83.45 -228.85 83.35 -228.8 83.3 -228.7 83.35 -228.7 83.45 M-242.5 85.35 L-242.7 85.8 -243.0 86.15 -243.3 86.35 -243.8 86.6 -244.5 86.75 -244.65 86.75 -244.8 86.75 -245.45 86.55 -245.95 85.95 -246.05 85.75 -245.25 85.55 -245.25 85.65 -245.25 85.55 -244.85 85.45 -245.2 85.3 -245.15 84.5 -245.35 84.75 -245.75 84.4 -245.3 84.3 -245.1 84.25 -244.45 84.35 -244.2 84.5 -244.4 85.05 -244.45 85.25 -244.5 85.65 -244.55 86.15 -244.2 85.95 Q-243.1 86.65 -243.4 86.2 L-243.5 85.65 -243.5 85.55 -242.5 85.35 M-234.25 86.25 L-233.9 86.45 -233.75 86.75 -233.9 87.1 -234.25 87.25 -234.55 87.1 -234.75 86.75 -234.55 86.45 -234.25 86.25 M-236.95 94.4 L-237.15 94.75 -237.5 94.95 -237.85 94.75 -238.05 94.4 -237.85 94.05 -237.5 93.85 -237.15 94.05 -236.95 94.4 M-230.7 90.25 L-230.9 90.2 -230.95 90.05 -230.9 89.95 -230.7 89.85 -230.5 89.95 -230.45 90.05 -230.5 90.2 -230.7 90.25 M-229.95 97.7 L-229.8 97.6 -229.6 97.7 -229.55 97.85 -229.6 98.05 -229.8 98.1 -229.95 98.05 -230.05 97.85 -229.95 97.7 M-226.5 94.0 L-226.5 94.05 -226.5 94.15 -226.7 94.2 -226.85 94.15 -226.9 94.05 -226.85 94.0 -226.7 93.9 -226.5 94.0 M-208.0 83.95 L-207.7 83.95 -208.5 84.4 -210.85 84.75 -212.65 84.35 -212.2 82.65 -212.2 81.9 -212.65 80.0 -211.9 79.55 -212.0 81.8 Q-212.0 82.4 -211.6 82.85 -211.2 83.3 -210.55 83.35 -208.95 83.45 -208.0 83.95 M-222.05 75.65 L-222.85 74.45 -221.9 74.75 -222.05 75.65 M-216.9 88.55 L-216.8 88.5 -216.65 88.55 -216.65 88.65 -216.65 88.8 -216.8 88.8 -216.9 88.8 -216.95 88.65 -216.9 88.55 M-214.2 95.95 Q-213.75 96.85 -213.65 98.4 L-213.65 98.45 Q-213.6 99.6 -214.0 100.65 L-214.2 101.05 Q-214.65 100.2 -214.75 98.7 -214.8 97.45 -214.35 96.35 L-214.2 95.95 M-185.85 77.95 L-186.35 77.8 -189.3 77.25 -189.7 75.55 -188.55 74.8 -186.2 76.3 -185.5 76.5 -182.05 76.75 Q-181.65 77.35 -181.85 78.15 L-181.9 78.2 Q-182.2 79.2 -183.1 79.65 L-185.85 77.95 M-191.25 86.6 Q-191.8 87.15 -192.65 87.15 -193.5 87.15 -194.05 86.6 -194.6 86.05 -194.6 85.25 -194.6 84.45 -194.05 83.9 -193.5 83.35 -192.65 83.35 -191.8 83.35 -191.25 83.9 -190.7 84.45 -190.7 85.25 -190.7 86.05 -191.25 86.6 M-193.9 91.3 L-190.9 93.45 -192.6 94.9 -194.3 93.5 -194.45 92.4 -193.9 91.3 M-171.5 77.45 Q-172.2 78.0 -173.5 78.0 L-174.35 78.25 -174.9 78.95 -174.95 79.8 -174.8 80.6 -175.2 81.6 -176.3 82.25 -177.5 82.25 -178.25 81.65 -178.1 80.45 Q-177.75 79.3 -176.55 78.95 L-176.4 78.9 -175.75 78.7 -175.1 78.35 -174.7 77.7 Q-174.15 75.75 -173.15 75.3 -172.3 75.1 -171.05 75.8 -171.0 76.9 -171.5 77.45 M-178.3 86.05 Q-177.5 86.05 -176.95 86.6 -176.45 87.1 -176.45 87.85 -176.45 88.6 -176.95 89.15 -177.5 89.65 -178.3 89.65 -179.1 89.65 -179.6 89.15 -180.15 88.6 -180.15 87.85 -180.15 87.1 -179.6 86.6 -179.1 86.05 -178.3 86.05 M-243.8 84.9 L-244.0 84.65 -244.2 84.5 -243.8 83.3 -242.75 84.45 -243.5 85.4 -243.8 84.9 M-245.55 84.95 L-245.65 84.75 -245.4 84.8 -245.55 84.95 -245.4 85.2 -245.65 85.1 -245.55 84.95 M-169.1 105.35 L-169.7 104.9 Q-169.35 104.3 -168.05 103.9 -166.2 103.25 -164.35 103.35 -163.5 103.4 -162.8 103.9 -162.15 104.3 -161.65 104.9 L-162.5 106.55 -165.05 106.35 Q-167.75 106.2 -169.1 105.35 M-180.75 107.65 L-182.7 107.7 -184.15 105.65 Q-184.5 105.2 -185.0 105.05 L-186.05 104.8 -187.05 103.75 Q-187.4 103.35 -187.85 103.3 L-188.8 103.4 -190.3 104.15 -192.25 103.65 -193.35 103.8 Q-193.9 104.05 -194.05 104.65 L-194.15 104.85 -194.95 105.3 -196.55 105.1 -196.55 105.05 -197.15 103.35 -197.15 101.7 -196.35 101.05 -195.0 101.1 -194.0 102.0 -193.25 102.35 -192.45 102.25 -190.15 101.4 -188.5 102.4 -187.65 102.6 Q-187.2 102.55 -186.8 102.3 L-186.3 101.55 Q-185.9 100.25 -185.2 99.7 L-184.3 99.65 Q-183.65 100.05 -183.35 100.95 -182.95 102.1 -183.1 103.1 L-183.05 103.9 -182.55 104.55 -180.3 106.25 -180.75 107.65 M-178.2 120.95 Q-178.75 121.45 -179.5 121.45 -180.25 121.45 -180.75 120.95 -181.3 120.4 -181.3 119.6 -181.3 118.8 -180.75 118.3 -180.25 117.75 -179.5 117.75 -178.75 117.75 -178.2 118.3 -177.7 118.8 -177.7 119.6 -177.7 120.4 -178.2 120.95 M-173.2 117.8 Q-173.2 117.05 -172.7 116.55 -172.2 116.05 -171.45 116.05 -170.7 116.05 -170.2 116.55 -169.7 117.05 -169.7 117.8 -169.7 118.55 -170.2 119.05 -170.7 119.55 -171.45 119.55 -172.2 119.55 -172.7 119.05 -173.2 118.55 -173.2 117.8 M-198.15 107.15 L-198.1 107.3 -197.8 107.9 -197.9 108.9 -198.8 109.7 -199.85 109.85 -199.85 109.7 -200.3 108.0 -198.15 107.15 M-188.2 117.65 Q-188.2 118.25 -188.6 118.7 -189.05 119.1 -189.65 119.1 -190.25 119.1 -190.65 118.7 L-191.1 117.65 Q-191.1 117.05 -190.65 116.65 -190.25 116.2 -189.65 116.2 -189.05 116.2 -188.6 116.65 -188.2 117.05 -188.2 117.65 M-207.85 109.7 L-207.2 109.45 Q-206.8 109.45 -206.55 109.7 -206.3 109.95 -206.3 110.35 L-206.55 111.0 Q-206.8 111.25 -207.2 111.25 L-207.85 111.0 -208.1 110.35 -207.85 109.7 M-29.3 200.65 L-28.85 200.4 -28.3 200.6 -28.0 201.2 -28.3 201.8 -28.7 202.0 Q-28.8 201.95 -29.25 201.85 L-29.6 201.2 -29.3 200.65 M-43.7 207.1 Q-43.15 207.3 -42.7 208.2 -42.1 209.5 -42.25 210.95 L-42.25 211.05 Q-42.4 213.75 -43.2 215.2 L-43.75 215.85 Q-44.4 215.55 -44.85 214.3 -45.55 212.45 -45.4 210.45 -45.3 208.65 -44.55 207.6 L-43.7 207.1 M-51.55 199.4 L-49.9 198.7 -51.1 201.35 -51.55 199.4 M-57.9 199.45 Q-57.9 200.25 -58.4 200.8 -58.95 201.3 -59.7 201.3 -60.45 201.3 -60.95 200.8 -61.5 200.25 -61.5 199.45 -61.5 198.65 -60.95 198.15 -60.45 197.6 -59.7 197.6 -58.95 197.6 -58.4 198.15 -57.9 198.65 -57.9 199.45 M-59.15 205.2 L-59.05 205.1 -58.95 205.2 -59.05 205.3 -59.15 205.2 M-53.3 208.25 L-54.15 207.9 Q-54.5 207.55 -54.5 207.05 -54.5 206.55 -54.15 206.2 -53.8 205.85 -53.3 205.85 -52.8 205.85 -52.45 206.2 -52.1 206.55 -52.1 207.05 -52.1 207.55 -52.45 207.9 -52.8 208.25 -53.3 208.25 M-54.75 212.15 L-54.65 212.2 -54.3 212.3 -54.2 212.35 -54.15 212.45 -54.0 212.7 -53.95 212.85 -54.0 212.95 -54.1 213.3 -54.1 213.4 -54.2 213.45 -54.5 213.6 -54.6 213.65 -54.75 213.6 -55.05 213.5 -55.15 213.5 -55.2 213.4 -55.35 213.1 -55.45 213.0 -55.4 212.85 -55.3 212.55 -55.25 212.45 -55.15 212.4 -54.9 212.25 -54.75 212.15 M-58.25 213.5 L-58.1 213.15 Q-58.0 213.0 -57.8 213.0 L-57.45 213.15 -57.35 213.5 -57.45 213.9 -57.8 214.0 -58.1 213.9 -58.25 213.5 M-67.9 205.05 L-67.5 205.7 -67.75 206.5 -68.25 206.75 -68.8 206.6 -69.2 205.9 -68.9 205.15 -68.4 204.9 -67.9 205.05 M-77.05 203.3 Q-77.6 202.75 -77.6 201.95 -77.6 201.15 -77.05 200.6 -76.5 200.05 -75.7 200.05 -74.9 200.05 -74.35 200.6 -73.8 201.15 -73.8 201.95 -73.8 202.75 -74.35 203.3 -74.9 203.85 -75.7 203.85 -76.5 203.85 -77.05 203.3 M-77.15 213.5 Q-77.5 213.8 -78.0 213.8 L-78.8 213.5 Q-79.15 213.15 -79.15 212.65 -79.15 212.15 -78.8 211.85 -78.5 211.5 -78.0 211.5 -77.5 211.5 -77.15 211.85 -76.85 212.15 -76.85 212.65 -76.85 213.15 -77.15 213.5 M-77.3 222.6 Q-77.1 222.6 -76.95 222.75 L-76.85 223.05 -76.95 223.4 -77.3 223.5 -77.6 223.4 -77.75 223.05 -77.6 222.75 Q-77.5 222.6 -77.3 222.6 M-64.65 240.6 L-65.05 240.75 -65.45 240.6 -65.6 240.25 -65.45 239.9 -65.05 239.75 Q-64.8 239.75 -64.65 239.9 -64.5 240.05 -64.5 240.25 L-64.65 240.6 M-41.45 236.0 Q-41.0 236.0 -40.7 236.3 -40.4 236.6 -40.4 237.1 -40.4 237.6 -40.7 237.9 -41.0 238.2 -41.45 238.2 L-42.2 237.9 -42.5 237.1 -42.2 236.3 -41.45 236.0 M-35.6 248.45 L-35.7 248.35 -35.6 248.25 -35.5 248.35 -35.6 248.45 M-86.15 218.8 L-85.95 218.45 -85.55 218.25 -85.1 218.45 -84.95 218.8 -85.1 219.2 -85.55 219.35 -85.95 219.2 -86.15 218.8 M-103.5 199.85 L-104.3 200.15 -105.1 199.85 -105.4 199.1 Q-105.4 198.65 -105.1 198.35 -104.8 198.05 -104.3 198.05 -103.8 198.05 -103.5 198.35 -103.2 198.65 -103.2 199.1 -103.2 199.55 -103.5 199.85 M-107.95 243.6 L-107.85 243.3 -107.8 243.2 -107.7 243.15 Q-107.6 243.0 -107.45 243.0 L-107.3 242.9 -107.2 242.95 -106.85 243.05 -106.75 243.1 -106.7 243.2 -106.55 243.45 -106.5 243.6 -106.55 243.7 -106.65 244.05 -106.65 244.15 -106.75 244.2 -107.05 244.35 -107.15 244.4 -107.3 244.35 -107.6 244.25 -107.7 244.25 -107.75 244.15 -107.9 243.85 -108.0 243.75 -107.95 243.6 M-82.8 223.5 L-82.75 223.55 -82.7 223.65 -82.75 223.75 -82.8 223.8 -82.85 223.75 -82.9 223.65 -82.85 223.55 -82.8 223.5 M-92.8 225.5 L-92.4 225.35 Q-92.15 225.35 -92.0 225.5 L-91.85 225.85 -92.0 226.2 -92.4 226.35 -92.8 226.2 -92.95 225.85 -92.8 225.5 M-120.9 252.95 L-121.0 252.85 -120.9 252.75 -120.8 252.85 -120.9 252.95" fill="#ccffcc" fill-rule="evenodd" stroke="none"/>
  </g>
  <defs>
    <radialGradient cx="0" cy="0" gradientTransform="matrix(0.0795, 0.0, 0.0, 0.0795, -56.75, 150.7)" gradientUnits="userSpaceOnUse" id="gradient0" r="819.2" spreadMethod="pad">
      <stop offset="0.2196078431372549" stop-color="#00cc99" stop-opacity="0.5019608"/>
      <stop offset="0.6509803921568628" stop-color="#218383" stop-opacity="0.5019608"/>
    </radialGradient>
  </defs>
</svg>
