<?xml version="1.0" encoding="UTF-8" standalone="no"?>
<svg xmlns:xlink="http://www.w3.org/1999/xlink" height="102.1px" width="87.85px" xmlns="http://www.w3.org/2000/svg">
  <g transform="matrix(1.0, 0.0, 0.0, 1.0, 177.35, -99.9)">
    <path d="M-158.25 106.55 Q-149.95 109.45 -144.65 116.35 -141.95 119.85 -138.8 122.95 L-126.0 134.9 Q-123.7 137.0 -122.25 139.7 -117.85 147.7 -110.6 152.85 -103.5 157.9 -101.0 165.95 -100.0 169.2 -97.7 171.85 -91.8 178.6 -89.75 186.5 -89.0 189.45 -90.55 191.5 -94.55 196.85 -101.65 200.4 -111.15 205.15 -114.9 195.75 L-117.6 189.4 Q-121.2 181.45 -125.2 174.2 -129.5 166.4 -133.1 158.35 -136.45 150.85 -141.55 143.6 L-144.4 139.65 Q-149.65 132.85 -155.75 126.9 -161.85 120.95 -168.65 115.85 -171.1 114.0 -173.2 111.0 L-174.3 109.45 Q-175.1 107.55 -176.55 105.7 -176.75 103.6 -177.35 101.5 L-176.6 100.5 -176.25 99.95 -175.0 99.95 Q-174.8 99.95 -174.65 100.15 -168.35 103.55 -161.25 105.45 L-160.2 105.7 -158.25 106.55" fill="url(#gradient0)" fill-rule="evenodd" stroke="none"/>
  </g>
  <defs>
    <radialGradient cx="0" cy="0" gradientTransform="matrix(0.1212, 0.0, 0.0, 0.1212, -172.5, 93.95)" gradientUnits="userSpaceOnUse" id="gradient0" r="819.2" spreadMethod="pad">
      <stop offset="0.2196078431372549" stop-color="#00cc99" stop-opacity="0.5019608"/>
      <stop offset="0.6509803921568628" stop-color="#218383" stop-opacity="0.5019608"/>
    </radialGradient>
  </defs>
</svg>
