<?xml version="1.0" encoding="UTF-8" standalone="no"?>
<svg xmlns:xlink="http://www.w3.org/1999/xlink" height="226.55px" width="137.9px" xmlns="http://www.w3.org/2000/svg">
  <g transform="matrix(1.0, 0.0, 0.0, 1.0, -13.35, 52.85)">
    <path d="M22.25 8.75 L22.6 8.2 24.55 8.35 22.25 8.75 M42.35 27.6 Q42.6 29.45 43.55 31.0 46.45 35.65 47.85 40.75 L47.55 42.5 Q45.6 53.35 47.4 64.35 49.2 75.35 53.95 85.6 55.7 89.35 53.85 92.95 L53.45 93.85 Q54.15 103.95 56.0 116.45 57.85 128.95 56.65 137.65 55.4 146.3 55.9 157.2 56.15 163.1 52.15 167.75 44.4 176.7 33.1 172.2 21.25 167.45 22.45 154.65 23.55 143.05 21.55 132.0 20.4 125.8 20.5 119.85 20.75 109.15 20.4 94.8 18.7 87.45 17.95 79.6 16.9 68.2 14.5 57.15 13.5 52.7 13.35 48.4 L14.3 44.05 Q15.8 36.45 18.0 29.2 L18.4 28.85 Q20.75 26.7 22.35 23.95 L27.65 23.0 Q31.05 22.45 34.1 23.55 38.45 25.15 42.35 27.6 M40.55 -20.05 L41.5 -20.1 41.5 -18.8 40.95 -19.15 39.55 -20.05 40.55 -20.05 M32.5 -52.85 L32.55 -50.15 32.0 -50.25 32.5 -52.85" fill="url(#gradient0)" fill-rule="evenodd" stroke="none"/>
    <path d="M116.6 70.85 Q120.05 71.35 122.9 68.95 129.8 63.1 138.5 60.55 143.45 59.05 148.55 57.9 149.75 59.3 151.25 60.35 L145.7 66.35 Q142.7 69.35 140.6 72.85 L139.15 73.95 Q131.75 79.05 125.1 85.0 118.45 90.95 112.75 97.75 L109.6 101.7 Q104.05 108.95 100.4 116.45 96.5 124.5 91.8 132.3 87.45 139.55 83.5 147.5 L80.6 153.85 Q76.5 163.25 66.15 158.5 58.4 154.95 54.05 149.6 52.35 147.55 53.15 144.6 55.4 136.7 61.85 129.95 64.35 127.3 65.45 124.05 68.15 116.0 75.9 110.95 83.8 105.8 88.6 97.8 90.15 95.1 92.7 93.0 L106.65 81.05 Q110.05 77.95 113.0 74.45 114.65 72.45 116.6 70.85" fill="url(#gradient1)" fill-rule="evenodd" stroke="none"/>
  </g>
  <defs>
    <radialGradient cx="0" cy="0" gradientTransform="matrix(0.2216, 0.0, 0.0, 0.2216, 30.05, -7.2)" gradientUnits="userSpaceOnUse" id="gradient0" r="819.2" spreadMethod="pad">
      <stop offset="0.2196078431372549" stop-color="#00cc99" stop-opacity="0.5019608"/>
      <stop offset="0.6509803921568628" stop-color="#218383" stop-opacity="0.5019608"/>
    </radialGradient>
    <radialGradient cx="0" cy="0" gradientTransform="matrix(-0.1321, 0.0, 0.0, 0.1212, 143.35, 52.05)" gradientUnits="userSpaceOnUse" id="gradient1" r="819.2" spreadMethod="pad">
      <stop offset="0.2196078431372549" stop-color="#00cc99" stop-opacity="0.5019608"/>
      <stop offset="0.6509803921568628" stop-color="#218383" stop-opacity="0.5019608"/>
    </radialGradient>
  </defs>
</svg>
