<?xml version="1.0" encoding="UTF-8" standalone="no"?>
<svg xmlns:xlink="http://www.w3.org/1999/xlink" height="284.15px" width="366.45px" xmlns="http://www.w3.org/2000/svg">
  <g transform="matrix(1.0, 0.0, 0.0, 1.0, 192.55, 34.5)">
    <path d="M-65.65 183.0 L-63.55 183.6 -67.1 184.3 -67.45 182.45 -65.65 183.0 M-45.15 145.9 L-44.75 145.35 Q-43.3 146.0 -42.0 146.9 -31.65 153.75 -31.55 162.9 -31.4 175.15 -30.0 186.05 -28.55 197.65 -32.0 208.0 -34.4 215.15 -44.05 210.35 -44.5 197.1 -45.6 185.65 -46.45 176.65 -46.8 167.9 -45.1 159.55 -46.35 150.9 -46.75 148.15 -45.15 145.9" fill="url(#gradient0)" fill-rule="evenodd" stroke="none"/>
    <path d="M30.2 -28.4 Q30.4 -28.05 30.75 -27.85 L31.5 -27.65 Q32.7 -27.65 33.55 -26.95 34.25 -26.35 34.25 -25.5 L34.3 -25.25 31.75 -24.65 30.45 -26.3 29.9 -26.75 29.3 -26.9 27.45 -26.9 27.0 -29.75 27.25 -29.8 Q29.15 -30.2 30.2 -28.4 M36.05 -31.4 Q35.5 -30.9 34.7 -30.9 33.9 -30.9 33.4 -31.4 32.85 -31.95 32.85 -32.7 32.85 -33.45 33.4 -33.95 33.9 -34.5 34.7 -34.5 35.5 -34.5 36.05 -33.95 36.55 -33.45 36.55 -32.7 36.55 -31.95 36.05 -31.4 M36.5 -24.1 L39.3 -24.6 40.3 -23.6 40.55 -23.4 43.85 -21.25 Q43.3 -20.55 42.65 -20.3 41.55 -20.2 40.1 -21.2 L39.25 -21.5 Q38.1 -21.5 37.3 -22.25 36.5 -22.95 36.5 -23.9 L36.5 -24.1 M33.9 -15.7 L33.95 -15.7 34.0 -15.65 34.95 -14.0 33.1 -12.7 Q32.0 -12.9 31.4 -13.9 31.1 -14.4 31.05 -14.95 32.25 -15.9 33.9 -15.7 M39.05 -14.3 L40.9 -13.85 41.15 -13.4 Q41.7 -12.55 41.7 -12.0 L41.15 -11.45 Q40.65 -11.2 40.45 -10.65 40.25 -10.15 40.45 -9.6 L40.8 -8.7 40.75 -8.75 Q41.15 -7.3 40.0 -6.7 L39.95 -6.65 39.1 -6.35 37.1 -7.45 38.45 -9.9 38.6 -10.55 38.5 -11.2 37.6 -13.3 39.05 -14.3 M21.9 -19.1 Q21.1 -19.1 20.6 -19.6 20.05 -20.15 20.05 -20.9 20.05 -21.65 20.6 -22.15 21.1 -22.7 21.9 -22.7 22.7 -22.7 23.25 -22.15 23.75 -21.65 23.75 -20.9 23.75 -20.15 23.25 -19.6 22.7 -19.1 21.9 -19.1 M40.25 -2.5 L43.4 -3.3 Q43.85 -3.4 44.15 -3.75 L44.5 -4.65 44.55 -5.35 46.7 -6.9 47.7 -4.05 44.8 -2.85 Q44.3 -2.7 44.05 -2.2 L43.0 -0.25 40.5 -0.85 40.25 -2.5 M171.3 38.95 Q171.75 38.25 172.95 37.9 L173.25 37.9 Q174.2 39.1 173.75 40.45 L171.55 41.2 171.4 41.25 Q170.95 39.8 171.3 38.95 M171.85 46.45 Q170.6 47.4 169.7 47.35 168.9 47.05 168.25 45.8 168.35 44.75 168.9 44.0 169.35 43.4 170.0 43.35 L170.65 43.2 170.85 43.55 171.25 44.05 171.85 46.45 M168.25 54.6 L168.25 54.75 Q168.25 55.6 167.6 56.2 166.8 56.85 165.75 56.85 165.15 56.85 164.7 57.3 L164.35 57.55 164.3 57.6 Q162.5 58.75 161.25 57.0 L161.1 56.8 161.1 56.5 Q161.1 55.85 161.65 55.4 162.3 54.85 163.25 54.85 L164.25 54.5 Q164.7 54.1 164.75 53.55 165.05 50.95 165.9 49.8 166.25 49.35 166.6 49.4 167.35 49.8 167.8 51.2 168.4 53.0 168.25 54.6 M139.45 46.1 Q138.9 45.55 138.9 44.8 138.9 44.05 139.45 43.55 139.95 43.0 140.75 43.0 141.55 43.0 142.1 43.55 142.6 44.05 142.6 44.8 142.6 45.55 142.1 46.1 141.55 46.6 140.75 46.6 139.95 46.6 139.45 46.1 M152.45 36.15 Q153.95 35.55 155.25 36.7 L156.0 37.65 156.45 38.1 Q156.7 38.3 157.05 38.35 L159.6 38.7 159.6 41.3 159.55 41.3 Q157.55 42.05 156.65 39.8 L156.05 39.1 Q155.6 38.8 155.1 38.85 153.75 39.0 153.05 38.5 152.45 37.85 152.45 36.55 L152.45 36.15 M156.7 49.0 L155.6 50.45 Q155.4 50.65 155.35 50.9 L154.55 53.2 152.85 53.25 151.95 51.3 152.75 50.1 153.0 49.6 Q153.4 47.5 155.45 47.15 L155.55 47.1 155.65 47.1 Q156.6 47.8 156.7 49.0 M111.75 72.95 Q112.25 72.4 113.05 72.4 113.85 72.4 114.4 72.95 114.9 73.45 114.9 74.2 114.9 74.95 114.4 75.5 113.85 76.0 113.05 76.0 112.25 76.0 111.75 75.5 111.2 74.95 111.2 74.2 111.2 73.45 111.75 72.95 M120.35 53.95 Q120.9 53.4 121.7 53.4 122.5 53.4 123.05 53.95 123.6 54.5 123.6 55.25 123.6 56.0 123.05 56.55 122.5 57.1 121.7 57.1 120.9 57.1 120.35 56.55 119.8 56.0 119.8 55.25 119.8 54.5 120.35 53.95 M89.6 92.05 L89.25 92.2 88.9 92.05 88.75 91.65 Q88.75 91.4 88.9 91.25 89.05 91.1 89.25 91.1 L89.6 91.25 89.75 91.65 89.6 92.05 M114.65 84.1 L114.3 83.05 116.75 79.1 Q118.3 80.3 118.1 83.1 L118.0 84.4 Q117.95 84.85 118.2 85.3 L119.2 86.9 119.05 87.65 Q117.95 88.95 116.2 88.85 L115.6 88.95 112.3 90.2 111.9 89.4 Q111.45 88.1 112.3 87.1 L113.65 86.7 114.45 86.15 114.75 85.25 114.75 84.6 114.65 84.1 M105.45 90.0 Q105.95 90.5 105.95 91.2 105.95 91.9 105.45 92.45 104.9 92.95 104.15 92.95 103.4 92.95 102.9 92.45 102.35 91.9 102.35 91.2 102.35 90.5 102.9 90.0 103.4 89.45 104.15 89.45 104.9 89.45 105.45 90.0 M105.1 97.35 L106.6 97.35 109.4 97.8 108.75 100.0 107.05 100.75 Q106.55 100.9 106.3 101.35 106.05 101.8 106.1 102.3 106.2 103.2 105.75 103.85 L105.7 103.9 Q105.15 104.55 104.3 104.55 L104.2 104.55 102.8 102.6 103.9 100.6 104.1 99.7 103.95 98.35 105.1 97.35 M119.1 87.55 L119.15 87.5 119.1 87.55 M119.8 95.3 Q119.8 94.6 120.35 94.1 120.85 93.55 121.6 93.55 122.35 93.55 122.9 94.1 123.4 94.6 123.4 95.3 123.4 96.0 122.9 96.55 122.35 97.05 121.6 97.05 120.85 97.05 120.35 96.55 119.8 96.0 119.8 95.3 M155.3 59.3 L155.3 59.25 Q155.45 56.95 157.7 56.85 L158.55 57.55 157.95 59.8 157.6 59.95 Q156.35 60.15 155.3 59.55 L155.3 59.3 M150.75 67.45 Q150.75 66.65 151.3 66.1 151.85 65.55 152.7 65.55 153.55 65.55 154.1 66.1 154.65 66.65 154.65 67.45 154.65 68.25 154.1 68.8 153.55 69.35 152.7 69.35 151.85 69.35 151.3 68.8 150.75 68.25 150.75 67.45 M147.6 72.25 Q148.1 71.7 148.85 71.7 149.6 71.7 150.15 72.25 150.65 72.75 150.65 73.5 150.65 74.25 150.15 74.8 149.6 75.3 148.85 75.3 148.1 75.3 147.6 74.8 147.05 74.25 147.05 73.5 147.05 72.75 147.6 72.25 M136.05 58.6 Q136.6 58.05 137.4 58.05 138.2 58.05 138.75 58.6 139.3 59.15 139.3 59.9 139.3 60.65 138.75 61.2 138.2 61.75 137.4 61.75 136.6 61.75 136.05 61.2 135.5 60.65 135.5 59.9 135.5 59.15 136.05 58.6 M139.5 66.9 L140.7 67.45 141.1 68.25 140.45 70.1 139.3 70.5 138.3 70.15 138.2 69.9 137.6 69.3 136.75 69.1 135.95 69.4 135.55 69.65 135.45 69.65 133.5 69.8 Q132.9 69.45 132.55 68.6 L132.7 68.4 132.7 68.35 Q134.2 66.4 136.35 67.65 L137.3 67.85 138.15 67.4 138.55 67.0 139.5 66.9 M136.35 79.45 Q137.2 79.45 137.75 80.0 138.3 80.55 138.3 81.35 138.3 82.15 137.75 82.7 137.2 83.25 136.35 83.25 135.5 83.25 134.95 82.7 134.4 82.15 134.4 81.35 134.4 80.55 134.95 80.0 135.5 79.45 136.35 79.45 M130.65 92.25 L132.5 93.1 133.15 93.25 133.8 93.1 Q135.55 92.2 136.5 92.5 137.2 92.95 137.4 94.4 L137.35 94.4 137.35 94.6 Q136.75 95.25 135.85 95.35 134.9 95.2 134.15 94.5 133.7 94.1 133.15 94.1 132.55 94.1 132.15 94.45 L128.85 94.55 128.75 94.4 128.65 93.55 130.65 92.25 M154.2 80.05 Q154.7 80.55 154.7 81.3 154.7 82.05 154.2 82.6 153.65 83.1 152.85 83.1 152.05 83.1 151.55 82.6 151.0 82.05 151.0 81.3 151.0 80.55 151.55 80.05 152.05 79.5 152.85 79.5 153.65 79.5 154.2 80.05 M67.4 5.8 Q67.9 5.25 68.7 5.25 69.5 5.25 70.05 5.8 70.55 6.3 70.55 7.05 70.55 7.8 70.05 8.35 69.5 8.85 68.7 8.85 67.9 8.85 67.4 8.35 66.85 7.8 66.85 7.05 66.85 6.3 67.4 5.8 M40.7 10.85 L36.75 8.65 37.05 7.95 37.05 7.9 Q37.25 7.3 37.8 7.1 L41.5 7.75 43.5 8.5 40.7 10.85 M50.6 17.1 Q51.45 17.3 52.2 18.35 L51.85 19.15 49.15 19.8 Q48.65 19.9 48.35 20.3 47.35 21.5 46.05 21.2 L45.9 21.2 45.35 19.7 48.15 18.05 48.25 18.0 Q49.55 17.05 50.6 17.1 M41.35 16.35 Q41.35 17.15 40.8 17.7 40.25 18.25 39.5 18.25 38.75 18.25 38.2 17.7 37.65 17.15 37.65 16.35 37.65 15.55 38.2 15.0 38.75 14.45 39.5 14.45 40.25 14.45 40.8 15.0 41.35 15.55 41.35 16.35 M51.0 28.6 Q50.45 29.1 49.7 29.1 48.95 29.1 48.45 28.6 47.9 28.05 47.9 27.3 47.9 26.55 48.45 26.05 48.95 25.5 49.7 25.5 50.45 25.5 51.0 26.05 51.5 26.55 51.5 27.3 51.5 28.05 51.0 28.6 M42.95 31.85 Q43.5 31.3 44.3 31.3 45.1 31.3 45.65 31.85 46.2 32.4 46.2 33.2 46.2 34.0 45.65 34.55 45.1 35.1 44.3 35.1 43.5 35.1 42.95 34.55 42.4 34.0 42.4 33.2 42.4 32.4 42.95 31.85 M40.75 43.5 Q39.45 44.05 38.15 44.05 L34.85 42.45 35.15 39.35 35.75 39.15 37.0 39.45 37.7 40.15 Q38.1 40.55 38.6 40.6 40.5 40.8 41.5 41.6 42.0 42.0 42.0 42.45 L40.75 43.5 M29.4 13.3 Q29.85 12.8 30.6 12.8 31.35 12.8 31.85 13.3 32.3 13.75 32.3 14.45 32.3 15.15 31.85 15.65 31.35 16.1 30.6 16.1 29.85 16.1 29.4 15.65 28.9 15.15 28.9 14.45 28.9 13.75 29.4 13.3 M5.9 30.75 Q5.1 30.75 4.55 30.2 4.0 29.65 4.0 28.85 4.0 28.05 4.55 27.5 5.1 26.95 5.9 26.95 6.7 26.95 7.25 27.5 7.8 28.05 7.8 28.85 7.8 29.65 7.25 30.2 6.7 30.75 5.9 30.75 M5.35 45.6 L5.4 46.5 4.5 46.75 3.7 45.8 5.35 45.6 M24.55 25.9 Q25.05 26.4 25.05 27.15 25.05 27.9 24.55 28.45 24.0 28.95 23.2 28.95 22.4 28.95 21.9 28.45 21.35 27.9 21.35 27.15 21.35 26.4 21.9 25.9 22.4 25.35 23.2 25.35 24.0 25.35 24.55 25.9 M24.35 47.3 Q24.85 47.8 24.85 48.55 24.85 49.3 24.35 49.85 23.8 50.35 23.0 50.35 22.2 50.35 21.7 49.85 21.15 49.3 21.15 48.55 21.15 47.8 21.7 47.3 22.2 46.75 23.0 46.75 23.8 46.75 24.35 47.3 M32.35 61.25 Q31.8 61.8 31.05 61.8 30.3 61.8 29.75 61.25 29.2 60.7 29.2 59.9 29.2 59.1 29.75 58.55 30.3 58.0 31.05 58.0 31.8 58.0 32.35 58.55 32.9 59.1 32.9 59.9 32.9 60.7 32.35 61.25 M38.7 60.8 Q39.5 60.8 40.05 61.35 40.6 61.9 40.6 62.7 40.6 63.5 40.05 64.05 39.5 64.6 38.7 64.6 37.9 64.6 37.35 64.05 36.8 63.5 36.8 62.7 36.8 61.9 37.35 61.35 37.9 60.8 38.7 60.8 M9.8 66.55 L9.75 66.55 9.7 66.55 9.6 66.35 9.7 66.2 9.75 66.15 9.8 66.2 9.9 66.35 9.8 66.55 M3.85 70.15 L4.0 70.5 3.85 70.85 3.45 71.0 3.05 70.85 2.9 70.5 3.05 70.15 Q3.2 70.0 3.45 70.0 L3.85 70.15 M34.7 98.25 L33.9 97.95 Q33.6 97.65 33.6 97.15 33.6 96.65 33.9 96.35 34.2 96.05 34.7 96.05 35.2 96.05 35.5 96.35 L35.8 97.15 35.5 97.95 34.7 98.25 M61.75 56.65 Q61.75 57.45 61.2 58.0 60.65 58.55 59.85 58.55 59.05 58.55 58.5 58.0 57.95 57.45 57.95 56.65 57.95 55.85 58.5 55.3 59.05 54.75 59.85 54.75 60.65 54.75 61.2 55.3 61.75 55.85 61.75 56.65 M51.25 55.15 Q51.0 55.7 51.2 56.3 51.4 56.85 51.95 57.1 53.1 57.7 53.45 58.5 53.55 59.25 53.05 60.3 L51.3 60.45 49.95 58.65 50.0 58.55 49.9 57.65 49.25 56.95 48.4 56.75 Q47.25 56.85 46.35 56.25 45.6 55.75 45.5 55.05 45.4 54.35 45.95 53.85 46.7 53.15 47.95 53.1 L48.65 52.9 49.15 52.4 49.85 51.3 51.45 51.6 52.5 52.25 51.25 55.15 M50.4 71.15 Q50.55 71.0 50.75 71.0 50.95 71.0 51.1 71.15 L51.25 71.55 51.1 71.95 50.75 72.1 50.4 71.95 50.25 71.55 Q50.25 71.3 50.4 71.15 M40.65 71.35 L39.6 69.55 41.25 68.4 42.1 69.55 40.65 71.35 M53.0 78.75 Q53.8 78.75 54.35 79.3 54.85 79.8 54.85 80.55 54.85 81.3 54.35 81.85 53.8 82.35 53.0 82.35 52.2 82.35 51.7 81.85 51.15 81.3 51.15 80.55 51.15 79.8 51.7 79.3 52.2 78.75 53.0 78.75 M54.5 85.55 Q54.85 85.2 55.35 85.2 55.85 85.2 56.2 85.55 56.55 85.9 56.55 86.4 L56.2 87.25 Q55.85 87.6 55.35 87.6 54.85 87.6 54.5 87.25 54.15 86.9 54.15 86.4 54.15 85.9 54.5 85.55 M41.25 86.4 L41.5 86.5 41.55 86.7 41.5 86.95 41.25 87.0 41.05 86.95 40.95 86.7 41.05 86.5 41.25 86.4 M40.85 76.2 L39.3 75.9 40.55 74.2 41.5 75.4 40.85 76.2 M46.1 92.0 Q46.1 92.75 45.6 93.3 45.05 93.8 44.25 93.8 43.45 93.8 42.95 93.3 42.4 92.75 42.4 92.0 42.4 91.25 42.95 90.75 43.45 90.2 44.25 90.2 45.05 90.2 45.6 90.75 46.1 91.25 46.1 92.0 M50.6 93.25 L50.75 93.6 50.6 93.95 50.2 94.1 49.8 93.95 49.65 93.6 Q49.65 93.4 49.8 93.25 L50.2 93.1 50.6 93.25 M74.95 106.35 L75.55 106.75 75.05 107.05 75.3 106.8 74.95 106.35 M79.6 107.4 L79.6 107.15 80.0 107.05 79.6 107.4 M79.6 106.7 L79.5 105.4 81.35 106.8 80.4 107.0 79.6 106.7 M80.35 121.6 Q80.35 121.1 80.7 120.8 81.0 120.45 81.5 120.45 82.0 120.45 82.35 120.8 L82.65 121.6 82.35 122.45 81.5 122.75 80.7 122.45 Q80.35 122.1 80.35 121.6 M42.6 122.45 L43.0 122.95 42.75 123.95 42.1 124.25 Q41.55 124.5 41.35 125.1 L40.7 126.9 41.2 125.2 41.25 124.55 41.05 123.15 42.6 122.45 M47.95 122.15 Q47.6 121.8 47.6 121.35 47.6 120.9 47.95 120.6 48.25 120.25 48.75 120.25 49.25 120.25 49.6 120.6 49.9 120.9 49.9 121.35 L49.6 122.15 48.75 122.45 Q48.25 122.45 47.95 122.15 M55.25 133.45 L55.35 133.4 Q55.45 133.25 55.6 133.25 L55.75 133.15 55.85 133.2 56.2 133.3 56.3 133.35 56.35 133.45 56.5 133.7 56.55 133.85 56.5 133.95 56.4 134.3 56.4 134.4 56.3 134.45 56.0 134.6 55.9 134.65 55.75 134.6 55.45 134.5 55.35 134.5 55.3 134.4 55.15 134.1 55.05 134.0 55.1 133.85 55.2 133.55 55.25 133.45 M49.3 129.65 L49.6 130.2 49.3 130.75 48.75 131.05 48.2 130.75 47.9 130.2 48.2 129.65 48.75 129.35 49.3 129.65 M46.8 144.45 L46.7 144.35 46.8 144.25 46.9 144.35 46.8 144.45 M55.0 139.85 L55.15 140.1 55.2 140.25 55.15 140.35 55.05 140.7 55.05 140.8 54.95 140.85 54.65 141.0 54.55 141.05 54.4 141.0 54.1 140.9 54.0 140.9 53.95 140.8 53.8 140.5 53.7 140.4 53.75 140.25 53.85 139.95 53.9 139.85 54.0 139.8 Q54.1 139.65 54.25 139.65 L54.4 139.55 54.5 139.6 54.85 139.7 54.95 139.75 55.0 139.85 M62.3 140.5 L62.2 140.3 62.3 140.15 62.35 140.1 62.4 140.15 62.5 140.3 62.4 140.5 62.35 140.5 62.3 140.5 M63.25 148.35 L63.35 148.05 63.4 147.95 63.5 147.9 Q63.6 147.75 63.75 147.75 L63.9 147.65 64.0 147.7 64.35 147.8 64.45 147.85 64.5 147.95 64.65 148.2 64.7 148.35 64.65 148.45 64.55 148.8 64.55 148.9 64.45 148.95 64.15 149.1 64.05 149.15 63.9 149.1 63.6 149.0 63.5 149.0 63.45 148.9 63.3 148.6 63.2 148.5 63.25 148.35 M71.75 142.35 L71.65 142.75 71.25 142.85 70.9 142.75 70.75 142.35 70.9 142.0 Q71.05 141.85 71.25 141.85 71.45 141.85 71.65 142.0 L71.75 142.35 M15.0 132.1 L15.2 132.2 15.2 132.25 15.2 132.3 15.0 132.4 14.85 132.3 14.8 132.25 14.85 132.2 15.0 132.1 M1.9 125.2 L1.95 125.35 1.9 125.45 1.8 125.8 1.8 125.9 1.7 125.95 1.4 126.1 1.3 126.15 1.15 126.1 0.85 126.0 0.75 126.0 0.7 125.9 0.55 125.6 0.45 125.5 0.5 125.35 0.6 125.05 0.65 124.95 0.75 124.9 Q0.85 124.75 1.0 124.75 L1.15 124.65 1.25 124.7 1.6 124.8 1.7 124.85 1.75 124.95 1.9 125.2 M36.1 129.8 L36.2 129.85 36.25 129.95 36.4 130.2 36.45 130.35 36.4 130.45 36.3 130.8 36.3 130.9 36.2 130.95 35.9 131.1 35.8 131.15 35.65 131.1 35.35 131.0 35.25 131.0 35.2 130.9 35.05 130.6 34.95 130.5 35.0 130.35 35.1 130.05 35.15 129.95 35.25 129.9 Q35.35 129.75 35.5 129.75 L35.65 129.65 35.75 129.7 36.1 129.8 M31.95 124.5 L31.85 124.5 31.85 124.45 31.7 124.35 31.85 124.0 31.75 124.15 31.65 124.0 31.95 123.65 31.85 124.0 32.1 123.65 32.05 124.5 31.95 124.5 M32.05 124.5 L32.05 124.55 32.0 124.5 32.05 124.5 M30.75 126.15 L30.7 127.9 29.6 127.9 29.45 126.85 30.75 126.15 30.75 125.55 Q30.75 125.05 31.1 124.65 L31.45 124.2 31.55 124.35 31.6 124.4 31.65 124.45 31.75 124.55 31.6 124.55 31.4 124.55 31.3 124.6 31.4 124.6 31.75 124.65 31.8 124.6 31.85 124.65 31.95 124.8 31.9 124.65 32.0 124.7 32.0 124.75 31.75 125.45 31.2 125.95 30.75 126.15 M31.6 124.05 L31.6 124.3 31.45 124.2 31.6 124.05 M34.25 145.35 L34.6 145.45 34.7 145.5 34.75 145.6 34.9 145.85 34.95 146.0 34.9 146.1 34.8 146.45 34.8 146.55 34.7 146.6 34.4 146.75 34.3 146.8 34.15 146.75 33.85 146.65 33.75 146.65 33.7 146.55 33.55 146.25 33.45 146.15 33.5 146.0 33.6 145.7 33.65 145.6 33.75 145.55 Q33.85 145.4 34.0 145.4 L34.15 145.3 34.25 145.35 M18.35 190.25 L18.25 190.1 18.35 190.0 18.45 189.9 18.6 190.0 18.65 190.1 18.6 190.25 18.45 190.3 18.35 190.25 M79.95 160.25 Q80.1 160.1 80.35 160.1 L80.75 160.25 80.9 160.6 80.75 160.95 80.35 161.1 79.95 160.95 79.8 160.6 79.95 160.25 M66.25 153.6 L66.3 153.65 66.1 153.8 66.25 153.6 M66.55 153.5 L67.1 153.2 67.0 153.95 67.3 153.45 67.9 154.55 67.85 154.55 66.95 154.0 66.55 153.5 M57.45 149.9 L57.35 150.0 57.25 149.9 57.35 149.8 57.45 149.9 M57.3 154.3 L57.35 154.35 57.3 154.4 57.2 154.45 57.1 154.4 57.05 154.35 57.1 154.3 57.2 154.25 57.3 154.3 M50.7 154.25 L50.65 154.35 50.55 154.7 50.55 154.8 50.45 154.85 50.15 155.0 50.05 155.05 49.9 155.0 49.6 154.9 49.5 154.9 49.45 154.8 49.3 154.5 49.2 154.4 49.25 154.25 49.35 153.95 49.4 153.85 49.5 153.8 Q49.6 153.65 49.75 153.65 L49.9 153.55 50.0 153.6 50.35 153.7 50.45 153.75 50.5 153.85 50.65 154.1 50.7 154.25 M50.05 166.7 L50.15 166.65 50.25 166.7 50.3 166.8 50.25 166.9 50.15 166.95 50.05 166.9 50.0 166.8 50.05 166.7 M43.15 162.8 L43.2 162.95 43.15 163.15 42.95 163.2 42.8 163.15 42.7 162.95 42.8 162.8 42.95 162.7 43.15 162.8 M41.6 184.4 L41.7 184.35 41.8 184.4 41.85 184.45 41.8 184.5 41.7 184.55 41.6 184.5 41.55 184.45 41.6 184.4 M51.1 189.35 L51.0 189.45 50.9 189.35 51.0 189.25 51.1 189.35 M119.1 104.0 Q119.6 104.5 119.6 105.3 119.6 106.1 119.1 106.65 118.55 107.15 117.75 107.15 116.95 107.15 116.45 106.65 115.9 106.1 115.9 105.3 115.9 104.5 116.45 104.0 116.95 103.45 117.75 103.45 118.55 103.45 119.1 104.0 M113.45 110.15 Q113.95 110.65 113.95 111.4 113.95 112.15 113.45 112.7 112.9 113.2 112.15 113.2 111.4 113.2 110.9 112.7 110.35 112.15 110.35 111.4 110.35 110.65 110.9 110.15 111.4 109.6 112.15 109.6 112.9 109.6 113.45 110.15 M102.9 123.15 Q102.35 123.65 101.55 123.65 100.75 123.65 100.25 123.15 99.7 122.6 99.7 121.85 99.7 121.1 100.25 120.6 100.75 120.05 101.55 120.05 102.35 120.05 102.9 120.6 103.4 121.1 103.4 121.85 103.4 122.6 102.9 123.15 M91.5 101.45 L91.15 102.3 90.3 102.65 Q89.8 102.65 89.45 102.3 89.1 101.95 89.1 101.45 89.1 100.95 89.45 100.6 89.8 100.25 90.3 100.25 90.8 100.25 91.15 100.6 91.5 100.95 91.5 101.45 M93.3 107.5 Q92.95 107.15 92.95 106.65 92.95 106.15 93.3 105.8 93.65 105.45 94.15 105.45 94.65 105.45 95.0 105.8 95.35 106.15 95.35 106.65 95.35 107.15 95.0 107.5 94.65 107.85 94.15 107.85 93.65 107.85 93.3 107.5 M87.3 106.9 L87.35 106.8 87.4 106.75 87.45 106.8 87.5 106.9 87.45 107.0 87.4 107.05 87.35 107.0 87.3 106.9 M88.05 114.6 Q88.2 114.45 88.4 114.45 88.6 114.45 88.8 114.6 L88.9 114.9 88.8 115.25 88.4 115.35 88.05 115.25 87.9 114.9 Q87.9 114.7 88.05 114.6 M86.85 141.65 Q86.5 142.0 85.95 142.0 85.4 142.0 85.05 141.65 84.7 141.3 84.7 140.8 84.7 140.3 85.05 139.95 85.4 139.6 85.95 139.6 86.5 139.6 86.85 139.95 87.2 140.3 87.2 140.8 87.2 141.3 86.85 141.65 M89.9 147.6 Q89.9 148.15 89.55 148.5 89.2 148.85 88.65 148.85 L87.75 148.5 Q87.4 148.15 87.4 147.6 87.4 147.05 87.75 146.7 88.1 146.35 88.65 146.35 89.2 146.35 89.55 146.7 89.9 147.05 89.9 147.6 M84.5 154.65 L84.75 155.3 84.5 156.0 83.8 156.25 Q83.4 156.25 83.15 156.0 82.85 155.7 82.85 155.3 82.85 154.9 83.15 154.65 83.4 154.35 83.8 154.35 84.2 154.35 84.5 154.65 M61.85 212.9 L61.95 212.8 62.05 212.9 61.95 213.0 61.85 212.9 M44.75 220.7 L44.8 220.85 44.75 220.95 44.65 221.3 44.65 221.4 44.55 221.45 44.25 221.6 44.15 221.65 44.0 221.6 43.7 221.5 43.6 221.5 43.55 221.4 43.4 221.1 43.3 221.0 43.35 220.85 43.45 220.55 43.5 220.45 43.6 220.4 43.85 220.25 44.0 220.15 44.1 220.2 44.45 220.3 44.55 220.35 44.6 220.45 44.75 220.7 M18.75 207.05 L18.85 207.1 19.2 207.2 19.3 207.25 19.35 207.35 19.5 207.6 19.55 207.75 19.5 207.85 19.4 208.2 19.4 208.3 19.3 208.35 19.0 208.5 18.9 208.55 18.75 208.5 18.45 208.4 18.35 208.4 18.3 208.3 18.15 208.0 18.05 207.9 18.1 207.75 18.2 207.45 18.25 207.35 18.35 207.3 Q18.45 207.15 18.6 207.15 L18.75 207.05 M-159.45 97.6 Q-158.7 97.6 -158.15 98.15 -157.65 98.65 -157.65 99.45 -157.65 100.25 -158.15 100.8 -158.7 101.3 -159.45 101.3 -160.2 101.3 -160.7 100.8 -161.25 100.25 -161.25 99.45 -161.25 98.65 -160.7 98.15 -160.2 97.6 -159.45 97.6 M-120.95 122.55 Q-120.95 123.25 -121.45 123.8 -122.0 124.3 -122.75 124.3 -123.5 124.3 -124.0 123.8 -124.55 123.25 -124.55 122.55 -124.55 121.85 -124.0 121.35 -123.5 120.8 -122.75 120.8 -122.0 120.8 -121.45 121.35 -120.95 121.85 -120.95 122.55 M-106.4 125.75 L-106.4 125.85 -106.5 126.45 -107.35 126.45 -106.4 125.65 -106.4 125.75 M-86.85 145.1 L-86.75 145.05 -86.5 144.9 -86.35 144.8 -86.25 144.85 -85.9 144.95 -85.8 145.0 -85.75 145.1 -85.6 145.35 -85.55 145.5 -85.6 145.6 -85.7 145.95 -85.7 146.05 -85.8 146.1 -86.1 146.25 -86.2 146.3 -86.35 146.25 -86.65 146.15 -86.75 146.15 -86.8 146.05 -86.95 145.75 -87.05 145.65 -87.0 145.5 -86.9 145.2 -86.85 145.1 M-131.0 107.35 L-132.1 107.35 -133.25 105.05 -132.7 104.15 -130.25 104.9 -130.25 106.75 -131.0 107.35 M-123.3 111.3 L-124.85 112.15 -124.9 111.95 Q-125.1 111.85 -125.25 111.8 L-123.7 110.45 -123.3 111.3 M-137.4 101.15 L-137.55 99.9 -136.35 99.0 -134.1 99.7 -134.4 101.75 -137.4 101.15 M-140.25 116.4 Q-141.1 116.4 -141.65 115.85 -142.2 115.3 -142.2 114.45 -142.2 113.6 -141.65 113.05 -141.1 112.5 -140.25 112.5 -139.4 112.5 -138.85 113.05 -138.3 113.6 -138.3 114.45 -138.3 115.3 -138.85 115.85 -139.4 116.4 -140.25 116.4 M-149.55 106.85 Q-149.9 107.4 -151.15 107.85 L-154.8 108.35 Q-157.3 108.2 -158.55 107.4 L-159.1 106.85 Q-158.75 106.3 -157.55 105.85 -155.85 105.2 -154.1 105.35 -151.5 105.5 -150.15 106.35 L-149.55 106.85 M-156.75 117.65 Q-157.3 118.15 -158.05 118.15 -158.8 118.15 -159.3 117.65 -159.85 117.1 -159.85 116.35 -159.85 115.6 -159.3 115.1 -158.8 114.55 -158.05 114.55 -157.3 114.55 -156.75 115.1 -156.25 115.6 -156.25 116.35 -156.25 117.1 -156.75 117.65 M-154.4 132.6 L-153.0 133.25 -154.3 136.45 Q-154.55 137.0 -154.3 137.6 L-153.15 140.4 -154.45 141.4 -154.65 141.3 Q-155.8 140.8 -155.8 139.75 -155.7 138.75 -155.15 137.95 L-154.9 137.2 Q-154.9 136.75 -155.05 136.4 -155.25 136.05 -155.6 135.85 L-156.25 135.45 -156.8 134.3 -156.45 133.3 -154.4 132.6 M-133.4 126.15 L-133.4 127.5 -133.2 128.2 Q-132.4 129.7 -133.8 130.65 L-133.7 130.65 -134.55 131.1 -136.1 130.45 -136.6 128.45 -136.45 126.85 -133.4 126.15 M-134.7 143.8 L-134.45 144.15 -133.75 144.65 -132.9 144.75 -131.25 144.35 -129.55 145.5 -128.7 145.75 -127.85 145.5 Q-126.2 144.3 -124.9 145.85 L-124.85 145.9 -124.45 146.4 -126.1 147.9 -128.0 146.8 -129.05 146.65 Q-129.6 146.75 -129.95 147.2 L-130.0 147.25 Q-131.25 148.2 -132.65 147.65 L-133.6 147.55 Q-134.1 147.65 -134.4 148.05 L-134.75 148.9 Q-134.9 151.0 -136.25 152.25 -138.4 149.85 -137.95 146.15 L-137.2 143.55 -134.7 143.8 M-123.95 151.3 Q-123.45 150.75 -122.65 150.75 -121.85 150.75 -121.3 151.3 -120.8 151.8 -120.8 152.55 -120.8 153.3 -121.3 153.85 -121.85 154.35 -122.65 154.35 -123.45 154.35 -123.95 153.85 -124.5 153.3 -124.5 152.55 -124.5 151.8 -123.95 151.3 M-138.75 157.55 Q-139.25 158.05 -140.0 158.05 -140.75 158.05 -141.25 157.55 -141.75 157.05 -141.75 156.3 -141.75 155.55 -141.25 155.05 -140.75 154.55 -140.0 154.55 -139.25 154.55 -138.75 155.05 -138.25 155.55 -138.25 156.3 -138.25 157.05 -138.75 157.55 M-129.15 172.35 Q-128.65 172.85 -128.65 173.6 -128.65 174.35 -129.15 174.9 -129.7 175.4 -130.5 175.4 -131.3 175.4 -131.8 174.9 -132.35 174.35 -132.35 173.6 -132.35 172.85 -131.8 172.35 -131.3 171.8 -130.5 171.8 -129.7 171.8 -129.15 172.35 M-147.95 161.2 Q-147.45 161.7 -147.45 162.45 -147.45 163.2 -147.95 163.75 -148.5 164.25 -149.2 164.25 -149.9 164.25 -150.4 163.75 -150.95 163.2 -150.95 162.45 -150.95 161.7 -150.4 161.2 -149.9 160.65 -149.2 160.65 -148.5 160.65 -147.95 161.2 M-81.7 152.5 L-81.75 152.6 -81.85 152.95 -81.85 153.05 -81.95 153.1 -82.25 153.25 -82.35 153.3 -82.5 153.25 -82.8 153.15 -82.9 153.15 -82.95 153.05 -83.1 152.75 -83.2 152.65 -83.15 152.5 -83.05 152.2 -83.0 152.1 -82.9 152.05 -82.65 151.9 -82.5 151.8 -82.4 151.85 -82.05 151.95 -81.95 152.0 -81.9 152.1 -81.75 152.35 -81.7 152.5 M-98.35 157.7 L-98.5 157.35 -98.35 157.0 -97.95 156.85 Q-97.7 156.85 -97.55 157.0 L-97.4 157.35 -97.55 157.7 Q-97.7 157.85 -97.95 157.85 L-98.35 157.7 M-94.35 166.6 L-94.2 166.25 -93.85 166.1 Q-93.65 166.1 -93.45 166.25 L-93.35 166.6 -93.45 167.0 -93.85 167.1 -94.2 167.0 -94.35 166.6 M-99.95 164.1 Q-99.45 164.1 -99.1 164.45 -98.75 164.8 -98.75 165.3 -98.75 165.8 -99.1 166.15 -99.45 166.5 -99.95 166.5 L-100.8 166.15 Q-101.15 165.8 -101.15 165.3 -101.15 164.8 -100.8 164.45 -100.45 164.1 -99.95 164.1 M-108.6 150.25 L-107.75 151.0 -107.55 151.55 -109.2 152.45 -109.65 150.85 -108.6 150.25 M-113.8 171.5 Q-113.8 170.95 -113.45 170.6 -113.1 170.25 -112.6 170.25 -112.1 170.25 -111.75 170.6 -111.4 170.95 -111.4 171.5 -111.4 172.05 -111.75 172.4 -112.1 172.75 -112.6 172.75 -113.1 172.75 -113.45 172.4 -113.8 172.05 -113.8 171.5 M-121.3 176.6 Q-121.85 176.05 -121.85 175.3 -121.85 174.55 -121.3 174.05 -120.8 173.5 -120.0 173.5 -119.2 173.5 -118.65 174.05 -118.15 174.55 -118.15 175.3 -118.15 176.05 -118.65 176.6 -119.2 177.1 -120.0 177.1 -120.8 177.1 -121.3 176.6 M-101.65 195.35 L-102.6 195.6 -102.8 194.15 -101.9 193.95 -101.65 195.35 M-104.0 197.85 L-103.75 197.85 -103.5 199.0 -106.0 199.5 Q-107.75 199.4 -108.7 198.85 L-109.1 198.75 Q-108.9 198.5 -108.2 198.25 L-105.5 197.85 -105.4 197.85 -104.0 197.85 M-85.9 182.2 Q-85.45 182.65 -85.45 183.3 -85.45 183.95 -85.9 184.45 -86.4 184.9 -87.1 184.9 -87.8 184.9 -88.25 184.45 -88.75 183.95 -88.75 183.3 -88.75 182.65 -88.25 182.2 -87.8 181.7 -87.1 181.7 -86.4 181.7 -85.9 182.2 M-90.25 192.55 L-90.1 192.15 Q-89.95 192.0 -89.75 192.0 -89.55 192.0 -89.4 192.15 -89.25 192.3 -89.25 192.55 L-89.4 192.95 -89.75 193.1 -90.1 192.95 -90.25 192.55 M-15.75 109.2 L-15.4 109.3 -15.3 109.35 -15.25 109.45 -15.1 109.7 -15.05 109.85 -15.1 109.95 -15.2 110.3 -15.2 110.4 -15.3 110.45 -15.6 110.6 -15.7 110.65 -15.85 110.6 -16.15 110.5 -16.25 110.5 -16.3 110.4 -16.45 110.1 -16.55 110.0 -16.5 109.85 -16.4 109.55 -16.35 109.45 -16.25 109.4 -16.0 109.25 -15.85 109.15 -15.75 109.2 M-3.55 112.25 L-3.25 112.8 -3.55 113.35 -4.1 113.65 -4.65 113.35 -4.95 112.8 -4.65 112.25 -4.1 111.95 -3.55 112.25 M-39.0 148.1 L-40.35 149.9 -40.65 150.65 -40.8 153.75 -42.6 154.2 -42.6 154.15 Q-43.15 153.4 -43.05 152.55 -42.95 151.55 -42.15 150.8 L-41.8 150.15 -41.8 149.4 Q-42.45 146.85 -40.1 146.2 L-39.0 148.1 M-63.2 148.45 L-63.2 148.5 Q-63.1 149.25 -63.4 149.9 L-66.1 150.85 Q-66.75 151.05 -67.0 151.6 L-67.6 152.9 -70.45 152.7 -70.75 152.05 -70.3 150.7 -67.95 149.95 -67.65 149.8 -63.7 147.55 Q-63.3 147.85 -63.2 148.45 M-55.6 142.8 Q-55.1 143.3 -55.1 144.05 -55.1 144.8 -55.6 145.35 -56.15 145.85 -56.95 145.85 -57.75 145.85 -58.25 145.35 -58.8 144.8 -58.8 144.05 -58.8 143.3 -58.25 142.8 -57.75 142.25 -56.95 142.25 -56.15 142.25 -55.6 142.8 M-46.8 142.1 Q-46.0 142.1 -45.45 142.65 -44.9 143.2 -44.9 144.0 -44.9 144.8 -45.45 145.35 -46.0 145.9 -46.8 145.9 -47.6 145.9 -48.15 145.35 -48.7 144.8 -48.7 144.0 -48.7 143.2 -48.15 142.65 -47.6 142.1 -46.8 142.1 M-48.55 159.6 Q-47.25 160.25 -47.2 161.6 L-49.35 163.45 -49.75 164.0 -49.9 164.6 Q-49.9 165.95 -50.45 166.95 L-51.15 167.5 Q-51.75 167.5 -52.2 167.95 -52.65 168.4 -52.65 169.0 -52.65 170.1 -53.1 170.9 L-53.4 171.25 -53.85 171.35 -56.95 172.35 Q-57.4 172.45 -57.65 172.85 L-58.0 173.65 -58.25 176.5 -58.15 177.1 -58.05 177.45 -58.4 177.95 -58.65 178.65 -58.9 178.45 -60.05 177.8 -61.35 174.8 -59.95 173.25 -59.75 173.25 -59.25 173.25 Q-58.65 173.25 -58.2 172.8 -57.75 172.35 -57.75 171.75 -57.75 171.15 -58.2 170.7 L-58.35 170.55 Q-58.7 170.2 -59.1 170.15 L-60.0 170.25 -60.35 170.4 -60.4 170.4 -62.1 168.85 -60.6 166.25 Q-60.35 165.8 -60.4 165.25 -60.5 164.75 -60.9 164.4 L-63.25 162.3 -60.35 160.05 -59.9 159.55 -59.75 158.85 Q-59.75 158.05 -59.3 157.5 -59.05 157.1 -58.65 157.1 L-57.8 156.85 -57.35 156.55 -56.5 156.6 -55.7 156.45 -55.1 155.9 -54.9 155.1 Q-54.9 153.6 -54.25 152.55 -53.85 151.9 -53.3 151.8 -52.8 151.85 -52.35 152.45 -51.7 153.5 -51.75 155.0 L-51.55 155.75 -50.95 156.35 -49.9 156.9 -49.3 158.7 -49.0 159.25 -48.55 159.6 M-57.75 160.6 Q-58.35 160.65 -58.75 161.1 -59.15 161.5 -59.15 162.1 L-59.15 162.65 -59.75 163.5 Q-60.05 163.9 -60.0 164.45 L-59.65 165.35 -58.8 165.85 -57.15 166.2 -56.4 167.35 -55.85 167.85 -55.15 168.0 -54.9 168.0 Q-54.3 168.0 -53.85 167.55 -53.4 167.1 -53.4 166.5 -53.4 165.2 -52.85 164.3 -52.55 163.85 -52.25 163.75 L-51.4 163.5 -50.85 162.85 -50.75 162.0 -50.9 161.1 Q-50.95 160.8 -51.15 160.55 L-51.6 160.1 -53.2 159.1 Q-53.55 158.85 -53.95 158.85 L-54.7 159.05 -55.95 159.7 -56.15 159.85 -57.05 160.55 -57.75 160.6 M-41.4 163.0 Q-40.55 163.0 -40.0 163.55 -39.45 164.1 -39.45 164.9 -39.45 165.7 -40.0 166.25 -40.55 166.8 -41.4 166.8 -42.25 166.8 -42.8 166.25 -43.35 165.7 -43.35 164.9 -43.35 164.1 -42.8 163.55 -42.25 163.0 -41.4 163.0 M-75.5 163.5 L-75.35 163.4 -75.25 163.45 -74.9 163.55 -74.8 163.6 -74.75 163.7 -74.6 163.95 -74.55 164.1 -74.6 164.2 -74.7 164.55 -74.7 164.65 -74.8 164.7 -75.1 164.85 -75.2 164.9 -75.35 164.85 -75.65 164.75 -75.75 164.75 -75.8 164.65 -75.95 164.35 -76.05 164.25 -76.0 164.1 -75.9 163.8 -75.85 163.7 -75.75 163.65 Q-75.65 163.5 -75.5 163.5 M-68.9 172.35 L-69.3 172.5 -69.7 172.35 -69.85 172.0 -69.7 171.65 -69.3 171.5 Q-69.05 171.5 -68.9 171.65 L-68.75 172.0 -68.9 172.35 M-69.4 180.25 Q-67.8 177.9 -65.55 179.25 L-65.05 179.65 -64.55 180.0 -63.55 180.4 -62.75 180.5 -62.5 180.45 -61.05 181.55 -59.95 181.85 Q-59.4 181.75 -59.0 181.3 L-58.5 180.7 -58.15 179.95 -58.15 179.9 -57.8 180.1 Q-56.4 180.85 -56.0 181.75 -55.85 182.55 -56.55 183.6 L-56.55 183.65 -57.0 184.15 -57.4 184.85 -58.15 187.35 -58.25 187.65 -58.3 187.6 Q-58.7 187.35 -59.15 187.35 -60.05 187.35 -60.65 186.8 -61.25 186.25 -61.25 185.5 L-61.45 184.7 Q-61.7 184.35 -62.1 184.15 L-62.9 184.0 -63.3 184.05 -63.45 183.9 Q-63.75 183.7 -64.1 183.65 L-66.7 183.15 -67.45 183.2 -68.1 183.6 -68.6 184.2 -69.85 184.3 -70.95 183.65 -71.1 181.55 -69.75 180.55 -69.4 180.25 M-75.65 178.1 L-75.55 178.0 -75.45 178.1 -75.55 178.2 -75.65 178.1 M-80.9 181.55 L-81.0 181.35 -80.9 181.2 -80.8 181.1 -80.65 181.2 -80.6 181.35 -80.65 181.55 -80.8 181.6 -80.9 181.55 M-73.5 184.95 L-73.4 184.9 -73.15 184.75 -73.0 184.65 -72.9 184.7 -72.55 184.8 -72.45 184.85 -72.4 184.95 -72.25 185.2 -72.2 185.35 -72.25 185.45 -72.35 185.8 -72.35 185.9 -72.45 185.95 -72.75 186.1 -72.85 186.15 -73.0 186.1 -73.3 186.0 -73.4 186.0 -73.45 185.9 -73.6 185.6 -73.7 185.5 -73.65 185.35 -73.55 185.05 -73.5 184.95 M-72.0 191.1 L-69.85 190.9 -69.3 191.25 -68.9 191.45 -68.1 191.8 Q-67.0 192.4 -66.75 193.2 -66.75 194.0 -67.55 195.1 L-71.8 193.45 -72.7 193.0 Q-73.0 192.85 -73.25 192.85 L-77.0 192.15 -77.35 192.0 -77.3 191.95 Q-76.4 191.45 -74.8 191.2 L-72.35 191.1 -72.0 191.1 M-68.1 197.4 L-68.0 197.45 -67.65 198.05 -68.0 198.65 -68.1 198.7 -68.4 198.85 -68.7 198.7 -68.8 198.65 -69.15 198.05 -68.8 197.45 -68.7 197.4 -68.4 197.25 -68.1 197.4 M-54.0 189.25 L-53.5 188.85 -52.05 189.0 -51.55 188.95 -49.15 188.4 -48.45 189.2 -48.4 189.25 Q-48.1 189.8 -47.95 190.55 L-50.05 191.8 -51.1 191.05 -52.2 190.8 -53.85 191.05 -54.6 191.35 -55.05 192.0 -55.9 194.0 -56.0 194.2 -56.15 194.4 -56.4 194.75 -56.7 194.45 Q-57.4 193.4 -57.55 191.65 L-57.7 189.2 -57.65 188.95 -57.05 189.25 -55.3 189.6 -54.6 189.55 -54.0 189.25 M-50.1 197.2 L-50.0 197.35 -50.1 197.55 -50.15 197.55 -50.2 197.55 -50.3 197.35 -50.2 197.2 -50.15 197.15 -50.1 197.2 M-18.3 161.05 L-18.4 161.45 -18.8 161.55 -19.15 161.45 -19.3 161.05 -19.15 160.7 Q-19.0 160.55 -18.8 160.55 L-18.4 160.7 -18.3 161.05 M-24.8 157.4 L-24.45 157.45 Q-23.3 157.9 -22.95 158.6 -22.75 159.4 -23.45 160.65 L-23.65 161.4 -23.4 162.2 -22.4 163.65 -23.05 164.55 -24.05 164.25 -24.0 162.15 -24.1 161.5 -24.5 160.95 -25.0 160.5 Q-25.75 159.55 -25.7 158.75 -25.55 158.05 -24.8 157.4 M-28.35 165.45 L-28.3 165.4 -28.25 165.45 -28.15 165.6 -28.25 165.8 -28.3 165.8 -28.35 165.8 -28.45 165.6 -28.35 165.45 M-21.9 171.3 L-22.3 171.15 -22.45 170.75 -22.3 170.35 -21.9 170.2 Q-21.65 170.2 -21.5 170.35 -21.35 170.5 -21.35 170.75 L-21.5 171.15 -21.9 171.3 M-20.4 193.25 L-20.3 192.95 -20.25 192.85 -20.15 192.8 -19.9 192.65 -19.75 192.55 -19.65 192.6 -19.3 192.7 -19.2 192.75 -19.15 192.85 -19.0 193.1 -18.95 193.25 -19.0 193.35 -19.1 193.7 -19.1 193.8 -19.2 193.85 -19.5 194.0 -19.6 194.05 -19.75 194.0 -20.05 193.9 -20.15 193.9 -20.2 193.8 -20.35 193.5 -20.45 193.4 -20.4 193.25 M-15.1 188.1 L-14.8 187.55 -14.35 187.3 -13.8 187.5 -13.5 188.1 -13.8 188.7 -14.2 188.9 -14.75 188.75 -15.1 188.1 M-2.65 188.6 L-2.3 188.7 -2.2 188.75 -2.15 188.85 -2.0 189.1 -1.95 189.25 -2.0 189.35 -2.1 189.7 -2.1 189.8 -2.2 189.85 -2.5 190.0 -2.6 190.05 -2.75 190.0 -3.05 189.9 -3.15 189.9 -3.2 189.8 -3.35 189.5 -3.45 189.4 -3.4 189.25 -3.3 188.95 -3.25 188.85 -3.15 188.8 -2.9 188.65 -2.75 188.55 -2.65 188.6 M-190.8 80.4 L-190.85 80.4 Q-189.9 80.55 -189.45 81.1 -189.15 81.7 -189.35 82.7 L-189.3 83.6 -188.7 84.25 Q-186.8 85.55 -188.1 87.65 L-190.15 87.35 -190.5 84.65 -190.8 83.95 -192.55 81.75 -191.8 80.3 -190.8 80.4 M-189.35 94.8 L-186.5 94.5 -186.4 94.5 -184.35 94.55 -183.4 96.7 -184.25 97.6 Q-184.65 98.0 -184.65 98.55 L-184.3 99.55 Q-183.85 100.15 -183.8 101.05 L-183.8 101.1 Q-183.75 102.25 -184.75 102.95 -184.95 102.85 -185.1 102.8 L-185.15 102.8 Q-186.35 102.25 -186.6 101.5 -186.75 100.6 -185.9 99.35 -185.6 98.85 -185.65 98.35 -185.7 97.8 -186.1 97.4 -186.5 97.05 -187.05 97.0 L-190.5 96.35 Q-191.25 96.05 -191.5 95.7 L-191.35 95.65 Q-190.7 95.1 -189.35 94.8 M-171.4 82.7 Q-170.9 83.8 -171.1 84.4 -171.55 84.8 -172.65 84.95 -174.15 83.65 -173.35 81.9 -173.15 81.4 -173.3 80.9 -173.45 80.35 -173.85 80.05 L-175.3 79.0 -175.5 78.5 -175.95 77.95 -176.55 77.65 -176.95 77.5 -177.2 77.4 Q-179.2 76.65 -178.85 74.65 L-178.5 74.45 -178.6 74.5 Q-176.6 73.7 -175.25 75.7 L-174.6 76.25 -172.35 77.25 -172.75 80.35 -172.65 81.0 -172.3 81.55 -171.45 82.65 -171.4 82.7 M-172.25 97.3 Q-171.45 97.3 -170.9 97.85 -170.4 98.35 -170.4 99.1 -170.4 99.85 -170.9 100.4 -171.45 100.9 -172.25 100.9 -173.05 100.9 -173.55 100.4 -174.1 99.85 -174.1 99.1 -174.1 98.35 -173.55 97.85 -173.05 97.3 -172.25 97.3 M-175.3 110.5 Q-176.0 110.5 -176.5 110.0 -177.05 109.45 -177.05 108.7 -177.05 107.95 -176.5 107.45 -176.0 106.9 -175.3 106.9 -174.6 106.9 -174.05 107.45 -173.55 107.95 -173.55 108.7 -173.55 109.45 -174.05 110.0 -174.6 110.5 -175.3 110.5 M-173.25 116.65 Q-173.25 115.8 -172.7 115.25 -172.15 114.7 -171.3 114.7 -170.45 114.7 -169.9 115.25 -169.35 115.8 -169.35 116.65 -169.35 117.5 -169.9 118.05 -170.45 118.6 -171.3 118.6 -172.15 118.6 -172.7 118.05 -173.25 117.5 -173.25 116.65 M-183.15 134.05 Q-183.15 133.35 -182.7 132.9 -182.25 132.45 -181.55 132.45 -180.85 132.45 -180.4 132.9 -179.95 133.35 -179.95 134.05 -179.95 134.75 -180.4 135.2 -180.85 135.65 -181.55 135.65 L-182.7 135.2 Q-183.15 134.75 -183.15 134.05 M-165.65 128.25 Q-165.65 129.0 -166.15 129.5 -166.65 130.0 -167.4 130.0 -168.15 130.0 -168.65 129.5 -169.15 129.0 -169.15 128.25 -169.15 127.5 -168.65 127.0 -168.15 126.5 -167.4 126.5 -166.65 126.5 -166.15 127.0 -165.65 127.5 -165.65 128.25 M-173.1 139.2 Q-173.1 138.45 -172.6 138.0 -172.15 137.5 -171.4 137.5 -170.65 137.5 -170.15 138.0 -169.7 138.45 -169.7 139.2 -169.7 139.95 -170.15 140.45 -170.65 140.9 -171.4 140.9 -172.15 140.9 -172.6 140.45 -173.1 139.95 -173.1 139.2 M-33.45 200.05 L-33.35 200.0 -33.25 200.05 -33.2 200.15 -33.25 200.25 -33.35 200.3 -33.45 200.25 -33.5 200.15 -33.45 200.05 M-58.95 208.75 L-59.05 209.15 -59.35 208.5 -58.95 208.75 M-52.25 205.7 L-51.9 206.3 -52.25 206.9 -52.35 206.95 -52.65 207.1 -52.95 206.95 -53.05 206.9 -53.4 206.3 -53.05 205.7 -52.95 205.65 -52.65 205.5 -52.35 205.65 -52.25 205.7 M-59.45 222.15 Q-59.1 222.5 -59.1 223.05 -59.1 223.6 -59.45 223.95 -59.8 224.3 -60.3 224.3 L-61.15 223.95 -61.5 223.05 -61.15 222.15 Q-60.8 221.8 -60.3 221.8 -59.8 221.8 -59.45 222.15 M-47.45 222.4 Q-47.45 222.9 -47.8 223.25 -48.15 223.6 -48.65 223.6 L-49.5 223.25 -49.85 222.4 Q-49.85 221.9 -49.5 221.55 -49.15 221.2 -48.65 221.2 -48.15 221.2 -47.8 221.55 -47.45 221.9 -47.45 222.4 M-63.8 203.8 Q-62.45 203.7 -61.75 204.25 -61.2 204.95 -61.25 206.45 L-61.25 206.5 -61.8 206.6 Q-63.45 207.25 -64.5 205.95 L-64.6 204.55 -64.1 203.85 -63.8 203.8 M-69.65 203.85 Q-69.75 205.2 -70.95 205.95 L-73.35 205.1 -73.4 205.4 -73.65 206.1 -74.0 206.5 -74.25 206.65 -74.4 206.7 -75.05 206.75 -75.4 206.75 -75.4 206.5 -75.3 206.5 -75.4 206.45 -75.5 206.35 -75.6 206.4 -75.55 206.35 -75.5 206.25 -75.4 206.05 -75.65 206.25 -75.7 206.25 -75.9 206.1 -75.9 206.2 -75.9 206.25 -75.9 206.3 -75.9 206.35 -75.85 206.35 -75.8 206.35 -75.75 206.4 -75.7 206.4 -75.8 206.45 -75.85 206.4 -75.9 206.45 -75.95 206.5 -76.05 206.55 -75.9 206.5 -75.8 206.45 -75.65 206.4 -75.6 206.45 -75.5 206.45 -75.7 206.65 -75.7 206.7 -75.75 206.7 -75.7 206.65 -75.8 206.45 -75.95 206.8 -75.95 206.65 -76.4 206.6 -75.95 206.5 -75.9 206.45 -75.9 206.35 -76.15 206.25 -75.9 206.25 -76.05 206.0 -75.9 206.1 -75.5 205.4 -75.35 205.2 -74.85 204.95 -74.8 204.9 -73.9 204.95 -73.35 205.1 -73.3 204.0 -72.3 202.85 -70.55 202.85 -69.65 203.85 M-77.0 200.75 Q-77.55 201.3 -78.3 201.3 -79.05 201.3 -79.6 200.75 -80.15 200.2 -80.15 199.4 -80.15 198.6 -79.6 198.05 -79.05 197.5 -78.3 197.5 -77.55 197.5 -77.0 198.05 -76.45 198.6 -76.45 199.4 -76.45 200.2 -77.0 200.75 M-65.0 212.0 L-65.1 212.05 -65.2 212.0 -65.25 211.9 -65.2 211.8 -65.1 211.75 -65.0 211.8 -64.95 211.9 -65.0 212.0 M-68.15 217.35 L-66.45 217.25 -66.3 219.35 -68.0 219.25 -68.35 219.2 -68.35 219.15 -68.15 217.35 M-80.25 240.2 L-80.35 240.1 -80.25 240.0 -80.15 240.1 -80.25 240.2 M-69.3 241.0 L-69.35 241.0 -69.45 240.8 -69.35 240.65 -69.3 240.6 -69.25 240.65 -69.15 240.8 -69.25 241.0 -69.3 241.0 M-59.95 245.7 L-60.0 245.6 -59.95 245.5 -59.9 245.6 -59.95 245.7 M-61.85 248.45 L-61.7 248.7 -61.65 248.85 -61.7 248.95 -61.8 249.3 -61.8 249.4 -61.9 249.45 -62.2 249.6 -62.3 249.65 -62.45 249.6 -62.75 249.5 -62.85 249.5 -62.9 249.4 -63.05 249.1 -63.15 249.0 -63.1 248.85 -63.0 248.55 -62.95 248.45 -62.85 248.4 Q-62.75 248.25 -62.6 248.25 L-62.45 248.15 -62.35 248.2 -62.0 248.3 -61.9 248.35 -61.85 248.45 M-98.25 237.6 L-98.65 237.75 -99.05 237.6 -99.2 237.25 -99.05 236.9 -98.65 236.75 Q-98.4 236.75 -98.25 236.9 -98.1 237.05 -98.1 237.25 L-98.25 237.6 M-84.65 244.7 L-85.05 244.85 -85.45 244.7 -85.6 244.35 -85.45 244.0 -85.05 243.85 Q-84.8 243.85 -84.65 244.0 L-84.5 244.35 -84.65 244.7" fill="#ccffcc" fill-rule="evenodd" stroke="none"/>
  </g>
  <defs>
    <radialGradient cx="0" cy="0" gradientTransform="matrix(0.0795, 0.0, 0.0, 0.0795, -56.75, 150.7)" gradientUnits="userSpaceOnUse" id="gradient0" r="819.2" spreadMethod="pad">
      <stop offset="0.2196078431372549" stop-color="#00cc99" stop-opacity="0.5019608"/>
      <stop offset="0.6509803921568628" stop-color="#218383" stop-opacity="0.5019608"/>
    </radialGradient>
  </defs>
</svg>
