<?xml version="1.0" encoding="UTF-8" standalone="no"?>
<svg xmlns:xlink="http://www.w3.org/1999/xlink" height="99.35px" width="75.45px" xmlns="http://www.w3.org/2000/svg">
  <g transform="matrix(1.0, 0.0, 0.0, 1.0, 164.95, -102.65)">
    <path d="M-164.95 102.65 L-164.15 102.65 -164.05 102.8 -164.35 103.15 -164.95 102.65 M-120.1 146.25 L-117.6 147.1 -116.95 147.45 -116.45 147.75 Q-114.05 150.3 -111.15 152.45 L-103.5 160.35 Q-101.95 162.9 -101.0 165.95 -100.0 169.2 -97.7 171.85 -91.8 178.6 -89.75 186.5 -89.0 189.45 -90.55 191.5 -94.55 196.85 -101.65 200.4 -111.15 205.15 -114.9 195.75 L-117.6 189.4 Q-121.2 181.45 -125.2 174.2 -129.5 166.4 -133.1 158.35 -135.0 154.1 -137.45 149.9 L-137.05 148.65 -136.4 147.1 -131.1 145.5 Q-128.85 144.8 -127.7 143.15 L-127.35 143.3 -120.1 146.25" fill="url(#gradient0)" fill-rule="evenodd" stroke="none"/>
  </g>
  <defs>
    <radialGradient cx="0" cy="0" gradientTransform="matrix(0.1212, 0.0, 0.0, 0.1212, -172.5, 93.95)" gradientUnits="userSpaceOnUse" id="gradient0" r="819.2" spreadMethod="pad">
      <stop offset="0.2196078431372549" stop-color="#00cc99" stop-opacity="0.5019608"/>
      <stop offset="0.6509803921568628" stop-color="#218383" stop-opacity="0.5019608"/>
    </radialGradient>
  </defs>
</svg>
