<?xml version="1.0" encoding="UTF-8" standalone="no"?>
<svg xmlns:xlink="http://www.w3.org/1999/xlink" height="237.75px" width="122.6px" xmlns="http://www.w3.org/2000/svg">
  <g transform="matrix(1.0, 0.0, 0.0, 1.0, -20.45, 64.05)">
    <path d="M33.5 73.7 L34.2 73.35 Q42.0 83.45 46.75 95.65 47.75 98.2 49.55 100.15 L51.1 105.7 Q52.25 110.25 54.3 114.45 55.0 115.95 56.05 116.75 57.85 129.05 56.65 137.65 55.4 146.3 55.9 157.2 56.15 163.1 52.15 167.75 44.4 176.7 33.1 172.2 21.25 167.45 22.45 154.65 23.55 143.05 21.55 132.0 20.4 125.8 20.5 119.85 L20.45 96.4 20.45 95.45 Q21.0 91.25 23.0 87.55 L24.8 83.95 Q25.9 81.45 25.9 79.5 L29.0 75.05 Q31.35 74.7 33.5 73.7 M48.9 27.95 L48.9 28.25 48.15 27.85 48.9 27.95 M35.1 -63.85 L34.9 -63.8 34.95 -64.05 35.1 -63.85" fill="url(#gradient0)" fill-rule="evenodd" stroke="none"/>
    <path d="M143.05 58.2 L141.8 57.95 142.95 57.95 143.05 58.2 M90.45 96.95 L90.7 96.95 Q93.15 96.85 94.5 95.1 L106.55 94.3 107.6 95.4 108.0 95.85 107.2 98.1 Q106.05 102.3 106.75 105.7 103.05 111.0 100.4 116.45 96.5 124.5 91.8 132.3 87.45 139.55 83.5 147.5 L80.6 153.85 Q76.5 163.25 66.15 158.5 58.4 154.95 54.05 149.6 52.35 147.55 53.15 144.6 55.4 136.7 61.85 129.95 64.35 127.3 65.45 124.05 68.15 116.0 75.9 110.95 83.3 106.1 87.95 98.8 89.5 98.3 90.45 96.95" fill="url(#gradient1)" fill-rule="evenodd" stroke="none"/>
  </g>
  <defs>
    <radialGradient cx="0" cy="0" gradientTransform="matrix(0.2216, 0.0, 0.0, 0.2216, 30.05, -7.2)" gradientUnits="userSpaceOnUse" id="gradient0" r="819.2" spreadMethod="pad">
      <stop offset="0.2196078431372549" stop-color="#00cc99" stop-opacity="0.5019608"/>
      <stop offset="0.6509803921568628" stop-color="#218383" stop-opacity="0.5019608"/>
    </radialGradient>
    <radialGradient cx="0" cy="0" gradientTransform="matrix(-0.1321, 0.0, 0.0, 0.1212, 143.35, 52.05)" gradientUnits="userSpaceOnUse" id="gradient1" r="819.2" spreadMethod="pad">
      <stop offset="0.2196078431372549" stop-color="#00cc99" stop-opacity="0.5019608"/>
      <stop offset="0.6509803921568628" stop-color="#218383" stop-opacity="0.5019608"/>
    </radialGradient>
  </defs>
</svg>
