<?xml version="1.0" encoding="UTF-8" standalone="no"?>
<svg xmlns:xlink="http://www.w3.org/1999/xlink" height="236.5px" width="260.3px" xmlns="http://www.w3.org/2000/svg">
  <g transform="matrix(1.0, 0.0, 0.0, 1.0, 139.5, -21.4)">
    <path d="M-45.15 178.85 Q-44.2 178.85 -43.55 178.25 L-38.65 173.0 -35.2 170.95 -33.95 170.95 -33.45 171.45 -33.2 173.1 Q-32.45 175.95 -30.85 177.7 L-30.0 186.05 Q-28.55 197.65 -32.0 208.0 -34.4 215.15 -44.05 210.35 -44.5 197.1 -45.6 185.65 L-45.95 181.8 Q-45.35 180.2 -45.25 178.85 L-45.15 178.85 M-67.1 184.3 L-67.5 182.15 -66.0 184.05 -67.1 184.3 M-42.75 151.35 L-42.65 150.35 -42.35 150.65 -42.75 151.35" fill="url(#gradient0)" fill-rule="evenodd" stroke="none"/>
    <path d="M104.5 72.5 L104.4 72.9 104.0 73.0 103.65 72.9 103.5 72.5 103.65 72.15 104.0 72.0 Q104.2 72.0 104.4 72.15 L104.5 72.5 M118.95 67.6 Q119.75 67.6 120.3 68.15 120.8 68.65 120.8 69.4 120.8 70.15 120.3 70.7 119.75 71.2 118.95 71.2 118.15 71.2 117.65 70.7 117.1 70.15 117.1 69.4 117.1 68.65 117.65 68.15 118.15 67.6 118.95 67.6 M90.55 92.2 L89.05 92.65 87.4 91.05 88.5 89.05 88.7 89.15 90.15 89.75 90.75 90.9 90.55 92.2 M88.15 86.75 L87.9 86.4 88.2 86.65 88.15 86.75 M98.05 93.35 L97.7 94.2 96.85 94.55 Q96.35 94.55 96.0 94.2 95.65 93.85 95.65 93.35 95.65 92.85 96.0 92.5 96.35 92.15 96.85 92.15 97.35 92.15 97.7 92.5 98.05 92.85 98.05 93.35 M115.1 79.3 Q116.7 79.85 116.3 81.35 L116.3 81.3 115.95 82.3 113.85 82.75 112.45 81.25 Q112.2 81.0 111.95 80.9 L111.35 80.75 111.15 80.45 Q110.75 79.75 110.75 78.75 L110.6 78.05 110.1 77.5 108.5 76.5 108.75 75.4 110.1 75.4 110.6 76.7 111.05 77.25 Q111.3 77.5 111.65 77.55 L113.9 78.1 114.45 78.8 Q114.7 79.15 115.1 79.3 M104.75 89.8 L105.05 90.3 104.75 90.85 103.85 91.15 102.95 90.85 102.65 90.3 102.95 89.8 Q103.35 89.45 103.85 89.45 104.35 89.45 104.75 89.8 M107.25 93.3 L109.65 94.4 109.25 99.6 108.7 102.15 107.4 102.45 105.75 100.65 106.35 99.45 106.5 98.75 106.5 96.35 106.45 95.95 106.1 94.65 106.35 93.85 107.25 93.3 M42.65 42.25 Q43.15 41.7 43.95 41.7 44.75 41.7 45.3 42.25 45.8 42.75 45.8 43.5 45.8 44.25 45.3 44.8 44.75 45.3 43.95 45.3 43.15 45.3 42.65 44.8 42.1 44.25 42.1 43.5 42.1 42.75 42.65 42.25 M29.2 21.95 Q29.7 21.4 30.5 21.4 31.3 21.4 31.85 21.95 32.35 22.45 32.35 23.25 32.35 24.05 31.85 24.6 31.3 25.1 30.5 25.1 29.7 25.1 29.2 24.6 28.65 24.05 28.65 23.25 28.65 22.45 29.2 21.95 M19.75 29.8 Q19.75 29.3 20.1 28.95 20.45 28.6 20.95 28.6 21.45 28.6 21.8 28.95 22.15 29.3 22.15 29.8 L21.8 30.65 Q21.45 31.0 20.95 31.0 20.45 31.0 20.1 30.65 19.75 30.3 19.75 29.8 M11.2 40.7 Q11.7 40.7 12.05 41.05 L12.4 41.85 12.05 42.65 Q11.7 43.0 11.2 43.0 10.7 43.0 10.35 42.65 10.0 42.3 10.0 41.85 10.0 41.4 10.35 41.05 10.7 40.7 11.2 40.7 M26.7 33.3 Q27.45 33.3 28.0 33.85 28.5 34.35 28.5 35.05 28.5 35.75 28.0 36.3 27.45 36.8 26.7 36.8 25.95 36.8 25.45 36.3 24.9 35.75 24.9 35.05 24.9 34.35 25.45 33.85 25.95 33.3 26.7 33.3 M36.9 37.9 L36.75 37.5 36.9 37.15 Q37.05 37.0 37.25 37.0 37.45 37.0 37.65 37.15 L37.75 37.5 37.65 37.9 37.25 38.0 36.9 37.9 M38.05 60.65 Q37.6 59.35 37.95 58.5 38.45 57.75 39.8 57.4 L40.9 59.25 39.8 60.7 Q39.45 61.2 39.55 61.8 L39.7 62.95 38.35 63.6 37.6 62.6 38.0 61.75 38.05 60.65 M28.85 56.6 Q28.3 57.15 27.45 57.15 26.6 57.15 26.05 56.6 25.5 56.05 25.5 55.25 25.5 54.45 26.05 53.9 26.6 53.35 27.45 53.35 28.3 53.35 28.85 53.9 29.4 54.45 29.4 55.25 29.4 56.05 28.85 56.6 M36.75 85.8 L36.9 85.5 Q37.05 85.35 37.25 85.35 37.45 85.35 37.65 85.5 L37.75 85.8 37.65 86.15 37.25 86.25 36.9 86.15 36.75 85.8 M25.65 94.5 L25.75 94.85 25.65 95.25 25.25 95.35 24.9 95.25 24.75 94.85 24.9 94.5 25.25 94.35 Q25.45 94.35 25.65 94.5 M50.0 66.0 L49.85 66.35 49.45 66.5 49.05 66.35 48.9 66.0 49.05 65.65 Q49.2 65.5 49.45 65.5 L49.85 65.65 50.0 66.0 M41.55 76.0 Q41.55 75.25 42.1 74.7 42.65 74.15 43.45 74.15 44.25 74.15 44.8 74.7 45.35 75.25 45.35 76.0 45.35 76.75 44.8 77.3 44.25 77.85 43.45 77.85 42.65 77.85 42.1 77.3 41.55 76.75 41.55 76.0 M40.85 92.65 Q40.5 92.3 40.5 91.8 40.5 91.3 40.85 90.95 41.2 90.6 41.7 90.6 42.2 90.6 42.55 90.95 42.9 91.3 42.9 91.8 42.9 92.3 42.55 92.65 42.2 93.0 41.7 93.0 41.2 93.0 40.85 92.65 M54.9 97.75 L54.85 97.7 54.9 97.7 54.9 97.75 M80.7 108.35 Q80.85 108.2 81.05 108.2 81.25 108.2 81.45 108.35 L81.55 108.7 81.45 109.1 81.05 109.2 80.7 109.1 80.55 108.7 80.7 108.35 M69.0 105.05 Q69.1 104.9 69.25 104.9 L69.4 104.8 69.5 104.85 69.85 104.95 69.95 105.0 70.0 105.1 70.15 105.35 70.2 105.5 70.15 105.6 70.05 105.95 70.05 106.05 69.95 106.1 69.65 106.25 69.55 106.3 69.4 106.25 69.1 106.15 69.0 106.15 68.95 106.05 68.8 105.75 68.7 105.65 68.75 105.5 68.85 105.2 68.9 105.1 69.0 105.05 M77.15 122.3 L77.2 122.3 78.7 122.1 79.15 122.05 80.9 121.6 81.45 122.95 78.75 122.55 78.55 122.5 77.15 122.3 M51.3 108.75 L51.0 109.55 Q50.7 109.85 50.2 109.85 49.7 109.85 49.4 109.55 49.1 109.25 49.1 108.75 49.1 108.25 49.4 107.95 49.7 107.65 50.2 107.65 50.7 107.65 51.0 107.95 L51.3 108.75 M55.75 120.5 Q56.25 120.5 56.6 120.85 L56.9 121.65 56.6 122.5 55.75 122.8 54.95 122.5 Q54.6 122.15 54.6 121.65 54.6 121.15 54.95 120.85 55.25 120.5 55.75 120.5 M60.7 133.9 L61.25 133.6 61.8 133.9 62.1 134.45 61.8 135.0 61.25 135.3 60.7 135.0 60.4 134.45 60.7 133.9 M46.65 125.0 L47.05 125.15 47.15 125.5 47.05 125.9 46.65 126.0 46.3 125.9 46.15 125.5 Q46.15 125.3 46.3 125.15 46.45 125.0 46.65 125.0 M58.7 145.2 L58.75 144.9 58.5 145.25 58.05 145.25 58.4 145.4 58.0 145.9 58.6 145.55 58.65 145.5 58.7 145.5 58.6 145.55 58.4 146.65 57.45 145.4 58.3 145.0 57.35 144.9 58.35 143.4 58.9 145.2 58.7 145.2 M77.25 141.15 L77.3 141.35 77.25 141.6 77.0 141.65 76.8 141.6 76.7 141.35 76.8 141.15 Q76.85 141.05 77.0 141.05 L77.25 141.15 M39.95 99.65 Q40.3 100.0 40.3 100.45 L39.95 101.25 Q39.6 101.6 39.1 101.6 38.6 101.6 38.25 101.25 37.9 100.9 37.9 100.45 37.9 100.0 38.25 99.65 38.6 99.3 39.1 99.3 39.6 99.3 39.95 99.65 M15.75 111.0 L15.85 110.7 15.9 110.6 16.0 110.55 16.25 110.4 16.4 110.3 16.5 110.35 16.85 110.45 16.95 110.5 17.0 110.6 17.15 110.85 17.2 111.0 17.15 111.1 17.05 111.45 17.05 111.55 16.95 111.6 16.65 111.75 16.55 111.8 16.4 111.75 16.1 111.65 16.0 111.65 15.95 111.55 15.8 111.25 15.7 111.15 15.75 111.0 M16.6 140.6 L16.75 140.85 16.8 141.0 16.75 141.1 16.65 141.45 16.65 141.55 16.55 141.6 16.25 141.75 16.15 141.8 16.0 141.75 15.7 141.65 15.6 141.65 15.55 141.55 15.4 141.25 15.3 141.15 15.35 141.0 15.45 140.7 15.5 140.6 15.6 140.55 Q15.7 140.4 15.85 140.4 L16.0 140.3 16.1 140.35 16.45 140.45 16.55 140.5 16.6 140.6 M33.95 131.95 L33.95 132.05 33.9 132.3 33.9 132.4 33.55 132.3 33.85 132.1 33.75 131.95 33.95 131.95 34.05 131.95 34.0 132.0 33.95 131.95 M36.35 134.1 L36.35 134.05 36.25 133.35 36.2 133.1 37.1 132.85 36.35 134.1 37.05 134.65 36.4 134.6 36.35 134.1 M33.5 133.0 L33.5 132.6 33.85 132.55 33.9 132.55 33.9 132.6 33.9 132.85 33.95 132.65 34.0 132.6 34.0 132.55 34.4 132.5 34.15 132.45 34.05 132.45 34.1 132.35 34.25 131.95 34.9 132.0 35.0 132.05 Q35.45 132.1 35.8 132.45 L36.2 133.1 34.6 133.5 34.55 133.5 35.95 134.5 36.0 134.6 34.85 134.5 Q34.3 134.45 33.9 134.05 L33.55 133.4 33.5 133.0 M33.5 132.35 L33.5 132.3 33.55 132.35 33.5 132.35 M37.35 139.25 L37.45 139.55 37.35 139.9 37.0 140.0 36.7 139.9 36.55 139.55 36.7 139.25 Q36.8 139.1 37.0 139.1 L37.35 139.25 M26.85 160.75 L26.9 160.85 26.85 160.95 26.75 161.0 26.65 160.95 26.6 160.85 26.65 160.75 26.75 160.7 26.85 160.75 M38.55 161.85 L38.6 161.95 38.75 162.2 38.8 162.35 38.75 162.45 38.65 162.8 38.65 162.9 38.55 162.95 38.25 163.1 38.15 163.15 38.0 163.1 37.7 163.0 37.6 163.0 37.55 162.9 37.4 162.6 37.3 162.5 37.35 162.35 37.45 162.05 37.5 161.95 37.6 161.9 37.85 161.75 38.0 161.65 38.1 161.7 38.45 161.8 38.55 161.85 M71.35 160.2 L71.75 160.25 73.05 160.35 72.55 160.8 71.35 160.2 M76.9 159.95 L77.05 160.0 77.15 160.0 77.1 159.85 77.3 159.95 78.05 159.6 77.1 161.1 77.05 160.15 77.4 160.5 77.15 160.0 76.0 160.45 76.7 161.2 75.75 160.95 75.85 160.75 76.0 160.45 76.25 159.95 76.25 159.9 76.3 159.9 76.65 159.7 76.9 159.95 M77.3 159.95 L77.15 160.0 77.45 160.0 77.3 159.95 M64.2 151.85 L64.5 151.3 65.05 151.0 65.6 151.3 65.9 151.85 65.6 152.4 65.05 152.7 64.5 152.4 64.2 151.85 M69.7 159.8 L69.5 159.6 70.45 159.35 70.6 159.55 70.95 160.0 70.5 159.85 69.75 159.8 69.7 159.8 M62.4 162.5 L62.5 162.6 62.4 162.7 62.3 162.6 62.4 162.5 M58.9 151.35 L58.95 151.3 59.0 151.35 59.1 151.5 59.0 151.7 58.95 151.7 58.9 151.7 58.8 151.5 58.9 151.35 M56.05 150.1 L56.15 150.0 56.25 150.1 56.15 150.2 56.05 150.1 M52.55 152.2 L52.8 152.15 53.6 152.25 54.2 152.7 54.35 152.85 54.25 153.0 54.0 152.65 54.05 153.25 54.05 153.35 53.9 153.3 54.1 153.45 54.1 153.55 54.1 153.6 53.75 153.85 53.9 153.6 53.75 153.6 53.0 153.5 52.45 153.05 52.2 152.75 52.55 152.45 52.55 152.4 52.6 152.35 52.55 152.35 52.55 152.2 M52.05 152.25 L51.85 152.3 52.25 152.35 52.35 152.4 52.25 152.45 52.15 152.45 52.05 152.55 51.85 152.3 51.6 151.95 51.9 152.05 51.85 151.95 52.3 152.2 52.35 152.2 52.3 152.25 52.3 152.2 52.25 152.2 51.9 152.05 52.05 152.25 M52.5 152.3 L52.5 152.35 52.4 152.3 52.5 152.3 M52.2 152.6 L52.15 152.7 52.1 152.6 52.2 152.6 M54.35 153.55 L54.15 153.55 54.2 153.5 54.35 153.55 M54.65 153.25 L55.05 153.85 54.75 153.7 54.6 153.55 54.75 153.5 54.4 153.4 54.5 153.35 54.65 153.25 M54.35 152.85 L54.55 153.15 54.25 153.2 54.35 152.85 M57.65 160.2 L57.55 160.1 57.65 160.0 57.75 160.1 57.65 160.2 M48.8 157.45 L49.15 157.55 49.25 157.6 49.3 157.7 49.45 157.95 49.5 158.1 49.45 158.2 49.35 158.55 49.35 158.65 49.25 158.7 48.95 158.85 48.85 158.9 48.7 158.85 48.4 158.75 48.3 158.75 48.25 158.65 48.1 158.35 48.0 158.25 48.05 158.1 48.15 157.8 48.2 157.7 48.3 157.65 Q48.4 157.5 48.55 157.5 L48.7 157.4 48.8 157.45 M40.95 171.65 L41.3 171.25 41.7 171.65 41.3 172.0 40.95 171.65 M45.15 173.05 L45.25 173.1 45.6 173.2 45.7 173.25 45.75 173.35 45.9 173.6 45.95 173.75 45.9 173.85 45.8 174.2 45.8 174.3 45.7 174.35 45.4 174.5 45.3 174.55 45.15 174.5 44.85 174.4 44.75 174.4 44.7 174.3 44.55 174.0 44.45 173.9 44.5 173.75 44.6 173.45 44.65 173.35 44.75 173.3 Q44.85 173.15 45.0 173.15 L45.15 173.05 M48.0 168.4 L47.7 167.85 48.0 167.3 48.55 167.0 49.1 167.3 49.4 167.85 49.1 168.4 48.55 168.7 48.0 168.4 M58.35 177.55 L58.25 177.45 58.35 177.35 58.45 177.45 58.35 177.55 M58.7 189.6 L58.8 189.45 58.85 189.4 58.9 189.45 59.0 189.6 58.9 189.8 58.85 189.8 58.8 189.8 58.7 189.6 M53.3 186.75 L53.3 186.8 53.3 186.85 53.1 186.95 52.95 186.85 52.9 186.8 52.95 186.75 53.1 186.65 53.3 186.75 M97.9 106.25 Q97.1 106.25 96.6 105.75 96.05 105.2 96.05 104.4 96.05 103.6 96.6 103.1 97.1 102.55 97.9 102.55 98.7 102.55 99.25 103.1 99.75 103.6 99.75 104.4 99.75 105.2 99.25 105.75 98.7 106.25 97.9 106.25 M93.4 119.9 L92.45 119.55 92.1 118.95 Q92.15 118.6 92.45 118.35 92.85 118.0 93.4 118.0 93.95 118.0 94.4 118.35 L94.7 118.95 94.4 119.55 93.4 119.9 M88.6 129.9 Q88.25 129.55 88.25 129.05 88.25 128.55 88.6 128.2 88.95 127.85 89.45 127.85 89.95 127.85 90.3 128.2 90.65 128.55 90.65 129.05 L90.3 129.9 89.45 130.25 Q88.95 130.25 88.6 129.9 M93.15 141.8 Q93.15 141.3 93.5 140.95 93.85 140.6 94.35 140.6 94.85 140.6 95.2 140.95 95.55 141.3 95.55 141.8 L95.2 142.65 94.35 143.0 Q93.85 143.0 93.5 142.65 93.15 142.3 93.15 141.8 M46.05 204.05 L45.5 203.75 45.2 203.2 45.5 202.65 46.05 202.35 46.6 202.65 46.9 203.2 46.6 203.75 46.05 204.05 M41.5 200.7 L41.6 200.65 Q41.7 200.5 41.85 200.5 L42.0 200.4 42.1 200.45 42.45 200.55 42.55 200.6 42.6 200.7 42.75 200.95 42.8 201.1 42.75 201.2 42.65 201.55 42.65 201.65 42.55 201.7 42.25 201.85 42.15 201.9 42.0 201.85 41.7 201.75 41.6 201.75 41.55 201.65 41.4 201.35 41.3 201.25 41.35 201.1 41.45 200.8 41.5 200.7 M-114.85 141.75 L-115.5 142.0 -116.1 141.75 -116.4 141.05 -116.1 140.4 Q-115.85 140.1 -115.5 140.1 -115.15 140.1 -114.85 140.4 -114.6 140.65 -114.6 141.05 L-114.85 141.75 M-106.1 144.75 L-105.95 145.1 -106.1 145.45 -106.5 145.6 -106.9 145.45 -107.05 145.1 -106.9 144.75 -106.5 144.6 Q-106.25 144.6 -106.1 144.75 M-127.85 104.0 Q-127.3 104.0 -126.95 104.35 -126.6 104.7 -126.6 105.25 -126.6 105.8 -126.95 106.15 L-127.85 106.5 Q-128.4 106.5 -128.75 106.15 -129.1 105.8 -129.1 105.25 -129.1 104.7 -128.75 104.35 -128.4 104.0 -127.85 104.0 M-122.35 110.65 L-123.15 110.35 -123.45 109.55 -123.15 108.75 Q-122.85 108.45 -122.35 108.45 -121.85 108.45 -121.55 108.75 -121.25 109.05 -121.25 109.55 -121.25 110.05 -121.55 110.35 L-122.35 110.65 M-136.5 107.0 Q-136.0 107.5 -136.0 108.25 -136.0 109.0 -136.5 109.5 -137.0 110.0 -137.75 110.0 -138.5 110.0 -139.0 109.5 -139.5 109.0 -139.5 108.25 -139.5 107.5 -139.0 107.0 -138.5 106.5 -137.75 106.5 -137.0 106.5 -136.5 107.0 M-134.55 117.35 Q-135.1 116.8 -135.1 116.1 -135.1 115.4 -134.55 114.9 -134.05 114.35 -133.3 114.35 -132.55 114.35 -132.0 114.9 -131.5 115.4 -131.5 116.1 -131.5 116.8 -132.0 117.35 -132.55 117.85 -133.3 117.85 -134.05 117.85 -134.55 117.35 M-122.95 118.9 L-123.1 118.5 -122.95 118.15 Q-122.8 118.0 -122.6 118.0 L-122.2 118.15 -122.1 118.5 -122.2 118.9 -122.6 119.0 -122.95 118.9 M-128.3 132.0 L-127.55 131.95 -127.4 131.95 Q-125.65 131.8 -125.05 133.3 L-125.3 133.8 -125.25 133.75 Q-125.9 134.8 -126.7 135.0 -127.6 135.0 -128.8 134.1 -129.3 133.7 -129.9 133.75 L-131.0 133.7 -131.2 133.65 Q-132.85 133.4 -133.1 131.85 L-132.45 131.4 Q-130.95 130.55 -129.4 131.7 L-128.3 132.0 M-127.85 144.15 Q-128.4 143.6 -128.4 142.85 -128.4 142.1 -127.85 141.6 -127.35 141.05 -126.55 141.05 -125.75 141.05 -125.2 141.6 -124.7 142.1 -124.7 142.85 -124.7 143.6 -125.2 144.15 -125.75 144.65 -126.55 144.65 -127.35 144.65 -127.85 144.15 M-82.85 151.2 L-82.8 151.35 -82.85 151.45 -82.95 151.8 -82.95 151.9 -83.05 151.95 -83.35 152.1 -83.45 152.15 -83.6 152.1 -83.9 152.0 -84.0 152.0 -84.05 151.9 -84.2 151.6 -84.3 151.5 -84.25 151.35 -84.15 151.05 -84.1 150.95 -84.0 150.9 Q-83.9 150.75 -83.75 150.75 L-83.6 150.65 -83.5 150.7 -83.15 150.8 -83.05 150.85 -83.0 150.95 -82.85 151.2 M-96.3 156.35 L-95.75 156.3 -95.85 156.35 -95.6 157.05 -96.3 156.35 M-99.5 155.0 L-99.1 155.05 -99.0 155.25 -99.4 155.3 -99.5 155.0 M-100.05 169.6 Q-99.7 169.25 -99.2 169.25 -98.7 169.25 -98.35 169.6 -98.0 169.95 -98.0 170.45 -98.0 170.95 -98.35 171.3 -98.7 171.65 -99.2 171.65 -99.7 171.65 -100.05 171.3 L-100.4 170.45 Q-100.4 169.95 -100.05 169.6 M-88.5 169.7 L-88.4 169.65 -88.15 169.5 -88.0 169.4 -87.9 169.45 -87.55 169.55 -87.45 169.6 -87.4 169.7 -87.25 169.95 -87.2 170.1 -87.25 170.2 -87.35 170.55 -87.35 170.65 -87.45 170.7 -87.75 170.85 -87.85 170.9 -88.0 170.85 -88.3 170.75 -88.4 170.75 -88.45 170.65 -88.6 170.35 -88.7 170.25 -88.65 170.1 -88.55 169.8 -88.5 169.7 M-116.35 155.05 Q-115.55 155.05 -115.0 155.6 -114.5 156.1 -114.5 156.9 -114.5 157.7 -115.0 158.25 -115.55 158.75 -116.35 158.75 -117.15 158.75 -117.65 158.25 -118.2 157.7 -118.2 156.9 -118.2 156.1 -117.65 155.6 -117.15 155.05 -116.35 155.05 M-111.9 168.4 Q-111.4 168.4 -111.05 168.75 -110.7 169.1 -110.7 169.6 -110.7 170.1 -111.05 170.45 -111.4 170.8 -111.9 170.8 L-112.75 170.45 -113.1 169.6 Q-113.1 169.1 -112.75 168.75 -112.4 168.4 -111.9 168.4 M-108.8 187.9 Q-108.45 187.55 -107.9 187.55 -107.35 187.55 -107.0 187.9 -106.65 188.25 -106.65 188.8 -106.65 189.35 -107.0 189.7 L-107.9 190.05 Q-108.45 190.05 -108.8 189.7 -109.15 189.35 -109.15 188.8 -109.15 188.25 -108.8 187.9 M-94.9 197.6 L-95.0 197.95 -95.35 198.05 -95.65 197.95 -95.8 197.6 -95.65 197.3 -95.35 197.15 -95.0 197.3 -94.9 197.6 M-8.55 112.65 L-8.45 112.7 -8.1 112.8 -8.0 112.85 -7.95 112.95 -7.8 113.2 -7.75 113.35 -7.8 113.45 -7.9 113.8 -7.9 113.9 -8.0 113.95 -8.3 114.1 -8.4 114.15 -8.55 114.1 -8.85 114.0 -8.95 114.0 -9.0 113.9 -9.15 113.6 -9.25 113.5 -9.2 113.35 -9.1 113.05 -9.05 112.95 -8.95 112.9 -8.7 112.75 -8.55 112.65 M-47.75 153.35 Q-47.25 153.85 -47.25 154.6 -47.25 155.35 -47.75 155.9 -48.3 156.4 -49.05 156.4 -49.8 156.4 -50.3 155.9 -50.85 155.35 -50.85 154.6 -50.85 153.85 -50.3 153.35 -49.8 152.8 -49.05 152.8 -48.3 152.8 -47.75 153.35 M-55.9 154.1 L-56.25 153.95 -56.4 153.55 -56.25 153.15 -55.9 153.0 -55.55 153.15 Q-55.4 153.3 -55.4 153.55 -55.4 153.8 -55.55 153.95 L-55.9 154.1 M-56.85 170.95 L-56.65 171.55 -57.95 171.75 -58.1 171.2 -56.85 170.95 M-46.55 163.35 Q-47.1 162.8 -47.1 162.1 -47.1 161.4 -46.55 160.9 -46.05 160.35 -45.3 160.35 -44.55 160.35 -44.0 160.9 -43.5 161.4 -43.5 162.1 -43.5 162.8 -44.0 163.35 -44.55 163.85 -45.3 163.85 -46.05 163.85 -46.55 163.35 M-79.75 159.6 L-79.55 159.8 -79.75 160.0 -79.95 159.8 -79.75 159.6 M-61.55 166.85 L-60.75 168.3 -61.05 169.4 -62.35 170.0 -64.05 169.5 -64.35 168.8 -62.4 166.6 -61.55 166.85 M-67.45 165.3 L-67.55 165.65 -67.9 165.75 -68.2 165.65 -68.35 165.3 -68.2 165.0 Q-68.1 164.85 -67.9 164.85 -67.7 164.85 -67.55 165.0 L-67.45 165.3 M-66.9 182.5 L-66.65 182.95 -66.5 183.15 -66.4 183.3 -66.5 183.5 -66.65 183.7 -66.9 184.15 -67.2 184.2 -67.45 184.15 -67.75 183.7 -67.85 183.5 -68.0 183.3 -67.85 183.15 -67.75 182.95 -67.45 182.5 -67.2 182.4 -66.9 182.5 M-61.95 183.45 Q-61.15 183.45 -60.6 184.0 -60.05 184.55 -60.05 185.35 -60.05 186.15 -60.6 186.7 -61.15 187.25 -61.95 187.25 -62.75 187.25 -63.3 186.7 -63.85 186.15 -63.85 185.35 -63.85 184.55 -63.3 184.0 -62.75 183.45 -61.95 183.45 M-73.8 177.4 L-73.7 177.35 Q-73.6 177.2 -73.45 177.2 L-73.3 177.1 -73.2 177.15 -72.85 177.25 -72.75 177.3 -72.7 177.4 -72.55 177.65 -72.5 177.8 -72.55 177.9 -72.65 178.25 -72.65 178.35 -72.75 178.4 -73.05 178.55 -73.15 178.6 -73.3 178.55 -73.6 178.45 -73.7 178.45 -73.75 178.35 -73.9 178.05 -74.0 177.95 -73.95 177.8 -73.85 177.5 -73.8 177.4 M-77.45 188.5 L-77.6 187.55 -77.05 187.9 -77.25 188.2 -77.4 188.0 -77.25 188.45 -77.45 188.5 -77.2 188.6 -77.05 189.0 -77.0 188.7 -76.6 188.9 -77.0 188.45 -77.0 188.4 -76.95 187.95 -76.1 188.5 -75.8 188.75 -75.5 189.15 -75.4 190.0 -75.8 190.8 -75.9 190.9 -76.0 190.75 -75.9 190.45 -76.1 190.55 -76.5 189.9 -76.6 190.8 -77.35 191.2 -76.65 191.35 -76.7 191.75 -76.4 191.45 -76.15 191.5 -76.45 192.6 -77.7 190.65 -77.75 190.6 -78.0 189.75 -77.85 189.15 -77.75 188.9 -77.45 188.5 M-44.15 175.65 Q-44.15 176.45 -44.7 177.0 -45.25 177.55 -46.05 177.55 -46.85 177.55 -47.4 177.0 -47.95 176.45 -47.95 175.65 -47.95 174.85 -47.4 174.3 -46.85 173.75 -46.05 173.75 -45.25 173.75 -44.7 174.3 -44.15 174.85 -44.15 175.65 M-43.7 183.15 Q-43.45 183.15 -43.3 183.3 -43.15 183.45 -43.15 183.65 L-43.3 184.0 -43.7 184.15 -44.1 184.0 -44.25 183.65 -44.1 183.3 Q-43.95 183.15 -43.7 183.15 M-55.8 178.8 Q-56.35 180.15 -57.1 180.5 -57.95 180.6 -59.2 179.85 L-59.05 178.05 -56.05 177.65 -55.55 177.95 -55.8 178.8 M-56.8 192.55 L-58.15 193.35 -58.1 191.85 -57.25 191.6 -56.8 192.55 M-59.7 197.35 L-61.5 197.5 -59.55 195.95 -59.7 197.35 M-29.7 159.1 Q-30.2 159.1 -30.55 158.75 L-30.9 157.9 Q-30.9 157.4 -30.55 157.05 -30.2 156.7 -29.7 156.7 -29.2 156.7 -28.85 157.05 -28.5 157.4 -28.5 157.9 -28.5 158.4 -28.85 158.75 -29.2 159.1 -29.7 159.1 M-38.45 151.7 Q-38.45 152.2 -38.75 152.5 L-39.55 152.8 -40.35 152.5 -40.65 151.7 -40.35 150.9 Q-40.05 150.6 -39.55 150.6 -39.05 150.6 -38.75 150.9 -38.45 151.2 -38.45 151.7 M-35.65 183.25 L-35.55 182.95 -35.5 182.85 -35.4 182.8 -35.15 182.65 -35.0 182.55 -34.9 182.6 -34.55 182.7 -34.45 182.75 -34.4 182.85 -34.25 183.1 -34.2 183.25 -34.25 183.35 -34.35 183.7 -34.35 183.8 -34.45 183.85 -34.75 184.0 -34.85 184.05 -35.0 184.0 -35.3 183.9 -35.4 183.9 -35.45 183.8 -35.6 183.5 -35.7 183.4 -35.65 183.25 M-10.7 190.0 L-10.65 189.85 -10.55 189.55 -10.5 189.45 -10.4 189.4 -10.15 189.25 -10.0 189.15 -9.9 189.2 -9.55 189.3 -9.45 189.35 -9.4 189.45 -9.25 189.7 -9.2 189.85 -9.25 189.95 -9.35 190.3 -9.35 190.4 -9.45 190.45 -9.75 190.6 -9.85 190.65 -10.0 190.6 -10.3 190.5 -10.4 190.5 -10.45 190.4 -10.6 190.1 -10.7 190.0 M-34.9 199.7 L-34.8 199.65 -34.5 199.5 -34.2 199.65 -34.1 199.7 -33.75 200.3 -34.1 200.9 -34.2 200.95 -34.5 201.1 -34.8 200.95 -34.9 200.9 -35.25 200.3 -34.9 199.7 M-54.7 202.5 L-54.6 202.55 -54.55 202.55 -54.6 202.6 -54.55 202.65 -54.7 202.7 -54.75 202.7 -54.7 202.5 M-54.35 202.6 L-54.25 202.5 -54.2 202.4 -54.3 202.5 -54.35 202.5 -54.45 202.6 -54.35 202.65 -54.55 202.65 -54.45 202.5 -54.4 202.45 -54.35 202.4 -54.35 202.35 -54.45 202.5 -54.5 202.45 -54.65 202.35 -54.6 202.2 -54.05 201.45 -53.95 201.35 -53.55 201.15 -52.95 201.15 -52.85 201.15 -52.9 200.45 -52.2 201.15 -52.7 201.45 -52.4 201.4 -53.1 201.75 -52.8 201.8 -52.75 202.45 -52.35 201.8 -52.2 201.8 -52.45 202.3 -52.75 202.65 -53.2 202.9 -53.2 202.95 -54.15 202.95 -54.3 202.9 -54.3 202.75 -54.45 202.8 -54.4 202.7 -54.35 202.7 -54.35 202.65 -54.35 202.6 M-54.7 202.8 L-54.8 202.9 -54.75 202.8 -54.7 202.8 -54.65 202.8 -54.7 202.8 M-54.45 202.8 L-54.55 202.85 -54.7 202.9 -54.65 202.8 -54.6 202.8 -54.55 202.65 -54.55 202.75 -54.5 202.75 -54.45 202.8 -54.4 202.9 -54.5 202.85 -54.45 202.8 M-54.3 202.65 L-54.2 202.7 -54.05 202.65 -54.25 202.65 -54.3 202.65 M-52.0 201.35 L-51.85 201.3 -51.95 201.4 -52.0 201.35 M-52.05 201.2 L-52.1 201.25 -52.2 201.15 -51.95 201.05 -52.05 201.2 -51.7 201.05 -51.85 201.3 -52.05 201.25 -52.05 201.2 M-56.4 220.35 L-56.05 220.45 -55.95 220.5 -55.9 220.6 -55.75 220.85 -55.7 221.0 -55.75 221.1 -55.85 221.45 -55.85 221.55 -55.95 221.6 -56.25 221.75 -56.35 221.8 -56.5 221.75 -56.8 221.65 -56.9 221.65 -56.95 221.55 -57.1 221.25 -57.2 221.15 -57.15 221.0 -57.05 220.7 -57.0 220.6 -56.9 220.55 -56.65 220.4 -56.5 220.3 -56.4 220.35 M-67.65 209.45 Q-67.65 209.9 -67.95 210.2 -68.25 210.5 -68.75 210.5 L-69.55 210.2 -69.85 209.45 -69.55 208.7 Q-69.25 208.4 -68.75 208.4 -68.25 208.4 -67.95 208.7 -67.65 209.0 -67.65 209.45 M-72.3 215.5 L-72.0 215.5 Q-71.65 215.55 -71.35 215.75 L-71.0 216.05 -71.05 216.55 -71.3 216.5 -71.1 216.65 -71.3 216.75 -71.1 216.7 -71.0 216.7 -70.75 216.9 -70.7 216.9 -70.45 217.05 -70.5 216.9 -70.45 216.9 -70.25 217.2 -70.45 217.05 -70.35 217.25 -71.1 216.7 -71.1 217.0 -71.15 217.0 -72.05 216.85 -72.65 216.3 -72.7 216.25 -73.55 216.4 -73.1 215.75 -73.5 215.35 -73.2 215.4 -73.05 215.7 -73.1 215.75 -72.85 216.0 -72.7 216.25 -72.65 216.2 -72.15 216.65 -72.25 216.1 -71.65 215.95 -72.3 215.7 -72.3 215.5 M-72.85 215.45 L-72.95 215.45 -72.85 215.45 M-76.55 213.15 L-76.5 213.25 -76.55 213.35 -76.65 213.4 -76.75 213.35 -76.8 213.25 -76.75 213.15 -76.65 213.1 -76.55 213.15 M-77.2 217.5 L-77.0 217.6 -76.95 217.75 -77.0 217.95 -77.2 218.0 -77.35 217.95 -77.45 217.75 -77.35 217.6 -77.2 217.5 M-74.6 219.05 L-74.55 219.0 -74.5 219.05 -74.4 219.2 -74.5 219.4 -74.55 219.4 -74.6 219.4 -74.7 219.2 -74.6 219.05 M-64.6 213.3 L-64.7 213.7 -65.1 213.8 -65.45 213.7 -65.6 213.3 -65.45 212.95 -65.1 212.8 -64.7 212.95 -64.6 213.3 M-70.7 216.45 L-70.75 216.35 -70.7 216.45 M-66.9 214.85 L-66.55 214.95 -66.45 215.0 -66.4 215.1 -66.25 215.35 -66.2 215.5 -66.25 215.6 -66.35 215.95 -66.35 216.05 -66.45 216.1 -66.75 216.25 -66.85 216.3 -67.0 216.25 -67.3 216.15 -67.4 216.15 -67.45 216.05 -67.6 215.75 -67.7 215.65 -67.65 215.5 -67.55 215.2 -67.5 215.1 -67.4 215.05 -67.15 214.9 -67.0 214.8 -66.9 214.85 M-70.55 216.65 L-70.6 216.65 -70.5 216.75 -70.6 216.75 -70.65 216.75 -70.85 216.7 -70.65 216.65 -70.6 216.7 -70.6 216.65 -70.55 216.65 M-63.05 224.25 L-63.0 224.35 -62.85 224.6 -62.8 224.75 -62.85 224.85 -62.95 225.2 -62.95 225.3 -63.05 225.35 -63.35 225.5 -63.45 225.55 -63.6 225.5 -63.9 225.4 -64.0 225.4 -64.05 225.3 -64.2 225.0 -64.3 224.9 -64.25 224.75 -64.15 224.45 -64.1 224.35 -64.0 224.3 -63.75 224.15 -63.6 224.05 -63.5 224.1 -63.15 224.2 -63.05 224.25 M-73.5 228.2 Q-73.85 228.5 -74.35 228.5 L-75.15 228.2 -75.5 227.35 Q-75.5 226.85 -75.15 226.55 -74.85 226.2 -74.35 226.2 -73.85 226.2 -73.5 226.55 -73.2 226.85 -73.2 227.35 -73.2 227.85 -73.5 228.2 M-80.75 230.15 L-80.6 230.25 -80.55 230.35 -80.6 230.5 -80.75 230.55 -80.85 230.5 -80.95 230.35 -80.85 230.25 -80.75 230.15 M-76.1 232.7 L-76.0 232.6 -75.9 232.7 -76.0 232.8 -76.1 232.7 M-45.1 229.75 L-45.0 229.85 -45.1 229.95 -45.2 229.85 -45.1 229.75 M-55.15 226.85 L-55.05 227.15 -55.15 227.45 -55.45 227.55 -55.75 227.45 -55.85 227.15 -55.75 226.85 -55.45 226.75 Q-55.25 226.75 -55.15 226.85 M-58.95 227.2 L-58.95 227.3 -59.05 227.35 -59.35 227.5 -59.45 227.55 -59.6 227.5 -59.9 227.4 -60.0 227.4 -60.05 227.3 -60.2 227.0 -60.3 226.9 -60.25 226.75 -60.15 226.45 -60.1 226.35 -60.0 226.3 Q-59.9 226.15 -59.75 226.15 L-59.6 226.05 -59.5 226.1 -59.15 226.2 -59.05 226.25 -59.0 226.35 -58.85 226.6 -58.8 226.75 -58.85 226.85 -58.95 227.2 M-60.05 256.55 L-59.95 256.6 -59.9 256.7 -59.75 256.95 -59.7 257.1 -59.75 257.2 -59.85 257.55 -59.85 257.65 -59.95 257.7 -60.25 257.85 -60.35 257.9 -60.5 257.85 -60.8 257.75 -60.9 257.75 -60.95 257.65 -61.1 257.35 -61.2 257.25 -61.15 257.1 -61.05 256.8 -61.0 256.7 -60.9 256.65 -60.65 256.5 -60.5 256.4 -60.4 256.45 -60.05 256.55 M-63.65 255.05 L-64.0 255.65 -64.1 255.7 -64.4 255.85 -64.7 255.7 -64.8 255.65 -65.15 255.05 -64.8 254.45 -64.7 254.4 -64.4 254.25 -64.1 254.4 -64.0 254.45 -63.65 255.05 M-71.35 255.6 L-71.45 255.7 -71.55 255.6 -71.45 255.5 -71.35 255.6 M-77.1 252.8 L-77.2 252.7 -77.1 252.6 -77.0 252.7 -77.1 252.8 M-94.95 205.95 Q-94.75 205.95 -94.6 206.1 L-94.5 206.4 -94.6 206.75 -94.95 206.85 -95.25 206.75 -95.4 206.4 -95.25 206.1 -94.95 205.95 M-107.0 207.9 L-105.8 208.5 -105.45 209.1 -105.7 210.15 -107.9 210.8 -109.0 208.6 -108.3 208.05 -107.0 207.9 M-113.3 206.75 L-112.65 206.45 -112.0 207.5 -112.8 207.8 -113.3 206.75 M-91.75 241.1 L-90.3 240.75 -90.1 241.0 Q-89.75 241.45 -89.15 241.6 L-88.45 241.7 -88.45 242.5 -89.4 241.65 Q-89.75 241.3 -90.25 241.25 L-91.75 241.1 M-127.05 201.1 Q-127.55 200.6 -127.55 199.9 -127.55 199.2 -127.05 198.7 -126.55 198.2 -125.8 198.2 -125.05 198.2 -124.55 198.7 -124.05 199.2 -124.05 199.9 -124.05 200.6 -124.55 201.1 -125.05 201.6 -125.8 201.6 -126.55 201.6 -127.05 201.1" fill="#ccffcc" fill-rule="evenodd" stroke="none"/>
  </g>
  <defs>
    <radialGradient cx="0" cy="0" gradientTransform="matrix(0.0795, 0.0, 0.0, 0.0795, -56.75, 150.7)" gradientUnits="userSpaceOnUse" id="gradient0" r="819.2" spreadMethod="pad">
      <stop offset="0.2196078431372549" stop-color="#00cc99" stop-opacity="0.5019608"/>
      <stop offset="0.6509803921568628" stop-color="#218383" stop-opacity="0.5019608"/>
    </radialGradient>
  </defs>
</svg>
