<?xml version="1.0" encoding="UTF-8" standalone="no"?>
<svg xmlns:xlink="http://www.w3.org/1999/xlink" height="257.6px" width="499.9px" xmlns="http://www.w3.org/2000/svg">
  <g transform="matrix(1.0, 0.0, 0.0, 1.0, 259.65, 65.65)">
    <path d="M-236.95 80.0 Q-229.9 78.45 -223.95 78.7 -220.65 78.85 -216.9 79.95 L-210.05 81.75 -207.3 82.05 Q-209.1 83.0 -210.3 84.95 L-211.65 87.75 -213.0 87.45 Q-221.3 85.65 -230.05 85.0 -238.4 84.4 -247.0 84.9 -257.05 85.5 -250.0 82.2 -248.45 81.0 -236.95 80.0 M-89.5 188.2 Q-89.45 190.05 -90.55 191.5 L-90.9 191.95 -89.5 188.2" fill="url(#gradient0)" fill-rule="evenodd" stroke="none"/>
    <path d="M27.75 -12.95 L27.8 -13.5 Q29.05 -19.55 26.55 -23.05 29.05 -32.45 30.65 -42.65 32.4 -53.7 34.95 -64.05 39.75 -56.25 40.55 -45.7 41.35 -34.95 41.45 -23.7 41.45 -19.7 41.6 -15.6 38.65 -14.05 36.45 -11.0 31.45 -10.35 27.75 -12.95" fill="url(#gradient1)" fill-rule="evenodd" stroke="none"/>
    <path d="M227.8 40.3 Q235.5 43.6 224.55 43.0 215.15 42.5 206.05 43.1 196.5 43.75 187.5 45.55 182.9 46.5 178.55 47.85 176.2 46.35 173.4 45.55 L174.4 42.8 174.8 40.6 175.25 40.55 184.25 39.85 191.75 38.05 Q195.8 36.95 199.4 36.8 205.9 36.55 213.6 38.1 226.1 39.1 227.8 40.3" fill="url(#gradient2)" fill-rule="evenodd" stroke="none"/>
    <path d="M-54.95 168.1 L-53.6 170.25 -52.4 172.25 Q-53.85 176.1 -54.35 180.45 -54.75 183.85 -59.2 183.45 -62.95 183.15 -67.1 184.3 -68.3 178.3 -68.05 172.5 L-67.35 172.05 Q-61.75 166.6 -54.95 168.1" fill="url(#gradient3)" fill-rule="evenodd" stroke="none"/>
    <path d="M44.35 -59.75 L44.35 -59.15 43.6 -59.15 43.6 -59.75 44.35 -59.75 M40.0 -65.25 L39.6 -65.4 39.45 -65.4 Q39.15 -65.55 39.75 -65.65 L40.35 -65.4 Q40.7 -64.9 40.3 -65.1 L40.0 -65.25 M39.5 -61.75 L39.5 -61.85 Q40.4 -61.3 39.5 -61.75 M233.4 35.9 L233.05 36.0 232.75 35.9 232.6 35.65 232.75 35.4 Q232.85 35.3 233.05 35.3 L233.4 35.4 233.5 35.65 233.4 35.9 M229.6 37.85 L229.8 37.95 Q229.9 37.95 230.0 38.1 229.35 38.45 229.5 38.1 L229.6 37.85 M232.75 39.3 L232.75 39.5 Q232.05 39.35 232.75 39.3 M240.25 39.25 L240.1 39.5 239.9 39.4 240.1 39.25 240.25 39.25 M-62.65 186.35 L-63.0 185.75 -62.25 185.75 -62.65 186.35 M-58.4 191.05 L-58.4 191.1 Q-59.15 191.0 -58.4 191.05 M-58.8 186.1 L-58.65 186.25 Q-58.0 186.75 -58.55 186.7 L-58.9 186.5 -58.8 186.1 M-249.0 86.45 Q-248.85 86.45 -248.7 86.6 L-248.6 86.85 -248.7 87.15 -249.0 87.25 -249.25 87.15 -249.4 86.85 -249.25 86.6 -249.0 86.45 M-248.45 85.9 L-248.5 85.85 Q-248.0 85.3 -248.45 85.9 M-251.2 86.05 L-251.25 86.05 Q-251.15 85.25 -251.2 86.05 M-251.75 82.85 L-251.75 82.75 Q-251.35 83.55 -251.75 82.85 M-259.65 86.05 L-259.35 86.05 -259.5 86.3 -259.65 86.05" fill="#ffffcc" fill-rule="evenodd" stroke="none"/>
  </g>
  <defs>
    <radialGradient cx="0" cy="0" gradientTransform="matrix(0.1212, 0.0, 0.0, 0.1212, -172.5, 93.95)" gradientUnits="userSpaceOnUse" id="gradient0" r="819.2" spreadMethod="pad">
      <stop offset="0.2196078431372549" stop-color="#00cc99" stop-opacity="0.5019608"/>
      <stop offset="0.6509803921568628" stop-color="#218383" stop-opacity="0.5019608"/>
    </radialGradient>
    <radialGradient cx="0" cy="0" gradientTransform="matrix(0.2216, 0.0, 0.0, 0.2216, 30.05, -7.2)" gradientUnits="userSpaceOnUse" id="gradient1" r="819.2" spreadMethod="pad">
      <stop offset="0.2196078431372549" stop-color="#00cc99" stop-opacity="0.5019608"/>
      <stop offset="0.6509803921568628" stop-color="#218383" stop-opacity="0.5019608"/>
    </radialGradient>
    <radialGradient cx="0" cy="0" gradientTransform="matrix(-0.1321, 0.0, 0.0, 0.1212, 143.35, 52.05)" gradientUnits="userSpaceOnUse" id="gradient2" r="819.2" spreadMethod="pad">
      <stop offset="0.2196078431372549" stop-color="#00cc99" stop-opacity="0.5019608"/>
      <stop offset="0.6509803921568628" stop-color="#218383" stop-opacity="0.5019608"/>
    </radialGradient>
    <radialGradient cx="0" cy="0" gradientTransform="matrix(0.0795, 0.0, 0.0, 0.0795, -56.75, 150.7)" gradientUnits="userSpaceOnUse" id="gradient3" r="819.2" spreadMethod="pad">
      <stop offset="0.2196078431372549" stop-color="#00cc99" stop-opacity="0.5019608"/>
      <stop offset="0.6509803921568628" stop-color="#218383" stop-opacity="0.5019608"/>
    </radialGradient>
  </defs>
</svg>
