<?xml version="1.0" encoding="UTF-8" standalone="no"?>
<svg xmlns:xlink="http://www.w3.org/1999/xlink" height="258.45px" width="496.45px" xmlns="http://www.w3.org/2000/svg">
  <g transform="matrix(1.0, 0.0, 0.0, 1.0, 257.75, 66.5)">
    <path d="M-216.9 79.95 L-210.05 81.75 -201.75 82.45 Q-196.7 82.75 -193.55 84.2 -185.65 87.8 -178.2 91.5 -176.5 92.35 -174.9 93.35 -162.2 109.5 -169.15 112.6 L-171.45 113.25 -173.2 111.0 Q-177.0 105.5 -182.6 101.4 -189.4 96.35 -197.3 92.7 -204.75 89.3 -213.0 87.45 -221.3 85.65 -230.05 85.0 -238.4 84.4 -247.0 84.9 -257.05 85.5 -250.0 82.2 -248.45 81.0 -236.95 80.0 -229.9 78.45 -223.95 78.7 -220.65 78.85 -216.9 79.95 M-89.5 188.2 Q-89.45 190.05 -90.55 191.5 L-90.9 191.95 -89.5 188.2" fill="url(#gradient0)" fill-rule="evenodd" stroke="none"/>
    <path d="M20.65 -0.1 Q23.3 -11.2 26.3 -22.2 29.0 -31.95 30.65 -42.65 32.4 -53.7 34.95 -64.05 39.75 -56.25 40.55 -45.7 41.35 -34.95 41.45 -23.7 41.5 -12.25 42.35 -0.55 42.9 6.5 44.8 13.2 L44.6 13.5 Q28.8 36.35 17.75 20.75 L18.1 16.65 Q18.65 8.15 20.65 -0.1" fill="url(#gradient1)" fill-rule="evenodd" stroke="none"/>
    <path d="M224.55 43.0 Q215.15 42.5 206.05 43.1 196.5 43.75 187.5 45.55 178.5 47.4 170.4 50.8 161.75 54.45 154.35 59.5 151.45 61.45 149.0 63.7 135.75 64.05 144.3 52.4 146.8 50.85 149.55 49.6 157.65 45.9 166.3 42.3 169.7 40.85 175.25 40.55 L184.25 39.85 191.75 38.05 Q195.8 36.95 199.4 36.8 205.9 36.55 213.6 38.1 226.1 39.1 227.8 40.3 235.5 43.6 224.55 43.0" fill="url(#gradient2)" fill-rule="evenodd" stroke="none"/>
    <path d="M-43.15 146.2 Q-41.5 151.65 -47.0 163.05 L-47.0 162.9 Q-53.2 170.4 -54.35 180.45 -54.75 183.85 -59.2 183.45 -62.95 183.15 -67.1 184.3 -69.2 174.0 -66.9 164.35 -66.2 161.5 -67.45 158.25 -68.8 154.75 -68.85 152.05 -65.5 146.6 -61.4 143.85 L-58.65 143.5 -54.9 143.35 Q-48.15 143.35 -43.15 146.2" fill="url(#gradient3)" fill-rule="evenodd" stroke="none"/>
    <path d="M41.1 -65.3 L41.85 -64.55 41.4 -63.6 41.35 -63.55 40.1 -63.45 39.75 -64.1 40.35 -64.05 39.85 -64.55 39.65 -64.3 39.2 -64.95 39.25 -65.15 38.95 -65.45 40.35 -66.5 41.55 -65.5 41.1 -65.3 M42.35 -60.45 L42.25 -60.35 42.2 -60.45 42.65 -60.5 42.75 -60.5 42.6 -60.4 42.3 -60.2 42.25 -60.3 42.35 -60.45 M41.35 -60.5 L41.05 -60.55 41.3 -60.8 41.35 -60.5 M41.25 -60.85 L41.1 -60.8 41.2 -61.0 41.25 -60.85 M41.55 -61.05 L41.45 -61.0 41.25 -61.1 41.65 -61.9 42.2 -60.5 41.45 -60.95 41.55 -61.05 M41.7 -59.2 L41.4 -60.3 42.0 -60.05 41.9 -59.9 42.05 -60.0 42.1 -60.0 41.7 -59.2 M42.3 -60.2 L42.35 -59.95 42.4 -59.85 42.35 -59.9 42.1 -60.0 42.15 -60.1 42.3 -60.2 M40.5 -56.75 L40.6 -56.75 41.35 -56.95 41.2 -56.45 40.7 -55.9 40.6 -56.7 40.7 -56.7 40.6 -56.75 40.55 -56.75 40.5 -56.75 M40.5 -57.6 L41.1 -58.1 40.2 -56.85 40.15 -56.85 40.25 -56.9 40.15 -56.85 40.05 -56.9 40.5 -57.6 M41.3 -58.15 L41.4 -58.2 41.65 -58.25 41.45 -57.8 41.4 -57.7 41.35 -57.55 41.45 -57.6 41.85 -57.05 41.35 -56.95 41.35 -57.15 41.35 -57.25 41.35 -57.4 41.3 -57.8 41.3 -57.85 41.3 -58.15 M41.8 -57.9 L41.8 -57.65 41.6 -57.75 41.8 -57.9 M43.0 -50.05 L42.65 -50.25 42.45 -50.6 42.65 -50.95 43.0 -51.15 43.35 -50.95 43.55 -50.6 43.35 -50.25 43.0 -50.05 M39.45 -65.7 L39.35 -65.5 39.55 -65.8 39.45 -65.7 M30.0 -52.75 L29.55 -54.15 30.5 -54.2 30.55 -53.0 30.25 -52.9 30.0 -52.75 M29.35 -50.85 L29.5 -49.85 29.2 -49.2 28.9 -49.05 28.25 -48.4 Q28.05 -48.0 28.15 -47.5 L28.2 -47.1 26.7 -46.6 27.6 -48.25 27.75 -49.0 Q27.75 -49.75 28.15 -50.3 L28.6 -50.65 29.35 -50.85 M40.3 -56.15 L39.9 -56.55 40.55 -56.7 40.3 -56.15 M39.85 -56.65 L39.85 -56.6 39.8 -56.55 39.6 -56.5 39.85 -56.65 39.6 -56.95 40.05 -56.9 39.95 -56.75 39.85 -56.65 M39.9 -56.6 L39.9 -56.55 39.8 -56.55 39.9 -56.6 M40.0 -37.85 L39.7 -39.7 40.7 -40.95 41.0 -41.9 41.0 -42.5 41.0 -42.6 41.1 -42.55 42.45 -42.15 42.9 -41.2 43.05 -41.0 43.25 -40.75 42.95 -40.2 42.75 -39.65 42.65 -38.7 41.85 -37.65 41.5 -36.9 Q41.3 -35.05 40.75 -34.2 L40.3 -35.1 Q39.9 -36.4 40.0 -37.5 L40.0 -37.85 M39.3 -46.5 L39.3 -46.15 39.0 -46.5 39.3 -46.5 M36.15 -47.4 L36.1 -48.3 37.45 -47.2 36.15 -47.4 M30.25 -38.0 Q30.9 -38.0 31.35 -37.55 31.75 -37.15 31.75 -36.5 31.75 -35.85 31.35 -35.4 30.9 -35.0 30.25 -35.0 29.6 -35.0 29.2 -35.4 28.75 -35.85 28.75 -36.5 28.75 -37.15 29.2 -37.55 29.6 -38.0 30.25 -38.0 M39.4 -30.9 L39.3 -30.95 39.4 -31.0 39.5 -30.95 39.4 -30.9 M17.8 -40.7 Q18.5 -40.7 19.0 -40.2 19.45 -39.75 19.45 -39.1 19.45 -38.45 19.0 -37.95 18.5 -37.5 17.8 -37.5 17.1 -37.5 16.65 -37.95 16.15 -38.45 16.15 -39.1 16.15 -39.75 16.65 -40.2 17.1 -40.7 17.8 -40.7 M34.05 -21.5 L34.6 -21.25 34.85 -20.65 34.6 -20.05 34.05 -19.8 Q33.75 -19.8 33.5 -20.05 33.25 -20.3 33.25 -20.65 L33.5 -21.25 34.05 -21.5 M35.7 -14.9 L36.15 -15.55 38.9 -14.7 39.6 -14.65 42.75 -15.15 Q43.05 -14.75 42.95 -14.1 42.75 -13.3 42.1 -12.8 L39.4 -13.9 38.45 -13.95 37.0 -13.55 35.7 -14.9 M39.8 -7.05 Q39.8 -7.65 40.25 -8.05 40.65 -8.5 41.25 -8.5 L42.3 -8.05 Q42.7 -7.65 42.7 -7.05 42.7 -6.45 42.3 -6.0 41.85 -5.6 41.25 -5.6 40.65 -5.6 40.25 -6.0 39.8 -6.45 39.8 -7.05 M59.85 -7.4 Q59.85 -7.95 60.3 -8.35 60.7 -8.8 61.3 -8.8 61.9 -8.8 62.35 -8.35 62.75 -7.95 62.75 -7.4 62.75 -6.85 62.35 -6.4 61.9 -6.0 61.3 -6.0 60.7 -6.0 60.3 -6.4 59.85 -6.85 59.85 -7.4 M217.2 33.45 L217.4 33.8 217.25 34.15 217.0 34.3 216.7 34.2 216.5 33.8 216.7 33.45 216.9 33.35 217.2 33.45 M205.85 40.25 L205.95 40.4 205.7 40.35 205.85 40.25 M221.3 33.65 L222.75 33.7 222.7 33.95 222.4 33.9 222.7 34.15 222.35 34.5 222.5 34.45 222.5 34.5 222.8 34.25 222.9 34.35 222.65 35.5 222.6 35.55 222.55 35.45 222.2 34.55 222.45 34.8 222.1 34.3 222.2 34.55 221.3 33.65 M205.55 40.35 L205.55 40.3 205.6 40.15 205.65 40.3 205.55 40.35 205.65 40.4 205.7 40.65 205.65 40.5 205.6 40.45 205.55 40.35 205.2 40.45 205.2 39.7 205.5 40.3 205.45 40.25 205.5 40.3 205.55 40.35 M205.2 40.6 L205.2 40.5 205.3 40.5 205.2 40.6 M206.1 41.85 L206.1 41.7 206.3 41.9 206.55 42.1 206.8 42.95 206.7 42.85 206.1 42.1 206.1 41.85 M207.05 43.9 L207.45 44.15 207.25 43.8 207.65 43.7 207.3 44.8 207.05 43.9 206.25 43.35 206.95 43.45 207.05 43.85 207.05 43.9 M207.05 43.45 L207.5 43.45 207.2 43.75 207.05 43.45 M206.15 48.1 L206.55 48.2 206.7 48.4 206.6 48.45 206.3 48.2 206.25 48.2 206.15 48.1 M206.85 48.3 L206.85 48.25 206.9 48.25 206.85 48.3 M206.95 48.15 L206.85 48.15 206.85 48.05 206.95 48.15 M212.55 47.8 L212.7 47.75 212.85 47.8 212.9 47.95 212.85 48.1 212.7 48.15 212.55 48.1 212.5 47.95 212.55 47.8 M222.05 39.45 L221.85 39.1 222.05 38.8 222.35 38.6 222.7 38.8 222.85 39.1 222.7 39.45 Q222.6 39.45 222.35 39.6 L222.05 39.45 M221.1 42.7 L220.85 42.85 220.55 42.75 220.35 42.35 220.55 42.0 220.75 41.9 221.05 42.0 221.25 42.35 221.1 42.7 M237.9 36.55 L237.8 36.5 237.9 36.5 237.4 37.0 238.45 38.45 238.1 38.65 238.7 38.95 237.6 39.9 236.35 38.9 236.75 38.45 236.45 37.7 237.4 37.0 237.25 36.65 237.9 36.55 M233.95 36.4 L234.35 37.2 233.95 38.0 233.3 38.2 232.7 38.0 232.25 37.2 232.7 36.4 233.3 36.2 233.95 36.4 M228.9 36.6 L228.95 36.65 229.15 36.9 229.2 37.75 228.15 38.1 226.95 38.05 227.3 36.8 228.9 36.6 M223.05 34.0 L223.2 33.9 223.25 34.05 223.05 34.0 M226.8 38.1 L226.8 38.15 226.75 38.05 226.85 38.05 226.85 38.25 226.8 38.15 226.85 38.2 226.8 38.1 M226.35 39.25 L226.35 39.4 226.3 39.45 226.35 39.45 226.35 39.8 226.15 39.75 226.35 39.95 226.35 40.1 226.4 40.0 226.65 40.15 226.5 40.25 226.7 40.2 226.85 40.35 226.8 40.2 227.05 40.15 226.9 40.3 226.85 40.35 226.6 40.6 226.1 40.8 225.15 40.75 223.75 40.15 225.05 39.8 225.05 39.65 224.7 39.45 225.05 39.3 225.05 39.65 225.2 39.75 225.05 39.8 225.0 40.5 225.4 39.9 225.7 40.05 225.5 39.75 225.6 39.65 225.5 39.65 225.1 38.9 225.1 39.05 225.05 39.25 224.45 39.25 224.65 39.05 224.75 38.9 Q225.1 38.55 225.65 38.5 L226.5 38.7 226.7 38.85 226.9 39.0 227.05 39.1 226.85 39.1 226.9 39.0 226.75 39.1 226.5 39.1 226.65 39.15 226.4 39.35 226.35 39.25 M226.9 39.25 L226.75 39.3 226.55 39.7 226.65 39.9 226.95 40.0 226.75 40.1 226.65 39.9 226.5 39.85 226.55 39.7 226.45 39.4 226.75 39.3 226.8 39.2 226.9 39.25 M237.4 37.45 Q236.1 37.45 237.1 38.1 L237.7 37.45 237.4 37.45 M237.1 39.1 L237.0 39.05 237.1 39.1 M179.7 34.75 L178.55 34.3 Q178.1 33.85 178.1 33.2 178.1 32.55 178.55 32.1 179.0 31.65 179.7 31.65 180.4 31.65 180.85 32.1 181.3 32.55 181.3 33.2 181.3 33.85 180.85 34.3 180.4 34.75 179.7 34.75 M196.05 36.85 Q195.75 37.25 195.75 37.8 L195.8 38.55 194.2 38.9 195.05 37.55 195.15 37.3 196.0 35.2 197.1 35.5 196.9 35.7 196.05 36.85 M200.5 35.15 L199.3 35.1 200.3 34.7 200.5 35.15 M186.8 39.65 L186.0 39.95 185.4 38.75 186.45 38.55 186.5 38.55 186.8 39.65 M184.15 45.55 L183.55 44.95 183.6 43.4 185.0 42.95 185.75 45.0 184.15 45.55 M188.9 48.7 Q189.35 49.15 189.35 49.8 189.35 50.45 188.9 50.9 188.45 51.35 187.75 51.35 187.05 51.35 186.6 50.9 186.15 50.45 186.15 49.8 186.15 49.15 186.6 48.7 187.05 48.25 187.75 48.25 188.45 48.25 188.9 48.7 M201.15 40.05 L201.35 42.05 201.05 44.1 Q200.7 43.1 200.75 41.9 L201.05 39.8 201.15 40.05 M198.75 52.05 L198.95 52.15 198.95 52.2 198.95 52.3 198.75 52.35 198.6 52.3 198.55 52.2 198.6 52.15 198.75 52.05 M188.15 59.1 Q188.55 59.1 188.8 59.35 L189.05 59.95 188.8 60.55 188.15 60.8 187.5 60.55 187.25 59.95 Q187.25 59.6 187.5 59.35 187.75 59.1 188.15 59.1 M174.15 50.95 L172.8 53.3 Q172.55 53.7 172.6 54.15 172.65 54.65 173.0 55.0 L174.7 57.0 174.75 57.0 174.7 57.05 172.75 58.4 Q172.3 58.7 172.15 59.25 L171.5 61.75 170.15 61.65 169.7 60.45 171.4 58.85 171.75 58.3 171.85 57.65 171.75 56.15 Q171.7 55.55 171.3 55.15 170.85 54.75 170.25 54.75 L169.1 54.3 Q168.65 53.85 168.65 53.2 168.65 52.6 169.1 52.25 169.65 51.75 170.35 51.75 170.9 51.75 171.35 51.35 L172.8 50.05 174.15 50.95 M-49.2 159.65 Q-48.85 159.65 -48.6 159.9 -48.2 160.4 -48.15 161.2 L-47.8 162.05 -47.45 162.45 -47.7 163.85 -47.65 164.6 -47.25 165.2 -46.5 165.95 -46.5 166.75 -46.15 167.75 Q-45.8 168.15 -45.25 168.25 -44.1 168.4 -43.65 168.8 L-43.6 168.8 -44.4 169.3 -46.05 169.55 -46.9 169.65 -46.9 169.4 -47.0 168.15 -47.3 167.35 -48.05 166.35 -48.0 166.0 -48.1 165.15 -48.7 164.5 -49.5 164.25 -49.65 163.85 Q-50.15 162.85 -50.15 161.5 L-50.15 161.45 Q-50.2 160.7 -49.8 160.1 L-49.2 159.65 M-58.7 155.6 L-59.8 156.05 Q-60.45 156.05 -60.9 155.6 L-61.35 154.55 Q-61.35 153.95 -60.9 153.5 -60.45 153.05 -59.8 153.05 -59.15 153.05 -58.7 153.5 -58.25 153.95 -58.25 154.55 -58.25 155.15 -58.7 155.6 M-53.95 163.45 L-56.1 163.05 -55.15 162.4 -53.95 163.45 M-58.35 163.25 L-58.25 163.35 -59.35 164.45 -59.6 164.25 -59.7 164.25 -59.85 164.25 -59.95 163.95 -60.25 163.75 -60.1 163.5 -60.2 163.15 -58.8 162.9 -58.35 163.25 M-59.8 167.25 L-59.9 167.3 Q-59.65 167.75 -59.65 168.35 L-59.45 169.05 -58.95 169.6 -58.75 169.75 -58.7 170.2 -58.15 171.2 Q-57.7 171.55 -57.1 171.5 L-54.95 171.3 -54.0 171.9 -55.4 174.05 -56.2 173.8 -57.0 173.8 Q-57.4 173.9 -57.7 174.2 L-58.2 174.7 -58.6 175.35 -58.6 176.1 -58.25 177.55 -58.35 178.25 -58.55 178.45 -58.7 178.55 -58.95 178.8 -59.35 179.55 -59.3 180.35 -58.9 181.5 -58.4 182.2 -58.15 182.35 -58.75 182.45 -59.3 182.8 -59.55 183.05 -59.6 183.15 -59.95 183.7 -60.0 183.7 -60.25 183.65 -59.55 182.15 -59.4 181.5 -59.4 180.25 Q-59.4 179.9 -59.55 179.55 L-60.75 177.3 -60.05 175.75 -59.9 175.35 -59.05 175.2 -58.4 174.5 -58.05 173.75 Q-57.85 173.25 -57.95 172.75 -58.05 172.25 -58.45 171.95 -58.9 171.6 -59.4 171.6 -60.1 171.55 -60.6 170.95 -61.25 170.15 -61.25 169.0 -61.25 168.5 -61.55 168.15 L-62.3 167.6 -62.95 167.4 -61.8 167.25 -60.75 167.1 -60.05 167.25 -59.8 167.25 M-48.8 171.2 L-47.95 170.95 -48.55 170.9 -48.8 171.2 M-48.55 170.9 L-47.75 169.85 -47.8 170.65 -47.95 170.95 -47.8 170.9 -47.8 171.0 -47.95 170.95 -48.4 171.75 -49.2 170.8 -48.55 170.9 M-79.8 180.75 Q-80.45 180.75 -80.9 180.3 -81.35 179.85 -81.35 179.25 -81.35 178.65 -80.9 178.2 -80.45 177.75 -79.8 177.75 -79.15 177.75 -78.7 178.2 -78.25 178.65 -78.25 179.25 -78.25 179.85 -78.7 180.3 -79.15 180.75 -79.8 180.75 M-62.25 186.0 L-62.45 185.95 -62.25 185.85 -62.25 186.0 M-52.15 181.3 Q-51.9 181.55 -51.9 181.95 -51.9 182.35 -52.15 182.6 L-52.75 182.85 -53.35 182.6 -53.55 182.3 -53.6 182.1 -53.6 181.9 -53.35 181.3 Q-53.1 181.05 -52.75 181.05 -52.4 181.05 -52.15 181.3 M-35.1 163.5 Q-35.1 164.1 -35.5 164.5 -35.9 164.9 -36.5 164.9 -37.1 164.9 -37.5 164.5 -37.9 164.1 -37.9 163.5 -37.9 162.9 -37.5 162.5 -37.1 162.1 -36.5 162.1 -35.9 162.1 -35.5 162.5 -35.1 162.9 -35.1 163.5 M-219.1 73.3 L-219.6 72.0 -218.45 71.9 -218.1 72.85 -218.85 73.45 -219.0 73.6 -219.1 73.3 M-206.4 73.0 Q-205.7 73.0 -205.25 73.45 -204.8 73.9 -204.8 74.55 -204.8 75.2 -205.25 75.65 -205.7 76.1 -206.4 76.1 -207.1 76.1 -207.55 75.65 L-208.0 74.55 -207.55 73.45 Q-207.1 73.0 -206.4 73.0 M-225.05 78.45 L-225.05 78.35 -224.95 78.35 -224.95 78.45 -225.05 78.45 M-240.9 82.65 L-241.5 81.8 -240.8 82.6 -240.9 82.65 -240.15 83.75 -242.15 83.85 -241.3 83.45 -241.15 82.75 -240.9 82.65 M-241.3 83.45 L-241.35 83.55 -241.2 83.4 -241.3 83.45 M-241.25 85.9 L-241.0 85.75 -240.7 85.9 -240.5 86.3 -240.7 86.75 -241.0 86.85 -241.25 86.75 -241.5 86.3 -241.25 85.9 M-235.3 82.5 L-235.1 82.85 -235.25 83.2 -235.5 83.35 -235.8 83.25 -236.0 82.85 -235.8 82.5 -235.6 82.4 -235.3 82.5 M-239.0 92.5 L-239.15 92.85 -239.4 93.0 -239.7 92.9 -239.9 92.5 -239.7 92.15 -239.5 92.05 -239.2 92.15 -239.0 92.5 M-224.15 87.25 L-224.25 87.25 -224.25 87.15 -224.15 87.15 -224.15 87.25 M-225.95 90.25 L-225.8 90.2 -225.65 90.25 -225.6 90.4 -225.65 90.55 -225.8 90.6 -225.95 90.55 -226.0 90.4 -225.95 90.25 M-231.05 98.55 L-231.05 98.6 -231.05 98.7 -231.25 98.75 -231.4 98.7 -231.45 98.6 -231.4 98.55 -231.25 98.45 -231.05 98.55 M-224.65 96.7 L-224.1 96.95 -224.95 97.1 -224.9 96.75 -224.65 96.7 M-224.85 95.8 L-224.9 96.4 -225.0 96.5 -225.3 96.4 -224.85 95.8 M-203.8 81.0 L-201.45 81.8 -200.4 81.75 -197.95 80.7 -197.0 81.4 -196.9 82.1 -198.9 83.35 -200.05 82.45 -200.75 82.15 -201.5 82.2 -204.0 83.05 -204.7 82.1 -203.8 81.0 M-215.15 78.85 L-214.55 78.6 Q-214.2 78.6 -213.95 78.85 -213.7 79.1 -213.7 79.45 L-213.95 80.05 -214.55 80.3 -215.15 80.05 -215.4 79.45 -215.15 78.85 M-219.2 75.35 L-218.95 75.75 -219.1 76.75 -219.15 77.05 Q-219.1 78.1 -219.5 78.95 L-219.7 79.4 -219.75 79.2 Q-220.2 78.5 -220.25 77.25 -220.25 76.8 -220.55 76.45 L-221.25 75.95 -221.95 75.6 -221.45 75.4 -220.75 75.35 -219.75 75.15 -219.35 74.85 -219.2 75.35 M-212.85 87.85 L-213.1 88.45 -213.75 88.7 -214.4 88.45 -214.65 87.85 -214.4 87.25 Q-214.15 87.0 -213.75 87.0 -213.35 87.0 -213.1 87.25 -212.85 87.5 -212.85 87.85 M-221.9 95.25 L-222.1 95.3 -222.2 95.15 -221.75 95.15 -221.9 95.25 -221.6 95.2 -221.95 95.55 -222.05 95.35 -221.9 95.25 M-205.25 88.1 L-205.5 87.5 -205.25 86.95 Q-205.05 86.7 -204.7 86.7 -204.35 86.7 -204.1 86.95 L-203.9 87.5 -204.1 88.1 Q-204.35 88.3 -204.7 88.3 L-205.25 88.1 M-245.15 86.4 L-244.15 86.3 -243.75 86.45 -243.35 86.8 -243.2 87.0 -243.5 86.95 -243.4 86.8 -243.55 86.9 -243.75 86.9 -243.6 86.95 -243.8 87.1 -243.9 86.95 -243.9 87.2 -244.05 87.3 -243.9 87.3 -243.95 87.6 -244.4 87.65 -243.45 88.2 -243.5 88.25 -243.7 88.4 -244.55 88.6 Q-245.1 88.6 -245.45 88.25 L-245.55 88.15 -245.75 87.95 -245.15 87.85 -245.05 88.15 -244.7 86.9 -244.9 87.1 -245.55 86.6 -245.15 86.45 -245.15 86.4 M-251.95 85.55 Q-252.75 83.75 -253.15 83.45 L-253.4 83.65 -253.35 83.45 Q-253.3 83.3 -253.15 83.45 L-252.15 82.9 -251.05 84.85 -251.95 85.55 M-257.2 86.15 L-257.3 86.05 -256.4 85.1 -254.75 86.1 -255.7 86.85 -255.65 86.95 -255.8 87.25 -256.0 87.1 Q-256.35 87.5 -255.95 87.5 L-256.05 87.75 -256.7 87.95 -257.3 87.75 -257.75 86.95 -257.3 86.15 -257.2 86.15 M-243.3 87.15 L-243.65 87.2 -243.7 87.3 -243.55 87.55 -243.85 87.6 -243.7 87.3 -243.75 87.25 -243.65 87.2 -243.55 87.0 -243.3 87.15 M-245.0 87.15 L-245.3 87.45 -245.15 87.8 -245.5 87.65 -245.3 87.45 -245.4 87.1 -245.0 87.15 M-188.3 101.85 L-188.0 103.4 -188.95 104.2 -192.85 102.3 -193.0 100.85 -191.2 100.35 -190.2 101.0 -189.95 101.15 -188.3 101.85 M-190.65 110.75 Q-191.1 110.3 -191.1 109.6 -191.1 108.9 -190.65 108.45 -190.2 108.0 -189.5 108.0 -188.8 108.0 -188.35 108.45 -187.9 108.9 -187.9 109.6 -187.9 110.3 -188.35 110.75 -188.8 111.2 -189.5 111.2 -190.2 111.2 -190.65 110.75 M-193.35 120.6 Q-193.35 120.0 -192.9 119.55 -192.45 119.1 -191.8 119.1 -191.15 119.1 -190.7 119.55 -190.25 120.0 -190.25 120.6 -190.25 121.2 -190.7 121.65 -191.15 122.1 -191.8 122.1 -192.45 122.1 -192.9 121.65 L-193.35 120.6 M-207.3 101.9 L-207.55 101.35 -207.3 100.85 Q-207.1 100.6 -206.75 100.6 -206.4 100.6 -206.15 100.85 L-205.95 101.35 -206.15 101.9 -206.75 102.1 -207.3 101.9 M-217.45 99.1 L-217.4 99.05 -217.3 99.0 -217.15 99.05 -217.15 99.1 -217.15 99.2 -217.3 99.2 -217.4 99.2 -217.45 99.1" fill="#ccffcc" fill-rule="evenodd" stroke="none"/>
  </g>
  <defs>
    <radialGradient cx="0" cy="0" gradientTransform="matrix(0.1212, 0.0, 0.0, 0.1212, -172.5, 93.95)" gradientUnits="userSpaceOnUse" id="gradient0" r="819.2" spreadMethod="pad">
      <stop offset="0.2196078431372549" stop-color="#00cc99" stop-opacity="0.5019608"/>
      <stop offset="0.6509803921568628" stop-color="#218383" stop-opacity="0.5019608"/>
    </radialGradient>
    <radialGradient cx="0" cy="0" gradientTransform="matrix(0.2216, 0.0, 0.0, 0.2216, 30.05, -7.2)" gradientUnits="userSpaceOnUse" id="gradient1" r="819.2" spreadMethod="pad">
      <stop offset="0.2196078431372549" stop-color="#00cc99" stop-opacity="0.5019608"/>
      <stop offset="0.6509803921568628" stop-color="#218383" stop-opacity="0.5019608"/>
    </radialGradient>
    <radialGradient cx="0" cy="0" gradientTransform="matrix(-0.1321, 0.0, 0.0, 0.1212, 143.35, 52.05)" gradientUnits="userSpaceOnUse" id="gradient2" r="819.2" spreadMethod="pad">
      <stop offset="0.2196078431372549" stop-color="#00cc99" stop-opacity="0.5019608"/>
      <stop offset="0.6509803921568628" stop-color="#218383" stop-opacity="0.5019608"/>
    </radialGradient>
    <radialGradient cx="0" cy="0" gradientTransform="matrix(0.0795, 0.0, 0.0, 0.0795, -56.75, 150.7)" gradientUnits="userSpaceOnUse" id="gradient3" r="819.2" spreadMethod="pad">
      <stop offset="0.2196078431372549" stop-color="#00cc99" stop-opacity="0.5019608"/>
      <stop offset="0.6509803921568628" stop-color="#218383" stop-opacity="0.5019608"/>
    </radialGradient>
  </defs>
</svg>
