<?xml version="1.0" encoding="UTF-8" standalone="no"?>
<svg xmlns:xlink="http://www.w3.org/1999/xlink" height="70.55px" width="93.4px" xmlns="http://www.w3.org/2000/svg">
  <g transform="matrix(1.0, 0.0, 0.0, 1.0, 46.7, 35.3)">
    <path d="M36.8 -26.8 L35.9 -26.8 32.85 -25.85 32.25 -25.25 32.65 -23.55 33.1 -22.55 33.95 -19.8 35.3 -18.9 37.2 -16.55 37.5 -16.3 38.8 -15.4 39.85 -15.15 40.15 -15.15 40.3 -15.55 40.55 -15.55 40.75 -15.95 41.45 -16.2 43.35 -18.9 42.75 -21.75 42.75 -22.35 42.5 -22.9 42.75 -22.9 42.75 -23.7 42.05 -23.9 41.0 -24.85 41.0 -25.1 39.85 -26.25 37.5 -26.65 37.2 -26.65 36.8 -26.65 36.8 -26.8 37.2 -26.65 M35.9 -26.8 L35.75 -27.4 34.4 -27.2 33.95 -27.05 33.75 -27.05 31.8 -26.25 32.25 -25.25 M33.75 -27.05 L26.7 -25.45 23.9 -24.85 23.6 -24.7 21.45 -24.1 16.9 -24.3 16.0 -24.3 7.7 -24.85 2.15 -26.0 -4.85 -27.4 -21.5 -27.8 -31.2 -15.4 -41.25 -6.25 -35.55 -3.0 -36.45 5.95 -34.4 9.05 -15.8 10.6 -11.6 9.8 -11.6 8.5 -11.0 4.0 -14.25 0.15 -12.75 -0.4 -1.1 -3.15 5.2 -3.9 9.85 -10.75 11.35 -16.7 17.05 -19.65 18.8 -19.4 21.3 -18.1 22.15 -17.75 22.3 -17.5 33.1 -12.8 35.9 -11.3 36.35 -11.3 33.95 -19.8 M19.5 -27.55 L19.7 -28.15 18.8 -27.4 19.05 -27.4 19.5 -27.55 19.05 -27.2 16.9 -24.3 M23.9 -24.85 L27.85 -29.75 28.7 -30.5 20.8 -35.3 19.25 -34.95 7.7 -24.85 M19.05 -27.2 L19.05 -27.4 M26.7 -25.45 L29.6 -28.6 28.7 -30.5 M19.25 -34.95 L2.15 -26.0 M24.35 -14.0 L24.75 -13.45 24.5 -14.0 24.35 -14.0 M22.3 -17.5 L23.9 -15.15 24.5 -14.0 M24.75 -13.45 L25.4 -11.15 24.35 -9.35 22.6 -7.4 22.3 -7.0 19.05 -6.65 15.3 -7.0 14.9 -7.25 14.7 -7.25 14.4 -7.4 11.6 -10.35 11.35 -10.5 11.2 -11.15 11.8 -12.7 11.6 -12.8 12.05 -13.45 12.25 -15.95 17.35 -18.65 21.3 -18.1 M14.7 -7.25 L14.7 -7.4 14.4 -7.4 M6.8 1.65 L-0.05 4.75 -0.5 4.75 -0.65 5.0 -3.3 5.95 -4.0 7.9 7.4 3.85 9.85 2.65 6.8 1.65 M5.2 -3.9 L10.3 1.65 10.95 1.65 16.6 2.3 16.6 3.1 16.9 3.1 37.5 -9.95 45.1 -12.05 42.95 -13.25 42.8 -13.45 39.7 -14.6 M-0.65 5.0 L-3.1 5.4 -3.3 5.95 M32.4 4.4 L29.6 5.0 29.15 5.15 32.25 13.7 33.3 14.85 41.0 19.0 42.3 18.55 40.15 16.65 40.15 16.4 36.35 13.7 35.3 13.15 35.05 12.0 33.95 8.5 33.95 8.25 32.85 5.15 32.4 4.4 33.1 4.0 33.75 4.0 35.75 3.45 39.85 1.9 Q40.05 1.8 40.3 1.65 L46.4 -2.2 46.7 -3.15 Q40.65 1.9 30.65 3.85 L18.8 2.85 34.4 -3.5 39.25 -7.0 40.15 -7.65 42.05 -8.0 42.3 -8.0 43.2 -8.2 46.4 -9.2 46.7 -10.1 45.1 -12.05 M29.15 5.15 L27.55 5.4 28.3 7.1 30.65 13.15 29.8 14.05 31.5 15.1 35.75 19.5 36.6 19.35 35.45 17.8 35.45 17.55 33.3 14.85 M26.7 12.15 L28.3 12.0 28.3 10.45 27.15 10.45 26.7 12.15 7.4 3.85 M33.95 8.5 L34.15 8.5 33.95 8.25 M29.6 5.0 L17.05 3.2 19.5 4.0 19.95 4.0 20.15 4.0 20.15 4.2 21.9 4.4 27.55 5.4 M19.95 4.0 L20.15 4.2 M16.9 3.1 L16.9 3.2 17.05 3.2 M16.6 3.1 L16.6 3.2 16.9 3.2 M21.9 4.4 L24.35 6.55 28.3 7.1 M29.8 14.05 L28.7 16.05 29.15 17.05 35.3 20.55 35.75 19.5 M24.35 6.55 L28.3 10.45 M9.85 2.65 L19.5 4.0 M10.95 1.65 L16.6 3.2 M42.75 -22.35 L42.75 -22.9 M38.8 -15.4 L39.85 -15.0 39.85 -15.15 M42.8 -13.45 L41.45 -16.2 M40.55 -15.55 L40.15 -15.15 39.85 -15.0 M39.25 -7.0 L40.55 -7.65 40.15 -7.65 M40.55 -7.65 L42.05 -8.0 M46.7 -3.15 L46.4 -9.2 M35.75 3.45 L40.55 3.85 40.55 1.9 39.85 1.9 M40.55 1.9 L40.3 1.65 M39.25 7.1 L39.0 9.25 40.15 8.9 39.85 7.1 39.25 7.1 32.85 5.15 M40.15 16.65 L40.3 16.65 40.15 16.4 M36.35 13.7 L42.95 16.25 43.6 16.05 37.9 12.75 35.05 12.0 M40.3 16.65 L42.95 17.05 42.95 16.25 M43.6 16.05 L44.1 16.8 42.95 17.05 M35.45 17.8 L35.75 17.8 35.45 17.55 M35.3 20.55 L36.6 20.1 36.6 19.35 M41.0 19.0 L41.0 19.75 42.5 19.35 42.3 18.55 M35.75 17.8 L41.0 19.75 M39.85 7.1 L33.75 4.0 M34.15 8.5 L39.0 9.25 M16.0 -24.3 L18.8 -27.4 M-2.25 -1.6 L-6.2 4.0 -7.25 14.7 -0.5 28.8 0.4 29.6 8.1 33.7 9.15 33.45 9.15 32.95 7.0 31.4 3.3 28.45 1.55 26.5 -5.9 15.25 -4.0 7.9 M0.4 29.6 L2.6 32.7 7.85 34.45 8.1 33.7 M7.85 34.45 L9.15 34.25 9.15 33.45 M7.0 31.4 L9.85 31.95 9.85 31.15 3.3 28.45 M1.55 26.5 L4.6 27.5 10.75 31.0 11.2 31.5 10.75 31.75 9.85 31.95 M9.85 31.15 L10.75 31.0 M-11.6 9.8 L-12.3 15.1 -3.1 28.3 -3.3 28.8 2.6 34.25 3.45 34.1 2.6 32.7 M-3.3 28.8 L-4.45 30.2 -4.0 31.4 2.4 35.25 2.6 34.25 M2.4 35.25 L3.45 34.9 3.45 34.1 M-41.25 -6.25 L-42.55 -6.85 -40.4 0.35 -36.45 5.95 M-40.4 0.35 L-43.65 3.85 -43.45 4.0 -36.85 14.3 -36.0 15.25 M-43.65 3.85 L-46.5 -3.35 -45.8 1.5 -38.35 13.3 -39.25 16.65 -39.05 16.8 -39.05 17.2 -36.0 20.9 -28.7 31.95 -26.5 31.95 -29.15 25.55 -30.9 21.7 -30.7 21.05 -30.05 21.45 -16.25 32.15 -14.5 31.15 -19.5 24.4 -24.15 18.75 -23.45 18.55 -8.1 26.5 -7.25 26.1 -21.5 17.05 Q-30.05 13.05 -31.6 13.3 L-34.4 9.05 M-42.55 -6.85 Q-47.6 -5.45 -46.5 -3.35 M-8.1 26.5 L-8.1 27.9 -7.5 28.05 -7.05 27.5 -7.25 26.1 M-16.25 32.15 L-16.25 33.3 -15.4 33.7 -14.05 33.3 -14.5 31.15 M-39.05 17.2 Q-39.85 17.7 -34.65 25.55 L-28.7 32.95 -28.7 31.95 M-28.7 32.95 L-28.55 33.7 -26.35 33.85 -26.5 31.95 M-29.15 25.55 L-16.25 33.3 M-19.5 24.4 L-8.1 27.9" fill="none" stroke="#424036" stroke-linecap="round" stroke-linejoin="round" stroke-width="0.05"/>
  </g>
</svg>
