<?xml version="1.0" encoding="UTF-8" standalone="no"?>
<svg xmlns:xlink="http://www.w3.org/1999/xlink" height="63.05px" width="57.05px" xmlns="http://www.w3.org/2000/svg">
  <g transform="matrix(1.0, 0.0, 0.0, 1.0, 28.5, 31.55)">
    <path d="M-22.65 -12.9 L-17.1 -13.15 -9.35 -28.0 -9.0 -28.4 -8.5 -28.55 7.2 -28.5 7.75 -28.35 8.1 -27.95 15.85 -12.75 20.5 -12.9 21.1 -12.7 21.45 -12.2 21.45 -11.55 17.25 0.6 24.75 2.05 25.3 2.3 25.55 2.85 25.45 3.45 13.45 27.9 13.1 28.3 12.55 28.45 -13.75 28.5 -14.3 28.35 -14.65 27.9 -25.4 3.35 -25.5 2.8 -25.25 2.3 -24.75 2.0 -16.15 -0.5 -23.4 -11.35 -23.6 -12.0 -23.25 -12.6 -22.65 -12.9" fill="#000000" fill-rule="evenodd" stroke="none"/>
    <path d="M-22.75 -14.9 Q-23.85 -14.85 -24.65 -14.05 -25.45 -13.35 -25.55 -12.25 -25.7 -11.15 -25.1 -10.2 L-19.35 -1.65 -25.35 0.1 Q-26.2 0.3 -26.75 1.0 -27.35 1.65 -27.45 2.5 -27.6 3.35 -27.25 4.15 L-16.5 28.7 -15.35 30.0 Q-14.65 30.5 -13.75 30.5 L12.55 30.45 14.15 30.0 15.25 28.8 27.25 4.35 Q27.65 3.45 27.55 2.55 27.35 1.6 26.7 0.95 26.05 0.25 25.1 0.05 L19.85 -0.95 23.35 -10.9 Q23.65 -11.9 23.35 -12.8 23.05 -13.75 22.25 -14.35 21.4 -14.95 20.45 -14.9 L17.1 -14.8 9.9 -28.85 8.8 -30.05 7.2 -30.5 -8.5 -30.55 -10.05 -30.1 Q-10.75 -29.7 -11.15 -28.9 L-18.35 -15.1 -22.75 -14.9 M-22.8 -15.9 L-19.0 -16.05 -12.05 -29.4 Q-11.5 -30.4 -10.55 -30.95 -9.6 -31.55 -8.45 -31.55 L7.25 -31.5 Q8.35 -31.5 9.3 -30.9 10.25 -30.3 10.75 -29.3 L17.65 -15.8 20.4 -15.9 Q21.7 -15.95 22.8 -15.15 23.9 -14.4 24.3 -13.1 24.7 -11.85 24.3 -10.6 L21.2 -1.7 25.3 -0.9 Q26.55 -0.7 27.45 0.25 28.3 1.15 28.5 2.4 28.7 3.6 28.15 4.75 L16.15 29.2 Q15.65 30.25 14.7 30.85 13.7 31.45 12.55 31.45 L-13.75 31.5 Q-14.95 31.5 -15.9 30.85 -16.95 30.2 -17.4 29.1 L-28.15 4.55 Q-28.65 3.45 -28.45 2.35 -28.25 1.2 -27.5 0.35 -26.75 -0.55 -25.6 -0.9 L-20.95 -2.25 -25.9 -9.65 Q-26.75 -10.9 -26.55 -12.35 -26.4 -13.8 -25.3 -14.8 -24.25 -15.85 -22.8 -15.9" fill="#000000" fill-opacity="0.24705882" fill-rule="evenodd" stroke="none"/>
    <path d="M-22.7 -13.9 Q-23.45 -13.85 -23.95 -13.35 -24.5 -12.85 -24.55 -12.1 -24.65 -11.4 -24.25 -10.75 L-17.75 -1.1 -25.05 1.05 Q-25.6 1.2 -26.0 1.65 L-26.45 2.65 Q-26.55 3.2 -26.3 3.75 L-15.55 28.3 -14.85 29.2 -13.75 29.5 12.55 29.45 13.6 29.15 14.35 28.35 26.35 3.9 Q26.65 3.3 26.55 2.7 L26.0 1.6 Q25.55 1.15 24.95 1.05 L18.55 -0.2 22.4 -11.25 Q22.6 -11.9 22.4 -12.5 L21.65 -13.5 Q21.1 -13.9 20.45 -13.9 L16.45 -13.75 9.0 -28.4 8.25 -29.2 7.2 -29.5 -8.5 -29.55 -9.5 -29.25 -10.25 -28.45 -17.75 -14.15 -22.7 -13.9 M-22.75 -14.9 L-18.35 -15.1 -11.15 -28.9 Q-10.75 -29.7 -10.05 -30.1 L-8.5 -30.55 7.2 -30.5 8.8 -30.05 9.9 -28.85 17.1 -14.8 20.45 -14.9 Q21.4 -14.95 22.25 -14.35 23.05 -13.75 23.35 -12.8 23.65 -11.9 23.35 -10.9 L19.85 -0.95 25.1 0.05 Q26.05 0.25 26.7 0.95 27.35 1.6 27.55 2.55 27.65 3.45 27.25 4.35 L15.25 28.8 14.15 30.0 12.55 30.45 -13.75 30.5 Q-14.65 30.5 -15.35 30.0 L-16.5 28.7 -27.25 4.15 Q-27.6 3.35 -27.45 2.5 -27.35 1.65 -26.75 1.0 -26.2 0.3 -25.35 0.1 L-19.35 -1.65 -25.1 -10.2 Q-25.7 -11.15 -25.55 -12.25 -25.45 -13.35 -24.65 -14.05 -23.85 -14.85 -22.75 -14.9" fill="#000000" fill-opacity="0.49803922" fill-rule="evenodd" stroke="none"/>
    <path d="M-22.65 -12.9 L-23.25 -12.6 -23.6 -12.0 -23.4 -11.35 -16.15 -0.5 -24.75 2.0 -25.25 2.3 -25.5 2.8 -25.4 3.35 -14.65 27.9 -14.3 28.35 -13.75 28.5 12.55 28.45 13.1 28.3 13.45 27.9 25.45 3.45 25.55 2.85 25.3 2.3 24.75 2.05 17.25 0.6 21.45 -11.55 21.45 -12.2 21.1 -12.7 20.5 -12.9 15.85 -12.75 8.1 -27.95 7.75 -28.35 7.2 -28.5 -8.5 -28.55 -9.0 -28.4 -9.35 -28.0 -17.1 -13.15 -22.65 -12.9 M-22.7 -13.9 L-17.75 -14.15 -10.25 -28.45 -9.5 -29.25 -8.5 -29.55 7.2 -29.5 8.25 -29.2 9.0 -28.4 16.45 -13.75 20.45 -13.9 Q21.1 -13.9 21.65 -13.5 L22.4 -12.5 Q22.6 -11.9 22.4 -11.25 L18.55 -0.2 24.95 1.05 Q25.55 1.15 26.0 1.6 L26.55 2.7 Q26.65 3.3 26.35 3.9 L14.35 28.35 13.6 29.15 12.55 29.45 -13.75 29.5 -14.85 29.2 -15.55 28.3 -26.3 3.75 Q-26.55 3.2 -26.45 2.65 L-26.0 1.65 Q-25.6 1.2 -25.05 1.05 L-17.75 -1.1 -24.25 -10.75 Q-24.65 -11.4 -24.55 -12.1 -24.5 -12.85 -23.95 -13.35 -23.45 -13.85 -22.7 -13.9" fill="#000000" fill-opacity="0.7490196" fill-rule="evenodd" stroke="none"/>
  </g>
</svg>
