<?xml version="1.0" encoding="UTF-8" standalone="no"?>
<svg xmlns:xlink="http://www.w3.org/1999/xlink" height="49.7px" width="62.75px" xmlns="http://www.w3.org/2000/svg">
  <g transform="matrix(1.0, 0.0, 0.0, 1.0, 23.65, 43.8)">
    <path d="M38.65 -24.6 L34.75 -23.25 30.85 -20.65 19.05 -17.0 30.1 -21.4 33.75 -23.85 34.75 -23.9 35.75 -24.6 35.9 -24.6 36.5 -24.7 38.8 -25.4 38.65 -24.6" fill="#2b371b" fill-rule="evenodd" stroke="none"/>
    <path d="M31.35 -37.4 L31.5 -36.7 32.0 -37.15 34.15 -37.8 34.1 -38.2 33.25 -38.1 32.9 -37.95 32.75 -37.95 31.35 -37.4 M24.2 -43.55 L11.7 -37.25 15.2 -36.45 24.2 -35.9 25.75 -36.3 25.95 -36.45 27.9 -36.85 30.2 -39.05 29.9 -40.4 25.3 -43.8 24.2 -43.55 M23.6 -38.75 L23.4 -38.35 23.05 -38.1 23.1 -38.2 23.4 -38.35 M38.8 -25.4 L39.1 -26.05 38.3 -27.45 37.0 -28.25 36.95 -28.4 35.2 -29.5 34.55 -29.8 33.8 -30.4 33.65 -30.6 32.7 -32.2 31.95 -32.9 31.75 -34.8 31.6 -35.5 31.5 -36.7 M36.95 -28.4 L36.4 -30.35 35.9 -30.15 35.75 -29.85 35.4 -29.6 35.2 -29.5 35.25 -29.6 35.4 -29.6 35.55 -29.85 35.75 -29.85 M34.55 -29.8 L35.25 -29.6 M32.75 -37.95 L27.9 -36.85 M11.7 -37.25 L7.25 -38.2 Q1.1 -40.3 -3.7 -37.35 L-11.75 -29.8 -19.65 -23.3 -16.3 -21.05 -18.05 -14.75 -17.1 -12.55 -5.0 -11.5 -2.15 -12.05 -3.0 -12.95 M11.1 -17.75 L6.2 -15.6 5.9 -15.6 5.75 -15.4 3.85 -14.75 3.15 -13.4 11.25 -16.25 13.0 -17.05 11.1 -17.75 M6.55 -21.15 L10.8 -21.7 13.45 -17.75 13.85 -17.75 17.55 -17.3 17.45 -16.75 17.6 -16.75 17.6 -16.7 17.7 -16.7 25.75 -15.4 27.7 -15.85 28.2 -16.1 28.65 -16.1 32.95 -17.6 33.3 -17.75 37.85 -20.5 38.15 -21.15 38.65 -24.6 38.8 -25.4 36.5 -24.7 35.9 -24.6 35.75 -24.6 34.7 -24.3 33.75 -23.85 34.75 -23.9 34.7 -24.3 M17.7 -16.7 L19.2 -16.1 19.5 -16.1 19.65 -16.1 19.6 -15.95 20.75 -15.85 24.35 -15.15 25.45 -15.3 25.75 -15.4 M19.5 -16.1 L19.6 -15.95 M17.45 -16.75 L17.4 -16.7 17.6 -16.7 M19.2 -16.1 L13.0 -17.05 M13.85 -17.75 L17.4 -16.7 M5.75 -15.4 L4.1 -15.15 3.85 -14.75 M-2.15 -12.05 L-3.3 -8.35 1.05 0.95 0.85 1.35 -0.1 2.35 0.05 3.15 3.75 5.9 4.05 5.2 4.6 5.05 4.25 4.1 7.5 5.3 7.75 4.8 8.45 4.65 8.55 4.25 7.3 3.15 9.15 3.55 9.25 3.0 9.85 2.9 6.25 0.4 4.35 -0.25 0.9 -8.2 3.15 -13.4 M32.95 -17.6 L33.45 -17.6 33.3 -17.75 M31.45 -12.4 L32.25 -12.65 32.3 -13.95 31.85 -13.95 31.45 -12.4 28.3 -12.95 28.2 -12.95 28.45 -10.5 30.25 -9.95 33.6 -7.65 33.8 -7.1 33.0 -6.95 31.3 -7.25 31.2 -7.25 32.4 -5.9 32.4 -5.3 31.35 -5.05 28.15 -6.4 27.95 -6.4 28.5 -5.3 28.4 -4.8 27.5 -4.5 23.9 -6.95 23.75 -7.65 24.7 -9.05 25.4 -9.65 24.65 -13.95 22.1 -14.3 24.2 -11.6 24.0 -10.5 22.9 -10.4 Q13.55 -13.3 11.25 -16.25 M34.75 -23.9 L35.75 -24.6 M20.75 -15.85 L22.1 -14.3 M24.65 -13.95 L24.35 -15.15 M28.3 -12.95 L28.25 -13.1 28.2 -12.95 M28.25 -13.1 L27.9 -15.3 27.7 -15.85 M28.15 -6.4 L28.0 -6.55 27.95 -6.4 M28.45 -10.5 L28.5 -9.65 29.1 -9.3 31.25 -7.4 31.3 -7.25 M27.5 -4.5 L27.9 -5.2 28.5 -5.3 M33.0 -6.95 L33.1 -7.5 33.6 -7.65 M31.25 -7.4 L31.2 -7.25 M32.4 -5.9 L31.45 -5.6 31.35 -5.05 M31.85 -13.95 L27.9 -15.3 M28.65 -16.1 Q30.45 -15.05 32.3 -13.95 M9.15 3.55 L9.75 3.4 10.1 3.25 9.85 2.9 M7.5 5.3 L8.35 5.2 8.45 4.65 M3.75 5.9 L4.5 5.6 4.6 5.05 M-19.65 -23.3 L-20.4 -23.75 Q-23.9 -22.8 -23.5 -21.3 L-23.65 -17.85 -20.3 -9.55 -21.35 -7.25 -21.2 -7.1 -21.25 -6.85 -19.9 -2.4 -16.4 3.55 -14.95 3.55 -15.85 -0.95 -8.35 4.5 -7.8 4.8 -6.85 4.5 -6.9 3.0 -9.3 -1.75 -1.8 0.8 -1.45 0.4 -1.4 -0.55 -9.65 -6.95 Q-14.75 -9.75 -15.85 -9.55 L-17.1 -12.55 M-18.05 -14.75 L-19.95 -18.65" fill="none" stroke="#424036" stroke-linecap="round" stroke-linejoin="round" stroke-width="0.05"/>
    <path d="M38.65 -24.6 L34.75 -23.25 30.85 -20.65" fill="none" stroke="#9fd075" stroke-linecap="round" stroke-linejoin="round" stroke-width="0.05"/>
  </g>
</svg>
