<?xml version="1.0" encoding="UTF-8" standalone="no"?>
<svg xmlns:xlink="http://www.w3.org/1999/xlink" height="20.05px" width="31.1px" xmlns="http://www.w3.org/2000/svg">
  <g transform="matrix(1.0, 0.0, 0.0, 1.0, 15.55, 10.05)">
    <path d="M6.3 -4.4 L5.05 -8.6 Q6.25 -9.7 8.85 -10.05 11.3 -9.95 13.1 -8.4 10.7 -8.9 6.3 -4.4 M15.55 -3.7 L15.55 -3.25 Q15.55 -1.1 14.35 0.6 L12.65 1.8 Q9.25 0.1 7.7 -1.6 13.25 -0.6 15.55 -3.7" fill="url(#gradient0)" fill-rule="evenodd" stroke="none"/>
    <path d="M-15.4 4.65 L-15.55 3.2 Q-15.55 0.4 -13.55 -1.6 -11.5 -3.6 -8.65 -3.6 -5.75 -3.6 -3.75 -1.6 L-3.25 -1.05 Q-12.1 -1.65 -15.4 4.65 M-1.85 1.75 Q-1.7 2.45 -1.7 3.2 -1.7 6.0 -3.75 8.0 -5.75 10.0 -8.65 10.0 -11.5 10.0 -13.55 8.0 L-14.45 6.9 Q-5.55 8.0 -1.85 1.75" fill="url(#gradient1)" fill-rule="evenodd" stroke="none"/>
    <path d="M-3.25 -1.05 Q-2.2 0.2 -1.85 1.75 -5.55 8.0 -14.45 6.9 -15.15 5.85 -15.4 4.65 -12.1 -1.65 -3.25 -1.05" fill="url(#gradient2)" fill-rule="evenodd" stroke="none"/>
    <path d="M7.7 -1.6 Q7.05 -2.25 6.75 -2.95 L6.3 -4.4 Q10.7 -8.9 13.1 -8.4 L13.5 -8.05 Q15.4 -6.2 15.55 -3.7 13.25 -0.6 7.7 -1.6" fill="url(#gradient3)" fill-rule="evenodd" stroke="none"/>
    <path d="M7.7 -1.6 Q7.05 -2.25 6.75 -2.95 L6.3 -4.4 5.05 -8.6 Q6.25 -9.7 8.85 -10.05 11.3 -9.95 13.1 -8.4 L13.5 -8.05 Q15.4 -6.2 15.55 -3.7 L15.55 -3.25 Q15.55 -1.1 14.35 0.6 L12.65 1.8 Q9.25 0.1 7.7 -1.6 M13.1 -8.4 Q10.7 -8.9 6.3 -4.4 M-15.4 4.65 L-15.55 3.2 Q-15.55 0.4 -13.55 -1.6 -11.5 -3.6 -8.65 -3.6 -5.75 -3.6 -3.75 -1.6 L-3.25 -1.05 Q-2.2 0.2 -1.85 1.75 -1.7 2.45 -1.7 3.2 -1.7 6.0 -3.75 8.0 -5.75 10.0 -8.65 10.0 -11.5 10.0 -13.55 8.0 L-14.45 6.9 Q-15.15 5.85 -15.4 4.65 -12.1 -1.65 -3.25 -1.05" fill="none" stroke="#424036" stroke-linecap="round" stroke-linejoin="round" stroke-width="0.05"/>
    <path d="M7.7 -1.6 Q13.25 -0.6 15.55 -3.7 M-14.45 6.9 Q-5.55 8.0 -1.85 1.75" fill="none" stroke="#9fd075" stroke-linecap="round" stroke-linejoin="round" stroke-width="0.05"/>
  </g>
  <defs>
    <radialGradient cx="0" cy="0" gradientTransform="matrix(0.0067, 0.0, 0.0, 0.0067, 9.35, -9.0)" gradientUnits="userSpaceOnUse" id="gradient0" r="819.2" spreadMethod="pad">
      <stop offset="0.0" stop-color="#aee481"/>
      <stop offset="1.0" stop-color="#495e31"/>
    </radialGradient>
    <radialGradient cx="0" cy="0" gradientTransform="matrix(0.0097, 0.0, 0.0, 0.0097, -11.2, -1.2)" gradientUnits="userSpaceOnUse" id="gradient1" r="819.2" spreadMethod="pad">
      <stop offset="0.0" stop-color="#aee481"/>
      <stop offset="1.0" stop-color="#495e31"/>
    </radialGradient>
    <radialGradient cx="0" cy="0" gradientTransform="matrix(0.0026, 0.0, 0.0, 0.0026, -7.75, 1.75)" gradientUnits="userSpaceOnUse" id="gradient2" r="819.2" spreadMethod="pad">
      <stop offset="0.0" stop-color="#ffffff"/>
      <stop offset="1.0" stop-color="#000000"/>
    </radialGradient>
    <radialGradient cx="0" cy="0" gradientTransform="matrix(0.0016, 0.0, 0.0, 0.0016, 11.4, -5.55)" gradientUnits="userSpaceOnUse" id="gradient3" r="819.2" spreadMethod="pad">
      <stop offset="0.0" stop-color="#ffffff"/>
      <stop offset="1.0" stop-color="#000000"/>
    </radialGradient>
  </defs>
</svg>
