<?xml version="1.0" encoding="UTF-8" standalone="no"?>
<svg xmlns:xlink="http://www.w3.org/1999/xlink" height="20.05px" width="31.1px" xmlns="http://www.w3.org/2000/svg">
  <g transform="matrix(1.0, 0.0, 0.0, 1.0, 15.55, 10.05)">
    <path d="M6.9 -3.25 L6.9 -3.2 6.9 -3.25 8.9 -3.9 6.9 -3.25 M10.85 -4.55 L8.9 -3.9 10.85 -4.55 12.85 -5.2 10.85 -4.55 M6.9 -3.2 L6.75 -3.15 5.05 -8.6 Q6.25 -9.7 8.85 -10.05 11.3 -9.95 14.8 -5.9 L12.85 -5.2 14.95 -5.9 15.55 -3.25 Q15.55 -1.1 14.35 0.6 L12.65 1.8 Q9.3 0.15 6.95 -2.7 L6.85 -2.85 7.05 -2.65 6.9 -3.2 8.9 -3.9 6.9 -3.2 M7.05 -2.65 L6.95 -2.7 7.05 -2.65" fill="url(#gradient0)" fill-rule="evenodd" stroke="none"/>
    <path d="M-15.0 5.75 L-15.55 3.2 Q-15.55 0.4 -13.55 -1.6 -11.5 -3.6 -8.65 -3.6 -5.75 -3.6 -3.75 -1.6 L-2.4 0.6 -15.0 5.75 M-2.25 0.8 Q-1.7 2.45 -1.7 3.2 -1.7 6.0 -3.75 8.0 -5.75 10.0 -8.65 10.0 -11.5 10.0 -13.55 8.0 L-14.9 5.95 -2.25 0.8" fill="url(#gradient1)" fill-rule="evenodd" stroke="none"/>
    <path d="M-2.4 0.6 Q-2.2 0.2 -2.25 0.8 L-14.9 5.95 Q-15.15 5.85 -15.0 5.75 L-2.4 0.6" fill="url(#gradient2)" fill-rule="evenodd" stroke="none"/>
    <path d="M6.9 -3.2 L6.9 -3.25 M8.9 -3.9 L10.85 -4.55 M12.85 -5.2 L14.8 -5.9 Q11.3 -9.95 8.85 -10.05 6.25 -9.7 5.05 -8.6 L6.75 -3.15 6.9 -3.2 8.9 -3.9 M6.85 -2.85 L6.95 -2.7 7.05 -2.65 6.9 -3.2 6.9 -2.95 6.75 -3.15 M6.95 -2.7 Q9.3 0.15 12.65 1.8 L14.35 0.6 Q15.55 -1.1 15.55 -3.25 L14.95 -5.9 M-15.0 5.75 L-15.55 3.2 Q-15.55 0.4 -13.55 -1.6 -11.5 -3.6 -8.65 -3.6 -5.75 -3.6 -3.75 -1.6 L-2.4 0.6 Q-2.2 0.2 -2.25 0.8 -1.7 2.45 -1.7 3.2 -1.7 6.0 -3.75 8.0 -5.75 10.0 -8.65 10.0 -11.5 10.0 -13.55 8.0 L-14.9 5.95 Q-15.15 5.85 -15.0 5.75 L-2.4 0.6" fill="none" stroke="#424036" stroke-linecap="round" stroke-linejoin="round" stroke-width="0.05"/>
    <path d="M6.9 -3.25 L8.9 -3.9 M10.85 -4.55 L12.85 -5.2 14.95 -5.9 M7.05 -2.65 L6.85 -2.85 M-14.9 5.95 L-2.25 0.8" fill="none" stroke="#9fd075" stroke-linecap="round" stroke-linejoin="round" stroke-width="0.05"/>
  </g>
  <defs>
    <radialGradient cx="0" cy="0" gradientTransform="matrix(0.0067, 0.0, 0.0, 0.0067, 9.35, -9.0)" gradientUnits="userSpaceOnUse" id="gradient0" r="819.2" spreadMethod="pad">
      <stop offset="0.0" stop-color="#aee481"/>
      <stop offset="1.0" stop-color="#495e31"/>
    </radialGradient>
    <radialGradient cx="0" cy="0" gradientTransform="matrix(0.0097, 0.0, 0.0, 0.0097, -11.2, -1.2)" gradientUnits="userSpaceOnUse" id="gradient1" r="819.2" spreadMethod="pad">
      <stop offset="0.0" stop-color="#aee481"/>
      <stop offset="1.0" stop-color="#495e31"/>
    </radialGradient>
    <radialGradient cx="0" cy="0" gradientTransform="matrix(0.0041, 0.0, 0.0, 0.0041, -6.85, 0.9)" gradientUnits="userSpaceOnUse" id="gradient2" r="819.2" spreadMethod="pad">
      <stop offset="0.0" stop-color="#ffffff"/>
      <stop offset="1.0" stop-color="#000000"/>
    </radialGradient>
  </defs>
</svg>
