<?xml version="1.0" encoding="UTF-8" standalone="no"?>
<svg xmlns:xlink="http://www.w3.org/1999/xlink" height="266.0px" width="503.0px" xmlns="http://www.w3.org/2000/svg">
  <g transform="matrix(1.0, 0.0, 0.0, 1.0, 260.7, 65.4)">
    <path d="M-89.5 188.2 Q-89.45 190.05 -90.55 191.5 L-90.9 191.95 -89.5 188.2 M-158.25 106.55 Q-149.95 109.45 -144.65 116.35 L-143.25 118.1 -143.2 119.7 Q-142.8 127.05 -147.05 132.7 -147.8 133.7 -148.8 134.3 -152.1 130.45 -155.75 126.9 -161.85 120.95 -168.65 115.85 -171.1 114.0 -173.2 111.0 -177.0 105.5 -182.6 101.4 -189.4 96.35 -197.3 92.7 -204.75 89.3 -213.0 87.45 -221.3 85.65 -230.05 85.0 -238.4 84.4 -247.0 84.9 -257.05 85.5 -250.0 82.2 -248.45 81.0 -236.95 80.0 -229.9 78.45 -223.95 78.7 -220.65 78.85 -216.9 79.95 L-210.05 81.75 -201.75 82.45 Q-196.7 82.75 -193.55 84.2 -185.65 87.8 -178.2 91.5 -170.25 95.45 -164.8 101.95 -162.1 105.2 -158.25 106.55" fill="url(#gradient0)" fill-rule="evenodd" stroke="none"/>
    <path d="M26.3 -22.2 Q29.0 -31.95 30.65 -42.65 32.4 -53.7 34.95 -64.05 39.75 -56.25 40.55 -45.7 41.35 -34.95 41.45 -23.7 41.5 -12.25 42.35 -0.55 43.2 10.45 47.3 20.6 49.05 24.85 48.9 29.45 48.75 35.95 47.55 42.5 45.6 53.35 47.4 64.35 47.95 67.85 48.85 71.25 46.7 73.25 43.7 74.45 39.85 75.95 35.8 75.0 31.65 74.05 27.65 72.4 L25.45 71.3 Q21.55 74.0 16.8 69.9 15.85 63.45 14.5 57.15 11.85 45.05 15.2 34.1 17.45 26.65 18.1 16.65 18.65 8.15 20.65 -0.1 23.3 -11.2 26.3 -22.2" fill="url(#gradient1)" fill-rule="evenodd" stroke="none"/>
    <path d="M206.05 43.1 Q196.5 43.75 187.5 45.55 178.5 47.4 170.4 50.8 161.75 54.45 154.35 59.5 148.25 63.6 144.1 69.1 141.8 72.1 139.15 73.95 131.75 79.05 125.1 85.0 L123.75 86.25 Q117.8 87.0 116.55 80.65 115.3 74.4 118.85 69.2 L119.05 68.95 Q122.95 66.2 127.8 64.65 132.0 63.3 134.95 60.05 140.9 53.55 149.55 49.6 157.65 45.9 166.3 42.3 169.7 40.85 175.25 40.55 L184.25 39.85 191.75 38.05 Q195.8 36.95 199.4 36.8 205.9 36.55 213.6 38.1 226.1 39.1 227.8 40.3 235.5 43.6 224.55 43.0 215.15 42.5 206.05 43.1" fill="url(#gradient2)" fill-rule="evenodd" stroke="none"/>
    <path d="M-54.9 143.35 Q-47.35 143.35 -42.0 146.9 -31.65 153.75 -31.55 162.9 L-31.4 168.45 Q-33.2 170.95 -35.6 173.0 -39.95 176.6 -43.15 180.9 L-44.85 182.75 -44.4 182.95 -45.7 184.5 Q-46.7 173.5 -47.0 162.9 -53.2 170.4 -54.35 180.45 -54.75 183.85 -59.2 183.45 -62.95 183.15 -67.1 184.3 -69.2 174.0 -66.9 164.35 -66.2 161.5 -67.45 158.25 -68.8 154.75 -68.85 152.05 -65.5 146.6 -61.4 143.85 L-58.65 143.5 -54.9 143.35" fill="url(#gradient3)" fill-rule="evenodd" stroke="none"/>
    <path d="M41.15 -65.05 L41.15 -65.0 41.3 -65.1 41.4 -65.1 41.25 -64.75 41.2 -64.7 41.25 -64.75 41.0 -65.0 40.7 -64.95 41.2 -64.65 41.2 -64.6 41.2 -64.65 41.3 -64.6 41.5 -64.5 42.1 -63.9 40.6 -63.9 40.6 -65.4 41.0 -65.0 41.15 -65.05 M40.6 -62.15 L40.6 -62.05 40.6 -62.0 40.55 -61.85 40.1 -61.95 40.1 -62.15 40.6 -62.15 40.65 -62.45 40.75 -62.2 40.7 -62.15 40.6 -62.15 M40.55 -61.6 L40.4 -61.75 40.55 -61.8 40.55 -61.6 M41.0 -61.65 L41.15 -61.2 41.1 -61.2 40.8 -61.4 40.9 -61.55 41.0 -61.65 M41.7 -53.0 L41.95 -53.6 43.1 -53.35 43.0 -52.55 41.7 -53.0 M39.85 -62.05 L40.0 -61.95 39.85 -62.0 39.85 -62.05 M40.2 -61.85 L40.1 -61.8 40.1 -61.9 40.2 -61.85 M34.05 -60.55 L33.85 -60.9 34.05 -61.2 34.35 -61.4 34.7 -61.2 34.85 -60.9 34.7 -60.55 34.35 -60.4 34.05 -60.55 M32.1 -56.2 L32.05 -56.5 32.35 -56.7 32.1 -56.2 Q32.5 -56.05 32.85 -55.85 L33.4 -55.45 33.7 -54.85 33.8 -54.65 33.75 -54.55 33.2 -54.85 Q32.7 -55.2 32.55 -55.8 L32.15 -55.85 32.25 -55.45 31.9 -55.8 31.95 -55.85 32.15 -55.85 32.1 -56.15 32.1 -56.2 M31.8 -56.35 L31.95 -56.45 31.95 -56.25 31.8 -56.35 M32.55 -55.8 L32.65 -55.75 32.7 -55.75 32.55 -55.85 32.55 -55.8 M33.65 -54.4 L33.6 -54.4 33.65 -54.35 33.6 -54.3 33.65 -54.3 33.9 -53.95 33.25 -53.55 33.6 -54.3 33.35 -54.4 33.6 -54.4 33.4 -54.7 33.7 -54.5 33.65 -54.4 M33.85 -54.4 L33.8 -54.5 33.95 -54.4 33.85 -54.4 M34.2 -54.15 L33.95 -54.0 33.9 -54.25 34.2 -54.15 M32.3 -50.9 L32.45 -50.85 32.5 -50.7 32.45 -50.55 32.3 -50.5 32.15 -50.55 32.1 -50.7 32.15 -50.85 32.3 -50.9 M40.25 -55.05 L40.45 -55.25 40.8 -54.75 40.25 -55.05 M40.15 -54.35 L39.6 -54.25 39.95 -54.7 40.0 -54.6 40.1 -54.4 40.15 -54.35 M39.8 -45.2 L40.2 -45.05 40.3 -45.0 40.25 -44.9 39.6 -43.15 Q39.4 -42.6 39.65 -42.0 L39.8 -41.75 39.9 -41.5 39.8 -41.55 39.8 -41.35 39.9 -41.4 39.95 -41.45 39.95 -41.4 39.9 -41.4 39.85 -41.3 40.05 -40.9 39.5 -41.25 39.8 -41.35 39.65 -41.55 39.65 -41.6 39.3 -42.15 38.5 -42.8 37.75 -43.05 37.7 -43.05 36.8 -44.5 39.35 -45.5 39.8 -45.2 M31.35 -37.75 L32.65 -37.55 32.7 -36.35 32.7 -36.3 32.5 -36.0 32.15 -36.05 31.85 -35.9 31.7 -36.1 31.25 -36.2 31.3 -36.6 31.0 -37.0 31.35 -37.25 31.35 -37.75 M35.3 -40.3 L35.9 -40.45 36.0 -39.7 35.4 -39.6 35.3 -40.3 M39.8 -41.35 L39.75 -41.15 39.85 -41.3 39.8 -41.35 M26.6 -46.95 L26.85 -47.5 27.4 -47.75 28.0 -47.5 28.2 -46.95 28.0 -46.35 27.4 -46.15 26.85 -46.35 Q26.6 -46.6 26.6 -46.95 M40.35 -37.1 L40.9 -37.15 41.7 -37.25 42.3 -37.75 Q43.6 -39.5 44.2 -39.6 44.8 -39.2 45.3 -36.75 45.2 -36.35 45.35 -35.95 45.5 -35.6 45.8 -35.35 L46.45 -34.8 46.55 -34.25 Q46.7 -33.75 47.15 -33.4 47.6 -33.1 48.15 -33.15 L49.7 -32.85 50.2 -32.4 50.0 -32.15 48.45 -31.65 48.15 -31.6 48.05 -31.65 47.35 -32.05 47.25 -32.75 46.7 -33.65 45.75 -34.0 45.25 -34.0 44.6 -34.65 44.05 -35.05 42.55 -35.65 42.05 -36.3 41.55 -36.7 40.95 -36.9 40.3 -37.05 40.35 -37.1 M38.55 -28.0 L38.75 -30.4 41.0 -30.2 40.45 -28.75 40.4 -28.0 40.7 -27.3 41.2 -26.7 41.9 -26.2 42.7 -26.2 43.4 -26.6 43.65 -26.85 Q44.1 -27.3 44.1 -27.9 L44.45 -28.2 46.1 -28.65 46.45 -28.65 47.6 -28.9 47.65 -28.9 48.95 -27.1 48.85 -26.3 48.05 -25.45 47.7 -25.4 Q47.1 -25.35 46.75 -24.9 L46.1 -24.25 Q45.2 -23.65 44.45 -23.7 43.6 -23.9 42.85 -25.0 L42.2 -25.5 41.4 -25.6 39.25 -25.25 38.55 -28.0 M17.55 -15.95 Q18.05 -16.5 18.8 -16.5 19.55 -16.5 20.1 -15.95 20.6 -15.45 20.6 -14.7 20.6 -13.95 20.1 -13.4 19.55 -12.9 18.8 -12.9 18.05 -12.9 17.55 -13.4 17.0 -13.95 17.0 -14.7 17.0 -15.45 17.55 -15.95 M14.15 -7.3 L15.25 -6.05 14.35 -3.65 14.25 -3.15 14.25 -2.8 12.75 -1.5 12.4 -1.0 12.25 -0.4 12.25 1.45 10.0 2.15 9.95 2.1 Q9.35 1.4 9.55 0.5 9.75 -0.65 10.55 -1.4 L10.9 -1.95 11.0 -2.6 10.9 -4.15 10.95 -4.2 11.4 -4.85 Q12.1 -6.8 14.15 -7.3 M38.75 -17.45 Q38.4 -17.1 37.85 -17.1 37.3 -17.1 36.95 -17.45 36.6 -17.8 36.6 -18.3 36.6 -18.8 36.95 -19.15 37.3 -19.5 37.85 -19.5 38.4 -19.5 38.75 -19.15 39.1 -18.8 39.1 -18.3 39.1 -17.8 38.75 -17.45 M30.15 -3.3 L28.9 -5.25 29.5 -6.1 31.6 -5.45 31.6 -4.65 Q31.6 -4.15 31.9 -3.7 L33.3 -1.9 32.4 -0.25 30.5 -0.85 30.35 -2.6 30.15 -3.3 M39.45 -6.85 Q37.2 -7.2 36.2 -8.0 35.8 -8.35 35.9 -8.65 36.3 -9.4 37.55 -9.8 L40.55 -10.15 41.4 -10.3 42.65 -10.9 44.4 -10.3 45.25 -10.3 45.3 -10.3 44.9 -9.75 44.15 -8.0 44.0 -7.55 43.8 -5.95 43.2 -5.35 41.75 -5.2 40.25 -6.5 39.45 -6.85 M51.15 -38.1 L51.1 -37.95 50.95 -37.9 50.8 -37.95 50.75 -38.1 50.8 -38.25 50.95 -38.3 51.1 -38.25 51.15 -38.1 M47.35 -19.4 Q47.9 -18.85 47.9 -18.1 47.9 -17.35 47.35 -16.8 46.8 -16.25 46.0 -16.25 45.2 -16.25 44.65 -16.8 44.1 -17.35 44.1 -18.1 44.1 -18.85 44.65 -19.4 45.2 -19.95 46.0 -19.95 46.8 -19.95 47.35 -19.4 M46.0 -10.75 L47.85 -12.9 49.15 -12.1 48.6 -10.7 46.2 -10.65 45.8 -10.6 46.0 -10.75 M216.3 34.05 L216.6 33.85 216.95 34.05 217.1 34.35 216.95 34.7 Q216.85 34.7 216.6 34.85 L216.3 34.7 216.1 34.35 216.3 34.05 M220.4 32.15 L220.7 32.25 220.9 32.6 220.75 32.95 220.5 33.1 220.2 33.0 220.0 32.6 220.2 32.25 220.4 32.15 M210.75 37.55 L211.15 38.05 210.35 38.25 210.85 37.0 211.2 37.7 211.85 37.9 211.35 38.0 211.2 37.7 210.75 37.55 M211.7 38.85 L211.85 39.15 210.9 38.7 211.45 38.5 211.65 38.75 211.7 38.85 M203.45 38.75 L203.25 38.55 203.5 38.2 204.1 38.9 203.45 38.75 M202.9 38.2 L203.0 38.2 203.0 38.35 202.9 38.2 M203.05 38.85 L202.5 39.65 202.35 38.5 203.05 38.65 203.05 38.85 M204.45 40.95 L204.35 40.9 204.55 40.95 204.45 40.95 M206.35 43.25 L206.1 42.25 206.35 41.65 207.15 43.6 206.7 43.4 206.45 43.55 206.35 43.25 205.7 43.15 205.75 43.0 206.35 43.25 206.7 43.4 206.85 43.35 206.35 43.25 M222.7 40.25 L222.65 40.0 222.85 40.05 222.9 40.05 222.85 40.1 222.7 40.25 M222.6 39.45 L222.55 39.2 222.55 39.05 224.2 40.25 224.35 40.35 222.95 40.65 222.9 40.65 222.95 40.55 222.95 40.65 223.1 40.15 223.2 40.2 223.35 40.25 223.25 40.1 223.15 40.0 223.2 39.75 223.1 39.9 222.75 39.45 222.75 39.4 222.75 39.45 222.6 39.45 M218.1 40.25 L217.95 40.6 217.6 40.75 217.3 40.6 217.1 40.25 217.3 39.95 217.6 39.75 217.95 39.95 218.1 40.25 M214.65 38.95 L214.65 38.8 214.7 38.65 215.15 38.8 214.65 38.95 214.7 39.1 214.3 39.1 214.4 39.2 214.4 39.3 214.45 39.25 214.5 39.35 214.45 39.35 214.4 39.3 214.3 39.15 214.25 39.1 214.0 39.1 214.2 39.05 214.05 38.8 214.25 39.05 214.4 39.0 214.45 39.0 214.55 39.0 214.65 38.95 M214.6 38.65 L214.7 38.65 214.6 38.75 214.6 38.65 M224.3 30.65 L224.5 31.0 224.35 31.35 224.1 31.5 223.8 31.4 223.6 31.0 223.8 30.65 224.0 30.55 224.3 30.65 M232.4 34.6 L231.8 34.95 231.05 34.7 230.55 33.8 231.0 33.0 231.6 32.65 232.4 32.95 232.85 33.8 232.4 34.6 M226.05 43.9 L226.25 44.25 226.1 44.6 225.85 44.75 225.55 44.65 225.35 44.25 225.55 43.9 225.75 43.8 226.05 43.9 M240.0 38.8 L242.3 39.65 242.1 40.3 Q241.9 40.3 240.65 41.05 L240.4 41.05 239.8 40.35 239.6 40.05 240.0 38.8 M242.1 40.5 L242.05 40.6 242.0 40.55 242.1 40.5 M236.8 38.0 L235.95 39.15 235.95 39.2 235.15 40.3 235.0 40.15 235.0 40.05 234.85 39.55 234.3 40.05 233.25 38.75 234.25 37.5 235.05 39.0 235.75 38.0 236.8 38.0 236.85 38.0 236.8 38.0 M180.7 36.35 L180.85 34.75 182.85 34.05 183.6 33.45 185.05 31.35 186.15 31.65 186.2 33.35 184.35 33.95 183.55 34.45 Q183.25 34.85 183.25 35.35 L183.25 36.35 182.0 36.95 180.7 36.35 M168.05 33.25 Q168.55 33.5 169.0 34.5 169.65 36.0 169.5 37.75 L169.5 37.8 Q169.4 40.2 168.65 41.55 L167.95 42.2 Q167.4 41.95 166.95 40.9 166.25 39.25 166.35 37.35 166.45 35.15 167.25 33.9 167.65 33.3 168.05 33.25 M162.25 43.6 L161.0 44.05 Q160.25 44.05 159.8 43.6 159.3 43.1 159.3 42.35 159.3 41.6 159.8 41.15 160.25 40.65 161.0 40.65 161.75 40.65 162.25 41.15 162.7 41.6 162.7 42.35 162.7 43.1 162.25 43.6 M177.65 43.3 L177.65 43.9 177.6 43.9 175.4 41.95 175.75 41.3 177.95 42.0 177.65 43.3 M179.95 45.25 L180.6 45.85 180.6 45.9 Q180.4 48.55 179.65 49.85 L179.45 50.25 Q178.9 49.9 178.55 48.65 177.95 46.75 178.1 45.15 L178.1 44.7 178.15 44.75 Q178.45 45.0 178.85 45.1 L179.95 45.25 M198.15 28.15 L197.55 28.4 196.95 28.15 196.7 27.6 Q196.7 27.3 196.95 27.05 197.2 26.8 197.55 26.8 197.9 26.8 198.15 27.05 L198.4 27.6 198.15 28.15 M191.5 40.1 Q191.6 38.3 192.0 37.35 L192.05 37.3 192.45 38.55 192.6 40.6 192.75 41.45 193.3 42.05 194.1 42.25 194.85 42.5 195.0 42.75 195.25 43.55 196.4 45.4 196.2 45.45 195.9 45.85 193.1 42.95 Q192.7 42.6 192.2 42.55 L190.75 42.35 191.4 40.55 191.5 40.1 M185.45 44.3 L186.1 44.35 187.85 44.05 188.5 45.35 186.5 44.7 185.65 44.65 Q185.25 44.75 184.95 45.05 L184.65 45.35 183.9 45.35 183.5 45.1 184.4 44.0 185.45 44.3 M200.9 42.7 L200.65 42.1 201.25 42.45 201.2 42.7 200.9 42.7 M201.05 43.05 L201.35 42.85 201.5 42.9 201.55 42.75 201.65 42.7 201.6 42.65 201.6 42.6 201.85 42.55 201.65 42.7 202.8 43.4 200.6 44.1 201.05 43.05 200.9 42.75 201.15 42.8 201.2 42.8 201.05 43.05 M170.75 52.25 L169.55 53.45 169.2 54.05 Q169.05 54.35 169.15 54.7 L169.15 55.25 169.15 55.3 Q169.2 57.25 167.6 58.2 L167.3 58.45 166.7 58.95 166.65 59.0 164.45 59.25 163.85 58.4 Q163.55 57.95 163.05 57.85 160.9 57.15 160.4 56.5 L160.55 56.1 Q161.3 55.4 162.8 55.15 L165.25 55.05 166.3 54.95 167.45 54.35 168.1 53.65 168.25 52.7 168.0 51.65 Q168.05 50.55 168.6 49.7 168.95 49.15 169.4 49.1 L170.2 49.7 Q170.8 50.6 170.75 51.8 L170.75 52.25 M163.65 68.25 Q164.15 68.75 164.15 69.5 164.15 70.25 163.65 70.8 163.1 71.3 162.35 71.3 161.6 71.3 161.1 70.8 160.55 70.25 160.55 69.5 160.55 68.75 161.1 68.25 161.6 67.7 162.35 67.7 163.1 67.7 163.65 68.25 M179.1 72.3 Q179.5 71.85 180.15 71.85 180.8 71.85 181.25 72.3 181.65 72.7 181.65 73.3 181.65 73.9 181.25 74.35 180.8 74.75 180.15 74.75 179.5 74.75 179.1 74.35 178.65 73.9 178.65 73.3 178.65 72.7 179.1 72.3 M208.7 50.95 L208.65 50.8 208.7 50.65 208.85 50.6 209.0 50.65 209.05 50.8 209.0 50.95 208.85 51.0 208.7 50.95 M107.6 95.0 Q108.05 94.3 109.6 93.9 L112.85 93.5 112.85 95.9 112.7 96.05 112.35 96.6 111.95 96.5 Q109.05 96.15 107.9 95.35 L107.6 95.0 M118.0 89.6 L116.7 92.15 114.75 91.9 Q114.7 90.2 116.2 89.65 L116.35 89.6 117.35 89.35 117.8 89.4 118.05 89.4 118.0 89.6 M149.3 51.85 Q150.05 51.85 150.6 52.4 151.1 52.9 151.1 53.6 151.1 54.3 150.6 54.85 150.05 55.35 149.3 55.35 148.55 55.35 148.05 54.85 147.5 54.3 147.5 53.6 147.5 52.9 148.05 52.4 148.55 51.85 149.3 51.85 M143.0 54.7 L143.0 56.45 140.55 57.3 139.9 56.05 141.3 54.1 142.5 54.2 143.0 54.7 M147.05 66.3 L146.3 66.0 146.05 66.0 146.0 66.0 Q144.45 65.85 143.55 65.15 143.0 64.75 143.0 64.3 143.15 63.75 143.95 63.35 144.9 62.85 146.05 62.85 L146.2 62.85 146.55 62.85 146.7 62.85 Q147.9 62.85 148.75 63.7 149.6 64.5 149.6 65.6 L149.8 66.4 150.4 66.95 151.15 67.1 Q152.1 67.05 152.75 67.65 153.35 68.2 153.35 68.95 153.35 69.7 152.75 70.25 152.05 70.85 151.1 70.85 150.65 70.85 150.3 71.1 L149.75 71.7 149.4 72.5 147.95 73.15 147.85 73.25 147.25 73.6 146.1 73.55 145.45 73.0 145.8 70.4 148.5 69.45 149.3 68.8 149.5 67.75 149.0 66.85 Q148.55 66.5 148.0 66.5 L147.3 66.5 147.05 66.3 M138.95 60.05 L139.4 62.25 138.8 63.0 136.8 63.3 136.75 62.9 136.65 61.9 Q136.6 60.6 137.8 60.3 L137.9 60.3 Q138.4 60.1 138.95 60.05 M128.25 56.85 Q128.25 57.6 127.7 58.15 127.15 58.7 126.35 58.7 125.55 58.7 125.0 58.15 124.45 57.6 124.45 56.85 124.45 56.1 125.0 55.55 125.55 55.0 126.35 55.0 127.15 55.0 127.7 55.55 128.25 56.1 128.25 56.85 M128.9 68.1 Q128.1 68.1 127.55 67.55 127.0 67.0 127.0 66.2 127.0 65.4 127.55 64.85 128.1 64.3 128.9 64.3 129.7 64.3 130.25 64.85 130.8 65.4 130.8 66.2 130.8 67.0 130.25 67.55 129.7 68.1 128.9 68.1 M137.25 85.25 Q137.8 85.8 137.8 86.6 137.8 87.4 137.25 87.95 136.7 88.5 135.9 88.5 135.1 88.5 134.55 87.95 134.0 87.4 134.0 86.6 134.0 85.8 134.55 85.25 135.1 84.7 135.9 84.7 136.7 84.7 137.25 85.25 M128.1 74.55 Q128.6 74.0 129.4 74.0 130.2 74.0 130.75 74.55 131.25 75.05 131.25 75.8 131.25 76.55 130.75 77.1 130.2 77.6 129.4 77.6 128.6 77.6 128.1 77.1 127.55 76.55 127.55 75.8 127.55 75.05 128.1 74.55 M141.4 94.15 Q141.4 94.95 140.9 95.5 140.35 96.0 139.6 96.0 138.85 96.0 138.35 95.5 137.8 94.95 137.8 94.15 137.8 93.35 138.35 92.85 138.85 92.3 139.6 92.3 140.35 92.3 140.9 92.85 141.4 93.35 141.4 94.15 M155.9 85.3 Q155.35 85.8 154.6 85.8 153.85 85.8 153.35 85.3 152.8 84.75 152.8 83.95 152.8 83.15 153.35 82.65 153.85 82.1 154.6 82.1 155.35 82.1 155.9 82.65 156.4 83.15 156.4 83.95 156.4 84.75 155.9 85.3 M142.8 82.7 L142.85 81.6 143.0 81.45 142.95 81.5 Q144.75 80.2 146.25 81.8 L147.05 82.25 Q148.45 82.55 148.55 83.95 L148.5 85.1 146.7 85.65 145.25 84.55 145.05 84.45 143.2 83.5 142.8 82.7 M52.0 12.05 L50.95 12.75 49.35 12.4 48.75 11.6 50.3 9.7 52.05 10.45 52.0 12.05 M45.75 12.05 L45.75 12.1 Q45.75 12.9 45.15 13.5 44.45 14.1 43.5 14.1 L43.0 14.2 41.6 14.7 Q41.2 14.85 40.95 15.15 L40.1 16.15 39.8 16.8 39.75 16.75 Q39.35 16.35 38.8 16.35 37.6 16.3 36.8 15.65 36.25 15.15 36.25 14.5 36.35 13.8 37.05 13.3 37.9 12.7 39.0 12.75 L39.75 12.6 40.35 12.15 40.7 11.65 44.05 10.55 45.75 12.05 M41.45 22.1 L41.25 22.0 Q39.95 21.4 39.6 20.55 39.4 19.7 40.05 18.6 L40.2 18.2 Q40.55 18.5 41.0 18.6 L42.05 18.75 42.65 19.35 42.25 21.65 41.45 22.1 M48.8 27.9 Q49.85 27.7 50.65 28.2 L50.2 29.8 50.0 29.85 49.8 29.85 Q48.2 30.3 47.0 29.25 L46.75 29.05 47.0 28.8 Q47.7 27.95 48.6 27.9 L48.8 27.9 M44.85 29.4 L43.55 30.95 41.45 30.4 39.6 28.7 39.75 27.6 41.95 26.8 44.95 29.05 45.1 29.15 44.85 29.4 M37.7 5.3 Q38.5 5.3 39.05 5.85 39.55 6.35 39.55 7.1 39.55 7.85 39.05 8.4 38.5 8.9 37.7 8.9 36.9 8.9 36.4 8.4 35.85 7.85 35.85 7.1 35.85 6.35 36.4 5.85 36.9 5.3 37.7 5.3 M21.8 17.35 Q22.35 17.9 22.35 18.7 22.35 19.5 21.8 20.05 21.25 20.6 20.5 20.6 19.75 20.6 19.2 20.05 18.65 19.5 18.65 18.7 18.65 17.9 19.2 17.35 19.75 16.8 20.5 16.8 21.25 16.8 21.8 17.35 M39.85 42.55 Q39.3 43.1 38.5 43.1 37.7 43.1 37.15 42.55 36.6 42.0 36.6 41.2 36.6 40.4 37.15 39.85 37.7 39.3 38.5 39.3 39.3 39.3 39.85 39.85 40.4 40.4 40.4 41.2 40.4 42.0 39.85 42.55 M35.45 60.2 Q34.85 60.75 34.0 60.75 33.15 60.75 32.6 60.2 32.0 59.6 32.0 58.8 32.0 58.0 32.6 57.45 33.15 56.85 34.0 56.85 34.85 56.85 35.45 57.45 36.0 58.0 36.0 58.8 36.0 59.6 35.45 60.2 M28.7 56.35 L27.35 56.85 Q26.55 56.85 26.05 56.35 25.5 55.8 25.5 55.05 25.5 54.3 26.05 53.8 26.55 53.25 27.35 53.25 28.15 53.25 28.7 53.8 29.2 54.3 29.2 55.05 29.2 55.8 28.7 56.35 M39.85 71.7 Q39.85 70.9 40.4 70.35 40.95 69.8 41.75 69.8 42.55 69.8 43.1 70.35 43.65 70.9 43.65 71.7 43.65 72.5 43.1 73.05 42.55 73.6 41.75 73.6 40.95 73.6 40.4 73.05 39.85 72.5 39.85 71.7 M79.75 69.25 Q80.3 69.8 80.3 70.65 80.3 71.5 79.75 72.05 79.2 72.6 78.4 72.6 77.6 72.6 77.05 72.05 76.5 71.5 76.5 70.65 76.5 69.8 77.05 69.25 77.6 68.7 78.4 68.7 79.2 68.7 79.75 69.25 M41.65 57.5 Q42.2 56.95 42.95 56.95 43.7 56.95 44.25 57.5 44.8 58.05 44.8 58.85 44.8 59.65 44.25 60.2 43.7 60.75 42.95 60.75 42.2 60.75 41.65 60.2 41.1 59.65 41.1 58.85 41.1 58.05 41.65 57.5 M130.9 108.55 Q130.9 109.3 130.4 109.8 129.9 110.3 129.15 110.3 128.4 110.3 127.9 109.8 127.4 109.3 127.4 108.55 127.4 107.8 127.9 107.3 128.4 106.8 129.15 106.8 129.9 106.8 130.4 107.3 130.9 107.8 130.9 108.55 M112.45 100.9 L113.15 98.6 115.35 100.9 114.65 101.8 112.45 100.9 M112.75 109.45 Q112.2 109.95 111.45 109.95 110.7 109.95 110.2 109.45 109.65 108.9 109.65 108.1 109.65 107.3 110.2 106.8 110.7 106.25 111.45 106.25 112.2 106.25 112.75 106.8 113.25 107.3 113.25 108.1 113.25 108.9 112.75 109.45 M-3.7 11.85 Q-2.95 11.85 -2.4 12.4 -1.9 12.9 -1.9 13.65 -1.9 14.4 -2.4 14.95 -2.95 15.45 -3.7 15.45 -4.45 15.45 -4.95 14.95 -5.5 14.4 -5.5 13.65 -5.5 12.9 -4.95 12.4 -4.45 11.85 -3.7 11.85 M-152.85 89.95 Q-152.85 90.7 -153.35 91.25 -153.9 91.75 -154.65 91.75 -155.4 91.75 -155.9 91.25 -156.45 90.7 -156.45 89.95 -156.45 89.2 -155.9 88.7 -155.4 88.15 -154.65 88.15 -153.9 88.15 -153.35 88.7 -152.85 89.2 -152.85 89.95 M-158.2 95.95 Q-158.2 96.8 -158.75 97.35 -159.3 97.9 -160.15 97.9 -161.0 97.9 -161.55 97.35 -162.1 96.8 -162.1 95.95 -162.1 95.1 -161.55 94.55 -161.0 94.0 -160.15 94.0 -159.3 94.0 -158.75 94.55 -158.2 95.1 -158.2 95.95 M-148.25 102.8 Q-146.6 102.9 -146.1 104.7 -145.95 105.2 -145.45 105.5 -144.55 106.15 -143.6 106.75 -143.45 108.15 -144.7 109.1 -146.65 109.1 -146.9 107.15 L-147.15 106.5 Q-147.35 106.2 -147.65 106.05 L-149.1 105.2 -148.95 102.95 -148.25 102.8 M-157.7 115.05 Q-158.25 114.5 -158.25 113.7 -158.25 112.9 -157.7 112.35 -157.15 111.8 -156.4 111.8 -155.65 111.8 -155.1 112.35 -154.55 112.9 -154.55 113.7 -154.55 114.5 -155.1 115.05 -155.65 115.6 -156.4 115.6 -157.15 115.6 -157.7 115.05 M-147.5 117.75 Q-148.3 117.75 -148.85 117.2 -149.4 116.65 -149.4 115.85 -149.4 115.05 -148.85 114.5 -148.3 113.95 -147.5 113.95 -146.7 113.95 -146.15 114.5 -145.6 115.05 -145.6 115.85 -145.6 116.65 -146.15 117.2 -146.7 117.75 -147.5 117.75 M-159.45 142.2 Q-160.0 141.65 -160.0 140.85 -160.0 140.05 -159.45 139.5 -158.9 138.95 -158.1 138.95 -157.3 138.95 -156.75 139.5 -156.2 140.05 -156.2 140.85 -156.2 141.65 -156.75 142.2 -157.3 142.75 -158.1 142.75 -158.9 142.75 -159.45 142.2 M-147.65 145.55 Q-148.4 145.55 -148.9 145.05 -149.45 144.5 -149.45 143.75 -149.45 143.0 -148.9 142.5 -148.4 141.95 -147.65 141.95 -146.9 141.95 -146.35 142.5 -145.85 143.0 -145.85 143.75 -145.85 144.5 -146.35 145.05 -146.9 145.55 -147.65 145.55 M-133.6 141.8 L-132.35 141.3 -130.65 142.45 -130.65 143.05 -130.45 143.7 -130.05 144.2 Q-128.5 145.35 -128.35 146.45 -128.5 147.35 -129.65 148.35 -131.45 147.8 -131.75 145.85 L-132.0 145.3 -132.4 144.85 -133.85 143.9 -133.6 141.8 M-131.2 157.35 Q-130.65 156.8 -129.8 156.8 -128.95 156.8 -128.4 157.35 -127.85 157.9 -127.85 158.7 -127.85 159.5 -128.4 160.05 -128.95 160.6 -129.8 160.6 -130.65 160.6 -131.2 160.05 -131.75 159.5 -131.75 158.7 -131.75 157.9 -131.2 157.35 M-133.65 180.15 Q-134.2 180.7 -135.0 180.7 -135.8 180.7 -136.35 180.15 -136.9 179.6 -136.9 178.8 -136.9 178.0 -136.35 177.45 -135.8 176.9 -135.0 176.9 -134.2 176.9 -133.65 177.45 -133.1 178.0 -133.1 178.8 -133.1 179.6 -133.65 180.15 M-96.9 197.2 Q-96.15 197.2 -95.65 197.7 -95.2 198.15 -95.2 198.9 -95.2 199.65 -95.65 200.15 -96.15 200.6 -96.9 200.6 L-98.1 200.15 Q-98.6 199.65 -98.6 198.9 -98.6 198.15 -98.1 197.7 -97.65 197.2 -96.9 197.2 M-35.65 148.15 Q-35.65 148.9 -36.15 149.45 -36.7 149.95 -37.4 149.95 -38.1 149.95 -38.6 149.45 -39.15 148.9 -39.15 148.15 -39.15 147.4 -38.6 146.9 -38.1 146.35 -37.4 146.35 -36.7 146.35 -36.15 146.9 -35.65 147.4 -35.65 148.15 M-45.6 159.35 Q-45.35 159.6 -45.35 159.95 L-45.6 160.55 -46.15 160.8 -46.7 160.55 -46.95 159.95 -46.7 159.35 -46.15 159.1 Q-45.85 159.1 -45.6 159.35 M-52.35 154.15 L-52.45 154.05 -51.25 152.7 -51.85 154.65 -52.35 154.15 M-59.5 149.8 Q-58.8 150.85 -58.9 152.2 L-58.65 153.05 Q-58.4 153.45 -57.95 153.65 L-54.9 154.85 -54.95 155.15 Q-54.95 155.8 -55.45 156.25 -56.0 156.75 -56.75 156.75 -57.25 156.75 -57.6 157.05 L-57.8 157.2 -58.1 156.65 -59.0 155.55 Q-59.35 155.15 -59.85 155.05 L-60.85 155.2 -61.55 155.95 -61.65 156.2 -61.7 157.15 -61.2 157.9 -60.2 158.75 Q-59.8 159.1 -59.2 159.1 -58.6 159.1 -58.2 158.7 L-58.15 158.65 -58.15 158.7 -57.9 159.25 -57.65 159.45 -56.4 160.4 -56.8 161.85 -56.8 162.75 -56.25 163.5 -55.4 163.75 -55.1 163.85 -55.0 164.1 -54.65 165.05 Q-54.35 165.45 -53.85 165.55 L-53.25 165.7 -52.6 165.75 -52.0 165.45 -51.0 164.7 -49.7 165.3 -50.4 166.2 -50.6 166.55 -50.8 167.0 -52.05 166.6 -53.2 166.7 -53.85 167.05 -54.35 167.45 -55.55 169.1 -55.9 169.1 Q-56.25 169.15 -56.55 169.35 L-58.3 170.5 -58.9 171.25 -58.95 172.15 -58.85 172.5 -58.55 173.05 -58.1 173.45 -57.95 173.9 -57.55 174.5 -57.25 174.7 -57.3 174.8 Q-57.6 175.25 -57.5 175.8 L-57.45 176.25 -59.65 174.9 -60.05 174.45 -60.7 174.15 -61.95 173.9 -62.8 174.0 Q-63.25 174.15 -63.5 174.55 L-63.75 175.3 -63.8 175.25 -64.55 175.45 -64.9 175.5 -64.9 175.35 -65.0 174.15 Q-65.05 173.6 -65.4 173.2 -65.8 172.8 -66.35 172.75 -68.65 172.55 -69.8 172.0 L-70.55 171.35 -70.25 171.05 Q-69.5 170.45 -68.05 170.15 L-65.45 170.0 Q-64.9 170.05 -64.4 169.75 L-64.05 169.5 -63.1 169.5 -62.7 169.75 -61.85 170.0 -60.95 169.7 -60.45 168.95 -59.7 166.45 Q-59.55 165.95 -59.75 165.45 L-60.35 164.75 Q-60.8 164.45 -61.3 164.5 L-62.9 164.7 -63.75 164.25 -64.35 163.2 -64.2 162.1 -63.95 161.85 -63.55 161.2 -63.5 160.45 -63.75 159.3 Q-63.85 158.85 -64.15 158.55 -64.5 158.25 -64.9 158.15 L-65.85 157.95 -66.45 157.05 -67.0 154.1 -63.75 153.3 -63.0 152.8 -62.65 151.95 Q-62.6 150.5 -61.85 149.6 -61.3 148.95 -60.65 148.95 -59.95 149.05 -59.5 149.8 M-52.65 171.7 L-52.65 171.6 -52.7 171.6 -52.7 171.7 -52.7 171.75 -52.7 171.7 -52.65 171.7 M-52.65 171.5 L-52.5 171.9 -52.55 171.85 -52.65 171.85 -53.0 171.8 -53.05 171.6 -53.75 171.6 -52.3 170.6 -52.6 171.4 -52.75 171.2 -52.65 171.45 -52.65 171.5 M-52.7 171.6 L-53.2 171.5 -52.95 171.6 -52.7 171.6 M-66.0 177.35 Q-65.9 177.95 -66.25 178.35 L-67.45 177.3 -66.05 176.95 -66.0 177.35 M-69.65 183.65 L-69.55 182.9 -69.5 183.55 -69.2 184.5 -67.65 186.65 -68.5 187.8 -68.95 187.6 -68.95 187.55 Q-69.95 187.05 -70.2 186.4 -70.4 185.55 -69.8 184.45 L-69.65 183.65 M-62.05 180.85 L-59.75 181.4 -59.45 183.5 -59.2 184.15 -58.05 185.75 -58.15 186.8 -59.25 187.75 -59.6 188.25 -59.75 188.85 -59.75 190.6 -59.5 191.4 -58.95 191.95 -58.15 192.1 Q-56.5 192.0 -55.05 192.7 -54.1 193.15 -53.9 193.75 -53.95 194.2 -54.5 194.6 -55.75 195.4 -57.75 195.5 L-58.5 195.8 Q-59.85 196.7 -60.75 196.6 -61.5 196.3 -62.05 194.95 L-62.15 194.7 -61.4 193.3 -61.25 192.35 Q-61.35 191.85 -61.75 191.5 -63.45 189.95 -62.3 188.1 L-62.3 188.05 -61.9 187.5 -61.65 186.75 -61.5 185.15 Q-61.45 184.6 -61.75 184.15 L-62.85 182.5 -62.05 180.85 M-66.45 195.3 Q-65.95 195.8 -65.95 196.6 -65.95 197.4 -66.45 197.95 -67.0 198.45 -67.75 198.45 -68.5 198.45 -69.0 197.95 -69.55 197.4 -69.55 196.6 -69.55 195.8 -69.0 195.3 -68.5 194.75 -67.75 194.75 -67.0 194.75 -66.45 195.3 M-50.85 173.4 L-50.9 173.4 -50.85 173.35 -50.85 173.4 M-50.85 173.8 L-51.1 173.35 -50.4 173.65 -50.85 173.8 -50.8 173.95 -50.95 173.85 -50.9 173.8 -50.9 173.85 -50.85 173.8 M-58.0 183.2 L-57.05 182.25 -55.4 183.25 -56.8 184.25 -58.0 183.2 M-53.55 183.85 L-53.5 183.55 -52.2 183.1 -51.0 183.65 -50.55 184.55 -50.95 186.15 -50.95 186.85 Q-51.3 186.6 -51.65 186.6 -52.9 186.55 -53.4 186.0 -53.85 185.25 -53.55 183.9 L-53.55 183.85 M-47.5 189.75 L-48.4 190.55 -49.8 190.25 -50.25 187.85 -50.25 187.8 -49.35 188.0 -47.9 187.85 -47.5 189.75 M-47.25 195.7 Q-46.75 195.15 -45.95 195.15 -45.15 195.15 -44.6 195.7 -44.1 196.2 -44.1 197.0 -44.1 197.8 -44.6 198.35 -45.15 198.85 -45.95 198.85 -46.75 198.85 -47.25 198.35 -47.8 197.8 -47.8 197.0 -47.8 196.2 -47.25 195.7 M-50.7 173.4 L-50.5 173.0 -50.2 173.55 -50.7 173.4 M-16.2 164.3 Q-16.75 163.75 -16.75 162.95 -16.75 162.15 -16.2 161.6 -15.65 161.05 -14.85 161.05 -14.05 161.05 -13.5 161.6 -12.95 162.15 -12.95 162.95 -12.95 163.75 -13.5 164.3 -14.05 164.85 -14.85 164.85 -15.65 164.85 -16.2 164.3 M-27.7 159.9 Q-27.15 160.3 -27.1 161.0 -27.1 161.65 -27.6 162.15 -28.25 162.75 -29.2 162.75 L-29.9 163.0 -30.8 163.5 -31.7 163.5 -32.9 162.6 -32.95 160.9 -32.4 160.25 Q-32.0 159.85 -32.0 159.3 -32.0 158.75 -32.35 158.3 L-33.9 156.4 -33.45 154.75 -32.7 154.25 -31.45 154.25 -30.6 154.8 -30.3 155.65 -30.85 157.45 Q-31.0 157.9 -30.8 158.35 L-30.25 159.1 -29.35 159.35 Q-28.4 159.3 -27.7 159.9 M-37.75 159.8 Q-37.2 160.35 -37.2 161.15 -37.2 161.95 -37.75 162.5 -38.3 163.05 -39.1 163.05 -39.9 163.05 -40.45 162.5 -41.0 161.95 -41.0 161.15 -41.0 160.35 -40.45 159.8 -39.9 159.25 -39.1 159.25 -38.3 159.25 -37.75 159.8 M-211.5 73.25 Q-211.3 73.0 -210.95 73.0 -210.6 73.0 -210.35 73.25 L-210.15 73.8 -210.35 74.4 -210.95 74.6 -211.5 74.4 -211.75 73.8 -211.5 73.25 M-232.7 77.85 L-232.65 77.9 -232.75 77.9 -232.7 77.85 M-230.9 78.05 L-230.85 78.1 Q-230.4 78.35 -230.2 78.9 L-230.1 79.15 -229.65 77.85 -228.4 79.85 -231.4 79.5 -231.6 79.45 -231.85 79.4 -232.2 79.15 -232.7 78.4 -232.8 78.05 -232.75 78.05 -232.3 78.35 -232.55 78.05 -232.25 78.0 -232.45 77.95 -231.85 77.9 -231.25 77.9 -230.9 78.05 M-232.85 77.85 L-233.0 77.8 -233.0 77.85 -233.05 77.8 -233.2 77.75 -233.05 77.85 -233.35 78.0 -233.35 78.1 -233.5 78.1 -233.35 78.0 -233.25 77.25 -233.05 77.8 -233.0 77.8 -232.85 77.75 -232.85 77.85 M-232.85 78.0 L-232.95 78.05 -233.0 77.9 -232.85 78.0 -232.8 77.95 -232.8 78.0 -232.85 78.0 -232.8 78.05 -232.9 78.05 -232.9 78.1 -232.9 78.05 -232.85 78.0 M-232.6 78.0 L-232.65 77.9 -232.45 77.95 -232.6 78.0 M-230.25 79.25 L-230.2 79.35 -230.15 79.35 -229.95 79.65 -230.05 79.4 -229.6 79.55 -230.0 79.25 -230.1 79.25 -230.1 79.15 -230.15 79.25 -230.25 79.25 M-234.9 75.45 L-234.75 75.75 -234.9 76.1 -235.25 76.25 -235.55 76.1 -235.75 75.75 -235.55 75.45 -235.25 75.25 Q-235.0 75.4 -234.9 75.45 M-242.4 79.4 L-242.55 79.65 -242.8 79.8 -243.05 79.65 -243.2 79.4 -243.05 79.15 -242.8 79.0 -242.55 79.15 -242.4 79.4 M-238.95 79.65 L-238.75 80.0 -238.9 80.35 -239.15 80.5 -239.45 80.4 -239.65 80.0 -239.45 79.65 -239.25 79.55 -238.95 79.65 M-236.6 91.25 L-236.8 90.9 -236.6 90.55 -236.25 90.35 -235.9 90.55 -235.7 90.9 -235.9 91.25 -236.25 91.45 -236.6 91.25 M-240.8 87.85 L-241.15 88.0 -241.45 87.85 -241.65 87.5 -241.45 87.2 -241.15 87.0 -240.8 87.2 -240.65 87.5 -240.8 87.85 M-242.15 89.5 L-241.8 89.7 -241.65 90.0 -241.8 90.35 -242.15 90.5 -242.45 90.35 -242.65 90.0 -242.45 89.7 -242.15 89.5 M-223.4 88.3 L-223.5 88.45 -223.75 88.5 -223.4 88.3 -223.35 88.2 -223.3 88.25 -223.4 88.3 M-223.3 88.4 L-223.25 88.4 -223.2 88.45 -223.3 88.45 -223.25 88.7 -223.2 88.45 -222.75 89.3 -224.1 88.5 -223.75 88.5 -223.85 88.5 -223.5 88.5 -223.6 88.7 -223.3 88.4 M-223.2 88.35 L-223.15 88.3 -223.2 88.25 -223.2 88.2 -223.15 87.9 -222.25 88.35 -223.1 88.45 -223.2 88.45 -223.2 88.35 M-223.4 87.85 L-223.35 88.15 -223.35 88.2 -223.7 87.6 -223.2 87.85 -223.3 88.05 -223.4 87.85 M-227.45 98.7 L-227.3 98.75 -227.3 98.85 -227.3 99.0 -227.45 99.0 -227.55 99.0 -227.6 98.85 -227.55 98.75 -227.45 98.7 M-205.15 77.4 Q-204.7 76.95 -204.05 76.95 -203.4 76.95 -202.95 77.4 -202.5 77.85 -202.5 78.5 -202.5 79.15 -202.95 79.6 L-204.05 80.05 Q-204.7 80.05 -205.15 79.6 L-205.6 78.5 -205.15 77.4 M-209.2 84.45 L-209.25 84.5 -210.4 85.75 -210.8 85.3 -210.8 85.25 -210.45 84.2 -209.2 84.45 M-206.1 84.35 L-207.6 84.1 -206.9 83.45 -205.95 84.0 -206.1 84.35 M-215.6 78.5 L-216.25 78.75 -216.9 78.5 -217.15 77.9 -216.9 77.3 Q-216.65 77.05 -216.25 77.05 L-215.6 77.3 Q-215.35 77.55 -215.35 77.9 L-215.6 78.5 M-221.9 77.85 L-221.75 77.8 -221.6 77.85 -221.55 78.0 -221.6 78.15 -221.75 78.2 -221.9 78.15 -221.95 78.0 -221.9 77.85 M-213.05 96.15 L-212.55 96.0 -212.4 96.4 -212.85 96.6 -213.05 96.15 M-220.25 89.5 L-219.55 88.7 -219.6 90.05 -219.85 89.95 -220.25 89.5 M-203.6 97.0 L-203.05 96.8 -202.5 97.0 -202.3 97.5 -202.5 98.0 Q-202.7 98.2 -203.05 98.2 L-203.6 98.0 -203.8 97.5 -203.6 97.0 M-197.25 88.35 L-194.2 87.9 -194.7 90.55 -195.35 90.5 -196.2 90.75 -196.4 90.9 -196.5 90.35 -197.1 88.75 -197.3 88.35 -197.25 88.35 M-196.9 92.0 L-196.85 92.3 -196.55 94.1 -198.35 95.3 -198.75 94.7 -198.75 94.75 -199.0 93.5 -197.0 92.1 -196.9 92.0 M-199.25 87.95 L-200.9 88.05 -200.95 88.0 -201.6 87.7 -201.6 87.65 -201.65 87.65 -201.9 87.4 -202.2 87.15 -200.6 85.9 -198.7 87.75 -199.25 87.95 M-184.85 91.55 L-184.75 92.85 -185.15 93.4 -185.85 93.75 Q-186.45 94.0 -186.65 94.6 L-187.5 96.95 -188.95 96.55 -188.2 93.9 Q-188.05 93.4 -188.25 92.9 L-188.7 91.9 -188.55 90.9 -187.7 89.85 -186.15 89.85 -184.85 91.55 M-166.25 79.15 L-166.25 80.45 -167.0 81.75 Q-167.35 82.25 -167.2 82.8 -167.1 83.4 -166.6 83.75 -165.4 84.55 -165.25 86.0 L-165.25 87.0 -165.1 87.7 -163.85 90.7 -164.8 91.6 -166.1 91.6 -167.25 90.6 -168.05 90.25 -168.9 90.4 -170.3 91.1 -171.8 89.5 -171.8 89.45 Q-171.6 87.5 -169.75 87.05 L-169.25 86.8 -168.85 86.35 -167.45 83.85 Q-167.2 83.35 -167.25 82.85 -167.4 82.3 -167.8 81.95 L-169.65 80.45 -169.55 79.0 -168.85 78.4 -166.7 78.55 -166.25 79.15 M-181.05 95.05 Q-180.55 94.5 -179.75 94.5 -178.95 94.5 -178.4 95.05 -177.9 95.55 -177.9 96.3 -177.9 97.05 -178.4 97.6 -178.95 98.1 -179.75 98.1 -180.55 98.1 -181.05 97.6 -181.6 97.05 -181.6 96.3 -181.6 95.55 -181.05 95.05 M-249.1 83.75 L-249.55 83.55 -250.2 82.55 -249.55 81.6 -249.1 81.35 -248.6 81.6 -248.0 82.55 -248.6 83.55 -249.1 83.75 M-259.05 85.5 L-258.5 86.4 -259.05 87.3 -259.6 87.55 -260.1 87.3 -260.7 86.4 -260.1 85.5 -259.6 85.25 -259.05 85.5 M-256.7 84.35 L-256.25 84.6 -256.8 84.75 -256.9 84.75 -256.95 84.5 -256.85 84.7 -256.7 84.35 M-244.2 91.5 L-244.0 91.85 -244.15 92.2 -244.4 92.35 -244.7 92.25 -244.9 91.85 -244.7 91.5 -244.5 91.4 -244.2 91.5 M-163.95 110.15 Q-163.95 110.9 -164.45 111.4 -164.95 111.9 -165.7 111.9 -166.45 111.9 -166.95 111.4 -167.45 110.9 -167.45 110.15 -167.45 109.4 -166.95 108.9 -166.45 108.4 -165.7 108.4 -164.95 108.4 -164.45 108.9 -163.95 109.4 -163.95 110.15 M-180.9 105.3 L-181.65 105.65 -182.1 106.05 -182.4 106.6 -183.3 109.5 -186.0 108.8 -187.15 108.95 -187.6 109.25 -188.55 109.15 -189.5 108.15 -189.5 107.3 -188.75 106.3 -188.35 106.2 -187.9 106.0 -186.6 105.15 -185.55 105.25 -184.6 105.05 -183.95 104.25 Q-183.5 103.0 -182.25 102.6 L-181.4 102.55 -180.9 105.3 M-164.9 117.3 Q-164.4 117.8 -164.4 118.5 -164.4 119.2 -164.9 119.75 -165.45 120.25 -166.2 120.25 -166.95 120.25 -167.45 119.75 -168.0 119.2 -168.0 118.5 -168.0 117.8 -167.45 117.3 -166.95 116.75 -166.2 116.75 -165.45 116.75 -164.9 117.3 M-197.75 109.95 Q-197.35 110.35 -197.35 110.95 -197.35 111.55 -197.75 112.0 -198.2 112.4 -198.85 112.4 -199.5 112.4 -199.9 112.0 L-200.35 110.95 Q-200.35 110.35 -199.9 109.95 -199.5 109.5 -198.85 109.5 -198.2 109.5 -197.75 109.95 M-163.3 130.05 L-162.2 130.45 -161.65 132.9 -162.15 133.45 -162.6 133.55 -163.25 133.8 -163.7 134.25 -165.1 136.75 -166.45 136.6 -167.45 135.65 -165.2 132.65 -164.9 131.9 -164.8 131.0 -164.25 130.35 -163.3 130.05 M-180.75 129.95 Q-181.5 129.95 -182.0 129.45 -182.55 128.9 -182.55 128.1 -182.55 127.3 -182.0 126.8 -181.5 126.25 -180.75 126.25 -180.0 126.25 -179.45 126.8 -178.95 127.3 -178.95 128.1 -178.95 128.9 -179.45 129.45 -180.0 129.95 -180.75 129.95 M-174.4 140.2 Q-173.9 139.65 -173.2 139.65 -172.5 139.65 -171.95 140.2 -171.45 140.7 -171.45 141.45 -171.45 142.2 -171.95 142.75 -172.5 143.25 -173.2 143.25 -173.9 143.25 -174.4 142.75 -174.95 142.2 -174.95 141.45 -174.95 140.7 -174.4 140.2 M-214.65 100.65 L-214.05 100.3 -213.65 100.9 -214.3 101.15 -214.65 100.65 M-224.85 101.45 L-224.7 101.5 -224.65 101.65 -224.7 101.8 -224.85 101.85 -225.0 101.8 -225.05 101.65 -225.0 101.5 -224.85 101.45" fill="#ccffcc" fill-rule="evenodd" stroke="none"/>
  </g>
  <defs>
    <radialGradient cx="0" cy="0" gradientTransform="matrix(0.1212, 0.0, 0.0, 0.1212, -172.5, 93.95)" gradientUnits="userSpaceOnUse" id="gradient0" r="819.2" spreadMethod="pad">
      <stop offset="0.2196078431372549" stop-color="#00cc99" stop-opacity="0.5019608"/>
      <stop offset="0.6509803921568628" stop-color="#218383" stop-opacity="0.5019608"/>
    </radialGradient>
    <radialGradient cx="0" cy="0" gradientTransform="matrix(0.2216, 0.0, 0.0, 0.2216, 30.05, -7.2)" gradientUnits="userSpaceOnUse" id="gradient1" r="819.2" spreadMethod="pad">
      <stop offset="0.2196078431372549" stop-color="#00cc99" stop-opacity="0.5019608"/>
      <stop offset="0.6509803921568628" stop-color="#218383" stop-opacity="0.5019608"/>
    </radialGradient>
    <radialGradient cx="0" cy="0" gradientTransform="matrix(-0.1321, 0.0, 0.0, 0.1212, 143.35, 52.05)" gradientUnits="userSpaceOnUse" id="gradient2" r="819.2" spreadMethod="pad">
      <stop offset="0.2196078431372549" stop-color="#00cc99" stop-opacity="0.5019608"/>
      <stop offset="0.6509803921568628" stop-color="#218383" stop-opacity="0.5019608"/>
    </radialGradient>
    <radialGradient cx="0" cy="0" gradientTransform="matrix(0.0795, 0.0, 0.0, 0.0795, -56.75, 150.7)" gradientUnits="userSpaceOnUse" id="gradient3" r="819.2" spreadMethod="pad">
      <stop offset="0.2196078431372549" stop-color="#00cc99" stop-opacity="0.5019608"/>
      <stop offset="0.6509803921568628" stop-color="#218383" stop-opacity="0.5019608"/>
    </radialGradient>
  </defs>
</svg>
