<?xml version="1.0" encoding="UTF-8" standalone="no"?>
<svg xmlns:xlink="http://www.w3.org/1999/xlink" height="17.25px" width="51.0px" xmlns="http://www.w3.org/2000/svg">
  <g transform="matrix(1.0, 0.0, 0.0, 1.0, 25.2, 15.6)">
    <path d="M12.4 -0.9 L5.1 0.15 Q4.25 0.0 -2.3 0.25 L-14.2 1.1 -23.7 1.6 Q-27.8 1.4 -20.55 -1.2 -13.3 -3.85 -1.05 -2.1 4.65 -0.65 9.85 -1.9 L16.4 -3.45 Q17.8 -3.7 24.85 -7.85 18.9 -2.0 12.4 -0.9" fill="url(#gradient0)" fill-rule="evenodd" stroke="none"/>
    <path d="M20.85 -13.6 L23.35 -14.8 Q26.5 -16.3 25.6 -14.95 24.65 -13.6 20.5 -11.6 16.35 -9.6 15.0 -9.05 L6.05 -5.75 Q-1.55 -3.0 -0.75 -3.55 L10.75 -8.95 20.85 -13.6" fill="#000000" fill-rule="evenodd" stroke="none"/>
  </g>
  <defs>
    <radialGradient cx="0" cy="0" gradientTransform="matrix(0.0258, 0.0, 0.0, 0.0125, -3.8, -0.2)" gradientUnits="userSpaceOnUse" id="gradient0" r="819.2" spreadMethod="pad">
      <stop offset="0.0" stop-color="#aee481"/>
      <stop offset="1.0" stop-color="#495e31"/>
    </radialGradient>
  </defs>
</svg>
