<?xml version="1.0" encoding="UTF-8" standalone="no"?>
<svg xmlns:xlink="http://www.w3.org/1999/xlink" height="31.6px" width="31.95px" xmlns="http://www.w3.org/2000/svg">
  <g transform="matrix(1.0, 0.0, 0.0, 1.0, 15.95, 15.8)">
    <path d="M14.7 -11.75 L15.2 -10.9 15.5 -8.75 15.5 -8.7 15.45 -8.5 Q15.05 -9.1 14.55 -9.05 L13.95 -8.85 14.45 -9.5 14.5 -9.65 14.65 -10.4 14.35 -11.15 13.8 -11.6 13.45 -11.75 13.0 -11.9 13.45 -12.05 13.55 -12.05 14.65 -11.8 14.7 -11.75 M15.85 -3.55 L15.95 -2.3 15.8 -2.45 15.2 -2.7 14.75 -2.65 14.05 -2.35 13.2 -1.55 12.55 -0.45 12.4 1.7 12.2 1.3 12.15 1.1 Q11.85 -0.05 10.8 -0.5 L10.75 -0.55 10.35 -0.65 Q9.7 -0.7 8.9 -0.05 L8.5 0.3 8.4 0.4 8.45 0.3 8.5 0.25 9.2 -1.05 9.4 -1.4 10.3 -2.45 Q10.7 -2.75 11.2 -2.75 L11.7 -2.7 12.4 -2.05 12.4 -2.25 12.5 -2.65 13.05 -3.9 13.75 -4.8 14.15 -5.15 13.95 -4.8 Q13.8 -4.5 14.25 -4.4 14.65 -4.35 14.5 -3.55 14.35 -2.75 14.7 -2.7 L15.2 -3.15 15.35 -4.05 15.15 -4.8 15.1 -4.9 14.65 -5.45 14.6 -5.45 15.05 -5.6 Q15.5 -5.65 15.65 -4.9 L15.8 -3.8 15.85 -3.55 M12.45 12.65 L11.7 13.55 11.5 13.8 10.4 14.7 10.25 14.8 9.45 15.2 8.55 15.4 8.65 15.3 8.7 15.25 9.15 14.8 9.4 14.5 Q10.0 13.55 9.75 12.7 L10.1 12.6 10.25 12.5 12.2 11.55 12.25 11.5 12.6 11.7 12.6 12.4 12.45 12.65 M6.3 15.5 L5.85 15.65 5.55 15.7 3.4 15.55 3.45 15.5 3.6 15.4 4.35 14.3 4.35 14.05 4.1 13.35 5.55 13.0 6.65 12.95 7.2 12.4 7.9 11.3 8.35 10.45 8.4 10.25 8.7 8.8 8.35 7.5 8.25 7.3 7.5 6.7 7.45 6.65 7.4 6.65 7.35 6.7 7.2 6.75 5.6 7.0 5.6 6.95 Q6.4 6.25 6.85 5.35 L7.35 4.1 7.4 3.85 Q7.55 2.95 7.25 2.45 L6.85 2.05 6.5 1.85 6.45 1.8 6.95 1.6 7.45 1.6 8.0 1.8 8.85 2.7 Q9.45 3.7 8.9 5.15 L8.6 5.75 8.0 6.4 9.4 6.05 9.65 6.1 9.85 6.15 Q10.6 6.5 11.0 7.45 L11.05 7.55 Q11.3 8.25 11.1 9.25 L10.55 10.65 9.75 11.9 Q8.95 12.85 8.1 12.9 L7.6 12.9 6.75 13.05 6.8 13.1 7.05 13.7 7.1 14.25 Q7.05 14.95 6.5 15.35 L6.4 15.45 6.3 15.5 M0.55 15.55 L0.45 15.6 Q-0.55 15.85 -1.25 15.6 L-1.55 15.5 -1.75 15.4 Q-0.3 14.25 -1.1 13.45 L-1.25 13.3 -1.1 13.25 -1.15 13.25 -1.1 13.2 -0.25 12.7 1.5 11.2 1.65 10.95 2.3 10.15 2.6 9.6 3.05 8.6 Q3.3 7.75 3.15 7.0 L3.15 6.9 4.1 6.8 4.7 6.75 Q5.05 6.75 5.25 7.0 L5.35 7.2 5.45 7.5 5.5 8.35 5.5 8.45 5.1 9.75 5.1 9.8 4.4 11.0 3.9 11.65 3.3 12.25 2.95 12.55 1.35 13.5 1.2 13.55 1.45 14.15 1.35 14.5 0.6 15.55 0.55 15.55 M-11.15 15.05 L-11.5 15.0 Q-12.5 14.85 -13.25 13.95 L-13.2 13.9 -13.1 13.85 -12.15 12.95 Q-11.2 11.95 -10.7 10.9 L-10.35 10.15 -10.5 9.55 -10.45 9.05 -10.25 8.5 -9.4 6.9 -8.2 5.35 -8.2 5.3 -7.35 4.35 -6.55 3.45 -5.6 2.4 Q-5.2 3.45 -4.25 4.25 L-4.6 5.4 -5.0 6.2 -5.9 7.65 -7.2 9.25 -8.45 10.55 -8.75 10.75 -8.55 11.35 Q-8.5 12.0 -9.05 13.05 -9.9 14.55 -10.75 14.95 L-11.15 15.05 M-14.15 12.15 L-14.75 10.5 -14.85 9.1 -14.85 9.05 -14.75 8.5 -14.25 7.3 -13.7 6.35 -12.2 4.5 -12.35 3.55 -12.4 3.15 -12.4 2.8 -12.05 1.45 -11.25 0.05 -10.6 -0.7 -9.75 -1.45 -9.55 -1.55 -8.9 -1.85 -7.55 -1.75 -7.8 -3.0 -7.65 -3.65 -7.5 -3.95 -7.1 -4.55 -6.25 -5.45 -5.0 -6.0 -4.85 -6.05 -4.9 -5.7 -4.95 -5.3 -4.95 -4.6 -4.75 -4.1 -4.4 -3.85 Q-4.25 -3.8 -4.15 -3.95 -4.05 -4.05 -4.1 -4.3 L-4.3 -4.7 -4.5 -5.15 -4.65 -5.7 -4.75 -6.05 -4.65 -6.05 Q-3.8 -6.1 -3.35 -5.4 L-3.1 -4.95 -2.45 -2.8 -2.55 -2.8 -2.95 -2.95 -3.1 -3.1 -3.5 -3.3 -5.1 -3.5 -5.3 -3.45 -5.7 -3.3 -5.95 -3.2 Q-6.75 -2.7 -7.2 -1.35 -6.6 -0.15 -6.4 0.95 L-6.95 0.5 -7.5 0.4 -8.3 0.5 -9.1 0.9 -10.05 1.75 -10.5 2.25 -10.8 2.7 -12.0 4.75 -11.95 5.0 -11.6 7.35 -11.6 7.45 Q-12.35 7.75 -12.9 8.9 L-13.05 9.15 -14.1 12.15 -14.1 12.2 -14.15 12.15 M3.4 -15.1 L3.35 -15.2 5.05 -15.05 5.1 -15.0 5.2 -15.0 5.65 -14.2 Q5.75 -13.5 5.2 -12.65 L4.85 -12.2 4.65 -11.9 3.5 -11.0 3.35 -10.9 2.4 -10.75 1.75 -10.7 1.8 -10.75 2.05 -10.95 3.2 -12.15 3.55 -12.85 3.7 -13.7 3.65 -14.4 3.4 -15.1 M7.9 -14.9 L7.85 -14.95 8.55 -14.9 9.25 -14.85 10.35 -14.9 10.4 -14.8 10.65 -13.65 10.3 -12.35 10.0 -11.8 9.45 -10.95 Q8.65 -9.95 7.9 -10.05 L7.65 -10.15 6.45 -10.45 6.5 -10.4 6.6 -9.3 5.7 -7.8 5.6 -7.7 5.55 -7.65 Q5.2 -7.6 4.3 -8.0 L5.2 -9.45 5.5 -10.75 5.5 -10.8 5.5 -10.95 Q6.05 -11.0 6.35 -10.6 L6.45 -10.5 6.55 -10.55 7.55 -11.45 8.1 -12.4 8.35 -13.2 8.4 -14.1 7.95 -14.9 7.9 -14.9 M9.95 -13.05 L9.7 -13.55 9.25 -13.9 8.85 -13.85 8.45 -13.3 Q8.2 -12.95 8.8 -12.8 L9.6 -12.6 9.95 -12.65 9.95 -13.05 M11.0 -7.3 L10.75 -8.1 Q10.45 -8.8 11.05 -9.9 L11.1 -9.95 12.3 -11.45 12.7 -11.75 Q12.6 -11.45 13.25 -11.0 13.85 -10.65 13.7 -9.65 13.5 -8.7 13.75 -8.7 L13.4 -8.4 13.3 -8.25 12.5 -7.25 11.8 -5.95 12.0 -4.9 11.95 -4.9 11.45 -5.1 11.35 -5.1 Q10.55 -5.2 10.0 -4.65 L9.2 -3.6 9.2 -3.55 9.15 -3.6 9.25 -2.65 9.1 -2.8 Q8.3 -3.3 7.15 -2.8 L7.2 -5.45 Q8.0 -5.15 8.65 -4.4 L8.75 -4.25 8.9 -4.15 8.85 -4.6 Q8.85 -5.45 9.45 -6.1 L10.15 -6.7 10.8 -6.9 10.95 -6.85 11.1 -6.7 11.0 -7.3 M9.05 -9.4 L9.8 -9.25 Q10.2 -8.9 9.95 -8.65 L9.8 -8.5 9.7 -8.45 9.25 -8.2 9.3 -8.55 9.1 -8.9 8.8 -9.15 Q8.6 -9.2 8.5 -9.05 L8.45 -8.75 8.65 -8.3 Q8.8 -8.1 9.0 -8.1 L9.1 -8.1 8.55 -7.55 Q8.0 -6.9 7.8 -5.95 L7.8 -5.9 7.8 -5.8 Q7.25 -6.1 6.7 -6.9 L6.8 -6.95 7.45 -7.8 7.9 -8.45 8.8 -9.3 9.05 -9.4 M5.35 -13.95 L4.75 -14.15 4.2 -14.05 Q3.8 -13.95 3.95 -13.6 L4.25 -13.1 Q4.4 -12.9 4.65 -12.9 L5.1 -13.15 5.55 -13.55 5.35 -13.95 M6.4 -9.8 L6.3 -10.1 5.85 -10.25 5.45 -10.15 Q5.35 -10.0 5.55 -9.8 L5.8 -9.5 6.05 -9.4 6.25 -9.45 6.3 -9.5 6.4 -9.8 M10.9 -6.6 L10.55 -6.75 Q10.3 -6.7 10.1 -6.45 9.9 -6.2 10.1 -6.2 L10.3 -5.8 Q10.3 -5.35 10.55 -5.3 L10.9 -5.5 11.1 -6.05 10.95 -6.55 10.9 -6.6 M11.35 -2.55 L11.0 -2.3 10.8 -1.85 10.75 -0.95 Q10.75 -0.35 11.1 -0.8 L11.6 -1.55 11.75 -2.05 11.65 -2.45 11.35 -2.55 M14.0 1.25 L13.9 1.45 13.6 2.4 13.7 2.85 13.8 3.1 14.2 3.45 14.55 2.9 14.75 2.15 14.7 1.45 14.4 0.9 Q14.2 0.75 14.0 1.25 M13.25 1.3 Q13.65 0.9 14.05 0.85 L14.7 0.95 15.0 1.2 Q15.55 1.75 15.55 2.85 L15.5 3.1 15.5 3.25 15.5 3.3 15.4 4.0 15.0 5.6 Q15.05 4.65 14.7 4.15 L13.9 3.6 13.5 3.5 Q12.65 3.5 11.8 4.3 L12.05 3.75 12.1 3.45 12.25 2.8 12.6 2.1 13.25 1.3 M6.75 -0.45 L6.8 -0.1 6.6 0.8 5.85 2.05 5.6 2.3 5.05 2.55 4.4 2.6 4.35 2.6 4.45 2.8 4.45 3.7 4.15 4.75 3.95 5.2 3.75 5.55 3.65 5.7 2.55 6.95 1.85 7.05 0.05 6.55 0.15 6.5 1.45 5.25 1.45 5.2 1.9 4.5 2.1 4.15 2.35 3.55 2.55 2.75 2.55 2.05 2.5 1.9 3.45 2.1 3.45 2.15 3.5 2.1 3.8 1.85 4.4 1.1 4.9 0.15 5.05 -0.2 5.2 -1.1 5.05 -2.1 5.1 -2.1 6.15 -1.6 6.4 -1.3 6.75 -0.45 M3.2 -2.4 L3.25 -2.35 Q3.6 -2.1 3.4 -1.4 L3.0 -0.6 2.65 -0.1 2.6 0.0 2.45 0.15 1.0 1.45 0.95 1.45 0.65 2.3 0.5 2.6 0.5 2.65 0.4 2.75 0.25 3.0 0.2 2.8 -0.35 2.3 -1.0 1.9 Q-1.4 1.75 -1.5 1.9 L-1.35 2.3 -0.9 2.9 -0.45 3.2 0.1 3.2 0.15 3.2 -0.2 3.85 -0.55 4.6 -1.2 6.05 -2.25 5.8 -2.45 5.75 -2.65 5.7 -3.2 5.15 -3.2 5.05 Q-3.25 4.5 -2.6 3.45 L-2.55 3.4 -2.1 2.65 -1.25 1.5 -1.0 1.2 -0.95 1.15 -0.5 0.65 -0.4 0.4 0.2 -0.2 1.0 -0.95 1.3 -1.3 1.3 -1.35 1.9 -2.25 2.2 -2.85 2.3 -3.05 2.35 -3.2 2.4 -3.0 Q2.45 -2.8 2.65 -2.7 L3.2 -2.4 M6.55 -0.4 L6.6 -0.7 6.3 -0.9 5.85 -1.15 5.5 -1.1 5.45 -1.0 5.45 -0.3 5.45 -0.2 5.55 0.05 5.75 0.05 6.4 -0.3 6.55 -0.4 M8.0 1.95 L7.85 1.95 7.5 2.05 7.4 2.3 7.5 2.5 7.75 2.8 8.0 2.75 8.35 2.75 8.5 2.5 8.4 2.15 Q8.3 2.0 8.0 1.95 M10.9 8.25 Q10.45 8.15 9.95 8.6 L9.0 9.2 Q8.55 9.35 8.65 9.85 8.75 10.35 9.2 10.25 L9.9 9.85 10.45 9.75 10.55 9.75 10.85 9.5 11.05 9.1 Q11.35 8.35 10.9 8.25 M0.45 -10.8 L0.85 -10.8 1.35 -10.75 2.3 -10.0 2.4 -9.75 2.3 -9.75 1.6 -9.7 1.4 -9.55 1.0 -9.25 0.35 -8.5 Q0.05 -8.15 0.5 -8.15 L1.2 -8.35 1.65 -8.7 2.35 -9.4 2.5 -9.55 2.6 -8.9 2.4 -7.7 2.25 -7.3 2.15 -7.05 1.75 -6.7 1.25 -6.1 0.95 -5.4 1.0 -5.75 Q1.05 -6.75 0.75 -7.45 L0.45 -7.9 -0.05 -8.45 -0.4 -8.7 -1.3 -9.15 -1.55 -9.2 -0.2 -10.35 0.35 -10.8 0.45 -10.8 M-8.05 -8.1 L-7.8 -7.7 Q-7.45 -7.05 -7.5 -6.2 L-7.55 -5.0 -7.65 -4.35 -7.7 -4.4 -8.1 -5.1 -8.55 -5.85 -8.6 -5.9 -8.9 -6.2 -8.95 -6.2 -9.8 -6.55 -10.2 -6.5 -10.9 -6.15 -11.45 -5.6 -11.7 -5.3 Q-12.5 -4.3 -12.8 -2.8 L-12.9 -4.6 -12.7 -5.45 -12.45 -6.15 -11.2 -7.8 -10.95 -8.05 -10.6 -8.3 Q-10.25 -8.6 -9.95 -8.7 L-9.0 -8.8 -9.2 -8.65 -9.7 -8.1 -9.9 -7.7 -9.8 -7.25 -9.25 -6.9 -8.8 -7.0 Q-8.65 -7.15 -8.65 -7.55 L-8.7 -8.55 -8.75 -8.7 -8.4 -8.5 -8.05 -8.1 M-0.5 -2.55 L-1.4 -1.05 -1.75 -1.6 -2.1 -2.0 -2.15 -2.0 -2.3 -2.0 -2.4 -2.55 Q-2.4 -3.4 -1.35 -4.2 L-1.15 -4.35 -0.95 -4.5 0.25 -4.85 0.9 -4.6 1.0 -4.55 1.1 -4.5 Q1.55 -4.25 1.5 -3.6 L1.4 -3.6 0.7 -3.45 0.65 -3.45 -0.05 -3.0 -0.25 -2.8 -0.5 -2.55 M0.3 -4.05 L0.15 -4.4 -0.1 -4.6 -0.4 -4.5 -0.45 -4.15 -0.3 -3.8 Q-0.2 -3.65 0.0 -3.65 L0.25 -3.75 0.3 -4.05 M-12.5 -8.65 L-12.45 -8.65 -12.5 -8.35 -12.75 -6.55 -12.75 -6.2 -12.9 -5.55 -13.15 -5.1 -13.5 -4.7 -14.6 -3.6 -15.6 -2.15 -15.7 -1.95 -15.8 -3.05 -15.6 -4.75 -14.95 -6.35 -13.8 -7.85 -12.5 -8.65 M-12.95 -2.55 L-12.9 -2.55 -12.9 -2.6 -12.7 -1.2 Q-12.55 -0.45 -12.7 0.3 L-12.8 0.6 -13.55 1.75 -14.25 2.6 -15.4 4.4 -15.45 4.5 -15.4 4.05 -15.45 3.25 -15.6 2.7 Q-15.85 1.9 -15.55 1.05 L-15.25 0.25 -14.55 -0.95 -12.95 -2.55 M-5.1 -0.15 L-4.65 -0.7 -4.35 -1.05 -3.8 -1.5 -3.05 -1.9 -2.8 -1.95 -2.3 -2.0 -2.05 -1.5 -1.5 -0.9 -1.45 -0.85 -1.4 -1.05 -0.9 -0.4 -1.05 -0.3 -1.95 0.0 -2.15 0.05 -2.35 0.1 -3.25 0.75 -3.4 0.9 -4.1 1.8 Q-4.55 2.5 -4.6 3.35 L-4.65 3.55 -5.55 2.4 -5.65 2.2 -5.7 2.05 Q-5.95 1.05 -5.1 -0.15 M-9.45 -0.55 L-9.85 -0.8 -10.2 -0.65 -10.3 -0.25 -10.0 0.75 Q-9.8 1.4 -9.6 1.15 L-9.3 0.6 -9.25 0.45 -9.2 0.0 -9.45 -0.5 -9.45 -0.55 M-2.3 7.1 L-2.1 6.4 -2.05 5.85 Q-1.35 6.1 -0.75 6.45 -0.1 6.85 -0.4 7.9 L-0.5 8.35 -0.55 8.5 -0.65 8.65 -1.45 10.2 -2.6 11.65 -2.95 11.95 -4.35 12.85 -3.75 13.15 Q-3.45 13.4 -3.3 14.0 -3.2 14.35 -3.7 14.75 L-4.75 15.35 -6.55 15.5 -7.75 15.3 -7.5 15.2 Q-6.25 14.4 -5.75 12.7 L-7.05 12.15 -6.1 11.55 -4.9 10.65 -3.5 9.15 -3.45 9.1 -2.55 7.8 -2.3 7.1 M-6.45 5.35 L-6.85 5.0 -7.35 4.85 Q-7.6 4.75 -7.4 5.3 L-7.05 6.1 -6.6 6.4 -5.9 6.75 Q-5.4 7.0 -5.8 6.3 L-6.45 5.35 M2.2 -2.2 L2.15 -2.1 1.85 -1.65 Q1.6 -1.25 2.15 -1.15 L2.9 -1.0 3.2 -1.05 3.2 -1.4 3.15 -1.5 2.95 -1.9 2.55 -2.2 2.2 -2.2 M-2.95 -0.45 L-3.1 -0.85 -3.5 -1.25 -3.9 -1.35 -3.85 -0.8 -3.55 -0.15 -3.1 0.3 Q-2.9 0.5 -2.9 0.15 L-2.95 -0.45 M-1.55 8.65 L-2.2 8.45 -2.9 8.6 Q-3.35 8.75 -3.1 9.05 L-2.5 9.55 -2.0 9.8 Q-1.8 9.85 -1.5 9.6 L-1.15 9.05 Q-1.15 8.75 -1.55 8.65 M4.1 4.1 L4.1 3.75 3.8 3.65 3.0 3.55 2.75 3.65 2.6 3.8 2.55 4.2 3.05 4.25 Q3.5 4.15 3.35 4.55 L3.35 4.65 Q3.25 4.9 3.55 4.7 L4.1 4.1 M3.55 9.7 L2.9 9.85 Q2.4 10.0 2.7 10.3 L3.25 10.8 3.8 11.05 4.3 10.9 4.6 10.35 Q4.6 10.0 4.2 9.9 L3.55 9.7" fill="#443422" fill-rule="evenodd" stroke="none"/>
    <path d="M15.5 -8.75 Q15.85 -6.55 15.85 -3.55 L15.8 -3.8 15.65 -4.9 Q15.5 -5.65 15.05 -5.6 L14.8 -7.6 14.55 -9.05 Q15.05 -9.1 15.45 -8.5 L15.5 -8.7 15.5 -8.75 M15.8 -2.45 L15.75 -1.05 15.5 3.25 16.0 5.1 15.55 6.3 15.5 4.6 15.5 3.7 15.3 4.65 15.4 4.0 15.5 3.3 15.5 3.25 15.5 3.1 15.55 2.85 Q15.55 1.75 15.0 1.2 L15.15 -1.15 15.2 -2.7 15.8 -2.45 15.75 -1.05 15.55 2.85 15.75 -1.05 15.8 -2.45 M13.95 10.75 L13.85 11.05 12.95 12.15 12.8 12.3 12.45 12.65 12.6 12.4 13.45 11.4 13.95 10.75 M8.65 15.3 L8.6 15.3 7.7 15.4 8.7 15.25 8.65 15.3 M-9.75 -13.6 L-8.8 -14.55 -8.5 -14.85 -8.45 -14.9 Q-6.4 -16.25 -4.8 -15.55 L-3.4 -15.6 -2.45 -15.75 -0.45 -15.6 0.4 -15.3 0.5 -15.2 Q1.2 -14.45 1.0 -12.9 L0.7 -12.25 Q-3.6 -7.6 -6.65 -9.55 L-7.8 -7.7 -8.05 -8.1 -7.15 -9.25 Q-6.3 -10.25 -5.45 -10.2 L-3.4 -10.55 -3.15 -10.15 -2.25 -10.15 -1.25 -10.55 -0.8 -11.05 -0.7 -11.25 Q-0.65 -11.55 -0.95 -11.7 L-1.05 -11.75 0.15 -12.6 Q0.95 -14.25 -0.05 -15.25 L-1.65 -15.4 -3.75 -14.4 Q-5.05 -13.75 -5.9 -14.2 -6.9 -14.7 -8.05 -13.3 -9.35 -11.8 -9.65 -10.25 L-9.95 -8.7 Q-10.25 -8.6 -10.6 -8.3 L-10.95 -8.05 -11.2 -7.8 -10.7 -10.45 -9.75 -13.6 M1.0 -15.25 L3.4 -15.1 3.65 -14.4 3.25 -14.5 1.3 -14.85 2.0 -14.0 Q2.55 -13.1 3.55 -12.85 L3.2 -12.15 1.7 -12.1 Q2.05 -13.6 1.3 -14.8 L1.0 -15.2 1.0 -15.25 M5.05 -15.05 L7.9 -14.9 7.95 -14.9 8.4 -14.1 6.5 -14.15 5.65 -14.2 5.2 -15.0 5.1 -15.0 7.95 -14.9 5.1 -15.0 5.05 -15.05 M10.4 -14.8 L11.35 -14.75 Q13.6 -14.5 14.7 -11.75 L14.65 -11.8 13.55 -12.05 12.95 -12.6 10.65 -13.65 10.4 -14.8 11.35 -14.75 Q13.55 -14.45 14.65 -11.8 13.55 -14.45 11.35 -14.75 L10.4 -14.8 M15.5 -8.7 L15.8 -3.8 15.5 -8.7 M11.1 -9.95 L10.5 -10.4 9.45 -10.95 10.0 -11.8 10.3 -12.35 11.0 -12.25 Q11.8 -12.15 12.3 -11.45 L11.1 -9.95 M10.8 -6.9 L10.15 -6.7 9.45 -6.1 8.55 -7.55 9.1 -8.1 9.25 -8.15 9.25 -8.2 9.7 -8.45 9.8 -8.5 10.35 -7.75 10.8 -6.9 M8.75 -4.25 L8.65 -4.4 Q8.0 -5.15 7.2 -5.45 L7.15 -2.8 Q8.3 -3.3 9.1 -2.8 L9.2 -1.15 Q8.0 -0.45 6.85 -0.15 L6.8 -0.1 6.75 -0.45 6.8 -0.5 Q7.95 -0.9 7.95 -2.05 L6.4 -1.3 6.15 -1.6 5.1 -2.1 5.15 -2.1 6.6 -2.1 7.15 -2.8 6.6 -2.1 5.15 -2.1 Q6.05 -2.3 7.15 -3.15 L4.95 -3.95 Q3.9 -4.4 3.15 -5.35 2.45 -6.25 3.15 -7.6 L3.25 -7.8 3.9 -7.95 4.3 -8.0 Q5.2 -7.6 5.55 -7.65 L5.6 -7.7 6.1 -7.45 6.6 -7.1 6.8 -6.95 6.7 -6.9 Q7.25 -6.1 7.8 -5.8 L7.8 -5.9 8.75 -4.25 M10.0 -4.65 Q10.55 -5.2 11.35 -5.1 L11.45 -4.5 11.7 -2.7 11.2 -2.75 Q10.7 -2.75 10.3 -2.45 L10.25 -3.25 10.0 -4.65 M12.5 -7.25 L13.3 -8.25 13.35 -7.95 13.75 -5.05 13.75 -4.8 13.05 -3.9 12.8 -5.95 12.5 -7.25 M5.2 -12.65 L6.0 -12.55 8.1 -12.4 7.55 -11.45 6.15 -11.7 4.65 -11.9 4.85 -12.2 5.2 -12.65 M5.5 -10.75 L5.2 -9.45 3.9 -8.85 2.4 -7.7 2.6 -8.9 3.45 -9.65 Q3.9 -10.1 3.5 -10.35 L2.3 -10.0 1.35 -10.75 1.8 -10.75 1.75 -10.7 2.4 -10.75 3.35 -10.9 5.0 -10.85 5.5 -10.75 M6.6 -9.3 L6.5 -10.4 6.7 -10.3 8.8 -9.3 7.9 -8.45 6.6 -9.3 M7.2 -5.45 L6.6 -7.1 7.2 -5.45 M8.9 -0.05 Q9.7 -0.7 10.35 -0.65 L8.0 1.8 7.45 1.6 8.9 -0.05 M10.75 -0.55 L10.8 -0.5 Q11.85 -0.05 12.15 1.1 L12.1 1.75 Q12.0 3.4 11.15 4.8 L8.9 5.15 Q9.45 3.7 8.85 2.7 L9.65 1.85 Q11.0 0.25 10.75 -0.55 M13.2 -1.55 L14.05 -2.35 14.05 -2.05 14.05 0.85 Q13.65 0.9 13.25 1.3 L13.35 0.1 13.2 -1.55 M11.8 4.3 Q12.65 3.5 13.5 3.5 L13.0 4.75 Q12.15 6.6 11.0 7.45 10.6 6.5 9.85 6.15 L10.6 5.6 11.2 5.0 11.55 4.7 11.45 4.7 11.4 4.75 11.5 4.65 11.45 4.7 11.5 4.65 11.8 4.3 M14.7 4.15 Q15.05 4.65 15.0 5.6 L15.4 4.0 15.3 4.65 14.7 6.9 13.55 9.95 13.4 10.2 12.6 11.7 12.25 11.5 12.2 11.55 10.25 12.5 10.1 12.6 9.75 12.7 Q10.0 13.55 9.4 14.5 L7.25 14.25 7.1 14.25 7.05 13.7 6.8 13.1 6.75 13.05 7.6 12.9 8.1 12.9 Q8.95 12.85 9.75 11.9 L10.55 10.65 11.1 9.25 13.65 6.35 14.7 4.15 M5.05 -2.1 L5.2 -1.1 3.4 -1.4 Q3.6 -2.1 3.25 -2.35 L3.2 -2.4 4.45 -2.1 5.05 -2.1 M5.05 -0.2 L4.9 0.15 2.65 -0.1 3.0 -0.6 4.35 -0.3 5.05 -0.2 M2.55 2.75 L2.35 3.55 0.85 2.9 0.5 2.65 0.5 2.6 0.65 2.3 0.95 2.4 2.55 2.75 M1.9 4.5 L1.45 5.2 1.45 5.25 -0.55 4.6 -0.2 3.85 -0.05 3.95 1.9 4.5 M3.75 5.55 L3.95 5.2 4.15 4.75 4.4 4.75 Q5.65 4.8 6.95 4.1 L7.4 3.85 7.35 4.1 6.85 5.35 5.6 5.5 3.75 5.55 M4.45 3.7 L4.45 2.8 6.3 2.35 6.85 2.05 7.25 2.45 Q6.25 3.15 5.3 3.5 L4.45 3.7 M5.5 8.45 Q6.8 8.15 8.25 7.3 L8.35 7.5 8.7 8.8 8.1 9.1 Q6.7 9.75 5.5 9.8 L5.1 9.8 5.1 9.75 5.5 8.45 M3.05 8.6 L2.6 9.6 0.9 9.2 -0.65 8.65 -0.55 8.5 -0.5 8.35 -0.4 7.9 3.05 8.6 M1.5 11.2 L-0.25 12.7 -1.1 13.2 -1.85 12.7 -2.95 11.95 -2.6 11.65 -1.45 10.2 -0.65 10.55 1.5 11.2 M15.5 3.3 L16.0 5.1 15.5 3.3 M1.0 -15.2 L3.4 -15.1 1.0 -15.2 M-0.45 -15.6 Q0.1 -15.5 0.5 -15.2 0.1 -15.5 -0.45 -15.6 M-8.5 -14.85 Q-6.45 -16.25 -4.85 -15.5 L-3.45 -15.6 -2.45 -15.75 -3.45 -15.6 -4.85 -15.5 Q-6.45 -16.25 -8.5 -14.85 M-4.85 -6.05 L-5.0 -6.0 -6.25 -5.45 -6.25 -5.9 -4.65 -6.05 -4.75 -6.05 -4.85 -6.05 M-8.9 -1.85 L-9.55 -1.55 -9.5 -2.7 -8.95 -6.0 -8.9 -6.2 -8.6 -5.9 -8.55 -5.85 Q-9.15 -3.9 -8.9 -1.85 M-10.6 -0.7 L-11.25 0.05 -11.45 -0.9 Q-11.85 -2.25 -11.65 -4.05 L-11.45 -5.6 -10.9 -6.15 -10.2 -6.5 -10.4 -3.8 -10.6 -1.35 -10.6 -0.7 M-12.4 3.15 L-12.35 3.55 -12.2 4.5 -13.7 6.35 -13.9 5.05 -14.25 2.6 -13.55 1.75 -12.8 0.6 -12.65 1.95 -12.4 3.15 M-14.75 8.5 L-14.85 9.05 -15.2 6.25 -15.15 6.45 -14.75 8.5 M-5.95 -3.2 L-5.7 -3.3 -5.3 -3.45 -5.1 -3.5 -4.6 -1.55 -4.35 -1.05 -4.65 -0.7 -5.1 -0.15 -5.65 -2.0 -5.95 -3.2 M-3.5 -3.3 L-3.1 -3.1 -2.8 -1.95 -3.05 -1.9 -3.35 -2.8 -3.5 -3.3 M-0.5 -2.55 L-0.25 -2.8 0.25 -2.2 1.3 -1.35 1.3 -1.3 1.0 -0.95 0.3 -1.55 -0.5 -2.55 M0.7 -3.45 L1.4 -3.6 2.2 -2.85 1.9 -2.25 1.15 -2.95 0.7 -3.45 M1.1 -4.5 L1.0 -4.55 0.9 -4.6 0.25 -4.85 0.15 -5.45 Q0.1 -6.65 0.75 -7.45 1.05 -6.75 1.0 -5.75 L0.95 -5.4 1.25 -6.1 1.05 -5.0 1.1 -4.5 M-0.95 -4.5 L-1.15 -4.35 -1.35 -4.2 -1.95 -6.7 -0.4 -8.7 -0.05 -8.45 Q-1.0 -7.45 -1.05 -6.1 L-0.95 -4.5 M3.15 -7.6 L4.3 -8.0 3.15 -7.6 M1.0 -5.75 Q0.8 -5.15 0.9 -4.6 0.8 -5.15 1.0 -5.75 M-12.5 -8.65 L-13.8 -7.85 Q-13.25 -9.05 -12.15 -9.8 L-12.5 -8.65 M-14.6 -3.6 L-13.5 -4.7 -13.15 -5.1 -13.1 -3.85 -12.95 -2.55 -14.55 -0.95 -14.55 -1.05 -14.6 -3.6 M-10.8 2.7 L-10.5 2.25 -10.05 1.75 -9.0 4.0 -8.2 5.3 -8.2 5.35 -9.4 6.9 -10.3 4.8 -10.8 2.7 M-9.1 0.9 L-8.3 0.5 -8.05 1.1 -7.4 2.5 -7.35 2.4 -6.55 3.45 -7.35 4.35 -8.4 2.8 -9.1 0.9 M-4.6 5.4 L-3.55 6.35 -2.3 7.1 -2.55 7.8 -3.15 7.45 -5.0 6.2 -4.6 5.4 M-11.95 5.0 L-11.9 5.2 -10.9 8.05 -10.45 9.05 -10.5 9.55 Q-11.25 8.55 -11.6 7.35 -11.25 8.55 -10.5 9.55 L-10.35 10.15 -10.7 10.9 Q-11.65 10.95 -12.35 10.15 L-13.05 9.15 -12.9 8.9 Q-12.35 7.75 -11.6 7.45 L-11.6 7.35 -11.95 5.0 M-1.0 1.2 L-1.25 1.5 Q-1.9 1.0 -2.35 0.1 L-2.15 0.05 -1.95 0.0 -1.0 1.2 M-2.1 2.65 L-2.55 3.4 -4.1 1.8 -3.4 0.9 -2.1 2.65 M-5.9 7.65 L-5.25 8.1 -3.5 9.15 -4.9 10.65 -5.75 10.15 -7.2 9.25 -5.9 7.65 M1.45 14.15 L1.2 13.55 1.35 13.5 2.95 12.55 3.3 12.25 3.9 11.65 4.25 11.7 7.75 11.35 7.9 11.3 7.2 12.4 6.65 12.95 5.55 13.0 4.1 13.35 4.35 14.05 2.45 14.1 1.45 14.15 M1.35 13.5 L4.1 13.35 1.35 13.5 M2.45 15.5 L3.6 15.4 3.45 15.5 2.45 15.5 M-13.1 13.85 L-13.2 13.9 -13.55 13.35 -13.1 13.85 M13.55 9.95 L12.2 11.55 13.55 9.95 M10.1 12.6 L9.85 12.65 6.8 13.1 9.85 12.65 10.1 12.6 M6.5 15.35 L7.1 15.4 6.4 15.45 6.5 15.35" fill="#a8b38c" fill-rule="evenodd" stroke="none"/>
    <path d="M13.0 -11.9 L13.45 -11.75 13.8 -11.6 14.35 -11.15 14.65 -10.4 14.5 -9.65 14.45 -9.5 13.95 -8.85 13.75 -8.7 Q13.5 -8.7 13.7 -9.65 13.85 -10.65 13.25 -11.0 12.6 -11.45 12.7 -11.75 L13.0 -11.9 M14.15 -5.15 L14.35 -5.3 14.6 -5.45 14.65 -5.45 15.1 -4.9 15.15 -4.8 15.35 -4.05 15.2 -3.15 14.7 -2.7 Q14.35 -2.75 14.5 -3.55 14.65 -4.35 14.25 -4.4 13.8 -4.5 13.95 -4.8 L14.15 -5.15 M9.95 -13.05 L9.95 -12.65 9.6 -12.6 8.8 -12.8 Q8.2 -12.95 8.45 -13.3 L8.85 -13.85 9.25 -13.9 9.7 -13.55 9.95 -13.05 M5.35 -13.95 L5.55 -13.55 5.1 -13.15 4.65 -12.9 Q4.4 -12.9 4.25 -13.1 L3.95 -13.6 Q3.8 -13.95 4.2 -14.05 L4.75 -14.15 5.35 -13.95 M6.4 -9.8 L6.3 -9.5 6.25 -9.45 6.05 -9.4 5.8 -9.5 5.55 -9.8 Q5.35 -10.0 5.45 -10.15 L5.85 -10.25 6.3 -10.1 6.4 -9.8 M9.1 -8.1 L9.0 -8.1 Q8.8 -8.1 8.65 -8.3 L8.45 -8.75 8.5 -9.05 Q8.6 -9.2 8.8 -9.15 L9.1 -8.9 9.3 -8.55 9.25 -8.2 9.25 -8.15 9.1 -8.1 M10.9 -6.6 L10.95 -6.55 11.1 -6.05 10.9 -5.5 10.55 -5.3 Q10.3 -5.35 10.3 -5.8 L10.1 -6.2 Q9.9 -6.2 10.1 -6.45 10.3 -6.7 10.55 -6.75 L10.9 -6.6 M11.35 -2.55 L11.65 -2.45 11.75 -2.05 11.6 -1.55 11.1 -0.8 Q10.75 -0.35 10.75 -0.95 L10.8 -1.85 11.0 -2.3 11.35 -2.55 M14.0 1.25 Q14.2 0.75 14.4 0.9 L14.7 1.45 14.75 2.15 14.55 2.9 14.2 3.45 13.8 3.1 13.7 2.85 13.6 2.4 13.9 1.45 14.0 1.25 M6.55 -0.4 L6.4 -0.3 5.75 0.05 5.55 0.05 5.45 -0.2 5.45 -0.3 5.45 -1.0 5.5 -1.1 5.85 -1.15 6.3 -0.9 6.6 -0.7 6.55 -0.4 M8.0 1.95 Q8.3 2.0 8.4 2.15 L8.5 2.5 8.35 2.75 8.0 2.75 7.75 2.8 7.5 2.5 7.4 2.3 7.5 2.05 7.85 1.95 8.0 1.95 M10.9 8.25 Q11.35 8.35 11.05 9.1 L10.85 9.5 10.55 9.75 10.45 9.75 9.9 9.85 9.2 10.25 Q8.75 10.35 8.65 9.85 8.55 9.35 9.0 9.2 L9.95 8.6 Q10.45 8.15 10.9 8.25 M2.5 -9.55 L2.35 -9.4 1.65 -8.7 1.2 -8.35 0.5 -8.15 Q0.05 -8.15 0.35 -8.5 L1.0 -9.25 1.4 -9.55 1.6 -9.7 2.3 -9.75 2.4 -9.75 2.5 -9.55 M-4.75 -6.05 L-4.65 -5.7 -4.5 -5.15 -4.3 -4.7 -4.1 -4.3 Q-4.05 -4.05 -4.15 -3.95 -4.25 -3.8 -4.4 -3.85 L-4.75 -4.1 -4.95 -4.6 -4.95 -5.3 -4.9 -5.7 -4.85 -6.05 -4.75 -6.05 M0.3 -4.05 L0.25 -3.75 0.0 -3.65 Q-0.2 -3.65 -0.3 -3.8 L-0.45 -4.15 -0.4 -4.5 -0.1 -4.6 0.15 -4.4 0.3 -4.05 M-9.0 -8.8 L-8.75 -8.7 -8.7 -8.55 -8.65 -7.55 Q-8.65 -7.15 -8.8 -7.0 L-9.25 -6.9 -9.8 -7.25 -9.9 -7.7 -9.7 -8.1 -9.2 -8.65 -9.0 -8.8 M-9.45 -0.55 L-9.45 -0.5 -9.2 0.0 -9.25 0.45 -9.3 0.6 -9.6 1.15 Q-9.8 1.4 -10.0 0.75 L-10.3 -0.25 -10.2 -0.65 -9.85 -0.8 -9.45 -0.55 M-6.45 5.35 L-5.8 6.3 Q-5.4 7.0 -5.9 6.75 L-6.6 6.4 -7.05 6.1 -7.4 5.3 Q-7.6 4.75 -7.35 4.85 L-6.85 5.0 -6.45 5.35 M0.15 3.2 L0.1 3.2 -0.45 3.2 -0.9 2.9 -1.35 2.3 -1.5 1.9 Q-1.4 1.75 -1.0 1.9 L-0.35 2.3 0.2 2.8 0.25 3.0 0.15 3.2 M2.2 -2.2 L2.55 -2.2 2.95 -1.9 3.15 -1.5 3.2 -1.4 3.2 -1.05 2.9 -1.0 2.15 -1.15 Q1.6 -1.25 1.85 -1.65 L2.15 -2.1 2.2 -2.2 M-2.95 -0.45 L-2.9 0.15 Q-2.9 0.5 -3.1 0.3 L-3.55 -0.15 -3.85 -0.8 -3.9 -1.35 -3.5 -1.25 -3.1 -0.85 -2.95 -0.45 M-1.55 8.65 Q-1.15 8.75 -1.15 9.05 L-1.5 9.6 Q-1.8 9.85 -2.0 9.8 L-2.5 9.55 -3.1 9.05 Q-3.35 8.75 -2.9 8.6 L-2.2 8.45 -1.55 8.65 M4.1 4.1 L3.55 4.7 Q3.25 4.9 3.35 4.65 L3.35 4.55 Q3.5 4.15 3.05 4.25 L2.55 4.2 2.6 3.8 2.75 3.65 3.0 3.55 3.8 3.65 4.1 3.75 4.1 4.1 M3.55 9.7 L4.2 9.9 Q4.6 10.0 4.6 10.35 L4.3 10.9 3.8 11.05 3.25 10.8 2.7 10.3 Q2.4 10.0 2.9 9.85 L3.55 9.7" fill="#ab8458" fill-rule="evenodd" stroke="none"/>
    <path d="M13.55 -12.05 L13.45 -12.05 13.0 -11.9 12.7 -11.75 12.3 -11.45 Q11.8 -12.15 11.0 -12.25 L10.3 -12.35 10.65 -13.65 12.95 -12.6 13.55 -12.05 M13.95 -8.85 L14.55 -9.05 14.8 -7.6 15.05 -5.6 14.6 -5.45 14.35 -5.3 14.15 -5.15 13.75 -4.8 13.75 -5.05 13.35 -7.95 13.3 -8.25 13.4 -8.4 13.75 -8.7 13.95 -8.85 M8.4 -14.1 L8.35 -13.2 8.1 -12.4 6.0 -12.55 5.2 -12.65 Q5.75 -13.5 5.65 -14.2 L6.5 -14.15 8.4 -14.1 M10.35 -0.65 L10.75 -0.55 Q11.0 0.25 9.65 1.85 L8.85 2.7 8.0 1.8 10.35 -0.65 M14.05 -2.35 L14.75 -2.65 15.2 -2.7 15.15 -1.15 15.0 1.2 14.7 0.95 14.05 0.85 14.05 -2.05 14.05 -2.35 M13.5 3.5 L13.9 3.6 14.7 4.15 13.65 6.35 11.1 9.25 Q11.3 8.25 11.05 7.55 L11.0 7.45 Q12.15 6.6 13.0 4.75 L13.5 3.5 M6.4 -1.3 L7.95 -2.05 Q7.95 -0.9 6.8 -0.5 L6.75 -0.45 6.4 -1.3 M5.2 -1.1 L5.05 -0.2 4.35 -0.3 3.0 -0.6 3.4 -1.4 5.2 -1.1 M2.35 3.55 L2.1 4.15 1.9 4.5 -0.05 3.95 -0.2 3.85 0.15 3.2 0.25 3.0 0.4 2.75 0.5 2.65 0.85 2.9 2.35 3.55 M4.15 4.75 L4.45 3.7 5.3 3.5 Q6.25 3.15 7.25 2.45 7.55 2.95 7.4 3.85 L6.95 4.1 Q5.65 4.8 4.4 4.75 L4.15 4.75 M2.6 9.6 L2.3 10.15 1.65 10.95 1.5 11.2 -0.65 10.55 -1.45 10.2 -0.65 8.65 0.9 9.2 2.6 9.6 M3.55 -12.85 Q2.55 -13.1 2.0 -14.0 L1.3 -14.85 3.25 -14.5 3.65 -14.4 3.7 -13.7 3.55 -12.85 M-3.4 -10.55 L-5.45 -10.2 Q-6.3 -10.25 -7.15 -9.25 L-8.05 -8.1 -8.4 -8.5 -8.75 -8.7 -9.0 -8.8 -9.95 -8.7 -9.65 -10.25 Q-9.35 -11.8 -8.05 -13.3 -6.9 -14.7 -5.9 -14.2 -5.05 -13.75 -3.75 -14.4 L-1.65 -15.4 -0.05 -15.25 Q0.95 -14.25 0.15 -12.6 L-1.05 -11.75 -1.4 -11.8 -1.8 -11.75 -2.8 -11.3 -3.35 -10.65 -3.4 -10.55 M2.4 -9.75 L2.3 -10.0 3.5 -10.35 Q3.9 -10.1 3.45 -9.65 L2.6 -8.9 2.5 -9.55 2.4 -9.75 M-9.55 -1.55 L-9.75 -1.45 -10.6 -0.7 -10.6 -1.35 -10.4 -3.8 -10.2 -6.5 -9.8 -6.55 -8.95 -6.2 -8.9 -6.2 -8.95 -6.0 -9.5 -2.7 -9.55 -1.55 M-5.1 -3.5 L-3.5 -3.3 -3.35 -2.8 -3.05 -1.9 -3.8 -1.5 -4.35 -1.05 -4.6 -1.55 -5.1 -3.5 M-0.25 -2.8 L-0.05 -3.0 0.65 -3.45 0.7 -3.45 1.15 -2.95 1.9 -2.25 1.3 -1.35 0.25 -2.2 -0.25 -2.8 M0.25 -4.85 L-0.95 -4.5 -1.05 -6.1 Q-1.0 -7.45 -0.05 -8.45 L0.45 -7.9 0.75 -7.45 Q0.1 -6.65 0.15 -5.45 L0.25 -4.85 M-8.2 5.3 L-9.0 4.0 -10.05 1.75 -9.1 0.9 -8.4 2.8 -7.35 4.35 -8.2 5.3 M-1.25 1.5 L-2.1 2.65 -3.4 0.9 -3.25 0.75 -2.35 0.1 Q-1.9 1.0 -1.25 1.5 M-3.5 9.15 L-5.25 8.1 -5.9 7.65 -5.0 6.2 -3.15 7.45 -2.55 7.8 -3.45 9.1 -3.5 9.15 M3.9 11.65 L4.4 11.0 5.1 9.8 5.5 9.8 Q6.7 9.75 8.1 9.1 L8.7 8.8 8.4 10.25 8.35 10.45 7.9 11.3 7.75 11.35 4.25 11.7 3.9 11.65" fill="#c6cdb4" fill-rule="evenodd" stroke="none"/>
    <path d="M10.4 14.7 L10.45 14.75 10.25 14.8 10.4 14.7 M1.95 15.55 L1.35 15.55 0.55 15.55 0.6 15.55 1.35 14.5 1.45 14.15 2.45 14.1 4.35 14.05 4.35 14.3 3.6 15.4 2.45 15.5 1.95 15.55 M-1.25 15.6 L-1.8 15.65 -4.65 15.7 -7.1 15.5 -10.0 15.2 -11.15 15.05 -10.75 14.95 Q-9.9 14.55 -9.05 13.05 -8.5 12.0 -8.55 11.35 L-8.75 10.75 -8.45 10.55 -7.2 9.25 -5.75 10.15 -4.9 10.65 -6.1 11.55 -7.05 12.15 -5.75 12.7 Q-6.25 14.4 -7.5 15.2 L-7.75 15.3 -6.55 15.5 -4.75 15.35 -3.7 14.75 Q-3.2 14.35 -3.3 14.0 -3.45 13.4 -3.75 13.15 L-4.35 12.85 -2.95 11.95 -1.85 12.7 -1.1 13.2 -1.15 13.25 -1.1 13.25 -1.25 13.3 -1.1 13.45 Q-0.3 14.25 -1.75 15.4 L-1.55 15.5 -1.25 15.6 M-13.65 13.15 L-14.1 12.25 -14.15 12.15 -14.1 12.2 -14.1 12.15 -13.65 13.15 -14.1 12.15 -13.05 9.15 -12.35 10.15 Q-11.65 10.95 -10.7 10.9 -11.2 11.95 -12.15 12.95 L-13.1 13.85 -13.55 13.35 -13.65 13.15 M-15.25 6.1 L-15.8 3.55 Q-16.05 1.9 -15.9 0.2 -15.8 -1.1 -15.85 -2.6 L-15.8 -5.55 Q-15.65 -7.25 -14.55 -8.75 -13.55 -10.3 -12.4 -10.7 -11.8 -11.0 -11.25 -11.55 L-10.6 -12.6 -10.5 -12.75 -10.4 -12.9 -10.35 -12.95 -9.65 -13.85 -9.75 -13.6 -10.4 -12.9 -9.75 -13.6 -10.7 -10.45 -11.2 -7.8 -12.45 -6.15 -12.7 -5.45 -12.9 -4.6 -12.8 -2.8 Q-12.5 -4.3 -11.7 -5.3 L-11.45 -5.6 -11.65 -4.05 Q-11.85 -2.25 -11.45 -0.9 L-11.25 0.05 -12.05 1.45 -12.4 2.8 -12.4 3.15 -12.65 1.95 -12.8 0.6 -12.7 0.3 Q-12.55 -0.45 -12.7 -1.2 L-12.9 -2.6 -12.9 -2.55 -12.95 -2.55 -13.1 -3.85 -13.15 -5.1 -12.9 -5.55 -12.75 -6.2 -12.75 -6.55 -12.5 -8.35 -12.45 -8.65 -12.5 -8.65 -12.15 -9.8 Q-13.25 -9.05 -13.8 -7.85 L-14.95 -6.35 -15.6 -4.75 -15.8 -3.05 -15.7 -1.95 -15.6 -2.15 -14.6 -3.6 -14.55 -1.05 -14.55 -0.95 -15.25 0.25 -15.55 1.05 Q-15.85 1.9 -15.6 2.7 L-15.45 3.25 -15.4 4.05 -15.45 4.5 -15.4 4.4 -14.25 2.6 -13.9 5.05 -13.7 6.35 -14.25 7.3 -14.75 8.5 -15.15 6.45 -15.2 6.25 -15.25 6.1 -15.4 4.4 -15.25 6.1 M0.4 -15.3 L0.3 -15.4 0.8 -15.35 0.9 -15.35 1.0 -15.25 1.0 -15.2 1.3 -14.8 Q2.05 -13.6 1.7 -12.1 L3.2 -12.15 2.05 -10.95 0.85 -10.8 2.05 -10.95 1.8 -10.75 1.35 -10.75 0.85 -10.8 0.45 -10.8 Q1.35 -11.9 1.55 -12.7 1.75 -13.85 0.9 -14.85 L0.65 -15.05 0.5 -15.2 0.65 -15.05 0.9 -14.85 Q1.75 -13.85 1.55 -12.7 1.35 -11.9 0.45 -10.8 L0.35 -10.8 -0.2 -10.35 -1.55 -9.2 -1.3 -9.15 -3.7 -7.5 -3.95 -7.4 -7.15 -7.5 -7.5 -6.2 -7.15 -7.5 -3.95 -7.4 -3.7 -7.5 -1.3 -9.15 -0.4 -8.7 -1.95 -6.7 -1.35 -4.2 Q-2.4 -3.4 -2.4 -2.55 L-2.3 -2.0 -2.15 -2.0 -2.1 -2.0 -1.75 -1.6 -1.4 -1.05 -0.5 -2.55 0.3 -1.55 1.0 -0.95 0.2 -0.2 -0.4 0.4 -0.5 0.65 -0.95 1.15 -1.0 1.2 -1.95 0.0 -1.05 -0.3 -0.9 -0.4 -1.4 -1.05 -1.45 -0.85 -1.5 -0.9 -2.05 -1.5 -2.3 -2.0 -2.8 -1.95 -3.1 -3.1 -2.95 -2.95 -2.55 -2.8 -2.45 -2.8 -3.1 -4.95 -3.35 -5.4 Q-3.8 -6.1 -4.65 -6.05 L-6.25 -5.9 -6.25 -5.45 -7.1 -4.55 -7.5 -3.95 -7.65 -3.65 -7.8 -3.0 -7.55 -1.75 -8.9 -1.85 Q-9.15 -3.9 -8.55 -5.85 L-8.1 -5.1 -7.7 -4.4 -7.65 -4.35 -7.55 -5.0 -7.5 -6.2 Q-7.45 -7.05 -7.8 -7.7 L-6.65 -9.55 Q-3.6 -7.6 0.7 -12.25 L1.0 -12.9 Q1.2 -14.45 0.5 -15.2 L0.4 -15.3 M11.1 -9.95 L11.05 -9.9 Q10.45 -8.8 10.75 -8.1 L11.0 -7.3 9.95 -8.65 11.0 -7.3 11.1 -6.7 10.95 -6.85 10.8 -6.9 10.35 -7.75 9.8 -8.5 9.95 -8.65 Q10.2 -8.9 9.8 -9.25 L9.05 -9.4 7.9 -10.05 9.05 -9.4 8.8 -9.3 6.7 -10.3 6.5 -10.4 6.45 -10.45 7.65 -10.15 7.9 -10.05 Q8.65 -9.95 9.45 -10.95 L10.5 -10.4 11.1 -9.95 M9.45 -6.1 Q8.85 -5.45 8.85 -4.6 L8.9 -4.15 8.75 -4.25 7.8 -5.9 7.8 -5.95 8.75 -4.85 8.85 -4.6 8.75 -4.85 7.8 -5.95 Q8.0 -6.9 8.55 -7.55 L9.45 -6.1 M9.1 -2.8 L9.25 -2.65 9.15 -3.6 9.2 -3.55 9.2 -3.6 10.0 -4.65 10.25 -3.25 10.3 -2.45 9.4 -1.4 9.2 -1.05 8.5 0.25 8.45 0.3 8.4 0.4 8.5 0.3 8.9 -0.05 7.45 1.6 6.95 1.6 6.45 1.8 6.5 1.85 5.6 2.3 6.5 1.85 6.85 2.05 6.3 2.35 4.45 2.8 4.35 2.6 4.4 2.6 5.05 2.55 5.6 2.3 5.85 2.05 6.6 0.8 6.8 -0.1 6.85 -0.15 Q8.0 -0.45 9.2 -1.15 L9.1 -2.8 M11.35 -5.1 L11.45 -5.1 11.95 -4.9 12.0 -4.9 11.8 -5.95 12.5 -7.25 12.8 -5.95 13.05 -3.9 12.5 -2.65 12.4 -2.25 12.4 -2.05 11.7 -2.7 11.45 -4.5 11.35 -5.1 M7.55 -11.45 L6.55 -10.55 6.45 -10.5 6.35 -10.6 Q6.05 -11.0 5.5 -10.95 L5.5 -10.8 5.5 -10.75 5.0 -10.85 3.35 -10.9 3.5 -11.0 4.65 -11.9 6.15 -11.7 7.55 -11.45 M5.2 -9.45 L4.3 -8.0 3.9 -7.95 3.25 -7.8 3.15 -7.6 Q2.45 -6.25 3.15 -5.35 3.9 -4.4 4.95 -3.95 L7.15 -3.15 Q6.05 -2.3 5.15 -2.1 L5.1 -2.1 5.05 -2.1 4.45 -2.1 3.2 -2.4 2.65 -2.7 Q2.45 -2.8 2.4 -3.0 3.4 -2.45 5.15 -2.1 3.4 -2.45 2.4 -3.0 L2.35 -3.2 2.3 -3.05 2.2 -2.85 1.4 -3.6 1.5 -3.6 Q1.55 -4.25 1.1 -4.5 L1.05 -5.0 1.25 -6.1 1.75 -6.7 2.15 -7.05 2.25 -7.3 2.4 -7.7 3.9 -8.85 5.2 -9.45 M5.6 -7.7 L5.7 -7.8 6.6 -9.3 7.9 -8.45 7.45 -7.8 6.8 -6.95 6.6 -7.1 6.55 -7.15 5.7 -7.8 6.55 -7.15 6.6 -7.1 6.1 -7.45 5.6 -7.7 M6.35 -10.6 L6.55 -10.55 6.35 -10.6 M6.8 -6.95 L6.55 -7.15 6.8 -6.95 M12.15 1.1 L12.2 1.3 12.4 1.7 12.55 -0.45 13.2 -1.55 13.35 0.1 13.25 1.3 12.6 2.1 12.25 2.8 12.1 3.45 12.05 3.75 11.8 4.3 11.5 4.65 11.4 4.75 11.45 4.7 11.2 5.0 11.45 4.7 11.55 4.7 11.2 5.0 10.6 5.6 9.8 6.05 9.65 6.1 9.8 6.05 10.6 5.6 9.85 6.15 9.65 6.1 9.4 6.05 8.0 6.4 8.6 5.75 8.9 5.15 11.15 4.8 Q12.0 3.4 12.1 1.75 L12.15 1.1 M12.4 1.7 L12.4 1.75 12.25 2.8 12.4 1.75 12.4 1.7 M4.9 0.15 L4.4 1.1 3.8 1.85 3.5 2.1 3.45 2.15 3.45 2.1 2.5 1.9 2.55 2.05 2.55 2.75 0.95 2.4 0.65 2.3 0.95 1.45 1.0 1.45 2.45 0.15 2.6 0.0 2.65 -0.1 4.9 0.15 M1.45 5.25 L0.15 6.5 0.05 6.55 1.85 7.05 2.55 6.95 3.65 5.7 3.75 5.55 5.6 5.5 6.85 5.35 Q6.4 6.25 5.6 6.95 L5.6 7.0 7.2 6.75 7.5 6.7 7.2 6.75 7.35 6.7 7.4 6.65 7.45 6.65 7.5 6.7 8.25 7.3 Q6.8 8.15 5.5 8.45 L5.5 8.35 5.45 7.5 5.35 7.2 5.25 7.0 Q5.05 6.75 4.7 6.75 L4.1 6.8 3.15 6.9 3.15 7.0 Q3.3 7.75 3.05 8.6 L-0.4 7.9 Q-0.1 6.85 -0.75 6.45 -1.35 6.1 -2.05 5.85 L-2.1 6.4 -2.3 7.1 -3.55 6.35 -4.6 5.4 -4.25 4.25 Q-5.2 3.45 -5.6 2.4 L-6.55 3.45 -7.35 2.4 -7.4 2.5 -8.05 1.1 -8.3 0.5 -7.5 0.4 -6.95 0.5 -6.4 0.95 Q-6.6 -0.15 -7.2 -1.35 -6.75 -2.7 -5.95 -3.2 L-5.65 -2.0 -5.1 -0.15 Q-5.95 1.05 -5.7 2.05 L-5.65 2.2 -5.55 2.4 -4.65 3.55 -4.6 3.35 Q-4.55 2.5 -4.1 1.8 L-2.55 3.4 -2.6 3.45 Q-3.25 4.5 -3.2 5.05 L-3.2 5.15 -2.65 5.7 -2.45 5.75 -2.25 5.8 -1.2 6.05 -0.55 4.6 1.45 5.25 M8.45 0.3 L6.95 1.6 8.45 0.3 M12.1 3.45 L11.5 4.65 12.1 3.45 M5.25 7.0 L5.6 6.95 5.25 7.0 M9.2 -3.6 Q9.55 -2.2 9.2 -1.05 9.55 -2.2 9.2 -3.6 M12.4 -2.25 L11.95 -4.9 12.4 -2.25 M0.8 -15.35 L1.0 -15.2 0.8 -15.35 M-3.7 -7.5 L-3.35 -5.4 -3.7 -7.5 M3.15 -7.6 L1.75 -6.7 3.15 -7.6 M-11.25 -11.55 L-11.45 -11.2 Q-15.15 -9.45 -15.6 -5.45 L-15.6 -4.75 -15.6 -5.45 Q-15.15 -9.45 -11.45 -11.2 L-11.25 -11.55 M-12.9 -5.55 L-12.9 -2.55 -12.9 -5.55 M-7.65 -3.65 L-7.7 -4.4 -7.65 -3.65 M-12.5 -8.35 L-11.45 -11.2 -12.5 -8.35 M-10.8 2.7 L-10.3 4.8 -9.4 6.9 -10.25 8.5 -10.45 9.05 -10.9 8.05 -11.9 5.2 -11.95 5.0 -12.0 4.75 -10.8 2.7 M-15.6 -2.15 L-15.55 1.05 -15.6 -2.15 M-12.4 2.8 L-12.7 0.3 -12.4 2.8 M1.0 1.45 L2.55 2.05 1.0 1.45 M-2.55 -2.8 L-2.4 -2.55 -2.55 -2.8 M-2.15 -2.0 L-1.5 -0.9 -2.15 -2.0 M-3.2 5.15 L-4.65 3.55 -3.2 5.15 M3.15 7.0 L2.55 6.95 3.15 7.0 M0.15 6.5 L-2.25 5.8 0.15 6.5 M-1.05 -0.3 L-0.4 0.4 -1.05 -0.3 M-5.65 2.2 L-6.4 0.95 -5.65 2.2 M2.3 -3.05 L1.5 -3.6 2.3 -3.05 M-4.75 15.35 L-1.55 15.5 -4.75 15.35 M-1.1 13.45 L-3.75 13.15 -1.1 13.45 M0.6 15.55 L1.35 15.55 0.6 15.55 M-7.05 12.15 L-8.55 11.35 -7.05 12.15 M-10.75 14.95 L-7.5 15.2 -10.75 14.95 M9.4 14.5 L9.15 14.8 8.7 15.25 7.7 15.4 7.1 15.4 6.5 15.35 Q7.05 14.95 7.1 14.25 L7.25 14.25 9.4 14.5 M3.5 -11.0 L5.5 -10.8 3.5 -11.0" fill="#899865" fill-rule="evenodd" stroke="none"/>
    <path d="M15.55 6.3 L15.4 7.4 Q15.05 9.15 13.95 10.75 L13.45 11.4 12.6 12.4 12.6 11.7 13.4 10.2 13.55 9.95 Q14.75 7.95 15.3 4.65 14.75 7.95 13.55 9.95 L14.7 6.9 15.3 4.65 15.5 3.7 15.5 4.6 15.55 6.3 13.95 10.75 15.55 6.3" fill="#97a477" fill-rule="evenodd" stroke="none"/>
    <path d="M-1.05 -11.75 L-0.95 -11.7 Q-0.65 -11.55 -0.7 -11.25 L-0.8 -11.05 -1.25 -10.55 -2.25 -10.15 -3.15 -10.15 -3.4 -10.55 -3.35 -10.65 -2.8 -11.3 -1.8 -11.75 -1.4 -11.8 -1.05 -11.75" fill="url(#gradient0)" fill-rule="evenodd" stroke="none"/>
    <path d="M16.0 5.1 L15.55 6.3 13.95 10.75 13.85 11.05 12.95 12.15 12.8 12.3 12.45 12.65 M8.65 15.3 L8.6 15.3 7.35 15.45 6.3 15.5 M3.4 15.55 L1.95 15.55 1.35 15.55 0.6 15.55 M-13.2 13.9 L-13.65 13.15 -14.1 12.15 M-14.85 9.1 L-15.25 6.1 -15.4 4.4 M-11.25 -11.55 L-10.6 -12.6 -10.5 -12.75 M-9.75 -13.6 L-8.8 -14.55 -8.5 -14.85 Q-6.45 -16.25 -4.85 -15.5 L-3.45 -15.6 -2.45 -15.75 -0.45 -15.6 Q0.1 -15.5 0.5 -15.2 L0.65 -15.05 0.9 -14.85 Q1.75 -13.85 1.55 -12.7 1.35 -11.9 0.45 -10.8 M15.8 -3.8 L15.5 -8.7 M10.4 -14.8 L11.35 -14.75 Q13.55 -14.45 14.65 -11.8 M7.9 -10.05 L9.05 -9.4 M9.95 -8.65 L11.0 -7.3 M7.95 -14.9 L5.1 -15.0 M6.55 -10.55 L6.35 -10.6 M6.6 -7.1 L6.55 -7.15 5.7 -7.8 M6.6 -7.1 L7.2 -5.45 M8.85 -4.6 L8.75 -4.85 7.8 -5.95 M6.55 -7.15 L6.8 -6.95 M8.5 0.25 L8.45 0.3 6.95 1.6 M12.25 2.8 L12.4 1.75 12.4 1.7 M12.25 2.8 L12.1 3.45 11.5 4.65 11.45 4.7 11.2 5.0 10.6 5.6 9.8 6.05 9.65 6.1 M15.4 4.0 L15.5 3.3 15.5 3.25 M5.15 -2.1 L6.6 -2.1 7.15 -2.8 M5.6 2.3 L6.5 1.85 M5.15 -2.1 Q3.4 -2.45 2.4 -3.0 M5.6 6.95 L5.25 7.0 M7.5 6.7 L7.2 6.75 M15.55 2.85 L15.75 -1.05 15.8 -2.45 M15.3 4.65 Q14.75 7.95 13.55 9.95 L12.2 11.55 M15.3 4.65 L15.4 4.0 M16.0 5.1 L15.5 3.3 M11.95 -4.9 L12.4 -2.25 M9.2 -1.05 Q9.55 -2.2 9.2 -3.6 M3.4 -15.1 L1.0 -15.2 0.8 -15.35 M0.85 -10.8 L2.05 -10.95 M-7.5 -6.2 L-7.15 -7.5 -3.95 -7.4 -3.7 -7.5 -1.3 -9.15 M-3.35 -5.4 L-3.7 -7.5 M1.75 -6.7 L3.15 -7.6 4.3 -8.0 M0.9 -4.6 Q0.8 -5.15 1.0 -5.75 M-10.4 -12.9 L-9.75 -13.6 M-15.6 -4.75 L-15.6 -5.45 Q-15.15 -9.45 -11.45 -11.2 L-11.25 -11.55 M-12.9 -2.55 L-12.9 -5.55 M-7.7 -4.4 L-7.65 -3.65 M-11.45 -11.2 L-12.5 -8.35 M-15.45 3.25 L-15.4 4.05 M-15.55 1.05 L-15.6 -2.15 M-11.6 7.35 Q-11.25 8.55 -10.5 9.55 M-12.7 0.3 L-12.4 2.8 M2.55 2.05 L1.0 1.45 M-2.4 -2.55 L-2.55 -2.8 M-1.5 -0.9 L-2.15 -2.0 M-4.65 3.55 L-3.2 5.15 M2.55 6.95 L3.15 7.0 M-0.4 0.4 L-1.05 -0.3 M-2.25 5.8 L0.15 6.5 M1.5 -3.6 L2.3 -3.05 M-6.4 0.95 L-5.65 2.2 M4.1 13.35 L1.35 13.5 M-3.75 13.15 L-1.1 13.45 M-1.55 15.5 L-4.75 15.35 M-8.55 11.35 L-7.05 12.15 M-7.5 15.2 L-10.75 14.95 M6.8 13.1 L9.85 12.65 10.1 12.6 M5.5 -10.8 L3.5 -11.0" fill="none" stroke="#5f6150" stroke-linecap="round" stroke-linejoin="round" stroke-width="0.05"/>
  </g>
  <defs>
    <radialGradient cx="0" cy="0" gradientTransform="matrix(-3.0E-4, 0.0012, -0.0021, 4.0E-4, -2.0, -11.05)" gradientUnits="userSpaceOnUse" id="gradient0" r="819.2" spreadMethod="pad">
      <stop offset="0.0" stop-color="#ffffff"/>
      <stop offset="0.6705882352941176" stop-color="#000000"/>
    </radialGradient>
  </defs>
</svg>
