<?xml version="1.0" encoding="UTF-8" standalone="no"?>
<svg xmlns:xlink="http://www.w3.org/1999/xlink" height="75.8px" width="111.05px" xmlns="http://www.w3.org/2000/svg">
  <g transform="matrix(1.0, 0.0, 0.0, 1.0, 55.55, 37.85)">
    <path d="M-26.85 -19.95 L-28.1 -19.25 Q-36.4 -14.75 -40.7 -11.45 -45.0 -8.2 -46.1 -8.0 -47.2 -7.8 -47.45 -4.35 -47.75 -0.55 -45.55 1.85 L-41.05 6.15 -34.8 11.1 -30.4 14.45 Q-28.15 16.15 -24.55 17.1 L-16.0 18.65 -6.45 19.05 1.45 18.15 9.0 16.55 Q13.2 15.65 17.8 14.2 22.1 12.8 26.05 11.05 L32.45 8.2 33.75 7.6 Q37.95 5.45 40.7 2.45 43.8 -1.0 44.85 -5.05 45.9 -9.1 45.65 -12.65 45.35 -16.25 42.25 -18.65 L34.8 -24.3 33.75 -25.05 28.7 -28.2 Q24.95 -30.2 21.25 -31.8 16.35 -33.95 11.3 -35.2 9.05 -35.75 6.75 -35.25 -3.35 -33.1 -12.45 -27.45 -16.75 -24.8 -21.3 -22.95 L-26.95 -20.45 -25.8 -20.5 -26.2 -20.3 -26.85 -20.35 -28.3 -20.45 -28.4 -20.45 -1.4 -35.55 Q0.25 -36.35 2.05 -36.8 14.5 -39.8 33.75 -26.65 L36.05 -25.05 43.85 -19.3 46.05 -17.3 43.85 -19.3 36.05 -25.05 33.75 -26.65 Q14.5 -39.8 2.05 -36.8 0.05 -36.35 -1.8 -35.45 L-28.6 -20.45 -28.7 -20.4 -28.8 -20.4 -28.7 -20.45 -1.8 -35.5 Q1.2 -36.95 4.7 -37.3 16.45 -38.75 33.75 -27.0 L36.45 -25.15 Q41.0 -22.15 44.25 -19.4 47.05 -18.9 49.15 -17.85 L50.45 -15.6 49.95 -16.0 49.85 -16.4 46.75 -18.35 43.85 -19.3 46.75 -18.35 49.85 -16.4 49.95 -16.0 50.05 -15.55 Q48.4 -16.85 46.5 -17.7 L45.9 -18.0 46.45 -17.35 49.4 -13.55 Q51.2 -11.05 52.4 -8.05 L52.6 -7.55 Q53.5 -5.25 53.85 -2.75 L54.05 -0.4 54.05 -0.3 Q54.85 -2.8 55.05 -6.1 L55.05 -7.7 55.4 -7.1 55.2 -4.45 55.15 -4.05 55.15 -4.0 54.1 1.25 53.85 1.8 53.35 2.7 52.95 2.85 53.7 1.3 54.05 -0.4 53.7 1.3 52.95 2.85 52.9 2.95 51.6 3.45 45.1 6.8 39.1 10.0 33.75 13.15 32.65 13.9 Q29.5 16.15 26.2 17.05 L23.85 17.7 23.25 17.85 19.0 18.7 11.65 20.0 4.25 21.4 -2.95 22.9 Q-6.7 23.7 -10.65 23.0 L-17.7 21.55 Q-21.45 20.6 -24.7 19.05 -28.1 17.45 -31.75 16.3 -35.3 15.2 -38.35 12.65 L-43.65 8.15 -48.55 3.25 Q-50.7 0.85 -52.35 -2.15 L-51.8 -4.75 -51.55 -5.7 Q-50.8 -7.2 -49.7 -8.35 L-44.35 -11.8 -49.7 -8.35 Q-47.6 -10.75 -44.35 -11.8 L-43.7 -12.0 Q-42.9 -12.3 -41.95 -12.95 L-40.95 -13.5 -36.35 -16.3 -32.0 -18.75 -30.7 -19.4 -32.0 -18.75 -36.35 -16.3 -40.95 -13.5 -41.95 -12.95 -40.3 -14.2 -38.1 -15.85 Q-33.95 -18.55 -30.7 -19.4 L-30.0 -19.6 -26.9 -19.95 -26.85 -19.95 M52.0 -8.0 Q52.9 -3.05 47.95 0.95 40.55 6.8 33.75 11.35 L23.4 17.75 Q23.3 17.75 23.25 17.85 23.3 17.75 23.4 17.75 L33.75 11.35 Q40.55 6.8 47.95 0.95 52.9 -3.05 52.0 -8.0 51.25 -12.3 46.05 -17.3 L49.0 -13.5 Q50.8 -11.0 52.0 -8.0 M52.1 4.45 Q50.6 6.2 48.4 7.6 L50.85 5.65 52.1 4.45 M47.0 8.45 L35.3 15.7 37.25 14.4 37.65 14.1 35.0 15.7 38.85 12.9 Q41.1 11.1 44.6 9.5 L46.55 8.55 45.25 9.35 45.65 9.15 47.0 8.45 M-1.15 36.1 L-3.35 36.95 Q-2.4 36.7 -1.6 36.25 L-1.15 36.1 M-14.95 14.2 L2.35 13.35 Q13.5 11.55 24.55 5.55 30.45 2.35 33.75 -3.05 35.4 -5.8 36.45 -9.0 L36.9 -10.7 37.1 -11.55 36.95 -11.4 36.85 -11.35 36.95 -11.6 Q37.2 -12.8 36.9 -14.25 36.2 -17.55 33.75 -19.3 L32.6 -20.05 26.2 -23.5 Q22.9 -25.3 19.5 -26.7 15.95 -28.1 12.5 -28.8 8.65 -29.55 4.9 -28.85 1.35 -28.15 -2.1 -26.75 L-8.45 -23.9 Q-11.75 -22.3 -15.1 -20.8 -17.45 -19.8 -19.45 -18.35 -16.35 -19.55 -19.55 -17.5 -22.75 -15.45 -23.9 -13.25 -36.8 -8.6 -36.55 -1.7 -35.8 10.4 -19.3 13.65 L-15.35 14.3 -14.95 14.35 -14.95 14.2 M-15.35 14.3 L-15.35 14.4 -15.35 14.3 M9.75 -32.5 Q13.5 -31.6 16.95 -30.0 L23.65 -27.05 Q27.0 -25.6 30.3 -23.8 L33.75 -21.65 36.25 -19.85 Q39.15 -17.65 40.9 -13.7 42.65 -9.75 40.9 -6.75 39.1 -3.75 37.1 -0.9 35.65 1.1 33.75 2.6 L31.85 3.9 25.55 7.4 Q22.65 8.95 19.15 10.15 L12.35 12.35 5.5 14.15 -1.95 15.45 -9.3 16.45 -16.8 16.25 -23.95 14.45 Q-27.45 13.4 -30.3 11.1 -32.95 8.9 -37.15 3.95 -40.1 0.55 -40.7 -1.15 -41.15 -1.5 -41.9 -3.15 -43.5 -6.45 -16.0 -21.2 -22.1 -19.4 -21.5 -20.35 -18.95 -20.5 -16.55 -21.65 -13.25 -23.3 -10.5 -24.7 L-3.95 -28.35 2.55 -31.85 Q5.8 -33.45 9.75 -32.5 M19.7 -15.0 Q18.15 -12.55 15.9 -10.55 7.7 -3.15 -3.4 -2.4 -11.75 -1.95 -19.1 -5.3 -28.4 -5.9 -19.25 -15.1 L-15.05 -17.9 Q-12.6 -19.75 -9.7 -21.05 L-4.4 -23.0 3.15 -24.85 9.85 -25.25 Q14.7 -24.75 18.9 -22.85 22.5 -21.2 26.3 -19.75 29.9 -18.35 32.75 -16.15 L33.75 -15.3 Q35.8 -13.35 36.25 -10.85 L33.75 -8.9 23.75 -1.65 Q13.75 5.3 2.0 7.65 -8.9 9.95 -19.3 6.2 -22.55 5.1 -25.7 3.65 L-28.45 2.25 Q-26.4 0.0 -23.75 -0.7 -21.5 -1.25 -19.3 -0.7 -4.45 5.55 5.85 1.6 16.15 -2.35 19.4 -6.6 22.1 -10.25 20.9 -14.6 L21.15 -14.45 Q22.4 -17.65 18.3 -19.55 14.8 -21.15 11.15 -21.75 L3.5 -22.4 Q-0.1 -22.5 -3.5 -21.3 -6.8 -20.15 -8.6 -16.85 -10.35 -13.65 -10.55 -9.85 L-10.65 -9.45 Q-9.6 -6.7 -5.75 -6.65 L-5.15 -6.65 -5.75 -6.65 Q-9.6 -6.7 -10.65 -9.45 L-10.55 -9.85 Q-10.1 -12.05 -8.95 -13.65 L-8.7 -14.0 -8.95 -13.65 Q-9.95 -12.25 -10.1 -11.1 L-10.05 -10.1 Q-9.8 -8.8 -8.2 -7.8 -6.9 -7.0 -5.35 -6.7 L-5.15 -6.65 -1.1 -6.85 Q2.7 -7.7 6.0 -9.3 6.95 -9.75 7.8 -10.4 L8.1 -10.7 Q9.55 -12.0 11.1 -14.05 L11.75 -15.0 10.85 -14.7 Q9.3 -17.2 1.3 -18.7 L1.7 -18.75 7.1 -19.15 Q11.0 -19.25 14.4 -18.0 16.85 -17.1 19.1 -15.75 L19.7 -15.0 19.1 -15.75 19.85 -15.3 19.7 -15.0 M11.0 -12.5 Q11.3 -13.35 11.1 -14.05 11.3 -13.35 11.0 -12.5 M11.0 -12.05 Q9.5 -11.3 8.1 -10.7 9.5 -11.3 11.0 -12.05 M9.25 -6.9 Q12.55 -8.3 15.05 -10.9 17.2 -13.2 14.85 -14.55 12.9 -11.05 9.85 -9.25 6.8 -7.45 3.35 -6.5 -0.15 -5.55 -4.0 -5.35 -8.05 -5.15 -11.4 -7.0 -15.2 -9.2 -13.15 -12.65 -11.8 -14.9 -11.3 -17.15 -11.0 -18.45 -12.6 -18.15 -15.5 -15.9 -17.05 -12.55 -19.0 -8.4 -15.65 -5.95 -12.8 -3.85 -8.9 -3.25 L-4.75 -3.05 Q-0.85 -3.25 2.45 -4.3 5.95 -5.4 9.25 -6.9 M26.75 -12.3 Q27.2 -17.25 23.7 -17.05 23.65 -13.2 22.5 -9.5 21.45 -6.1 19.05 -3.6 16.65 -1.2 13.35 0.25 9.9 1.8 6.65 2.35 L-0.55 3.65 Q-4.1 4.35 -7.95 3.5 L-15.0 1.65 Q-18.15 0.65 -21.65 0.5 -26.1 0.3 -22.3 2.65 -19.25 4.55 -15.7 5.1 L-8.3 6.35 Q-4.5 6.95 -0.7 6.45 L6.4 5.0 Q9.75 4.05 12.95 2.5 L19.25 -0.75 Q22.45 -2.55 24.4 -5.45 26.4 -8.5 26.75 -12.3 M36.55 -11.35 L36.45 -11.3 36.55 -11.55 36.55 -11.35 M-52.2 -4.7 L-51.95 -5.65 -50.5 -7.85 -51.95 -5.6 -52.2 -4.7 M-51.05 6.4 L-51.0 6.25 -48.35 9.7 -47.55 10.65 Q-44.95 13.55 -41.65 15.1 L-40.45 15.65 -35.5 18.4 -35.4 18.45 Q-32.4 20.3 -29.2 21.6 L-27.45 22.3 -24.8 23.25 -21.0 24.5 -12.8 26.6 -4.75 27.65 -4.75 27.7 -4.75 27.75 -5.75 29.05 Q-8.25 31.35 -12.4 31.45 -16.3 31.55 -19.75 30.1 L-26.35 27.35 -33.0 24.35 Q-36.45 22.65 -39.8 20.75 L-46.0 17.1 Q-48.75 15.4 -50.4 12.95 -52.5 9.8 -51.05 6.4 -50.0 8.15 -48.35 9.7 -50.0 8.15 -51.05 6.4 M-23.8 -16.2 L-23.8 -16.1 Q-23.35 -16.6 -24.8 -15.75 L-24.9 -15.65 -23.8 -16.2 M-25.15 -15.55 L-25.1 -15.55 -25.95 -15.05 -25.15 -15.55 M-8.15 -14.5 L-8.2 -14.6 -7.35 -15.4 -8.15 -14.5 M-10.55 -9.85 L-10.45 -10.05 -10.1 -11.1 -10.45 -10.05 -10.55 -9.85 M-27.45 22.3 L-25.2 23.3 -21.7 24.85 Q-14.4 28.5 -5.15 27.75 L-4.75 27.75 -5.15 27.75 Q-14.4 28.5 -21.7 24.85 L-25.2 23.3 -27.45 22.3 M-27.25 30.9 L-26.7 31.05 -23.95 32.0 Q-21.7 32.85 -19.4 34.0 L-15.05 35.9 -17.8 35.0 -15.4 35.95 Q-19.9 34.6 -25.45 32.0 L-27.65 30.95 -27.1 31.1 -26.15 31.4 -27.25 30.9 M-9.25 37.2 L-6.35 37.1 -5.5 37.0 -5.1 36.95 -1.55 36.15 -1.85 36.3 -1.6 36.25 Q-2.4 36.7 -3.35 36.95 L-5.0 37.25 Q-7.05 37.55 -9.65 37.25 L-8.7 37.25 -9.25 37.2 M37.25 14.4 L45.65 9.15 37.25 14.4 M48.0 7.65 L50.45 5.7 51.75 4.45 Q50.25 6.25 48.0 7.65" fill="#a8b38c" fill-rule="evenodd" stroke="none"/>
    <path d="M-26.2 -20.3 L-25.8 -20.5 -26.95 -20.45 -21.3 -22.95 Q-16.75 -24.8 -12.45 -27.45 -3.35 -33.1 6.75 -35.25 9.05 -35.75 11.3 -35.2 16.35 -33.95 21.25 -31.8 24.95 -30.2 28.7 -28.2 L33.75 -25.05 34.8 -24.3 42.25 -18.65 Q45.35 -16.25 45.65 -12.65 45.9 -9.1 44.85 -5.05 43.8 -1.0 40.7 2.45 37.95 5.45 33.75 7.6 L32.45 8.2 26.05 11.05 Q22.1 12.8 17.8 14.2 13.2 15.65 9.0 16.55 L1.45 18.15 -6.45 19.05 -16.0 18.65 -24.55 17.1 Q-28.15 16.15 -30.4 14.45 L-34.8 11.1 -41.05 6.15 -45.55 1.85 Q-47.75 -0.55 -47.45 -4.35 -47.2 -7.8 -46.1 -8.0 -45.0 -8.2 -40.7 -11.45 -36.4 -14.75 -28.1 -19.25 L-26.85 -19.95 -23.7 -20.85 -26.2 -20.3 M9.75 -32.5 Q5.8 -33.45 2.55 -31.85 L-3.95 -28.35 -10.5 -24.7 Q-13.25 -23.3 -16.55 -21.65 -18.95 -20.5 -21.5 -20.35 -22.1 -19.4 -16.0 -21.2 -43.5 -6.45 -41.9 -3.15 -41.15 -1.5 -40.7 -1.15 -40.1 0.55 -37.15 3.95 -32.95 8.9 -30.3 11.1 -27.45 13.4 -23.95 14.45 L-16.8 16.25 -9.3 16.45 -1.95 15.45 5.5 14.15 12.35 12.35 19.15 10.15 Q22.65 8.95 25.55 7.4 L31.85 3.9 33.75 2.6 Q35.65 1.1 37.1 -0.9 39.1 -3.75 40.9 -6.75 42.65 -9.75 40.9 -13.7 39.15 -17.65 36.25 -19.85 L33.75 -21.65 30.3 -23.8 Q27.0 -25.6 23.65 -27.05 L16.95 -30.0 Q13.5 -31.6 9.75 -32.5 M9.25 -6.9 Q5.95 -5.4 2.45 -4.3 -0.85 -3.25 -4.75 -3.05 L-8.9 -3.25 Q-12.8 -3.85 -15.65 -5.95 -19.0 -8.4 -17.05 -12.55 -15.5 -15.9 -12.6 -18.15 -11.0 -18.45 -11.3 -17.15 -11.8 -14.9 -13.15 -12.65 -15.2 -9.2 -11.4 -7.0 -8.05 -5.15 -4.0 -5.35 -0.15 -5.55 3.35 -6.5 6.8 -7.45 9.85 -9.25 12.9 -11.05 14.85 -14.55 17.2 -13.2 15.05 -10.9 12.55 -8.3 9.25 -6.9 M26.75 -12.3 Q26.4 -8.5 24.4 -5.45 22.45 -2.55 19.25 -0.75 L12.95 2.5 Q9.75 4.05 6.4 5.0 L-0.7 6.45 Q-4.5 6.95 -8.3 6.35 L-15.7 5.1 Q-19.25 4.55 -22.3 2.65 -26.1 0.3 -21.65 0.5 -18.15 0.65 -15.0 1.65 L-7.95 3.5 Q-4.1 4.35 -0.55 3.65 L6.65 2.35 Q9.9 1.8 13.35 0.25 16.65 -1.2 19.05 -3.6 21.45 -6.1 22.5 -9.5 23.65 -13.2 23.7 -17.05 27.2 -17.25 26.75 -12.3" fill="#c6cdb4" fill-rule="evenodd" stroke="none"/>
    <path d="M-26.85 -19.95 L-26.9 -19.95 -30.0 -19.6 -30.2 -19.55 -30.4 -19.55 -30.6 -19.5 -30.95 -19.5 -29.55 -20.2 -29.2 -20.4 -28.9 -20.4 -28.8 -20.45 -28.7 -20.45 -28.8 -20.4 -28.7 -20.4 -28.6 -20.45 -28.4 -20.45 -28.3 -20.45 -26.85 -20.35 -26.2 -20.3 -23.7 -20.85 -26.85 -19.95 M-52.35 -2.15 Q-50.7 0.85 -48.55 3.25 L-43.65 8.15 -38.35 12.65 Q-35.3 15.2 -31.75 16.3 -28.1 17.45 -24.7 19.05 -21.45 20.6 -17.7 21.55 L-10.65 23.0 Q-6.7 23.7 -2.95 22.9 L4.25 21.4 11.65 20.0 19.0 18.7 23.25 17.85 Q7.5 26.6 -4.75 27.75 7.5 26.6 23.25 17.85 L23.85 17.7 26.2 17.05 Q29.5 16.15 32.65 13.9 L33.75 13.15 39.1 10.0 45.1 6.8 51.6 3.45 52.9 2.95 52.95 2.85 53.35 2.7 53.6 2.6 53.5 2.7 53.85 2.6 54.0 2.55 53.85 2.7 52.35 4.2 52.1 4.45 50.85 5.65 48.4 7.6 47.0 8.45 45.65 9.15 45.25 9.35 46.55 8.55 44.6 9.5 Q41.1 11.1 38.85 12.9 L35.0 15.7 37.65 14.1 37.25 14.4 34.0 16.35 33.75 16.5 Q20.65 24.3 6.2 32.0 L-0.65 35.6 -1.35 36.1 -1.6 36.25 -1.35 36.1 -0.65 35.6 6.2 32.0 Q20.65 24.3 33.75 16.5 L34.0 16.35 37.25 14.4 35.3 15.7 34.2 16.4 33.75 16.7 32.65 17.4 24.85 22.3 17.75 26.65 Q14.6 28.6 11.15 30.15 9.2 31.05 7.35 32.0 5.3 33.0 3.35 34.15 1.3 35.3 -0.95 36.05 L-1.15 36.1 -1.6 36.25 -1.85 36.3 -1.55 36.15 -5.1 36.95 -5.5 37.0 -6.35 37.1 -9.25 37.2 -9.9 37.15 -12.7 36.7 -14.2 36.2 -15.05 35.9 -19.4 34.0 Q-21.7 32.85 -23.95 32.0 L-26.7 31.05 -27.25 30.9 Q-27.45 30.8 -27.6 30.75 L-29.05 30.3 -27.95 30.85 -34.45 28.4 Q-38.2 26.8 -41.2 24.45 -43.55 22.65 -46.6 20.9 -49.55 19.2 -52.2 17.1 -55.05 14.8 -55.35 11.25 -55.7 7.8 -53.8 5.55 -52.75 4.3 -52.5 2.75 L-52.3 3.55 Q-53.75 5.4 -54.4 7.2 L-53.4 5.5 Q-52.65 4.6 -52.3 3.55 L-52.1 2.7 -52.15 2.6 -52.15 2.5 -52.4 0.9 -52.45 -0.3 -52.5 -0.4 -52.75 -1.85 -52.75 -2.1 -52.75 -1.85 -52.85 -0.25 -52.9 -0.35 Q-53.4 -1.85 -53.0 -2.55 L-52.75 -2.1 -52.7 -2.4 -52.6 -2.6 -52.35 -2.15 M-10.2 37.2 L-13.1 36.75 -14.75 36.2 -10.2 37.2 M-15.35 14.3 L-19.3 13.65 Q-35.8 10.4 -36.55 -1.7 -36.8 -8.6 -23.9 -13.25 -22.75 -15.45 -19.55 -17.5 -16.35 -19.55 -19.45 -18.35 -17.45 -19.8 -15.1 -20.8 -11.75 -22.3 -8.45 -23.9 L-2.1 -26.75 Q1.35 -28.15 4.9 -28.85 8.65 -29.55 12.5 -28.8 15.95 -28.1 19.5 -26.7 22.9 -25.3 26.2 -23.5 L32.6 -20.05 33.75 -19.3 Q36.2 -17.55 36.9 -14.25 37.2 -12.8 36.95 -11.6 L36.85 -11.35 36.95 -11.4 37.1 -11.55 36.9 -10.7 36.45 -9.0 Q35.4 -5.8 33.75 -3.05 30.45 2.35 24.55 5.55 13.5 11.55 2.35 13.35 L-14.95 14.2 -14.95 14.35 -15.35 14.3 M-10.55 -9.85 Q-10.35 -13.65 -8.6 -16.85 -6.8 -20.15 -3.5 -21.3 -0.1 -22.5 3.5 -22.4 L11.15 -21.75 Q14.8 -21.15 18.3 -19.55 22.4 -17.65 21.15 -14.45 L20.9 -14.6 Q22.1 -10.25 19.4 -6.6 16.15 -2.35 5.85 1.6 -4.45 5.55 -19.3 -0.7 -21.5 -1.25 -23.75 -0.7 -26.4 0.0 -28.45 2.25 L-25.7 3.65 Q-22.55 5.1 -19.3 6.2 -8.9 9.95 2.0 7.65 13.75 5.3 23.75 -1.65 L33.75 -8.9 36.25 -10.85 Q35.8 -13.35 33.75 -15.3 L32.75 -16.15 Q29.9 -18.35 26.3 -19.75 22.5 -21.2 18.9 -22.85 14.7 -24.75 9.85 -25.25 L3.15 -24.85 -4.4 -23.0 -9.7 -21.05 Q-12.6 -19.75 -15.05 -17.9 L-19.25 -15.1 Q-28.4 -5.9 -19.1 -5.3 -11.75 -1.95 -3.4 -2.4 7.7 -3.15 15.9 -10.55 18.15 -12.55 19.7 -15.0 L19.85 -15.3 19.1 -15.75 Q16.85 -17.1 14.4 -18.0 11.0 -19.25 7.1 -19.15 L1.7 -18.75 1.3 -18.7 1.1 -18.75 11.0 -19.15 Q16.9 -18.15 19.1 -15.75 16.9 -18.15 11.0 -19.15 L1.1 -18.75 1.3 -18.7 -0.3 -18.45 Q-3.3 -17.95 -5.7 -16.5 L-6.9 -15.75 -7.35 -15.4 -8.2 -14.6 -8.15 -14.5 -8.45 -14.1 Q-9.45 -12.8 -10.1 -11.1 -9.95 -12.25 -8.95 -13.65 L-8.7 -14.0 -8.95 -13.65 Q-10.1 -12.05 -10.55 -9.85 M10.85 -14.7 L11.75 -15.0 11.1 -14.05 10.85 -14.7 M-5.15 -6.65 Q-0.6 -6.85 7.4 -10.35 L8.1 -10.7 7.8 -10.4 Q6.95 -9.75 6.0 -9.3 2.7 -7.7 -1.1 -6.85 L-5.15 -6.65 M33.25 -16.35 L33.75 -15.95 Q36.35 -13.9 36.55 -11.55 36.35 -13.9 33.75 -15.95 L33.25 -16.35 M36.55 -11.55 L36.45 -11.3 36.55 -11.35 36.55 -11.55 M-27.25 -9.9 Q-28.95 -6.15 -25.45 -3.55 -1.9 7.05 16.9 -5.35 21.85 -11.45 19.7 -15.0 21.85 -11.45 16.9 -5.35 -1.9 7.05 -25.45 -3.55 -28.95 -6.15 -27.25 -9.9 M-34.3 1.6 Q-26.25 13.45 2.55 11.2 22.85 4.95 33.75 -5.95 L34.95 -7.2 36.05 -8.95 36.5 -10.65 36.55 -11.35 36.5 -10.65 36.05 -8.95 34.95 -7.2 33.75 -5.95 Q22.85 4.95 2.55 11.2 -26.25 13.45 -34.3 1.6 M-51.05 6.4 L-52.3 3.55 -51.05 6.4 Q-52.5 9.8 -50.4 12.95 -48.75 15.4 -46.0 17.1 L-39.8 20.75 Q-36.45 22.65 -33.0 24.35 L-26.35 27.35 -19.75 30.1 Q-16.3 31.55 -12.4 31.45 -8.25 31.35 -5.75 29.05 L-4.75 27.75 -4.75 27.7 -4.75 27.65 -12.8 26.6 -21.0 24.5 -24.8 23.25 -27.45 22.3 -35.4 18.45 -27.45 22.3 -29.2 21.6 Q-32.4 20.3 -35.4 18.45 L-35.5 18.4 -40.45 15.65 Q-45.05 12.95 -47.05 10.85 L-48.35 9.7 -47.05 10.85 Q-45.05 12.95 -40.45 15.65 L-41.65 15.1 Q-44.95 13.55 -47.55 10.65 L-48.35 9.7 -51.0 6.25 -51.05 6.4 M-28.7 -20.4 L-29.55 -20.2 -28.7 -20.4 M-23.8 -16.2 L-24.9 -15.65 -24.8 -15.75 Q-23.35 -16.6 -23.8 -16.1 L-23.8 -16.2 M-25.15 -15.55 L-25.95 -15.05 -25.1 -15.55 -25.15 -15.55 M-34.05 1.35 Q-34.55 -5.25 -30.35 -8.2 -25.75 -11.4 -21.45 -13.7 7.9 -36.2 33.05 -16.5 7.9 -36.2 -21.45 -13.7 -25.75 -11.4 -30.35 -8.2 -34.55 -5.25 -34.05 1.35 M1.1 -18.75 Q-3.25 -18.55 -6.1 -16.45 L-7.35 -15.4 -6.1 -16.45 Q-3.25 -18.55 1.1 -18.75 M52.9 2.95 L51.95 4.25 Q50.15 6.5 47.2 8.15 L45.65 9.15 47.2 8.15 Q50.15 6.5 51.95 4.25 L52.9 2.95 M-54.8 8.4 L-54.4 7.2 -54.8 8.4 Q-55.35 10.45 -54.75 12.35 L-54.95 11.2 Q-55.1 9.7 -54.8 8.4 M-29.05 30.3 Q-38.8 25.35 -51.5 16.95 -54.05 14.8 -54.75 12.35 -54.05 14.8 -51.5 16.95 -38.8 25.35 -29.05 30.3 M48.0 7.65 Q50.25 6.25 51.75 4.45 L50.45 5.7 48.0 7.65" fill="#899865" fill-rule="evenodd" stroke="none"/>
    <path d="M52.0 -8.0 Q50.8 -11.0 49.0 -13.5 L46.05 -17.3 Q51.25 -12.3 52.0 -8.0 M50.45 -15.6 L52.15 -14.05 53.2 -12.8 53.85 -11.75 54.5 -10.4 55.05 -7.7 55.05 -6.1 Q54.85 -2.8 54.05 -0.3 L54.05 -0.4 53.85 -2.75 Q53.5 -5.25 52.6 -7.55 L52.4 -8.05 Q51.2 -11.05 49.4 -13.55 L46.45 -17.35 45.9 -18.0 46.5 -17.7 Q48.4 -16.85 50.05 -15.55 L49.95 -16.0 50.45 -15.6 M-14.95 14.2 L-14.95 14.35 -14.95 14.2 M-15.35 14.3 L-15.35 14.4 -15.35 14.3 M53.2 -12.8 Q52.05 -14.25 50.05 -15.55 52.05 -14.25 53.2 -12.8 M54.5 -10.4 Q54.85 -9.1 54.65 -7.65 L55.0 -7.05 54.8 -4.4 54.75 -3.95 54.05 -0.4 54.75 -3.95 54.8 -4.4 55.0 -7.05 54.65 -7.65 Q54.85 -9.1 54.5 -10.4" fill="#97a477" fill-rule="evenodd" stroke="none"/>
    <path d="M-30.7 -19.4 L-32.0 -18.75 -36.35 -16.3 -40.95 -13.5 -41.95 -12.95 -44.1 -11.95 -44.35 -11.8 -49.7 -8.35 -50.5 -7.85 -51.95 -5.6 -52.2 -4.7 -52.7 -2.4 -52.75 -2.1 -52.75 -1.85 -52.85 -0.25 M23.25 17.85 Q23.3 17.75 23.4 17.75 L33.75 11.35 Q40.55 6.8 47.95 0.95 52.9 -3.05 52.0 -8.0 51.25 -12.3 46.05 -17.3 L43.85 -19.3 36.05 -25.05 33.75 -26.65 Q14.5 -39.8 2.05 -36.8 0.05 -36.35 -1.8 -35.45 L-28.6 -20.45 -28.7 -20.4 -29.55 -20.2 M53.2 -12.8 L53.85 -11.75 54.5 -10.4 Q54.85 -9.1 54.65 -7.65 L55.0 -7.05 54.8 -4.4 54.75 -3.95 54.05 -0.4 53.7 1.3 52.95 2.85 52.9 2.95 51.95 4.25 Q50.15 6.5 47.2 8.15 L45.65 9.15 37.25 14.4 34.0 16.35 33.75 16.5 Q20.65 24.3 6.2 32.0 L-0.65 35.6 -1.35 36.1 -1.6 36.25 Q-2.4 36.7 -3.35 36.95 L-10.2 37.2 -14.75 36.2 Q-19.5 34.85 -25.55 32.0 L-27.95 30.85 -29.05 30.3 Q-38.8 25.35 -51.5 16.95 -54.05 14.8 -54.75 12.35 -55.35 10.45 -54.8 8.4 L-54.4 7.2 Q-53.75 5.4 -52.3 3.55 L-51.05 6.4 Q-50.0 8.15 -48.35 9.7 L-47.05 10.85 Q-45.05 12.95 -40.45 15.65 L-35.5 18.4 -35.4 18.45 -27.45 22.3 -25.2 23.3 -21.7 24.85 Q-14.4 28.5 -5.15 27.75 L-4.75 27.75 Q7.5 26.6 23.25 17.85 M-52.5 2.75 L-52.85 0.5 -52.85 0.15 M19.7 -15.0 L19.1 -15.75 Q16.9 -18.15 11.0 -19.15 L1.1 -18.75 1.3 -18.7 Q9.3 -17.2 10.85 -14.7 L11.1 -14.05 Q11.3 -13.35 11.0 -12.5 M8.1 -10.7 Q9.5 -11.3 11.0 -12.05 M8.1 -10.7 L7.4 -10.35 Q-0.6 -6.85 -5.15 -6.65 L-5.75 -6.65 Q-9.6 -6.7 -10.65 -9.45 L-10.55 -9.85 -10.45 -10.05 -10.1 -11.1 Q-9.45 -12.8 -8.45 -14.1 L-8.15 -14.5 -7.35 -15.4 -6.1 -16.45 Q-3.25 -18.55 1.1 -18.75 M36.55 -11.55 Q36.35 -13.9 33.75 -15.95 L33.25 -16.35 M36.55 -11.35 L36.55 -11.55 M36.55 -11.35 L36.5 -10.65 36.05 -8.95 34.95 -7.2 33.75 -5.95 Q22.85 4.95 2.55 11.2 -26.25 13.45 -34.3 1.6 M19.7 -15.0 Q21.85 -11.45 16.9 -5.35 -1.9 7.05 -25.45 -3.55 -28.95 -6.15 -27.25 -9.9 M49.95 -16.0 L49.85 -16.4 46.75 -18.35 43.85 -19.3 M49.95 -16.0 L50.05 -15.55 Q52.05 -14.25 53.2 -12.8 M-30.7 -19.4 L-30.4 -19.55 M33.05 -16.5 Q7.9 -36.2 -21.45 -13.7 -25.75 -11.4 -30.35 -8.2 -34.55 -5.25 -34.05 1.35 M-52.5 2.75 L-52.3 3.55" fill="none" stroke="#5f6150" stroke-linecap="round" stroke-linejoin="round" stroke-width="1.0"/>
    <path d="M24.8 -28.55 L24.95 -28.55 Q26.05 -28.75 27.4 -28.55 L29.5 -27.95 30.8 -26.6 Q31.25 -25.75 30.4 -25.25 29.5 -24.8 28.35 -26.05 27.2 -27.3 26.0 -26.7 L24.5 -26.75 24.2 -27.45 24.45 -28.0 24.8 -28.55 M16.35 -31.3 Q15.8 -30.95 14.3 -32.4 12.85 -33.85 10.5 -33.45 L7.7 -33.5 7.7 -33.55 8.15 -34.15 9.5 -34.65 12.95 -35.25 15.25 -34.8 Q16.25 -34.35 16.45 -33.6 L16.6 -31.8 16.35 -31.3 M5.85 -23.5 L5.45 -23.3 4.2 -23.05 2.9 -23.3 Q2.4 -23.5 2.4 -23.8 L2.9 -24.35 4.2 -24.55 5.45 -24.35 6.0 -23.85 6.0 -23.8 5.85 -23.5 M13.5 -24.4 L14.85 -24.0 Q15.45 -23.6 15.45 -23.0 15.45 -22.4 14.85 -22.15 14.2 -21.95 13.3 -22.45 12.4 -22.95 12.0 -22.65 11.55 -22.4 11.55 -23.0 11.55 -23.6 12.1 -24.0 L13.5 -24.4 M2.4 -6.45 L4.05 -6.25 4.75 -5.8 Q4.75 -5.55 4.05 -5.35 3.35 -5.15 1.85 -4.35 0.35 -3.6 0.15 -4.5 L0.0 -5.7 Q0.05 -6.05 0.75 -6.25 L2.4 -6.45 M5.3 4.05 L5.15 4.25 Q4.5 4.85 3.75 5.05 L2.05 5.3 -0.2 5.3 -1.45 4.95 Q-1.45 4.65 -0.2 4.25 L2.3 3.7 4.65 3.6 5.2 3.65 5.3 4.05 M10.5 -9.15 Q9.95 -9.65 11.25 -10.0 L12.75 -10.35 13.95 -10.55 Q14.85 -10.75 14.15 -9.75 L13.25 -8.35 12.75 -7.95 Q12.5 -7.95 11.8 -8.3 L10.5 -9.15 M17.0 -0.8 L16.8 0.85 16.1 0.9 Q15.65 0.2 14.75 1.0 13.85 1.8 13.25 1.7 12.6 1.6 12.6 1.1 12.6 0.6 13.15 0.25 L15.35 -0.85 17.0 -0.8 M38.45 -20.1 L40.05 -19.3 41.05 -18.05 Q41.55 -17.25 41.1 -16.85 L39.4 -16.65 Q38.15 -16.9 37.65 -17.3 37.15 -17.7 36.5 -18.95 35.85 -20.2 36.6 -20.35 L38.45 -20.1 M24.35 -20.0 Q24.8 -19.65 24.85 -19.1 L25.0 -17.45 Q25.15 -16.35 23.95 -17.15 22.7 -17.95 22.25 -18.3 21.8 -18.65 21.8 -19.15 21.8 -19.65 22.25 -20.0 22.7 -20.35 23.3 -20.35 23.9 -20.35 24.35 -20.0 M24.9 -9.4 Q25.25 -9.1 25.0 -8.85 L24.25 -8.4 Q23.75 -8.15 23.65 -7.9 L22.45 -7.85 Q21.35 -8.05 21.55 -8.5 21.75 -8.95 22.65 -9.3 L24.05 -9.7 24.9 -9.4 M39.25 -1.8 Q40.05 -2.7 40.5 -4.0 40.95 -5.35 42.3 -5.9 43.6 -6.45 44.25 -5.0 44.9 -3.55 44.0 -3.3 43.05 -3.05 42.85 -2.3 42.65 -1.6 41.85 -0.8 41.05 0.0 39.75 -0.45 38.45 -0.9 39.25 -1.8 M30.8 7.4 Q30.5 8.15 29.85 8.4 L28.0 8.85 25.6 9.1 Q24.4 9.15 25.2 8.25 L26.65 7.05 28.65 6.3 30.5 6.25 Q31.05 6.65 30.8 7.4 M8.15 15.45 L9.6 14.25 11.6 13.5 13.45 13.45 Q14.0 13.85 13.75 14.6 13.45 15.35 12.8 15.6 L10.95 16.05 8.55 16.3 Q7.35 16.35 8.15 15.45 M-43.45 -9.65 Q-41.25 -11.0 -38.75 -11.6 -36.3 -12.2 -36.05 -11.1 -35.85 -10.0 -37.85 -9.5 -39.9 -9.0 -41.25 -7.7 -42.65 -6.4 -43.6 -6.0 L-45.65 -5.95 Q-46.8 -6.3 -46.25 -7.3 -45.7 -8.35 -43.45 -9.65 M-13.85 -24.95 Q-13.8 -24.45 -14.1 -23.8 -14.45 -23.15 -14.9 -22.8 -15.35 -22.45 -16.2 -22.4 L-18.05 -22.6 Q-19.0 -22.85 -18.2 -23.5 L-17.0 -24.5 -15.2 -25.15 Q-13.9 -25.45 -13.85 -24.95 M-6.05 -29.05 L-6.05 -30.3 Q-5.95 -30.75 -5.25 -31.0 L-3.5 -31.2 -1.8 -31.0 -1.05 -30.45 Q-1.05 -30.15 -1.8 -29.95 L-4.2 -28.95 -6.05 -29.05 M-26.6 -17.1 Q-27.35 -17.05 -27.95 -16.45 -28.6 -15.95 -29.0 -16.3 -29.4 -16.65 -28.95 -17.25 L-27.7 -18.1 Q-26.9 -18.35 -26.3 -18.75 L-25.3 -18.8 Q-24.9 -18.4 -25.35 -17.8 -25.85 -17.15 -26.6 -17.1 M-13.6 -15.3 L-13.7 -14.9 -14.15 -13.0 Q-14.2 -12.3 -14.55 -11.85 -14.9 -11.35 -16.0 -10.6 -17.1 -9.85 -17.1 -10.75 L-16.85 -12.65 -16.25 -14.1 -14.6 -15.35 -14.35 -15.5 -13.6 -15.3 M-3.95 -21.05 Q-3.95 -20.75 -4.35 -20.55 L-5.25 -20.3 -6.6 -20.3 Q-7.4 -20.3 -7.4 -20.6 L-6.6 -21.35 -5.25 -21.8 -4.35 -21.6 -3.95 -21.05 M-11.05 -4.65 L-10.6 -5.2 -9.55 -5.4 -8.5 -5.2 -8.05 -4.65 Q-8.05 -4.35 -8.5 -4.15 L-9.55 -3.9 Q-10.15 -3.9 -10.6 -4.15 L-11.05 -4.65 M-8.4 4.9 Q-7.65 5.35 -8.6 5.5 L-10.55 5.55 -12.65 5.2 Q-13.8 4.85 -13.8 4.55 -13.8 4.25 -12.65 4.15 L-10.85 4.0 -9.65 4.2 -8.4 4.9 M-25.1 0.05 L-24.15 0.3 -21.35 1.0 -20.05 1.2 Q-19.5 1.45 -19.5 1.75 -19.5 2.05 -20.05 2.25 L-21.35 2.5 -22.85 2.15 -24.9 0.7 -25.35 0.2 -25.1 0.05 M-9.65 18.2 Q-11.2 17.75 -10.45 17.5 L-8.9 17.0 -7.15 16.75 -3.65 17.05 Q-1.15 17.3 -3.0 17.7 L-5.5 18.4 -7.15 18.65 -9.65 18.2 M-40.4 2.75 L-39.95 2.9 -37.85 4.0 Q-37.05 4.55 -37.05 4.95 -37.05 5.35 -38.1 5.75 L-40.15 6.1 Q-41.15 6.1 -41.35 5.75 L-41.55 4.95 -41.35 3.45 -41.25 3.05 -40.4 2.75 M-23.25 16.3 L-25.1 16.4 Q-27.05 15.9 -27.7 15.6 L-28.35 14.95 Q-28.35 14.55 -27.7 14.25 L-26.1 14.0 -24.5 14.25 Q-23.85 14.55 -23.55 15.1 L-23.25 16.3" fill="#ab8458" fill-rule="evenodd" stroke="none"/>
    <path d="M24.2 -27.45 L24.5 -26.75 26.0 -26.7 Q27.2 -27.3 28.35 -26.05 29.5 -24.8 30.4 -25.25 31.25 -25.75 30.8 -26.6 L29.5 -27.95 27.4 -28.55 Q26.05 -28.75 24.95 -28.55 L24.8 -28.55 Q26.05 -30.4 28.45 -29.45 31.45 -28.2 34.3 -26.65 32.05 -26.7 30.6 -25.3 27.95 -22.8 29.4 -19.2 L33.25 -16.3 31.85 -16.5 Q28.8 -17.8 24.9 -16.65 21.55 -15.7 20.65 -12.15 L20.55 -11.85 20.5 -12.15 19.6 -15.6 Q18.85 -18.35 21.5 -20.05 23.7 -21.45 25.9 -20.95 L25.0 -21.9 Q23.1 -24.55 24.2 -27.45 M16.35 -31.3 L16.05 -30.4 Q15.4 -27.4 16.8 -24.9 18.1 -24.65 19.3 -23.9 L17.5 -23.35 Q13.6 -21.4 14.85 -18.0 L14.75 -17.95 Q15.95 -17.65 16.75 -17.0 13.4 -16.55 11.25 -14.0 8.75 -16.25 6.2 -17.35 8.9 -18.2 11.9 -18.25 L12.95 -18.25 Q9.2 -19.75 11.15 -23.35 11.7 -24.4 12.9 -24.75 L13.55 -24.85 9.85 -26.0 Q7.85 -26.5 7.15 -28.75 6.3 -31.45 7.7 -33.55 L7.7 -33.5 10.5 -33.45 Q12.85 -33.85 14.3 -32.4 15.8 -30.95 16.35 -31.3 M8.15 -34.15 L9.05 -35.05 Q11.8 -37.3 15.65 -36.25 18.85 -35.4 21.0 -33.65 17.75 -33.8 16.6 -31.8 L16.45 -33.6 Q16.25 -34.35 15.25 -34.8 L12.95 -35.25 9.5 -34.65 8.15 -34.15 M5.85 -23.5 Q4.65 -20.8 7.0 -18.65 L2.15 -18.4 Q2.5 -19.7 2.3 -20.65 1.35 -25.5 5.3 -26.0 7.6 -26.3 6.6 -24.85 L6.0 -23.85 5.45 -24.35 4.2 -24.55 2.9 -24.35 2.4 -23.8 Q2.4 -23.5 2.9 -23.3 L4.2 -23.05 5.45 -23.3 5.85 -23.5 M2.4 -6.45 L0.75 -6.25 Q0.05 -6.05 0.0 -5.7 L0.15 -4.5 Q0.35 -3.6 1.85 -4.35 3.35 -5.15 4.05 -5.35 4.75 -5.55 4.75 -5.8 L4.05 -6.25 2.4 -6.45 M13.5 -24.4 L12.1 -24.0 Q11.55 -23.6 11.55 -23.0 11.55 -22.4 12.0 -22.65 12.4 -22.95 13.3 -22.45 14.2 -21.95 14.85 -22.15 15.45 -22.4 15.45 -23.0 15.45 -23.6 14.85 -24.0 L13.5 -24.4 M5.3 4.05 Q5.95 6.85 7.45 9.7 5.3 10.45 3.65 11.25 L3.05 11.5 Q1.45 12.1 0.45 11.5 -0.75 10.85 -1.15 8.6 -1.65 5.85 -1.5 3.3 L-1.35 1.95 Q-1.9 1.35 -1.3 -0.2 -0.7 -1.7 -0.65 -3.2 -0.6 -5.25 -1.65 -7.2 L0.1 -7.05 2.25 -7.5 Q5.1 -7.95 5.2 -3.6 L5.2 -3.15 Q5.15 -0.65 3.9 0.7 4.65 1.35 5.0 2.8 L5.05 3.1 5.2 3.65 4.65 3.6 2.3 3.7 -0.2 4.25 Q-1.45 4.65 -1.45 4.95 L-0.2 5.3 2.05 5.3 3.75 5.05 Q4.5 4.85 5.15 4.25 L5.3 4.05 M19.25 -8.2 Q22.0 -10.2 26.2 -9.75 30.35 -9.25 31.5 -5.55 31.8 -4.65 31.4 -3.85 L34.1 -6.35 Q37.3 -7.8 41.2 -6.95 44.9 -6.15 46.05 -2.3 46.5 -0.75 46.45 0.5 46.3 2.8 44.3 4.1 L43.15 4.9 41.15 6.4 43.25 6.7 Q47.0 8.15 44.0 10.95 L43.4 11.5 Q40.8 13.7 37.65 14.5 38.6 12.45 37.6 11.5 36.9 10.85 35.15 10.75 L38.05 8.15 Q39.3 6.7 40.8 6.45 L41.05 4.85 Q41.15 2.9 40.05 0.8 L39.85 0.4 Q38.3 -2.5 34.3 -2.9 L30.5 -2.6 30.3 -2.55 30.4 -2.45 Q28.9 -0.8 26.45 0.6 27.55 -2.8 25.15 -5.7 22.7 -8.6 18.45 -7.2 18.6 -7.7 19.25 -8.2 M10.5 -9.15 L11.8 -8.3 Q12.5 -7.95 12.75 -7.95 L13.25 -8.35 14.15 -9.75 Q14.85 -10.75 13.95 -10.55 L12.75 -10.35 11.25 -10.0 Q9.95 -9.65 10.5 -9.15 M14.9 -3.1 L14.7 -2.95 Q17.4 -2.7 18.75 0.85 L19.1 1.9 Q19.8 5.05 17.15 6.35 14.6 7.6 11.65 8.45 12.65 6.8 12.5 4.6 L12.05 2.35 Q11.15 -0.1 8.7 -1.1 L11.45 -2.3 11.55 -2.25 11.6 -2.35 11.85 -3.1 11.9 -4.9 Q11.4 -9.05 7.25 -9.95 9.55 -10.8 11.05 -10.95 15.25 -11.45 16.85 -8.65 17.55 -7.4 17.45 -6.0 17.4 -5.05 16.35 -4.15 L14.9 -3.1 M38.45 -20.1 L36.6 -20.35 Q35.85 -20.2 36.5 -18.95 37.15 -17.7 37.65 -17.3 38.15 -16.9 39.4 -16.65 L41.1 -16.85 Q41.55 -17.25 41.05 -18.05 L40.05 -19.3 38.45 -20.1 M17.0 -0.8 L15.35 -0.85 13.15 0.25 Q12.6 0.6 12.6 1.1 12.6 1.6 13.25 1.7 13.85 1.8 14.75 1.0 15.65 0.2 16.1 0.9 L16.8 0.85 17.0 -0.8 M36.35 -13.25 Q34.75 -14.4 34.55 -16.15 34.1 -20.0 37.55 -20.7 41.25 -21.45 43.85 -19.3 46.0 -17.5 47.4 -15.45 44.45 -17.6 40.65 -16.25 37.55 -15.1 36.8 -12.15 L36.8 -12.1 36.8 -12.15 Q36.8 -12.95 36.35 -13.25 M39.25 -1.8 Q38.45 -0.9 39.75 -0.45 41.05 0.0 41.85 -0.8 42.65 -1.6 42.85 -2.3 43.05 -3.05 44.0 -3.3 44.9 -3.55 44.25 -5.0 43.6 -6.45 42.3 -5.9 40.95 -5.35 40.5 -4.0 40.05 -2.7 39.25 -1.8 M24.9 -9.4 L24.05 -9.7 22.65 -9.3 Q21.75 -8.95 21.55 -8.5 21.35 -8.05 22.45 -7.85 L23.65 -7.9 Q23.75 -8.15 24.25 -8.4 L25.0 -8.85 Q25.25 -9.1 24.9 -9.4 M24.35 -20.0 Q23.9 -20.35 23.3 -20.35 22.7 -20.35 22.25 -20.0 21.8 -19.65 21.8 -19.15 21.8 -18.65 22.25 -18.3 22.7 -17.95 23.95 -17.15 25.15 -16.35 25.0 -17.45 L24.85 -19.1 Q24.8 -19.65 24.35 -20.0 M30.65 4.7 Q31.15 5.85 31.25 7.35 31.35 9.05 30.95 10.65 L30.7 11.5 Q29.9 13.95 28.15 15.45 29.7 15.25 30.45 16.35 31.5 17.9 30.2 19.1 27.55 21.55 24.4 22.15 26.0 18.3 21.6 18.8 L21.85 18.55 21.6 18.6 22.85 16.6 Q24.25 14.35 24.35 11.5 L24.25 9.5 Q23.85 5.6 20.15 4.2 21.55 3.4 22.4 2.6 23.1 2.0 23.75 1.65 25.0 1.0 26.25 1.2 L27.2 1.45 Q28.05 1.75 28.9 2.45 30.05 3.35 30.65 4.7 M52.05 -3.9 Q55.45 -5.1 54.65 -0.5 L54.55 0.15 Q53.85 3.15 52.2 5.0 51.4 5.95 50.3 6.55 L50.65 5.0 Q50.8 2.25 48.05 1.45 L49.0 0.4 52.05 -3.9 M30.8 7.4 Q31.05 6.65 30.5 6.25 L28.65 6.3 26.65 7.05 25.2 8.25 Q24.4 9.15 25.6 9.1 L28.0 8.85 29.85 8.4 Q30.5 8.15 30.8 7.4 M13.7 11.5 L13.85 11.8 Q15.4 14.9 14.8 18.8 14.4 21.4 12.85 22.95 L17.7 22.75 Q18.7 23.1 18.2 24.3 16.45 28.2 12.4 29.6 10.05 30.4 9.05 31.15 11.3 28.0 8.9 24.95 L4.7 26.2 5.85 24.0 Q7.7 20.9 7.8 16.9 7.9 13.5 5.85 11.5 L4.9 10.75 9.45 9.55 Q12.25 9.0 13.7 11.5 M-43.45 -9.65 Q-45.7 -8.35 -46.25 -7.3 -46.8 -6.3 -45.65 -5.95 L-43.6 -6.0 Q-42.65 -6.4 -41.25 -7.7 -39.9 -9.0 -37.85 -9.5 -35.85 -10.0 -36.05 -11.1 -36.3 -12.2 -38.75 -11.6 -41.25 -11.0 -43.45 -9.65 M8.15 15.45 Q7.35 16.35 8.55 16.3 L10.95 16.05 12.8 15.6 Q13.45 15.35 13.75 14.6 14.0 13.85 13.45 13.45 L11.6 13.5 9.6 14.25 8.15 15.45 M-44.15 -5.35 Q-50.3 -5.35 -52.55 -0.35 L-52.35 -2.55 Q-51.15 -9.2 -44.45 -12.05 -43.0 -12.65 -41.25 -12.75 -35.2 -13.15 -33.1 -8.25 -31.45 -4.3 -34.3 -1.2 -38.35 -5.3 -44.15 -5.35 M-6.05 -29.05 L-4.2 -28.95 -1.8 -29.95 Q-1.05 -30.15 -1.05 -30.45 L-1.8 -31.0 -3.5 -31.2 -5.25 -31.0 Q-5.95 -30.75 -6.05 -30.3 L-6.05 -29.05 M-13.85 -24.95 Q-13.9 -25.45 -15.2 -25.15 L-17.0 -24.5 -18.2 -23.5 Q-19.0 -22.85 -18.05 -22.6 L-16.2 -22.4 Q-15.35 -22.45 -14.9 -22.8 -14.45 -23.15 -14.1 -23.8 -13.8 -24.45 -13.85 -24.95 M-10.75 -30.25 Q-7.8 -31.6 -4.4 -33.85 -0.2 -33.4 0.75 -29.5 1.9 -25.05 -1.85 -23.9 L-5.5 -22.5 Q-1.5 -21.9 -2.3 -17.55 -3.05 -16.95 -6.1 -16.1 -5.9 -19.95 -8.9 -21.7 -7.2 -22.7 -5.6 -22.5 -3.45 -25.65 -6.15 -28.75 -7.75 -30.6 -10.75 -30.25 M-26.6 -17.1 Q-25.85 -17.15 -25.35 -17.8 -24.9 -18.4 -25.3 -18.8 L-26.3 -18.75 Q-26.9 -18.35 -27.7 -18.1 L-28.95 -17.25 Q-29.4 -16.65 -29.0 -16.3 -28.6 -15.95 -27.95 -16.45 -27.35 -17.05 -26.6 -17.1 M-13.6 -15.3 Q-10.95 -14.6 -9.9 -12.2 L-9.7 -11.65 Q-10.6 -9.4 -9.45 -7.85 -12.0 -10.15 -15.6 -10.2 -19.65 -10.3 -26.0 -3.65 -28.6 -8.85 -26.05 -10.4 L-22.8 -12.6 -21.5 -13.65 Q-18.65 -15.85 -15.2 -15.6 L-14.35 -15.5 -14.6 -15.35 -16.25 -14.1 -16.85 -12.65 -17.1 -10.75 Q-17.1 -9.85 -16.0 -10.6 -14.9 -11.35 -14.55 -11.85 -14.2 -12.3 -14.15 -13.0 L-13.7 -14.9 -13.6 -15.3 M-35.7 -16.2 L-30.7 -19.5 Q-26.9 -21.9 -23.7 -17.65 -20.5 -13.45 -27.55 -9.9 -27.7 -18.95 -35.7 -16.2 M-3.95 -21.05 L-4.35 -21.6 -5.25 -21.8 -6.6 -21.35 -7.4 -20.6 Q-7.4 -20.3 -6.6 -20.3 L-5.25 -20.3 -4.35 -20.55 Q-3.95 -20.75 -3.95 -21.05 M-17.9 -15.65 Q-15.6 -19.85 -18.8 -22.35 -20.4 -23.55 -22.55 -23.7 -20.15 -25.4 -17.5 -26.25 -12.85 -26.6 -12.9 -22.2 -13.0 -18.4 -16.4 -16.7 L-17.9 -15.65 M-13.0 -2.8 L-12.75 -3.3 Q-11.2 -6.4 -7.75 -6.8 -5.9 -7.4 -4.6 -6.35 L-6.45 -4.9 -7.35 -3.25 Q-8.1 -1.2 -6.85 1.2 L-8.8 1.0 -10.5 1.05 -11.1 1.4 Q-14.35 0.55 -13.0 -2.8 M-11.05 -4.65 L-10.6 -4.15 Q-10.15 -3.9 -9.55 -3.9 L-8.5 -4.15 Q-8.05 -4.35 -8.05 -4.65 L-8.5 -5.2 -9.55 -5.4 -10.6 -5.2 -11.05 -4.65 M-9.45 1.6 L-6.7 1.45 -6.85 1.2 -4.4 1.25 -6.35 3.3 -6.7 3.65 Q-7.75 4.75 -8.1 6.2 -8.95 9.6 -6.5 11.5 L-6.1 11.8 Q-8.4 12.15 -10.75 11.75 L-11.7 11.5 Q-14.8 10.45 -14.5 6.55 -14.4 5.25 -13.85 4.25 -13.0 2.45 -11.1 1.4 L-9.45 1.6 M-8.4 4.9 L-9.65 4.2 -10.85 4.0 -12.65 4.15 Q-13.8 4.25 -13.8 4.55 -13.8 4.85 -12.65 5.2 L-10.55 5.55 -8.6 5.5 Q-7.65 5.35 -8.4 4.9 M-25.1 0.05 Q-22.4 -1.85 -18.75 -1.1 -15.85 -0.6 -13.05 0.6 L-14.55 1.1 Q-18.7 1.7 -21.45 4.05 L-22.25 4.9 Q-23.8 6.95 -22.1 9.6 -18.25 10.15 -15.6 11.2 L-17.8 11.5 -19.5 12.2 Q-23.25 14.4 -23.35 19.0 -23.4 22.4 -22.25 24.45 -18.55 25.85 -16.0 27.25 -17.2 28.7 -16.45 31.0 -15.35 34.5 -13.05 36.95 L-17.9 35.75 Q-21.85 34.6 -22.9 31.0 -23.9 27.75 -23.25 24.45 L-25.55 23.5 Q-28.05 22.5 -28.9 20.4 -30.35 16.6 -28.7 13.3 L-27.35 11.5 Q-25.95 10.15 -23.8 9.7 L-26.85 8.4 Q-27.9 7.75 -28.05 6.85 L-28.15 5.45 Q-28.15 2.5 -25.7 0.45 L-25.35 0.2 -24.9 0.7 -22.85 2.15 -21.35 2.5 -20.05 2.25 Q-19.5 2.05 -19.5 1.75 -19.5 1.45 -20.05 1.2 L-21.35 1.0 -24.15 0.3 -25.1 0.05 M-9.65 18.2 L-7.15 18.65 -5.5 18.4 -3.0 17.7 Q-1.15 17.3 -3.65 17.05 L-7.15 16.75 -8.9 17.0 -10.45 17.5 Q-11.2 17.75 -9.65 18.2 M-40.4 2.75 L-39.05 2.5 Q-34.85 2.1 -32.3 4.0 L-30.25 5.6 -29.1 6.55 -31.65 6.25 -34.5 6.0 -35.95 6.15 Q-37.5 6.35 -38.8 7.05 -40.2 7.8 -40.75 9.2 L-41.2 11.5 Q-41.2 14.0 -39.05 16.25 L-42.8 14.1 -44.05 12.8 -44.65 11.5 Q-45.45 9.4 -44.6 6.95 L-44.3 6.1 Q-43.35 3.9 -41.25 3.05 L-41.35 3.45 -41.55 4.95 -41.35 5.75 Q-41.15 6.1 -40.15 6.1 L-38.1 5.75 Q-37.05 5.35 -37.05 4.95 -37.05 4.55 -37.85 4.0 L-39.95 2.9 -40.4 2.75 M-11.6 19.4 L-10.75 11.8 -3.85 12.1 Q-1.45 14.45 -1.25 18.8 -1.15 22.55 -2.05 26.3 L-2.3 27.05 Q0.55 27.0 1.4 30.25 2.65 34.85 -1.0 36.5 -3.85 37.8 -7.55 37.8 -6.9 36.6 -6.6 34.85 -6.0 31.2 -7.6 28.7 -9.6 28.3 -10.5 26.5 -11.95 23.55 -11.6 19.4 M-39.3 23.75 Q-40.55 20.05 -38.85 16.65 -37.35 17.6 -35.7 18.15 -31.55 19.55 -32.05 23.05 -32.5 26.4 -31.45 29.35 -33.25 27.9 -35.35 27.35 -38.4 26.45 -39.3 23.75 M-23.25 16.3 L-23.55 15.1 Q-23.85 14.55 -24.5 14.25 L-26.1 14.0 -27.7 14.25 Q-28.35 14.55 -28.35 14.95 L-27.7 15.6 Q-27.05 15.9 -25.1 16.4 L-23.25 16.3 M-46.2 11.5 L-45.6 12.0 Q-44.0 13.3 -44.55 14.9 -45.85 18.75 -44.75 21.75 L-47.15 20.5 Q-50.55 18.65 -51.4 15.1 -51.85 13.15 -51.45 11.5 -51.05 9.8 -49.65 8.45 L-46.2 11.5" fill="#443422" fill-rule="evenodd" stroke="none"/>
    <path d="M-40.75 -0.95 L-41.65 -6.1 Q-42.1 -10.3 -39.4 -12.65 -36.5 -15.15 -32.85 -13.1 -29.3 -11.15 -26.05 -13.05 -22.75 -15.0 -18.9 -13.95 L-12.05 -12.0 -9.7 -11.75 Q-7.95 -11.95 -9.55 -14.1 -11.5 -16.7 -15.4 -17.65 L-22.3 -19.15 -29.95 -20.0 Q-33.85 -20.05 -37.4 -18.9 -40.9 -17.75 -42.85 -15.0 -44.95 -12.15 -45.8 -8.8 -46.75 -5.3 -47.2 -1.25 L-52.4 -1.5 Q-48.25 -29.65 -20.65 -21.25 L-9.95 -16.85 Q-7.3 -14.3 -8.0 -9.3 -9.6 -7.7 -11.45 -6.55 L-12.6 -5.9 -15.9 -5.7 Q-19.7 -5.8 -22.85 -7.35 -26.55 -9.1 -29.55 -8.7 -32.5 -8.35 -34.3 -6.75 -36.85 -4.5 -36.55 -0.75 L-40.75 -0.95" fill="#a8b38c" fill-rule="evenodd" stroke="none"/>
    <path d="M-40.75 -0.95 L-47.2 -1.25 Q-46.75 -5.3 -45.8 -8.8 -44.95 -12.15 -42.85 -15.0 -40.9 -17.75 -37.4 -18.9 -33.85 -20.05 -29.95 -20.0 L-22.3 -19.15 -15.4 -17.65 Q-11.5 -16.7 -9.55 -14.1 -7.95 -11.95 -9.7 -11.75 L-12.05 -12.0 -18.9 -13.95 Q-22.75 -15.0 -26.05 -13.05 -29.3 -11.15 -32.85 -13.1 -36.5 -15.15 -39.4 -12.65 -42.1 -10.3 -41.65 -6.1 L-40.75 -0.95" fill="#c6cdb4" fill-rule="evenodd" stroke="none"/>
    <path d="M-12.6 -5.9 Q-19.85 -2.35 -30.35 -6.25 -34.2 -5.15 -34.4 -0.65 L-36.5 -0.75 -36.55 -0.75 Q-36.85 -4.5 -34.3 -6.75 -32.5 -8.35 -29.55 -8.7 -26.55 -9.1 -22.85 -7.35 -19.7 -5.8 -15.9 -5.7 L-12.6 -5.9" fill="#899865" fill-rule="evenodd" stroke="none"/>
    <path d="M-52.4 -1.5 Q-48.25 -29.65 -20.65 -21.25 L-9.95 -16.85 Q-7.3 -14.3 -8.0 -9.3 -9.6 -7.7 -11.45 -6.55 M-12.6 -5.9 Q-19.85 -2.35 -30.35 -6.25 -34.2 -5.15 -34.4 -0.65" fill="none" stroke="#5f6150" stroke-linecap="round" stroke-linejoin="round" stroke-width="1.0"/>
    <path d="M-20.7 -13.65 L-19.6 -13.5 Q-18.8 -13.35 -18.2 -13.0 -17.2 -12.5 -17.25 -11.8 L-17.4 -11.4 -18.45 -10.7 -21.05 -10.35 Q-22.6 -10.45 -23.6 -10.95 -24.65 -11.5 -24.55 -12.2 -24.5 -12.9 -23.4 -13.3 L-20.7 -13.65" fill="url(#gradient0)" fill-rule="evenodd" stroke="none"/>
    <path d="M-45.55 -14.3 L-40.85 -13.95 Q-37.9 -13.6 -35.85 -12.45 -33.8 -11.35 -31.9 -9.35 L-29.95 -7.4 -32.0 -5.35 -34.2 -1.45 Q-36.1 -3.25 -38.65 -4.25 -41.1 -5.25 -43.95 -5.05 -46.8 -4.8 -48.9 -3.6 -51.35 -2.25 -52.75 -0.55 -53.5 -2.3 -52.55 -4.45 L-50.55 -9.25 Q-49.7 -11.55 -48.35 -13.85 L-45.55 -14.3 M-43.2 -11.25 L-45.05 -8.25 Q-46.25 -6.1 -45.2 -6.05 -44.15 -6.0 -42.55 -6.85 L-40.35 -8.25 Q-39.75 -8.8 -39.75 -9.6 -39.75 -10.4 -40.1 -12.3 -40.45 -14.2 -41.5 -13.15 L-43.2 -11.25" fill="#443422" fill-rule="evenodd" stroke="none"/>
    <path d="M-43.2 -11.25 L-41.5 -13.15 Q-40.45 -14.2 -40.1 -12.3 -39.75 -10.4 -39.75 -9.6 -39.75 -8.8 -40.35 -8.25 L-42.55 -6.85 Q-44.15 -6.0 -45.2 -6.05 -46.25 -6.1 -45.05 -8.25 L-43.2 -11.25" fill="#ab8458" fill-rule="evenodd" stroke="none"/>
  </g>
  <defs>
    <radialGradient cx="0" cy="0" gradientTransform="matrix(-2.0E-4, 0.0024, -0.0059, -5.0E-4, -20.75, -12.1)" gradientUnits="userSpaceOnUse" id="gradient0" r="819.2" spreadMethod="pad">
      <stop offset="0.0" stop-color="#ffffff"/>
      <stop offset="0.6705882352941176" stop-color="#000000"/>
    </radialGradient>
  </defs>
</svg>
