<?xml version="1.0" encoding="UTF-8" standalone="no"?>
<svg xmlns:xlink="http://www.w3.org/1999/xlink" height="75.8px" width="111.05px" xmlns="http://www.w3.org/2000/svg">
  <g transform="matrix(1.0, 0.0, 0.0, 1.0, 55.55, 37.85)">
    <path d="M-26.85 -19.95 L-28.1 -19.25 Q-36.4 -14.75 -40.7 -11.45 -45.0 -8.2 -46.1 -8.0 -47.2 -7.8 -47.45 -4.35 -47.75 -0.55 -45.55 1.85 L-41.05 6.15 -34.8 11.1 -30.4 14.45 Q-28.15 16.15 -24.55 17.1 L-16.0 18.65 -6.45 19.05 1.45 18.15 9.0 16.55 Q13.2 15.65 17.8 14.2 22.1 12.8 26.05 11.05 L32.45 8.2 33.75 7.6 Q37.95 5.45 40.7 2.45 43.8 -1.0 44.85 -5.05 45.9 -9.1 45.65 -12.65 45.35 -16.25 42.25 -18.65 L34.8 -24.3 33.75 -25.05 28.7 -28.2 Q24.95 -30.2 21.25 -31.8 16.35 -33.95 11.3 -35.2 9.05 -35.75 6.75 -35.25 -3.35 -33.1 -12.45 -27.45 -16.75 -24.8 -21.3 -22.95 L-26.95 -20.45 -25.8 -20.5 -26.2 -20.3 -26.85 -20.35 -28.3 -20.45 -28.4 -20.45 -1.4 -35.55 Q0.25 -36.35 2.05 -36.8 14.5 -39.8 33.75 -26.65 L36.05 -25.05 43.85 -19.3 46.05 -17.3 43.85 -19.3 36.05 -25.05 33.75 -26.65 Q14.5 -39.8 2.05 -36.8 0.05 -36.35 -1.8 -35.45 L-28.6 -20.45 -28.7 -20.4 -28.8 -20.4 -28.7 -20.45 -1.8 -35.5 Q1.2 -36.95 4.7 -37.3 16.45 -38.75 33.75 -27.0 L36.45 -25.15 Q41.0 -22.15 44.25 -19.4 47.05 -18.9 49.15 -17.85 L50.45 -15.6 49.95 -16.0 50.05 -15.55 Q48.4 -16.85 46.5 -17.7 L45.9 -18.0 46.45 -17.35 49.4 -13.55 Q51.2 -11.05 52.4 -8.05 L52.6 -7.55 Q53.5 -5.25 53.85 -2.75 L54.05 -0.4 54.05 -0.3 Q54.85 -2.8 55.05 -6.1 L55.05 -7.7 55.4 -7.1 55.2 -4.45 55.15 -4.05 55.15 -4.0 54.1 1.25 53.85 1.8 53.35 2.7 52.95 2.85 53.7 1.3 54.05 -0.4 53.7 1.3 52.95 2.85 52.9 2.95 51.6 3.45 45.1 6.8 39.1 10.0 33.75 13.15 32.65 13.9 Q29.5 16.15 26.2 17.05 L23.85 17.7 23.25 17.85 19.0 18.7 11.65 20.0 4.25 21.4 -2.95 22.9 Q-6.7 23.7 -10.65 23.0 L-17.7 21.55 Q-21.45 20.6 -24.7 19.05 -28.1 17.45 -31.75 16.3 -35.3 15.2 -38.35 12.65 L-43.65 8.15 -48.55 3.25 Q-50.7 0.85 -52.35 -2.15 L-51.8 -4.75 -51.55 -5.7 Q-50.8 -7.2 -49.7 -8.35 L-44.35 -11.8 -49.7 -8.35 Q-47.6 -10.75 -44.35 -11.8 L-43.7 -12.0 Q-42.9 -12.3 -41.95 -12.95 L-40.95 -13.5 -36.35 -16.3 -32.0 -18.75 -30.7 -19.4 -32.0 -18.75 -36.35 -16.3 -40.95 -13.5 -41.95 -12.95 -40.3 -14.2 -38.1 -15.85 Q-33.95 -18.55 -30.7 -19.4 L-30.0 -19.6 -26.9 -19.95 -26.85 -19.95 M52.0 -8.0 Q52.9 -3.05 47.95 0.95 40.55 6.8 33.75 11.35 L23.4 17.75 Q23.3 17.75 23.25 17.85 23.3 17.75 23.4 17.75 L33.75 11.35 Q40.55 6.8 47.95 0.95 52.9 -3.05 52.0 -8.0 51.25 -12.3 46.05 -17.3 L49.0 -13.5 Q50.8 -11.0 52.0 -8.0 M52.1 4.45 Q50.6 6.2 48.4 7.6 L50.85 5.65 52.1 4.45 M47.0 8.45 L35.3 15.7 37.25 14.4 37.65 14.1 35.0 15.7 38.85 12.9 Q41.1 11.1 44.6 9.5 L46.55 8.55 45.25 9.35 45.65 9.15 47.0 8.45 M-1.15 36.1 L-3.35 36.95 Q-2.4 36.7 -1.6 36.25 L-1.15 36.1 M19.7 -15.0 Q18.15 -12.55 15.9 -10.55 7.7 -3.15 -3.4 -2.4 -11.75 -1.95 -19.1 -5.3 -28.4 -5.9 -19.25 -15.1 L-15.05 -17.9 Q-12.6 -19.75 -9.7 -21.05 L-4.4 -23.0 3.15 -24.85 9.85 -25.25 Q14.7 -24.75 18.9 -22.85 22.5 -21.2 26.3 -19.75 29.9 -18.35 32.75 -16.15 L33.75 -15.3 Q35.8 -13.35 36.25 -10.85 L33.75 -8.9 23.75 -1.65 Q13.75 5.3 2.0 7.65 -8.9 9.95 -19.3 6.2 -22.55 5.1 -25.7 3.65 L-28.45 2.25 Q-26.4 0.0 -23.75 -0.7 -21.5 -1.25 -19.3 -0.7 -4.45 5.55 5.85 1.6 16.15 -2.35 19.4 -6.6 22.1 -10.25 20.9 -14.6 L21.15 -14.45 Q22.4 -17.65 18.3 -19.55 14.8 -21.15 11.15 -21.75 L3.5 -22.4 Q-0.1 -22.5 -3.5 -21.3 -6.8 -20.15 -8.6 -16.85 -10.35 -13.65 -10.55 -9.85 L-10.65 -9.45 Q-9.6 -6.7 -5.75 -6.65 L-5.15 -6.65 -5.75 -6.65 Q-9.6 -6.7 -10.65 -9.45 L-10.55 -9.85 Q-10.1 -12.05 -8.95 -13.65 L-8.7 -14.0 -8.95 -13.65 Q-9.95 -12.25 -10.1 -11.1 L-10.05 -10.1 Q-9.8 -8.8 -8.2 -7.8 -6.9 -7.0 -5.35 -6.7 L-5.15 -6.65 -1.1 -6.85 Q2.7 -7.7 6.0 -9.3 6.95 -9.75 7.8 -10.4 L8.1 -10.7 11.15 -13.9 12.3 -15.3 10.8 -14.75 Q9.15 -17.25 1.3 -18.7 L1.7 -18.75 7.1 -19.15 Q11.0 -19.25 14.4 -18.0 16.85 -17.1 19.1 -15.75 L19.7 -15.0 19.1 -15.75 19.85 -15.3 19.7 -15.0 M11.0 -12.5 Q11.25 -13.25 11.15 -13.9 11.25 -13.25 11.0 -12.5 M9.75 -32.5 Q13.5 -31.6 16.95 -30.0 L23.65 -27.05 Q27.0 -25.6 30.3 -23.8 L33.75 -21.65 36.25 -19.85 Q39.15 -17.65 40.9 -13.7 42.65 -9.75 40.9 -6.75 39.1 -3.75 37.1 -0.9 35.65 1.1 33.75 2.6 L31.85 3.9 25.55 7.4 Q22.65 8.95 19.15 10.15 L12.35 12.35 5.5 14.15 -1.95 15.45 -9.3 16.45 -16.8 16.25 -23.95 14.45 Q-27.45 13.4 -30.3 11.1 -32.95 8.9 -37.15 3.95 -40.1 0.55 -40.7 -1.15 -41.15 -1.5 -41.9 -3.15 -43.5 -6.45 -16.0 -21.2 -22.1 -19.4 -21.5 -20.35 -18.95 -20.5 -16.55 -21.65 -13.25 -23.3 -10.5 -24.7 L-3.95 -28.35 2.55 -31.85 Q5.8 -33.45 9.75 -32.5 M-14.95 14.2 L2.35 13.35 Q13.5 11.55 24.55 5.55 30.45 2.35 33.75 -3.05 35.4 -5.8 36.45 -9.0 L36.9 -10.7 37.1 -11.55 36.95 -11.4 36.85 -11.35 36.95 -11.6 Q37.2 -12.8 36.9 -14.25 36.2 -17.55 33.75 -19.3 L32.6 -20.05 26.2 -23.5 Q22.9 -25.3 19.5 -26.7 15.95 -28.1 12.5 -28.8 8.65 -29.55 4.9 -28.85 1.35 -28.15 -2.1 -26.75 L-8.45 -23.9 Q-11.75 -22.3 -15.1 -20.8 -17.45 -19.8 -19.45 -18.35 -16.35 -19.55 -19.55 -17.5 -22.75 -15.45 -23.9 -13.25 -36.8 -8.6 -36.55 -1.7 -35.8 10.4 -19.3 13.65 L-15.35 14.3 -14.95 14.35 -14.95 14.2 M-15.35 14.3 L-15.35 14.4 -15.35 14.3 M11.0 -12.05 Q9.5 -11.3 8.1 -10.7 9.5 -11.3 11.0 -12.05 M9.25 -6.9 Q12.55 -8.3 15.05 -10.9 17.2 -13.2 14.85 -14.55 12.9 -11.05 9.85 -9.25 6.8 -7.45 3.35 -6.5 -0.15 -5.55 -4.0 -5.35 -8.05 -5.15 -11.4 -7.0 -15.2 -9.2 -13.15 -12.65 -11.8 -14.9 -11.3 -17.15 -11.0 -18.45 -12.6 -18.15 -15.5 -15.9 -17.05 -12.55 -19.0 -8.4 -15.65 -5.95 -12.8 -3.85 -8.9 -3.25 L-4.75 -3.05 Q-0.85 -3.25 2.45 -4.3 5.95 -5.4 9.25 -6.9 M26.75 -12.3 Q27.2 -17.25 23.7 -17.05 23.65 -13.2 22.5 -9.5 21.45 -6.1 19.05 -3.6 16.65 -1.2 13.35 0.25 9.9 1.8 6.65 2.35 L-0.55 3.65 Q-4.1 4.35 -7.95 3.5 L-15.0 1.65 Q-18.15 0.65 -21.65 0.5 -26.1 0.3 -22.3 2.65 -19.25 4.55 -15.7 5.1 L-8.3 6.35 Q-4.5 6.95 -0.7 6.45 L6.4 5.0 Q9.75 4.05 12.95 2.5 L19.25 -0.75 Q22.45 -2.55 24.4 -5.45 26.4 -8.5 26.75 -12.3 M36.55 -11.35 L36.45 -11.3 36.55 -11.55 36.55 -11.35 M43.85 -19.3 L46.75 -18.35 49.85 -16.4 49.95 -16.0 49.85 -16.4 46.75 -18.35 43.85 -19.3 M-50.5 -7.85 L-51.95 -5.6 -52.2 -4.7 -51.95 -5.65 -50.5 -7.85 M-51.05 6.4 L-51.0 6.25 -48.35 9.7 -47.55 10.65 Q-44.95 13.55 -41.65 15.1 L-40.45 15.65 -35.5 18.4 -35.4 18.45 Q-32.4 20.3 -29.2 21.6 L-27.45 22.3 -24.8 23.25 -21.0 24.5 -12.8 26.6 -4.75 27.65 -4.75 27.7 -4.75 27.75 -5.75 29.05 Q-8.25 31.35 -12.4 31.45 -16.3 31.55 -19.75 30.1 L-26.35 27.35 -33.0 24.35 Q-36.45 22.65 -39.8 20.75 L-46.0 17.1 Q-48.75 15.4 -50.4 12.95 -52.5 9.8 -51.05 6.4 -50.0 8.15 -48.35 9.7 -50.0 8.15 -51.05 6.4 M-25.15 -15.55 L-25.1 -15.55 -25.95 -15.05 -25.15 -15.55 M-23.8 -16.2 L-23.8 -16.1 Q-23.35 -16.6 -24.8 -15.75 L-24.9 -15.65 -23.8 -16.2 M-8.15 -14.5 L-8.2 -14.6 -7.35 -15.4 -8.15 -14.5 M-10.55 -9.85 L-10.45 -10.05 -10.1 -11.1 -10.45 -10.05 -10.55 -9.85 M-27.45 22.3 L-25.2 23.3 -21.7 24.85 Q-14.4 28.5 -5.15 27.75 L-4.75 27.75 -5.15 27.75 Q-14.4 28.5 -21.7 24.85 L-25.2 23.3 -27.45 22.3 M-15.05 35.9 L-17.8 35.0 -15.4 35.95 Q-19.9 34.6 -25.45 32.0 L-27.65 30.95 -27.1 31.1 -26.15 31.4 -27.25 30.9 -26.7 31.05 -23.95 32.0 Q-21.7 32.85 -19.4 34.0 L-15.05 35.9 M-9.25 37.2 L-6.35 37.1 -5.5 37.0 -5.1 36.95 -1.55 36.15 -1.85 36.3 -1.6 36.25 Q-2.4 36.7 -3.35 36.95 L-5.0 37.25 Q-7.05 37.55 -9.65 37.25 L-8.7 37.25 -9.25 37.2 M48.0 7.65 L50.45 5.7 51.75 4.45 Q50.25 6.25 48.0 7.65 M45.65 9.15 L37.25 14.4 45.65 9.15" fill="#a8b38c" fill-rule="evenodd" stroke="none"/>
    <path d="M-26.2 -20.3 L-25.8 -20.5 -26.95 -20.45 -21.3 -22.95 Q-16.75 -24.8 -12.45 -27.45 -3.35 -33.1 6.75 -35.25 9.05 -35.75 11.3 -35.2 16.35 -33.95 21.25 -31.8 24.95 -30.2 28.7 -28.2 L33.75 -25.05 34.8 -24.3 42.25 -18.65 Q45.35 -16.25 45.65 -12.65 45.9 -9.1 44.85 -5.05 43.8 -1.0 40.7 2.45 37.95 5.45 33.75 7.6 L32.45 8.2 26.05 11.05 Q22.1 12.8 17.8 14.2 13.2 15.65 9.0 16.55 L1.45 18.15 -6.45 19.05 -16.0 18.65 -24.55 17.1 Q-28.15 16.15 -30.4 14.45 L-34.8 11.1 -41.05 6.15 -45.55 1.85 Q-47.75 -0.55 -47.45 -4.35 -47.2 -7.8 -46.1 -8.0 -45.0 -8.2 -40.7 -11.45 -36.4 -14.75 -28.1 -19.25 L-26.85 -19.95 -23.7 -20.85 -26.2 -20.3 M9.75 -32.5 Q5.8 -33.45 2.55 -31.85 L-3.95 -28.35 -10.5 -24.7 Q-13.25 -23.3 -16.55 -21.65 -18.95 -20.5 -21.5 -20.35 -22.1 -19.4 -16.0 -21.2 -43.5 -6.45 -41.9 -3.15 -41.15 -1.5 -40.7 -1.15 -40.1 0.55 -37.15 3.95 -32.95 8.9 -30.3 11.1 -27.45 13.4 -23.95 14.45 L-16.8 16.25 -9.3 16.45 -1.95 15.45 5.5 14.15 12.35 12.35 19.15 10.15 Q22.65 8.95 25.55 7.4 L31.85 3.9 33.75 2.6 Q35.65 1.1 37.1 -0.9 39.1 -3.75 40.9 -6.75 42.65 -9.75 40.9 -13.7 39.15 -17.65 36.25 -19.85 L33.75 -21.65 30.3 -23.8 Q27.0 -25.6 23.65 -27.05 L16.95 -30.0 Q13.5 -31.6 9.75 -32.5 M9.25 -6.9 Q5.95 -5.4 2.45 -4.3 -0.85 -3.25 -4.75 -3.05 L-8.9 -3.25 Q-12.8 -3.85 -15.65 -5.95 -19.0 -8.4 -17.05 -12.55 -15.5 -15.9 -12.6 -18.15 -11.0 -18.45 -11.3 -17.15 -11.8 -14.9 -13.15 -12.65 -15.2 -9.2 -11.4 -7.0 -8.05 -5.15 -4.0 -5.35 -0.15 -5.55 3.35 -6.5 6.8 -7.45 9.85 -9.25 12.9 -11.05 14.85 -14.55 17.2 -13.2 15.05 -10.9 12.55 -8.3 9.25 -6.9 M26.75 -12.3 Q26.4 -8.5 24.4 -5.45 22.45 -2.55 19.25 -0.75 L12.95 2.5 Q9.75 4.05 6.4 5.0 L-0.7 6.45 Q-4.5 6.95 -8.3 6.35 L-15.7 5.1 Q-19.25 4.55 -22.3 2.65 -26.1 0.3 -21.65 0.5 -18.15 0.65 -15.0 1.65 L-7.95 3.5 Q-4.1 4.35 -0.55 3.65 L6.65 2.35 Q9.9 1.8 13.35 0.25 16.65 -1.2 19.05 -3.6 21.45 -6.1 22.5 -9.5 23.65 -13.2 23.7 -17.05 27.2 -17.25 26.75 -12.3" fill="#c6cdb4" fill-rule="evenodd" stroke="none"/>
    <path d="M-26.85 -19.95 L-26.9 -19.95 -30.0 -19.6 -30.2 -19.55 -30.4 -19.55 -30.6 -19.5 -30.95 -19.5 -29.55 -20.2 -29.2 -20.4 -28.9 -20.4 -28.8 -20.45 -28.7 -20.45 -28.8 -20.4 -28.7 -20.4 -28.6 -20.45 -28.4 -20.45 -28.3 -20.45 -26.85 -20.35 -26.2 -20.3 -23.7 -20.85 -26.85 -19.95 M-52.35 -2.15 Q-50.7 0.85 -48.55 3.25 L-43.65 8.15 -38.35 12.65 Q-35.3 15.2 -31.75 16.3 -28.1 17.45 -24.7 19.05 -21.45 20.6 -17.7 21.55 L-10.65 23.0 Q-6.7 23.7 -2.95 22.9 L4.25 21.4 11.65 20.0 19.0 18.7 23.25 17.85 Q7.5 26.6 -4.75 27.75 7.5 26.6 23.25 17.85 L23.85 17.7 26.2 17.05 Q29.5 16.15 32.65 13.9 L33.75 13.15 39.1 10.0 45.1 6.8 51.6 3.45 52.9 2.95 52.95 2.85 53.35 2.7 53.6 2.6 53.5 2.7 53.85 2.6 54.0 2.55 53.85 2.7 52.35 4.2 52.1 4.45 50.85 5.65 48.4 7.6 47.0 8.45 45.65 9.15 45.25 9.35 46.55 8.55 44.6 9.5 Q41.1 11.1 38.85 12.9 L35.0 15.7 37.65 14.1 37.25 14.4 34.0 16.35 33.75 16.5 Q20.65 24.3 6.2 32.0 L-0.65 35.6 -1.35 36.1 -1.6 36.25 -1.35 36.1 -0.65 35.6 6.2 32.0 Q20.65 24.3 33.75 16.5 L34.0 16.35 37.25 14.4 35.3 15.7 34.2 16.4 33.75 16.7 32.65 17.4 24.85 22.3 17.75 26.65 Q14.6 28.6 11.15 30.15 9.2 31.05 7.35 32.0 5.3 33.0 3.35 34.15 1.3 35.3 -0.95 36.05 L-1.15 36.1 -1.6 36.25 -1.85 36.3 -1.55 36.15 -5.1 36.95 -5.5 37.0 -6.35 37.1 -9.25 37.2 -9.9 37.15 -12.7 36.7 -14.2 36.2 -15.05 35.9 -19.4 34.0 Q-21.7 32.85 -23.95 32.0 L-26.7 31.05 -27.25 30.9 Q-27.45 30.8 -27.6 30.75 L-29.05 30.3 -27.95 30.85 -34.45 28.4 Q-38.2 26.8 -41.2 24.45 -43.55 22.65 -46.6 20.9 -49.55 19.2 -52.2 17.1 -55.05 14.8 -55.35 11.25 -55.7 7.8 -53.8 5.55 -52.75 4.3 -52.5 2.75 L-52.3 3.55 Q-53.75 5.4 -54.4 7.2 L-54.8 8.4 -54.4 7.2 -53.4 5.5 Q-52.65 4.6 -52.3 3.55 L-52.1 2.7 -52.15 2.6 -52.15 2.5 -52.4 0.9 -52.45 -0.3 -52.5 -0.4 -52.75 -1.85 -52.75 -2.1 -52.75 -1.85 -52.85 -0.25 -52.9 -0.35 Q-53.4 -1.85 -53.0 -2.55 L-52.75 -2.1 -52.7 -2.4 -52.6 -2.6 -52.35 -2.15 M-10.2 37.2 L-13.1 36.75 -14.75 36.2 -10.2 37.2 M-10.55 -9.85 Q-10.35 -13.65 -8.6 -16.85 -6.8 -20.15 -3.5 -21.3 -0.1 -22.5 3.5 -22.4 L11.15 -21.75 Q14.8 -21.15 18.3 -19.55 22.4 -17.65 21.15 -14.45 L20.9 -14.6 Q22.1 -10.25 19.4 -6.6 16.15 -2.35 5.85 1.6 -4.45 5.55 -19.3 -0.7 -21.5 -1.25 -23.75 -0.7 -26.4 0.0 -28.45 2.25 L-25.7 3.65 Q-22.55 5.1 -19.3 6.2 -8.9 9.95 2.0 7.65 13.75 5.3 23.75 -1.65 L33.75 -8.9 36.25 -10.85 Q35.8 -13.35 33.75 -15.3 L32.75 -16.15 Q29.9 -18.35 26.3 -19.75 22.5 -21.2 18.9 -22.85 14.7 -24.75 9.85 -25.25 L3.15 -24.85 -4.4 -23.0 -9.7 -21.05 Q-12.6 -19.75 -15.05 -17.9 L-19.25 -15.1 Q-28.4 -5.9 -19.1 -5.3 -11.75 -1.95 -3.4 -2.4 7.7 -3.15 15.9 -10.55 18.15 -12.55 19.7 -15.0 L19.85 -15.3 19.1 -15.75 Q16.85 -17.1 14.4 -18.0 11.0 -19.25 7.1 -19.15 L1.7 -18.75 1.3 -18.7 1.1 -18.75 11.0 -19.15 Q16.9 -18.15 19.1 -15.75 16.9 -18.15 11.0 -19.15 L1.1 -18.75 1.3 -18.7 -0.3 -18.45 Q-3.3 -17.95 -5.7 -16.5 L-6.9 -15.75 -7.35 -15.4 -8.2 -14.6 -8.15 -14.5 -8.45 -14.1 Q-9.45 -12.8 -10.1 -11.1 -9.95 -12.25 -8.95 -13.65 L-8.7 -14.0 -8.95 -13.65 Q-10.1 -12.05 -10.55 -9.85 M10.8 -14.75 L12.3 -15.3 11.15 -13.9 10.8 -14.75 M-15.35 14.3 L-19.3 13.65 Q-35.8 10.4 -36.55 -1.7 -36.8 -8.6 -23.9 -13.25 -22.75 -15.45 -19.55 -17.5 -16.35 -19.55 -19.45 -18.35 -17.45 -19.8 -15.1 -20.8 -11.75 -22.3 -8.45 -23.9 L-2.1 -26.75 Q1.35 -28.15 4.9 -28.85 8.65 -29.55 12.5 -28.8 15.95 -28.1 19.5 -26.7 22.9 -25.3 26.2 -23.5 L32.6 -20.05 33.75 -19.3 Q36.2 -17.55 36.9 -14.25 37.2 -12.8 36.95 -11.6 L36.85 -11.35 36.95 -11.4 37.1 -11.55 36.9 -10.7 36.45 -9.0 Q35.4 -5.8 33.75 -3.05 30.45 2.35 24.55 5.55 13.5 11.55 2.35 13.35 L-14.95 14.2 -14.95 14.35 -15.35 14.3 M-5.15 -6.65 Q-0.6 -6.85 7.4 -10.35 L8.1 -10.7 7.8 -10.4 Q6.95 -9.75 6.0 -9.3 2.7 -7.7 -1.1 -6.85 L-5.15 -6.65 M33.25 -16.35 L33.75 -15.95 Q36.35 -13.9 36.55 -11.55 36.35 -13.9 33.75 -15.95 L33.25 -16.35 M36.55 -11.55 L36.45 -11.3 36.55 -11.35 36.55 -11.55 M-27.25 -9.9 Q-28.95 -6.15 -25.45 -3.55 -1.9 7.05 16.9 -5.35 21.85 -11.45 19.7 -15.0 21.85 -11.45 16.9 -5.35 -1.9 7.05 -25.45 -3.55 -28.95 -6.15 -27.25 -9.9 M-34.3 1.6 Q-26.25 13.45 2.55 11.2 22.85 4.95 33.75 -5.95 L34.95 -7.2 36.05 -8.95 36.5 -10.65 36.55 -11.35 36.5 -10.65 36.05 -8.95 34.95 -7.2 33.75 -5.95 Q22.85 4.95 2.55 11.2 -26.25 13.45 -34.3 1.6 M-51.05 6.4 L-52.3 3.55 -51.05 6.4 Q-52.5 9.8 -50.4 12.95 -48.75 15.4 -46.0 17.1 L-39.8 20.75 Q-36.45 22.65 -33.0 24.35 L-26.35 27.35 -19.75 30.1 Q-16.3 31.55 -12.4 31.45 -8.25 31.35 -5.75 29.05 L-4.75 27.75 -4.75 27.7 -4.75 27.65 -12.8 26.6 -21.0 24.5 -24.8 23.25 -27.45 22.3 -35.4 18.45 -27.45 22.3 -29.2 21.6 Q-32.4 20.3 -35.4 18.45 L-35.5 18.4 -40.45 15.65 Q-45.05 12.95 -47.05 10.85 L-48.35 9.7 -47.05 10.85 Q-45.05 12.95 -40.45 15.65 L-41.65 15.1 Q-44.95 13.55 -47.55 10.65 L-48.35 9.7 -51.0 6.25 -51.05 6.4 M-28.7 -20.4 L-29.55 -20.2 -28.7 -20.4 M-25.15 -15.55 L-25.95 -15.05 -25.1 -15.55 -25.15 -15.55 M-23.8 -16.2 L-24.9 -15.65 -24.8 -15.75 Q-23.35 -16.6 -23.8 -16.1 L-23.8 -16.2 M-34.05 1.35 Q-34.55 -5.25 -30.35 -8.2 -25.75 -11.4 -21.45 -13.7 7.9 -36.2 33.05 -16.5 7.9 -36.2 -21.45 -13.7 -25.75 -11.4 -30.35 -8.2 -34.55 -5.25 -34.05 1.35 M1.1 -18.75 Q-3.25 -18.55 -6.1 -16.45 L-7.35 -15.4 -6.1 -16.45 Q-3.25 -18.55 1.1 -18.75 M-54.75 12.35 Q-54.05 14.8 -51.5 16.95 -38.8 25.35 -29.05 30.3 -38.8 25.35 -51.5 16.95 -54.05 14.8 -54.75 12.35 L-54.95 11.2 Q-55.1 9.7 -54.8 8.4 -55.35 10.45 -54.75 12.35 M52.9 2.95 L51.95 4.25 Q50.15 6.5 47.2 8.15 L45.65 9.15 47.2 8.15 Q50.15 6.5 51.95 4.25 L52.9 2.95 M48.0 7.65 Q50.25 6.25 51.75 4.45 L50.45 5.7 48.0 7.65" fill="#899865" fill-rule="evenodd" stroke="none"/>
    <path d="M52.0 -8.0 Q50.8 -11.0 49.0 -13.5 L46.05 -17.3 Q51.25 -12.3 52.0 -8.0 M50.45 -15.6 L52.15 -14.05 53.2 -12.8 53.85 -11.75 54.5 -10.4 55.05 -7.7 55.05 -6.1 Q54.85 -2.8 54.05 -0.3 L54.05 -0.4 53.85 -2.75 Q53.5 -5.25 52.6 -7.55 L52.4 -8.05 Q51.2 -11.05 49.4 -13.55 L46.45 -17.35 45.9 -18.0 46.5 -17.7 Q48.4 -16.85 50.05 -15.55 L49.95 -16.0 50.45 -15.6 M-14.95 14.2 L-14.95 14.35 -14.95 14.2 M-15.35 14.3 L-15.35 14.4 -15.35 14.3 M53.2 -12.8 Q52.05 -14.25 50.05 -15.55 52.05 -14.25 53.2 -12.8 M54.5 -10.4 Q54.85 -9.1 54.65 -7.65 L55.0 -7.05 54.8 -4.4 54.75 -3.95 54.05 -0.4 54.75 -3.95 54.8 -4.4 55.0 -7.05 54.65 -7.65 Q54.85 -9.1 54.5 -10.4" fill="#97a477" fill-rule="evenodd" stroke="none"/>
    <path d="M-30.7 -19.4 L-32.0 -18.75 -36.35 -16.3 -40.95 -13.5 -41.95 -12.95 -44.1 -11.95 -44.35 -11.8 -49.7 -8.35 -50.5 -7.85 -51.95 -5.6 -52.2 -4.7 -52.7 -2.4 -52.75 -2.1 -52.75 -1.85 -52.85 -0.25 M23.25 17.85 Q23.3 17.75 23.4 17.75 L33.75 11.35 Q40.55 6.8 47.95 0.95 52.9 -3.05 52.0 -8.0 51.25 -12.3 46.05 -17.3 L43.85 -19.3 36.05 -25.05 33.75 -26.65 Q14.5 -39.8 2.05 -36.8 0.05 -36.35 -1.8 -35.45 L-28.6 -20.45 -28.7 -20.4 -29.55 -20.2 M53.2 -12.8 L53.85 -11.75 54.5 -10.4 Q54.85 -9.1 54.65 -7.65 L55.0 -7.05 54.8 -4.4 54.75 -3.95 54.05 -0.4 53.7 1.3 52.95 2.85 52.9 2.95 51.95 4.25 Q50.15 6.5 47.2 8.15 L45.65 9.15 37.25 14.4 34.0 16.35 33.75 16.5 Q20.65 24.3 6.2 32.0 L-0.65 35.6 -1.35 36.1 -1.6 36.25 Q-2.4 36.7 -3.35 36.95 L-10.2 37.2 -14.75 36.2 Q-19.5 34.85 -25.55 32.0 L-27.95 30.85 -29.05 30.3 Q-38.8 25.35 -51.5 16.95 -54.05 14.8 -54.75 12.35 -55.35 10.45 -54.8 8.4 L-54.4 7.2 Q-53.75 5.4 -52.3 3.55 L-52.5 2.75 -52.85 0.5 -52.85 0.15 M19.7 -15.0 L19.1 -15.75 Q16.9 -18.15 11.0 -19.15 L1.1 -18.75 1.3 -18.7 Q9.15 -17.25 10.8 -14.75 L11.15 -13.9 Q11.25 -13.25 11.0 -12.5 M8.1 -10.7 Q9.5 -11.3 11.0 -12.05 M8.1 -10.7 L7.4 -10.35 Q-0.6 -6.85 -5.15 -6.65 L-5.75 -6.65 Q-9.6 -6.7 -10.65 -9.45 L-10.55 -9.85 -10.45 -10.05 -10.1 -11.1 Q-9.45 -12.8 -8.45 -14.1 L-8.15 -14.5 -7.35 -15.4 -6.1 -16.45 Q-3.25 -18.55 1.1 -18.75 M36.55 -11.55 Q36.35 -13.9 33.75 -15.95 L33.25 -16.35 M36.55 -11.55 L36.55 -11.35 36.5 -10.65 36.05 -8.95 34.95 -7.2 33.75 -5.95 Q22.85 4.95 2.55 11.2 -26.25 13.45 -34.3 1.6 M19.7 -15.0 Q21.85 -11.45 16.9 -5.35 -1.9 7.05 -25.45 -3.55 -28.95 -6.15 -27.25 -9.9 M49.95 -16.0 L50.05 -15.55 Q52.05 -14.25 53.2 -12.8 M49.95 -16.0 L49.85 -16.4 46.75 -18.35 43.85 -19.3 M-30.7 -19.4 L-30.4 -19.55 M-52.3 3.55 L-51.05 6.4 Q-50.0 8.15 -48.35 9.7 L-47.05 10.85 Q-45.05 12.95 -40.45 15.65 L-35.5 18.4 -35.4 18.45 -27.45 22.3 -25.2 23.3 -21.7 24.85 Q-14.4 28.5 -5.15 27.75 L-4.75 27.75 Q7.5 26.6 23.25 17.85 M33.05 -16.5 Q7.9 -36.2 -21.45 -13.7 -25.75 -11.4 -30.35 -8.2 -34.55 -5.25 -34.05 1.35" fill="none" stroke="#5f6150" stroke-linecap="round" stroke-linejoin="round" stroke-width="1.0"/>
    <path d="M20.5 -29.0 L22.55 -29.05 Q23.25 -29.3 22.65 -30.1 L21.4 -31.3 20.0 -31.65 17.5 -31.7 Q15.85 -31.75 16.95 -30.85 L18.55 -29.6 Q19.15 -29.25 20.5 -29.0 M26.35 -31.0 Q24.2 -30.75 23.15 -29.0 21.3 -25.9 22.35 -23.2 L22.75 -22.35 22.35 -22.45 22.35 -22.55 21.15 -23.2 18.75 -24.25 17.75 -23.95 Q15.55 -25.4 15.65 -28.7 15.75 -32.55 19.15 -33.15 23.5 -33.9 26.35 -31.0 M5.7 -33.95 Q6.4 -34.55 5.3 -34.7 L3.4 -34.9 Q2.65 -34.9 2.1 -34.2 1.5 -33.55 1.5 -33.1 L2.3 -33.05 3.75 -33.4 4.7 -33.35 Q5.0 -33.35 5.7 -33.95 M7.55 -25.7 L8.0 -25.65 11.55 -25.3 Q10.75 -24.8 10.3 -24.05 L9.85 -23.2 Q8.7 -20.6 10.7 -17.9 8.15 -17.9 6.6 -20.15 5.45 -21.85 5.7 -23.2 5.9 -24.6 7.55 -25.7 L1.4 -24.9 1.4 -24.95 1.3 -24.95 Q2.15 -27.45 1.65 -30.2 1.0 -33.75 -1.7 -35.65 L1.0 -36.9 Q4.85 -38.35 9.05 -37.35 5.8 -35.7 5.7 -31.4 5.6 -27.8 8.0 -25.8 L7.55 -25.7 M20.15 -20.65 L19.75 -21.55 19.05 -22.35 18.05 -22.6 16.05 -22.45 15.65 -22.4 16.4 -23.2 17.75 -23.95 Q18.4 -23.5 19.3 -23.2 L19.65 -23.1 22.35 -22.45 Q22.1 -21.7 21.25 -21.3 L20.15 -20.65 M15.4 -22.0 L15.75 -21.8 17.15 -21.0 18.95 -20.4 19.7 -20.25 Q17.4 -18.3 18.95 -15.2 L16.95 -16.5 Q15.05 -17.5 14.9 -19.25 14.8 -20.9 15.4 -22.0 M16.15 -15.25 L16.0 -15.15 14.6 -13.8 13.95 -12.95 13.65 -11.85 Q13.55 -11.3 14.65 -11.85 L16.05 -12.65 16.4 -13.15 16.7 -14.8 16.75 -15.05 Q18.75 -14.2 19.35 -11.4 L19.3 -10.65 20.45 -12.5 Q22.35 -15.15 25.85 -16.25 29.5 -17.4 32.9 -15.6 35.3 -13.2 35.35 -10.3 35.4 -7.0 32.15 -5.4 L31.8 -5.25 31.8 -5.4 31.6 -6.5 Q30.4 -9.8 26.25 -10.5 22.05 -11.15 18.75 -9.5 L17.5 -8.65 Q14.65 -12.05 10.1 -11.8 L11.95 -14.2 Q12.9 -15.4 14.75 -15.45 L16.15 -15.25 M0.3 -22.8 L0.15 -23.05 -0.45 -23.35 -1.2 -23.45 -2.0 -23.35 -2.7 -23.0 Q-3.1 -22.8 -2.65 -22.65 L-1.05 -22.65 0.3 -22.8 M9.9 -24.0 L9.05 -24.65 8.05 -24.95 6.9 -24.65 Q6.15 -24.4 6.4 -24.15 L7.4 -23.85 Q8.15 -23.8 8.35 -23.4 L9.35 -23.3 Q10.2 -23.6 9.9 -24.0 M0.65 -23.25 Q-0.2 -20.65 1.25 -18.1 L-2.6 -18.2 Q-1.05 -21.7 -4.1 -23.25 L-4.45 -23.4 Q-1.7 -25.15 1.25 -24.95 L1.25 -24.9 1.4 -24.9 0.65 -23.25 M7.15 -8.25 L5.85 -7.85 5.0 -7.25 Q4.45 -6.9 4.95 -6.65 L6.35 -6.4 7.55 -6.65 8.5 -7.45 Q9.1 -8.05 8.6 -8.25 8.1 -8.45 7.15 -8.25 M7.15 -9.2 Q9.6 -8.35 9.9 -5.45 L9.9 -4.85 Q9.95 -2.0 8.2 -0.7 10.6 -0.3 11.5 3.3 L11.7 4.65 Q11.75 6.8 10.05 8.1 8.0 9.7 7.45 7.9 L6.3 4.75 4.6 1.05 4.7 0.4 4.4 0.45 Q6.75 -2.45 5.25 -5.45 L4.6 -6.55 2.5 -8.85 Q4.25 -10.05 5.9 -9.7 L7.15 -9.2 M19.9 -4.9 L19.05 -3.65 Q18.45 -2.8 18.85 -2.45 L20.05 -2.35 Q20.9 -2.6 21.15 -3.0 L21.9 -4.45 Q22.3 -5.55 22.1 -6.0 21.85 -6.45 21.05 -5.85 20.2 -5.3 19.9 -4.9 M14.75 -3.8 L15.8 -5.45 Q17.75 -7.7 21.05 -6.75 22.5 -6.35 23.4 -5.4 24.45 -4.4 24.75 -2.7 25.1 -0.95 24.3 0.15 22.5 2.55 19.35 4.25 19.85 2.45 19.55 0.8 18.7 -3.15 14.75 -3.8 M39.0 -23.15 L40.7 -21.7 Q36.1 -23.6 33.65 -19.8 L31.85 -16.65 29.3 -18.95 Q28.75 -21.4 29.4 -23.15 29.85 -24.55 31.05 -25.5 33.9 -27.8 37.2 -24.75 L39.0 -23.15 M25.05 -15.1 L24.35 -14.2 24.15 -12.85 24.35 -11.5 Q24.6 -10.95 24.9 -10.95 25.2 -10.95 25.4 -11.5 L25.9 -13.55 Q26.1 -15.1 25.8 -15.3 25.45 -15.5 25.05 -15.1 M33.8 -24.1 L32.15 -24.9 30.8 -24.95 Q30.75 -24.5 31.25 -23.8 L32.1 -22.85 Q32.45 -22.55 33.05 -22.5 L34.7 -22.3 Q35.75 -22.2 34.95 -23.0 L33.8 -24.1 M35.4 -8.2 Q36.2 -10.75 37.65 -12.7 40.1 -16.0 44.75 -15.15 47.95 -14.55 49.5 -12.3 L48.5 -14.55 Q52.75 -15.2 54.2 -11.55 55.4 -8.5 54.85 -5.35 L54.55 -4.2 Q52.9 -4.5 51.9 -5.35 L51.15 -6.15 51.1 -5.35 50.85 -4.05 Q49.85 -0.55 46.8 1.7 47.0 -0.75 46.5 -2.8 46.15 -4.25 45.35 -5.35 44.25 -6.95 42.3 -7.95 38.95 -9.7 35.4 -8.2 M27.25 -0.8 L29.1 -2.05 Q32.25 -3.6 35.15 -1.85 38.15 -0.05 38.7 4.3 L38.7 4.5 Q39.1 8.35 36.25 10.25 35.2 10.95 35.3 10.7 34.7 11.55 35.2 11.6 36.75 11.75 36.05 13.3 34.6 16.3 31.05 17.55 31.85 14.95 28.85 14.35 29.85 13.4 30.85 12.75 L31.3 11.65 Q32.25 8.25 31.1 4.4 L31.05 4.3 Q29.85 0.6 25.9 0.25 L27.25 -0.8 M42.95 -14.05 Q42.45 -14.05 42.1 -13.5 41.75 -12.9 41.75 -12.05 L41.75 -9.85 Q41.75 -8.5 42.8 -8.15 43.8 -7.8 44.2 -9.0 44.6 -10.2 44.4 -11.55 L43.8 -13.5 42.95 -14.05 M48.8 4.5 Q49.05 8.6 45.15 9.1 46.15 5.65 42.35 4.85 L43.1 4.25 44.65 2.9 Q45.55 2.1 46.9 2.35 48.55 2.6 48.8 4.15 L48.8 4.5 M21.85 11.65 Q22.95 10.65 21.95 10.55 L19.9 10.7 Q18.8 10.95 18.4 11.3 L17.25 12.25 Q16.5 12.8 16.6 13.2 16.7 13.6 18.3 13.5 19.9 13.35 20.3 13.0 L21.85 11.65 M36.85 3.05 Q37.35 2.0 37.3 1.05 37.2 0.1 35.45 1.05 33.7 1.95 33.1 2.6 32.5 3.2 31.95 4.4 31.4 5.65 32.55 5.7 33.7 5.75 34.85 4.6 36.0 3.4 36.2 3.75 36.35 4.1 36.85 3.05 M21.7 8.0 Q23.35 11.5 22.4 15.1 21.75 17.6 20.05 19.3 L19.6 19.2 19.7 19.6 19.95 19.35 20.05 19.3 Q24.2 20.2 21.05 23.65 19.15 25.75 16.4 26.6 19.5 23.6 16.2 21.75 L16.55 21.6 15.8 21.55 16.2 21.75 14.5 22.15 15.45 20.3 Q16.95 17.1 16.05 13.05 15.1 9.05 11.15 8.25 13.4 7.9 15.25 6.6 19.6 3.45 21.7 8.0 M2.35 15.0 Q1.7 15.0 1.0 15.4 0.3 15.75 0.05 16.25 -0.2 16.75 0.75 17.15 L2.35 17.5 4.4 17.0 Q5.8 16.5 5.35 16.05 4.9 15.6 3.95 15.3 L2.35 15.0 M10.2 2.7 Q10.7 2.2 10.6 1.9 L9.15 1.75 7.45 2.2 6.2 3.0 Q5.25 3.45 6.45 3.65 L8.3 3.8 9.3 3.45 10.2 2.7 M5.7 16.25 Q5.8 20.2 4.85 24.0 4.7 24.8 3.8 25.1 L2.35 25.65 4.4 25.45 Q8.85 25.45 8.05 29.7 7.85 30.7 7.2 31.25 4.2 33.95 0.6 35.05 L1.5 32.9 Q2.5 28.9 -0.6 26.65 L-0.55 26.55 -0.65 26.6 -2.15 27.0 -1.75 25.55 Q-0.4 22.3 -0.4 18.35 -0.35 14.45 -2.55 11.6 L2.0 11.5 Q5.6 11.7 5.7 16.25 M-42.85 -2.05 L-44.2 -3.6 Q-45.05 -4.65 -45.4 -3.15 -45.8 -1.65 -45.8 -0.75 -45.8 0.1 -45.3 0.65 -44.75 1.2 -42.9 1.85 -41.05 2.5 -41.55 1.35 L-42.2 -0.65 Q-42.3 -1.5 -42.85 -2.05 M-42.0 -4.2 Q-38.25 -3.6 -35.75 -1.2 -34.75 -0.25 -34.45 1.1 L-34.4 -0.15 Q-34.1 -3.2 -32.55 -5.5 L-31.75 -6.6 Q-30.45 -8.15 -28.3 -8.85 -28.45 -6.9 -27.85 -5.5 -27.3 -4.25 -26.1 -3.5 -25.7 -3.25 -26.75 -3.3 -29.15 -3.5 -31.3 -0.55 L-33.7 2.25 Q-34.2 2.75 -34.35 2.15 L-34.4 2.55 Q-37.7 0.15 -41.4 1.95 -45.1 3.75 -46.4 7.2 L-46.7 7.9 Q-47.35 9.1 -48.5 9.85 L-50.05 7.9 -50.2 7.65 -50.25 7.85 -50.25 7.9 -50.35 8.25 -51.2 10.45 Q-52.45 13.8 -51.95 16.9 -54.25 14.75 -54.8 11.2 -55.15 9.15 -54.7 7.8 -54.25 6.3 -52.35 4.8 L-52.6 4.45 Q-53.15 3.7 -53.0 2.95 -51.35 -0.2 -48.5 -2.65 -45.9 -4.85 -42.0 -4.2 M-10.4 -27.95 Q-11.25 -27.85 -11.65 -27.45 L-12.65 -26.35 Q-13.2 -25.65 -12.2 -25.45 L-10.8 -25.25 Q-10.35 -25.25 -10.05 -25.65 L-8.8 -26.8 Q-7.9 -27.65 -8.7 -27.85 L-10.4 -27.95 M-9.25 -19.4 Q-8.55 -18.85 -7.95 -17.65 -6.45 -14.55 -9.55 -12.45 L-10.65 -13.75 Q-12.45 -16.95 -16.7 -16.85 L-12.6 -19.35 -11.95 -19.7 -12.6 -19.45 -13.55 -19.2 Q-11.85 -21.1 -12.25 -23.25 -12.5 -24.4 -13.25 -25.55 -14.5 -27.45 -16.7 -27.4 -14.15 -29.2 -12.05 -30.15 -7.8 -30.1 -7.4 -25.95 -7.25 -24.45 -7.6 -23.25 -8.3 -21.2 -10.6 -20.2 L-11.5 -19.85 Q-10.3 -20.2 -9.35 -19.5 L-10.3 -19.15 -12.95 -17.85 Q-13.95 -17.4 -13.5 -17.05 -13.05 -16.7 -12.6 -16.7 L-11.5 -16.9 Q-10.9 -17.1 -10.65 -17.25 -10.4 -17.4 -10.4 -17.65 L-9.55 -18.9 -9.25 -19.4 M-22.8 -23.3 Q-19.6 -22.7 -19.5 -18.95 -19.45 -14.75 -22.8 -13.35 -21.65 -16.2 -23.9 -19.15 -25.4 -21.1 -27.9 -21.3 -26.55 -22.5 -24.35 -23.3 L-24.1 -23.4 -22.8 -23.3 M-36.0 -13.9 Q-36.9 -12.8 -35.85 -12.9 L-34.1 -13.15 Q-33.4 -13.3 -33.05 -13.65 L-31.7 -14.5 Q-30.75 -15.0 -31.6 -15.35 L-33.4 -15.7 Q-34.4 -15.7 -34.75 -15.35 L-36.0 -13.9 M-23.3 -21.15 Q-23.7 -20.8 -23.7 -20.35 -23.7 -19.9 -23.3 -19.6 -22.85 -19.25 -22.25 -19.25 -21.65 -19.25 -21.25 -19.6 L-20.55 -20.4 Q-20.35 -20.95 -20.65 -21.3 -21.0 -21.7 -21.9 -21.55 L-23.3 -21.15 M-30.65 -14.55 Q-28.9 -11.35 -30.8 -8.3 -31.65 -6.95 -32.75 -5.9 -32.55 -9.7 -35.25 -11.8 -37.75 -13.8 -41.8 -13.7 -39.45 -15.35 -36.95 -16.45 -32.3 -17.65 -30.65 -14.55 M-23.7 -2.45 Q-24.65 -4.6 -23.6 -5.5 L-23.3 -5.75 Q-20.8 -7.7 -17.5 -9.0 -13.65 -10.5 -10.6 -8.4 -9.2 -8.15 -8.9 -7.15 -11.2 -6.8 -12.85 -5.45 L-12.9 -5.45 Q-15.6 -3.35 -15.0 -0.2 L-17.7 -0.9 Q-21.7 -1.65 -23.7 -2.45 M-6.65 -3.8 L-6.5 -3.75 -5.0 -3.5 -3.4 -3.75 Q-2.8 -4.0 -2.65 -4.35 -2.45 -4.7 -3.2 -4.95 L-4.45 -5.2 -5.25 -4.95 -6.3 -4.35 -6.35 -4.3 -5.25 -5.45 -4.5 -6.0 -2.55 -6.75 -2.45 -5.45 Q-2.4 -2.3 -4.1 0.1 -4.95 1.35 -6.8 0.55 -7.35 0.3 -7.4 -0.6 -7.45 -2.45 -6.65 -3.8 M-12.8 -7.55 L-13.45 -8.5 Q-13.85 -8.8 -14.75 -8.9 L-16.35 -8.8 Q-17.1 -8.6 -16.5 -7.9 L-15.5 -6.95 Q-15.05 -6.6 -13.75 -6.15 -12.45 -5.75 -12.5 -6.35 L-12.8 -7.55 M-4.0 4.9 Q-3.9 6.5 -3.15 7.95 -0.95 12.35 -5.8 10.6 -8.2 9.75 -7.45 7.25 L-6.45 4.95 Q-5.4 2.9 -3.4 0.85 -4.15 2.95 -4.0 4.9 M-4.3 5.35 Q-4.3 4.9 -4.55 4.85 L-5.2 4.6 -5.8 4.7 Q-6.1 4.9 -6.1 5.35 L-5.8 5.8 -5.2 6.15 -4.6 6.1 Q-4.3 5.8 -4.3 5.35 M-18.7 2.55 L-15.7 1.1 -13.75 0.45 Q-14.15 2.6 -14.95 4.65 L-15.3 5.7 Q-16.2 8.9 -14.55 11.2 L-15.2 11.2 -15.4 11.15 -16.8 10.8 -22.1 9.35 Q-22.6 7.85 -22.35 6.6 -22.0 4.7 -20.1 3.4 L-19.3 2.9 -19.15 3.05 -17.85 3.8 -16.5 4.1 -15.5 3.85 Q-15.1 3.6 -15.1 3.25 -15.1 2.9 -15.5 2.65 L-16.5 2.4 -18.4 2.5 -18.7 2.55 M-13.75 17.65 Q-14.1 19.7 -13.75 21.95 -13.25 24.9 -10.3 28.65 L-10.15 28.7 Q-10.35 27.85 -9.45 28.8 -7.1 31.5 -8.1 35.5 L-8.15 35.65 Q-8.4 36.7 -9.35 36.8 -12.25 37.2 -13.95 35.5 L-15.1 33.9 Q-16.8 30.65 -15.6 27.7 L-16.95 27.35 Q-20.9 26.25 -21.55 22.8 -22.25 18.95 -20.55 15.6 -18.9 12.25 -15.45 11.2 L-15.2 11.2 -14.4 11.4 -14.55 11.2 Q-11.25 11.3 -12.65 14.05 -13.45 15.7 -13.75 17.45 L-14.45 17.1 Q-16.0 16.4 -17.0 16.35 L-19.4 16.55 Q-20.8 16.8 -20.6 17.15 -20.4 17.5 -19.2 17.8 L-17.15 18.05 -15.75 17.75 -14.05 17.65 -13.75 17.65 M-28.95 7.2 Q-27.15 7.65 -25.55 9.15 -29.7 10.1 -31.25 14.0 -32.7 17.45 -30.85 20.6 L-31.35 20.95 -35.05 19.45 Q-37.8 18.3 -38.65 15.9 L-39.05 13.75 Q-39.2 9.6 -36.1 8.05 L-35.05 7.6 Q-32.15 6.5 -28.95 7.2 M-35.75 8.45 Q-36.65 8.4 -36.15 9.6 -35.65 10.8 -35.1 11.15 L-32.4 12.1 Q-30.35 12.65 -30.95 11.75 -31.6 10.8 -31.6 10.25 -31.65 9.7 -32.25 9.3 -32.8 8.95 -33.85 8.7 L-35.75 8.45 M-31.45 21.65 Q-30.65 20.95 -30.85 20.6 -30.25 20.3 -29.3 21.0 L-26.0 23.45 Q-27.95 27.05 -25.9 30.5 L-24.7 32.7 -31.15 28.75 -31.85 27.8 Q-33.2 24.65 -31.7 21.5 L-31.35 20.95 Q-30.9 21.1 -31.45 21.65 M-12.1 27.8 L-12.05 27.9 -11.9 27.9 -12.1 27.8 M-51.2 6.35 L-50.2 7.65 Q-50.2 6.9 -51.05 6.45 L-51.2 6.35 M-41.85 15.1 L-40.25 15.65 Q-43.0 18.4 -41.2 22.3 L-40.35 24.3 Q-44.6 23.15 -44.95 19.0 -45.3 13.95 -41.85 15.1 M-44.1 16.9 L-44.15 16.8 Q-44.15 17.25 -44.1 16.95 L-44.1 16.9" fill="#443422" fill-rule="evenodd" stroke="none"/>
    <path d="M20.5 -29.0 Q19.15 -29.25 18.55 -29.6 L16.95 -30.85 Q15.85 -31.75 17.5 -31.7 L20.0 -31.65 21.4 -31.3 22.65 -30.1 Q23.25 -29.3 22.55 -29.05 L20.5 -29.0 M5.7 -33.95 Q5.0 -33.35 4.7 -33.35 L3.75 -33.4 2.3 -33.05 1.5 -33.1 Q1.5 -33.55 2.1 -34.2 2.65 -34.9 3.4 -34.9 L5.3 -34.7 Q6.4 -34.55 5.7 -33.95 M15.65 -22.4 L16.05 -22.45 18.05 -22.6 19.05 -22.35 19.75 -21.55 20.15 -20.65 20.15 -20.55 Q20.25 -20.25 19.7 -20.25 L18.95 -20.4 17.15 -21.0 15.75 -21.8 15.4 -22.0 Q15.05 -22.3 15.65 -22.4 M16.75 -15.05 L16.7 -14.8 16.4 -13.15 16.05 -12.65 14.65 -11.85 Q13.55 -11.3 13.65 -11.85 L13.95 -12.95 14.6 -13.8 16.0 -15.15 16.15 -15.25 Q16.9 -15.95 16.75 -15.05 M9.9 -24.0 Q10.2 -23.6 9.35 -23.3 L8.35 -23.4 Q8.15 -23.8 7.4 -23.85 L6.4 -24.15 Q6.15 -24.4 6.9 -24.65 L8.05 -24.95 9.05 -24.65 9.9 -24.0 M0.3 -22.8 L-1.05 -22.65 -2.65 -22.65 Q-3.1 -22.8 -2.7 -23.0 L-2.0 -23.35 -1.2 -23.45 -0.45 -23.35 0.15 -23.05 0.3 -22.8 M7.15 -8.25 Q8.1 -8.45 8.6 -8.25 9.1 -8.05 8.5 -7.45 L7.55 -6.65 6.35 -6.4 4.95 -6.65 Q4.45 -6.9 5.0 -7.25 L5.85 -7.85 7.15 -8.25 M19.9 -4.9 Q20.2 -5.3 21.05 -5.85 21.85 -6.45 22.1 -6.0 22.3 -5.55 21.9 -4.45 L21.15 -3.0 Q20.9 -2.6 20.05 -2.35 L18.85 -2.45 Q18.45 -2.8 19.05 -3.65 L19.9 -4.9 M33.8 -24.1 L34.95 -23.0 Q35.75 -22.2 34.7 -22.3 L33.05 -22.5 Q32.45 -22.55 32.1 -22.85 L31.25 -23.8 Q30.75 -24.5 30.8 -24.95 L32.15 -24.9 33.8 -24.1 M25.05 -15.1 Q25.45 -15.5 25.8 -15.3 26.1 -15.1 25.9 -13.55 L25.4 -11.5 Q25.2 -10.95 24.9 -10.95 24.6 -10.95 24.35 -11.5 L24.15 -12.85 24.35 -14.2 25.05 -15.1 M42.95 -14.05 L43.8 -13.5 44.4 -11.55 Q44.6 -10.2 44.2 -9.0 43.8 -7.8 42.8 -8.15 41.75 -8.5 41.75 -9.85 L41.75 -12.05 Q41.75 -12.9 42.1 -13.5 42.45 -14.05 42.95 -14.05 M36.85 3.05 Q36.35 4.1 36.2 3.75 36.0 3.4 34.85 4.6 33.7 5.75 32.55 5.7 31.4 5.65 31.95 4.4 32.5 3.2 33.1 2.6 33.7 1.95 35.45 1.05 37.2 0.1 37.3 1.05 37.35 2.0 36.85 3.05 M21.85 11.65 L20.3 13.0 Q19.9 13.35 18.3 13.5 16.7 13.6 16.6 13.2 16.5 12.8 17.25 12.25 L18.4 11.3 Q18.8 10.95 19.9 10.7 L21.95 10.55 Q22.95 10.65 21.85 11.65 M10.2 2.7 L9.3 3.45 8.3 3.8 6.45 3.65 Q5.25 3.45 6.2 3.0 L7.45 2.2 9.15 1.75 10.6 1.9 Q10.7 2.2 10.2 2.7 M2.35 15.0 L3.95 15.3 Q4.9 15.6 5.35 16.05 5.8 16.5 4.4 17.0 L2.35 17.5 0.75 17.15 Q-0.2 16.75 0.05 16.25 0.3 15.75 1.0 15.4 1.7 15.0 2.35 15.0 M-42.85 -2.05 Q-42.3 -1.5 -42.2 -0.65 L-41.55 1.35 Q-41.05 2.5 -42.9 1.85 -44.75 1.2 -45.3 0.65 -45.8 0.1 -45.8 -0.75 -45.8 -1.65 -45.4 -3.15 -45.05 -4.65 -44.2 -3.6 L-42.85 -2.05 M-10.4 -27.95 L-8.7 -27.85 Q-7.9 -27.65 -8.8 -26.8 L-10.05 -25.65 Q-10.35 -25.25 -10.8 -25.25 L-12.2 -25.45 Q-13.2 -25.65 -12.65 -26.35 L-11.65 -27.45 Q-11.25 -27.85 -10.4 -27.95 M-9.35 -19.5 L-9.25 -19.4 -9.55 -18.9 -10.4 -17.65 Q-10.4 -17.4 -10.65 -17.25 -10.9 -17.1 -11.5 -16.9 L-12.6 -16.7 Q-13.05 -16.7 -13.5 -17.05 -13.95 -17.4 -12.95 -17.85 L-10.3 -19.15 -9.35 -19.5 M-23.3 -21.15 L-21.9 -21.55 Q-21.0 -21.7 -20.65 -21.3 -20.35 -20.95 -20.55 -20.4 L-21.25 -19.6 Q-21.65 -19.25 -22.25 -19.25 -22.85 -19.25 -23.3 -19.6 -23.7 -19.9 -23.7 -20.35 -23.7 -20.8 -23.3 -21.15 M-36.0 -13.9 L-34.75 -15.35 Q-34.4 -15.7 -33.4 -15.7 L-31.6 -15.35 Q-30.75 -15.0 -31.7 -14.5 L-33.05 -13.65 Q-33.4 -13.3 -34.1 -13.15 L-35.85 -12.9 Q-36.9 -12.8 -36.0 -13.9 M-12.8 -7.55 L-12.5 -6.35 Q-12.45 -5.75 -13.75 -6.15 -15.05 -6.6 -15.5 -6.95 L-16.5 -7.9 Q-17.1 -8.6 -16.35 -8.8 L-14.75 -8.9 Q-13.85 -8.8 -13.45 -8.5 L-12.8 -7.55 M-6.35 -4.3 L-6.3 -4.35 -5.25 -4.95 -4.45 -5.2 -3.2 -4.95 Q-2.45 -4.7 -2.65 -4.35 -2.8 -4.0 -3.4 -3.75 L-5.0 -3.5 -6.5 -3.75 -6.65 -3.8 -6.35 -4.3 M-4.3 5.35 Q-4.3 5.8 -4.6 6.1 L-5.2 6.15 -5.8 5.8 -6.1 5.35 Q-6.1 4.9 -5.8 4.7 L-5.2 4.6 -4.55 4.85 Q-4.3 4.9 -4.3 5.35 M-18.7 2.55 L-18.4 2.5 -16.5 2.4 -15.5 2.65 Q-15.1 2.9 -15.1 3.25 -15.1 3.6 -15.5 3.85 L-16.5 4.1 -17.85 3.8 -19.15 3.05 -19.3 2.9 -18.7 2.55 M-13.75 17.65 L-14.05 17.65 -15.75 17.75 -17.15 18.05 -19.2 17.8 Q-20.4 17.5 -20.6 17.15 -20.8 16.8 -19.4 16.55 L-17.0 16.35 Q-16.0 16.4 -14.45 17.1 L-13.75 17.45 -13.75 17.65 M-35.75 8.45 L-33.85 8.7 Q-32.8 8.95 -32.25 9.3 -31.65 9.7 -31.6 10.25 -31.6 10.8 -30.95 11.75 -30.35 12.65 -32.4 12.1 L-35.1 11.15 Q-35.65 10.8 -36.15 9.6 -36.65 8.4 -35.75 8.45" fill="#ab8458" fill-rule="evenodd" stroke="none"/>
    <path d="M-41.0 -0.95 Q-41.4 -3.55 -41.1 -6.25 -40.75 -9.9 -38.9 -12.2 -36.8 -14.85 -33.2 -15.8 -27.4 -17.35 -25.7 -12.65 L-22.7 -13.3 Q-18.7 -14.25 -15.8 -12.15 L-10.35 -7.95 Q-6.65 -5.05 -5.25 -8.4 -4.9 -9.2 -5.05 -9.95 -5.7 -13.05 -8.7 -15.6 -11.35 -17.85 -14.05 -19.7 L-20.0 -23.3 Q-23.05 -24.95 -26.7 -25.7 -30.6 -26.45 -33.9 -24.8 -37.3 -23.15 -39.75 -20.65 -42.15 -18.3 -43.95 -15.05 -45.7 -11.9 -46.5 -8.45 -47.35 -4.85 -46.25 -1.2 L-52.35 -1.5 Q-42.8 -27.1 -31.65 -28.15 -23.2 -29.25 -19.25 -25.2 -10.1 -20.6 -3.75 -11.35 -1.9 -8.8 -4.65 -3.8 L-5.6 -3.3 -8.85 -3.5 Q-12.8 -3.9 -16.05 -5.9 -17.1 -6.55 -18.55 -6.75 -22.85 -7.3 -24.7 -10.35 -26.7 -13.7 -30.55 -12.35 -33.65 -11.25 -35.45 -7.9 -37.05 -4.8 -37.2 -0.75 L-41.0 -0.95" fill="#a8b38c" fill-rule="evenodd" stroke="none"/>
    <path d="M-41.0 -0.95 L-46.25 -1.2 Q-47.35 -4.85 -46.5 -8.45 -45.7 -11.9 -43.95 -15.05 -42.15 -18.3 -39.75 -20.65 -37.3 -23.15 -33.9 -24.8 -30.6 -26.45 -26.7 -25.7 -23.05 -24.95 -20.0 -23.3 L-14.05 -19.7 Q-11.35 -17.85 -8.7 -15.6 -5.7 -13.05 -5.05 -9.95 -4.9 -9.2 -5.25 -8.4 -6.65 -5.05 -10.35 -7.95 L-15.8 -12.15 Q-18.7 -14.25 -22.7 -13.3 L-25.7 -12.65 Q-27.4 -17.35 -33.2 -15.8 -36.8 -14.85 -38.9 -12.2 -40.75 -9.9 -41.1 -6.25 -41.4 -3.55 -41.0 -0.95" fill="#c6cdb4" fill-rule="evenodd" stroke="none"/>
    <path d="M-5.6 -3.3 Q-12.7 -0.2 -23.7 -7.0 -24.5 -8.4 -26.35 -10.3 -31.95 -12.3 -34.5 -0.65 L-34.55 -0.65 -37.2 -0.75 Q-37.05 -4.8 -35.45 -7.9 -33.65 -11.25 -30.55 -12.35 -26.7 -13.7 -24.7 -10.35 -22.85 -7.3 -18.55 -6.75 -17.1 -6.55 -16.05 -5.9 -12.8 -3.9 -8.85 -3.5 L-5.6 -3.3" fill="#899865" fill-rule="evenodd" stroke="none"/>
    <path d="M-52.35 -1.5 Q-42.8 -27.1 -31.65 -28.15 -23.2 -29.25 -19.25 -25.2 -10.1 -20.6 -3.75 -11.35 -1.9 -8.8 -4.65 -3.8 L-5.6 -3.3 Q-12.7 -0.2 -23.7 -7.0 -24.5 -8.4 -26.35 -10.3 -31.95 -12.3 -34.5 -0.65 L-34.55 -0.65" fill="none" stroke="#5f6150" stroke-linecap="round" stroke-linejoin="round" stroke-width="1.0"/>
    <path d="M-19.95 -11.85 Q-19.55 -12.4 -18.4 -12.25 -17.2 -12.05 -15.9 -11.2 L-15.0 -10.55 -14.05 -9.4 Q-13.45 -8.45 -13.8 -7.9 L-14.1 -7.65 -15.4 -7.55 Q-16.55 -7.7 -17.8 -8.55 -19.1 -9.35 -19.75 -10.3 -20.35 -11.3 -19.95 -11.85" fill="url(#gradient0)" fill-rule="evenodd" stroke="none"/>
    <path d="M-47.95 -12.6 Q-46.6 -15.6 -44.55 -18.6 -42.4 -21.8 -39.6 -20.75 -36.0 -19.35 -33.6 -16.6 L-28.55 -11.3 Q-26.05 -8.9 -29.3 -6.85 -31.85 -8.15 -35.05 -9.35 -38.2 -10.55 -41.8 -10.15 -45.5 -9.8 -48.9 -8.6 -48.95 -10.55 -47.95 -12.6 M-40.5 -12.5 Q-40.6 -11.15 -39.35 -11.95 -35.85 -14.25 -36.75 -17.7 -40.3 -16.0 -40.5 -12.5" fill="#443422" fill-rule="evenodd" stroke="none"/>
    <path d="M-40.5 -12.5 Q-40.3 -16.0 -36.75 -17.7 -35.85 -14.25 -39.35 -11.95 -40.6 -11.15 -40.5 -12.5" fill="#ab8458" fill-rule="evenodd" stroke="none"/>
  </g>
  <defs>
    <radialGradient cx="0" cy="0" gradientTransform="matrix(-0.0014, 0.002, -0.0049, -0.0034, -16.7, -9.9)" gradientUnits="userSpaceOnUse" id="gradient0" r="819.2" spreadMethod="pad">
      <stop offset="0.0" stop-color="#ffffff"/>
      <stop offset="0.6705882352941176" stop-color="#000000"/>
    </radialGradient>
  </defs>
</svg>
