<?xml version="1.0" encoding="UTF-8" standalone="no"?>
<svg xmlns:xlink="http://www.w3.org/1999/xlink" height="276.35px" width="483.9px" xmlns="http://www.w3.org/2000/svg">
  <g transform="matrix(1.0, 0.0, 0.0, 1.0, 252.9, 64.05)">
    <path d="M-89.5 188.2 Q-89.45 190.05 -90.55 191.5 L-90.9 191.95 -89.5 188.2 M-158.25 106.55 Q-149.95 109.45 -144.65 116.35 -141.95 119.85 -138.8 122.95 L-131.3 130.05 Q-130.3 134.2 -129.75 138.5 -129.0 144.45 -131.2 149.55 -132.45 152.4 -135.55 152.55 L-135.95 152.6 Q-138.45 148.05 -141.55 143.6 L-144.4 139.65 Q-149.65 132.85 -155.75 126.9 -161.85 120.95 -168.65 115.85 -171.1 114.0 -173.2 111.0 -177.0 105.5 -182.6 101.4 -189.4 96.35 -197.3 92.7 -204.75 89.3 -213.0 87.45 -221.3 85.65 -230.05 85.0 -238.4 84.4 -247.0 84.9 -257.05 85.5 -250.0 82.2 -248.45 81.0 -236.95 80.0 -229.9 78.45 -223.95 78.7 -220.65 78.85 -216.9 79.95 L-210.05 81.75 -201.75 82.45 Q-196.7 82.75 -193.55 84.2 -185.65 87.8 -178.2 91.5 -170.25 95.45 -164.8 101.95 -162.1 105.2 -158.25 106.55" fill="url(#gradient0)" fill-rule="evenodd" stroke="none"/>
    <path d="M20.65 -0.1 Q23.3 -11.2 26.3 -22.2 29.0 -31.95 30.65 -42.65 32.4 -53.7 34.95 -64.05 39.75 -56.25 40.55 -45.7 41.35 -34.95 41.45 -23.7 41.5 -12.25 42.35 -0.55 43.2 10.45 47.3 20.6 49.05 24.85 48.9 29.45 48.75 35.95 47.55 42.5 45.6 53.35 47.4 64.35 47.95 67.85 48.85 71.25 L47.55 72.35 48.0 73.95 50.05 75.5 Q51.3 79.55 53.0 83.5 L53.0 84.5 Q52.95 86.6 53.5 88.7 L54.15 92.35 53.85 92.95 53.45 93.85 53.65 96.75 Q52.1 101.55 45.7 103.9 43.15 104.8 40.95 103.05 L39.2 101.3 Q36.35 101.2 34.9 99.35 L34.25 99.25 Q29.05 98.05 26.05 94.25 L22.5 94.0 20.1 93.4 Q18.6 86.7 17.95 79.6 16.9 68.2 14.5 57.15 11.85 45.05 15.2 34.1 17.45 26.65 18.1 16.65 18.65 8.15 20.65 -0.1" fill="url(#gradient1)" fill-rule="evenodd" stroke="none"/>
    <path d="M227.8 40.3 Q235.5 43.6 224.55 43.0 215.15 42.5 206.05 43.1 196.5 43.75 187.5 45.55 178.5 47.4 170.4 50.8 161.75 54.45 154.35 59.5 148.25 63.6 144.1 69.1 141.8 72.1 139.15 73.95 131.75 79.05 125.1 85.0 118.45 90.95 112.75 97.75 L109.6 101.7 107.95 103.95 106.35 103.3 Q101.6 108.45 97.25 113.9 96.4 114.9 95.0 114.9 85.8 114.75 87.8 106.15 88.6 102.65 90.85 99.75 L102.2 84.95 106.65 81.05 Q110.05 77.95 113.0 74.45 115.0 72.05 117.4 70.15 L118.1 70.45 118.85 69.2 119.05 68.9 Q122.95 66.2 127.8 64.65 132.0 63.3 134.95 60.05 140.9 53.55 149.55 49.6 157.65 45.9 166.3 42.3 169.7 40.85 175.25 40.55 L184.25 39.85 191.75 38.05 Q195.8 36.95 199.4 36.8 205.9 36.55 213.6 38.1 226.1 39.1 227.8 40.3" fill="url(#gradient2)" fill-rule="evenodd" stroke="none"/>
    <path d="M-54.9 143.35 Q-47.35 143.35 -42.0 146.9 -31.65 153.75 -31.55 162.9 -31.4 175.15 -30.0 186.05 -28.55 197.65 -32.0 208.0 -34.4 215.15 -44.05 210.35 -44.5 197.1 -45.6 185.65 -46.7 174.1 -47.0 162.9 -53.2 170.4 -54.35 180.45 -54.75 183.85 -59.2 183.45 -62.95 183.15 -67.1 184.3 -69.2 174.0 -66.9 164.35 -66.2 161.5 -67.45 158.25 -72.7 144.4 -58.65 143.5 L-54.9 143.35" fill="url(#gradient3)" fill-rule="evenodd" stroke="none"/>
  </g>
  <defs>
    <radialGradient cx="0" cy="0" gradientTransform="matrix(0.1212, 0.0, 0.0, 0.1212, -172.5, 93.95)" gradientUnits="userSpaceOnUse" id="gradient0" r="819.2" spreadMethod="pad">
      <stop offset="0.2196078431372549" stop-color="#00cc99" stop-opacity="0.5019608"/>
      <stop offset="0.6509803921568628" stop-color="#218383" stop-opacity="0.5019608"/>
    </radialGradient>
    <radialGradient cx="0" cy="0" gradientTransform="matrix(0.2216, 0.0, 0.0, 0.2216, 30.05, -7.2)" gradientUnits="userSpaceOnUse" id="gradient1" r="819.2" spreadMethod="pad">
      <stop offset="0.2196078431372549" stop-color="#00cc99" stop-opacity="0.5019608"/>
      <stop offset="0.6509803921568628" stop-color="#218383" stop-opacity="0.5019608"/>
    </radialGradient>
    <radialGradient cx="0" cy="0" gradientTransform="matrix(-0.1321, 0.0, 0.0, 0.1212, 143.35, 52.05)" gradientUnits="userSpaceOnUse" id="gradient2" r="819.2" spreadMethod="pad">
      <stop offset="0.2196078431372549" stop-color="#00cc99" stop-opacity="0.5019608"/>
      <stop offset="0.6509803921568628" stop-color="#218383" stop-opacity="0.5019608"/>
    </radialGradient>
    <radialGradient cx="0" cy="0" gradientTransform="matrix(0.0795, 0.0, 0.0, 0.0795, -56.75, 150.7)" gradientUnits="userSpaceOnUse" id="gradient3" r="819.2" spreadMethod="pad">
      <stop offset="0.2196078431372549" stop-color="#00cc99" stop-opacity="0.5019608"/>
      <stop offset="0.6509803921568628" stop-color="#218383" stop-opacity="0.5019608"/>
    </radialGradient>
  </defs>
</svg>
