<?xml version="1.0" encoding="UTF-8" standalone="no"?>
<svg xmlns:xlink="http://www.w3.org/1999/xlink" height="229.15px" width="108.35px" xmlns="http://www.w3.org/2000/svg">
  <g transform="matrix(1.0, 0.0, 0.0, 1.0, 55.55, 37.85)">
    <path d="M-4.15 162.8 L-3.95 162.5 -2.55 159.95 Q1.3 152.95 3.85 144.9 L5.35 139.6 6.2 135.9 7.35 129.0 Q8.5 120.05 6.4 111.75 L6.05 110.35 Q3.95 103.15 -0.5 96.7 L-0.55 96.65 -1.05 95.9 Q-5.35 89.65 -8.55 80.85 -11.8 72.0 -11.35 63.8 L-8.0 63.25 Q-6.05 76.6 -3.5 81.0 L4.05 94.9 Q7.65 101.9 10.4 109.65 13.15 117.6 12.35 126.75 11.6 134.9 9.2 143.05 6.7 151.6 3.35 158.2 L-0.1 164.4 -0.35 164.85 -4.15 162.8" fill="#c6cdb4" fill-rule="evenodd" stroke="none"/>
    <path d="M-0.35 164.85 L-0.1 164.4 3.35 158.2 Q6.7 151.6 9.2 143.05 11.6 134.9 12.35 126.75 13.15 117.6 10.4 109.65 7.65 101.9 4.05 94.9 L-3.5 81.0 Q-6.05 76.6 -8.0 63.25 L-11.35 63.8 Q-11.8 72.0 -8.55 80.85 -5.35 89.65 -1.05 95.9 L-0.55 96.65 -0.5 96.7 Q3.95 103.15 6.05 110.35 L6.4 111.75 Q8.5 120.05 7.35 129.0 L6.2 135.9 5.35 139.6 3.85 144.9 Q1.3 152.95 -2.55 159.95 L-3.95 162.5 -4.15 162.8 -7.2 161.15 -7.1 160.95 -4.4 156.75 Q-0.4 150.25 2.3 144.15 L2.85 142.75 4.05 139.3 4.9 135.6 Q5.45 132.4 5.55 128.95 L5.55 127.65 Q5.55 118.55 3.4 111.1 1.35 103.7 -2.4 97.8 L-2.85 97.1 -2.9 97.05 -11.3 83.7 Q-14.2 78.95 -14.7 72.25 L-14.65 72.25 -14.45 71.35 -16.05 65.7 Q-7.6 58.4 -3.9 68.4 -0.05 86.15 7.05 90.6 23.5 121.8 12.35 147.5 9.6 154.15 2.8 165.8 L2.5 166.35 -0.35 164.85" fill="#a8b38c" fill-rule="evenodd" stroke="none"/>
    <path d="M-16.05 65.7 L-14.45 71.35 -14.65 72.25 -14.7 72.25 Q-14.2 78.95 -11.3 83.7 L-2.9 97.05 -2.85 97.1 -2.4 97.8 Q1.35 103.7 3.4 111.1 5.55 118.55 5.55 127.65 L5.55 128.95 Q5.45 132.4 4.9 135.6 L4.05 139.3 2.85 142.75 2.3 144.15 Q-0.4 150.25 -4.4 156.75 L-7.1 160.95 -7.2 161.15 -9.75 159.8 -4.85 152.05 Q11.65 125.45 -5.2 97.9 -13.0 90.45 -17.45 71.35 -18.2 65.6 -16.05 65.7" fill="#899865" fill-rule="evenodd" stroke="none"/>
    <path d="M2.5 166.35 L2.8 165.8 Q9.6 154.15 12.35 147.5 23.5 121.8 7.05 90.6 -0.05 86.15 -3.9 68.4 M-9.75 159.8 L-4.85 152.05 Q11.65 125.45 -5.2 97.9 -13.0 90.45 -17.45 71.35" fill="none" stroke="#5f6150" stroke-linecap="round" stroke-linejoin="round" stroke-width="1.0"/>
    <path d="M-26.85 -19.95 L-28.1 -19.25 Q-36.4 -14.75 -40.7 -11.45 -45.0 -8.2 -46.1 -8.0 -47.2 -7.8 -47.45 -4.35 -47.75 -0.55 -45.55 1.85 L-41.05 6.15 -34.8 11.1 -30.4 14.45 Q-28.15 16.15 -24.55 17.1 L-16.0 18.65 -6.45 19.05 1.45 18.15 9.0 16.55 Q13.2 15.65 17.8 14.2 22.1 12.8 26.05 11.05 L32.45 8.2 33.75 7.6 Q37.95 5.45 40.7 2.45 43.8 -1.0 44.85 -5.05 45.9 -9.1 45.65 -12.65 45.35 -16.25 42.25 -18.65 L34.8 -24.3 33.75 -25.05 28.7 -28.2 Q24.95 -30.2 21.25 -31.8 16.35 -33.95 11.3 -35.2 9.05 -35.75 6.75 -35.25 -3.35 -33.1 -12.45 -27.45 -16.75 -24.8 -21.3 -22.95 L-26.95 -20.45 -25.8 -20.5 -26.2 -20.3 -26.85 -20.35 -28.3 -20.45 -28.4 -20.45 -1.4 -35.55 Q0.25 -36.35 2.05 -36.8 14.5 -39.8 33.75 -26.65 L36.05 -25.05 43.85 -19.3 36.05 -25.05 33.75 -26.65 Q14.5 -39.8 2.05 -36.8 0.05 -36.35 -1.8 -35.45 L-28.6 -20.45 -28.7 -20.4 -28.8 -20.4 -28.7 -20.45 -1.8 -35.5 Q1.2 -36.95 4.7 -37.3 16.45 -38.75 33.75 -27.0 L36.45 -25.15 Q40.95 -22.2 44.2 -19.45 L43.85 -19.3 46.05 -17.3 49.0 -13.5 Q50.8 -11.0 52.0 -8.0 52.9 -3.05 47.95 0.95 40.55 6.8 33.75 11.35 L23.4 17.75 Q23.3 17.75 23.25 17.85 L19.0 18.7 11.65 20.0 4.25 21.4 -2.95 22.9 Q-6.7 23.7 -10.65 23.0 L-17.7 21.55 Q-21.45 20.6 -24.7 19.05 -28.1 17.45 -31.75 16.3 -35.3 15.2 -38.35 12.65 L-43.65 8.15 -48.55 3.25 Q-50.7 0.85 -52.35 -2.15 L-51.8 -4.75 -51.55 -5.7 Q-50.8 -7.2 -49.7 -8.35 L-44.35 -11.8 -49.7 -8.35 Q-47.6 -10.75 -44.35 -11.8 L-43.7 -12.0 Q-42.9 -12.3 -41.95 -12.95 L-40.95 -13.5 -36.35 -16.3 -32.0 -18.75 -30.7 -19.4 -32.0 -18.75 -36.35 -16.3 -40.95 -13.5 -41.95 -12.95 -40.3 -14.2 -38.1 -15.85 Q-33.95 -18.55 -30.7 -19.4 L-30.0 -19.6 -26.9 -19.95 -26.85 -19.95 M35.85 -12.3 L35.7 -12.4 35.8 -12.45 35.85 -12.3 M-14.95 14.2 L2.35 13.35 Q13.5 11.55 24.55 5.55 30.45 2.35 33.75 -3.05 35.4 -5.8 36.45 -9.0 L36.9 -10.7 37.1 -11.55 36.95 -11.4 36.85 -11.35 36.95 -11.6 Q37.2 -12.7 37.0 -13.95 L37.45 -15.15 36.95 -14.05 36.9 -14.25 Q36.2 -17.55 33.75 -19.3 L32.6 -20.05 26.2 -23.5 Q22.9 -25.3 19.5 -26.7 15.95 -28.1 12.5 -28.8 8.65 -29.55 4.9 -28.85 1.35 -28.15 -2.1 -26.75 L-8.45 -23.9 Q-11.75 -22.3 -15.1 -20.8 -17.45 -19.8 -19.45 -18.35 -16.35 -19.55 -19.55 -17.5 -22.75 -15.45 -23.9 -13.25 L-26.6 -12.15 Q-36.75 -7.8 -36.55 -1.7 -35.8 10.4 -19.3 13.65 L-15.35 14.3 -14.95 14.35 -14.95 14.2 M-15.35 14.3 L-15.35 14.4 -15.35 14.3 M2.55 -31.85 Q5.8 -33.45 9.75 -32.5 13.5 -31.6 16.95 -30.0 L23.65 -27.05 Q27.0 -25.6 30.3 -23.8 L33.75 -21.65 36.25 -19.85 Q39.15 -17.65 40.9 -13.7 42.65 -9.75 40.9 -6.75 39.1 -3.75 37.1 -0.9 35.65 1.1 33.75 2.6 L31.85 3.9 25.55 7.4 Q22.65 8.95 19.15 10.15 L12.35 12.35 5.5 14.15 -1.95 15.45 -9.3 16.45 -16.8 16.25 -23.95 14.45 Q-27.45 13.4 -30.3 11.1 -32.95 8.9 -37.15 3.95 -40.1 0.55 -40.7 -1.15 -41.15 -1.5 -41.9 -3.15 -43.5 -6.45 -16.0 -21.2 -22.1 -19.4 -21.5 -20.35 -18.95 -20.5 -16.55 -21.65 -13.25 -23.3 -10.5 -24.7 L-3.95 -28.35 2.55 -31.85 M36.55 -11.35 L36.45 -11.3 36.55 -11.55 36.55 -11.35 M-52.2 -4.7 L-51.95 -5.65 -50.5 -7.85 -51.95 -5.6 -52.2 -4.7 M-51.05 6.4 L-51.0 6.25 -48.35 9.7 Q-50.0 8.15 -51.05 6.4 -50.0 8.15 -48.35 9.7 L-47.55 10.65 Q-44.95 13.55 -41.65 15.1 L-40.45 15.65 -35.5 18.4 -35.4 18.45 Q-32.4 20.3 -29.2 21.6 L-27.45 22.3 -24.8 23.25 -21.0 24.5 -12.8 26.6 -4.75 27.65 -4.75 27.7 -4.75 27.75 -5.75 29.05 Q-8.25 31.35 -12.4 31.45 -16.3 31.55 -19.75 30.1 L-26.35 27.35 -33.0 24.35 Q-36.45 22.65 -39.8 20.75 L-46.0 17.1 Q-48.75 15.4 -50.4 12.95 -52.5 9.8 -51.05 6.4 M-23.8 -16.2 L-23.8 -16.1 Q-23.35 -16.6 -24.8 -15.75 L-24.9 -15.65 -23.8 -16.2 M-25.15 -15.55 L-25.1 -15.55 -25.95 -15.05 -25.15 -15.55 M-16.55 -17.2 L-16.6 -17.15 -17.1 -17.3 -16.55 -17.2 M-4.75 27.75 L-5.15 27.75 Q-14.4 28.5 -21.7 24.85 L-25.2 23.3 -27.45 22.3 -25.2 23.3 -21.7 24.85 Q-14.4 28.5 -5.15 27.75 L-4.75 27.75 M-3.35 36.95 L-5.0 37.25 Q-7.05 37.55 -9.65 37.25 L-8.7 37.25 -9.25 37.2 -6.35 37.1 -5.5 37.0 -5.1 36.95 -1.55 36.15 -1.85 36.3 -1.6 36.25 -1.15 36.1 -3.35 36.95 Q-2.4 36.7 -1.6 36.25 -2.4 36.7 -3.35 36.95 M-15.05 35.9 L-17.8 35.0 -15.4 35.95 Q-19.9 34.6 -25.45 32.0 L-27.65 30.95 -27.1 31.1 -26.15 31.4 -27.25 30.9 -26.7 31.05 -23.95 32.0 Q-21.7 32.85 -19.4 34.0 L-15.05 35.9 M50.85 5.65 L52.1 4.45 Q50.6 6.2 48.4 7.6 L50.85 5.65" fill="#a8b38c" fill-rule="evenodd" stroke="none"/>
    <path d="M-26.2 -20.3 L-25.8 -20.5 -26.95 -20.45 -21.3 -22.95 Q-16.75 -24.8 -12.45 -27.45 -3.35 -33.1 6.75 -35.25 9.05 -35.75 11.3 -35.2 16.35 -33.95 21.25 -31.8 24.95 -30.2 28.7 -28.2 L33.75 -25.05 34.8 -24.3 42.25 -18.65 Q45.35 -16.25 45.65 -12.65 45.9 -9.1 44.85 -5.05 43.8 -1.0 40.7 2.45 37.95 5.45 33.75 7.6 L32.45 8.2 26.05 11.05 Q22.1 12.8 17.8 14.2 13.2 15.65 9.0 16.55 L1.45 18.15 -6.45 19.05 -16.0 18.65 -24.55 17.1 Q-28.15 16.15 -30.4 14.45 L-34.8 11.1 -41.05 6.15 -45.55 1.85 Q-47.75 -0.55 -47.45 -4.35 -47.2 -7.8 -46.1 -8.0 -45.0 -8.2 -40.7 -11.45 -36.4 -14.75 -28.1 -19.25 L-26.85 -19.95 -23.7 -20.85 -26.2 -20.3 M2.55 -31.85 L-3.95 -28.35 -10.5 -24.7 Q-13.25 -23.3 -16.55 -21.65 -18.95 -20.5 -21.5 -20.35 -22.1 -19.4 -16.0 -21.2 -43.5 -6.45 -41.9 -3.15 -41.15 -1.5 -40.7 -1.15 -40.1 0.55 -37.15 3.95 -32.95 8.9 -30.3 11.1 -27.45 13.4 -23.95 14.45 L-16.8 16.25 -9.3 16.45 -1.95 15.45 5.5 14.15 12.35 12.35 19.15 10.15 Q22.65 8.95 25.55 7.4 L31.85 3.9 33.75 2.6 Q35.65 1.1 37.1 -0.9 39.1 -3.75 40.9 -6.75 42.65 -9.75 40.9 -13.7 39.15 -17.65 36.25 -19.85 L33.75 -21.65 30.3 -23.8 Q27.0 -25.6 23.65 -27.05 L16.95 -30.0 Q13.5 -31.6 9.75 -32.5 5.8 -33.45 2.55 -31.85 M-13.45 -17.05 L-13.35 -17.0 -13.45 -16.95 -13.45 -17.05 M-14.0 -16.9 L-13.8 -16.9 -14.1 -16.8 -14.0 -16.9" fill="#c6cdb4" fill-rule="evenodd" stroke="none"/>
    <path d="M-26.85 -19.95 L-26.9 -19.95 -30.0 -19.6 -30.2 -19.55 -30.4 -19.55 -30.6 -19.5 -30.95 -19.5 -29.55 -20.2 -29.2 -20.4 -28.9 -20.4 -28.8 -20.45 -28.7 -20.45 -28.8 -20.4 -28.7 -20.4 -28.6 -20.45 -28.4 -20.45 -28.3 -20.45 -26.85 -20.35 -26.2 -20.3 -23.7 -20.85 -26.85 -19.95 M-52.35 -2.15 Q-50.7 0.85 -48.55 3.25 L-43.65 8.15 -38.35 12.65 Q-35.3 15.2 -31.75 16.3 -28.1 17.45 -24.7 19.05 -21.45 20.6 -17.7 21.55 L-10.65 23.0 Q-6.7 23.7 -2.95 22.9 L4.25 21.4 11.65 20.0 19.0 18.7 23.25 17.85 15.4 21.85 14.55 21.75 14.3 22.3 Q3.9 26.95 -4.75 27.75 3.9 26.95 14.3 22.3 7.35 28.65 4.4 30.9 1.45 33.15 0.25 34.5 L-1.35 36.1 -1.6 36.25 -1.85 36.3 -1.55 36.15 -5.1 36.95 -5.5 37.0 -6.35 37.1 -9.25 37.2 -9.9 37.15 -12.7 36.7 -14.2 36.2 -15.05 35.9 -19.4 34.0 Q-21.7 32.85 -23.95 32.0 L-26.7 31.05 -27.25 30.9 Q-27.45 30.8 -27.6 30.75 L-29.05 30.3 -27.95 30.85 -34.45 28.4 Q-38.2 26.8 -41.2 24.45 -43.55 22.65 -46.6 20.9 -49.55 19.2 -52.2 17.1 -55.05 14.8 -55.35 11.25 -55.7 7.8 -53.8 5.55 -52.75 4.3 -52.5 2.75 L-52.3 3.55 Q-53.75 5.4 -54.4 7.2 L-53.4 5.5 Q-52.65 4.6 -52.3 3.55 L-52.1 2.7 -52.15 2.6 -52.15 2.5 -52.4 0.9 -52.45 -0.3 -52.5 -0.4 -52.75 -1.85 -52.75 -2.1 -52.75 -1.85 -52.85 -0.25 -52.9 -0.35 Q-53.4 -1.85 -53.0 -2.55 L-52.75 -2.1 -52.7 -2.4 -52.6 -2.6 -52.35 -2.15 M17.9 -23.95 Q12.1 -25.3 12.85 -24.85 L13.0 -24.75 9.85 -25.25 3.15 -24.85 -4.4 -23.0 -9.7 -21.05 Q-12.6 -19.75 -15.05 -17.9 L-16.0 -17.15 -16.1 -17.1 -16.15 -17.05 -16.85 -16.6 -17.25 -16.75 -21.45 -13.7 -27.2 -10.3 -30.35 -8.2 Q-31.5 -7.4 -32.25 -6.2 -34.3 0.25 -33.5 0.5 L-33.8 1.35 -33.8 1.55 Q-28.55 7.2 -27.1 7.55 L-26.85 7.85 Q-24.65 9.9 -15.6 11.1 -7.0 12.25 -0.5 11.4 L4.6 10.35 Q12.5 7.95 20.5 3.35 L17.05 3.35 Q23.65 3.2 30.9 -3.6 L33.9 -6.7 34.05 -7.25 35.15 -8.55 Q36.25 -9.75 36.0 -12.2 L35.85 -12.3 35.8 -12.45 35.55 -12.95 Q34.9 -14.2 33.75 -15.3 L32.75 -16.15 Q29.9 -18.35 31.8 -17.05 33.65 -15.75 29.35 -18.85 25.0 -21.95 21.5 -22.95 L17.9 -23.95 Q18.4 -24.15 18.35 -24.3 L18.3 -24.5 18.35 -24.3 18.3 -24.5 18.35 -24.3 23.65 -22.35 25.7 -21.3 Q29.4 -19.35 33.05 -16.5 29.4 -19.35 25.7 -21.3 L23.65 -22.35 18.35 -24.3 Q18.4 -24.15 17.9 -23.95 M-15.35 14.3 L-19.3 13.65 Q-35.8 10.4 -36.55 -1.7 -36.75 -7.8 -26.6 -12.15 L-23.9 -13.25 Q-22.75 -15.45 -19.55 -17.5 -16.35 -19.55 -19.45 -18.35 -17.45 -19.8 -15.1 -20.8 -11.75 -22.3 -8.45 -23.9 L-2.1 -26.75 Q1.35 -28.15 4.9 -28.85 8.65 -29.55 12.5 -28.8 15.95 -28.1 19.5 -26.7 22.9 -25.3 26.2 -23.5 L32.6 -20.05 33.75 -19.3 Q36.2 -17.55 36.9 -14.25 L36.95 -14.05 37.45 -15.15 37.0 -13.95 Q37.2 -12.7 36.95 -11.6 L36.85 -11.35 36.95 -11.4 37.1 -11.55 36.9 -10.7 36.45 -9.0 Q35.4 -5.8 33.75 -3.05 30.45 2.35 24.55 5.55 13.5 11.55 2.35 13.35 L-14.95 14.2 -14.95 14.35 -15.35 14.3 M33.25 -16.35 L33.75 -15.95 Q35.6 -14.5 36.2 -12.9 L36.25 -12.85 36.3 -12.7 36.35 -12.55 36.55 -11.65 36.15 -10.35 Q35.7 -8.5 35.05 -7.5 L33.75 -5.95 32.85 -5.05 32.3 -4.55 Q28.3 -0.85 22.5 3.05 L23.4 2.3 23.5 2.1 Q14.7 7.45 2.55 11.2 L-0.5 11.4 2.55 11.2 Q14.7 7.45 23.5 2.1 L23.4 2.3 22.5 3.05 Q28.3 -0.85 32.3 -4.55 L32.85 -5.05 33.75 -5.95 35.05 -7.5 Q35.7 -8.5 36.15 -10.35 L36.55 -11.65 36.35 -12.55 36.3 -12.7 36.25 -12.85 36.2 -12.9 Q35.6 -14.5 33.75 -15.95 L33.25 -16.35 M36.55 -11.55 L36.45 -11.3 36.55 -11.35 Q36.55 -11.0 36.6 -11.6 36.6 -11.9 36.55 -11.65 L36.55 -11.55 36.55 -11.65 Q36.6 -11.9 36.6 -11.6 36.55 -11.0 36.55 -11.35 L36.55 -11.55 M-51.05 6.4 L-52.3 3.55 -51.05 6.4 Q-52.5 9.8 -50.4 12.95 -48.75 15.4 -46.0 17.1 L-39.8 20.75 Q-36.45 22.65 -33.0 24.35 L-26.35 27.35 -19.75 30.1 Q-16.3 31.55 -12.4 31.45 -8.25 31.35 -5.75 29.05 L-4.75 27.75 -4.75 27.7 -4.75 27.65 -12.8 26.6 -21.0 24.5 -24.8 23.25 -27.45 22.3 -35.4 18.45 -27.45 22.3 -29.2 21.6 Q-32.4 20.3 -35.4 18.45 L-35.5 18.4 -40.45 15.65 Q-45.05 12.95 -47.05 10.85 L-48.35 9.7 -47.05 10.85 Q-45.05 12.95 -40.45 15.65 L-41.65 15.1 Q-44.95 13.55 -47.55 10.65 L-48.35 9.7 -51.0 6.25 -51.05 6.4 M-28.7 -20.4 L-29.55 -20.2 -28.7 -20.4 M-23.8 -16.2 L-24.9 -15.65 -24.8 -15.75 Q-23.35 -16.6 -23.8 -16.1 L-23.8 -16.2 M-25.15 -15.55 L-25.95 -15.05 -25.1 -15.55 -25.15 -15.55 M-16.6 -17.15 L-16.55 -17.2 -17.1 -17.3 -16.6 -17.15 -17.25 -16.75 -16.6 -17.15 M18.35 -24.3 Q1.75 -29.15 -16.5 -17.25 L-16.55 -17.2 -16.5 -17.25 Q1.75 -29.15 18.35 -24.3 M-34.3 1.6 L-33.75 2.35 -33.7 3.1 -33.75 2.35 -34.3 1.6 M-26.85 7.85 Q-31.2 5.7 -33.75 2.35 L-33.8 1.55 -33.75 2.35 Q-31.2 5.7 -26.85 7.85 M-14.75 36.2 L-10.2 37.2 -13.1 36.75 -14.75 36.2 M-54.8 8.4 L-54.4 7.2 -54.8 8.4 Q-55.35 10.45 -54.75 12.35 L-54.95 11.2 Q-55.1 9.7 -54.8 8.4 M-29.05 30.3 Q-38.8 25.35 -51.5 16.95 -54.05 14.8 -54.75 12.35 -54.05 14.8 -51.5 16.95 -38.8 25.35 -29.05 30.3 M-33.8 1.35 Q-34.0 -3.45 -32.25 -6.2 -34.0 -3.45 -33.8 1.35 M22.5 3.05 L23.5 2.1 22.5 3.05" fill="#899865" fill-rule="evenodd" stroke="none"/>
    <path d="M52.0 -8.0 Q50.8 -11.0 49.0 -13.5 L46.05 -17.3 Q51.25 -12.3 52.0 -8.0 M-14.95 14.2 L-14.95 14.35 -14.95 14.2 M-15.35 14.3 L-15.35 14.4 -15.35 14.3 M45.9 -18.0 L46.5 -17.7 52.8 -9.05 52.8 -7.0 52.6 -7.55 52.4 -8.05 Q51.2 -11.05 49.4 -13.55 L46.45 -17.35 45.9 -18.0" fill="#97a477" fill-rule="evenodd" stroke="none"/>
    <path d="M-30.7 -19.4 L-32.0 -18.75 -36.35 -16.3 -40.95 -13.5 -41.95 -12.95 -44.1 -11.95 -44.35 -11.8 -49.7 -8.35 -50.5 -7.85 -51.95 -5.6 -52.2 -4.7 -52.7 -2.4 -52.75 -2.1 -52.75 -1.85 -52.85 -0.25 M23.25 17.85 Q23.3 17.75 23.4 17.75 L33.75 11.35 Q40.55 6.8 47.95 0.95 52.9 -3.05 52.0 -8.0 51.25 -12.3 46.05 -17.3 L43.85 -19.3 36.05 -25.05 33.75 -26.65 Q14.5 -39.8 2.05 -36.8 0.05 -36.35 -1.8 -35.45 L-28.6 -20.45 -28.7 -20.4 -29.55 -20.2 M-17.25 -16.75 L-21.45 -13.7 -27.2 -10.3 -30.35 -8.2 Q-31.5 -7.4 -32.25 -6.2 -34.0 -3.45 -33.8 1.35 L-33.8 1.55 -33.75 2.35 Q-31.2 5.7 -26.85 7.85 -17.65 12.3 -0.5 11.4 L2.55 11.2 Q14.7 7.45 23.5 2.1 L23.4 2.3 22.5 3.05 Q28.3 -0.85 32.3 -4.55 L32.85 -5.05 33.75 -5.95 35.05 -7.5 Q35.7 -8.5 36.15 -10.35 L36.55 -11.65 36.35 -12.55 36.3 -12.7 36.25 -12.85 36.2 -12.9 Q35.6 -14.5 33.75 -15.95 L33.25 -16.35 M17.9 -23.95 L17.0 -23.6 M18.35 -24.3 L18.3 -24.5 18.35 -24.3 23.65 -22.35 25.7 -21.3 Q29.4 -19.35 33.05 -16.5 M18.35 -24.3 Q18.4 -24.15 17.9 -23.95 M36.55 -11.55 L36.55 -11.65 Q36.6 -11.9 36.6 -11.6 36.55 -11.0 36.55 -11.35 L36.55 -11.55 M-30.7 -19.4 L-30.4 -19.55 M-52.3 3.55 L-51.05 6.4 Q-50.0 8.15 -48.35 9.7 L-47.05 10.85 Q-45.05 12.95 -40.45 15.65 L-35.5 18.4 -35.4 18.45 -27.45 22.3 -25.2 23.3 -21.7 24.85 Q-14.4 28.5 -5.15 27.75 L-4.75 27.75 Q3.9 26.95 14.3 22.3 L14.55 21.75 M15.4 21.85 L23.25 17.85 M-16.6 -17.15 L-16.55 -17.2 -16.5 -17.25 Q1.75 -29.15 18.35 -24.3 M-16.6 -17.15 L-17.25 -16.75 M-33.7 3.1 L-33.75 2.35 -34.3 1.6 M-29.05 30.3 L-27.95 30.85 -25.55 32.0 Q-19.5 34.85 -14.75 36.2 L-10.2 37.2 -3.35 36.95 Q-2.4 36.7 -1.6 36.25 L-1.35 36.1 0.25 34.5 Q1.45 33.15 4.4 30.9 7.35 28.65 14.3 22.3 L15.4 21.85 M-52.5 2.75 L-52.85 0.5 -52.85 0.15 M-54.4 7.2 L-54.8 8.4 Q-55.35 10.45 -54.75 12.35 -54.05 14.8 -51.5 16.95 -38.8 25.35 -29.05 30.3 M-54.4 7.2 Q-53.75 5.4 -52.3 3.55 L-52.5 2.75 M23.5 2.1 L22.5 3.05" fill="none" stroke="#5f6150" stroke-linecap="round" stroke-linejoin="round" stroke-width="1.0"/>
    <path d="M20.5 -29.0 L22.55 -29.05 Q23.25 -29.3 22.65 -30.1 L21.4 -31.3 20.0 -31.65 17.5 -31.7 Q15.85 -31.75 16.95 -30.85 L18.55 -29.6 Q19.15 -29.25 20.5 -29.0 M32.15 -24.9 L30.8 -24.95 Q30.75 -24.5 31.25 -23.8 L32.1 -22.85 Q32.45 -22.55 33.05 -22.5 L34.7 -22.3 Q35.75 -22.2 34.95 -23.0 L33.8 -24.1 32.15 -24.9 M26.35 -31.0 Q24.2 -30.75 23.15 -29.0 21.3 -25.9 22.35 -23.2 L22.75 -22.35 22.35 -22.45 22.35 -22.55 21.15 -23.2 18.35 -23.45 Q18.2 -24.1 17.75 -23.95 15.55 -25.4 15.65 -28.7 15.75 -32.55 19.15 -33.15 23.5 -33.9 26.35 -31.0 M5.7 -33.95 Q6.4 -34.55 5.3 -34.7 L3.4 -34.9 Q2.65 -34.9 2.1 -34.2 1.5 -33.55 1.5 -33.1 L2.3 -33.05 3.75 -33.4 4.7 -33.35 Q5.0 -33.35 5.7 -33.95 M1.4 -24.9 L1.4 -24.95 1.3 -24.95 Q2.15 -27.45 1.65 -30.2 1.0 -33.75 -1.7 -35.65 L1.0 -36.9 Q4.85 -38.35 9.05 -37.35 5.8 -35.7 5.7 -31.4 5.6 -27.8 8.0 -25.8 L7.55 -25.7 1.4 -24.9 M39.0 -23.15 L40.7 -21.7 Q36.1 -23.6 33.65 -19.8 L31.85 -16.65 29.3 -18.95 Q28.75 -21.4 29.4 -23.15 29.85 -24.55 31.05 -25.5 33.9 -27.8 37.2 -24.75 L39.0 -23.15 M35.4 -8.2 Q36.2 -10.75 37.65 -12.7 40.1 -16.0 44.75 -15.15 47.5 -14.65 51.15 -6.15 L51.1 -5.35 50.85 -4.05 Q49.85 -0.55 46.8 1.7 47.0 -0.75 46.5 -2.8 46.15 -4.25 45.35 -5.35 44.25 -6.95 42.3 -7.95 38.95 -9.7 35.4 -8.2 M27.25 -0.8 L29.1 -2.05 Q32.25 -3.6 35.15 -1.85 38.15 -0.05 38.7 4.3 L38.7 4.5 Q39.1 8.35 36.25 10.25 35.4 10.85 31.0 12.4 L31.3 11.65 Q32.25 8.25 31.1 4.4 L31.05 4.3 Q29.85 0.6 25.9 0.25 L27.25 -0.8 M21.85 11.65 Q22.95 10.65 21.95 10.55 L19.9 10.7 Q18.8 10.95 18.4 11.3 L17.25 12.25 Q16.5 12.8 16.6 13.2 16.7 13.6 18.3 13.5 19.9 13.35 20.3 13.0 L21.85 11.65 M36.85 3.05 Q37.35 2.0 37.3 1.05 37.2 0.1 35.45 1.05 33.7 1.95 33.1 2.6 32.5 3.2 31.95 4.4 31.4 5.65 32.55 5.7 33.7 5.75 34.85 4.6 36.0 3.4 36.2 3.75 36.35 4.1 36.85 3.05 M42.95 -14.05 Q42.45 -14.05 42.1 -13.5 41.75 -12.9 41.75 -12.05 L41.75 -9.85 Q41.75 -8.5 42.8 -8.15 43.8 -7.8 44.2 -9.0 44.6 -10.2 44.4 -11.55 L43.8 -13.5 42.95 -14.05 M21.7 8.0 Q23.35 11.5 22.4 15.1 21.8 17.55 14.55 22.15 L14.5 22.15 15.45 20.3 Q16.95 17.1 16.05 13.05 15.1 9.05 11.15 8.25 13.4 7.9 15.25 6.6 19.6 3.45 21.7 8.0 M0.05 16.25 Q-0.2 16.75 0.75 17.15 L2.35 17.5 4.4 17.0 Q5.8 16.5 5.35 16.05 4.9 15.6 3.95 15.3 L2.35 15.0 Q1.7 15.0 1.0 15.4 0.3 15.75 0.05 16.25 M5.7 16.25 Q5.8 20.2 4.85 24.0 4.7 24.8 3.8 25.1 L2.35 25.65 4.4 25.45 Q8.85 25.45 8.35 27.15 7.85 28.8 6.05 29.95 4.2 31.05 0.6 35.05 L1.5 32.9 Q2.5 28.9 -0.6 26.65 L-0.55 26.55 -0.65 26.6 -2.15 27.0 -1.75 25.55 Q-0.4 22.3 -0.4 18.35 -0.35 14.45 -2.55 11.6 L2.0 11.5 Q5.6 11.7 5.7 16.25 M-42.0 -4.2 Q-38.25 -3.6 -35.75 -1.2 -34.9 -0.4 -33.8 2.35 -34.25 2.65 -34.35 2.15 L-34.4 2.55 Q-37.7 0.15 -41.4 1.95 -45.1 3.75 -46.4 7.2 L-46.7 7.9 Q-47.35 9.1 -48.5 9.85 L-50.05 7.9 -50.2 7.65 -50.25 7.85 -50.25 7.9 -50.35 8.25 -51.2 10.45 Q-52.45 13.8 -51.95 16.9 -54.25 14.75 -54.8 11.2 -55.15 9.15 -54.7 7.8 -54.25 6.3 -52.35 4.8 L-52.6 4.45 Q-53.15 3.7 -53.0 2.95 -51.35 -0.2 -48.5 -2.65 -45.9 -4.85 -42.0 -4.2 M-42.85 -2.05 L-44.2 -3.6 Q-45.05 -4.65 -45.4 -3.15 -45.8 -1.65 -45.8 -0.75 -45.8 0.1 -45.3 0.65 -44.75 1.2 -42.9 1.85 -41.05 2.5 -41.55 1.35 L-42.2 -0.65 Q-42.3 -1.5 -42.85 -2.05 M-16.7 -27.4 Q-14.15 -29.2 -12.05 -30.15 -7.8 -30.1 -7.4 -25.95 -7.25 -24.45 -7.6 -23.25 -8.3 -21.2 -10.6 -20.2 L-12.6 -19.45 -13.55 -19.2 Q-11.85 -21.1 -12.25 -23.25 -12.5 -24.4 -13.25 -25.55 -14.5 -27.45 -16.7 -27.4 M-12.2 -25.45 L-10.8 -25.25 Q-10.35 -25.25 -10.05 -25.65 L-8.8 -26.8 Q-7.9 -27.65 -8.7 -27.85 L-10.4 -27.95 Q-11.25 -27.85 -11.65 -27.45 L-12.65 -26.35 Q-13.2 -25.65 -12.2 -25.45 M-22.8 -23.3 Q-19.6 -22.7 -19.5 -18.95 -19.45 -14.75 -22.8 -13.35 -21.65 -16.2 -23.9 -19.15 -25.4 -21.1 -27.9 -21.3 -26.55 -22.5 -24.35 -23.3 L-24.1 -23.4 -22.8 -23.3 M-36.0 -13.9 Q-36.9 -12.8 -35.85 -12.9 L-34.1 -13.15 Q-33.4 -13.3 -33.05 -13.65 L-31.7 -14.5 Q-30.75 -15.0 -31.6 -15.35 L-33.4 -15.7 Q-34.4 -15.7 -34.75 -15.35 L-36.0 -13.9 M-23.3 -21.15 Q-23.7 -20.8 -23.7 -20.35 -23.7 -19.9 -23.3 -19.6 -22.85 -19.25 -22.25 -19.25 -21.65 -19.25 -21.25 -19.6 L-20.55 -20.4 Q-20.35 -20.95 -20.65 -21.3 -21.0 -21.7 -21.9 -21.55 L-23.3 -21.15 M-30.65 -14.55 Q-28.9 -11.35 -30.8 -8.3 -31.65 -6.95 -32.75 -5.9 -32.55 -9.7 -35.25 -11.8 -37.75 -13.8 -41.8 -13.7 -39.45 -15.35 -36.95 -16.45 -32.3 -17.65 -30.65 -14.55 M-13.75 17.65 Q-14.1 19.7 -13.75 21.95 -13.25 24.9 -10.3 28.65 L-10.15 28.7 Q-10.35 27.85 -9.45 28.8 -7.1 31.5 -8.1 35.5 L-8.15 35.65 Q-8.4 36.7 -9.35 36.8 -12.25 37.2 -13.95 35.5 L-15.1 33.9 Q-16.8 30.65 -15.6 27.7 L-16.95 27.35 Q-20.9 26.25 -21.55 22.8 -22.25 18.95 -20.55 15.6 -18.9 12.25 -15.45 11.2 L-15.2 11.2 -14.4 11.4 -14.55 11.2 Q-11.25 11.3 -12.65 14.05 -13.45 15.7 -13.75 17.45 L-14.45 17.1 Q-16.0 16.4 -17.0 16.35 L-19.4 16.55 Q-20.8 16.8 -20.6 17.15 -20.4 17.5 -19.2 17.8 L-17.15 18.05 -15.75 17.75 -14.05 17.65 -13.75 17.65 M-28.95 7.2 Q-27.15 7.65 -25.55 9.15 -29.7 10.1 -31.25 14.0 -32.7 17.45 -30.85 20.6 L-31.35 20.95 -35.05 19.45 Q-37.8 18.3 -38.65 15.9 L-39.05 13.75 Q-39.2 9.6 -36.1 8.05 L-35.05 7.6 Q-32.15 6.5 -28.95 7.2 M-35.75 8.45 Q-36.65 8.4 -36.15 9.6 -35.65 10.8 -35.1 11.15 L-32.4 12.1 Q-30.35 12.65 -30.95 11.75 -31.6 10.8 -31.6 10.25 -31.65 9.7 -32.25 9.3 -32.8 8.95 -33.85 8.7 L-35.75 8.45 M-31.45 21.65 Q-30.65 20.95 -30.85 20.6 -30.25 20.3 -29.3 21.0 L-26.0 23.45 Q-27.95 27.05 -25.9 30.5 L-24.7 32.7 -31.15 28.75 -31.85 27.8 Q-33.2 24.65 -31.7 21.5 L-31.35 20.95 Q-30.9 21.1 -31.45 21.65 M-12.1 27.8 L-12.05 27.9 -11.9 27.9 -12.1 27.8 M-51.2 6.35 L-50.2 7.65 Q-50.2 6.9 -51.05 6.45 L-51.2 6.35 M-41.85 15.1 L-40.25 15.65 Q-43.0 18.4 -41.2 22.3 L-40.35 24.3 Q-44.6 23.15 -44.95 19.0 -45.3 13.95 -41.85 15.1 M-44.1 16.9 L-44.15 16.8 Q-44.15 17.25 -44.1 16.95 L-44.1 16.9" fill="#443422" fill-rule="evenodd" stroke="none"/>
    <path d="M32.15 -24.9 L33.8 -24.1 34.95 -23.0 Q35.75 -22.2 34.7 -22.3 L33.05 -22.5 Q32.45 -22.55 32.1 -22.85 L31.25 -23.8 Q30.75 -24.5 30.8 -24.95 L32.15 -24.9 M20.5 -29.0 Q19.15 -29.25 18.55 -29.6 L16.95 -30.85 Q15.85 -31.75 17.5 -31.7 L20.0 -31.65 21.4 -31.3 22.65 -30.1 Q23.25 -29.3 22.55 -29.05 L20.5 -29.0 M5.7 -33.95 Q5.0 -33.35 4.7 -33.35 L3.75 -33.4 2.3 -33.05 1.5 -33.1 Q1.5 -33.55 2.1 -34.2 2.65 -34.9 3.4 -34.9 L5.3 -34.7 Q6.4 -34.55 5.7 -33.95 M42.95 -14.05 L43.8 -13.5 44.4 -11.55 Q44.6 -10.2 44.2 -9.0 43.8 -7.8 42.8 -8.15 41.75 -8.5 41.75 -9.85 L41.75 -12.05 Q41.75 -12.9 42.1 -13.5 42.45 -14.05 42.95 -14.05 M36.85 3.05 Q36.35 4.1 36.2 3.75 36.0 3.4 34.85 4.6 33.7 5.75 32.55 5.7 31.4 5.65 31.95 4.4 32.5 3.2 33.1 2.6 33.7 1.95 35.45 1.05 37.2 0.1 37.3 1.05 37.35 2.0 36.85 3.05 M21.85 11.65 L20.3 13.0 Q19.9 13.35 18.3 13.5 16.7 13.6 16.6 13.2 16.5 12.8 17.25 12.25 L18.4 11.3 Q18.8 10.95 19.9 10.7 L21.95 10.55 Q22.95 10.65 21.85 11.65 M0.05 16.25 Q0.3 15.75 1.0 15.4 1.7 15.0 2.35 15.0 L3.95 15.3 Q4.9 15.6 5.35 16.05 5.8 16.5 4.4 17.0 L2.35 17.5 0.75 17.15 Q-0.2 16.75 0.05 16.25 M-42.85 -2.05 Q-42.3 -1.5 -42.2 -0.65 L-41.55 1.35 Q-41.05 2.5 -42.9 1.85 -44.75 1.2 -45.3 0.65 -45.8 0.1 -45.8 -0.75 -45.8 -1.65 -45.4 -3.15 -45.05 -4.65 -44.2 -3.6 L-42.85 -2.05 M-12.2 -25.45 Q-13.2 -25.65 -12.65 -26.35 L-11.65 -27.45 Q-11.25 -27.85 -10.4 -27.95 L-8.7 -27.85 Q-7.9 -27.65 -8.8 -26.8 L-10.05 -25.65 Q-10.35 -25.25 -10.8 -25.25 L-12.2 -25.45 M-23.3 -21.15 L-21.9 -21.55 Q-21.0 -21.7 -20.65 -21.3 -20.35 -20.95 -20.55 -20.4 L-21.25 -19.6 Q-21.65 -19.25 -22.25 -19.25 -22.85 -19.25 -23.3 -19.6 -23.7 -19.9 -23.7 -20.35 -23.7 -20.8 -23.3 -21.15 M-36.0 -13.9 L-34.75 -15.35 Q-34.4 -15.7 -33.4 -15.7 L-31.6 -15.35 Q-30.75 -15.0 -31.7 -14.5 L-33.05 -13.65 Q-33.4 -13.3 -34.1 -13.15 L-35.85 -12.9 Q-36.9 -12.8 -36.0 -13.9 M-13.75 17.65 L-14.05 17.65 -15.75 17.75 -17.15 18.05 -19.2 17.8 Q-20.4 17.5 -20.6 17.15 -20.8 16.8 -19.4 16.55 L-17.0 16.35 Q-16.0 16.4 -14.45 17.1 L-13.75 17.45 -13.75 17.65 M-35.75 8.45 L-33.85 8.7 Q-32.8 8.95 -32.25 9.3 -31.65 9.7 -31.6 10.25 -31.6 10.8 -30.95 11.75 -30.35 12.65 -32.4 12.1 L-35.1 11.15 Q-35.65 10.8 -36.15 9.6 -36.65 8.4 -35.75 8.45" fill="#ab8458" fill-rule="evenodd" stroke="none"/>
    <path d="M-47.85 -6.25 L-51.7 -6.7 Q-45.0 -29.8 -25.75 -28.4 -11.45 -25.6 -6.25 -5.2 -5.0 0.5 -4.35 9.0 -4.05 13.45 -3.9 36.75 L-3.8 75.05 -7.0 75.05 -7.0 74.75 Q-6.45 66.95 -6.55 59.05 -6.65 51.55 -6.2 43.85 -5.75 36.4 -6.75 29.0 -7.7 21.9 -7.6 14.05 -7.6 9.3 -8.4 4.8 L-8.45 4.55 Q-9.9 -2.25 -11.75 -9.05 -13.7 -16.55 -17.5 -20.7 -22.2 -25.75 -28.45 -24.35 -34.55 -22.95 -39.35 -19.55 -44.45 -15.95 -46.9 -9.25 L-47.85 -6.25 M-11.25 75.05 L-14.5 75.05 -14.0 67.1 Q-13.3 59.3 -14.0 51.75 -14.8 43.7 -15.05 36.55 L-15.75 21.25 -16.2 6.0 Q-16.4 -2.5 -19.65 -8.4 -22.95 -14.25 -29.9 -12.85 -36.65 -11.5 -39.55 -5.25 L-43.65 -5.75 Q-41.0 -12.5 -36.1 -14.9 -31.15 -17.3 -24.75 -16.1 -18.85 -14.95 -16.25 -7.9 -14.0 -1.55 -13.0 6.0 -12.05 13.6 -12.6 21.7 -12.95 27.75 -12.05 32.6 L-11.95 33.35 Q-11.1 40.25 -11.0 47.8 L-11.15 63.5 -11.25 75.05" fill="#a8b38c" fill-rule="evenodd" stroke="none"/>
    <path d="M-14.5 75.05 L-17.25 75.05 -18.4 36.75 Q-18.65 13.15 -19.0 9.0 -19.6 2.55 -20.35 -1.05 -22.5 -8.55 -25.75 -9.0 -30.4 -10.7 -37.2 -4.95 L-39.55 -5.25 Q-36.65 -11.5 -29.9 -12.85 -22.95 -14.25 -19.65 -8.4 -16.4 -2.5 -16.2 6.0 L-15.75 21.25 -15.05 36.55 Q-14.8 43.7 -14.0 51.75 -13.3 59.3 -14.0 67.1 L-14.5 75.05" fill="#899865" fill-rule="evenodd" stroke="none"/>
    <path d="M-7.0 75.05 L-11.25 75.05 -11.15 63.5 -11.0 47.8 Q-11.1 40.25 -11.95 33.35 L-12.05 32.6 Q-12.95 27.75 -12.6 21.7 -12.05 13.6 -13.0 6.0 -14.0 -1.55 -16.25 -7.9 -18.85 -14.95 -24.75 -16.1 -31.15 -17.3 -36.1 -14.9 -41.0 -12.5 -43.65 -5.75 L-47.85 -6.25 -46.9 -9.25 Q-44.45 -15.95 -39.35 -19.55 -34.55 -22.95 -28.45 -24.35 -22.2 -25.75 -17.5 -20.7 -13.7 -16.55 -11.75 -9.05 -9.9 -2.25 -8.45 4.55 L-8.4 4.8 Q-7.6 9.3 -7.6 14.05 -7.7 21.9 -6.75 29.0 -5.75 36.4 -6.2 43.85 -6.65 51.55 -6.55 59.05 -6.45 66.95 -7.0 74.75 L-7.0 75.05" fill="#c6cdb4" fill-rule="evenodd" stroke="none"/>
    <path d="M-51.75 -6.6 L-52.05 -5.5 M-51.7 -6.7 Q-45.0 -29.8 -25.75 -28.4 -11.45 -25.6 -6.25 -5.2 -5.0 0.5 -4.35 9.0 -4.05 13.45 -3.9 36.75 L-3.8 75.05 M-17.25 75.05 L-18.4 36.75 Q-18.65 13.15 -19.0 9.0 -19.6 2.55 -20.35 -1.05 -22.5 -8.55 -25.75 -9.0 -30.4 -10.7 -37.2 -4.95" fill="none" stroke="#5f6150" stroke-linecap="round" stroke-linejoin="round" stroke-width="1.0"/>
    <path d="M-51.7 -6.7 L-51.75 -6.6" fill="none" stroke="#5f6150" stroke-linecap="round" stroke-linejoin="round" stroke-width="0.05"/>
    <path d="M-4.1 162.0 L-4.25 162.35 -4.25 162.45 Q-5.35 166.05 -4.8 169.65 -3.9 175.95 1.05 167.65 L2.05 165.9 2.25 165.55 2.3 165.45 3.2 165.95 3.2 166.0 2.95 166.4 0.55 170.45 Q-1.7 176.2 -3.95 180.35 -5.1 180.9 -6.4 180.15 -11.75 176.95 -10.5 169.25 -9.85 164.7 -7.65 160.65 L-7.6 160.6 -7.4 160.2 -4.1 162.0" fill="#a8b38c" fill-rule="evenodd" stroke="none"/>
    <path d="M2.3 165.45 L2.25 165.55 2.05 165.9 1.05 167.65 Q-3.9 175.95 -4.8 169.65 -5.35 166.05 -4.25 162.45 L-4.25 162.35 -4.1 162.0 2.3 165.45" fill="#c6cdb4" fill-rule="evenodd" stroke="none"/>
    <path d="M-7.4 160.2 L-7.6 160.6 -7.65 160.65 Q-9.85 164.7 -10.5 169.25 -11.75 176.95 -6.4 180.15 -5.1 180.9 -3.95 180.35 -8.4 188.5 -12.85 190.3 -17.2 192.05 -20.4 187.8 -23.75 184.15 -15.4 168.0 L-11.35 163.7 -9.3 159.85 -9.25 159.75 -9.0 159.3 -7.4 160.2 M-14.65 179.35 Q-14.0 177.95 -13.85 176.8 -13.8 175.7 -14.25 175.45 -14.75 175.2 -15.5 176.0 -16.3 176.8 -16.95 178.2 -17.6 179.5 -17.7 180.6 -17.8 181.4 -17.55 181.75 L-17.3 182.0 Q-16.85 182.2 -16.1 181.45 L-15.2 180.3 -14.65 179.35" fill="#899865" fill-rule="evenodd" stroke="none"/>
    <path d="M-14.65 179.35 L-15.2 180.3 -16.1 181.45 Q-16.85 182.2 -17.3 182.0 L-17.55 181.75 Q-17.8 181.4 -17.7 180.6 -17.6 179.5 -16.95 178.2 -16.3 176.8 -15.5 176.0 -14.75 175.2 -14.25 175.45 -13.8 175.7 -13.85 176.8 -14.0 177.95 -14.65 179.35" fill="url(#gradient0)" fill-rule="evenodd" stroke="none"/>
    <path d="M-3.95 180.35 Q-1.7 176.2 0.55 170.45 L2.95 166.4 3.2 166.0 3.2 165.95 M-9.0 159.3 L-9.25 159.75 -9.3 159.85 -11.35 163.7 -15.4 168.0 Q-23.75 184.15 -20.4 187.8 -17.2 192.05 -12.85 190.3 -8.4 188.5 -3.95 180.35" fill="none" stroke="#5f6150" stroke-linecap="round" stroke-linejoin="round" stroke-width="1.0"/>
    <path d="M-26.3 -14.0 Q-25.75 -17.7 -24.0 -20.9 -22.35 -23.9 -20.5 -26.5 L-19.3 -26.3 Q-16.55 -24.65 -14.15 -22.25 -11.9 -20.0 -10.6 -16.85 L-16.0 -16.55 Q-19.5 -15.3 -21.6 -11.95 -23.0 -9.7 -23.25 -6.5 L-24.4 -7.4 Q-27.0 -9.5 -26.3 -14.0 M-41.75 -15.7 Q-44.6 -16.7 -47.5 -16.85 -46.95 -18.7 -45.6 -20.25 L-41.3 -24.55 Q-38.75 -26.75 -37.0 -24.75 -34.75 -22.1 -33.75 -18.7 L-31.55 -11.9 Q-30.4 -8.7 -33.4 -8.0 L-36.95 -12.45 Q-38.95 -14.7 -41.75 -15.7 M-39.4 -16.45 Q-36.15 -17.3 -35.75 -20.85 -38.9 -20.55 -40.05 -17.4 -40.55 -16.15 -39.4 -16.45 M-5.75 -3.1 Q-5.2 0.5 -4.9 4.2 -7.35 1.65 -11.75 2.8 -15.45 3.7 -18.25 6.3 L-19.35 7.45 Q-19.7 4.1 -20.35 0.2 -18.65 -2.55 -16.0 -4.35 -13.5 -6.05 -10.4 -6.45 -6.35 -7.0 -5.75 -3.1 M-17.45 -18.45 Q-19.3 -20.7 -22.7 -21.05 -20.85 -17.65 -17.45 -18.45 M-14.7 16.75 Q-12.45 15.05 -9.05 15.75 -6.0 16.35 -4.5 19.0 -4.2 19.55 -4.15 20.35 -3.7 24.2 -4.1 28.0 -4.3 29.1 -4.1 30.15 -6.5 27.65 -10.35 27.2 -14.3 26.75 -17.1 29.55 L-18.45 30.7 -18.8 24.0 -18.75 21.25 Q-17.1 18.5 -14.7 16.75 M-10.55 24.6 Q-9.95 25.7 -9.5 24.05 -8.3 19.35 -11.05 17.8 -12.35 21.6 -10.55 24.6 M-18.5 46.35 Q-16.8 43.6 -14.4 41.85 -12.15 40.15 -8.8 40.85 -5.7 41.45 -4.2 44.1 -3.95 44.65 -3.85 45.45 -3.4 49.3 -3.8 53.1 -4.0 54.2 -3.8 55.25 -6.2 52.75 -10.05 52.3 -14.0 51.85 -16.8 54.65 L-18.2 55.8 -18.55 49.1 -18.5 46.35 M-10.75 42.9 Q-12.05 46.7 -10.3 49.7 -9.65 50.8 -9.2 49.15 -8.0 44.45 -10.75 42.9 M-14.5 68.2 Q-12.6 66.1 -9.2 66.15 -6.05 66.15 -4.1 68.45 L-3.5 69.7 Q-2.3 73.4 -2.0 77.2 L-1.6 79.3 Q-4.4 77.3 -8.25 77.6 -12.25 77.9 -14.45 81.2 L-15.55 82.6 -17.15 76.1 -17.65 73.4 Q-16.55 70.35 -14.5 68.2 M-8.0 74.35 Q-7.7 69.5 -10.75 68.55 -11.3 72.5 -9.0 75.1 -8.15 76.05 -8.0 74.35 M-4.2 92.65 Q-3.05 90.05 0.2 89.05 3.15 88.05 5.75 89.65 L6.75 90.65 Q9.05 93.75 10.55 97.3 10.9 98.3 11.6 99.15 8.3 98.1 4.7 99.65 1.05 101.15 -0.05 105.0 L-0.65 106.65 -4.2 101.0 -5.55 98.55 Q-5.45 95.35 -4.2 92.65 M-18.05 161.9 L-17.85 161.9 -18.05 162.05 -18.05 161.9 M-3.15 149.25 L-1.85 146.85 Q0.95 145.25 3.95 144.85 6.75 144.45 9.35 146.7 11.7 148.7 11.75 151.75 L11.4 153.1 Q9.95 156.7 7.75 159.8 7.05 160.7 6.7 161.7 5.85 158.35 2.7 156.1 -0.55 153.8 -4.35 154.9 L-5.85 155.25 -6.0 155.15 -3.15 149.25 M3.9 96.45 Q2.65 91.75 -0.5 91.8 0.2 95.75 3.25 97.5 4.3 98.1 3.9 96.45 M6.2 120.35 Q8.3 119.15 11.2 119.75 L13.05 120.35 Q14.75 121.2 15.8 123.0 L16.15 124.35 Q16.6 128.2 16.2 132.0 16.0 133.1 16.2 134.15 13.8 131.65 9.95 131.2 6.0 130.75 3.2 133.55 L1.8 134.7 1.45 128.0 Q1.4 126.55 1.5 125.25 3.2 122.5 5.6 120.75 L6.2 120.35 M10.8 128.05 Q12.0 123.35 9.25 121.8 7.95 125.6 9.7 128.6 10.35 129.7 10.8 128.05 M4.95 153.75 Q8.25 150.2 6.6 147.55 3.65 150.25 3.75 153.7 L4.95 153.75 M-11.15 0.8 Q-10.05 -4.5 -13.25 -4.5 -13.8 0.25 -11.15 0.8" fill="#443422" fill-rule="evenodd" stroke="none"/>
    <path d="M-39.4 -16.45 Q-40.55 -16.15 -40.05 -17.4 -38.9 -20.55 -35.75 -20.85 -36.15 -17.3 -39.4 -16.45 M-17.45 -18.45 Q-20.85 -17.65 -22.7 -21.05 -19.3 -20.7 -17.45 -18.45 M-10.55 24.6 Q-12.35 21.6 -11.05 17.8 -8.3 19.35 -9.5 24.05 -9.95 25.7 -10.55 24.6 M-10.75 42.9 Q-8.0 44.45 -9.2 49.15 -9.65 50.8 -10.3 49.7 -12.05 46.7 -10.75 42.9 M-8.0 74.35 Q-8.15 76.05 -9.0 75.1 -11.3 72.5 -10.75 68.55 -7.7 69.5 -8.0 74.35 M3.9 96.45 Q4.3 98.1 3.25 97.5 0.2 95.75 -0.5 91.8 2.65 91.75 3.9 96.45 M-11.15 0.8 Q-13.8 0.25 -13.25 -4.5 -10.05 -4.5 -11.15 0.8 M4.95 153.75 L3.75 153.7 Q3.65 150.25 6.6 147.55 8.25 150.2 4.95 153.75 M10.8 128.05 Q10.35 129.7 9.7 128.6 7.95 125.6 9.25 121.8 12.0 123.35 10.8 128.05" fill="#ab8458" fill-rule="evenodd" stroke="none"/>
  </g>
  <defs>
    <radialGradient cx="0" cy="0" gradientTransform="matrix(-0.0017, -9.0E-4, 0.0027, -0.0052, -15.8, 179.0)" gradientUnits="userSpaceOnUse" id="gradient0" r="819.2" spreadMethod="pad">
      <stop offset="0.0" stop-color="#ffffff"/>
      <stop offset="0.6705882352941176" stop-color="#000000"/>
    </radialGradient>
  </defs>
</svg>
