<?xml version="1.0" encoding="UTF-8" standalone="no"?>
<svg xmlns:xlink="http://www.w3.org/1999/xlink" height="269.2px" width="106.0px" xmlns="http://www.w3.org/2000/svg">
  <g transform="matrix(1.0, 0.0, 0.0, 1.0, 53.35, 37.85)">
    <path d="M-30.3 200.1 L-29.65 199.05 -28.15 196.75 -20.75 185.85 -11.25 173.15 Q-6.05 166.35 -2.55 159.95 1.3 152.95 3.85 144.9 L5.35 139.6 6.2 135.9 7.35 129.0 Q8.5 120.05 6.4 111.75 L6.05 110.35 Q3.95 103.15 -0.5 96.7 L-0.55 96.65 -1.05 95.9 Q-5.35 89.65 -8.55 80.85 -11.8 72.0 -11.35 63.8 L-8.0 63.25 Q-6.05 76.6 -3.5 81.0 L4.05 94.9 Q7.65 101.9 10.4 109.65 13.15 117.6 12.35 126.75 11.6 134.9 9.2 143.05 6.7 151.6 3.35 158.2 -0.45 165.65 -5.25 172.0 -9.85 177.95 -13.65 184.55 -17.5 191.1 -22.8 197.4 L-26.2 201.95 -30.3 200.1" fill="#c6cdb4" fill-rule="evenodd" stroke="none"/>
    <path d="M-26.2 201.95 L-22.8 197.4 Q-17.5 191.1 -13.65 184.55 -9.85 177.95 -5.25 172.0 -0.45 165.65 3.35 158.2 6.7 151.6 9.2 143.05 11.6 134.9 12.35 126.75 13.15 117.6 10.4 109.65 7.65 101.9 4.05 94.9 L-3.5 81.0 Q-6.05 76.6 -8.0 63.25 L-11.35 63.8 Q-11.8 72.0 -8.55 80.85 -5.35 89.65 -1.05 95.9 L-0.55 96.65 -0.5 96.7 Q3.95 103.15 6.05 110.35 L6.4 111.75 Q8.5 120.05 7.35 129.0 L6.2 135.9 5.35 139.6 3.85 144.9 Q1.3 152.95 -2.55 159.95 -6.05 166.35 -11.25 173.15 L-20.75 185.85 -28.15 196.75 -29.65 199.05 -30.3 200.1 -31.9 199.35 -31.05 198.15 -31.05 198.1 -29.55 195.9 -29.5 195.85 Q-25.55 190.2 -22.65 184.75 L-21.5 182.5 Q-17.95 175.35 -13.0 169.1 -8.6 163.55 -4.4 156.75 -0.4 150.25 2.3 144.15 L2.85 142.75 4.05 139.3 4.9 135.6 Q5.45 132.4 5.55 128.95 L5.55 127.65 Q5.55 118.55 3.4 111.1 1.35 103.7 -2.4 97.8 L-2.85 97.1 -2.9 97.05 -11.3 83.7 Q-14.2 78.95 -14.7 72.25 L-14.65 72.25 -14.45 71.35 -16.05 65.7 Q-7.6 58.4 -3.5 62.85 -6.25 68.9 7.05 90.6 23.5 121.8 12.35 147.5 6.15 162.4 -20.25 202.5 L-21.55 204.05 -26.2 201.95" fill="#a8b38c" fill-rule="evenodd" stroke="none"/>
    <path d="M-16.05 65.7 L-14.45 71.35 -14.65 72.25 -14.7 72.25 Q-14.2 78.95 -11.3 83.7 L-2.9 97.05 -2.85 97.1 -2.4 97.8 Q1.35 103.7 3.4 111.1 5.55 118.55 5.55 127.65 L5.55 128.95 Q5.45 132.4 4.9 135.6 L4.05 139.3 2.85 142.75 2.3 144.15 Q-0.4 150.25 -4.4 156.75 -8.6 163.55 -13.0 169.1 -17.95 175.35 -21.5 182.5 L-22.65 184.75 Q-25.55 190.2 -29.5 195.85 L-29.55 195.9 -31.05 198.1 -31.05 198.15 -31.9 199.35 -34.1 198.35 -4.85 152.05 Q11.65 125.45 -5.2 97.9 -13.0 90.45 -17.45 71.35 -18.2 65.6 -16.05 65.7" fill="#899865" fill-rule="evenodd" stroke="none"/>
    <path d="M-21.55 204.05 L-20.25 202.5 Q6.15 162.4 12.35 147.5 23.5 121.8 7.05 90.6 -6.25 68.9 -3.5 62.85 M-18.1 68.5 L-17.45 71.35 Q-13.0 90.45 -5.2 97.9 11.65 125.45 -4.85 152.05 L-34.1 198.35" fill="none" stroke="#5f6150" stroke-linecap="round" stroke-linejoin="round" stroke-width="1.0"/>
    <path d="M-26.85 -19.95 L-28.1 -19.25 Q-36.4 -14.75 -40.7 -11.45 -45.0 -8.2 -46.1 -8.0 -47.2 -7.8 -47.45 -4.35 -47.75 -0.55 -45.55 1.85 L-41.05 6.15 -34.8 11.1 -30.4 14.45 Q-28.15 16.15 -24.55 17.1 L-16.0 18.65 -6.45 19.05 1.45 18.15 9.0 16.55 Q13.2 15.65 17.8 14.2 22.1 12.8 26.05 11.05 L32.45 8.2 33.75 7.6 Q37.95 5.45 40.7 2.45 43.8 -1.0 44.85 -5.05 45.9 -9.1 45.65 -12.65 45.35 -16.25 42.25 -18.65 L34.8 -24.3 33.75 -25.05 28.7 -28.2 Q24.95 -30.2 21.25 -31.8 16.35 -33.95 11.3 -35.2 9.05 -35.75 6.75 -35.25 -3.35 -33.1 -12.45 -27.45 -16.75 -24.8 -21.3 -22.95 L-26.95 -20.45 -25.8 -20.5 -26.2 -20.3 -26.85 -20.35 -28.3 -20.45 -28.4 -20.45 -1.4 -35.55 Q0.25 -36.35 2.05 -36.8 14.5 -39.8 33.75 -26.65 L36.05 -25.05 43.85 -19.3 46.05 -17.3 49.0 -13.5 Q50.8 -11.0 52.0 -8.0 52.9 -3.05 47.95 0.95 40.55 6.8 33.75 11.35 L23.4 17.75 Q23.3 17.75 23.25 17.85 L19.0 18.7 11.65 20.0 4.25 21.4 -2.95 22.9 Q-6.7 23.7 -10.65 23.0 L-17.7 21.55 Q-21.45 20.6 -24.7 19.05 -28.1 17.45 -31.75 16.3 -35.3 15.2 -38.35 12.65 L-43.65 8.15 -48.55 3.25 Q-50.7 0.85 -52.35 -2.15 L-51.8 -4.75 -51.55 -5.7 Q-50.8 -7.2 -49.7 -8.35 L-44.35 -11.8 -49.7 -8.35 Q-47.6 -10.75 -44.35 -11.8 L-43.7 -12.0 Q-42.9 -12.3 -41.95 -12.95 L-40.95 -13.5 -36.35 -16.3 -32.0 -18.75 -30.7 -19.4 -32.0 -18.75 -36.35 -16.3 -40.95 -13.5 -41.95 -12.95 -40.3 -14.2 -38.1 -15.85 Q-33.95 -18.55 -30.7 -19.4 L-30.0 -19.6 -26.9 -19.95 -26.85 -19.95 M2.55 -31.85 Q5.8 -33.45 9.75 -32.5 13.5 -31.6 16.95 -30.0 L23.65 -27.05 Q27.0 -25.6 30.3 -23.8 L33.75 -21.65 36.25 -19.85 Q39.15 -17.65 40.9 -13.7 42.65 -9.75 40.9 -6.75 39.1 -3.75 37.1 -0.9 35.65 1.1 33.75 2.6 L31.85 3.9 25.55 7.4 Q22.65 8.95 19.15 10.15 L12.35 12.35 5.5 14.15 -1.95 15.45 -9.3 16.45 -16.8 16.25 -23.95 14.45 Q-27.45 13.4 -30.3 11.1 -32.95 8.9 -37.15 3.95 -40.1 0.55 -40.7 -1.15 -41.15 -1.5 -41.9 -3.15 -43.5 -6.45 -16.0 -21.2 -22.1 -19.4 -21.5 -20.35 -18.95 -20.5 -16.55 -21.65 -13.25 -23.3 -10.5 -24.7 L-3.95 -28.35 2.55 -31.85 M-14.95 14.2 L2.35 13.35 Q13.5 11.55 24.55 5.55 30.45 2.35 33.75 -3.05 35.4 -5.8 36.45 -9.0 L36.9 -10.7 37.1 -11.55 36.95 -11.4 36.85 -11.35 36.95 -11.6 Q37.2 -12.7 37.0 -13.95 L37.45 -15.15 36.95 -14.05 36.9 -14.25 Q36.2 -17.55 33.75 -19.3 L32.6 -20.05 26.2 -23.5 Q22.9 -25.3 19.5 -26.7 15.95 -28.1 12.5 -28.8 8.65 -29.55 4.9 -28.85 1.35 -28.15 -2.1 -26.75 L-8.45 -23.9 Q-11.75 -22.3 -15.1 -20.8 -17.45 -19.8 -19.45 -18.35 -16.35 -19.55 -19.55 -17.5 -22.75 -15.45 -23.9 -13.25 L-26.6 -12.15 Q-36.75 -7.8 -36.55 -1.7 -35.8 10.4 -19.3 13.65 L-15.35 14.3 -14.95 14.35 -14.95 14.2 M-15.35 14.3 L-15.35 14.4 -15.35 14.3 M35.85 -12.3 L35.7 -12.4 35.8 -12.45 35.85 -12.3 M-16.55 -17.2 L-16.6 -17.15 -17.1 -17.3 -16.55 -17.2 M36.55 -11.55 L36.55 -11.35 36.45 -11.3 36.55 -11.55 M-50.5 -7.85 L-51.95 -5.6 -52.2 -4.7 -51.95 -5.65 -50.5 -7.85 M-51.05 6.4 L-51.0 6.25 -48.35 9.7 Q-50.0 8.15 -51.05 6.4 M-27.45 22.3 L-24.8 23.25 -21.0 24.5 -12.8 26.6 -4.75 27.65 -4.75 27.7 -4.75 27.75 -5.15 27.75 Q-14.4 28.5 -21.7 24.85 L-25.2 23.3 -27.45 22.3 M-25.15 -15.55 L-25.1 -15.55 -25.95 -15.05 -25.15 -15.55 M-23.8 -16.2 L-23.8 -16.1 Q-23.35 -16.6 -24.8 -15.75 L-24.9 -15.65 -23.8 -16.2" fill="#a8b38c" fill-rule="evenodd" stroke="none"/>
    <path d="M-26.2 -20.3 L-25.8 -20.5 -26.95 -20.45 -21.3 -22.95 Q-16.75 -24.8 -12.45 -27.45 -3.35 -33.1 6.75 -35.25 9.05 -35.75 11.3 -35.2 16.35 -33.95 21.25 -31.8 24.95 -30.2 28.7 -28.2 L33.75 -25.05 34.8 -24.3 42.25 -18.65 Q45.35 -16.25 45.65 -12.65 45.9 -9.1 44.85 -5.05 43.8 -1.0 40.7 2.45 37.95 5.45 33.75 7.6 L32.45 8.2 26.05 11.05 Q22.1 12.8 17.8 14.2 13.2 15.65 9.0 16.55 L1.45 18.15 -6.45 19.05 -16.0 18.65 -24.55 17.1 Q-28.15 16.15 -30.4 14.45 L-34.8 11.1 -41.05 6.15 -45.55 1.85 Q-47.75 -0.55 -47.45 -4.35 -47.2 -7.8 -46.1 -8.0 -45.0 -8.2 -40.7 -11.45 -36.4 -14.75 -28.1 -19.25 L-26.85 -19.95 -23.7 -20.85 -26.2 -20.3 M2.55 -31.85 L-3.95 -28.35 -10.5 -24.7 Q-13.25 -23.3 -16.55 -21.65 -18.95 -20.5 -21.5 -20.35 -22.1 -19.4 -16.0 -21.2 -43.5 -6.45 -41.9 -3.15 -41.15 -1.5 -40.7 -1.15 -40.1 0.55 -37.15 3.95 -32.95 8.9 -30.3 11.1 -27.45 13.4 -23.95 14.45 L-16.8 16.25 -9.3 16.45 -1.95 15.45 5.5 14.15 12.35 12.35 19.15 10.15 Q22.65 8.95 25.55 7.4 L31.85 3.9 33.75 2.6 Q35.65 1.1 37.1 -0.9 39.1 -3.75 40.9 -6.75 42.65 -9.75 40.9 -13.7 39.15 -17.65 36.25 -19.85 L33.75 -21.65 30.3 -23.8 Q27.0 -25.6 23.65 -27.05 L16.95 -30.0 Q13.5 -31.6 9.75 -32.5 5.8 -33.45 2.55 -31.85 M-14.0 -16.9 L-13.8 -16.9 -14.1 -16.8 -14.0 -16.9 M-13.45 -17.05 L-13.35 -17.0 -13.45 -16.95 -13.45 -17.05" fill="#c6cdb4" fill-rule="evenodd" stroke="none"/>
    <path d="M-26.85 -19.95 L-26.9 -19.95 -30.0 -19.6 -30.2 -19.55 -30.4 -19.55 -30.6 -19.5 -30.95 -19.5 -29.55 -20.2 -29.2 -20.4 -28.9 -20.4 -28.8 -20.45 -28.7 -20.45 -28.8 -20.4 -28.7 -20.4 -28.6 -20.45 -28.4 -20.45 -28.3 -20.45 -26.85 -20.35 -26.2 -20.3 -23.7 -20.85 -26.85 -19.95 M-52.35 -2.15 Q-50.7 0.85 -48.55 3.25 L-43.65 8.15 -38.35 12.65 Q-35.3 15.2 -31.75 16.3 -28.1 17.45 -24.7 19.05 -21.45 20.6 -17.7 21.55 L-10.65 23.0 Q-6.7 23.7 -2.95 22.9 L4.25 21.4 11.65 20.0 19.0 18.7 23.25 17.85 Q7.5 26.6 -4.75 27.75 L-4.75 27.7 -4.75 27.65 -12.8 26.6 -21.0 24.5 -24.8 23.25 -27.45 22.3 -35.4 18.45 -27.45 22.3 -29.2 21.6 Q-32.4 20.3 -35.4 18.45 L-35.5 18.4 -40.45 15.65 -43.4 13.8 Q-45.75 12.2 -47.05 10.85 L-48.35 9.7 -47.05 10.85 Q-45.75 12.2 -43.4 13.8 L-40.45 15.65 -41.65 15.1 -43.4 14.15 -43.95 13.8 Q-45.9 12.5 -47.55 10.65 L-48.35 9.7 -51.0 6.25 -51.05 6.4 -52.3 3.55 -52.1 2.7 -52.15 2.6 -52.15 2.5 -52.4 0.9 -52.45 -0.3 -52.5 -0.4 -52.75 -1.85 -52.85 -0.25 -52.9 -0.35 Q-53.4 -1.85 -53.0 -2.55 L-52.75 -2.1 -52.7 -2.4 -52.6 -2.6 -52.35 -2.15 M-15.35 14.3 L-19.3 13.65 Q-35.8 10.4 -36.55 -1.7 -36.75 -7.8 -26.6 -12.15 L-23.9 -13.25 Q-22.75 -15.45 -19.55 -17.5 -16.35 -19.55 -19.45 -18.35 -17.45 -19.8 -15.1 -20.8 -11.75 -22.3 -8.45 -23.9 L-2.1 -26.75 Q1.35 -28.15 4.9 -28.85 8.65 -29.55 12.5 -28.8 15.95 -28.1 19.5 -26.7 22.9 -25.3 26.2 -23.5 L32.6 -20.05 33.75 -19.3 Q36.2 -17.55 36.9 -14.25 L36.95 -14.05 37.45 -15.15 37.0 -13.95 Q37.2 -12.7 36.95 -11.6 L36.85 -11.35 36.95 -11.4 37.1 -11.55 36.9 -10.7 36.45 -9.0 Q35.4 -5.8 33.75 -3.05 30.45 2.35 24.55 5.55 13.5 11.55 2.35 13.35 L-14.95 14.2 -14.95 14.35 -15.35 14.3 M17.9 -23.95 Q12.1 -25.3 12.85 -24.85 L13.0 -24.75 9.85 -25.25 3.15 -24.85 -4.4 -23.0 -9.7 -21.05 Q-12.6 -19.75 -15.05 -17.9 L-16.0 -17.15 -16.1 -17.1 -16.15 -17.05 -16.85 -16.6 -17.25 -16.75 -21.45 -13.7 -27.2 -10.3 -30.35 -8.2 Q-31.5 -7.4 -32.25 -6.2 -34.3 0.25 -33.5 0.5 L-33.8 1.35 -33.8 1.55 Q-28.55 7.2 -27.1 7.55 L-26.85 7.85 Q-24.65 9.9 -15.6 11.1 -7.0 12.25 -0.5 11.4 L4.6 10.35 Q12.5 7.95 20.5 3.35 L17.05 3.35 Q23.65 3.2 30.9 -3.6 L33.9 -6.7 34.05 -7.25 35.15 -8.55 Q36.25 -9.75 36.0 -12.2 L35.85 -12.3 35.8 -12.45 35.55 -12.95 Q34.9 -14.2 33.75 -15.3 L32.75 -16.15 Q29.9 -18.35 31.8 -17.05 33.65 -15.75 29.35 -18.85 25.0 -21.95 21.5 -22.95 L17.9 -23.95 Q18.4 -24.15 18.35 -24.3 L23.65 -22.35 25.7 -21.3 Q29.4 -19.35 33.05 -16.5 29.4 -19.35 25.7 -21.3 L23.65 -22.35 18.35 -24.3 Q18.4 -24.15 17.9 -23.95 M-16.55 -17.2 L-16.5 -17.25 Q1.75 -29.15 18.35 -24.3 L18.3 -24.5 18.35 -24.3 18.3 -24.5 18.35 -24.3 Q1.75 -29.15 -16.5 -17.25 L-16.55 -17.2 -17.1 -17.3 -16.6 -17.15 -16.55 -17.2 M36.55 -11.55 L36.55 -11.65 Q36.6 -11.9 36.6 -11.6 36.55 -11.0 36.55 -11.35 36.55 -11.0 36.6 -11.6 36.6 -11.9 36.55 -11.65 L36.55 -11.55 36.45 -11.3 36.55 -11.35 36.55 -11.55 M33.25 -16.35 L33.75 -15.95 Q35.6 -14.5 36.2 -12.9 L36.25 -12.85 36.3 -12.7 36.35 -12.55 36.55 -11.65 36.15 -10.35 Q35.7 -8.5 35.05 -7.5 L33.75 -5.95 32.85 -5.05 32.3 -4.55 Q28.3 -0.85 22.5 3.05 L23.4 2.3 23.5 2.1 Q14.7 7.45 2.55 11.2 L-0.5 11.4 2.55 11.2 Q14.7 7.45 23.5 2.1 L23.4 2.3 22.5 3.05 Q28.3 -0.85 32.3 -4.55 L32.85 -5.05 33.75 -5.95 35.05 -7.5 Q35.7 -8.5 36.15 -10.35 L36.55 -11.65 36.35 -12.55 36.3 -12.7 36.25 -12.85 36.2 -12.9 Q35.6 -14.5 33.75 -15.95 L33.25 -16.35 M-17.25 -16.75 L-16.6 -17.15 -17.25 -16.75 M-52.75 -1.85 L-52.75 -2.1 -52.75 -1.85 M-29.55 -20.2 L-28.7 -20.4 -29.55 -20.2 M-25.15 -15.55 L-25.95 -15.05 -25.1 -15.55 -25.15 -15.55 M-23.8 -16.2 L-24.9 -15.65 -24.8 -15.75 Q-23.35 -16.6 -23.8 -16.1 L-23.8 -16.2 M-34.3 1.6 L-33.75 2.35 -33.7 3.1 -33.75 2.35 -34.3 1.6 M-26.85 7.85 Q-31.2 5.7 -33.75 2.35 L-33.8 1.55 -33.75 2.35 Q-31.2 5.7 -26.85 7.85 M-33.8 1.35 Q-34.0 -3.45 -32.25 -6.2 -34.0 -3.45 -33.8 1.35 M22.5 3.05 L23.5 2.1 22.5 3.05" fill="#899865" fill-rule="evenodd" stroke="none"/>
    <path d="M52.0 -8.0 Q50.8 -11.0 49.0 -13.5 L46.05 -17.3 Q51.25 -12.3 52.0 -8.0 M-14.95 14.2 L-14.95 14.35 -14.95 14.2 M-15.35 14.3 L-15.35 14.4 -15.35 14.3" fill="#97a477" fill-rule="evenodd" stroke="none"/>
    <path d="M-30.7 -19.4 L-32.0 -18.75 -36.35 -16.3 -40.95 -13.5 -41.95 -12.95 -44.1 -11.95 -44.35 -11.8 -49.7 -8.35 -50.5 -7.85 -51.95 -5.6 -52.2 -4.7 -52.7 -2.4 -52.75 -2.1 -52.75 -1.85 -52.85 -0.25 M23.25 17.85 Q23.3 17.75 23.4 17.75 L33.75 11.35 Q40.55 6.8 47.95 0.95 52.9 -3.05 52.0 -8.0 51.25 -12.3 46.05 -17.3 L43.85 -19.3 36.05 -25.05 33.75 -26.65 Q14.5 -39.8 2.05 -36.8 0.05 -36.35 -1.8 -35.45 L-28.6 -20.45 -28.7 -20.4 -29.55 -20.2 M-17.25 -16.75 L-21.45 -13.7 -27.2 -10.3 -30.35 -8.2 Q-31.5 -7.4 -32.25 -6.2 -34.0 -3.45 -33.8 1.35 L-33.8 1.55 -33.75 2.35 Q-31.2 5.7 -26.85 7.85 -17.65 12.3 -0.5 11.4 L2.55 11.2 Q14.7 7.45 23.5 2.1 L23.4 2.3 22.5 3.05 Q28.3 -0.85 32.3 -4.55 L32.85 -5.05 33.75 -5.95 35.05 -7.5 Q35.7 -8.5 36.15 -10.35 L36.55 -11.65 36.35 -12.55 36.3 -12.7 36.25 -12.85 36.2 -12.9 Q35.6 -14.5 33.75 -15.95 L33.25 -16.35 M17.9 -23.95 L17.0 -23.6 M18.35 -24.3 L18.3 -24.5 18.35 -24.3 Q1.75 -29.15 -16.5 -17.25 L-16.55 -17.2 -16.6 -17.15 -17.25 -16.75 M33.05 -16.5 Q29.4 -19.35 25.7 -21.3 L23.65 -22.35 18.35 -24.3 Q18.4 -24.15 17.9 -23.95 M36.55 -11.35 Q36.55 -11.0 36.6 -11.6 36.6 -11.9 36.55 -11.65 L36.55 -11.55 36.55 -11.35 M-30.7 -19.4 L-30.4 -19.55 M-52.3 3.55 L-51.05 6.4 Q-50.0 8.15 -48.35 9.7 L-47.05 10.85 Q-45.75 12.2 -43.4 13.8 L-40.45 15.65 -35.5 18.4 -35.4 18.45 -27.45 22.3 -25.2 23.3 -21.7 24.85 Q-14.4 28.5 -5.15 27.75 L-4.75 27.75 Q7.5 26.6 23.25 17.85 M-33.7 3.1 L-33.75 2.35 -34.3 1.6 M-52.5 2.75 L-52.85 0.5 -52.85 0.15 M23.5 2.1 L22.5 3.05" fill="none" stroke="#5f6150" stroke-linecap="round" stroke-linejoin="round" stroke-width="1.0"/>
    <path d="M24.8 -28.55 L24.95 -28.55 Q26.05 -28.75 27.4 -28.55 L29.5 -27.95 30.8 -26.6 Q31.25 -25.75 30.4 -25.25 29.5 -24.8 28.35 -26.05 27.2 -27.3 26.0 -26.7 L24.5 -26.75 24.2 -27.45 24.45 -28.0 24.8 -28.55 M8.15 -34.15 L9.5 -34.65 12.95 -35.25 15.25 -34.8 Q16.25 -34.35 16.45 -33.6 L16.6 -31.8 16.35 -31.3 Q15.8 -30.95 14.3 -32.4 12.85 -33.85 10.5 -33.45 L7.7 -33.5 7.7 -33.55 8.15 -34.15 M36.5 -18.95 Q35.85 -20.2 36.6 -20.35 L38.45 -20.1 40.05 -19.3 41.05 -18.05 Q41.55 -17.25 41.1 -16.85 L39.4 -16.65 Q38.15 -16.9 37.65 -17.3 37.15 -17.7 36.5 -18.95 M39.25 -1.8 Q40.05 -2.7 40.5 -4.0 40.95 -5.35 42.3 -5.9 43.6 -6.45 44.25 -5.0 44.9 -3.55 44.0 -3.3 43.05 -3.05 42.85 -2.3 42.65 -1.6 41.85 -0.8 41.05 0.0 39.75 -0.45 38.45 -0.9 39.25 -1.8 M30.8 7.4 Q30.5 8.15 29.85 8.4 L28.0 8.85 25.6 9.1 Q24.4 9.15 25.2 8.25 L26.65 7.05 28.65 6.3 30.5 6.25 Q31.05 6.65 30.8 7.4 M8.15 15.45 L9.6 14.25 11.6 13.5 13.45 13.45 Q14.0 13.85 13.75 14.6 13.45 15.35 12.8 15.6 L10.95 16.05 8.55 16.3 Q7.35 16.35 8.15 15.45 M-43.45 -9.65 Q-41.25 -11.0 -38.75 -11.6 -36.3 -12.2 -36.05 -11.1 -35.85 -10.0 -37.85 -9.5 -39.9 -9.0 -41.25 -7.7 -42.65 -6.4 -43.6 -6.0 L-45.65 -5.95 Q-46.8 -6.3 -46.25 -7.3 -45.7 -8.35 -43.45 -9.65 M-13.85 -24.95 Q-13.8 -24.45 -14.1 -23.8 -14.45 -23.15 -14.9 -22.8 -15.35 -22.45 -16.2 -22.4 L-18.05 -22.6 Q-19.0 -22.85 -18.2 -23.5 L-17.0 -24.5 -15.2 -25.15 Q-13.9 -25.45 -13.85 -24.95 M-1.8 -31.0 L-1.05 -30.45 Q-1.05 -30.15 -1.8 -29.95 L-4.2 -28.95 -6.05 -29.05 -6.05 -30.3 Q-5.95 -30.75 -5.25 -31.0 L-3.5 -31.2 -1.8 -31.0 M-26.6 -17.1 Q-27.35 -17.05 -27.95 -16.45 -28.6 -15.95 -29.0 -16.3 -29.4 -16.65 -28.95 -17.25 L-27.7 -18.1 Q-26.9 -18.35 -26.3 -18.75 L-25.3 -18.8 Q-24.9 -18.4 -25.35 -17.8 -25.85 -17.15 -26.6 -17.1 M-9.65 18.2 Q-11.2 17.75 -10.45 17.5 L-8.9 17.0 -7.15 16.75 -3.65 17.05 Q-1.15 17.3 -3.0 17.7 L-5.5 18.4 -7.15 18.65 -9.65 18.2 M-40.4 2.75 L-39.95 2.9 -37.85 4.0 Q-37.05 4.55 -37.05 4.95 -37.05 5.35 -38.1 5.75 L-40.15 6.1 Q-41.15 6.1 -41.35 5.75 L-41.55 4.95 -41.35 3.45 -41.25 3.05 -40.4 2.75 M-23.55 15.1 L-23.25 16.3 -25.1 16.4 Q-27.05 15.9 -27.7 15.6 L-28.35 14.95 Q-28.35 14.55 -27.7 14.25 L-26.1 14.0 -24.5 14.25 Q-23.85 14.55 -23.55 15.1" fill="#ab8458" fill-rule="evenodd" stroke="none"/>
    <path d="M24.2 -27.45 L24.5 -26.75 26.0 -26.7 Q27.2 -27.3 28.35 -26.05 29.5 -24.8 30.4 -25.25 31.25 -25.75 30.8 -26.6 L29.5 -27.95 27.4 -28.55 Q26.05 -28.75 24.95 -28.55 L24.8 -28.55 Q26.05 -30.4 28.45 -29.45 31.45 -28.2 34.3 -26.65 32.05 -26.7 30.6 -25.3 27.95 -22.8 29.4 -19.2 L30.3 -18.6 Q25.35 -21.45 25.0 -21.9 23.1 -24.55 24.2 -27.45 M16.6 -31.8 L16.45 -33.6 Q16.25 -34.35 15.25 -34.8 L12.95 -35.25 9.5 -34.65 8.15 -34.15 9.05 -35.05 Q11.8 -37.3 15.65 -36.25 18.85 -35.4 21.0 -33.65 17.75 -33.8 16.6 -31.8 M7.7 -33.55 L7.7 -33.5 10.5 -33.45 Q12.85 -33.85 14.3 -32.4 15.8 -30.95 16.35 -31.3 L16.05 -30.4 Q15.4 -27.4 16.8 -24.9 17.95 -24.7 19.1 -24.0 L9.85 -26.0 Q7.85 -26.5 7.15 -28.75 6.3 -31.45 7.7 -33.55 M36.5 -18.95 Q37.15 -17.7 37.65 -17.3 38.15 -16.9 39.4 -16.65 L41.1 -16.85 Q41.55 -17.25 41.05 -18.05 L40.05 -19.3 38.45 -20.1 36.6 -20.35 Q35.85 -20.2 36.5 -18.95 M36.35 -13.25 Q34.75 -14.4 34.55 -16.15 34.1 -20.0 37.55 -20.7 41.25 -21.45 43.85 -19.3 46.0 -17.5 47.4 -15.45 44.45 -17.6 40.65 -16.25 37.55 -15.1 36.8 -12.15 L36.8 -12.1 36.8 -12.15 Q36.8 -12.95 36.35 -13.25 M39.25 -1.8 Q38.45 -0.9 39.75 -0.45 41.05 0.0 41.85 -0.8 42.65 -1.6 42.85 -2.3 43.05 -3.05 44.0 -3.3 44.9 -3.55 44.25 -5.0 43.6 -6.45 42.3 -5.9 40.95 -5.35 40.5 -4.0 40.05 -2.7 39.25 -1.8 M30.5 -2.6 L34.1 -6.35 Q37.3 -7.8 41.2 -6.95 44.9 -6.15 46.05 -2.3 46.5 -0.75 46.45 0.5 46.3 2.8 44.3 4.1 L43.15 4.9 40.9 5.95 41.05 4.85 Q41.15 2.9 40.05 0.8 L39.85 0.4 Q38.3 -2.5 34.3 -2.9 L30.5 -2.6 M30.8 7.4 Q31.05 6.65 30.5 6.25 L28.65 6.3 26.65 7.05 25.2 8.25 Q24.4 9.15 25.6 9.1 L28.0 8.85 29.85 8.4 Q30.5 8.15 30.8 7.4 M13.7 11.5 L13.85 11.8 Q15.4 14.9 14.8 18.8 14.45 21.2 8.95 25.0 L8.9 24.95 4.7 26.2 5.85 24.0 Q7.7 20.9 7.8 16.9 7.9 13.5 5.85 11.5 L4.9 10.75 9.45 9.55 Q12.25 9.0 13.7 11.5 M30.95 10.65 L30.7 11.5 Q29.95 13.7 22.35 18.75 L21.6 18.8 21.85 18.55 21.6 18.6 22.85 16.6 Q24.25 14.35 24.35 11.5 L24.25 9.5 Q23.85 5.6 20.15 4.2 21.55 3.4 22.4 2.6 23.1 2.0 23.75 1.65 25.0 1.0 26.25 1.2 L27.2 1.45 Q28.05 1.75 28.9 2.45 30.05 3.35 30.65 4.7 31.15 5.85 31.25 7.35 31.35 9.05 30.95 10.65 M-43.45 -9.65 Q-45.7 -8.35 -46.25 -7.3 -46.8 -6.3 -45.65 -5.95 L-43.6 -6.0 Q-42.65 -6.4 -41.25 -7.7 -39.9 -9.0 -37.85 -9.5 -35.85 -10.0 -36.05 -11.1 -36.3 -12.2 -38.75 -11.6 -41.25 -11.0 -43.45 -9.65 M8.15 15.45 Q7.35 16.35 8.55 16.3 L10.95 16.05 12.8 15.6 Q13.45 15.35 13.75 14.6 14.0 13.85 13.45 13.45 L11.6 13.5 9.6 14.25 8.15 15.45 M-44.15 -5.35 Q-50.3 -5.35 -52.55 -0.35 L-52.35 -2.55 Q-51.15 -9.2 -44.45 -12.05 -43.0 -12.65 -41.25 -12.75 -35.2 -13.15 -33.1 -8.25 -31.45 -4.3 -34.3 -1.2 -38.35 -5.3 -44.15 -5.35 M-1.8 -31.0 L-3.5 -31.2 -5.25 -31.0 Q-5.95 -30.75 -6.05 -30.3 L-6.05 -29.05 -4.2 -28.95 -1.8 -29.95 Q-1.05 -30.15 -1.05 -30.45 L-1.8 -31.0 M-13.85 -24.95 Q-13.9 -25.45 -15.2 -25.15 L-17.0 -24.5 -18.2 -23.5 Q-19.0 -22.85 -18.05 -22.6 L-16.2 -22.4 Q-15.35 -22.45 -14.9 -22.8 -14.45 -23.15 -14.1 -23.8 -13.8 -24.45 -13.85 -24.95 M-10.75 -30.25 Q-7.8 -31.6 -4.4 -33.85 -0.2 -33.4 0.75 -29.5 1.9 -25.05 -1.85 -23.9 L-4.45 -22.95 -5.3 -22.95 Q-3.6 -25.85 -6.15 -28.75 -7.75 -30.6 -10.75 -30.25 M-26.6 -17.1 Q-25.85 -17.15 -25.35 -17.8 -24.9 -18.4 -25.3 -18.8 L-26.3 -18.75 Q-26.9 -18.35 -27.7 -18.1 L-28.95 -17.25 Q-29.4 -16.65 -29.0 -16.3 -28.6 -15.95 -27.95 -16.45 -27.35 -17.05 -26.6 -17.1 M-35.7 -16.2 L-30.7 -19.5 Q-26.9 -21.9 -23.7 -17.65 -20.5 -13.45 -27.55 -9.9 -27.7 -18.95 -35.7 -16.2 M-17.9 -15.65 Q-15.6 -19.85 -18.8 -22.35 -20.4 -23.55 -22.55 -23.7 -20.15 -25.4 -17.5 -26.25 -12.85 -26.6 -12.9 -22.2 -13.0 -18.4 -16.4 -16.7 L-17.9 -15.65 M-17.8 11.5 L-19.5 12.2 Q-23.25 14.4 -23.35 19.0 -23.4 22.1 -22.45 24.05 L-25.55 23.5 Q-28.05 22.5 -28.9 20.4 -30.35 16.6 -28.7 13.3 L-27.35 11.5 Q-26.0 10.2 -21.2 9.75 -17.95 10.25 -15.6 11.2 L-17.8 11.5 M-9.65 18.2 L-7.15 18.65 -5.5 18.4 -3.0 17.7 Q-1.15 17.3 -3.65 17.05 L-7.15 16.75 -8.9 17.0 -10.45 17.5 Q-11.2 17.75 -9.65 18.2 M-40.4 2.75 L-39.05 2.5 Q-34.85 2.1 -32.3 4.0 L-30.25 5.6 -29.1 6.55 -31.65 6.25 -34.5 6.0 -35.95 6.15 Q-37.5 6.35 -38.8 7.05 -40.2 7.8 -40.75 9.2 L-41.2 11.5 Q-41.2 14.0 -39.05 16.25 L-42.8 14.1 -44.05 12.8 -44.65 11.5 Q-45.45 9.4 -44.6 6.95 L-44.3 6.1 Q-43.35 3.9 -41.25 3.05 L-41.35 3.45 -41.55 4.95 -41.35 5.75 Q-41.15 6.1 -40.15 6.1 L-38.1 5.75 Q-37.05 5.35 -37.05 4.95 -37.05 4.55 -37.85 4.0 L-39.95 2.9 -40.4 2.75 M-11.6 19.4 L-10.75 11.8 -3.85 12.1 Q-1.45 14.45 -1.25 18.8 -1.15 22.55 -2.05 26.3 -2.15 26.7 -4.45 28.0 -9.75 28.05 -10.5 26.5 -11.95 23.55 -11.6 19.4 M-23.55 15.1 Q-23.85 14.55 -24.5 14.25 L-26.1 14.0 -27.7 14.25 Q-28.35 14.55 -28.35 14.95 L-27.7 15.6 Q-27.05 15.9 -25.1 16.4 L-23.25 16.3 -23.55 15.1" fill="#443422" fill-rule="evenodd" stroke="none"/>
    <path d="M-52.0 -6.8 L-52.0 -6.85 Q-44.95 -29.8 -25.75 -28.4 -11.45 -25.6 -6.25 -5.2 -5.0 0.5 -4.35 9.0 -4.05 13.45 -3.9 36.75 L-3.85 62.35 -18.3 62.35 -18.4 36.75 Q-18.65 13.15 -19.0 9.0 -19.6 2.55 -20.35 -1.05 -22.5 -8.55 -25.75 -9.0 -30.4 -10.7 -36.45 -4.95 L-52.0 -6.8" fill="#a8b38c" fill-rule="evenodd" stroke="none"/>
    <path d="M-52.0 -6.85 L-52.05 -6.8 -52.4 -5.5 M-36.45 -4.95 Q-30.4 -10.7 -25.75 -9.0 -22.5 -8.55 -20.35 -1.05 -19.6 2.55 -19.0 9.0 -18.65 13.15 -18.4 36.75 L-18.3 62.35 M-3.85 62.35 L-3.9 36.75 Q-4.05 13.45 -4.35 9.0 -5.0 0.5 -6.25 -5.2 -11.45 -25.6 -25.75 -28.4 -44.95 -29.8 -52.0 -6.85" fill="none" stroke="#5f6150" stroke-linecap="round" stroke-linejoin="round" stroke-width="1.0"/>
    <path d="M-52.05 -6.8 L-52.0 -6.8" fill="none" stroke="#5f6150" stroke-linecap="round" stroke-linejoin="round" stroke-width="0.05"/>
    <path d="M-47.85 -6.25 L-46.9 -9.25 Q-44.45 -15.95 -39.35 -19.55 -34.55 -22.95 -28.45 -24.35 -22.2 -25.75 -17.5 -20.7 -13.7 -16.55 -11.75 -9.05 -9.9 -2.25 -8.45 4.55 L-8.4 4.8 Q-7.6 9.3 -7.6 14.05 -7.7 21.9 -6.75 29.0 -5.75 36.4 -6.2 43.85 -6.65 51.55 -6.55 59.05 L-6.55 64.2 -11.15 64.2 -11.15 63.5 -11.0 47.8 Q-11.1 40.25 -11.95 33.35 L-12.05 32.6 Q-12.95 27.75 -12.6 21.7 -12.05 13.6 -13.0 6.0 -14.0 -1.55 -16.25 -7.9 -18.85 -14.95 -24.75 -16.1 -31.15 -17.3 -36.1 -14.9 -41.0 -12.5 -43.65 -5.75 L-47.85 -6.25" fill="#c6cdb4" fill-rule="evenodd" stroke="none"/>
    <path d="M-37.2 -4.95 L-39.55 -5.25 Q-36.65 -11.5 -29.9 -12.85 -22.95 -14.25 -19.65 -8.4 -16.4 -2.5 -16.2 6.0 L-15.75 21.25 -15.05 36.55 Q-14.8 43.7 -14.0 51.75 -13.45 57.9 -13.8 64.2 L-18.3 64.2 -18.4 36.75 Q-18.65 13.15 -19.0 9.0 -19.6 2.55 -20.35 -1.05 -22.5 -8.55 -25.75 -9.0 -30.4 -10.7 -37.2 -4.95" fill="#899865" fill-rule="evenodd" stroke="none"/>
    <path d="M-28.2 200.55 L-28.25 201.05 Q-28.8 204.75 -27.65 208.25 -25.75 214.25 -22.2 205.3 L-21.5 203.45 -21.3 202.95 -20.35 203.3 -20.55 203.75 -22.2 208.15 Q-23.5 214.15 -25.05 218.6 -26.1 219.35 -27.5 218.8 -33.35 216.55 -33.35 208.75 -33.4 204.1 -31.85 199.75 L-31.7 199.3 -28.2 200.55" fill="#a8b38c" fill-rule="evenodd" stroke="none"/>
    <path d="M-21.3 202.95 L-21.5 203.45 -22.2 205.3 Q-25.75 214.25 -27.65 208.25 -28.8 204.75 -28.25 201.05 L-28.2 200.55 -21.3 202.95" fill="#c6cdb4" fill-rule="evenodd" stroke="none"/>
    <path d="M-31.7 199.3 L-31.85 199.75 Q-33.4 204.1 -33.35 208.75 -33.35 216.55 -27.5 218.8 -26.1 219.35 -25.05 218.6 -28.15 227.4 -32.25 229.9 -36.25 232.35 -40.1 228.6 -44.0 225.6 -38.35 208.3 L-35.05 203.4 -33.6 199.15 -33.45 198.7 -31.7 199.3 M-36.0 215.45 Q-36.55 215.3 -37.2 216.2 L-38.25 218.6 Q-38.7 220.0 -38.6 221.1 L-38.3 222.2 -38.0 222.4 Q-37.55 222.55 -36.9 221.65 L-36.15 220.4 -35.8 219.4 Q-35.4 217.9 -35.45 216.75 -35.5 215.6 -36.0 215.45" fill="#899865" fill-rule="evenodd" stroke="none"/>
    <path d="M-36.0 215.45 Q-35.5 215.6 -35.45 216.75 -35.4 217.9 -35.8 219.4 L-36.15 220.4 -36.9 221.65 Q-37.55 222.55 -38.0 222.4 L-38.3 222.2 -38.6 221.1 Q-38.7 220.0 -38.25 218.6 L-37.2 216.2 Q-36.55 215.3 -36.0 215.45" fill="url(#gradient0)" fill-rule="evenodd" stroke="none"/>
    <path d="M-25.05 218.6 Q-23.5 214.15 -22.2 208.15 L-20.55 203.75 -20.35 203.3 M-25.05 218.6 Q-28.15 227.4 -32.25 229.9 -36.25 232.35 -40.1 228.6 -44.0 225.6 -38.35 208.3 L-35.05 203.4 -33.6 199.15 -33.45 198.7" fill="none" stroke="#5f6150" stroke-linecap="round" stroke-linejoin="round" stroke-width="1.0"/>
    <path d="M-49.3 -13.85 L-47.0 -14.3 -43.25 -13.95 Q-40.95 -13.6 -39.25 -12.45 -37.6 -11.35 -36.1 -9.35 L-34.55 -7.4 -36.2 -5.35 -37.95 -1.45 Q-39.5 -3.25 -41.5 -4.25 -43.5 -5.25 -45.75 -5.05 -48.0 -4.8 -49.7 -3.6 -51.65 -2.25 -52.8 -0.55 -53.4 -2.3 -52.6 -4.45 L-51.0 -9.25 Q-50.35 -11.55 -49.3 -13.85 M-42.85 -8.25 Q-42.4 -8.8 -42.4 -9.6 L-42.65 -12.3 Q-42.95 -14.2 -43.8 -13.15 L-45.15 -11.25 -46.6 -8.25 Q-47.6 -6.1 -46.75 -6.05 -45.9 -6.0 -44.65 -6.85 L-42.85 -8.25 M-27.45 -28.45 Q-23.8 -28.25 -21.85 -27.25 -22.65 -24.8 -24.4 -22.0 -26.2 -19.25 -26.35 -14.55 -26.6 -9.85 -27.9 -9.45 -30.8 -8.5 -31.15 -10.65 -31.95 -15.1 -33.3 -19.3 -34.6 -23.3 -36.65 -27.0 L-35.35 -27.2 Q-31.6 -28.75 -27.45 -28.45 M-29.45 -19.15 Q-28.55 -19.15 -26.95 -19.9 -25.35 -20.65 -25.15 -21.5 -25.0 -22.35 -26.75 -22.8 L-29.45 -23.25 Q-30.3 -23.25 -30.95 -22.6 L-32.6 -20.9 Q-33.55 -19.8 -31.95 -19.45 L-29.45 -19.15 M-22.5 -5.65 Q-22.45 -11.35 -19.05 -12.8 L-15.05 -14.35 Q-14.45 -14.45 -13.8 -15.15 L-11.25 -15.1 Q-9.3 -14.4 -8.85 -13.8 L-7.7 -10.9 Q-7.05 -8.8 -6.7 -6.55 -9.25 -8.35 -12.35 -7.6 -15.6 -6.85 -18.05 -4.0 -19.6 -2.1 -20.95 -1.3 -21.75 -3.7 -22.8 -5.9 -23.8 -7.85 -22.5 -5.65 M-8.15 9.05 L-8.4 6.1 Q-8.65 4.4 -10.05 4.25 -11.5 4.1 -12.3 5.7 -13.15 7.25 -12.75 10.05 -12.35 12.8 -11.75 13.75 -11.15 14.65 -10.25 13.45 L-8.8 11.25 Q-8.2 10.35 -8.15 9.05 M-14.75 -13.1 Q-15.85 -13.35 -16.55 -12.7 -17.3 -12.05 -16.75 -10.6 L-15.75 -8.45 Q-15.2 -7.7 -14.4 -7.7 -13.65 -7.7 -13.15 -8.45 -12.6 -9.2 -12.6 -10.3 -12.6 -11.4 -13.15 -12.15 -13.65 -12.9 -14.75 -13.1 M-3.95 10.35 Q-3.85 14.1 -4.3 17.45 -6.3 14.3 -10.2 14.5 -14.25 14.65 -17.0 17.7 -18.15 19.0 -19.1 20.45 -18.6 16.25 -19.1 11.65 -19.35 9.65 -19.1 8.45 -17.0 5.4 -13.55 4.35 -9.75 3.2 -6.5 4.75 -4.05 5.9 -3.95 10.35" fill="#443422" fill-rule="evenodd" stroke="none"/>
    <path d="M-42.85 -8.25 L-44.65 -6.85 Q-45.9 -6.0 -46.75 -6.05 -47.6 -6.1 -46.6 -8.25 L-45.15 -11.25 -43.8 -13.15 Q-42.95 -14.2 -42.65 -12.3 L-42.4 -9.6 Q-42.4 -8.8 -42.85 -8.25 M-29.45 -19.15 L-31.95 -19.45 Q-33.55 -19.8 -32.6 -20.9 L-30.95 -22.6 Q-30.3 -23.25 -29.45 -23.25 L-26.75 -22.8 Q-25.0 -22.35 -25.15 -21.5 -25.35 -20.65 -26.95 -19.9 -28.55 -19.15 -29.45 -19.15 M-14.75 -13.1 Q-13.65 -12.9 -13.15 -12.15 -12.6 -11.4 -12.6 -10.3 -12.6 -9.2 -13.15 -8.45 -13.65 -7.7 -14.4 -7.7 -15.2 -7.7 -15.75 -8.45 L-16.75 -10.6 Q-17.3 -12.05 -16.55 -12.7 -15.85 -13.35 -14.75 -13.1 M-8.15 9.05 Q-8.2 10.35 -8.8 11.25 L-10.25 13.45 Q-11.15 14.65 -11.75 13.75 -12.35 12.8 -12.75 10.05 -13.15 7.25 -12.3 5.7 -11.5 4.1 -10.05 4.25 -8.65 4.4 -8.4 6.1 L-8.15 9.05" fill="#ab8458" fill-rule="evenodd" stroke="none"/>
    <path d="M5.9 90.95 Q3.0 88.55 -0.65 90.0 -4.45 91.45 -6.05 95.2 L-6.45 96.55 Q-8.15 94.1 -9.95 90.15 -10.85 88.3 -11.6 87.45 -10.0 83.55 -7.05 81.45 -3.85 79.15 -0.25 79.6 2.45 79.9 4.0 84.1 5.25 87.6 5.9 90.95 M8.35 103.7 Q7.6 102.2 6.2 102.5 4.8 102.8 4.5 104.55 4.25 106.3 5.5 108.8 6.75 111.3 7.65 112.0 8.5 112.7 8.95 111.25 L9.65 108.75 Q9.9 107.65 9.5 106.45 L8.35 103.7 M9.75 101.85 Q12.4 102.15 13.95 106.3 15.25 109.8 15.85 113.15 12.95 110.8 9.35 112.25 5.55 113.65 3.9 117.45 L3.7 118.0 2.25 118.45 Q1.4 115.45 0.0 112.4 -0.85 110.55 -1.0 109.35 0.0 105.8 2.9 103.7 6.15 101.4 9.75 101.85 M8.95 132.9 Q12.9 133.05 15.05 135.0 17.15 137.0 15.6 140.4 L11.65 149.65 Q12.6 144.65 8.85 143.6 5.0 142.45 1.4 144.45 -0.1 145.3 -1.45 146.35 0.35 142.55 1.35 138.05 1.75 136.05 2.4 135.0 5.35 132.8 8.95 132.9 M0.8 164.05 Q1.65 162.6 0.6 161.6 -0.45 160.6 -2.05 161.35 -3.7 162.05 -5.05 164.5 -6.4 166.95 -6.5 168.05 -6.6 169.1 -5.15 168.7 L-2.65 167.9 Q-1.65 167.55 -0.85 166.5 L0.8 164.05 M7.65 142.35 Q7.9 143.4 9.15 142.55 L11.25 141.0 Q12.1 140.3 12.5 139.1 L13.25 136.2 Q13.55 134.55 12.3 133.95 11.0 133.35 9.7 134.6 8.35 135.8 7.85 138.55 7.35 141.3 7.65 142.35 M1.75 170.15 Q-0.5 173.15 -2.9 175.5 -2.55 171.8 -5.75 169.6 -9.0 167.25 -13.05 168.0 -14.75 168.3 -16.4 168.9 -13.45 165.85 -11.0 161.9 -10.0 160.2 -9.1 159.4 -5.55 158.25 -2.2 159.5 1.45 160.9 3.1 164.15 4.35 166.55 1.75 170.15 M-7.55 33.7 L-7.75 30.75 Q-8.0 29.05 -9.4 28.9 -10.85 28.75 -11.65 30.35 -12.5 31.9 -12.1 34.7 -11.7 37.45 -11.1 38.4 -10.5 39.3 -9.6 38.1 L-8.15 35.9 Q-7.55 35.0 -7.55 33.7 M-3.3 35.0 Q-3.2 38.75 -3.65 42.1 -5.65 38.95 -9.55 39.15 -13.6 39.3 -16.35 42.35 L-18.45 45.1 Q-17.95 40.9 -18.45 36.3 -18.7 34.3 -18.45 33.1 -16.35 30.05 -12.9 29.0 -9.15 27.85 -5.85 29.4 -3.4 30.55 -3.3 35.0 M-3.5 60.95 Q-3.4 64.7 -3.9 68.05 -5.9 64.9 -9.8 65.1 -13.85 65.25 -16.6 68.3 L-18.7 71.05 Q-18.2 66.85 -18.7 62.25 -18.95 60.25 -18.7 59.05 -16.6 56.0 -13.15 54.95 -9.35 53.8 -6.1 55.35 -3.65 56.5 -3.5 60.95 M-0.45 84.2 Q-0.85 82.95 -1.6 81.45 -2.35 79.95 -3.75 80.25 -5.2 80.55 -5.45 82.35 -5.75 84.1 -4.45 86.6 -3.2 89.1 -2.35 89.75 -1.5 90.45 -1.05 89.0 L-0.35 86.5 Q-0.05 85.45 -0.45 84.2 M-8.0 56.7 Q-8.25 55.0 -9.65 54.85 -11.1 54.7 -11.9 56.3 -12.75 57.85 -12.35 60.65 -11.95 63.4 -11.35 64.35 -10.75 65.25 -9.85 64.05 L-8.4 61.85 Q-7.8 60.95 -7.75 59.65 L-8.0 56.7 M-27.85 192.45 Q-29.55 192.95 -31.1 193.7 -28.5 190.35 -26.5 186.2 -25.65 184.4 -24.8 183.5 -21.45 182.0 -17.95 182.9 -14.15 183.9 -12.2 186.95 -10.7 189.2 -12.9 193.05 -14.8 196.25 -16.95 198.9 -17.0 195.15 -20.4 193.3 -23.95 191.3 -27.85 192.45 M-14.95 184.65 Q-16.1 183.75 -17.6 184.65 -19.15 185.55 -20.25 188.15 -21.35 190.75 -21.3 191.85 -21.3 192.9 -19.9 192.35 L-17.5 191.25 Q-16.55 190.8 -15.85 189.7 L-14.45 187.05 Q-13.8 185.5 -14.95 184.65" fill="#443422" fill-rule="evenodd" stroke="none"/>
    <path d="M8.35 103.7 L9.5 106.45 Q9.9 107.65 9.65 108.75 L8.95 111.25 Q8.5 112.7 7.65 112.0 6.75 111.3 5.5 108.8 4.25 106.3 4.5 104.55 4.8 102.8 6.2 102.5 7.6 102.2 8.35 103.7 M7.65 142.35 Q7.35 141.3 7.85 138.55 8.35 135.8 9.7 134.6 11.0 133.35 12.3 133.95 13.55 134.55 13.25 136.2 L12.5 139.1 Q12.1 140.3 11.25 141.0 L9.15 142.55 Q7.9 143.4 7.65 142.35 M0.8 164.05 L-0.85 166.5 Q-1.65 167.55 -2.65 167.9 L-5.15 168.7 Q-6.6 169.1 -6.5 168.05 -6.4 166.95 -5.05 164.5 -3.7 162.05 -2.05 161.35 -0.45 160.6 0.6 161.6 1.65 162.6 0.8 164.05 M-7.55 33.7 Q-7.55 35.0 -8.15 35.9 L-9.6 38.1 Q-10.5 39.3 -11.1 38.4 -11.7 37.45 -12.1 34.7 -12.5 31.9 -11.65 30.35 -10.85 28.75 -9.4 28.9 -8.0 29.05 -7.75 30.75 L-7.55 33.7 M-8.0 56.7 L-7.75 59.65 Q-7.8 60.95 -8.4 61.85 L-9.85 64.05 Q-10.75 65.25 -11.35 64.35 -11.95 63.4 -12.35 60.65 -12.75 57.85 -11.9 56.3 -11.1 54.7 -9.65 54.85 -8.25 55.0 -8.0 56.7 M-0.45 84.2 Q-0.05 85.45 -0.35 86.5 L-1.05 89.0 Q-1.5 90.45 -2.35 89.75 -3.2 89.1 -4.45 86.6 -5.75 84.1 -5.45 82.35 -5.2 80.55 -3.75 80.25 -2.35 79.95 -1.6 81.45 -0.85 82.95 -0.45 84.2 M-14.95 184.65 Q-13.8 185.5 -14.45 187.05 L-15.85 189.7 Q-16.55 190.8 -17.5 191.25 L-19.9 192.35 Q-21.3 192.9 -21.3 191.85 -21.35 190.75 -20.25 188.15 -19.15 185.55 -17.6 184.65 -16.1 183.75 -14.95 184.65" fill="#ab8458" fill-rule="evenodd" stroke="none"/>
  </g>
  <defs>
    <radialGradient cx="0" cy="0" gradientTransform="matrix(-0.0018, -6.0E-4, 0.0018, -0.0056, -37.0, 219.2)" gradientUnits="userSpaceOnUse" id="gradient0" r="819.2" spreadMethod="pad">
      <stop offset="0.0" stop-color="#ffffff"/>
      <stop offset="0.6705882352941176" stop-color="#000000"/>
    </radialGradient>
  </defs>
</svg>
