<?xml version="1.0" encoding="UTF-8" standalone="no"?>
<svg xmlns:xlink="http://www.w3.org/1999/xlink" height="319.65px" width="106.0px" xmlns="http://www.w3.org/2000/svg">
  <g transform="matrix(1.0, 0.0, 0.0, 1.0, 53.35, 37.85)">
    <path d="M-42.35 254.45 L-42.4 254.85 -42.8 254.95 -42.9 254.65 Q-52.1 229.85 -35.45 202.15 L-5.55 154.85 Q10.95 128.25 -5.9 100.7 -10.25 96.55 -13.35 89.8 -16.25 83.6 -18.1 75.25 L-18.25 75.25 -18.25 74.15 -15.6 74.15 -15.15 74.15 -15.35 75.05 -15.4 75.05 Q-14.9 81.75 -12.0 86.5 L-10.0 89.8 -3.6 99.85 -3.55 99.9 -3.1 100.6 Q0.65 106.5 2.7 113.9 4.85 121.35 4.85 130.45 L4.85 131.75 Q4.75 135.2 4.2 138.4 L3.35 142.1 2.15 145.55 1.6 146.95 Q-1.1 153.05 -5.1 159.55 -9.3 166.35 -13.7 171.9 -18.65 178.15 -22.2 185.3 L-23.35 187.55 Q-26.25 193.0 -30.2 198.65 L-30.25 198.7 -31.75 200.9 -31.75 200.95 Q-35.55 206.5 -38.7 212.4 L-40.5 216.15 -41.65 218.9 Q-42.75 221.6 -43.4 227.15 -44.1 232.7 -43.9 237.15 -43.75 241.6 -42.65 245.55 -41.65 249.35 -42.35 254.45" fill="#899865" fill-rule="evenodd" stroke="none"/>
    <path d="M-4.6 71.2 Q-1.85 83.9 2.6 89.8 4.35 92.15 6.35 93.4 22.8 124.6 11.65 150.3 5.45 165.2 -20.95 205.3 -37.7 224.65 -29.4 250.7 L-34.4 252.15 Q-33.75 249.25 -34.35 246.35 -36.2 237.45 -35.3 229.9 -34.35 221.75 -31.55 214.1 -28.8 206.45 -23.5 200.2 -18.2 193.9 -14.35 187.35 -10.55 180.75 -5.95 174.8 -1.15 168.45 2.65 161.0 6.0 154.4 8.5 145.85 10.9 137.7 11.65 129.55 12.45 120.4 9.7 112.45 6.95 104.7 3.35 97.7 L-0.85 89.8 -4.2 83.8 Q-6.75 79.4 -7.4 74.15 L-11.2 74.15 Q-10.3 80.4 -8.25 86.15 L-6.75 89.8 Q-4.8 94.25 -1.75 98.7 L-1.25 99.45 -1.2 99.5 Q3.25 105.95 5.35 113.15 L5.7 114.55 Q7.8 122.85 6.65 131.8 L5.5 138.7 4.65 142.4 3.15 147.7 Q0.6 155.75 -3.25 162.75 -6.75 169.15 -11.95 175.95 L-21.45 188.65 -28.85 199.55 -30.35 201.85 Q-35.0 209.1 -38.05 217.2 -41.0 225.0 -41.5 233.65 -41.8 238.25 -41.3 242.6 -40.8 246.9 -39.6 250.9 L-38.7 253.4 -42.35 254.45 Q-41.65 249.35 -42.65 245.55 -43.75 241.6 -43.9 237.15 -44.1 232.7 -43.4 227.15 -42.75 221.6 -41.65 218.9 L-40.5 216.15 -38.7 212.4 Q-35.55 206.5 -31.75 200.95 L-31.75 200.9 -30.25 198.7 -30.2 198.65 Q-26.25 193.0 -23.35 187.55 L-22.2 185.3 Q-18.65 178.15 -13.7 171.9 -9.3 166.35 -5.1 159.55 -1.1 153.05 1.6 146.95 L2.15 145.55 3.35 142.1 4.2 138.4 Q4.75 135.2 4.85 131.75 L4.85 130.45 Q4.85 121.35 2.7 113.9 0.65 106.5 -3.1 100.6 L-3.55 99.9 -3.6 99.85 -10.0 89.8 -12.0 86.5 Q-14.9 81.75 -15.4 75.05 L-15.35 75.05 -15.15 74.15 -15.6 74.15 -4.6 71.2" fill="#a8b38c" fill-rule="evenodd" stroke="none"/>
    <path d="M-34.4 252.15 L-34.95 253.95 Q-36.65 258.5 -38.7 253.4 L-39.6 250.9 Q-40.8 246.9 -41.3 242.6 -41.8 238.25 -41.5 233.65 -41.0 225.0 -38.05 217.2 -35.0 209.1 -30.35 201.85 L-28.85 199.55 -21.45 188.65 -11.95 175.95 Q-6.75 169.15 -3.25 162.75 0.6 155.75 3.15 147.7 L4.65 142.4 5.5 138.7 6.65 131.8 Q7.8 122.85 5.7 114.55 L5.35 113.15 Q3.25 105.95 -1.2 99.5 L-1.25 99.45 -1.75 98.7 Q-4.8 94.25 -6.75 89.8 L-8.25 86.15 Q-10.3 80.4 -11.2 74.15 L-7.4 74.15 Q-6.75 79.4 -4.2 83.8 L-0.85 89.8 3.35 97.7 Q6.95 104.7 9.7 112.45 12.45 120.4 11.65 129.55 10.9 137.7 8.5 145.85 6.0 154.4 2.65 161.0 -1.15 168.45 -5.95 174.8 -10.55 180.75 -14.35 187.35 -18.2 193.9 -23.5 200.2 -28.8 206.45 -31.55 214.1 -34.35 221.75 -35.3 229.9 -36.2 237.45 -34.35 246.35 -33.75 249.25 -34.4 252.15" fill="#c6cdb4" fill-rule="evenodd" stroke="none"/>
    <path d="M-4.6 71.2 Q-1.85 83.9 2.6 89.8 4.35 92.15 6.35 93.4 22.8 124.6 11.65 150.3 5.45 165.2 -20.95 205.3 -37.7 224.65 -29.4 250.7 M-42.8 254.95 L-42.9 254.65 Q-52.1 229.85 -35.45 202.15 L-5.55 154.85 Q10.95 128.25 -5.9 100.7 -10.25 96.55 -13.35 89.8 -16.25 83.6 -18.1 75.25" fill="none" stroke="#5f6150" stroke-linecap="round" stroke-linejoin="round" stroke-width="1.0"/>
    <path d="M2.05 -36.8 Q14.5 -39.8 33.75 -26.65 L36.05 -25.05 43.85 -19.3 46.05 -17.3 49.0 -13.5 Q50.8 -11.0 52.0 -8.0 52.9 -3.05 47.95 0.95 40.55 6.8 33.75 11.35 L23.4 17.75 Q23.3 17.75 23.25 17.85 L19.0 18.7 11.65 20.0 4.25 21.4 -2.95 22.9 Q-6.7 23.7 -10.65 23.0 L-17.7 21.55 Q-21.45 20.6 -24.7 19.05 -28.1 17.45 -31.75 16.3 -35.3 15.2 -38.35 12.65 L-43.65 8.15 -48.55 3.25 Q-50.7 0.85 -52.35 -2.15 L-51.8 -4.75 -51.55 -5.7 Q-50.8 -7.2 -49.7 -8.35 L-44.35 -11.8 -49.7 -8.35 Q-47.6 -10.75 -44.35 -11.8 L-43.7 -12.0 Q-42.9 -12.3 -42.15 -13.65 -41.7 -13.1 -39.3 -15.15 -40.15 -11.9 -40.7 -11.45 -45.0 -8.2 -46.1 -8.0 -47.2 -7.8 -47.45 -4.35 -47.75 -0.55 -45.55 1.85 L-41.05 6.15 -34.8 11.1 -30.4 14.45 Q-28.15 16.15 -24.55 17.1 L-16.0 18.65 -6.45 19.05 1.45 18.15 9.0 16.55 Q13.2 15.65 17.8 14.2 22.1 12.8 26.05 11.05 L32.45 8.2 33.75 7.6 Q37.95 5.45 40.7 2.45 43.8 -1.0 44.85 -5.05 45.9 -9.1 45.65 -12.65 45.35 -16.25 42.25 -18.65 L34.8 -24.3 33.75 -25.05 28.7 -28.2 Q24.95 -30.2 21.25 -31.8 16.35 -33.95 11.3 -35.2 9.05 -35.75 6.75 -35.25 -3.35 -33.1 -12.45 -27.45 -16.1 -25.2 -19.9 -23.5 L-13.95 -28.5 -1.4 -35.55 Q0.25 -36.35 2.05 -36.8 M-17.9 -20.15 L-16.0 -21.2 Q-22.1 -19.4 -21.5 -20.35 -18.95 -20.5 -16.55 -21.65 -13.25 -23.3 -10.5 -24.7 L-3.95 -28.35 2.55 -31.85 Q5.8 -33.45 9.75 -32.5 13.5 -31.6 16.95 -30.0 L23.65 -27.05 Q27.0 -25.6 30.3 -23.8 L33.75 -21.65 36.25 -19.85 Q39.15 -17.65 40.9 -13.7 42.65 -9.75 40.9 -6.75 39.1 -3.75 37.1 -0.9 35.65 1.1 33.75 2.6 L31.85 3.9 25.55 7.4 Q22.65 8.95 19.15 10.15 L12.35 12.35 5.5 14.15 -1.95 15.45 -9.3 16.45 -16.8 16.25 -23.95 14.45 Q-27.45 13.4 -30.3 11.1 -32.95 8.9 -37.15 3.95 -40.1 0.55 -40.7 -1.15 -41.15 -1.5 -41.9 -3.15 -42.8 -5.0 -30.35 -14.9 L-28.4 -11.05 Q-36.7 -6.0 -36.55 -1.7 -35.8 10.4 -19.3 13.65 L-15.35 14.3 -14.95 14.35 -14.95 14.2 2.35 13.35 Q13.5 11.55 24.55 5.55 30.45 2.35 33.75 -3.05 35.4 -5.8 36.45 -9.0 L36.9 -10.7 37.1 -11.55 36.95 -11.4 36.85 -11.35 36.95 -11.6 Q37.2 -12.7 37.0 -13.95 L37.45 -15.15 36.95 -14.05 36.9 -14.25 Q36.2 -17.55 33.75 -19.3 L32.6 -20.05 26.2 -23.5 Q22.9 -25.3 19.5 -26.7 15.95 -28.1 12.5 -28.8 8.65 -29.55 4.9 -28.85 1.35 -28.15 -2.1 -26.75 L-8.45 -23.9 Q-11.6 -22.35 -14.8 -20.9 L-17.9 -20.15 M-15.35 14.3 L-15.35 14.4 -15.35 14.3 M35.85 -12.3 L35.7 -12.4 35.8 -12.45 35.85 -12.3 M36.55 -11.35 L36.45 -11.3 36.55 -11.55 36.55 -11.35 M-52.2 -4.7 L-51.95 -5.65 -50.5 -7.85 -51.95 -5.6 -52.2 -4.7 M-51.05 6.4 L-51.0 6.25 -48.35 9.7 Q-50.0 8.15 -51.05 6.4 M-27.45 22.3 L-24.8 23.25 -21.0 24.5 -12.8 26.6 -4.75 27.65 -4.75 27.7 -4.75 27.75 -5.15 27.75 Q-14.4 28.5 -21.7 24.85 L-25.2 23.3 -27.45 22.3" fill="#a8b38c" fill-rule="evenodd" stroke="none"/>
    <path d="M-19.9 -23.5 Q-16.1 -25.2 -12.45 -27.45 -3.35 -33.1 6.75 -35.25 9.05 -35.75 11.3 -35.2 16.35 -33.95 21.25 -31.8 24.95 -30.2 28.7 -28.2 L33.75 -25.05 34.8 -24.3 42.25 -18.65 Q45.35 -16.25 45.65 -12.65 45.9 -9.1 44.85 -5.05 43.8 -1.0 40.7 2.45 37.95 5.45 33.75 7.6 L32.45 8.2 26.05 11.05 Q22.1 12.8 17.8 14.2 13.2 15.65 9.0 16.55 L1.45 18.15 -6.45 19.05 -16.0 18.65 -24.55 17.1 Q-28.15 16.15 -30.4 14.45 L-34.8 11.1 -41.05 6.15 -45.55 1.85 Q-47.75 -0.55 -47.45 -4.35 -47.2 -7.8 -46.1 -8.0 -45.0 -8.2 -40.7 -11.45 -40.15 -11.9 -39.3 -15.15 -36.1 -17.05 -33.9 -16.5 -31.7 -15.95 -30.35 -14.9 -42.8 -5.0 -41.9 -3.15 -41.15 -1.5 -40.7 -1.15 -40.1 0.55 -37.15 3.95 -32.95 8.9 -30.3 11.1 -27.45 13.4 -23.95 14.45 L-16.8 16.25 -9.3 16.45 -1.95 15.45 5.5 14.15 12.35 12.35 19.15 10.15 Q22.65 8.95 25.55 7.4 L31.85 3.9 33.75 2.6 Q35.65 1.1 37.1 -0.9 39.1 -3.75 40.9 -6.75 42.65 -9.75 40.9 -13.7 39.15 -17.65 36.25 -19.85 L33.75 -21.65 30.3 -23.8 Q27.0 -25.6 23.65 -27.05 L16.95 -30.0 Q13.5 -31.6 9.75 -32.5 5.8 -33.45 2.55 -31.85 L-3.95 -28.35 -10.5 -24.7 Q-13.25 -23.3 -16.55 -21.65 -18.95 -20.5 -21.5 -20.35 -22.1 -19.4 -16.0 -21.2 L-17.9 -20.15 -26.5 -18.05 -19.9 -23.5 M-13.45 -16.95 L-13.45 -17.05 -13.35 -17.0 -13.45 -16.95 M-13.8 -16.9 L-14.1 -16.8 -14.0 -16.9 -13.8 -16.9" fill="#c6cdb4" fill-rule="evenodd" stroke="none"/>
    <path d="M-52.35 -2.15 Q-50.7 0.85 -48.55 3.25 L-43.65 8.15 -38.35 12.65 Q-35.3 15.2 -31.75 16.3 -28.1 17.45 -24.7 19.05 -21.45 20.6 -17.7 21.55 L-10.65 23.0 Q-6.7 23.7 -2.95 22.9 L4.25 21.4 11.65 20.0 19.0 18.7 23.25 17.85 Q7.5 26.6 -4.75 27.75 L-4.75 27.7 -4.75 27.65 -12.8 26.6 -21.0 24.5 -24.8 23.25 -27.45 22.3 -35.4 18.45 -27.45 22.3 -29.2 21.6 Q-32.4 20.3 -35.4 18.45 L-35.5 18.4 -40.45 15.65 -43.4 13.8 Q-45.75 12.2 -47.05 10.85 L-48.35 9.7 -47.05 10.85 Q-45.75 12.2 -43.4 13.8 L-40.45 15.65 -41.65 15.1 -43.4 14.15 -43.95 13.8 Q-45.9 12.5 -47.55 10.65 L-48.35 9.7 -51.0 6.25 -51.05 6.4 -52.3 3.55 -52.1 2.7 -52.15 2.6 -52.15 2.5 -52.4 0.9 -52.45 -0.3 -52.5 -0.4 -52.75 -1.85 -52.85 -0.25 -52.9 -0.35 Q-53.4 -1.85 -53.0 -2.55 L-52.75 -2.1 -52.7 -2.4 -52.6 -2.6 -52.35 -2.15 M-14.8 -20.9 Q-11.6 -22.35 -8.45 -23.9 L-2.1 -26.75 Q1.35 -28.15 4.9 -28.85 8.65 -29.55 12.5 -28.8 15.95 -28.1 19.5 -26.7 22.9 -25.3 26.2 -23.5 L32.6 -20.05 33.75 -19.3 Q36.2 -17.55 36.9 -14.25 L36.95 -14.05 37.45 -15.15 37.0 -13.95 Q37.2 -12.7 36.95 -11.6 L36.85 -11.35 36.95 -11.4 37.1 -11.55 36.9 -10.7 36.45 -9.0 Q35.4 -5.8 33.75 -3.05 30.45 2.35 24.55 5.55 13.5 11.55 2.35 13.35 L-14.95 14.2 -14.95 14.35 -15.35 14.3 -19.3 13.65 Q-35.8 10.4 -36.55 -1.7 -36.7 -6.0 -28.4 -11.05 -30.05 -9.0 -28.95 -9.15 L-30.35 -8.2 Q-31.5 -7.4 -32.25 -6.2 -34.3 0.25 -33.5 0.5 L-33.8 1.35 -33.8 1.55 Q-28.55 7.2 -27.1 7.55 L-26.85 7.85 Q-24.65 9.9 -15.6 11.1 -7.0 12.25 -0.5 11.4 L4.6 10.35 Q12.5 7.95 20.5 3.35 L17.05 3.35 Q23.65 3.2 30.9 -3.6 L33.9 -6.7 34.05 -7.25 35.15 -8.55 Q36.25 -9.75 36.0 -12.2 L35.85 -12.3 35.8 -12.45 35.55 -12.95 Q34.9 -14.2 33.75 -15.3 L32.75 -16.15 Q29.9 -18.35 31.8 -17.05 33.65 -15.75 29.35 -18.85 25.0 -21.95 21.5 -22.95 L17.9 -23.95 Q12.1 -25.3 12.85 -24.85 L13.0 -24.75 9.85 -25.25 3.15 -24.85 -4.4 -23.0 -4.45 -22.95 -4.75 -23.25 -14.8 -20.9 M33.25 -16.35 L33.75 -15.95 Q35.6 -14.5 36.2 -12.9 L36.25 -12.85 36.3 -12.7 36.35 -12.55 36.55 -11.65 36.15 -10.35 Q35.7 -8.5 35.05 -7.5 L33.75 -5.95 32.85 -5.05 32.3 -4.55 Q28.3 -0.85 22.5 3.05 L23.4 2.3 23.5 2.1 Q14.7 7.45 2.55 11.2 L-0.5 11.4 2.55 11.2 Q14.7 7.45 23.5 2.1 L23.4 2.3 22.5 3.05 Q28.3 -0.85 32.3 -4.55 L32.85 -5.05 33.75 -5.95 35.05 -7.5 Q35.7 -8.5 36.15 -10.35 L36.55 -11.65 36.35 -12.55 36.3 -12.7 36.25 -12.85 36.2 -12.9 Q35.6 -14.5 33.75 -15.95 L33.25 -16.35 M17.9 -23.95 Q18.4 -24.15 18.35 -24.3 L23.65 -22.35 25.7 -21.3 Q29.4 -19.35 33.05 -16.5 29.4 -19.35 25.7 -21.3 L23.65 -22.35 18.35 -24.3 Q18.4 -24.15 17.9 -23.95 M-4.75 -23.25 Q7.15 -27.55 18.35 -24.3 L18.3 -24.5 18.35 -24.3 18.3 -24.5 18.35 -24.3 Q7.15 -27.55 -4.75 -23.25 M-33.7 3.1 L-33.75 2.35 Q-31.2 5.7 -26.85 7.85 -31.2 5.7 -33.75 2.35 L-33.7 3.1 M36.55 -11.55 L36.45 -11.3 36.55 -11.35 Q36.55 -11.0 36.6 -11.6 36.6 -11.9 36.55 -11.65 L36.55 -11.55 36.55 -11.65 Q36.6 -11.9 36.6 -11.6 36.55 -11.0 36.55 -11.35 L36.55 -11.55 M22.5 3.05 L23.5 2.1 22.5 3.05 M-52.75 -1.85 L-52.75 -2.1 -52.75 -1.85 M-25.95 -15.05 L-25.1 -15.55 -25.15 -15.55 -25.95 -15.05 M-23.8 -16.2 L-24.9 -15.65 -24.8 -15.75 Q-23.35 -16.6 -23.8 -16.1 L-23.8 -16.2 M-16.2 -17.05 L-16.45 -16.85 -16.55 -17.2 -16.2 -17.05 M-34.3 1.6 L-33.75 2.35 -33.8 1.55 -33.75 2.35 -34.3 1.6 M-33.8 1.35 Q-34.0 -3.45 -32.25 -6.2 -34.0 -3.45 -33.8 1.35" fill="#899865" fill-rule="evenodd" stroke="none"/>
    <path d="M52.0 -8.0 Q50.8 -11.0 49.0 -13.5 L46.05 -17.3 Q51.25 -12.3 52.0 -8.0 M-14.95 14.2 L-14.95 14.35 -14.95 14.2 M-15.35 14.3 L-15.35 14.4 -15.35 14.3" fill="#97a477" fill-rule="evenodd" stroke="none"/>
    <path d="M46.05 -17.3 L43.85 -19.3 36.05 -25.05 33.75 -26.65 Q14.5 -39.8 2.05 -36.8 0.05 -36.35 -1.8 -35.45 L-13.55 -28.85 -13.95 -28.5 -19.9 -23.5 -26.5 -18.05 -17.9 -20.15 -14.8 -20.9 -4.75 -23.25 Q7.15 -27.55 18.35 -24.3 L18.3 -24.5 18.35 -24.3 Q18.4 -24.15 17.9 -23.95 M-39.3 -15.15 Q-41.7 -13.1 -42.15 -13.65 -43.1 -12.35 -44.1 -11.95 L-44.35 -11.8 -49.7 -8.35 -50.5 -7.85 -51.95 -5.6 -52.2 -4.7 -52.7 -2.4 -52.75 -2.1 -52.75 -1.85 -52.85 -0.25 M23.25 17.85 Q23.3 17.75 23.4 17.75 L33.75 11.35 Q40.55 6.8 47.95 0.95 52.9 -3.05 52.0 -8.0 51.25 -12.3 46.05 -17.3 M-28.4 -11.05 L-30.35 -14.9 Q-31.7 -15.95 -33.9 -16.5 -36.1 -17.05 -39.3 -15.15 M33.05 -16.5 Q29.4 -19.35 25.7 -21.3 L23.65 -22.35 18.35 -24.3 M-0.5 11.4 L2.55 11.2 Q14.7 7.45 23.5 2.1 L23.4 2.3 22.5 3.05 Q28.3 -0.85 32.3 -4.55 L32.85 -5.05 33.75 -5.95 35.05 -7.5 Q35.7 -8.5 36.15 -10.35 L36.55 -11.65 36.35 -12.55 36.3 -12.7 36.25 -12.85 36.2 -12.9 Q35.6 -14.5 33.75 -15.95 L33.25 -16.35 M-26.85 7.85 Q-31.2 5.7 -33.75 2.35 L-33.7 3.1 M36.55 -11.55 L36.55 -11.65 Q36.6 -11.9 36.6 -11.6 36.55 -11.0 36.55 -11.35 L36.55 -11.55 M23.5 2.1 L22.5 3.05 M-52.3 3.55 L-51.05 6.4 Q-50.0 8.15 -48.35 9.7 L-47.05 10.85 Q-45.75 12.2 -43.4 13.8 L-40.45 15.65 -35.5 18.4 -35.4 18.45 -27.45 22.3 -25.2 23.3 -21.7 24.85 Q-14.4 28.5 -5.15 27.75 L-4.75 27.75 Q7.5 26.6 23.25 17.85 M-26.5 -18.05 L-26.85 -17.95 M-28.4 -11.05 Q-30.05 -9.0 -28.95 -9.15 L-30.35 -8.2 Q-31.5 -7.4 -32.25 -6.2 -34.0 -3.45 -33.8 1.35 L-33.8 1.55 -33.75 2.35 -34.3 1.6 M-26.85 7.85 Q-17.65 12.3 -0.5 11.4 M-52.5 2.75 L-52.85 0.5 -52.85 0.15" fill="none" stroke="#5f6150" stroke-linecap="round" stroke-linejoin="round" stroke-width="1.0"/>
    <path d="M20.5 -29.0 L22.55 -29.05 Q23.25 -29.3 22.65 -30.1 L21.4 -31.3 20.0 -31.65 17.5 -31.7 Q15.85 -31.75 16.95 -30.85 L18.55 -29.6 Q19.15 -29.25 20.5 -29.0 M32.15 -24.9 L30.8 -24.95 Q30.75 -24.5 31.25 -23.8 L32.1 -22.85 Q32.45 -22.55 33.05 -22.5 L34.7 -22.3 Q35.75 -22.2 34.95 -23.0 L33.8 -24.1 32.15 -24.9 M26.35 -31.0 Q24.2 -30.75 23.15 -29.0 21.3 -25.9 22.35 -23.2 L22.75 -22.35 22.35 -22.45 22.35 -22.55 21.15 -23.2 18.35 -23.45 Q18.2 -24.1 17.75 -23.95 15.55 -25.4 15.65 -28.7 15.75 -32.55 19.15 -33.15 23.5 -33.9 26.35 -31.0 M5.7 -33.95 Q6.4 -34.55 5.3 -34.7 L3.4 -34.9 Q2.65 -34.9 2.1 -34.2 1.5 -33.55 1.5 -33.1 L2.3 -33.05 3.75 -33.4 4.7 -33.35 Q5.0 -33.35 5.7 -33.95 M1.4 -24.9 L1.4 -24.95 1.3 -24.95 Q2.15 -27.45 1.65 -30.2 1.0 -33.75 -1.7 -35.65 L1.0 -36.9 Q4.85 -38.35 9.05 -37.35 5.8 -35.7 5.7 -31.4 5.6 -27.8 8.0 -25.8 L7.55 -25.7 1.4 -24.9 M39.0 -23.15 L40.7 -21.7 Q36.1 -23.6 33.65 -19.8 L31.85 -16.65 29.3 -18.95 Q28.75 -21.4 29.4 -23.15 29.85 -24.55 31.05 -25.5 33.9 -27.8 37.2 -24.75 L39.0 -23.15 M35.4 -8.2 Q36.2 -10.75 37.65 -12.7 40.1 -16.0 45.7 -14.75 51.15 -13.55 52.35 -6.25 52.8 -6.2 51.65 -3.75 50.2 -0.9 46.8 1.7 47.0 -0.75 46.5 -2.8 46.15 -4.25 45.35 -5.35 44.25 -6.95 42.3 -7.95 38.95 -9.7 35.4 -8.2 M27.25 -0.8 L29.1 -2.05 Q32.25 -3.6 35.15 -1.85 38.15 -0.05 38.7 4.3 L38.7 4.5 Q39.1 8.35 36.25 10.25 L30.6 12.9 30.85 12.75 31.3 11.65 Q32.25 8.25 31.1 4.4 L31.05 4.3 Q29.85 0.6 25.9 0.25 L27.25 -0.8 M21.85 11.65 Q22.95 10.65 21.95 10.55 L19.9 10.7 Q18.8 10.95 18.4 11.3 L17.25 12.25 Q16.5 12.8 16.6 13.2 16.7 13.6 18.3 13.5 19.9 13.35 20.3 13.0 L21.85 11.65 M36.85 3.05 Q37.35 2.0 37.3 1.05 37.2 0.1 35.45 1.05 33.7 1.95 33.1 2.6 32.5 3.2 31.95 4.4 31.4 5.65 32.55 5.7 33.7 5.75 34.85 4.6 36.0 3.4 36.2 3.75 36.35 4.1 36.85 3.05 M42.95 -14.05 Q42.45 -14.05 42.1 -13.5 41.75 -12.9 41.75 -12.05 L41.75 -9.85 Q41.75 -8.5 42.8 -8.15 43.8 -7.8 44.2 -9.0 44.6 -10.2 44.4 -11.55 L43.8 -13.5 42.95 -14.05 M21.7 8.0 Q23.35 11.5 22.4 15.1 21.75 17.6 20.05 19.3 L19.6 19.2 14.6 22.0 15.45 20.3 Q16.95 17.1 16.05 13.05 15.1 9.05 11.15 8.25 13.4 7.9 15.25 6.6 19.6 3.45 21.7 8.0 M2.35 15.0 Q1.7 15.0 1.0 15.4 0.3 15.75 0.05 16.25 -0.2 16.75 0.75 17.15 L2.35 17.5 4.4 17.0 Q5.8 16.5 5.35 16.05 4.9 15.6 3.95 15.3 L2.35 15.0 M5.7 16.25 Q5.8 20.2 4.85 24.0 4.7 24.8 3.8 25.1 L-1.55 26.85 -2.15 27.0 -1.75 25.55 Q-0.4 22.3 -0.4 18.35 -0.35 14.45 -2.55 11.6 L2.0 11.5 Q5.6 11.7 5.7 16.25 M-42.0 -4.2 Q-38.25 -3.6 -35.75 -1.2 -34.9 -0.4 -33.8 2.35 -34.25 2.65 -34.35 2.15 L-34.4 2.55 Q-37.7 0.15 -41.4 1.95 -45.1 3.75 -46.4 7.2 L-46.7 7.9 Q-47.35 9.1 -48.5 9.85 L-50.05 7.9 -50.2 7.65 -52.4 4.8 -52.35 4.8 -52.6 4.45 Q-53.15 3.7 -53.0 2.95 -51.35 -0.2 -48.5 -2.65 -45.9 -4.85 -42.0 -4.2 M-42.85 -2.05 L-44.2 -3.6 Q-45.05 -4.65 -45.4 -3.15 -45.8 -1.65 -45.8 -0.75 -45.8 0.1 -45.3 0.65 -44.75 1.2 -42.9 1.85 -41.05 2.5 -41.55 1.35 L-42.2 -0.65 Q-42.3 -1.5 -42.85 -2.05 M-16.7 -27.4 Q-14.15 -29.2 -12.05 -30.15 -7.8 -30.1 -7.4 -25.95 L-7.2 -23.4 Q-7.2 -22.4 -8.45 -22.45 -9.7 -22.55 -11.35 -20.95 -13.1 -19.35 -15.45 -21.1 -11.85 -21.1 -12.25 -23.25 -12.5 -24.4 -13.25 -25.55 -14.5 -27.45 -16.7 -27.4 M-36.0 -13.9 Q-36.9 -12.8 -35.85 -12.9 L-34.1 -13.15 Q-33.4 -13.3 -33.05 -13.65 L-31.7 -14.5 Q-30.75 -15.0 -31.6 -15.35 L-33.4 -15.7 Q-34.4 -15.7 -34.75 -15.35 L-36.0 -13.9 M-12.2 -25.45 L-10.8 -25.25 Q-10.35 -25.25 -10.05 -25.65 L-8.8 -26.8 Q-7.9 -27.65 -8.7 -27.85 L-10.4 -27.95 Q-11.25 -27.85 -11.65 -27.45 L-12.65 -26.35 Q-13.2 -25.65 -12.2 -25.45 M-30.65 -14.55 Q-28.9 -11.35 -30.8 -8.3 -31.65 -6.95 -32.75 -5.9 -32.55 -9.7 -35.25 -11.8 -37.75 -13.8 -41.8 -13.7 -39.45 -15.35 -36.95 -16.45 -32.3 -17.65 -30.65 -14.55 M-13.75 17.65 Q-14.1 19.7 -13.75 21.95 -13.3 24.65 -10.75 28.1 L-16.95 27.35 Q-20.9 26.25 -21.55 22.8 -22.25 18.95 -20.55 15.6 -18.9 12.25 -15.45 11.2 L-15.2 11.2 -14.4 11.4 -14.55 11.2 Q-11.25 11.3 -12.65 14.05 -13.45 15.7 -13.75 17.45 L-14.45 17.1 Q-16.0 16.4 -17.0 16.35 L-19.4 16.55 Q-20.8 16.8 -20.6 17.15 -20.4 17.5 -19.2 17.8 L-17.15 18.05 -15.75 17.75 -14.05 17.65 -13.75 17.65 M-28.95 7.2 Q-27.15 7.65 -25.55 9.15 -29.7 10.1 -31.25 14.0 -32.7 17.45 -30.85 20.6 L-31.35 20.95 -35.05 19.45 Q-37.8 18.3 -38.65 15.9 L-39.05 13.75 Q-39.2 9.6 -36.1 8.05 L-35.05 7.6 Q-32.15 6.5 -28.95 7.2 M-35.75 8.45 Q-36.65 8.4 -36.15 9.6 -35.65 10.8 -35.1 11.15 L-32.4 12.1 Q-30.35 12.65 -30.95 11.75 -31.6 10.8 -31.6 10.25 -31.65 9.7 -32.25 9.3 -32.8 8.95 -33.85 8.7 L-35.75 8.45 M-12.1 27.8 L-12.05 27.9 -11.9 27.9 -12.1 27.8" fill="#443422" fill-rule="evenodd" stroke="none"/>
    <path d="M32.15 -24.9 L33.8 -24.1 34.95 -23.0 Q35.75 -22.2 34.7 -22.3 L33.05 -22.5 Q32.45 -22.55 32.1 -22.85 L31.25 -23.8 Q30.75 -24.5 30.8 -24.95 L32.15 -24.9 M20.5 -29.0 Q19.15 -29.25 18.55 -29.6 L16.95 -30.85 Q15.85 -31.75 17.5 -31.7 L20.0 -31.65 21.4 -31.3 22.65 -30.1 Q23.25 -29.3 22.55 -29.05 L20.5 -29.0 M5.7 -33.95 Q5.0 -33.35 4.7 -33.35 L3.75 -33.4 2.3 -33.05 1.5 -33.1 Q1.5 -33.55 2.1 -34.2 2.65 -34.9 3.4 -34.9 L5.3 -34.7 Q6.4 -34.55 5.7 -33.95 M42.95 -14.05 L43.8 -13.5 44.4 -11.55 Q44.6 -10.2 44.2 -9.0 43.8 -7.8 42.8 -8.15 41.75 -8.5 41.75 -9.85 L41.75 -12.05 Q41.75 -12.9 42.1 -13.5 42.45 -14.05 42.95 -14.05 M36.85 3.05 Q36.35 4.1 36.2 3.75 36.0 3.4 34.85 4.6 33.7 5.75 32.55 5.7 31.4 5.65 31.95 4.4 32.5 3.2 33.1 2.6 33.7 1.95 35.45 1.05 37.2 0.1 37.3 1.05 37.35 2.0 36.85 3.05 M21.85 11.65 L20.3 13.0 Q19.9 13.35 18.3 13.5 16.7 13.6 16.6 13.2 16.5 12.8 17.25 12.25 L18.4 11.3 Q18.8 10.95 19.9 10.7 L21.95 10.55 Q22.95 10.65 21.85 11.65 M2.35 15.0 L3.95 15.3 Q4.9 15.6 5.35 16.05 5.8 16.5 4.4 17.0 L2.35 17.5 0.75 17.15 Q-0.2 16.75 0.05 16.25 0.3 15.75 1.0 15.4 1.7 15.0 2.35 15.0 M-42.85 -2.05 Q-42.3 -1.5 -42.2 -0.65 L-41.55 1.35 Q-41.05 2.5 -42.9 1.85 -44.75 1.2 -45.3 0.65 -45.8 0.1 -45.8 -0.75 -45.8 -1.65 -45.4 -3.15 -45.05 -4.65 -44.2 -3.6 L-42.85 -2.05 M-12.2 -25.45 Q-13.2 -25.65 -12.65 -26.35 L-11.65 -27.45 Q-11.25 -27.85 -10.4 -27.95 L-8.7 -27.85 Q-7.9 -27.65 -8.8 -26.8 L-10.05 -25.65 Q-10.35 -25.25 -10.8 -25.25 L-12.2 -25.45 M-36.0 -13.9 L-34.75 -15.35 Q-34.4 -15.7 -33.4 -15.7 L-31.6 -15.35 Q-30.75 -15.0 -31.7 -14.5 L-33.05 -13.65 Q-33.4 -13.3 -34.1 -13.15 L-35.85 -12.9 Q-36.9 -12.8 -36.0 -13.9 M-13.75 17.65 L-14.05 17.65 -15.75 17.75 -17.15 18.05 -19.2 17.8 Q-20.4 17.5 -20.6 17.15 -20.8 16.8 -19.4 16.55 L-17.0 16.35 Q-16.0 16.4 -14.45 17.1 L-13.75 17.45 -13.75 17.65 M-35.75 8.45 L-33.85 8.7 Q-32.8 8.95 -32.25 9.3 -31.65 9.7 -31.6 10.25 -31.6 10.8 -30.95 11.75 -30.35 12.65 -32.4 12.1 L-35.1 11.15 Q-35.65 10.8 -36.15 9.6 -36.65 8.4 -35.75 8.45" fill="#ab8458" fill-rule="evenodd" stroke="none"/>
    <path d="M-51.8 -6.75 Q-44.65 -29.8 -25.75 -28.4 -11.45 -25.6 -6.25 -5.2 -5.0 0.5 -4.35 9.0 -4.1 13.05 -3.9 32.65 L-3.9 35.1 -3.9 36.75 -3.8 75.25 Q-13.75 74.8 -18.3 75.25 L-18.4 36.75 -18.4 35.1 -18.45 32.65 Q-18.7 12.8 -19.0 9.0 -19.6 2.55 -20.35 -1.05 -22.5 -8.55 -26.35 -9.85 -33.25 -14.3 -37.15 -5.0 L-51.8 -6.75" fill="#a8b38c" fill-rule="evenodd" stroke="none"/>
    <path d="M-52.4 -4.65 L-51.8 -6.7 M-51.8 -6.75 Q-44.65 -29.8 -25.75 -28.4 -11.45 -25.6 -6.25 -5.2 -5.0 0.5 -4.35 9.0 -4.1 13.05 -3.9 32.65 L-3.9 35.1 -3.9 36.75 -3.8 75.25 M-18.3 75.25 L-18.4 36.75 -18.4 35.1 -18.45 32.65 Q-18.7 12.8 -19.0 9.0 -19.6 2.55 -20.35 -1.05 -22.5 -8.55 -26.35 -9.85 -33.25 -14.3 -37.15 -5.0" fill="none" stroke="#5f6150" stroke-linecap="round" stroke-linejoin="round" stroke-width="1.0"/>
    <path d="M-51.8 -6.7 L-51.8 -6.75 M-37.15 -5.0 L-36.45 -4.95" fill="none" stroke="#5f6150" stroke-linecap="round" stroke-linejoin="round" stroke-width="0.05"/>
    <path d="M-37.2 -4.95 L-39.55 -5.25 Q-36.65 -11.5 -29.9 -12.85 -22.95 -14.25 -19.65 -8.4 -16.4 -2.5 -16.2 6.0 L-15.75 21.25 -15.2 32.65 -15.1 35.1 -15.05 36.55 Q-14.8 43.7 -14.0 51.75 -13.65 55.55 -13.65 59.4 -13.65 63.2 -14.0 67.1 -14.25 69.55 -15.15 74.15 L-15.35 75.05 -18.25 75.25 -18.25 74.15 -18.4 36.75 -18.4 35.1 -18.45 32.65 Q-18.7 12.8 -19.0 9.0 -19.6 2.55 -20.35 -1.05 -22.5 -8.55 -25.75 -9.0 -30.4 -10.7 -37.2 -4.95" fill="#899865" fill-rule="evenodd" stroke="none"/>
    <path d="M-23.2 263.8 Q-23.5 265.05 -24.9 265.6 -30.7 267.8 -35.95 262.05 -39.05 258.65 -40.85 254.4 L-41.05 254.0 -37.6 252.55 -37.35 252.95 Q-35.25 256.0 -32.1 257.85 -26.65 261.05 -30.0 252.05 L-30.7 250.2 -30.95 249.7 -30.0 249.35 -29.8 249.8 -28.1 254.15 Q-25.05 259.5 -23.2 263.8" fill="#a8b38c" fill-rule="evenodd" stroke="none"/>
    <path d="M-30.95 249.7 L-30.7 250.2 -30.0 252.05 Q-26.65 261.05 -32.1 257.85 -35.25 256.0 -37.35 252.95 L-37.6 252.55 -30.95 249.7" fill="#c6cdb4" fill-rule="evenodd" stroke="none"/>
    <path d="M-41.05 254.0 L-40.85 254.4 Q-39.05 258.65 -35.95 262.05 -30.7 267.8 -24.9 265.6 -23.5 265.05 -23.2 263.8 -19.6 272.35 -21.0 277.0 -22.3 281.45 -27.65 281.3 -32.55 281.65 -39.95 265.05 L-40.8 259.25 -42.55 255.15 -42.75 254.7 -41.05 254.0 M-32.15 269.35 Q-32.95 268.6 -33.45 268.8 -33.95 269.05 -33.8 270.15 -33.7 271.25 -33.0 272.6 L-31.6 274.7 -30.6 275.35 -30.2 275.3 Q-29.75 275.05 -29.9 274.0 L-30.2 272.55 -30.65 271.55 Q-31.3 270.15 -32.15 269.35" fill="#899865" fill-rule="evenodd" stroke="none"/>
    <path d="M-32.15 269.35 Q-31.3 270.15 -30.65 271.55 L-30.2 272.55 -29.9 274.0 Q-29.75 275.05 -30.2 275.3 L-30.6 275.35 -31.6 274.7 -33.0 272.6 Q-33.7 271.25 -33.8 270.15 -33.95 269.05 -33.45 268.8 -32.95 268.6 -32.15 269.35" fill="url(#gradient0)" fill-rule="evenodd" stroke="none"/>
    <path d="M-23.2 263.8 Q-25.05 259.5 -28.1 254.15 L-29.8 249.8 -30.0 249.35 M-42.75 254.7 L-42.55 255.15 -40.8 259.25 -39.95 265.05 Q-32.55 281.65 -27.65 281.3 -22.3 281.45 -21.0 277.0 -19.6 272.35 -23.2 263.8" fill="none" stroke="#5f6150" stroke-linecap="round" stroke-linejoin="round" stroke-width="1.0"/>
    <path d="M-26.3 -14.0 Q-25.75 -17.7 -24.0 -20.9 -22.35 -23.9 -20.5 -26.5 L-19.3 -26.3 Q-16.55 -24.65 -14.15 -22.25 -11.9 -20.0 -10.6 -16.85 L-16.0 -16.55 Q-19.5 -15.3 -21.6 -11.95 -23.0 -9.7 -23.25 -6.5 L-24.4 -7.4 Q-27.0 -9.5 -26.3 -14.0 M-41.75 -15.7 Q-44.6 -16.7 -47.5 -16.85 -46.95 -18.7 -45.6 -20.25 L-41.3 -24.55 Q-38.75 -26.75 -37.0 -24.75 -34.75 -22.1 -33.75 -18.7 L-31.55 -11.9 Q-30.4 -8.7 -33.4 -8.0 L-36.95 -12.45 Q-38.95 -14.7 -41.75 -15.7 M-35.75 -20.85 Q-38.9 -20.55 -40.05 -17.4 -40.55 -16.15 -39.4 -16.45 -36.15 -17.3 -35.75 -20.85 M-13.35 -3.4 Q-13.45 0.3 -11.15 0.8 -10.55 -2.1 -11.25 -3.4 -11.8 -4.5 -13.25 -4.5 L-13.35 -3.4 M-10.4 -6.45 Q-6.5 -7.0 -5.8 -3.4 L-5.75 -3.1 Q-5.2 0.5 -4.9 4.2 -7.35 1.65 -11.75 2.8 -15.45 3.7 -18.25 6.3 L-19.35 7.45 Q-19.7 4.1 -20.35 0.2 -19.1 -1.85 -17.25 -3.4 L-16.0 -4.35 Q-13.5 -6.05 -10.4 -6.45 M-17.45 -18.45 Q-19.3 -20.7 -22.7 -21.05 -20.85 -17.65 -17.45 -18.45 M-14.7 16.75 Q-12.45 15.05 -9.05 15.75 -6.0 16.35 -4.5 19.0 -4.2 19.55 -4.15 20.35 -3.7 24.2 -4.1 28.0 -4.3 29.1 -4.1 30.15 -6.5 27.65 -10.35 27.2 -14.3 26.75 -17.1 29.55 L-18.45 30.7 -18.8 24.0 -18.75 21.25 Q-17.1 18.5 -14.7 16.75 M-10.55 24.6 Q-9.95 25.7 -9.5 24.05 -8.3 19.35 -11.05 17.8 -12.35 21.6 -10.55 24.6 M-11.3 46.15 Q-11.25 48.05 -10.3 49.7 -9.65 50.8 -9.2 49.15 -8.75 47.45 -8.85 46.15 -9.0 43.9 -10.75 42.9 -11.35 44.6 -11.3 46.15 M-18.35 46.15 Q-16.75 43.55 -14.4 41.85 -12.15 40.15 -8.8 40.85 -5.7 41.45 -4.2 44.1 -3.95 44.65 -3.85 45.45 L-3.8 46.15 Q-3.45 49.65 -3.8 53.1 -4.0 54.2 -3.8 55.25 -6.2 52.75 -10.05 52.3 -14.0 51.85 -16.8 54.65 L-18.2 55.8 -18.55 49.1 -18.5 46.35 -18.35 46.15" fill="#443422" fill-rule="evenodd" stroke="none"/>
    <path d="M-13.35 -3.4 L-13.25 -4.5 Q-11.8 -4.5 -11.25 -3.4 -10.55 -2.1 -11.15 0.8 -13.45 0.3 -13.35 -3.4 M-35.75 -20.85 Q-36.15 -17.3 -39.4 -16.45 -40.55 -16.15 -40.05 -17.4 -38.9 -20.55 -35.75 -20.85 M-17.45 -18.45 Q-20.85 -17.65 -22.7 -21.05 -19.3 -20.7 -17.45 -18.45 M-11.3 46.15 Q-11.35 44.6 -10.75 42.9 -9.0 43.9 -8.85 46.15 -8.75 47.45 -9.2 49.15 -9.65 50.8 -10.3 49.7 -11.25 48.05 -11.3 46.15 M-10.55 24.6 Q-12.35 21.6 -11.05 17.8 -8.3 19.35 -9.5 24.05 -9.95 25.7 -10.55 24.6" fill="#ab8458" fill-rule="evenodd" stroke="none"/>
    <path d="M6.75 93.65 Q9.05 96.75 10.55 100.3 10.9 101.3 10.7 102.75 8.3 101.1 4.7 102.65 1.05 104.15 -0.05 108.0 L-1.15 110.4 Q-2.35 107.0 -4.2 104.0 L-5.55 101.55 Q-5.45 98.35 -4.2 95.65 -3.05 93.05 0.2 92.05 3.15 91.05 5.75 92.65 L6.75 93.65 M6.2 120.35 Q8.3 119.15 11.2 119.75 L13.05 120.35 Q14.75 121.2 15.8 123.0 L16.15 124.35 Q16.6 128.2 16.2 132.0 16.0 133.1 16.2 134.15 13.8 131.65 9.95 131.2 6.0 130.75 3.2 133.55 L1.8 134.7 1.45 128.0 Q1.4 126.55 1.5 125.25 3.2 122.5 5.6 120.75 L6.2 120.35 M3.9 99.45 Q2.65 94.75 -0.5 94.8 0.2 98.75 3.25 100.5 4.3 101.1 3.9 99.45 M9.35 146.7 Q11.7 148.7 11.75 151.75 L11.4 153.1 Q9.95 156.7 7.75 159.8 7.05 160.7 6.7 161.7 5.85 158.35 2.7 156.1 -0.55 153.8 -4.35 154.9 L-5.85 155.25 -6.0 155.15 -3.15 149.25 -1.85 146.85 Q0.95 145.25 3.95 144.85 6.75 144.45 9.35 146.7 M10.8 128.05 Q12.0 123.35 9.25 121.8 7.95 125.6 9.7 128.6 10.35 129.7 10.8 128.05 M4.95 153.75 Q8.25 150.2 6.6 147.55 3.65 150.25 3.75 153.7 L4.95 153.75 M-15.7 68.2 Q-13.8 66.1 -10.4 66.15 -7.25 66.15 -5.3 68.45 -4.95 68.95 -4.7 69.7 -3.5 73.4 -3.2 77.2 L-2.8 79.3 Q-5.6 77.3 -9.45 77.6 -12.1 77.8 -13.9 79.3 L-15.65 81.2 -16.75 82.6 -17.55 79.3 -18.35 76.1 -18.85 73.4 Q-17.75 70.35 -15.7 68.2 M-9.2 74.35 Q-8.9 69.5 -11.95 68.55 -12.5 72.5 -10.2 75.1 -9.35 76.05 -9.2 74.35 M-18.05 162.05 L-18.05 161.9 -17.85 161.9 -18.05 162.05 M-22.35 182.4 L-19.4 176.35 -18.0 174.0 Q-15.2 172.4 -12.25 172.05 -9.5 171.65 -6.9 173.9 -4.5 175.9 -4.5 178.95 -4.5 179.55 -4.8 180.3 -6.25 183.85 -8.5 187.0 -9.2 187.85 -9.55 188.85 -10.4 185.5 -13.55 183.25 -16.8 180.95 -20.6 182.05 L-22.35 182.4 M-11.25 180.9 Q-7.9 177.4 -9.6 174.7 -12.6 177.4 -12.5 180.85 L-11.25 180.9 M-29.7 208.15 L-28.5 208.2 Q-25.2 204.6 -26.95 201.95 -29.85 204.7 -29.7 208.15 M-22.05 207.4 Q-23.4 211.0 -25.55 214.2 -26.25 215.05 -26.55 216.1 -27.5 212.75 -30.7 210.6 -34.0 208.3 -37.75 209.5 L-39.5 209.85 -36.7 203.8 -35.4 201.4 Q-32.65 199.75 -29.7 199.3 -26.9 198.85 -24.25 201.05 -21.8 203.0 -21.7 206.05 L-22.05 207.4 M-37.1 234.0 Q-35.85 229.3 -38.65 227.75 -39.95 231.55 -38.2 234.55 -37.55 235.65 -37.1 234.0 M-32.1 228.95 Q-31.85 229.5 -31.75 230.3 -31.25 234.15 -31.7 237.95 L-31.7 240.1 Q-34.05 237.6 -37.95 237.15 -41.9 236.7 -44.7 239.5 L-46.05 240.65 -46.4 233.95 -46.35 231.2 Q-44.7 228.45 -42.3 226.7 -40.0 225.0 -36.65 225.7 -33.6 226.3 -32.1 228.95" fill="#443422" fill-rule="evenodd" stroke="none"/>
    <path d="M3.9 99.45 Q4.3 101.1 3.25 100.5 0.2 98.75 -0.5 94.8 2.65 94.75 3.9 99.45 M4.95 153.75 L3.75 153.7 Q3.65 150.25 6.6 147.55 8.25 150.2 4.95 153.75 M10.8 128.05 Q10.35 129.7 9.7 128.6 7.95 125.6 9.25 121.8 12.0 123.35 10.8 128.05 M-9.2 74.35 Q-9.35 76.05 -10.2 75.1 -12.5 72.5 -11.95 68.55 -8.9 69.5 -9.2 74.35 M-29.7 208.15 Q-29.85 204.7 -26.95 201.95 -25.2 204.6 -28.5 208.2 L-29.7 208.15 M-11.25 180.9 L-12.5 180.85 Q-12.6 177.4 -9.6 174.7 -7.9 177.4 -11.25 180.9 M-37.1 234.0 Q-37.55 235.65 -38.2 234.55 -39.95 231.55 -38.65 227.75 -35.85 229.3 -37.1 234.0" fill="#ab8458" fill-rule="evenodd" stroke="none"/>
  </g>
  <defs>
    <radialGradient cx="0" cy="0" gradientTransform="matrix(-0.0018, 8.0E-4, -0.0024, -0.0053, -31.65, 272.2)" gradientUnits="userSpaceOnUse" id="gradient0" r="819.2" spreadMethod="pad">
      <stop offset="0.0" stop-color="#ffffff"/>
      <stop offset="0.6705882352941176" stop-color="#000000"/>
    </radialGradient>
  </defs>
</svg>
