<?xml version="1.0" encoding="UTF-8" standalone="no"?>
<svg xmlns:xlink="http://www.w3.org/1999/xlink" height="329.25px" width="70.0px" xmlns="http://www.w3.org/2000/svg">
  <g transform="matrix(1.0, 0.0, 0.0, 1.0, 53.35, 29.0)">
    <path d="M-28.0 273.75 Q-31.75 268.1 -33.85 263.75 L-37.75 255.9 Q-39.4 252.85 -39.7 249.85 L-39.9 249.9 Q-40.9 246.35 -41.3 242.6 -41.8 238.25 -41.5 233.65 -41.0 225.0 -38.05 217.2 -35.0 209.1 -30.35 201.85 L-28.85 199.55 -21.45 188.65 -11.95 175.95 Q-6.75 169.15 -3.25 162.75 L-1.9 160.25 Q1.05 154.35 3.15 147.7 L4.65 142.4 5.5 138.7 6.65 131.8 Q7.8 122.85 5.7 114.55 L5.35 113.15 Q3.25 105.95 -1.2 99.5 L-1.25 99.45 -1.75 98.7 Q-6.05 92.4 -8.25 86.15 -9.85 81.6 -10.75 76.75 L-11.2 74.15 -7.4 74.15 -6.95 76.75 Q-6.1 80.5 -4.2 83.8 -0.3 90.6 3.35 97.7 6.95 104.7 9.7 112.45 12.45 120.4 11.65 129.55 10.9 137.7 8.5 145.85 6.15 153.9 3.05 160.25 L2.65 161.0 Q-1.15 168.45 -5.95 174.8 -10.55 180.75 -14.35 187.35 -18.2 193.9 -23.5 200.2 -28.8 206.45 -31.55 214.1 -34.35 221.75 -35.3 229.9 -36.2 237.45 -34.35 246.35 L-34.15 247.65 Q-32.85 250.95 -32.7 251.65 -31.95 256.05 -29.75 259.9 L-22.2 273.75 -28.0 273.75" fill="#c6cdb4" fill-rule="evenodd" stroke="none"/>
    <path d="M-22.2 273.75 L-29.75 259.9 Q-31.95 256.05 -32.7 251.65 -32.85 250.95 -34.15 247.65 L-34.35 246.35 Q-36.2 237.45 -35.3 229.9 -34.35 221.75 -31.55 214.1 -28.8 206.45 -23.5 200.2 -18.2 193.9 -14.35 187.35 -10.55 180.75 -5.95 174.8 -1.15 168.45 2.65 161.0 L3.05 160.25 Q6.15 153.9 8.5 145.85 10.9 137.7 11.65 129.55 12.45 120.4 9.7 112.45 6.95 104.7 3.35 97.7 -0.3 90.6 -4.2 83.8 -6.1 80.5 -6.95 76.75 L-7.4 74.15 -11.2 74.15 -10.75 76.75 Q-9.85 81.6 -8.25 86.15 -6.05 92.4 -1.75 98.7 L-1.25 99.45 -1.2 99.5 Q3.25 105.95 5.35 113.15 L5.7 114.55 Q7.8 122.85 6.65 131.8 L5.5 138.7 4.65 142.4 3.15 147.7 Q1.05 154.35 -1.9 160.25 L-3.25 162.75 Q-6.75 169.15 -11.95 175.95 L-21.45 188.65 -28.85 199.55 -30.35 201.85 Q-35.0 209.1 -38.05 217.2 -41.0 225.0 -41.5 233.65 -41.8 238.25 -41.3 242.6 -40.9 246.35 -39.9 249.9 L-39.7 249.85 Q-39.4 252.85 -37.75 255.9 L-33.85 263.75 Q-31.75 268.1 -28.0 273.75 L-30.6 273.75 -37.55 262.6 Q-39.8 258.85 -40.6 253.95 L-40.95 251.15 -40.9 251.15 Q-40.8 250.7 -42.1 249.0 -42.25 247.15 -42.65 245.55 -43.75 241.6 -43.9 237.15 -44.1 232.7 -43.4 227.15 -42.75 221.6 -41.65 218.9 L-40.5 216.15 -38.7 212.4 Q-35.55 206.5 -31.75 200.95 L-31.75 200.9 -30.25 198.7 -30.2 198.65 Q-26.25 193.0 -23.35 187.55 L-22.2 185.3 Q-18.65 178.15 -13.7 171.9 -9.55 166.65 -5.5 160.25 L-5.1 159.55 Q-1.1 153.05 1.6 146.95 L2.15 145.55 3.35 142.1 4.2 138.4 Q4.75 135.2 4.85 131.75 L4.85 130.45 Q4.85 121.35 2.7 113.9 0.65 106.5 -3.1 100.6 L-3.55 99.9 -3.6 99.85 -12.0 86.5 Q-14.5 82.35 -15.25 76.75 L-15.4 75.05 -15.35 75.05 -15.15 74.15 -15.6 74.15 -4.6 71.2 -3.25 76.75 Q0.45 89.7 6.35 93.4 22.8 124.6 11.65 150.3 9.95 154.35 6.8 160.25 -1.75 176.1 -20.95 205.3 -36.6 223.45 -30.35 247.35 L-30.7 246.75 Q-26.3 265.05 -20.95 269.5 L-18.15 273.75 -22.2 273.75" fill="#a8b38c" fill-rule="evenodd" stroke="none"/>
    <path d="M-15.6 74.15 L-15.15 74.15 -15.35 75.05 -15.4 75.05 -15.25 76.75 Q-14.5 82.35 -12.0 86.5 L-3.6 99.85 -3.55 99.9 -3.1 100.6 Q0.65 106.5 2.7 113.9 4.85 121.35 4.85 130.45 L4.85 131.75 Q4.75 135.2 4.2 138.4 L3.35 142.1 2.15 145.55 1.6 146.95 Q-1.1 153.05 -5.1 159.55 L-5.5 160.25 Q-9.55 166.65 -13.7 171.9 -18.65 178.15 -22.2 185.3 L-23.35 187.55 Q-26.25 193.0 -30.2 198.65 L-30.25 198.7 -31.75 200.9 -31.75 200.95 Q-35.55 206.5 -38.7 212.4 L-40.5 216.15 -41.65 218.9 Q-42.75 221.6 -43.4 227.15 -44.1 232.7 -43.9 237.15 -43.75 241.6 -42.65 245.55 -42.25 247.15 -42.1 249.0 -40.8 250.7 -40.9 251.15 L-40.95 251.15 -40.6 253.95 Q-39.8 258.85 -37.55 262.6 L-30.6 273.75 -34.2 273.75 Q-39.65 266.8 -42.8 254.95 L-42.8 254.85 -42.9 254.65 Q-52.1 229.85 -35.45 202.15 L-5.55 154.85 Q10.95 128.25 -5.9 100.7 -13.9 93.05 -17.75 76.75 L-18.1 75.25 -18.25 75.25 -18.25 74.15 -15.6 74.15 M-43.65 251.35 L-42.8 254.85 -43.65 251.35" fill="#899865" fill-rule="evenodd" stroke="none"/>
    <path d="M-18.15 273.75 L-20.95 269.5 Q-26.3 265.05 -30.7 246.75 M-30.35 247.35 Q-36.6 223.45 -20.95 205.3 -1.75 176.1 6.8 160.25 9.95 154.35 11.65 150.3 22.8 124.6 6.35 93.4 0.45 89.7 -3.25 76.75 L-4.6 71.2" fill="none" stroke="#5f6150" stroke-linecap="round" stroke-linejoin="round" stroke-width="1.0"/>
    <path d="M-18.1 75.25 L-17.75 76.75 Q-13.9 93.05 -5.9 100.7 10.95 128.25 -5.55 154.85 L-35.45 202.15 Q-52.1 229.85 -42.9 254.65 L-42.8 254.85 -43.65 251.35 M-34.2 273.75 Q-39.65 266.8 -42.8 254.95 L-42.8 254.85" fill="none" stroke="#5f6150" stroke-linecap="round" stroke-linejoin="round" stroke-width="1.0"/>
    <path d="M-52.35 -2.15 L-51.8 -4.75 -51.55 -5.7 Q-50.8 -7.2 -49.7 -8.35 L-44.35 -11.8 -49.7 -8.35 Q-47.6 -10.75 -44.35 -11.8 L-43.7 -12.0 Q-42.9 -12.3 -42.15 -13.65 -41.7 -13.1 -39.3 -15.15 -40.15 -11.9 -40.7 -11.45 -45.0 -8.2 -46.1 -8.0 -47.2 -7.8 -47.45 -4.35 -47.75 -0.55 -45.55 1.85 L-41.05 6.15 -34.8 11.1 -30.4 14.45 Q-28.15 16.15 -24.55 17.1 L-16.0 18.65 -6.45 19.05 -2.5 18.75 -9.9 17.55 Q-20.5 15.5 -23.95 14.45 -27.45 13.4 -30.3 11.1 -32.95 8.9 -37.15 3.95 -40.1 0.55 -40.7 -1.15 -41.15 -1.5 -41.9 -3.15 -42.8 -5.0 -30.35 -14.9 L-28.4 -11.05 Q-36.7 -6.0 -36.55 -1.7 -35.8 10.4 -19.3 13.65 L-11.85 15.4 -15.35 14.4 -7.2 16.5 -14.95 14.35 -6.8 16.5 -6.75 16.55 -3.3 18.05 Q-1.95 18.6 -2.3 18.7 L-1.7 18.65 -0.75 19.05 -6.5 19.85 -25.0 18.9 Q-28.25 17.4 -31.75 16.3 -35.3 15.2 -38.35 12.65 L-43.65 8.15 -48.55 3.25 Q-50.7 0.85 -52.35 -2.15 M-52.2 -4.7 L-51.95 -5.65 -50.5 -7.85 -51.95 -5.6 -52.2 -4.7 M-51.05 6.4 L-51.0 6.25 -48.35 9.7 Q-50.0 8.15 -51.05 6.4 M-7.15 16.15 L-6.95 16.4 Q-13.55 14.3 -11.35 14.3 L-7.15 16.15" fill="#a8b38c" fill-rule="evenodd" stroke="none"/>
    <path d="M-1.7 18.65 L-2.3 18.7 Q-1.95 18.6 -3.3 18.05 L-6.75 16.55 -6.8 16.5 -5.75 16.8 -6.95 16.4 -7.15 16.15 -5.75 16.8 -1.7 18.65 M-30.35 -14.9 Q-42.8 -5.0 -41.9 -3.15 -41.15 -1.5 -40.7 -1.15 -40.1 0.55 -37.15 3.95 -32.95 8.9 -30.3 11.1 -27.45 13.4 -23.95 14.45 -20.5 15.5 -9.9 17.55 L-2.5 18.75 -6.45 19.05 -16.0 18.65 -24.55 17.1 Q-28.15 16.15 -30.4 14.45 L-34.8 11.1 -41.05 6.15 -45.55 1.85 Q-47.75 -0.55 -47.45 -4.35 -47.2 -7.8 -46.1 -8.0 -45.0 -8.2 -40.7 -11.45 -40.15 -11.9 -39.3 -15.15 -36.1 -17.05 -33.9 -16.5 -31.7 -15.95 -30.35 -14.9" fill="#c6cdb4" fill-rule="evenodd" stroke="none"/>
    <path d="M-52.35 -2.15 Q-50.7 0.85 -48.55 3.25 L-43.65 8.15 -38.35 12.65 Q-35.3 15.2 -31.75 16.3 -28.25 17.4 -25.0 18.9 L-29.4 18.1 -33.85 17.1 -40.45 15.65 -43.4 13.8 Q-45.75 12.2 -47.05 10.85 L-48.35 9.7 -47.05 10.85 Q-45.75 12.2 -43.4 13.8 L-40.45 15.65 -41.65 15.1 -43.4 14.15 -43.95 13.8 Q-45.9 12.5 -47.55 10.65 L-48.35 9.7 -51.0 6.25 -51.05 6.4 -52.3 3.55 -52.1 2.7 -52.15 2.6 -52.15 2.5 -52.4 0.9 -52.45 -0.3 -52.5 -0.4 -52.75 -1.85 -52.75 -2.1 -52.75 -1.85 -52.85 -0.25 -52.9 -0.35 Q-53.4 -1.85 -53.0 -2.55 L-52.75 -2.1 -52.7 -2.4 -52.6 -2.6 -52.35 -2.15 M-6.8 16.5 L-14.95 14.35 -7.2 16.5 -15.35 14.4 -11.85 15.4 -19.3 13.65 Q-35.8 10.4 -36.55 -1.7 -36.7 -6.0 -28.4 -11.05 -30.05 -9.0 -28.95 -9.15 L-30.35 -8.2 Q-31.5 -7.4 -32.25 -6.2 -35.7 -1.75 -33.8 1.35 -35.7 -1.75 -32.25 -6.2 -34.3 0.25 -33.5 0.5 L-33.8 1.35 -33.8 1.55 -33.8 1.95 -33.75 2.35 -33.8 2.35 -33.75 2.55 -33.5 3.0 -29.3 7.35 Q-24.85 11.5 -11.35 14.3 -13.55 14.3 -6.95 16.4 L-6.8 16.5 M-34.3 1.6 L-33.8 2.35 -34.3 1.6" fill="#899865" fill-rule="evenodd" stroke="none"/>
    <path d="M-25.0 18.9 L-6.5 19.85 -0.75 19.05 -1.7 18.65 -5.75 16.8 -7.15 16.15 -11.35 14.3 Q-24.85 11.5 -29.3 7.35 L-33.5 3.0 -33.75 2.55 -33.8 2.35 -34.3 1.6 M-28.4 -11.05 L-30.35 -14.9 Q-31.7 -15.95 -33.9 -16.5 -36.1 -17.05 -39.3 -15.15 -41.7 -13.1 -42.15 -13.65 -43.1 -12.35 -44.1 -11.95 L-44.35 -11.8 -49.7 -8.35 -50.5 -7.85 -51.95 -5.6 -52.2 -4.7 -52.7 -2.4 -52.75 -2.1 -52.75 -1.85 -52.85 -0.25 M-52.3 3.55 L-51.05 6.4 Q-50.0 8.15 -48.35 9.7 L-47.05 10.85 Q-45.75 12.2 -43.4 13.8 L-40.45 15.65 -33.85 17.1 -29.4 18.1 -25.0 18.9 M-32.25 -6.2 Q-31.5 -7.4 -30.35 -8.2 L-28.95 -9.15 Q-30.05 -9.0 -28.4 -11.05 M-33.8 2.35 L-33.75 2.35 -33.8 1.95 -33.8 1.55 -33.8 1.35 Q-35.7 -1.75 -32.25 -6.2 M-33.75 2.55 L-33.75 2.35 M-52.5 2.75 L-52.85 0.5 -52.85 0.15" fill="none" stroke="#5f6150" stroke-linecap="round" stroke-linejoin="round" stroke-width="1.0"/>
    <path d="M-43.45 -9.65 Q-41.25 -11.0 -38.75 -11.6 -36.3 -12.2 -36.05 -11.1 -35.85 -10.0 -37.85 -9.5 -39.9 -9.0 -41.25 -7.7 -42.65 -6.4 -43.6 -6.0 L-45.65 -5.95 Q-46.8 -6.3 -46.25 -7.3 -45.7 -8.35 -43.45 -9.65 M-40.4 2.75 L-39.95 2.9 -37.85 4.0 Q-37.05 4.55 -37.05 4.95 -37.05 5.35 -38.1 5.75 L-40.15 6.1 Q-41.15 6.1 -41.35 5.75 L-41.55 4.95 -41.35 3.45 -41.25 3.05 -40.4 2.75 M-23.55 15.1 L-23.25 16.3 -25.1 16.4 Q-27.05 15.9 -27.7 15.6 L-28.35 14.95 Q-28.35 14.55 -27.7 14.25 L-26.1 14.0 -24.5 14.25 Q-23.85 14.55 -23.55 15.1" fill="#ab8458" fill-rule="evenodd" stroke="none"/>
    <path d="M-44.15 -5.35 Q-50.3 -5.35 -52.55 -0.35 L-52.35 -2.55 Q-51.15 -9.2 -44.45 -12.05 -43.0 -12.65 -41.25 -12.75 -35.2 -13.15 -33.1 -8.25 -31.45 -4.3 -34.3 -1.2 -38.35 -5.3 -44.15 -5.35 M-43.45 -9.65 Q-45.7 -8.35 -46.25 -7.3 -46.8 -6.3 -45.65 -5.95 L-43.6 -6.0 Q-42.65 -6.4 -41.25 -7.7 -39.9 -9.0 -37.85 -9.5 -35.85 -10.0 -36.05 -11.1 -36.3 -12.2 -38.75 -11.6 -41.25 -11.0 -43.45 -9.65 M-40.4 2.75 L-39.05 2.5 Q-34.85 2.1 -32.3 4.0 L-30.25 5.6 -29.1 6.55 -31.65 6.25 -34.5 6.0 -35.95 6.15 Q-37.5 6.35 -38.8 7.05 -40.2 7.8 -40.75 9.2 L-41.2 11.5 Q-41.2 14.0 -39.05 16.25 L-42.8 14.1 -44.05 12.8 -44.65 11.5 Q-45.45 9.4 -44.6 6.95 L-44.3 6.1 Q-43.35 3.9 -41.25 3.05 L-41.35 3.45 -41.55 4.95 -41.35 5.75 Q-41.15 6.1 -40.15 6.1 L-38.1 5.75 Q-37.05 5.35 -37.05 4.95 -37.05 4.55 -37.85 4.0 L-39.95 2.9 -40.4 2.75 M-18.85 11.9 L-19.5 12.2 Q-23.25 14.4 -23.35 19.0 L-29.35 18.85 Q-30.0 15.9 -28.7 13.3 L-27.35 11.5 -18.85 11.9 M-23.55 15.1 Q-23.85 14.55 -24.5 14.25 L-26.1 14.0 -27.7 14.25 Q-28.35 14.55 -28.35 14.95 L-27.7 15.6 Q-27.05 15.9 -25.1 16.4 L-23.25 16.3 -23.55 15.1" fill="#443422" fill-rule="evenodd" stroke="none"/>
    <path d="M-51.75 -6.75 Q-45.5 -29.85 -25.75 -28.4 -11.45 -25.6 -6.25 -5.2 -5.0 0.5 -4.35 9.0 -4.1 12.5 -3.95 27.65 L-18.5 27.65 Q-18.75 12.3 -19.0 9.0 -19.6 2.55 -20.35 -1.05 -22.5 -8.55 -24.45 -11.1 -31.45 -14.6 -36.45 -5.75 L-51.75 -6.75" fill="#a8b38c" fill-rule="evenodd" stroke="none"/>
    <path d="M-51.75 -6.75 Q-45.5 -29.85 -25.75 -28.4 -11.45 -25.6 -6.25 -5.2 -5.0 0.5 -4.35 9.0 -4.1 12.5 -3.95 27.65 M-18.5 27.65 Q-18.75 12.3 -19.0 9.0 -19.6 2.55 -20.35 -1.05 -22.5 -8.55 -24.45 -11.1 -31.45 -14.6 -36.45 -5.75" fill="none" stroke="#5f6150" stroke-linecap="round" stroke-linejoin="round" stroke-width="1.0"/>
    <path d="M-18.5 27.65 L-3.95 27.65 -3.9 36.75 -3.8 74.15 -18.3 74.15 -18.4 36.75 -18.5 27.65" fill="#a8b38c" fill-rule="evenodd" stroke="none"/>
    <path d="M-3.95 27.65 L-3.9 36.75 -3.8 74.15 M-18.3 74.15 L-18.4 36.75 -18.5 27.65" fill="none" stroke="#5f6150" stroke-linecap="round" stroke-linejoin="round" stroke-width="1.0"/>
    <path d="M-47.85 -6.25 L-46.9 -9.25 Q-44.45 -15.95 -39.35 -19.55 -34.55 -22.95 -28.45 -24.35 -22.2 -25.75 -17.5 -20.7 -13.7 -16.55 -11.75 -9.05 -9.9 -2.25 -8.45 4.55 L-8.4 4.8 Q-7.6 9.3 -7.6 14.05 -7.7 21.15 -6.9 27.65 L-12.6 27.65 Q-12.8 24.85 -12.6 21.7 -12.05 13.6 -13.0 6.0 -14.0 -1.55 -16.25 -7.9 -18.85 -14.95 -24.75 -16.1 -31.15 -17.3 -36.1 -14.9 -41.0 -12.5 -43.65 -5.75 L-47.85 -6.25" fill="#c6cdb4" fill-rule="evenodd" stroke="none"/>
    <path d="M-37.2 -4.95 L-39.55 -5.25 Q-36.65 -11.5 -29.9 -12.85 -22.95 -14.25 -19.65 -8.4 -16.4 -2.5 -16.2 6.0 L-15.75 21.25 -15.45 27.65 -18.5 27.65 Q-18.75 12.3 -19.0 9.0 -19.6 2.55 -20.35 -1.05 -22.5 -8.55 -25.75 -9.0 -30.4 -10.7 -37.2 -4.95" fill="#899865" fill-rule="evenodd" stroke="none"/>
    <path d="M-6.9 27.65 L-6.75 29.0 Q-5.75 36.4 -6.2 43.85 -6.65 51.55 -6.55 59.05 -6.45 64.8 -6.75 70.5 L-6.95 74.15 -11.25 74.15 -11.25 70.5 -11.15 63.5 -11.0 47.8 Q-11.1 40.25 -11.95 33.35 L-12.05 32.6 -12.6 27.65 -6.9 27.65" fill="#c6cdb4" fill-rule="evenodd" stroke="none"/>
    <path d="M-15.45 27.65 L-15.05 36.55 Q-14.8 43.7 -14.0 51.75 -13.3 59.3 -14.0 67.1 L-14.25 70.5 -14.45 74.15 -18.25 74.15 -18.25 70.5 -18.4 36.75 -18.5 27.65 -15.45 27.65" fill="#899865" fill-rule="evenodd" stroke="none"/>
    <path d="M-22.9 268.15 L-21.95 267.8 -21.75 268.25 -20.05 272.6 Q-17.0 277.95 -15.15 282.25 -15.45 283.5 -16.85 284.05 -22.65 286.25 -27.9 280.5 -31.0 277.1 -32.8 272.85 L-33.0 272.45 -29.55 271.0 -29.3 271.4 Q-27.2 274.45 -24.05 276.3 -18.6 279.5 -21.95 270.5 L-22.65 268.65 -22.9 268.15" fill="#a8b38c" fill-rule="evenodd" stroke="none"/>
    <path d="M-29.55 271.0 L-22.9 268.15 -22.65 268.65 -21.95 270.5 Q-18.6 279.5 -24.05 276.3 -27.2 274.45 -29.3 271.4 L-29.55 271.0" fill="#c6cdb4" fill-rule="evenodd" stroke="none"/>
    <path d="M-15.15 282.25 Q-11.55 290.8 -12.95 295.45 -14.25 299.9 -19.6 299.75 -24.5 300.1 -31.9 283.5 L-32.75 277.7 -34.5 273.6 -34.7 273.15 -33.0 272.45 -32.8 272.85 Q-31.0 277.1 -27.9 280.5 -22.65 286.25 -16.85 284.05 -15.45 283.5 -15.15 282.25 M-22.6 290.0 Q-23.25 288.6 -24.1 287.8 -24.9 287.05 -25.4 287.25 -25.9 287.5 -25.75 288.6 -25.65 289.7 -24.95 291.05 -24.3 292.4 -23.55 293.15 L-22.55 293.8 -22.15 293.75 Q-21.7 293.5 -21.85 292.45 L-22.15 291.0 -22.6 290.0" fill="#899865" fill-rule="evenodd" stroke="none"/>
    <path d="M-22.6 290.0 L-22.15 291.0 -21.85 292.45 Q-21.7 293.5 -22.15 293.75 L-22.55 293.8 -23.55 293.15 Q-24.3 292.4 -24.95 291.05 -25.65 289.7 -25.75 288.6 -25.9 287.5 -25.4 287.25 -24.9 287.05 -24.1 287.8 -23.25 288.6 -22.6 290.0" fill="url(#gradient0)" fill-rule="evenodd" stroke="none"/>
    <path d="M-21.95 267.8 L-21.75 268.25 -20.05 272.6 Q-17.0 277.95 -15.15 282.25 -11.55 290.8 -12.95 295.45 -14.25 299.9 -19.6 299.75 -24.5 300.1 -31.9 283.5 L-32.75 277.7 -34.5 273.6 -34.7 273.15" fill="none" stroke="#5f6150" stroke-linecap="round" stroke-linejoin="round" stroke-width="1.0"/>
    <path d="M-47.0 -14.3 L-43.25 -13.95 Q-40.95 -13.6 -39.25 -12.45 -37.6 -11.35 -36.1 -9.35 L-34.55 -7.4 -36.2 -5.35 -37.95 -1.45 Q-39.5 -3.25 -41.5 -4.25 -43.5 -5.25 -45.75 -5.05 -48.0 -4.8 -49.7 -3.6 -51.65 -2.25 -52.8 -0.55 -53.4 -2.3 -52.6 -4.45 L-51.0 -9.25 Q-50.35 -11.55 -49.3 -13.85 L-47.0 -14.3 M-44.65 -6.85 L-42.85 -8.25 Q-42.4 -8.8 -42.4 -9.6 L-42.65 -12.3 Q-42.95 -14.2 -43.8 -13.15 L-45.15 -11.25 -46.6 -8.25 Q-47.6 -6.1 -46.75 -6.05 -45.9 -6.0 -44.65 -6.85 M-35.35 -27.2 Q-31.6 -28.75 -27.45 -28.45 -23.8 -28.25 -21.85 -27.25 -22.65 -24.8 -24.4 -22.0 -26.2 -19.25 -26.35 -14.55 -26.6 -9.85 -27.9 -9.45 -30.8 -8.5 -31.15 -10.65 -31.95 -15.1 -33.3 -19.3 -34.6 -23.3 -36.65 -27.0 L-35.35 -27.2 M-25.15 -21.5 Q-25.0 -22.35 -26.75 -22.8 L-29.45 -23.25 Q-30.3 -23.25 -30.95 -22.6 L-32.6 -20.9 Q-33.55 -19.8 -31.95 -19.45 L-29.45 -19.15 Q-28.55 -19.15 -26.95 -19.9 -25.35 -20.65 -25.15 -21.5 M-22.5 -5.65 Q-22.45 -11.35 -19.05 -12.8 L-15.05 -14.35 Q-14.45 -14.45 -13.8 -15.15 L-11.25 -15.1 Q-9.3 -14.4 -8.85 -13.8 L-7.7 -10.9 Q-7.05 -8.8 -6.7 -6.55 -9.25 -8.35 -12.35 -7.6 -15.6 -6.85 -18.05 -4.0 -19.6 -2.1 -20.95 -1.3 -21.75 -3.7 -22.8 -5.9 -23.8 -7.85 -22.5 -5.65 M-8.4 6.1 Q-8.65 4.4 -10.05 4.25 -11.5 4.1 -12.3 5.7 -13.15 7.25 -12.75 10.05 -12.35 12.8 -11.75 13.75 -11.15 14.65 -10.25 13.45 L-8.8 11.25 Q-8.2 10.35 -8.15 9.05 L-8.4 6.1 M-14.75 -13.1 Q-15.85 -13.35 -16.55 -12.7 -17.3 -12.05 -16.75 -10.6 L-15.75 -8.45 Q-15.2 -7.7 -14.4 -7.7 -13.65 -7.7 -13.15 -8.45 -12.6 -9.2 -12.6 -10.3 -12.6 -11.4 -13.15 -12.15 -13.65 -12.9 -14.75 -13.1 M-3.95 10.35 Q-3.85 14.1 -4.3 17.45 -6.3 14.3 -10.2 14.5 -14.25 14.65 -17.0 17.7 -18.15 19.0 -19.1 20.45 -18.6 16.25 -19.1 11.65 -19.35 9.65 -19.1 8.45 -17.0 5.4 -13.55 4.35 -9.75 3.2 -6.5 4.75 -4.05 5.9 -3.95 10.35" fill="#443422" fill-rule="evenodd" stroke="none"/>
    <path d="M-44.65 -6.85 Q-45.9 -6.0 -46.75 -6.05 -47.6 -6.1 -46.6 -8.25 L-45.15 -11.25 -43.8 -13.15 Q-42.95 -14.2 -42.65 -12.3 L-42.4 -9.6 Q-42.4 -8.8 -42.85 -8.25 L-44.65 -6.85 M-25.15 -21.5 Q-25.35 -20.65 -26.95 -19.9 -28.55 -19.15 -29.45 -19.15 L-31.95 -19.45 Q-33.55 -19.8 -32.6 -20.9 L-30.95 -22.6 Q-30.3 -23.25 -29.45 -23.25 L-26.75 -22.8 Q-25.0 -22.35 -25.15 -21.5 M-14.75 -13.1 Q-13.65 -12.9 -13.15 -12.15 -12.6 -11.4 -12.6 -10.3 -12.6 -9.2 -13.15 -8.45 -13.65 -7.7 -14.4 -7.7 -15.2 -7.7 -15.75 -8.45 L-16.75 -10.6 Q-17.3 -12.05 -16.55 -12.7 -15.85 -13.35 -14.75 -13.1 M-8.4 6.1 L-8.15 9.05 Q-8.2 10.35 -8.8 11.25 L-10.25 13.45 Q-11.15 14.65 -11.75 13.75 -12.35 12.8 -12.75 10.05 -13.15 7.25 -12.3 5.7 -11.5 4.1 -10.05 4.25 -8.65 4.4 -8.4 6.1" fill="#ab8458" fill-rule="evenodd" stroke="none"/>
    <path d="M-8.15 35.9 Q-7.55 35.0 -7.55 33.7 L-7.75 30.75 Q-8.0 29.05 -9.4 28.9 -10.85 28.75 -11.65 30.35 -12.5 31.9 -12.1 34.7 -11.7 37.45 -11.1 38.4 -10.5 39.3 -9.6 38.1 L-8.15 35.9 M-3.3 35.0 Q-3.2 38.75 -3.65 42.1 -5.65 38.95 -9.55 39.15 -13.6 39.3 -16.35 42.35 L-18.45 45.1 Q-17.95 40.9 -18.45 36.3 -18.7 34.3 -18.45 33.1 -16.35 30.05 -12.9 29.0 -9.15 27.85 -5.85 29.4 -3.4 30.55 -3.3 35.0 M-3.5 60.95 Q-3.4 64.7 -3.9 68.05 -5.9 64.9 -9.8 65.1 -13.85 65.25 -16.6 68.3 L-18.7 71.05 Q-18.2 66.85 -18.7 62.25 -18.95 60.25 -18.7 59.05 -16.6 56.0 -13.15 54.95 -9.35 53.8 -6.1 55.35 -3.65 56.5 -3.5 60.95 M-8.4 61.85 Q-7.8 60.95 -7.75 59.65 L-8.0 56.7 Q-8.25 55.0 -9.65 54.85 -11.1 54.7 -11.9 56.3 -12.75 57.85 -12.35 60.65 -11.95 63.4 -11.35 64.35 -10.75 65.25 -9.85 64.05 L-8.4 61.85" fill="#443422" fill-rule="evenodd" stroke="none"/>
    <path d="M-8.15 35.9 L-9.6 38.1 Q-10.5 39.3 -11.1 38.4 -11.7 37.45 -12.1 34.7 -12.5 31.9 -11.65 30.35 -10.85 28.75 -9.4 28.9 -8.0 29.05 -7.75 30.75 L-7.55 33.7 Q-7.55 35.0 -8.15 35.9 M-8.4 61.85 L-9.85 64.05 Q-10.75 65.25 -11.35 64.35 -11.95 63.4 -12.35 60.65 -12.75 57.85 -11.9 56.3 -11.1 54.7 -9.65 54.85 -8.25 55.0 -8.0 56.7 L-7.75 59.65 Q-7.8 60.95 -8.4 61.85" fill="#ab8458" fill-rule="evenodd" stroke="none"/>
    <path d="M2.7 90.95 Q-0.2 88.55 -3.85 90.0 -7.65 91.45 -9.25 95.2 L-9.65 96.55 Q-11.35 94.1 -13.15 90.15 -14.05 88.3 -14.8 87.45 -13.2 83.55 -10.25 81.45 -7.05 79.15 -3.45 79.6 -0.75 79.9 0.8 84.1 2.05 87.6 2.7 90.95 M9.75 101.85 Q12.4 102.15 13.95 106.3 15.25 109.8 15.85 113.15 12.95 110.8 9.35 112.25 5.55 113.65 3.9 117.45 L3.7 118.0 2.25 118.45 Q1.4 115.45 0.0 112.4 -0.85 110.55 -1.0 109.35 0.0 105.8 2.9 103.7 6.15 101.4 9.75 101.85 M8.35 103.7 Q7.6 102.2 6.2 102.5 4.8 102.8 4.5 104.55 4.25 106.3 5.5 108.8 6.75 111.3 7.65 112.0 8.5 112.7 8.95 111.25 L9.65 108.75 Q9.9 107.65 9.5 106.45 L8.35 103.7 M8.95 132.9 Q12.9 133.05 15.05 135.0 17.15 137.0 15.6 140.4 L11.65 149.65 Q12.6 144.65 8.85 143.6 5.0 142.45 1.4 144.45 -0.1 145.3 -1.45 146.35 0.35 142.55 1.35 138.05 1.75 136.05 2.4 135.0 5.35 132.8 8.95 132.9 M7.85 138.55 Q7.35 141.3 7.65 142.35 7.9 143.4 9.15 142.55 L11.25 141.0 Q12.1 140.3 12.5 139.1 L13.25 136.2 Q13.55 134.55 12.3 133.95 11.0 133.35 9.7 134.6 8.35 135.8 7.85 138.55 M1.75 170.15 Q-0.5 173.15 -2.9 175.5 -2.55 171.8 -5.75 169.6 -9.0 167.25 -13.05 168.0 -14.75 168.3 -16.4 168.9 -13.45 165.85 -11.0 161.9 -10.0 160.2 -9.1 159.4 -5.55 158.25 -2.2 159.5 1.45 160.9 3.1 164.15 4.35 166.55 1.75 170.15 M-8.0 56.7 Q-8.25 55.0 -9.65 54.85 -11.1 54.7 -11.9 56.3 -12.75 57.85 -12.35 60.65 -11.95 63.4 -11.35 64.35 -10.75 65.25 -9.85 64.05 L-8.4 61.85 Q-7.8 60.95 -7.75 59.65 L-8.0 56.7 M0.8 164.05 Q1.65 162.6 0.6 161.6 -0.45 160.6 -2.05 161.35 -3.7 162.05 -5.05 164.5 -6.4 166.95 -6.5 168.05 -6.6 169.1 -5.15 168.7 L-2.65 167.9 Q-1.65 167.55 -0.85 166.5 L0.8 164.05 M-3.5 60.95 Q-3.4 64.7 -3.9 68.05 -5.9 64.9 -9.8 65.1 -13.85 65.25 -16.6 68.3 L-18.7 71.05 Q-18.2 66.85 -18.7 62.25 -18.95 60.25 -18.7 59.05 -16.6 56.0 -13.15 54.95 -9.35 53.8 -6.1 55.35 -3.65 56.5 -3.5 60.95 M-3.55 86.5 Q-3.25 85.45 -3.65 84.2 -4.05 82.95 -4.8 81.45 -5.55 79.95 -6.95 80.25 -8.4 80.55 -8.65 82.35 -8.95 84.1 -7.65 86.6 -6.4 89.1 -5.55 89.75 -4.7 90.45 -4.25 89.0 L-3.55 86.5 M-31.1 193.7 Q-28.5 190.35 -26.5 186.2 -25.65 184.4 -24.8 183.5 -21.45 182.0 -17.95 182.9 -14.15 183.9 -12.2 186.95 -10.7 189.2 -12.9 193.05 -14.8 196.25 -16.95 198.9 -17.0 195.15 -20.4 193.3 -23.95 191.3 -27.85 192.45 -29.55 192.95 -31.1 193.7 M-33.35 213.5 Q-34.9 214.4 -36.0 217.0 -37.1 219.6 -37.05 220.7 -37.05 221.75 -35.65 221.2 L-33.25 220.1 Q-32.3 219.65 -31.6 218.55 L-30.2 215.9 Q-29.55 214.35 -30.7 213.5 -31.85 212.6 -33.35 213.5 M-17.6 184.65 Q-19.15 185.55 -20.25 188.15 -21.35 190.75 -21.3 191.85 -21.3 192.9 -19.9 192.35 L-17.5 191.25 Q-16.55 190.8 -15.85 189.7 L-14.45 187.05 Q-13.8 185.5 -14.95 184.65 -16.1 183.75 -17.6 184.65 M-29.4 220.45 L-32.7 227.75 Q-32.75 224.0 -36.15 222.15 -39.7 220.15 -43.6 221.3 -45.05 221.7 -45.55 222.8 -44.15 219.05 -42.25 215.05 -41.4 213.25 -40.55 212.35 -37.2 210.85 -33.7 211.75 -29.9 212.75 -28.7 214.7 -27.5 216.65 -29.4 220.45 M-32.1 246.55 Q-30.0 247.4 -29.25 251.55 L-27.5 259.35 Q-29.75 256.35 -33.65 256.95 -37.65 257.45 -40.1 260.75 -41.0 261.95 -40.75 263.1 L-42.75 254.9 Q-43.15 252.95 -43.05 251.75 -41.25 248.5 -37.9 247.15 -34.25 245.65 -32.1 246.55 M-32.15 251.35 L-32.6 248.4 Q-33.0 246.8 -34.45 246.75 -35.9 246.7 -36.55 248.35 -37.25 250.0 -36.55 252.75 -35.9 255.45 -35.25 256.3 -34.6 257.15 -33.8 255.9 L-32.55 253.6 Q-32.05 252.65 -32.15 251.35" fill="#443422" fill-rule="evenodd" stroke="none"/>
    <path d="M8.35 103.7 L9.5 106.45 Q9.9 107.65 9.65 108.75 L8.95 111.25 Q8.5 112.7 7.65 112.0 6.75 111.3 5.5 108.8 4.25 106.3 4.5 104.55 4.8 102.8 6.2 102.5 7.6 102.2 8.35 103.7 M7.85 138.55 Q8.35 135.8 9.7 134.6 11.0 133.35 12.3 133.95 13.55 134.55 13.25 136.2 L12.5 139.1 Q12.1 140.3 11.25 141.0 L9.15 142.55 Q7.9 143.4 7.65 142.35 7.35 141.3 7.85 138.55 M0.8 164.05 L-0.85 166.5 Q-1.65 167.55 -2.65 167.9 L-5.15 168.7 Q-6.6 169.1 -6.5 168.05 -6.4 166.95 -5.05 164.5 -3.7 162.05 -2.05 161.35 -0.45 160.6 0.6 161.6 1.65 162.6 0.8 164.05 M-8.0 56.7 L-7.75 59.65 Q-7.8 60.95 -8.4 61.85 L-9.85 64.05 Q-10.75 65.25 -11.35 64.35 -11.95 63.4 -12.35 60.65 -12.75 57.85 -11.9 56.3 -11.1 54.7 -9.65 54.85 -8.25 55.0 -8.0 56.7 M-3.55 86.5 L-4.25 89.0 Q-4.7 90.45 -5.55 89.75 -6.4 89.1 -7.65 86.6 -8.95 84.1 -8.65 82.35 -8.4 80.55 -6.95 80.25 -5.55 79.95 -4.8 81.45 -4.05 82.95 -3.65 84.2 -3.25 85.45 -3.55 86.5 M-17.6 184.65 Q-16.1 183.75 -14.95 184.65 -13.8 185.5 -14.45 187.05 L-15.85 189.7 Q-16.55 190.8 -17.5 191.25 L-19.9 192.35 Q-21.3 192.9 -21.3 191.85 -21.35 190.75 -20.25 188.15 -19.15 185.55 -17.6 184.65 M-33.35 213.5 Q-31.85 212.6 -30.7 213.5 -29.55 214.35 -30.2 215.9 L-31.6 218.55 Q-32.3 219.65 -33.25 220.1 L-35.65 221.2 Q-37.05 221.75 -37.05 220.7 -37.1 219.6 -36.0 217.0 -34.9 214.4 -33.35 213.5 M-32.15 251.35 Q-32.05 252.65 -32.55 253.6 L-33.8 255.9 Q-34.6 257.15 -35.25 256.3 -35.9 255.45 -36.55 252.75 -37.25 250.0 -36.55 248.35 -35.9 246.7 -34.45 246.75 -33.0 246.8 -32.6 248.4 L-32.15 251.35" fill="#ab8458" fill-rule="evenodd" stroke="none"/>
  </g>
  <defs>
    <radialGradient cx="0" cy="0" gradientTransform="matrix(-0.0018, 8.0E-4, -0.0024, -0.0053, -23.6, 290.65)" gradientUnits="userSpaceOnUse" id="gradient0" r="819.2" spreadMethod="pad">
      <stop offset="0.0" stop-color="#ffffff"/>
      <stop offset="0.6705882352941176" stop-color="#000000"/>
    </radialGradient>
  </defs>
</svg>
