<?xml version="1.0" encoding="UTF-8" standalone="no"?>
<svg xmlns:xlink="http://www.w3.org/1999/xlink" height="414.7px" width="63.35px" xmlns="http://www.w3.org/2000/svg">
  <g transform="matrix(1.0, 0.0, 0.0, 1.0, 46.7, 52.2)">
    <path d="M-26.9 336.95 Q-23.95 331.05 -21.85 324.4 L-20.35 319.1 -19.5 315.4 -18.35 308.5 Q-17.8 304.35 -17.95 300.3 -18.2 295.7 -19.3 291.25 L-19.65 289.85 Q-21.75 282.65 -26.2 276.2 L-26.25 276.15 -26.75 275.4 Q-31.05 269.1 -33.25 262.85 -34.85 258.3 -35.75 253.45 L-37.0 253.45 -37.0 253.4 -38.95 253.4 -39.7 250.05 -39.9 250.1 Q-40.9 246.55 -41.3 242.8 -41.8 238.45 -41.5 233.85 L-41.2 230.4 -40.3 224.95 Q-39.45 221.1 -38.05 217.4 -36.3 212.8 -34.05 208.5 L-30.35 202.05 -28.85 199.75 -23.65 192.0 -21.45 188.85 -11.95 176.15 Q-6.75 169.35 -3.25 162.95 0.6 155.95 3.15 147.9 L4.65 142.6 5.5 138.9 6.65 132.0 Q7.4 126.2 6.8 120.7 6.45 117.7 5.7 114.75 L5.35 113.35 Q3.25 106.15 -1.2 99.7 L-1.25 99.65 -1.75 98.9 -2.6 97.65 Q-6.25 92.0 -8.25 86.35 -10.3 80.6 -11.2 74.35 L-7.4 74.35 Q-6.75 79.6 -4.2 84.0 -0.35 90.7 3.25 97.65 L3.35 97.9 Q6.95 104.9 9.7 112.65 11.05 116.55 11.55 120.7 12.05 125.05 11.65 129.75 10.9 137.9 8.5 146.05 6.0 154.6 2.65 161.2 -1.15 168.65 -5.95 175.0 -10.55 180.95 -14.35 187.55 L-17.15 192.0 Q-20.0 196.25 -23.5 200.4 -26.7 204.2 -29.0 208.5 -30.5 211.3 -31.55 214.3 -33.45 219.5 -34.5 224.95 L-35.3 230.1 -35.3 230.4 Q-36.15 237.85 -34.35 246.55 L-34.15 247.85 Q-32.85 251.15 -32.7 251.85 L-32.4 253.4 -32.5 253.4 -32.5 253.45 -31.95 253.45 Q-31.1 257.2 -29.2 260.5 -25.3 267.3 -21.65 274.4 -18.05 281.4 -15.3 289.15 -13.45 294.45 -13.2 300.3 -13.1 303.2 -13.35 306.25 -14.1 314.4 -16.5 322.55 -18.85 330.6 -21.95 336.95 L-26.9 336.95" fill="#c6cdb4" fill-rule="evenodd" stroke="none"/>
    <path d="M-21.95 336.95 Q-18.85 330.6 -16.5 322.55 -14.1 314.4 -13.35 306.25 -13.1 303.2 -13.2 300.3 -13.45 294.45 -15.3 289.15 -18.05 281.4 -21.65 274.4 -25.3 267.3 -29.2 260.5 -31.1 257.2 -31.95 253.45 L-32.5 253.45 -32.5 253.4 -32.4 253.4 -32.7 251.85 Q-32.85 251.15 -34.15 247.85 L-34.35 246.55 Q-36.15 237.85 -35.3 230.4 L-35.3 230.1 -34.5 224.95 Q-33.45 219.5 -31.55 214.3 -30.5 211.3 -29.0 208.5 -26.7 204.2 -23.5 200.4 -20.0 196.25 -17.15 192.0 L-14.35 187.55 Q-10.55 180.95 -5.95 175.0 -1.15 168.65 2.65 161.2 6.0 154.6 8.5 146.05 10.9 137.9 11.65 129.75 12.05 125.05 11.55 120.7 11.05 116.55 9.7 112.65 6.95 104.9 3.35 97.9 L3.25 97.65 Q-0.35 90.7 -4.2 84.0 -6.75 79.6 -7.4 74.35 L-11.2 74.35 Q-10.3 80.6 -8.25 86.35 -6.25 92.0 -2.6 97.65 L-1.75 98.9 -1.25 99.65 -1.2 99.7 Q3.25 106.15 5.35 113.35 L5.7 114.75 Q6.45 117.7 6.8 120.7 7.4 126.2 6.65 132.0 L5.5 138.9 4.65 142.6 3.15 147.9 Q0.6 155.95 -3.25 162.95 -6.75 169.35 -11.95 176.15 L-21.45 188.85 -23.65 192.0 -28.85 199.75 -30.35 202.05 -34.05 208.5 Q-36.3 212.8 -38.05 217.4 -39.45 221.1 -40.3 224.95 L-41.2 230.4 -41.5 233.85 Q-41.8 238.45 -41.3 242.8 -40.9 246.55 -39.9 250.1 L-39.7 250.05 -38.95 253.4 -37.0 253.4 -37.0 253.45 -35.75 253.45 Q-34.85 258.3 -33.25 262.85 -31.05 269.1 -26.75 275.4 L-26.25 276.15 -26.2 276.2 Q-21.75 282.65 -19.65 289.85 L-19.3 291.25 Q-18.2 295.7 -17.95 300.3 -17.8 304.35 -18.35 308.5 L-19.5 315.4 -20.35 319.1 -21.85 324.4 Q-23.95 331.05 -26.9 336.95 L-30.5 336.95 -30.1 336.25 Q-26.1 329.75 -23.4 323.65 L-22.85 322.25 -21.65 318.8 -20.8 315.1 Q-20.25 311.9 -20.15 308.45 L-20.15 307.15 Q-20.15 303.6 -20.45 300.3 -21.0 295.15 -22.3 290.6 -24.35 283.2 -28.1 277.3 L-28.55 276.6 -28.6 276.55 Q-32.9 270.05 -37.0 263.2 -39.5 259.05 -40.25 253.45 L-40.85 253.45 -40.85 253.4 -40.75 253.4 -40.95 251.35 -40.9 251.35 Q-40.8 250.9 -42.1 249.2 -42.25 247.35 -42.65 245.75 -43.75 241.8 -43.9 237.35 -44.05 234.15 -43.7 230.4 L-43.4 227.35 -43.1 224.95 Q-42.5 221.2 -41.65 219.1 L-40.5 216.35 -38.7 212.6 -36.4 208.5 -31.75 201.15 -31.75 201.1 -30.25 198.9 -30.2 198.85 Q-27.8 195.4 -25.75 192.0 L-23.35 187.75 -22.2 185.5 Q-18.65 178.35 -13.7 172.1 -9.3 166.55 -5.1 159.75 -1.1 153.25 1.6 147.15 L2.15 145.75 3.35 142.3 4.2 138.6 Q4.75 135.4 4.85 131.95 L4.85 130.65 Q4.85 125.4 4.15 120.7 3.6 117.25 2.7 114.1 0.65 106.7 -3.1 100.8 L-3.55 100.1 -3.6 100.05 -5.15 97.65 -12.0 86.7 Q-14.9 81.95 -15.4 75.25 L-15.35 75.25 -15.15 74.35 -15.6 74.35 -4.65 71.4 -4.6 71.4 Q-0.75 89.15 6.35 93.6 L8.4 97.65 Q14.05 109.6 15.6 120.7 17.75 136.4 11.65 150.5 6.55 162.75 -12.15 192.0 L-20.95 205.5 -23.35 208.5 Q-29.1 216.2 -31.1 224.95 L-31.95 230.4 Q-32.7 238.55 -30.35 247.55 L-30.7 246.95 -29.0 253.4 -28.95 253.45 -28.25 253.45 Q-27.1 257.5 -25.75 260.65 L-23.1 265.55 Q-21.05 268.6 -18.65 270.1 -2.2 301.3 -13.35 327.0 -15.05 331.05 -18.2 336.95 L-21.95 336.95" fill="#a8b38c" fill-rule="evenodd" stroke="none"/>
    <path d="M-15.6 74.35 L-15.15 74.35 -15.35 75.25 -15.4 75.25 Q-14.9 81.95 -12.0 86.7 L-5.15 97.65 -3.6 100.05 -3.55 100.1 -3.1 100.8 Q0.65 106.7 2.7 114.1 3.6 117.25 4.15 120.7 4.85 125.4 4.85 130.65 L4.85 131.95 Q4.75 135.4 4.2 138.6 L3.35 142.3 2.15 145.75 1.6 147.15 Q-1.1 153.25 -5.1 159.75 -9.3 166.55 -13.7 172.1 -18.65 178.35 -22.2 185.5 L-23.35 187.75 -25.75 192.0 Q-27.8 195.4 -30.2 198.85 L-30.25 198.9 -31.75 201.1 -31.75 201.15 -36.4 208.5 -38.7 212.6 -40.5 216.35 -41.65 219.1 Q-42.5 221.2 -43.1 224.95 L-43.4 227.35 -43.7 230.4 Q-44.05 234.15 -43.9 237.35 -43.75 241.8 -42.65 245.75 -42.25 247.35 -42.1 249.2 -40.8 250.9 -40.9 251.35 L-40.95 251.35 -40.75 253.4 -40.85 253.4 -40.85 253.45 -40.25 253.45 Q-39.5 259.05 -37.0 263.2 -32.9 270.05 -28.6 276.55 L-28.55 276.6 -28.1 277.3 Q-24.35 283.2 -22.3 290.6 -21.0 295.15 -20.45 300.3 -20.15 303.6 -20.15 307.15 L-20.15 308.45 Q-20.25 311.9 -20.8 315.1 L-21.65 318.8 -22.85 322.25 -23.4 323.65 Q-26.1 329.75 -30.1 336.25 L-30.5 336.95 -33.95 336.95 -30.55 331.55 Q-20.95 316.1 -22.65 300.3 -23.85 288.95 -30.9 277.4 -38.9 269.75 -42.75 253.45 -38.9 269.75 -30.9 277.4 -23.85 288.95 -22.65 300.3 L-23.3 300.3 -23.35 299.8 -23.4 299.4 -23.55 299.05 Q-28.5 283.3 -31.4 278.6 L-32.6 277.35 -32.25 277.95 Q-39.7 267.7 -43.15 254.25 L-43.4 253.45 -44.0 251.65 Q-47.1 241.3 -45.8 230.4 L-44.85 224.95 Q-43.05 216.85 -38.85 208.5 L-35.45 202.35 -5.55 155.05 Q4.95 138.05 1.95 120.7 0.2 110.85 -5.9 100.9 L-8.8 97.65 Q-14.95 89.7 -18.1 75.45 L-18.25 75.45 -18.25 74.95 -18.25 74.35 -15.6 74.35" fill="#899865" fill-rule="evenodd" stroke="none"/>
    <path d="M-18.2 336.95 Q-15.05 331.05 -13.35 327.0 -2.2 301.3 -18.65 270.1 -21.05 268.6 -23.1 265.55 L-25.75 260.65 Q-27.1 257.5 -28.25 253.45 M-28.95 253.45 L-29.0 253.4 -30.7 246.95 M-30.35 247.55 Q-32.7 238.55 -31.95 230.4 L-31.1 224.95 Q-29.1 216.2 -23.35 208.5 L-20.95 205.5 -12.15 192.0 Q6.55 162.75 11.65 150.5 17.75 136.4 15.6 120.7 14.05 109.6 8.4 97.65 L6.35 93.6 Q-0.75 89.15 -4.6 71.4 M-32.25 277.95 Q-39.7 267.7 -43.15 254.25 L-43.4 253.45 -44.0 251.65 Q-47.1 241.3 -45.8 230.4 L-44.85 224.95 Q-43.05 216.85 -38.85 208.5 L-35.45 202.35 -5.55 155.05 Q4.95 138.05 1.95 120.7 0.2 110.85 -5.9 100.9 L-8.8 97.65 Q-14.95 89.7 -18.1 75.45 M-23.3 300.3 L-23.35 299.8 -23.4 299.4 -23.55 299.05 Q-28.5 283.3 -31.4 278.6 L-32.6 277.35" fill="none" stroke="#5f6150" stroke-linecap="round" stroke-linejoin="round" stroke-width="1.0"/>
    <path d="M-22.65 300.3 Q-23.85 288.95 -30.9 277.4 -38.9 269.75 -42.75 253.45 M-33.95 336.95 L-30.55 331.55 Q-20.95 316.1 -22.65 300.3" fill="none" stroke="#5f6150" stroke-linecap="round" stroke-linejoin="round" stroke-width="1.0"/>
    <path d="M-17.95 72.55 Q-17.4 36.3 -15.95 29.0 -13.55 16.7 -13.05 6.15 -12.6 -4.5 -15.25 -23.7 L-18.05 -51.7 -6.25 -5.0 Q-5.0 0.7 -4.35 9.2 -4.05 13.65 -3.9 36.95 L-3.85 72.55 -17.95 72.55" fill="#a8b38c" fill-rule="evenodd" stroke="none"/>
    <path d="M-17.95 72.55 Q-17.4 36.3 -15.95 29.0 -13.55 16.7 -13.05 6.15 -12.6 -4.5 -15.25 -23.7 L-18.05 -51.7 -6.25 -5.0 Q-5.0 0.7 -4.35 9.2 -4.05 13.65 -3.9 36.95 L-3.85 72.55" fill="none" stroke="#5f6150" stroke-linecap="round" stroke-linejoin="round" stroke-width="1.0"/>
    <path d="M-6.75 29.2 Q-5.75 36.6 -6.2 44.05 -6.65 51.75 -6.55 59.25 -6.45 66.85 -6.95 74.35 L-11.25 74.35 -11.15 63.7 -11.0 48.0 Q-11.1 40.45 -11.95 33.55 L-12.05 32.8 Q-12.95 27.95 -10.15 4.5 -9.85 1.85 -13.7 -32.15 L-8.45 4.75 -8.4 5.0 Q-7.6 9.5 -7.6 14.25 -7.7 22.1 -6.75 29.2" fill="#c6cdb4" fill-rule="evenodd" stroke="none"/>
    <path d="M-15.55 25.75 L-15.05 36.75 Q-14.8 43.9 -14.0 51.95 -13.3 59.5 -14.0 67.3 L-14.45 74.35 -16.85 74.35 -16.8 73.0 Q-15.8 42.6 -15.55 25.75" fill="#899865" fill-rule="evenodd" stroke="none"/>
    <path d="M-25.25 351.4 L-27.65 351.25 Q-33.05 348.2 -31.9 340.5 -31.3 335.95 -29.15 331.85 L-28.95 331.45 -25.65 333.2 -25.8 333.65 Q-26.85 337.2 -26.25 340.8 -25.3 347.05 -20.45 338.7 L-19.45 337.0 -19.25 336.5 -18.35 337.0 -18.6 337.45 -20.9 341.5 Q-23.05 347.25 -25.25 351.4" fill="#a8b38c" fill-rule="evenodd" stroke="none"/>
    <path d="M-19.25 336.5 L-19.45 337.0 -20.45 338.7 Q-25.3 347.05 -26.25 340.8 -26.85 337.2 -25.8 333.65 L-25.65 333.2 -19.25 336.5" fill="#c6cdb4" fill-rule="evenodd" stroke="none"/>
    <path d="M-28.95 331.45 L-29.15 331.85 Q-31.3 335.95 -31.9 340.5 -33.05 348.2 -27.65 351.25 L-25.25 351.4 Q-29.55 359.6 -33.95 361.45 -38.25 363.3 -41.5 359.05 -44.9 355.5 -36.8 339.3 L-32.85 334.95 -30.8 331.0 -30.6 330.6 -28.95 331.45 M-35.55 346.7 Q-36.05 346.45 -36.8 347.25 -37.6 348.05 -38.2 349.45 -38.85 350.8 -38.95 351.85 L-38.8 353.05 -38.5 353.3 Q-38.1 353.5 -37.3 352.7 L-36.4 351.55 -35.9 350.6 Q-35.3 349.2 -35.15 348.05 -35.1 346.9 -35.55 346.7" fill="#899865" fill-rule="evenodd" stroke="none"/>
    <path d="M-35.55 346.7 Q-35.1 346.9 -35.15 348.05 -35.3 349.2 -35.9 350.6 L-36.4 351.55 -37.3 352.7 Q-38.1 353.5 -38.5 353.3 L-38.8 353.05 -38.95 351.85 Q-38.85 350.8 -38.2 349.45 -37.6 348.05 -36.8 347.25 -36.05 346.45 -35.55 346.7" fill="url(#gradient0)" fill-rule="evenodd" stroke="none"/>
    <path d="M-25.25 351.4 Q-23.05 347.25 -20.9 341.5 L-18.6 337.45 -18.35 337.0 M-30.6 330.6 L-30.8 331.0 -32.85 334.95 -36.8 339.3 Q-44.9 355.5 -41.5 359.05 -38.25 363.3 -33.95 361.45 -29.55 359.6 -25.25 351.4" fill="none" stroke="#5f6150" stroke-linecap="round" stroke-linejoin="round" stroke-width="1.0"/>
    <path d="M-8.7 7.5 Q-8.7 6.4 -9.0 5.65 -9.3 4.9 -9.9 4.7 -10.5 4.45 -10.9 5.1 -11.3 5.75 -11.0 7.2 L-10.45 9.35 Q-10.15 10.1 -9.7 10.1 -9.3 10.1 -9.0 9.35 -8.7 8.6 -8.7 7.5 M-4.05 11.2 Q-7.4 9.7 -8.6 10.2 -10.4 10.95 -11.7 13.8 -12.5 15.6 -13.2 16.4 -13.95 6.3 -12.3 5.0 -10.45 3.5 -9.35 3.45 L-5.85 2.65 Q-3.5 1.95 -4.05 11.2 M-5.35 22.55 Q-4.0 23.7 -3.95 28.15 -3.9 31.9 -4.1 35.25 -5.25 32.1 -7.7 32.4 -9.65 32.65 -16.9 39.5 L-15.9 32.05 -15.0 27.2 Q-11.15 23.2 -9.25 22.15 -7.15 21.0 -5.35 22.55 M-6.4 23.9 Q-6.55 22.2 -7.3 22.05 -8.1 21.9 -8.55 23.5 -9.05 25.05 -8.8 27.85 -8.6 30.6 -8.25 31.55 -7.9 32.45 -7.4 31.25 L-6.6 29.05 Q-6.3 28.15 -6.3 26.85 L-6.4 23.9 M-12.9 46.8 Q-9.15 45.65 -5.85 47.2 -3.4 48.35 -3.3 52.8 -3.2 56.55 -3.65 59.9 -5.65 56.75 -9.55 56.95 -13.6 57.1 -16.35 60.15 L-17.6 61.7 Q-17.15 57.35 -17.0 48.85 -16.35 47.85 -12.9 46.8 M-7.75 48.55 Q-8.0 46.85 -9.4 46.7 -10.85 46.55 -11.65 48.15 -12.5 49.7 -12.1 52.5 -11.7 55.25 -11.1 56.2 -10.5 57.1 -9.6 55.9 L-8.15 53.7 Q-7.55 52.8 -7.55 51.5 L-7.75 48.55" fill="#443422" fill-rule="evenodd" stroke="none"/>
    <path d="M-8.7 7.5 Q-8.7 8.6 -9.0 9.35 -9.3 10.1 -9.7 10.1 -10.15 10.1 -10.45 9.35 L-11.0 7.2 Q-11.3 5.75 -10.9 5.1 -10.5 4.45 -9.9 4.7 -9.3 4.9 -9.0 5.65 -8.7 6.4 -8.7 7.5 M-6.4 23.9 L-6.3 26.85 Q-6.3 28.15 -6.6 29.05 L-7.4 31.25 Q-7.9 32.45 -8.25 31.55 -8.6 30.6 -8.8 27.85 -9.05 25.05 -8.55 23.5 -8.1 21.9 -7.3 22.05 -6.55 22.2 -6.4 23.9 M-7.75 48.55 L-7.55 51.5 Q-7.55 52.8 -8.15 53.7 L-9.6 55.9 Q-10.5 57.1 -11.1 56.2 -11.7 55.25 -12.1 52.5 -12.5 49.7 -11.65 48.15 -10.85 46.55 -9.4 46.7 -8.0 46.85 -7.75 48.55" fill="#ab8458" fill-rule="evenodd" stroke="none"/>
    <path d="M5.75 92.85 L6.75 93.85 Q9.05 96.95 10.55 100.5 10.9 101.5 10.7 102.95 8.3 101.3 4.7 102.85 1.05 104.35 -0.05 108.2 L-1.15 110.6 Q-2.35 107.2 -4.2 104.2 L-5.55 101.75 Q-5.45 98.55 -4.2 95.85 -3.05 93.25 0.2 92.25 3.15 91.25 5.75 92.85 M13.05 120.55 Q14.75 121.4 15.8 123.2 L16.15 124.55 Q16.6 128.4 16.2 132.2 16.0 133.3 16.2 134.35 13.8 131.85 9.95 131.4 6.0 130.95 3.2 133.75 L1.8 134.9 1.45 128.2 Q1.4 126.75 1.5 125.45 3.2 122.7 5.6 120.95 L6.2 120.55 Q8.3 119.35 11.2 119.95 L13.05 120.55 M3.9 99.65 Q2.65 94.95 -0.5 95.0 0.2 98.95 3.25 100.7 4.3 101.3 3.9 99.65 M9.35 146.9 Q11.7 148.9 11.75 151.95 L11.4 153.3 Q9.95 156.9 7.75 160.0 7.05 160.9 6.7 161.9 5.85 158.55 2.7 156.3 -0.55 154.0 -4.35 155.1 L-5.85 155.45 -6.0 155.35 -3.15 149.45 -1.85 147.05 Q0.95 145.45 3.95 145.05 6.75 144.65 9.35 146.9 M10.8 128.25 Q12.0 123.55 9.25 122.0 7.95 125.8 9.7 128.8 10.35 129.9 10.8 128.25 M4.95 153.95 Q8.25 150.4 6.6 147.75 3.65 150.45 3.75 153.9 L4.95 153.95 M-4.7 69.9 Q-3.5 73.6 -3.2 77.4 L-2.8 79.5 Q-5.6 77.5 -9.45 77.8 -12.1 78.0 -13.9 79.5 L-15.65 81.4 -16.75 82.8 -17.55 79.5 -18.35 76.3 -18.85 73.6 Q-17.75 70.55 -15.7 68.4 -13.8 66.3 -10.4 66.35 -7.25 66.35 -5.3 68.65 -4.95 69.15 -4.7 69.9 M-9.2 74.55 Q-8.9 69.7 -11.95 68.75 -12.5 72.7 -10.2 75.3 -9.35 76.25 -9.2 74.55 M-22.35 182.6 L-19.4 176.55 -18.0 174.2 Q-15.2 172.6 -12.25 172.25 -9.5 171.85 -6.9 174.1 -4.5 176.1 -4.5 179.15 -4.5 179.75 -4.8 180.5 -6.25 184.05 -8.5 187.2 -9.2 188.05 -9.55 189.05 -10.4 185.7 -13.55 183.45 -16.8 181.15 -20.6 182.25 L-22.35 182.6 M-11.25 181.1 Q-7.9 177.6 -9.6 174.9 -12.6 177.6 -12.5 181.05 L-11.25 181.1 M-21.7 206.25 L-22.05 207.6 Q-23.4 211.2 -25.55 214.4 -26.25 215.25 -26.55 216.3 -27.5 212.95 -30.7 210.8 -34.0 208.5 -37.75 209.7 L-39.5 210.05 -36.7 204.0 -35.4 201.6 Q-32.65 199.95 -29.7 199.5 -26.9 199.05 -24.25 201.25 -21.8 203.2 -21.7 206.25 M-29.7 208.35 L-28.5 208.4 Q-25.2 204.8 -26.95 202.15 -29.85 204.9 -29.7 208.35 M-31.7 238.15 L-31.7 240.3 Q-34.05 237.8 -37.95 237.35 -41.9 236.9 -44.7 239.7 L-46.05 240.85 -46.4 234.15 -46.35 231.4 Q-44.7 228.65 -42.3 226.9 -40.0 225.2 -36.65 225.9 -33.6 226.5 -32.1 229.15 -31.85 229.7 -31.75 230.5 -31.25 234.35 -31.7 238.15 M-38.2 234.75 Q-37.55 235.85 -37.1 234.2 -35.85 229.5 -38.65 227.95 -39.95 231.75 -38.2 234.75 M-27.3 256.95 Q-25.45 260.3 -24.4 264.0 L-23.6 266.0 Q-26.7 264.55 -30.45 265.65 -33.0 266.35 -34.5 268.15 L-35.8 270.35 -36.6 271.95 -38.05 268.9 -39.5 265.9 -40.45 263.35 Q-40.0 260.15 -38.45 257.6 -37.0 255.15 -33.6 254.55 -30.55 253.95 -28.2 255.85 L-27.3 256.95 M-30.85 262.4 Q-31.5 257.6 -34.7 257.25 -34.45 261.2 -31.65 263.3 -30.65 264.05 -30.85 262.4 M-25.8 284.0 Q-24.65 281.4 -21.4 280.4 -18.45 279.4 -15.85 281.0 -15.3 281.3 -14.85 282.0 -12.55 285.1 -11.05 288.65 -10.7 289.65 -10.9 291.1 -13.3 289.45 -16.9 291.0 -20.55 292.5 -21.65 296.35 L-22.75 298.75 Q-23.95 295.35 -25.8 292.35 L-27.15 289.9 Q-27.05 286.7 -25.8 284.0 M-17.7 287.8 Q-18.95 283.1 -22.1 283.15 -21.4 287.1 -18.35 288.85 -17.3 289.45 -17.7 287.8 M-10.75 320.5 Q-10.75 321.1 -11.05 321.85 L-13.45 327.7 -15.15 331.3 Q-16.65 327.05 -19.8 324.8 -23.0 322.5 -26.8 323.55 -24.45 319.6 -24.7 318.1 -24.95 316.6 -24.25 315.55 -21.45 313.95 -18.5 313.6 -15.75 313.2 -13.15 315.45 -10.75 317.45 -10.75 320.5 M-17.5 322.45 Q-14.15 318.95 -15.85 316.25 -18.85 318.95 -18.75 322.4 L-17.5 322.45" fill="#443422" fill-rule="evenodd" stroke="none"/>
    <path d="M3.9 99.65 Q4.3 101.3 3.25 100.7 0.2 98.95 -0.5 95.0 2.65 94.95 3.9 99.65 M4.95 153.95 L3.75 153.9 Q3.65 150.45 6.6 147.75 8.25 150.4 4.95 153.95 M10.8 128.25 Q10.35 129.9 9.7 128.8 7.95 125.8 9.25 122.0 12.0 123.55 10.8 128.25 M-9.2 74.55 Q-9.35 76.25 -10.2 75.3 -12.5 72.7 -11.95 68.75 -8.9 69.7 -9.2 74.55 M-11.25 181.1 L-12.5 181.05 Q-12.6 177.6 -9.6 174.9 -7.9 177.6 -11.25 181.1 M-29.7 208.35 Q-29.85 204.9 -26.95 202.15 -25.2 204.8 -28.5 208.4 L-29.7 208.35 M-38.2 234.75 Q-39.95 231.75 -38.65 227.95 -35.85 229.5 -37.1 234.2 -37.55 235.85 -38.2 234.75 M-30.85 262.4 Q-30.65 264.05 -31.65 263.3 -34.45 261.2 -34.7 257.25 -31.5 257.6 -30.85 262.4 M-17.7 287.8 Q-17.3 289.45 -18.35 288.85 -21.4 287.1 -22.1 283.15 -18.95 283.1 -17.7 287.8 M-17.5 322.45 L-18.75 322.4 Q-18.85 318.95 -15.85 316.25 -14.15 318.95 -17.5 322.45" fill="#ab8458" fill-rule="evenodd" stroke="none"/>
  </g>
  <defs>
    <radialGradient cx="0" cy="0" gradientTransform="matrix(-0.0018, -8.0E-4, 0.0026, -0.0052, -37.05, 350.2)" gradientUnits="userSpaceOnUse" id="gradient0" r="819.2" spreadMethod="pad">
      <stop offset="0.0" stop-color="#ffffff"/>
      <stop offset="0.6705882352941176" stop-color="#000000"/>
    </radialGradient>
  </defs>
</svg>
