<?xml version="1.0" encoding="UTF-8" standalone="no"?>
<svg xmlns:xlink="http://www.w3.org/1999/xlink" height="335.8px" width="304.85px" xmlns="http://www.w3.org/2000/svg">
  <g transform="matrix(1.0, 0.0, 0.0, 1.0, 152.4, 167.9)">
    <path d="M81.55 -163.75 L81.9 -162.9 81.9 -117.2 147.45 -117.2 148.35 -116.8 148.7 -115.95 148.7 162.9 148.35 163.8 Q147.95 164.15 147.45 164.15 L-147.4 164.15 Q-147.9 164.15 -148.25 163.8 -148.65 163.4 -148.65 162.9 L-148.65 -162.9 Q-148.65 -163.4 -148.25 -163.75 -147.9 -164.15 -147.4 -164.15 L80.65 -164.15 Q81.15 -164.15 81.55 -163.75" fill="#000000" fill-rule="evenodd" stroke="none"/>
    <path d="M82.45 -164.65 Q83.15 -163.95 83.15 -162.9 L83.15 -118.45 147.45 -118.45 Q148.5 -118.45 149.25 -117.7 149.95 -117.0 149.95 -115.95 L149.95 162.9 Q149.95 163.95 149.25 164.7 148.5 165.4 147.45 165.4 L-147.4 165.4 Q-148.45 165.4 -149.15 164.7 -149.9 163.95 -149.9 162.9 L-149.9 -162.9 Q-149.9 -163.95 -149.15 -164.65 -148.45 -165.4 -147.4 -165.4 L80.65 -165.4 Q81.7 -165.4 82.45 -164.65 M81.55 -163.75 Q81.15 -164.15 80.65 -164.15 L-147.4 -164.15 Q-147.9 -164.15 -148.25 -163.75 -148.65 -163.4 -148.65 -162.9 L-148.65 162.9 Q-148.65 163.4 -148.25 163.8 -147.9 164.15 -147.4 164.15 L147.45 164.15 Q147.95 164.15 148.35 163.8 L148.7 162.9 148.7 -115.95 148.35 -116.8 147.45 -117.2 81.9 -117.2 81.9 -162.9 81.55 -163.75" fill="#000000" fill-opacity="0.7490196" fill-rule="evenodd" stroke="none"/>
    <path d="M83.3 -165.55 Q84.4 -164.45 84.4 -162.9 L84.4 -119.7 147.45 -119.7 Q149.0 -119.7 150.1 -118.6 151.2 -117.5 151.2 -115.95 L151.2 162.9 Q151.2 164.45 150.1 165.55 149.0 166.65 147.45 166.65 L-147.4 166.65 Q-148.95 166.65 -150.05 165.55 -151.15 164.45 -151.15 162.9 L-151.15 -162.9 Q-151.15 -164.45 -150.05 -165.55 -148.95 -166.65 -147.4 -166.65 L80.65 -166.65 Q82.2 -166.65 83.3 -165.55 M82.45 -164.65 Q81.7 -165.4 80.65 -165.4 L-147.4 -165.4 Q-148.45 -165.4 -149.15 -164.65 -149.9 -163.95 -149.9 -162.9 L-149.9 162.9 Q-149.9 163.95 -149.15 164.7 -148.45 165.4 -147.4 165.4 L147.45 165.4 Q148.5 165.4 149.25 164.7 149.95 163.95 149.95 162.9 L149.95 -115.95 Q149.95 -117.0 149.25 -117.7 148.5 -118.45 147.45 -118.45 L83.15 -118.45 83.15 -162.9 Q83.15 -163.95 82.45 -164.65" fill="#000000" fill-opacity="0.49803922" fill-rule="evenodd" stroke="none"/>
    <path d="M84.2 -166.4 Q85.65 -164.95 85.65 -162.9 L85.65 -120.95 147.45 -120.95 Q149.5 -120.95 151.0 -119.45 152.45 -118.0 152.45 -115.95 L152.45 162.9 Q152.45 164.95 151.0 166.45 149.5 167.9 147.45 167.9 L-147.4 167.9 Q-149.45 167.9 -150.9 166.45 -152.4 164.95 -152.4 162.9 L-152.4 -162.9 Q-152.4 -164.95 -150.9 -166.4 -149.45 -167.9 -147.4 -167.9 L80.65 -167.9 Q82.7 -167.9 84.2 -166.4 M83.3 -165.55 Q82.2 -166.65 80.65 -166.65 L-147.4 -166.65 Q-148.95 -166.65 -150.05 -165.55 -151.15 -164.45 -151.15 -162.9 L-151.15 162.9 Q-151.15 164.45 -150.05 165.55 -148.95 166.65 -147.4 166.65 L147.45 166.65 Q149.0 166.65 150.1 165.55 151.2 164.45 151.2 162.9 L151.2 -115.95 Q151.2 -117.5 150.1 -118.6 149.0 -119.7 147.45 -119.7 L84.4 -119.7 84.4 -162.9 Q84.4 -164.45 83.3 -165.55" fill="#000000" fill-opacity="0.24705882" fill-rule="evenodd" stroke="none"/>
  </g>
</svg>
