<?xml version="1.0" encoding="UTF-8" standalone="no"?>
<svg xmlns:xlink="http://www.w3.org/1999/xlink" height="18.1px" width="13.15px" xmlns="http://www.w3.org/2000/svg">
  <g transform="matrix(1.0, 0.0, 0.0, 1.0, 51.85, 6.05)">
    <path d="M-51.65 -2.4 L-51.7 -2.5 -51.8 -3.55 -51.6 -4.3 -51.05 -4.85 -50.3 -5.15 -49.05 -5.5 -47.55 -5.9 -46.25 -6.05 -45.4 -6.0 -44.3 -5.5 -43.35 -4.75 -42.4 -3.65 -41.1 -2.4 -39.8 -0.9 -39.2 0.1 -38.85 1.35 -38.9 1.6 -38.95 2.35 -38.95 3.7 -38.95 5.0 -39.1 5.75 -39.6 6.6 -40.05 7.25 -40.3 7.4 -40.55 7.65 -40.65 7.7 -40.9 7.9 -41.3 8.2 -41.3 8.25 -41.4 8.3 -42.2 8.85 -43.25 9.8 -43.35 9.9 -43.45 10.0 -44.35 10.55 -45.4 10.9 -46.25 11.0 -47.45 10.8 -49.05 10.45 -50.3 10.05 -50.7 9.95 -51.3 9.6 -51.65 9.25 -51.8 8.65 -51.7 7.05 -51.15 6.15 -50.3 5.55 -49.15 4.6 -48.3 3.95 -47.85 3.5 -47.45 3.1 -47.4 2.6 -47.4 2.45 -47.45 1.7 -47.85 1.25 -48.3 0.8 -49.15 0.1 -50.3 -0.9 -51.15 -1.55 Q-51.5 -1.9 -51.65 -2.4 M-50.85 -3.85 L-50.95 -3.45 -50.85 -2.7 -50.75 -2.55 -50.3 -2.05 -49.15 -1.1 -47.95 0.05 -47.0 0.85 -46.55 1.8 -46.55 2.4 -46.55 3.05 Q-46.65 3.6 -46.9 3.85 L-47.4 4.35 -47.55 4.45 -48.3 5.1 -48.65 5.35 -49.35 5.95 -49.55 6.1 -50.2 6.6 -50.7 7.05 -50.75 7.15 Q-50.95 7.45 -50.95 8.3 L-50.8 9.0 -50.75 9.05 -50.2 9.3 -48.8 9.7 -47.4 10.05 -46.35 10.25 -45.6 10.05 -44.65 9.7 -43.9 9.2 -42.85 8.3 -41.55 7.25 Q-41.0 6.75 -40.7 6.6 L-40.25 6.15 -39.85 5.35 -39.8 4.7 -39.8 3.6 -39.8 2.3 -39.8 1.55 -39.8 1.45 Q-39.8 0.95 -39.95 0.4 L-40.6 -0.55 -41.85 -1.95 -43.15 -3.25 -44.0 -4.2 -44.25 -4.55 Q-44.6 -4.85 -44.95 -4.95 L-46.25 -5.25 -47.4 -5.05 -48.9 -4.65 -49.9 -4.4 -50.65 -4.1 -50.85 -3.85" fill="#ffffff" fill-rule="evenodd" stroke="none"/>
    <path d="M-51.65 -2.4 Q-51.5 -1.9 -51.15 -1.55 L-50.3 -0.9 -49.15 0.1 -48.3 0.8 -47.85 1.25 -47.45 1.7 -47.4 2.45 -47.4 2.6 -47.7 2.3 -48.15 1.85 -49.0 1.15 -50.15 0.15 -51.0 -0.5 -51.55 -1.45 -51.65 -2.4 M-51.65 9.25 L-51.3 9.6 -50.7 9.95 -50.6 10.1 -50.05 10.35 -48.65 10.75 -47.25 11.1 -46.2 11.3 -45.45 11.1 -44.5 10.75 -43.75 10.25 -43.45 10.0 -43.35 9.9 -43.25 9.8 -42.7 9.35 -41.4 8.3 -41.3 8.25 -41.3 8.2 -40.9 7.9 -40.65 7.7 -40.55 7.65 -40.3 7.4 -40.05 7.25 -39.6 6.6 -39.1 5.75 -38.95 5.0 -38.95 3.7 -38.95 2.35 -38.9 1.6 -38.7 2.4 -38.8 3.4 -38.8 4.75 -38.8 6.05 -38.95 6.8 -39.45 7.65 -39.9 8.3 -40.75 8.95 -42.05 9.9 -43.2 10.95 -44.2 11.6 -45.25 11.95 -46.1 12.05 -47.3 11.85 -48.9 11.5 -50.15 11.1 Q-50.8 11.0 -51.15 10.65 -51.65 10.25 -51.65 9.7 L-51.65 9.25 M-50.75 -2.55 L-50.85 -2.7 -50.95 -3.45 -50.85 -3.85 -50.15 -4.1 -48.9 -4.45 -47.4 -4.85 -46.1 -5.0 -45.25 -4.95 -44.25 -4.55 -44.0 -4.2 -43.15 -3.25 -41.85 -1.95 -40.6 -0.55 -39.95 0.4 Q-39.8 0.95 -39.8 1.45 L-39.8 1.55 -39.8 1.45 -40.45 0.5 -41.7 -0.9 -43.0 -2.2 -43.85 -3.15 -44.8 -3.9 -46.1 -4.2 -47.25 -4.0 -48.75 -3.6 -49.75 -3.35 -50.5 -3.05 -50.75 -2.55 M-50.8 9.0 L-50.95 8.3 Q-50.95 7.45 -50.75 7.15 L-50.7 7.05 -50.15 6.6 -49.55 6.1 -49.35 5.95 -48.65 5.35 -48.15 5.0 -47.7 4.55 -47.4 4.35 -46.9 3.85 Q-46.65 3.6 -46.55 3.05 L-46.55 2.4 -46.4 2.85 -46.4 4.1 Q-46.5 4.65 -46.75 4.9 L-47.4 5.5 -48.15 6.15 -49.2 7.0 -50.05 7.65 -50.6 8.2 -50.8 9.0" fill="#3d3734" fill-rule="evenodd" stroke="none"/>
  </g>
</svg>
