<?xml version="1.0" encoding="UTF-8" standalone="no"?>
<svg xmlns:xlink="http://www.w3.org/1999/xlink" height="53.6px" width="339.2px" xmlns="http://www.w3.org/2000/svg">
  <g transform="matrix(1.0, 0.0, 0.0, 1.0, 152.8, 40.0)">
    <path d="M152.2 -37.75 L186.4 -37.75 186.4 -37.6 178.55 -37.6 178.55 13.6 -152.8 13.6 -152.8 -37.65 152.2 -37.65 152.2 -37.75 M152.2 -40.0 L159.3 -40.0 159.3 -39.9 175.1 -39.9 175.1 -40.0 186.4 -40.0 186.4 -39.1 180.2 -39.1 180.2 -39.0 -124.8 -39.0 -124.8 -38.9 -147.4 -38.9 -147.4 -39.0 -152.8 -39.0 -152.8 -39.9 -145.7 -39.9 -145.7 -39.55 -129.9 -39.55 -129.9 -39.9 152.2 -39.9 152.2 -40.0" fill="#424438" fill-rule="evenodd" stroke="none"/>
  </g>
</svg>
