<?xml version="1.0" encoding="UTF-8" standalone="no"?>
<svg xmlns:xlink="http://www.w3.org/1999/xlink" height="10.4px" width="10.45px" xmlns="http://www.w3.org/2000/svg">
  <g transform="matrix(1.0, 0.0, 0.0, 1.0, 5.25, 5.2)">
    <path d="M2.1 -2.35 Q1.2 -3.35 -0.05 -3.35 -1.35 -3.35 -2.25 -2.35 -3.15 -1.4 -3.1 -0.1 -3.15 1.25 -2.25 2.2 -1.35 3.15 -0.05 3.15 1.2 3.15 2.1 2.2 3.0 1.25 3.0 -0.1 3.0 -1.4 2.1 -2.35 M0.0 -5.2 Q2.1 -5.25 3.65 -3.7 5.2 -2.15 5.2 0.0 5.2 2.1 3.65 3.65 2.35 4.95 0.65 5.2 L0.65 5.05 -1.0 5.05 -1.0 5.1 Q-2.55 4.8 -3.75 3.65 -5.25 2.1 -5.25 0.0 -5.25 -2.15 -3.75 -3.7 -2.15 -5.25 0.0 -5.2" fill="url(#gradient0)" fill-rule="evenodd" stroke="none"/>
  </g>
  <defs>
    <radialGradient cx="0" cy="0" gradientTransform="matrix(0.0198, 0.0, 0.0, 0.0198, -0.25, -0.1)" gradientUnits="userSpaceOnUse" id="gradient0" r="819.2" spreadMethod="pad">
      <stop offset="0.21568627450980393" stop-color="#484a3f"/>
      <stop offset="0.2784313725490196" stop-color="#90937d"/>
      <stop offset="0.3568627450980392" stop-color="#404138"/>
    </radialGradient>
  </defs>
</svg>
