<?xml version="1.0" encoding="UTF-8" standalone="no"?>
<svg xmlns:xlink="http://www.w3.org/1999/xlink" height="40.0px" width="200.0px" xmlns="http://www.w3.org/2000/svg">
  <g transform="matrix(1.0, 0.0, 0.0, 1.0, 100.0, 20.0)">
    <path d="M100.0 -20.0 L100.0 20.0 -100.0 20.0 -100.0 -20.0 100.0 -20.0 M90.0 16.0 L90.0 -16.0 -90.0 -16.0 -90.0 16.0 90.0 16.0" fill="url(#gradient0)" fill-rule="evenodd" stroke="none"/>
    <path d="M90.0 -16.0 L90.0 16.0" fill="none" stroke="#666666" stroke-linecap="round" stroke-linejoin="round" stroke-width="0.05"/>
    <path d="M100.0 -20.0 L100.0 20.0 M-100.0 20.0 L-100.0 -20.0 M-90.0 -16.0 L90.0 -16.0" fill="none" stroke="#333333" stroke-linecap="round" stroke-linejoin="round" stroke-width="0.05"/>
    <path d="M-90.0 16.0 L-90.0 -16.0" fill="none" stroke="#cccccc" stroke-linecap="round" stroke-linejoin="round" stroke-width="0.05"/>
    <path d="M90.0 16.0 L-90.0 16.0" fill="none" stroke="#ffffff" stroke-linecap="round" stroke-linejoin="round" stroke-width="0.05"/>
    <path d="M-100.0 -20.0 L100.0 -20.0" fill="none" stroke="#999999" stroke-linecap="round" stroke-linejoin="round" stroke-width="0.05"/>
    <path d="M100.0 20.0 L-100.0 20.0" fill="none" stroke="#000000" stroke-linecap="round" stroke-linejoin="round" stroke-width="0.05"/>
    <path d="M95.95 -14.1 Q96.4 -13.65 96.45 -12.95 96.4 -12.3 95.95 -11.85 95.5 -11.4 94.85 -11.35 94.15 -11.4 93.7 -11.85 93.25 -12.3 93.25 -12.95 93.25 -13.65 93.7 -14.1 94.15 -14.6 94.85 -14.55 95.5 -14.6 95.95 -14.1" fill="#663300" fill-rule="evenodd" stroke="none"/>
    <path d="M95.95 -14.1 Q96.4 -13.65 96.45 -12.95 96.4 -12.3 95.95 -11.85 95.5 -11.4 94.85 -11.35 94.15 -11.4 93.7 -11.85 93.25 -12.3 93.25 -12.95 93.25 -13.65 93.7 -14.1 94.15 -14.6 94.85 -14.55 95.5 -14.6 95.95 -14.1 Z" fill="none" stroke="#a68462" stroke-linecap="round" stroke-linejoin="round" stroke-width="0.5"/>
    <path d="M95.95 12.55 Q96.4 13.0 96.45 13.7 96.4 14.35 95.95 14.8 95.5 15.25 94.85 15.3 94.15 15.25 93.7 14.8 93.25 14.35 93.25 13.7 93.25 13.0 93.7 12.55 94.15 12.05 94.85 12.1 95.5 12.05 95.95 12.55" fill="#663300" fill-rule="evenodd" stroke="none"/>
    <path d="M95.95 12.55 Q96.4 13.0 96.45 13.7 96.4 14.35 95.95 14.8 95.5 15.25 94.85 15.3 94.15 15.25 93.7 14.8 93.25 14.35 93.25 13.7 93.25 13.0 93.7 12.55 94.15 12.05 94.85 12.1 95.5 12.05 95.95 12.55 Z" fill="none" stroke="#a68462" stroke-linecap="round" stroke-linejoin="round" stroke-width="0.5"/>
    <path d="M-94.35 -14.1 Q-93.9 -13.65 -93.85 -12.95 -93.9 -12.3 -94.35 -11.85 -94.8 -11.4 -95.45 -11.35 -96.15 -11.4 -96.6 -11.85 L-97.05 -12.95 Q-97.05 -13.65 -96.6 -14.1 -96.15 -14.6 -95.45 -14.55 -94.8 -14.6 -94.35 -14.1" fill="#663300" fill-rule="evenodd" stroke="none"/>
    <path d="M-94.35 -14.1 Q-93.9 -13.65 -93.85 -12.95 -93.9 -12.3 -94.35 -11.85 -94.8 -11.4 -95.45 -11.35 -96.15 -11.4 -96.6 -11.85 L-97.05 -12.95 Q-97.05 -13.65 -96.6 -14.1 -96.15 -14.6 -95.45 -14.55 -94.8 -14.6 -94.35 -14.1 Z" fill="none" stroke="#a68462" stroke-linecap="round" stroke-linejoin="round" stroke-width="0.5"/>
    <path d="M-94.35 12.55 Q-93.9 13.0 -93.85 13.7 -93.9 14.35 -94.35 14.8 -94.8 15.25 -95.45 15.3 -96.15 15.25 -96.6 14.8 L-97.05 13.7 Q-97.05 13.0 -96.6 12.55 -96.15 12.05 -95.45 12.1 -94.8 12.05 -94.35 12.55" fill="#663300" fill-rule="evenodd" stroke="none"/>
    <path d="M-94.35 12.55 Q-93.9 13.0 -93.85 13.7 -93.9 14.35 -94.35 14.8 -94.8 15.25 -95.45 15.3 -96.15 15.25 -96.6 14.8 L-97.05 13.7 Q-97.05 13.0 -96.6 12.55 -96.15 12.05 -95.45 12.1 -94.8 12.05 -94.35 12.55 Z" fill="none" stroke="#a68462" stroke-linecap="round" stroke-linejoin="round" stroke-width="0.5"/>
  </g>
  <defs>
    <linearGradient gradientTransform="matrix(0.0, 0.0244, -0.1221, 0.0, 0.0, 0.0)" gradientUnits="userSpaceOnUse" id="gradient0" spreadMethod="pad" x1="-819.2" x2="819.2">
      <stop offset="0.0" stop-color="#f0e0d2"/>
      <stop offset="0.6941176470588235" stop-color="#663300"/>
      <stop offset="1.0" stop-color="#5b2d44"/>
    </linearGradient>
  </defs>
</svg>
