<?xml version="1.0" encoding="UTF-8" standalone="no"?>
<svg xmlns:xlink="http://www.w3.org/1999/xlink" height="12.5px" width="27.5px" xmlns="http://www.w3.org/2000/svg">
  <g transform="matrix(1.0, 0.0, 0.0, 1.0, 1.7, 15.9)">
    <path d="M-0.75 -3.55 Q-1.55 -3.0 6.05 -5.75 L15.0 -9.05 Q16.35 -9.6 20.5 -11.6 24.65 -13.6 25.6 -14.95 26.5 -16.3 23.35 -14.8 L20.85 -13.6 10.75 -8.95 Q5.0 -6.25 -0.75 -3.55" fill="#000000" fill-rule="evenodd" stroke="none">
      <animate attributeName="fill" dur="2s" repeatCount="indefinite" values="#000000;#000001"/>
      <animate attributeName="fill-opacity" dur="2s" repeatCount="indefinite" values="1.0;1.0"/>
      <animate attributeName="d" dur="2s" repeatCount="indefinite" values="M-0.75 -3.55 Q-1.55 -3.0 6.05 -5.75 L15.0 -9.05 Q16.35 -9.6 20.5 -11.6 24.65 -13.6 25.6 -14.95 26.5 -16.3 23.35 -14.8 L20.85 -13.6 10.75 -8.95 Q5.0 -6.25 -0.75 -3.55;M-1.7 -3.5 Q-1.55 -3.0 6.05 -5.75 L15.0 -9.05 Q16.35 -9.6 20.5 -11.6 24.65 -13.6 25.4 -14.95 26.15 -16.3 21.95 -15.7 L17.1 -14.85 7.3 -9.3 Q-1.85 -4.0 -1.7 -3.5"/>
    </path>
    <path d="M-0.75 -3.55 Q5.0 -6.25 10.75 -8.95 L20.85 -13.6 23.35 -14.8 Q26.5 -16.3 25.6 -14.95 24.65 -13.6 20.5 -11.6 16.35 -9.6 15.0 -9.05 L6.05 -5.75 Q-1.55 -3.0 -0.75 -3.55" fill="none" stroke="#000000" stroke-linecap="round" stroke-linejoin="round" stroke-opacity="0.0" stroke-width="1.0">
      <animate attributeName="stroke" dur="2s" repeatCount="indefinite" values="#000000;#000001"/>
      <animate attributeName="stroke-width" dur="2s" repeatCount="indefinite" values="0.0;0.0"/>
      <animate attributeName="fill-opacity" dur="2s" repeatCount="indefinite" values="0.0;0.0"/>
      <animate attributeName="d" dur="2s" repeatCount="indefinite" values="M-0.75 -3.55 Q5.0 -6.25 10.75 -8.95 L20.85 -13.6 23.35 -14.8 Q26.5 -16.3 25.6 -14.95 24.65 -13.6 20.5 -11.6 16.35 -9.6 15.0 -9.05 L6.05 -5.75 Q-1.55 -3.0 -0.75 -3.55;M-1.7 -3.5 Q-1.85 -4.0 7.3 -9.3 L17.1 -14.85 21.95 -15.7 Q26.15 -16.3 25.4 -14.95 24.65 -13.6 20.5 -11.6 16.35 -9.6 15.0 -9.05 L6.05 -5.75 Q-1.55 -3.0 -1.7 -3.5"/>
    </path>
  </g>
</svg>
